<svg viewBox="0 0 681.12 569.28" xmlns="http://www.w3.org/2000/svg" xmlns:xlink="http://www.w3.org/1999/xlink" id="Calque_2" overflow="hidden"><g><path d="M121.31 480.31C115.49 480.31 110.04 481.89 105.36 484.63 105.35 484.63 105.35 484.63 105.34 484.63 100.81 486.35 100.89 479.03 100.89 479.03L100.89 470.83 89.64 470.83 89.64 511.01 89.66 511.02C89.65 511.34 89.64 511.66 89.64 511.99 89.64 529.48 103.85 546.99 121.34 546.99 138.83 546.99 156.78 531.45 156.37 513.96 155.92 495.33 138.81 480.31 121.31 480.31Z" fill="#848080"/><path d="M121.31 480.85C115.49 480.85 110.04 482.43 105.36 485.17 105.35 485.17 105.35 485.17 105.34 485.17 100.81 486.89 100.89 479.57 100.89 479.57L100.89 471.37 89.64 471.37 89.64 511.55 89.66 511.56C89.65 511.88 89.64 512.2 89.64 512.53 89.64 530.02 103.85 547.53 121.34 547.53 138.83 547.53 156.78 531.99 156.37 514.5 155.92 495.87 138.81 480.85 121.31 480.85Z" stroke="#333333" stroke-width="1.21" stroke-linejoin="round" stroke-miterlimit="10" fill="none"/><circle cx="126.1" cy="517.44" r="31.67" fill="#A09C9C"/><path d="M109.16 491.21C114.06 488.1 119.87 486.3 126.11 486.3 143.6 486.3 157.78 500.48 157.78 517.97 157.78 535.46 143.6 549.64 126.11 549.64 108.62 549.64 94.44 535.46 94.44 517.97 94.44 515.01 94.84 512.15 95.6 509.44" stroke="#333333" stroke-width="1.21" stroke-linecap="round" stroke-linejoin="round" stroke-miterlimit="10" fill="none"/><circle cx="126.1" cy="517.44" r="18.9" fill="#C4C0C0"/><circle cx="126.1" cy="517.44" r="18.9" stroke="#333333" stroke-width="1.21" stroke-linejoin="round" stroke-miterlimit="10" fill="none"/><path d="M117.46 505.58 117.12 511.52 111.24 515.22 114.82 519.86 113.63 526.46 119.28 527.65 123.3 532.83 128.12 529.5 134.7 530.41 135.36 524.47 140.98 520.59 138.3 515.54 138.44 509.25 132.84 507.85 128.67 503.09 124.32 507.26Z" fill="#546F75"/><path d="M117.46 505.58 117.12 511.52 111.24 515.22 114.82 519.86 113.63 526.46 119.28 527.65 123.3 532.83 128.12 529.5 134.7 530.41 135.36 524.47 140.98 520.59 138.3 515.54 138.44 509.25 132.84 507.85 128.67 503.09 124.32 507.26Z" stroke="#333333" stroke-width="1.21" stroke-linejoin="round" stroke-miterlimit="10" fill="none"/><path d="M140.77 515.22C140.84 515.22 140.9 515.23 140.96 515.23 140.56 513.03 139.68 511 138.43 509.25 138.4 509.29 138.37 509.32 138.33 509.36 136.27 511.42 133.76 512.23 132.71 511.18 131.66 510.13 132.48 507.61 134.53 505.56 134.56 505.53 134.58 505.51 134.61 505.49 132.86 504.29 130.84 503.47 128.66 503.1 128.66 503.11 128.66 503.12 128.66 503.13 128.66 506.04 127.46 508.4 125.97 508.4 124.49 508.4 123.28 506.04 123.28 503.14 121.14 503.54 119.16 504.39 117.44 505.6 119.48 507.65 120.28 510.15 119.24 511.19 118.2 512.23 115.7 511.43 113.65 509.4 112.46 511.12 111.62 513.1 111.23 515.24 114.12 515.25 116.45 516.45 116.45 517.93 116.45 519.41 114.11 520.61 111.21 520.62 111.59 522.77 112.41 524.77 113.59 526.51 113.6 526.5 113.6 526.49 113.61 526.49 115.67 524.43 118.18 523.62 119.23 524.67 120.28 525.72 119.46 528.24 117.41 530.29 117.39 530.31 117.37 530.32 117.36 530.34 119.1 531.57 121.11 532.45 123.29 532.86 123.29 532.81 123.28 532.77 123.28 532.73 123.28 529.82 124.48 527.46 125.97 527.46 127.46 527.46 128.66 529.82 128.66 532.73 128.66 532.79 128.65 532.84 128.65 532.9 130.86 532.52 132.91 531.67 134.69 530.44 134.64 530.39 134.58 530.35 134.53 530.3 132.47 528.24 131.66 525.73 132.71 524.68 133.76 523.63 136.28 524.45 138.33 526.5 138.38 526.55 138.43 526.61 138.48 526.67 139.72 524.9 140.59 522.84 140.97 520.62 140.9 520.62 140.83 520.63 140.76 520.63 137.85 520.63 135.49 519.43 135.49 517.94 135.49 516.45 137.86 515.22 140.77 515.22Z" fill="#768D93"/><path d="M140.77 515.22C140.84 515.22 140.9 515.23 140.96 515.23 140.56 513.03 139.68 511 138.43 509.25 138.4 509.29 138.37 509.32 138.33 509.36 136.27 511.42 133.76 512.23 132.71 511.18 131.66 510.13 132.48 507.61 134.53 505.56 134.56 505.53 134.58 505.51 134.61 505.49 132.86 504.29 130.84 503.47 128.66 503.1 128.66 503.11 128.66 503.12 128.66 503.13 128.66 506.04 127.46 508.4 125.97 508.4 124.49 508.4 123.28 506.04 123.28 503.14 121.14 503.54 119.16 504.39 117.44 505.6 119.48 507.65 120.28 510.15 119.24 511.19 118.2 512.23 115.7 511.43 113.65 509.4 112.46 511.12 111.62 513.1 111.23 515.24 114.12 515.25 116.45 516.45 116.45 517.93 116.45 519.41 114.11 520.61 111.21 520.62 111.59 522.77 112.41 524.77 113.59 526.51 113.6 526.5 113.6 526.49 113.61 526.49 115.67 524.43 118.18 523.62 119.23 524.67 120.28 525.72 119.46 528.24 117.41 530.29 117.39 530.31 117.37 530.32 117.36 530.34 119.1 531.57 121.11 532.45 123.29 532.86 123.29 532.81 123.28 532.77 123.28 532.73 123.28 529.82 124.48 527.46 125.97 527.46 127.46 527.46 128.66 529.82 128.66 532.73 128.66 532.79 128.65 532.84 128.65 532.9 130.86 532.52 132.91 531.67 134.69 530.44 134.64 530.39 134.58 530.35 134.53 530.3 132.47 528.24 131.66 525.73 132.71 524.68 133.76 523.63 136.28 524.45 138.33 526.5 138.38 526.55 138.43 526.61 138.48 526.67 139.72 524.9 140.59 522.84 140.97 520.62 140.9 520.62 140.83 520.63 140.76 520.63 137.85 520.63 135.49 519.43 135.49 517.94 135.49 516.45 137.86 515.22 140.77 515.22Z" stroke="#333333" stroke-width="1.21" stroke-linejoin="round" stroke-miterlimit="10" fill="none"/><path d="M99.85 500.25C101.25 498.17 102.9 496.27 104.74 494.59" stroke="#333333" stroke-width="1.21" stroke-linecap="round" stroke-linejoin="round" stroke-miterlimit="10" fill="none"/><ellipse cx="95.16" cy="471.37" rx="5.52" ry="2.12" fill="#A09C9C"/><ellipse cx="95.16" cy="471.37" rx="5.52" ry="2.12" stroke="#333333" stroke-width="1.21" stroke-linejoin="round" stroke-miterlimit="10" fill="none"/><g><g><path d="M107.2 421.47C106.37 421.47 105.7 420.8 105.7 419.97L105.7 378.07C105.7 377.24 106.37 376.57 107.2 376.57 108.03 376.57 108.7 377.24 108.7 378.07L108.7 419.97C108.7 420.8 108.03 421.47 107.2 421.47Z" fill="#FA1313"/></g><g><g><path d="M107.2 430.78 100.98 415.55 107.2 419.16 113.42 415.55Z" fill="#FA1313"/></g></g></g><circle cx="126.1" cy="517.98" r="4.13"/><path d="M572.76 412.01 565.28 417.33 565.28 323.56 572.76 318.24Z" fill="#F9DFD7"/><path d="M572.76 412.01 565.28 417.33 565.28 323.56 572.76 318.24Z" stroke="#333333" stroke-width="0.7744" stroke-linejoin="round" stroke-miterlimit="10" fill="none"/><rect x="517.73" y="323.56" width="47.55" height="93.78" fill="#F9DFD7"/><path d="M525.21 318.24 572.76 318.24 565.28 323.56 517.73 323.56Z" fill="#F9DFD7"/><g><g><path d="M370.97 532.15 329.07 532.15C328.24 532.15 327.57 531.48 327.57 530.65 327.57 529.82 328.24 529.15 329.07 529.15L370.97 529.15C371.8 529.15 372.47 529.82 372.47 530.65 372.47 531.48 371.8 532.15 370.97 532.15Z" fill="#FA1313"/></g><g><g><path d="M381.77 530.65 366.55 536.87 370.16 530.65 366.55 524.43Z" fill="#FA1313"/></g></g></g><g><path d="M542.84 520.36 126.5 520.36C125.12 520.36 124 519.24 124 517.86 124 516.48 125.12 515.36 126.5 515.36L537.84 515.36 537.84 404.29C537.84 402.91 538.96 401.79 540.34 401.79 541.72 401.79 542.84 402.91 542.84 404.29L542.84 520.36Z" fill="#FA1313"/></g><g><path d="M624.56 458.85 616.33 458.85C616.33 458.85 613.17 458.68 613.09 461.59 613.01 464.5 611.43 465.75 610.51 466.33 609.6 466.91 607.68 467.74 608.93 469.32 610.18 470.9 610.59 472.81 610.84 476.8 611.09 480.79 611.09 505.98 610.67 507.64 610.25 509.3 608.18 513.96 607.59 516.45 607.01 518.94 607.59 521.85 608.75 522.6 609.91 523.35 613.82 521.85 615.07 520.85 616.32 519.85 622.05 519.1 625.46 518.94 628.87 518.77 636.52 519.44 638.51 520.85 640.51 522.26 643.5 523.76 645.08 523.18 646.66 522.6 645.58 519.94 644.25 517.28 642.92 514.62 641.67 508.3 641.67 499.9 641.67 491.5 642 476.95 642.17 473.3 642.34 469.65 643.42 466.98 641.75 464.99 640.09 462.99 639.42 462.58 639.09 460.92 638.76 459.26 637.93 458.84 635.6 458.84 633.28 458.85 624.56 458.85 624.56 458.85Z" fill="#FFDC21"/><path d="M624.56 458.85 616.33 458.85C616.33 458.85 613.17 458.68 613.09 461.59 613.01 464.5 611.43 465.75 610.51 466.33 609.6 466.91 607.68 467.74 608.93 469.32 610.18 470.9 610.59 472.81 610.84 476.8 611.09 480.79 611.09 505.98 610.67 507.64 610.25 509.3 608.18 513.96 607.59 516.45 607.01 518.94 607.59 521.85 608.75 522.6 609.91 523.35 613.82 521.85 615.07 520.85 616.32 519.85 622.05 519.1 625.46 518.94 628.87 518.77 636.52 519.44 638.51 520.85 640.51 522.26 643.5 523.76 645.08 523.18 646.66 522.6 645.58 519.94 644.25 517.28 642.92 514.62 641.67 508.3 641.67 499.9 641.67 491.5 642 476.95 642.17 473.3 642.34 469.65 643.42 466.98 641.75 464.99 640.09 462.99 639.42 462.58 639.09 460.92 638.76 459.26 637.93 458.84 635.6 458.84 633.28 458.85 624.56 458.85 624.56 458.85Z" stroke="#333333" stroke-width="0.7744" stroke-miterlimit="10" fill="none"/><path d="M615.45 465.09C615.35 464.58 615.5 463.99 615.86 463.55 616.21 463.1 616.7 462.8 617.22 462.62 618.29 462.28 619.36 462.44 620.31 462.81 619.29 463.04 618.31 463.05 617.47 463.35 616.6 463.63 615.87 464.13 615.45 465.09Z" fill="#333333"/><path d="M622.56 462.59C624.06 462.29 625.56 462.22 627.06 462.2 628.56 462.21 630.06 462.28 631.56 462.59 630.06 462.9 628.56 462.97 627.06 462.98 625.56 462.96 624.06 462.89 622.56 462.59Z" fill="#333333"/><path d="M634.12 462.86C634.74 462.53 635.5 462.67 636.08 463.03 636.65 463.4 637.1 464.04 637.06 464.74 636.54 464.3 636.13 463.98 635.67 463.69 635.2 463.38 634.73 463.15 634.12 462.86Z" fill="#333333"/><path d="M611.92 510.89C612.06 512.32 611.74 513.75 611.52 515.13 611.42 515.82 611.3 516.51 611.29 517.19 611.27 517.53 611.28 517.85 611.38 518.02 611.47 518.17 611.61 518.22 611.89 518.16 612.16 518.11 612.46 517.95 612.8 517.8 613.13 517.65 613.46 517.52 613.8 517.39 614.48 517.15 615.17 516.94 615.88 516.8 617.29 516.51 618.73 516.4 620.15 516.54 618.74 516.72 617.36 516.98 616.03 517.38 615.37 517.59 614.71 517.8 614.07 518.07 613.75 518.2 613.43 518.33 613.12 518.48 612.81 518.62 612.49 518.81 612.06 518.9 611.85 518.94 611.6 518.96 611.34 518.88 611.08 518.8 610.85 518.6 610.73 518.37 610.5 517.91 610.54 517.48 610.57 517.13 610.63 516.4 610.76 515.68 610.95 514.99 611.29 513.62 611.74 512.31 611.92 510.89Z" fill="#333333"/><path d="M622.98 516.04C623.17 515.72 623.41 515.65 623.63 515.66 623.85 515.69 624.08 515.79 624.22 516.14 623.95 516.39 623.76 516.44 623.57 516.43 623.38 516.41 623.2 516.33 622.98 516.04Z" fill="#333333"/><path d="M626.88 515.88C626.99 515.58 627.1 515.51 627.21 515.49 627.32 515.5 627.43 515.57 627.54 515.88 627.43 516.19 627.32 516.26 627.21 516.27 627.1 516.25 626.99 516.18 626.88 515.88Z" fill="#333333"/><path d="M632.3 516.19C633.24 515.92 634.24 515.84 635.22 515.94 636.21 516.04 637.18 516.31 638.09 516.72 638.54 516.94 638.98 517.18 639.39 517.46L640.53 518.32C640.89 518.57 641.29 518.74 641.7 518.68 642.12 518.63 642.54 518.36 642.78 517.94 642.7 518.43 642.3 518.85 641.79 519.05 641.26 519.25 640.66 519.09 640.22 518.85 639.33 518.32 638.63 517.81 637.76 517.44 636.08 516.64 634.24 516.26 632.3 516.19Z" fill="#333333"/><path d="M615.4 475.45C615.15 476.37 614.97 477.32 615.09 478.27 615.2 479.21 615.62 480.15 616.38 480.73 616.52 480.84 616.68 480.93 616.86 480.94 617.37 480.95 617.57 480.28 617.6 479.77 617.71 478.23 617.81 476.69 617.87 475.14 617.91 474.14 618.37 471.39 617.69 470.65 616.53 471.86 615.83 473.87 615.4 475.45Z" fill="#FFFFFF"/><path d="M615.38 486.25C615.36 487.04 615.47 487.87 615.92 488.52 615.97 488.6 616.04 488.68 616.12 488.72 616.37 488.85 616.67 488.64 616.84 488.41 617.33 487.77 617.54 486.95 617.54 486.15 617.54 485.51 617.51 484.03 616.62 483.99 615.62 483.95 615.4 485.55 615.38 486.25Z" fill="#FFFFFF"/><rect x="620.3" y="453.69" width="2.26" height="5.15" fill="#333333"/><rect x="628.62" y="453.69" width="2.26" height="5.15" fill="#333333"/><path d="M639.51 476.46C639.38 483.55 639.25 490.64 639.13 497.73 639.04 502.53 638.96 507.37 639.96 512.07 640.23 513.35 640.59 514.62 640.74 515.93 637.81 515.36 634.89 514.79 631.96 514.22 632.67 513.34 634.03 513.63 635.15 513.74 635.97 513.82 636.81 513.76 637.62 513.56 637.76 513.53 637.9 513.48 637.99 513.38 638.09 513.27 638.11 513.11 638.12 512.96 638.17 512.01 637.86 511.08 637.63 510.15 636.62 506.13 636.92 501.92 637.11 497.79 637.3 493.69 637.39 489.58 637.4 485.48 637.41 483.41 637.39 481.34 637.37 479.27 637.36 478.27 637.34 477.27 637.32 476.27 637.31 475.56 637.03 474.37 637.49 473.76 638.96 471.82 639.53 475.68 639.51 476.46Z" fill="#F9E698"/><path d="M613.11 512.75C612.93 513.74 612.83 514.98 613.66 515.54 614.41 516.05 615.42 515.65 616.26 515.3 620.61 513.47 625.44 513.31 630.11 512.68 631.33 512.52 632.66 512.26 633.45 511.32 634.13 510.5 634.25 509.3 633.91 508.29 633.75 507.82 633.49 507.37 633.07 507.11 632.55 506.79 631.88 506.82 631.27 506.89 629.44 507.09 627.63 507.49 625.79 507.44 623.95 507.39 622.03 506.83 620.82 505.45 619.57 504.02 619.31 502.01 618.76 500.2 618.28 498.63 617.55 497.14 616.6 495.79 616.1 495.07 614.18 492.2 613.74 494.33 613.57 495.15 613.9 496.3 613.95 497.13 614.01 498.11 614.06 499.08 614.08 500.06 614.12 502.05 614.07 504.04 613.93 506.03 613.78 508.27 613.5 510.52 613.11 512.75Z" fill="#F9E698"/><path d="M633.66 464.84C631.85 463.79 629.62 463.77 627.55 464.04 625.48 464.31 623.42 464.83 621.32 464.78 620.44 464.76 619.54 464.64 618.67 464.77 617.8 464.9 616.9 465.36 616.54 466.17 616.46 466.34 616.41 466.53 616.46 466.71 616.59 467.19 617.24 467.22 617.73 467.17 621.32 466.78 624.95 466.88 628.52 467.46 629.47 467.61 630.42 467.81 631.29 468.22 632.46 468.78 635.83 472.69 636.79 470.73 637.82 468.59 635.31 465.79 633.66 464.84Z" fill="#F9E698"/></g><g><path d="M629.96 456.58C628.58 456.58 627.46 455.46 627.46 454.08L627.46 442.83 548.48 442.83 548.48 404.28C548.48 402.9 549.6 401.78 550.98 401.78 552.36 401.78 553.48 402.9 553.48 404.28L553.48 437.83 632.46 437.83 632.46 454.08C632.46 455.46 631.35 456.58 629.96 456.58Z" fill="#FFDC21"/></g><g><path d="M622.56 355.98 614.33 355.98C614.33 355.98 611.17 355.81 611.09 358.72 611.01 361.63 609.43 362.88 608.51 363.46 607.6 364.04 605.68 364.87 606.93 366.45 608.18 368.03 608.59 369.94 608.84 373.93 609.09 377.92 609.09 403.11 608.67 404.77 608.25 406.43 606.18 411.09 605.59 413.58 605.01 416.07 605.59 418.98 606.75 419.73 607.91 420.48 611.82 418.98 613.07 417.98 614.32 416.98 620.05 416.23 623.46 416.07 626.87 415.9 634.52 416.57 636.51 417.98 638.5 419.39 641.5 420.89 643.08 420.31 644.66 419.73 643.58 417.07 642.25 414.41 640.92 411.75 639.67 405.43 639.67 397.03 639.67 388.63 640 374.08 640.17 370.43 640.34 366.77 641.42 364.11 639.75 362.12 638.09 360.12 637.42 359.71 637.09 358.05 636.76 356.39 635.93 355.97 633.6 355.97 631.29 355.98 622.56 355.98 622.56 355.98Z" fill="#ADE9FF"/><path d="M622.56 355.98 614.33 355.98C614.33 355.98 611.17 355.81 611.09 358.72 611.01 361.63 609.43 362.88 608.51 363.46 607.6 364.04 605.68 364.87 606.93 366.45 608.18 368.03 608.59 369.94 608.84 373.93 609.09 377.92 609.09 403.11 608.67 404.77 608.25 406.43 606.18 411.09 605.59 413.58 605.01 416.07 605.59 418.98 606.75 419.73 607.91 420.48 611.82 418.98 613.07 417.98 614.32 416.98 620.05 416.23 623.46 416.07 626.87 415.9 634.52 416.57 636.51 417.98 638.5 419.39 641.5 420.89 643.08 420.31 644.66 419.73 643.58 417.07 642.25 414.41 640.92 411.75 639.67 405.43 639.67 397.03 639.67 388.63 640 374.08 640.17 370.43 640.34 366.77 641.42 364.11 639.75 362.12 638.09 360.12 637.42 359.71 637.09 358.05 636.76 356.39 635.93 355.97 633.6 355.97 631.29 355.98 622.56 355.98 622.56 355.98Z" stroke="#333333" stroke-width="0.7744" stroke-miterlimit="10" fill="none"/><path d="M613.45 362.22C613.35 361.71 613.5 361.12 613.86 360.68 614.21 360.23 614.7 359.93 615.22 359.75 616.29 359.41 617.36 359.57 618.31 359.94 617.29 360.17 616.31 360.18 615.47 360.48 614.61 360.77 613.88 361.26 613.45 362.22Z" fill="#333333"/><path d="M620.57 359.72C622.07 359.42 623.57 359.35 625.07 359.33 626.57 359.34 628.07 359.41 629.57 359.72 628.07 360.03 626.57 360.1 625.07 360.11 623.57 360.1 622.07 360.03 620.57 359.72Z" fill="#333333"/><path d="M632.12 360C632.74 359.67 633.5 359.81 634.08 360.17 634.65 360.54 635.1 361.18 635.06 361.88 634.54 361.44 634.13 361.12 633.67 360.83 633.21 360.52 632.74 360.28 632.12 360Z" fill="#333333"/><path d="M609.93 408.03C610.07 409.46 609.75 410.89 609.53 412.27 609.43 412.96 609.31 413.65 609.3 414.33 609.28 414.67 609.29 414.99 609.39 415.16 609.48 415.31 609.62 415.36 609.9 415.3 610.17 415.25 610.47 415.09 610.81 414.94 611.14 414.79 611.47 414.66 611.81 414.53 612.49 414.29 613.18 414.08 613.89 413.94 615.3 413.65 616.74 413.54 618.16 413.68 616.75 413.86 615.37 414.12 614.04 414.52 613.38 414.73 612.72 414.94 612.08 415.21 611.76 415.34 611.44 415.47 611.13 415.62 610.82 415.76 610.5 415.95 610.07 416.04 609.86 416.08 609.61 416.1 609.35 416.02 609.09 415.94 608.86 415.74 608.74 415.51 608.51 415.05 608.55 414.62 608.58 414.27 608.64 413.54 608.77 412.82 608.96 412.13 609.3 410.76 609.75 409.44 609.93 408.03Z" fill="#333333"/><path d="M620.98 413.18C621.17 412.86 621.41 412.79 621.63 412.8 621.85 412.83 622.08 412.93 622.22 413.28 621.95 413.53 621.76 413.58 621.57 413.57 621.39 413.54 621.21 413.47 620.98 413.18Z" fill="#333333"/><path d="M624.89 413.01C625 412.71 625.11 412.64 625.22 412.62 625.33 412.63 625.44 412.7 625.55 413.01 625.44 413.32 625.33 413.39 625.22 413.4 625.11 413.38 625 413.31 624.89 413.01Z" fill="#333333"/><path d="M630.3 413.32C631.24 413.05 632.24 412.97 633.22 413.07 634.21 413.17 635.18 413.44 636.09 413.85 636.54 414.07 636.98 414.31 637.39 414.59L638.53 415.45C638.89 415.7 639.29 415.87 639.7 415.81 640.12 415.76 640.54 415.49 640.78 415.07 640.7 415.56 640.3 415.98 639.79 416.18 639.26 416.38 638.66 416.22 638.22 415.98 637.33 415.45 636.63 414.94 635.76 414.57 634.08 413.78 632.24 413.39 630.3 413.32Z" fill="#333333"/><path d="M613.4 372.59C613.15 373.51 612.97 374.46 613.09 375.41 613.2 376.35 613.62 377.29 614.38 377.87 614.52 377.98 614.68 378.07 614.86 378.08 615.37 378.09 615.57 377.42 615.6 376.91 615.71 375.37 615.81 373.83 615.87 372.28 615.91 371.28 616.37 368.53 615.69 367.79 614.54 368.99 613.84 371.01 613.4 372.59Z" fill="#FFFFFF"/><path d="M613.39 383.39C613.37 384.18 613.48 385.01 613.93 385.66 613.98 385.74 614.05 385.82 614.13 385.86 614.38 385.99 614.68 385.78 614.85 385.55 615.34 384.91 615.55 384.09 615.55 383.29 615.55 382.65 615.52 381.17 614.63 381.13 613.62 381.08 613.41 382.69 613.39 383.39Z" fill="#FFFFFF"/><rect x="618.31" y="350.83" width="2.26" height="5.15" fill="#333333"/><rect x="626.62" y="350.83" width="2.26" height="5.15" fill="#333333"/><path d="M637.52 373.59C637.39 380.68 637.26 387.77 637.14 394.86 637.05 399.66 636.97 404.5 637.97 409.2 638.24 410.48 638.6 411.75 638.75 413.06 635.82 412.49 632.9 411.92 629.97 411.35 630.68 410.47 632.04 410.76 633.16 410.87 633.98 410.95 634.82 410.89 635.63 410.69 635.77 410.66 635.91 410.61 636 410.51 636.1 410.4 636.12 410.24 636.13 410.09 636.18 409.14 635.87 408.21 635.64 407.28 634.63 403.26 634.93 399.05 635.12 394.92 635.31 390.82 635.4 386.71 635.41 382.61 635.42 380.54 635.4 378.47 635.38 376.4 635.37 375.4 635.35 374.4 635.33 373.4 635.32 372.69 635.04 371.5 635.5 370.89 636.97 368.96 637.53 372.81 637.52 373.59Z" fill="#D0EFF7"/><path d="M611.11 409.88C610.93 410.87 610.83 412.11 611.66 412.67 612.41 413.18 613.42 412.78 614.26 412.43 618.61 410.6 623.44 410.44 628.11 409.81 629.33 409.65 630.66 409.39 631.45 408.45 632.13 407.63 632.25 406.43 631.91 405.42 631.75 404.95 631.49 404.5 631.07 404.24 630.55 403.92 629.88 403.95 629.27 404.02 627.44 404.22 625.63 404.62 623.79 404.57 621.95 404.52 620.03 403.96 618.82 402.58 617.57 401.15 617.31 399.14 616.76 397.33 616.28 395.76 615.55 394.27 614.6 392.92 614.1 392.2 612.18 389.33 611.74 391.46 611.57 392.28 611.9 393.43 611.95 394.26 612.01 395.24 612.06 396.21 612.08 397.19 612.12 399.18 612.07 401.17 611.93 403.16 611.79 405.41 611.51 407.65 611.11 409.88Z" fill="#D0EFF7"/><path d="M631.66 361.97C629.85 360.92 627.62 360.9 625.55 361.17 623.47 361.44 621.42 361.96 619.32 361.91 618.44 361.89 617.54 361.77 616.67 361.9 615.8 362.03 614.9 362.49 614.54 363.3 614.46 363.47 614.41 363.66 614.46 363.84 614.59 364.32 615.24 364.35 615.73 364.3 619.32 363.91 622.95 364.01 626.52 364.59 627.47 364.74 628.42 364.94 629.29 365.35 630.46 365.91 633.83 369.82 634.79 367.86 635.83 365.72 633.31 362.92 631.66 361.97Z" fill="#D0EFF7"/></g><g><path d="M569.79 340.25C568.81 341.74 568.59 343.8 569.26 345.25L625.35 345.25 625.35 351.57C625.35 352.95 626.47 354.07 627.85 354.07 629.23 354.07 630.35 352.95 630.35 351.57L630.35 340.25 569.79 340.25Z" fill="#ADE9FF"/><path d="M569.79 340.25 554.97 340.25C553.59 340.25 552.47 341.37 552.47 342.75 552.47 344.13 553.59 345.25 554.97 345.25L569.25 345.25C568.59 343.8 568.81 341.75 569.79 340.25Z" fill="#CBEDF7"/></g><g><path d="M461.45 355.98 453.22 355.98C453.22 355.98 450.06 355.81 449.98 358.72 449.9 361.63 448.32 362.88 447.4 363.46 446.49 364.04 444.57 364.87 445.82 366.45 447.07 368.03 447.48 369.94 447.73 373.93 447.98 377.92 447.98 403.11 447.56 404.77 447.14 406.43 445.07 411.09 444.48 413.58 443.9 416.07 444.48 418.98 445.64 419.73 446.8 420.48 450.71 418.98 451.96 417.98 453.21 416.98 458.94 416.23 462.35 416.07 465.76 415.91 473.41 416.57 475.4 417.98 477.39 419.39 480.39 420.89 481.97 420.31 483.55 419.73 482.47 417.07 481.14 414.41 479.81 411.75 478.56 405.43 478.56 397.03 478.56 388.63 478.89 374.08 479.06 370.43 479.23 366.77 480.31 364.11 478.64 362.12 476.98 360.12 476.31 359.71 475.98 358.05 475.65 356.39 474.82 355.97 472.49 355.97 470.16 355.97 461.45 355.98 461.45 355.98Z" fill="#B4F7AD"/><path d="M461.45 355.98 453.22 355.98C453.22 355.98 450.06 355.81 449.98 358.72 449.9 361.63 448.32 362.88 447.4 363.46 446.49 364.04 444.57 364.87 445.82 366.45 447.07 368.03 447.48 369.94 447.73 373.93 447.98 377.92 447.98 403.11 447.56 404.77 447.14 406.43 445.07 411.09 444.48 413.58 443.9 416.07 444.48 418.98 445.64 419.73 446.8 420.48 450.71 418.98 451.96 417.98 453.21 416.98 458.94 416.23 462.35 416.07 465.76 415.91 473.41 416.57 475.4 417.98 477.39 419.39 480.39 420.89 481.97 420.31 483.55 419.73 482.47 417.07 481.14 414.41 479.81 411.75 478.56 405.43 478.56 397.03 478.56 388.63 478.89 374.08 479.06 370.43 479.23 366.77 480.31 364.11 478.64 362.12 476.98 360.12 476.31 359.71 475.98 358.05 475.65 356.39 474.82 355.97 472.49 355.97 470.16 355.97 461.45 355.98 461.45 355.98Z" stroke="#333333" stroke-width="0.7744" stroke-miterlimit="10" fill="none"/><path d="M452.34 362.22C452.24 361.71 452.39 361.12 452.75 360.68 453.1 360.23 453.59 359.93 454.11 359.75 455.18 359.41 456.25 359.57 457.2 359.94 456.18 360.17 455.2 360.18 454.36 360.48 453.49 360.77 452.76 361.26 452.34 362.22Z" fill="#333333"/><path d="M459.45 359.72C460.95 359.42 462.45 359.35 463.95 359.33 465.45 359.34 466.95 359.41 468.45 359.72 466.95 360.03 465.45 360.1 463.95 360.11 462.45 360.1 460.95 360.03 459.45 359.72Z" fill="#333333"/><path d="M471.01 360C471.63 359.67 472.39 359.81 472.97 360.17 473.54 360.54 473.99 361.18 473.95 361.88 473.43 361.44 473.02 361.12 472.56 360.83 472.09 360.52 471.62 360.28 471.01 360Z" fill="#333333"/><path d="M448.81 408.03C448.95 409.46 448.63 410.89 448.41 412.27 448.31 412.96 448.19 413.65 448.18 414.33 448.16 414.67 448.17 414.99 448.27 415.16 448.36 415.31 448.5 415.36 448.78 415.3 449.05 415.25 449.35 415.09 449.69 414.94 450.02 414.79 450.35 414.66 450.69 414.53 451.37 414.29 452.06 414.08 452.77 413.94 454.18 413.65 455.62 413.54 457.04 413.68 455.63 413.86 454.25 414.12 452.92 414.52 452.26 414.73 451.6 414.94 450.96 415.21 450.64 415.34 450.32 415.47 450.01 415.62 449.7 415.76 449.38 415.95 448.95 416.04 448.74 416.08 448.49 416.1 448.23 416.02 447.97 415.94 447.74 415.74 447.62 415.51 447.39 415.05 447.43 414.62 447.46 414.27 447.52 413.54 447.65 412.82 447.84 412.13 448.18 410.76 448.63 409.44 448.81 408.03Z" fill="#333333"/><path d="M459.87 413.18C460.06 412.86 460.3 412.79 460.52 412.8 460.74 412.83 460.97 412.93 461.11 413.28 460.84 413.53 460.65 413.58 460.46 413.57 460.27 413.54 460.09 413.47 459.87 413.18Z" fill="#333333"/><path d="M463.77 413.01C463.88 412.71 463.99 412.64 464.1 412.62 464.21 412.63 464.32 412.7 464.43 413.01 464.32 413.32 464.21 413.39 464.1 413.4 463.99 413.38 463.88 413.31 463.77 413.01Z" fill="#333333"/><path d="M469.19 413.32C470.13 413.05 471.13 412.97 472.11 413.07 473.1 413.17 474.07 413.44 474.98 413.85 475.43 414.07 475.87 414.31 476.28 414.59L477.42 415.45C477.78 415.7 478.18 415.87 478.59 415.81 479.01 415.76 479.43 415.49 479.67 415.07 479.59 415.56 479.19 415.98 478.68 416.18 478.15 416.38 477.55 416.22 477.11 415.98 476.22 415.45 475.52 414.94 474.65 414.57 472.97 413.78 471.13 413.39 469.19 413.32Z" fill="#333333"/><path d="M452.29 372.59C452.04 373.51 451.86 374.46 451.98 375.41 452.09 376.35 452.51 377.29 453.27 377.87 453.41 377.98 453.57 378.07 453.75 378.08 454.26 378.09 454.46 377.42 454.49 376.91 454.6 375.37 454.7 373.83 454.76 372.28 454.8 371.28 455.26 368.53 454.58 367.79 453.42 368.99 452.72 371.01 452.29 372.59Z" fill="#FFFFFF"/><path d="M452.27 383.39C452.25 384.18 452.36 385.01 452.81 385.66 452.86 385.74 452.93 385.82 453.01 385.86 453.26 385.99 453.56 385.78 453.73 385.55 454.22 384.91 454.43 384.09 454.43 383.29 454.43 382.65 454.4 381.17 453.51 381.13 452.51 381.08 452.29 382.69 452.27 383.39Z" fill="#FFFFFF"/><rect x="457.19" y="350.83" width="2.26" height="5.15" fill="#333333"/><rect x="465.5" y="350.83" width="2.26" height="5.15" fill="#333333"/><path d="M476.4 373.59C476.27 380.68 476.14 387.77 476.02 394.86 475.93 399.66 475.85 404.5 476.85 409.2 477.12 410.48 477.48 411.75 477.63 413.06 474.7 412.49 471.78 411.92 468.85 411.35 469.56 410.47 470.92 410.76 472.04 410.87 472.86 410.95 473.7 410.89 474.51 410.69 474.65 410.66 474.79 410.61 474.88 410.51 474.98 410.4 475 410.24 475.01 410.09 475.06 409.14 474.75 408.21 474.52 407.28 473.51 403.26 473.81 399.05 474 394.92 474.19 390.82 474.28 386.71 474.29 382.61 474.3 380.54 474.28 378.47 474.26 376.4 474.25 375.4 474.23 374.4 474.21 373.4 474.2 372.69 473.92 371.5 474.38 370.89 475.85 368.96 476.42 372.81 476.4 373.59Z" fill="#CDF9C7"/><path d="M450 409.88C449.82 410.87 449.72 412.11 450.55 412.67 451.3 413.18 452.31 412.78 453.15 412.43 457.5 410.6 462.33 410.44 467 409.81 468.22 409.65 469.55 409.39 470.34 408.45 471.02 407.63 471.14 406.43 470.8 405.42 470.64 404.95 470.38 404.5 469.96 404.24 469.44 403.92 468.77 403.95 468.16 404.02 466.33 404.22 464.52 404.62 462.68 404.57 460.84 404.52 458.92 403.96 457.71 402.58 456.46 401.15 456.2 399.14 455.65 397.33 455.17 395.76 454.44 394.27 453.49 392.92 452.99 392.2 451.07 389.33 450.63 391.46 450.46 392.28 450.79 393.43 450.84 394.26 450.9 395.24 450.95 396.21 450.97 397.19 451.01 399.18 450.96 401.17 450.82 403.16 450.67 405.41 450.39 407.65 450 409.88Z" fill="#CDF9C7"/><path d="M470.63 362.14C468.82 361.09 466.59 361.07 464.52 361.34 462.44 361.61 460.39 362.13 458.29 362.08 457.41 362.06 456.51 361.94 455.64 362.07 454.77 362.2 453.87 362.66 453.51 363.47 453.43 363.64 453.38 363.83 453.43 364.01 453.56 364.49 454.21 364.52 454.7 364.47 458.29 364.08 461.92 364.18 465.49 364.76 466.44 364.91 467.39 365.11 468.26 365.52 469.43 366.08 472.8 369.99 473.76 368.03 474.8 365.89 472.28 363.09 470.63 362.14Z" fill="#CDF9C7"/></g><g><path d="M464.13 340.25 464.13 351.57C464.13 352.95 465.25 354.07 466.63 354.07 468.01 354.07 469.13 352.95 469.13 351.57L469.13 345.25 518 345.25C518 343.62 518 342.02 518 340.25L464.13 340.25Z" fill="#B4F7AD"/><path d="M528.7 340.25 518 340.25C518 342.02 518 343.62 518 345.25L528.7 345.25C530.08 345.25 531.2 344.13 531.2 342.75 531.2 341.37 530.08 340.25 528.7 340.25Z" fill="#D2F7CD"/></g><g><g><path d="M617.54 332.81 590.47 332.81C589.92 332.81 589.47 332.36 589.47 331.81 589.47 331.26 589.92 330.81 590.47 330.81L617.54 330.81C618.09 330.81 618.54 331.26 618.54 331.81 618.54 332.36 618.09 332.81 617.54 332.81Z" fill="#ADE9FF"/></g><g><g><path d="M583.27 331.81 593.42 327.66 591.01 331.81 593.42 335.95Z" fill="#ADE9FF"/></g></g></g><g><g><path d="M503.33 332.81 476.26 332.81C475.71 332.81 475.26 332.36 475.26 331.81 475.26 331.26 475.71 330.81 476.26 330.81L503.33 330.81C503.88 330.81 504.33 331.26 504.33 331.81 504.33 332.36 503.89 332.81 503.33 332.81Z" fill="#B4F7AD"/></g><g><g><path d="M510.54 331.81 500.39 335.95 502.8 331.81 500.39 327.66Z" fill="#B4F7AD"/></g></g></g><ellipse cx="542.1" cy="404.29" rx="15.81" ry="3.74" stroke="#333333" stroke-width="1.452" stroke-miterlimit="10" fill="none"/><path d="M559.49 403.92C559.49 406.19 551.7 408.03 542.09 408.03 532.48 408.02 524.7 406.18 524.7 403.9L524.7 399.26C524.7 396.99 532.49 395.15 542.1 395.15 551.71 395.16 559.49 397 559.49 399.28L559.49 403.92Z" fill="#777676"/><path d="M559.49 403.92C559.49 406.19 551.7 408.03 542.09 408.03 532.48 408.02 524.7 406.18 524.7 403.9L524.7 399.26C524.7 396.99 532.49 395.15 542.1 395.15 551.71 395.16 559.49 397 559.49 399.28L559.49 403.92Z" stroke="#333333" stroke-width="1.5972" stroke-miterlimit="10" fill="none"/><ellipse cx="542.1" cy="399.27" rx="17.39" ry="4.12" fill="#A5A2A2"/><ellipse cx="542.1" cy="399.27" rx="17.39" ry="4.12" stroke="#333333" stroke-width="1.5972" stroke-miterlimit="10" fill="none"/><path d="M556.83 399.36C556.83 399.36 553.88 401.67 541.82 401.67 529.76 401.67 526.81 399.36 526.81 399.36L526.81 336.24 556.84 336.24 556.84 399.36Z" fill="#F4DE98"/><path d="M556.83 399.36C556.83 399.36 553.88 401.67 541.82 401.67 529.76 401.67 526.81 399.36 526.81 399.36L526.81 336.24 556.84 336.24 556.84 399.36Z" stroke="#333333" stroke-width="0.7744" stroke-miterlimit="10" fill="none"/><path d="M332.83 29.59C332.83 29.59 317.29 31.11 316.87 45.83 316.43 61.13 316.87 58.24 316.87 58.24 316.87 58.24 312.88 55.69 313.77 62.9 314.66 70.11 315.88 71.32 317.87 71.1 317.87 71.1 318.2 76.09 320.53 79.08 320.53 79.08 322.19 91.61 319.53 95.26 316.87 98.92 303.01 103.02 294.92 107.56 286.83 112.1 274.3 113.32 271.64 137.05 270.82 144.34 271.75 148.02 268.65 154.34 265.55 160.66 263.11 167.31 261 171.41 258.89 175.51 257.12 179.28 253.35 183.38 249.58 187.48 246.92 193.91 242.93 203.67 238.94 213.42 230.52 231.27 229.18 234.6 227.85 237.93 228.32 238.26 226.33 241.83 224.33 245.4 218.85 256.63 218.27 257.96 217.69 259.29 217.77 261.62 217.44 263.53 217.11 265.44 215.61 272.92 215.2 274.25 214.78 275.58 215.28 281.48 215.2 283.56 215.12 285.64 216.03 287.55 217.61 287.47 219.19 287.39 218.86 284.73 218.94 281.65 219.02 278.57 218.52 277.24 219.36 275.83 220.19 274.42 221.36 271.01 221.69 269.26 222.02 267.51 225.51 264.52 225.51 264.52L225.51 270.59C225.51 270.59 225.68 273.58 228.34 273.42 231 273.25 231.58 269.01 232.16 265.77 232.74 262.53 232.99 259.04 234.49 256.29 235.99 253.55 237.15 247.81 237.32 244.98 237.49 242.15 236.82 241.57 238.4 239.66 239.98 237.75 266.83 207.4 269.16 204.58 271.49 201.76 275.4 192.19 277.31 187.95 279.22 183.71 287.54 171.07 289.36 168.25 291.18 165.43 293.85 160.52 293.85 160.52 293.85 160.52 299.5 175.15 300.17 178.31 300.84 181.47 300.09 208.74 299.67 211.31 299.25 213.89 297.26 220.54 295.93 223.12 294.6 225.7 294.85 231.18 294.6 233.18 294.35 235.18 293.77 241.74 292.36 245.82 290.95 249.9 289.2 261.87 289.12 272.17 289.04 282.47 293.44 313.65 293.86 318.89 294.28 324.13 297.27 331.69 297.77 333.44 298.27 335.19 297.77 340.17 297.6 341.75 297.43 343.33 297.1 350.98 297.35 352.89 297.6 354.8 298.43 360.87 298.35 361.87 298.27 362.87 297.93 377.25 297.6 382.07 297.27 386.89 302.34 415.32 302.5 420.06 302.67 424.8 306.82 450.82 306.16 454.15 305.49 457.48 305.41 460.63 305.08 462.3 304.75 463.96 301.34 473.77 299.84 475.85 298.34 477.93 296.27 483.75 295.68 484.83 295.1 485.91 295.26 489.15 295.1 490.23 294.93 491.31 296.26 493.47 297.34 492.31 297.34 492.31 297.01 495.47 299.09 495.47 301.17 495.47 302.33 493.72 302.33 493.72 302.33 493.72 302 496.55 303.91 496.88 305.82 497.21 306.4 495.13 306.4 495.13 306.4 495.13 306.82 496.95 308.64 496.91 310.47 496.87 311.3 494.8 311.3 494.8 311.3 494.8 312.13 497.03 314.63 496.91 317.12 496.79 318.04 495.21 318.2 493.71 318.37 492.21 318.28 491.05 319.11 490.14 319.94 489.23 321.27 484.65 320.52 482.49 319.77 480.33 319.69 475.84 319.77 474.84 319.85 473.84 321.02 473.59 321.35 472.6 321.68 471.6 321.6 467.36 320.68 465.53 319.76 463.7 319.52 461.71 319.6 461.46 319.68 461.21 320.51 458.38 320.02 454.64 319.53 450.9 320.44 443.58 321.6 438.76 322.76 433.94 324.43 416.31 325.17 413.32 325.92 410.33 327.75 392.87 326.58 384.39 325.42 375.91 324.75 369.59 325.58 366.6 326.41 363.61 328.49 353.88 328.41 349.81 328.33 345.74 327.41 335.34 328.33 332.52 329.25 329.7 333.9 316.72 334.15 305 334.4 293.28 332.65 273.08 332.65 273.08 332.65 273.08 335.26 273.99 337.24 273.08 337.24 273.08 335.49 293.28 335.74 305 335.99 316.72 340.64 329.69 341.56 332.52 342.48 335.35 341.56 345.74 341.48 349.81 341.4 353.88 343.48 363.61 344.31 366.6 345.14 369.59 344.48 375.91 343.31 384.39 342.15 392.87 343.98 410.33 344.72 413.32 345.47 416.31 347.13 433.94 348.29 438.76 349.45 443.58 350.37 450.9 349.87 454.64 349.37 458.38 350.2 461.21 350.29 461.46 350.37 461.71 350.12 463.7 349.21 465.53 348.3 467.36 348.21 471.6 348.54 472.6 348.87 473.6 350.04 473.85 350.12 474.84 350.2 475.84 350.12 480.33 349.37 482.49 348.62 484.65 349.95 489.22 350.78 490.14 351.61 491.05 351.53 492.22 351.69 493.71 351.86 495.21 352.77 496.79 355.26 496.91 357.75 497.03 358.59 494.8 358.59 494.8 358.59 494.8 359.42 496.88 361.25 496.91 363.08 496.94 363.49 495.13 363.49 495.13 363.49 495.13 364.07 497.21 365.98 496.88 367.89 496.55 367.56 493.72 367.56 493.72 367.56 493.72 368.72 495.47 370.8 495.47 372.88 495.47 372.55 492.31 372.55 492.31 373.63 493.47 374.96 491.31 374.79 490.23 374.62 489.15 374.79 485.91 374.21 484.83 373.63 483.75 371.55 477.93 370.05 475.85 368.55 473.77 365.15 463.96 364.81 462.3 364.48 460.64 364.39 457.48 363.73 454.15 363.07 450.82 367.22 424.8 367.39 420.06 367.56 415.32 372.63 386.89 372.29 382.07 371.95 377.25 371.62 362.87 371.54 361.87 371.46 360.87 372.29 354.8 372.54 352.89 372.79 350.98 372.46 343.33 372.29 341.75 372.12 340.17 371.62 335.18 372.12 333.44 372.62 331.69 375.61 324.13 376.03 318.89 376.45 313.65 380.85 282.48 380.77 272.17 380.69 261.86 378.94 249.89 377.53 245.82 376.12 241.75 375.53 235.18 375.29 233.18 375.04 231.18 375.29 225.7 373.96 223.12 372.63 220.54 370.63 213.89 370.22 211.31 369.81 208.73 369.06 181.46 369.72 178.31 370.39 175.15 376.04 160.52 376.04 160.52 376.04 160.52 378.7 165.42 380.53 168.25 382.36 171.08 390.67 183.71 392.58 187.95 394.49 192.19 398.4 201.75 400.73 204.58 403.06 207.41 429.91 237.75 431.49 239.66 433.07 241.57 432.4 242.15 432.57 244.98 432.74 247.81 433.9 253.54 435.4 256.29 436.9 259.03 437.15 262.53 437.73 265.77 438.31 269.01 438.89 273.25 441.55 273.42 444.21 273.59 444.38 270.59 444.38 270.59L444.38 264.52C444.38 264.52 447.87 267.51 448.2 269.26 448.53 271.01 449.7 274.41 450.53 275.83 451.36 277.25 450.86 278.57 450.95 281.65 451.04 284.73 450.7 287.39 452.28 287.47 453.86 287.55 454.77 285.64 454.69 283.56 454.61 281.48 455.11 275.58 454.69 274.25 454.27 272.92 452.78 265.44 452.45 263.53 452.12 261.62 452.2 259.29 451.62 257.96 451.04 256.63 445.55 245.41 443.56 241.83 441.57 238.25 442.04 237.92 440.71 234.6 439.38 231.27 430.96 213.43 426.96 203.67 422.97 193.92 420.31 187.49 416.54 183.38 412.77 179.28 411 175.51 408.89 171.41 406.78 167.31 404.35 160.66 401.24 154.34 398.14 148.02 399.06 144.34 398.25 137.05 395.59 113.33 383.06 112.11 374.97 107.56 366.88 103.02 353.02 98.91 350.36 95.26 347.7 91.6 349.36 79.08 349.36 79.08 351.69 76.09 352.02 71.1 352.02 71.1 354.02 71.32 355.23 70.1 356.12 62.9 357.01 55.7 353.02 58.24 353.02 58.24 353.02 58.24 353.46 61.12 353.02 45.83 352.59 31.11 337.06 29.59 337.06 29.59" fill="#F9B9A2"/><path d="M332.83 29.59C332.83 29.59 317.29 31.11 316.87 45.83 316.43 61.13 316.87 58.24 316.87 58.24 316.87 58.24 312.88 55.69 313.77 62.9 314.66 70.11 315.88 71.32 317.87 71.1 317.87 71.1 318.2 76.09 320.53 79.08 320.53 79.08 322.19 91.61 319.53 95.26 316.87 98.92 303.01 103.02 294.92 107.56 286.83 112.1 274.3 113.32 271.64 137.05 270.82 144.34 271.75 148.02 268.65 154.34 265.55 160.66 263.11 167.31 261 171.41 258.89 175.51 257.12 179.28 253.35 183.38 249.58 187.48 246.92 193.91 242.93 203.67 238.94 213.42 230.52 231.27 229.18 234.6 227.85 237.93 228.32 238.26 226.33 241.83 224.33 245.4 218.85 256.63 218.27 257.96 217.69 259.29 217.77 261.62 217.44 263.53 217.11 265.44 215.61 272.92 215.2 274.25 214.78 275.58 215.28 281.48 215.2 283.56 215.12 285.64 216.03 287.55 217.61 287.47 219.19 287.39 218.86 284.73 218.94 281.65 219.02 278.57 218.52 277.24 219.36 275.83 220.19 274.42 221.36 271.01 221.69 269.26 222.02 267.51 225.51 264.52 225.51 264.52L225.51 270.59C225.51 270.59 225.68 273.58 228.34 273.42 231 273.25 231.58 269.01 232.16 265.77 232.74 262.53 232.99 259.04 234.49 256.29 235.99 253.55 237.15 247.81 237.32 244.98 237.49 242.15 236.82 241.57 238.4 239.66 239.98 237.75 266.83 207.4 269.16 204.58 271.49 201.76 275.4 192.19 277.31 187.95 279.22 183.71 287.54 171.07 289.36 168.25 291.18 165.43 293.85 160.52 293.85 160.52 293.85 160.52 299.5 175.15 300.17 178.31 300.84 181.47 300.09 208.74 299.67 211.31 299.25 213.89 297.26 220.54 295.93 223.12 294.6 225.7 294.85 231.18 294.6 233.18 294.35 235.18 293.77 241.74 292.36 245.82 290.95 249.9 289.2 261.87 289.12 272.17 289.04 282.47 293.44 313.65 293.86 318.89 294.28 324.13 297.27 331.69 297.77 333.44 298.27 335.19 297.77 340.17 297.6 341.75 297.43 343.33 297.1 350.98 297.35 352.89 297.6 354.8 298.43 360.87 298.35 361.87 298.27 362.87 297.93 377.25 297.6 382.07 297.27 386.89 302.34 415.32 302.5 420.06 302.67 424.8 306.82 450.82 306.16 454.15 305.49 457.48 305.41 460.63 305.08 462.3 304.75 463.96 301.34 473.77 299.84 475.85 298.34 477.93 296.27 483.75 295.68 484.83 295.1 485.91 295.26 489.15 295.1 490.23 294.93 491.31 296.26 493.47 297.34 492.31 297.34 492.31 297.01 495.47 299.09 495.47 301.17 495.47 302.33 493.72 302.33 493.72 302.33 493.72 302 496.55 303.91 496.88 305.82 497.21 306.4 495.13 306.4 495.13 306.4 495.13 306.82 496.95 308.64 496.91 310.47 496.87 311.3 494.8 311.3 494.8 311.3 494.8 312.13 497.03 314.63 496.91 317.12 496.79 318.04 495.21 318.2 493.71 318.37 492.21 318.28 491.05 319.11 490.14 319.94 489.23 321.27 484.65 320.52 482.49 319.77 480.33 319.69 475.84 319.77 474.84 319.85 473.84 321.02 473.59 321.35 472.6 321.68 471.6 321.6 467.36 320.68 465.53 319.76 463.7 319.52 461.71 319.6 461.46 319.68 461.21 320.51 458.38 320.02 454.64 319.53 450.9 320.44 443.58 321.6 438.76 322.76 433.94 324.43 416.31 325.17 413.32 325.92 410.33 327.75 392.87 326.58 384.39 325.42 375.91 324.75 369.59 325.58 366.6 326.41 363.61 328.49 353.88 328.41 349.81 328.33 345.74 327.41 335.34 328.33 332.52 329.25 329.7 333.9 316.72 334.15 305 334.4 293.28 332.65 273.08 332.65 273.08 332.65 273.08 335.26 273.99 337.24 273.08 337.24 273.08 335.49 293.28 335.74 305 335.99 316.72 340.64 329.69 341.56 332.52 342.48 335.35 341.56 345.74 341.48 349.81 341.4 353.88 343.48 363.61 344.31 366.6 345.14 369.59 344.48 375.91 343.31 384.39 342.15 392.87 343.98 410.33 344.72 413.32 345.47 416.31 347.13 433.94 348.29 438.76 349.45 443.58 350.37 450.9 349.87 454.64 349.37 458.38 350.2 461.21 350.29 461.46 350.37 461.71 350.12 463.7 349.21 465.53 348.3 467.36 348.21 471.6 348.54 472.6 348.87 473.6 350.04 473.85 350.12 474.84 350.2 475.84 350.12 480.33 349.37 482.49 348.62 484.65 349.95 489.22 350.78 490.14 351.61 491.05 351.53 492.22 351.69 493.71 351.86 495.21 352.77 496.79 355.26 496.91 357.75 497.03 358.59 494.8 358.59 494.8 358.59 494.8 359.42 496.88 361.25 496.91 363.08 496.94 363.49 495.13 363.49 495.13 363.49 495.13 364.07 497.21 365.98 496.88 367.89 496.55 367.56 493.72 367.56 493.72 367.56 493.72 368.72 495.47 370.8 495.47 372.88 495.47 372.55 492.31 372.55 492.31 373.63 493.47 374.96 491.31 374.79 490.23 374.62 489.15 374.79 485.91 374.21 484.83 373.63 483.75 371.55 477.93 370.05 475.85 368.55 473.77 365.15 463.96 364.81 462.3 364.48 460.64 364.39 457.48 363.73 454.15 363.07 450.82 367.22 424.8 367.39 420.06 367.56 415.32 372.63 386.89 372.29 382.07 371.95 377.25 371.62 362.87 371.54 361.87 371.46 360.87 372.29 354.8 372.54 352.89 372.79 350.98 372.46 343.33 372.29 341.75 372.12 340.17 371.62 335.18 372.12 333.44 372.62 331.69 375.61 324.13 376.03 318.89 376.45 313.65 380.85 282.48 380.77 272.17 380.69 261.86 378.94 249.89 377.53 245.82 376.12 241.75 375.53 235.18 375.29 233.18 375.04 231.18 375.29 225.7 373.96 223.12 372.63 220.54 370.63 213.89 370.22 211.31 369.81 208.73 369.06 181.46 369.72 178.31 370.39 175.15 376.04 160.52 376.04 160.52 376.04 160.52 378.7 165.42 380.53 168.25 382.36 171.08 390.67 183.71 392.58 187.95 394.49 192.19 398.4 201.75 400.73 204.58 403.06 207.41 429.91 237.75 431.49 239.66 433.07 241.57 432.4 242.15 432.57 244.98 432.74 247.81 433.9 253.54 435.4 256.29 436.9 259.03 437.15 262.53 437.73 265.77 438.31 269.01 438.89 273.25 441.55 273.42 444.21 273.59 444.38 270.59 444.38 270.59L444.38 264.52C444.38 264.52 447.87 267.51 448.2 269.26 448.53 271.01 449.7 274.41 450.53 275.83 451.36 277.25 450.86 278.57 450.95 281.65 451.04 284.73 450.7 287.39 452.28 287.47 453.86 287.55 454.77 285.64 454.69 283.56 454.61 281.48 455.11 275.58 454.69 274.25 454.27 272.92 452.78 265.44 452.45 263.53 452.12 261.62 452.2 259.29 451.62 257.96 451.04 256.63 445.55 245.41 443.56 241.83 441.57 238.25 442.04 237.92 440.71 234.6 439.38 231.27 430.96 213.43 426.96 203.67 422.97 193.92 420.31 187.49 416.54 183.38 412.77 179.28 411 175.51 408.89 171.41 406.78 167.31 404.35 160.66 401.24 154.34 398.14 148.02 399.06 144.34 398.25 137.05 395.59 113.33 383.06 112.11 374.97 107.56 366.88 103.02 353.02 98.91 350.36 95.26 347.7 91.6 349.36 79.08 349.36 79.08 351.69 76.09 352.02 71.1 352.02 71.1 354.02 71.32 355.23 70.1 356.12 62.9 357.01 55.7 353.02 58.24 353.02 58.24 353.02 58.24 353.46 61.12 353.02 45.83 352.59 31.11 337.06 29.59 337.06 29.59" stroke="#333333" stroke-width="0.75" stroke-linecap="round" stroke-miterlimit="10" fill="none"/><path d="M317.26 58.85 318.24 71.08C318.26 71.29 318.1 71.47 317.9 71.48 317.69 71.5 317.51 71.34 317.5 71.14 317.5 71.13 317.5 71.12 317.5 71.12L317.26 58.85Z" fill="#333333"/><path d="M225.13 264.49 226.36 255.94 225.87 264.57C225.86 264.78 225.68 264.94 225.47 264.92 225.26 264.9 225.1 264.73 225.12 264.52 225.13 264.52 225.13 264.5 225.13 264.49Z" fill="#333333"/><line x1="293.84" y1="160.53" x2="296.48" y2="154.82" stroke="#333333" stroke-width="0.75" stroke-linecap="round" stroke-miterlimit="10" fill="none"/><path d="M293.1 150.75C293.46 151.85 294.19 152.74 295.02 153.47 295.86 154.19 296.81 154.78 297.84 155.24 298.85 155.73 299.92 156.1 300.99 156.45 302.08 156.78 303.18 157.08 304.3 157.4 303.72 157.39 303.15 157.33 302.57 157.29 301.99 157.22 301.42 157.11 300.85 157.01 300.28 156.89 299.72 156.72 299.16 156.56 298.62 156.34 298.05 156.18 297.53 155.9 296.46 155.41 295.45 154.74 294.63 153.87 293.78 153.03 293.17 151.91 293.1 150.75Z" fill="#333333"/><path d="M308.17 157.12C309.67 156.91 311.16 156.9 312.64 156.92 313.38 156.94 314.12 156.97 314.86 157.02 315.6 157.05 316.33 157.16 317.09 157.12 316.39 157.44 315.62 157.53 314.87 157.6 314.12 157.67 313.37 157.68 312.62 157.67 311.14 157.63 309.64 157.5 308.17 157.12Z" fill="#333333"/><path d="M304.79 362.3C305.14 363.71 305.99 364.79 307.12 365.47 307.67 365.84 308.32 366.05 308.96 366.3L309.96 366.59C310.3 366.68 310.65 366.74 311 366.86 310.64 366.92 310.28 366.93 309.92 366.96 309.56 366.95 309.19 366.92 308.83 366.88 308.11 366.74 307.38 366.54 306.73 366.12 306.09 365.72 305.52 365.16 305.17 364.48 304.81 363.79 304.67 363.02 304.79 362.3Z" fill="#333333"/><path d="M319.72 460.96C319.09 461.58 318.43 462.17 317.74 462.72" stroke="#333333" stroke-width="0.75" stroke-linecap="round" stroke-miterlimit="10" fill="none"/><path d="M319.8 475.19C319.62 474.26 319.66 473.28 319.91 472.37" stroke="#333333" stroke-width="0.75" stroke-linecap="round" stroke-miterlimit="10" fill="none"/><path d="M297.14 492.22C297.52 491.64 297.56 490.91 297.58 490.21 297.6 489.54 297.63 488.87 297.65 488.2" stroke="#333333" stroke-width="0.75" stroke-linecap="round" stroke-miterlimit="10" fill="none"/><path d="M311.35 494.94C311.29 493.85 311.39 492.74 311.63 491.68 311.74 491.2 311.88 490.72 311.9 490.22 311.92 489.73 311.81 489.25 311.7 488.78 311.57 488.23 311.44 487.68 311.31 487.14 311.29 487.05 311.13 486.98 311.15 487.07" stroke="#333333" stroke-width="0.75" stroke-linecap="round" stroke-miterlimit="10" fill="none"/><path d="M306.45 494.48C306.26 493.69 306.57 492.87 306.79 492.09 307.29 490.34 307.37 488.47 307.03 486.67" stroke="#333333" stroke-width="0.75" stroke-linecap="round" stroke-miterlimit="10" fill="none"/><path d="M311.96 490.91C311.91 490.51 312.17 490.16 312.4 489.83 312.77 489.31 313.09 488.76 313.35 488.17" stroke="#333333" stroke-width="0.75" stroke-linecap="round" stroke-miterlimit="10" fill="none"/><path d="M302.41 493.47C302.64 492.84 302.88 492.19 302.95 491.52 302.98 491.22 302.98 490.91 302.97 490.6 302.96 489.8 302.95 489 302.94 488.2" stroke="#333333" stroke-width="0.75" stroke-linecap="round" stroke-miterlimit="10" fill="none"/><path d="M333.06 25.99C333.06 25.99 326.8 25.55 321.42 30.42 314.47 36.72 314.99 46.77 315.32 50.54 315.65 54.31 317.26 58.69 317.26 58.85 317.26 59.01 318.42 49.43 318.37 46.27 318.31 43.11 322.25 37.73 324.47 35.35 326.69 32.97 329.46 33.74 330.62 34.24 331.78 34.74 332.56 35.02 334.19 35.35L335.74 35.35C337.37 35.02 338.15 34.74 339.31 34.24 340.47 33.74 343.25 32.97 345.46 35.35 347.68 37.73 351.61 43.11 351.56 46.27 351.5 49.43 352.67 59.02 352.67 58.85 352.67 58.68 354.28 54.31 354.61 50.54 354.94 46.77 355.46 36.72 348.51 30.42 343.13 25.54 336.87 25.99 336.87 25.99L333.06 25.99Z" fill="#333333"/><path d="M352.67 58.85 352.43 71.12C352.43 71.33 352.25 71.49 352.05 71.49 351.84 71.49 351.68 71.31 351.68 71.11 351.68 71.1 351.68 71.09 351.68 71.09L352.67 58.85Z" fill="#333333"/><path d="M444.05 264.57 443.56 255.94 444.79 264.49C444.82 264.7 444.68 264.89 444.47 264.92 444.26 264.95 444.07 264.81 444.04 264.6 444.05 264.59 444.05 264.58 444.05 264.57Z" fill="#333333"/><line x1="376.08" y1="160.53" x2="373.45" y2="154.82" stroke="#333333" stroke-width="0.75" stroke-linecap="round" stroke-miterlimit="10" fill="none"/><path d="M376.83 150.75C376.47 151.85 375.74 152.74 374.91 153.47 374.07 154.19 373.12 154.78 372.09 155.24 371.08 155.73 370.01 156.1 368.94 156.45 367.85 156.78 366.75 157.08 365.63 157.4 366.21 157.39 366.78 157.33 367.36 157.29 367.94 157.22 368.51 157.11 369.08 157.01 369.65 156.89 370.21 156.72 370.77 156.56 371.31 156.34 371.88 156.18 372.4 155.9 373.47 155.41 374.48 154.74 375.3 153.87 376.14 153.03 376.76 151.91 376.83 150.75Z" fill="#333333"/><path d="M361.75 157.12C360.25 156.91 358.76 156.9 357.28 156.92 356.54 156.94 355.8 156.97 355.06 157.02 354.32 157.05 353.59 157.16 352.83 157.12 353.53 157.44 354.3 157.53 355.05 157.6 355.8 157.67 356.55 157.68 357.3 157.67 358.79 157.63 360.28 157.5 361.75 157.12Z" fill="#333333"/><path d="M365.14 362.3C364.79 363.71 363.94 364.79 362.81 365.47 362.26 365.84 361.61 366.05 360.97 366.3L359.97 366.59C359.63 366.68 359.28 366.74 358.93 366.86 359.29 366.92 359.65 366.93 360.01 366.96 360.37 366.95 360.74 366.92 361.1 366.88 361.82 366.74 362.55 366.54 363.2 366.12 363.84 365.72 364.41 365.16 364.76 364.48 365.12 363.79 365.26 363.02 365.14 362.3Z" fill="#333333"/><path d="M350.21 460.96C350.84 461.58 351.5 462.17 352.19 462.72" stroke="#333333" stroke-width="0.75" stroke-linecap="round" stroke-miterlimit="10" fill="none"/><path d="M350.13 475.19C350.31 474.26 350.27 473.28 350.02 472.37" stroke="#333333" stroke-width="0.75" stroke-linecap="round" stroke-miterlimit="10" fill="none"/><path d="M372.78 492.22C372.4 491.64 372.36 490.91 372.34 490.21 372.32 489.54 372.29 488.87 372.27 488.2" stroke="#333333" stroke-width="0.75" stroke-linecap="round" stroke-miterlimit="10" fill="none"/><path d="M358.57 494.94C358.63 493.85 358.53 492.74 358.29 491.68 358.18 491.2 358.04 490.72 358.02 490.22 358 489.73 358.11 489.25 358.22 488.78 358.35 488.23 358.48 487.68 358.61 487.14 358.63 487.05 358.79 486.98 358.77 487.07" stroke="#333333" stroke-width="0.75" stroke-linecap="round" stroke-miterlimit="10" fill="none"/><path d="M363.48 494.48C363.67 493.69 363.36 492.87 363.14 492.09 362.64 490.34 362.56 488.47 362.9 486.67" stroke="#333333" stroke-width="0.75" stroke-linecap="round" stroke-miterlimit="10" fill="none"/><path d="M357.96 490.91C358.01 490.51 357.75 490.16 357.52 489.83 357.15 489.31 356.83 488.76 356.57 488.17" stroke="#333333" stroke-width="0.75" stroke-linecap="round" stroke-miterlimit="10" fill="none"/><path d="M367.52 493.47C367.29 492.84 367.05 492.19 366.98 491.52 366.95 491.22 366.95 490.91 366.96 490.6 366.97 489.8 366.98 489 366.99 488.2" stroke="#333333" stroke-width="0.75" stroke-linecap="round" stroke-miterlimit="10" fill="none"/><path d="M345.09 81.88C346.57 81 347.92 79.96 349.16 78.8 349.31 78.66 349.55 78.67 349.69 78.82 349.83 78.97 349.82 79.21 349.67 79.35 349.66 79.36 349.64 79.37 349.63 79.38 348.2 80.37 346.68 81.22 345.09 81.88Z" fill="#333333"/><path d="M326.24 82.15C327.58 82.52 328.91 82.87 330.25 83.13 331.59 83.38 332.94 83.58 334.3 83.66 335.66 83.76 337.02 83.73 338.38 83.63 339.74 83.52 341.09 83.28 342.45 82.99 341.19 83.58 339.83 83.96 338.45 84.2 337.07 84.44 335.65 84.49 334.25 84.41 332.85 84.31 331.46 84.08 330.11 83.69 328.77 83.3 327.47 82.8 326.24 82.15Z" fill="#333333"/><path d="M320.76 78.78C321.62 79.55 322.59 80.27 323.59 80.93 322.47 80.49 321.39 80 320.31 79.38 320.13 79.28 320.07 79.05 320.17 78.86 320.27 78.68 320.5 78.62 320.69 78.72 320.71 78.73 320.73 78.75 320.75 78.76L320.76 78.78Z" fill="#333333"/><g><path d="M51.01 235.22C49.63 235.22 48.51 234.1 48.51 232.72L48.51 125.58 323.58 125.58C324.96 125.58 326.08 126.7 326.08 128.08 326.08 129.46 324.96 130.58 323.58 130.58L53.51 130.58 53.51 232.72C53.51 234.1 52.39 235.22 51.01 235.22Z" fill="#309FFA"/></g><g><g><path d="M219.77 116.05 177.87 116.05C177.04 116.05 176.37 115.38 176.37 114.55 176.37 113.72 177.04 113.05 177.87 113.05L219.77 113.05C220.6 113.05 221.27 113.72 221.27 114.55 221.27 115.38 220.6 116.05 219.77 116.05Z" fill="#309FFA"/></g><g><g><path d="M167.07 114.55 182.29 108.33 178.68 114.55 182.29 120.77Z" fill="#309FFA"/></g></g></g><g><g><path d="M40.15 200.31C39.32 200.31 38.65 199.64 38.65 198.81L38.65 156.91C38.65 156.08 39.32 155.41 40.15 155.41 40.98 155.41 41.65 156.08 41.65 156.91L41.65 198.81C41.65 199.64 40.98 200.31 40.15 200.31Z" fill="#309FFA"/></g><g><g><path d="M40.15 209.62 33.93 194.39 40.15 198.01 46.36 194.39Z" fill="#309FFA"/></g></g></g><g><path d="M95.44 472.87C94.06 472.87 92.94 471.75 92.94 470.37L92.94 342.51C92.94 341.13 94.06 340.01 95.44 340.01 96.82 340.01 97.94 341.13 97.94 342.51L97.94 470.37C97.94 471.75 96.82 472.87 95.44 472.87Z" fill="#FA1313"/></g><path d="M44.29 272.71 44.29 232.71C44.29 229.41 46.99 226.71 50.29 226.71L51.74 226.71C55.04 226.71 57.74 229.41 57.74 232.71L57.74 261.42C57.73 261.42 55.15 272.15 44.29 272.71Z" fill="#AAA9A9"/><path d="M44.29 272.71 44.29 232.71C44.29 229.41 46.99 226.71 50.29 226.71L51.74 226.71C55.04 226.71 57.74 229.41 57.74 232.71L57.74 261.42C57.73 261.42 55.15 272.15 44.29 272.71Z" stroke="#333333" stroke-width="1.21" stroke-miterlimit="10" fill="none"/><rect x="37.99" y="258.63" width="60.62" height="60.62" fill="#848080" transform="matrix(0.7067 0.7075 -0.7075 0.7067 224.451 36.4183)"/><rect x="37.99" y="258.63" width="60.62" height="60.62" stroke="#333333" stroke-width="1.21" stroke-miterlimit="10" fill="none" transform="matrix(0.7067 0.7075 -0.7075 0.7067 224.451 36.4183)"/><path d="M88 289C83 289 81 295 78 294 76 294 79 290 78 288 74 286 73 290 73 293 68 291 74 283 67 285 63 287 63 291 65 295 64 295 63 297 62 296 61 295 62 291 59 292 57 294 56 301 52 297 51 295 55 293 54 290 53 288 50 291 49 290 48 288 51 285 50 283 49.48 282.48 48.96 282.17 48.44 282.02L39.92 290.53 67.34 317.98 89.67 295.67C87.46 294.82 86.32 293.48 88 289Z" fill="#FA1313"/><path d="M49 290C50 291 53 288 54 290 55 293 51 295 52 297 56 301 57 294 59 292 62 291 61 295 62 296 63 297 64 295 65 295 63 291 63 287 67 285 74 283 68 291 73 293 73 290 74 286 78 288 79 290 76 294 78 294 81 295 83 289 88 289 86.32 293.48 87.46 294.82 89.67 295.67L94.79 290.56 67.37 263.1 48.44 282.01C48.96 282.16 49.48 282.47 50 282.99 51 285 48 288 49 290Z" fill="#188FF5"/><rect x="47.82" y="271.14" width="38.8" height="38.8" stroke="#333333" stroke-width="2" stroke-linecap="round" stroke-linejoin="round" stroke-miterlimit="10" fill="none" transform="matrix(0.7067 0.7075 -0.7075 0.7067 225.267 37.6529)"/><path d="M111.17 288.96 68.27 331.81 87.39 329.74 127.14 290.54Z" fill="#595858"/><path d="M111.17 288.96 68.27 331.81 87.39 329.74 127.14 290.54Z" stroke="#333333" stroke-width="1.21" stroke-linejoin="round" stroke-miterlimit="10" fill="none"/><path d="M127.14 290.54 111.17 288.96 68.32 246.07 86.9 250.26Z" fill="#AAA9A9"/><path d="M127.14 290.54 111.17 288.96 68.32 246.07 86.9 250.26Z" stroke="#333333" stroke-width="1.21" stroke-linecap="round" stroke-linejoin="round" stroke-miterlimit="10" fill="none"/><ellipse cx="98.94" cy="269.1" rx="3.12" ry="13.18" stroke="#333333" stroke-width="1.21" stroke-miterlimit="10" fill="none" transform="matrix(0.7075 -0.7067 0.7067 0.7075 -161.235 148.638)"/><rect x="91.49" y="255.27" width="26.36" height="16.2" stroke="#333333" stroke-width="1.21" stroke-miterlimit="10" fill="none" transform="matrix(0.7067 0.7075 -0.7075 0.7067 217.03 3.1875)"/><path d="M101.09 248.33 89.63 259.78C88.41 261 91.59 266.16 96.74 271.31 101.88 276.46 107.04 279.65 108.26 278.43L119.72 266.98 101.09 248.33Z" fill="#CCC8C8"/><path d="M101.09 248.33 89.63 259.78C88.41 261 91.59 266.16 96.74 271.31 101.88 276.46 107.04 279.65 108.26 278.43L119.72 266.98 101.09 248.33Z" stroke="#333333" stroke-width="1.21" stroke-miterlimit="10" fill="none"/><ellipse cx="110.4" cy="257.65" rx="3.12" ry="13.18" stroke="#333333" stroke-width="1.21" stroke-miterlimit="10" fill="none" transform="matrix(0.7075 -0.7067 0.7067 0.7075 -149.794 153.388)"/><path d="M120.86 267.68C119.52 269.02 113.85 265.51 108.19 259.85 102.53 254.19 99.03 248.51 100.37 247.17L103.1 244.44C104.44 243.1 110.11 246.61 115.77 252.27 121.43 257.93 124.93 263.61 123.59 264.95L120.86 267.68Z" fill="#E8E3E3"/><path d="M120.86 267.68C119.52 269.02 113.85 265.51 108.19 259.85 102.53 254.19 99.03 248.51 100.37 247.17L103.1 244.44C104.44 243.1 110.11 246.61 115.77 252.27 121.43 257.93 124.93 263.61 123.59 264.95L120.86 267.68Z" stroke="#333333" stroke-width="1.331" stroke-miterlimit="10" fill="none"/><ellipse cx="113.35" cy="254.7" rx="3.43" ry="14.5" fill="#F7F5F5" transform="matrix(0.7075 -0.7067 0.7067 0.7075 -146.845 154.612)"/><ellipse cx="113.35" cy="254.7" rx="3.43" ry="14.5" stroke="#333333" stroke-width="1.331" stroke-miterlimit="10" fill="none" transform="matrix(0.7075 -0.7067 0.7067 0.7075 -146.845 154.612)"/><path d="M102.16 306.1 102.16 346.1C102.16 349.4 99.46 352.1 96.16 352.1L94.71 352.1C91.41 352.1 88.71 349.4 88.71 346.1L88.71 317.39C88.72 317.39 91.3 306.65 102.16 306.1Z" fill="#595858"/><path d="M102.16 306.1 102.16 346.1C102.16 349.4 99.46 352.1 96.16 352.1L94.71 352.1C91.41 352.1 88.71 349.4 88.71 346.1L88.71 317.39C88.72 317.39 91.3 306.65 102.16 306.1Z" stroke="#333333" stroke-width="1.21" stroke-miterlimit="10" fill="none"/><circle cx="56.4" cy="279.8" r="2.58" fill="#FA1313"/><circle cx="67.67" cy="306.81" r="2.4" fill="#188FF5"/><circle cx="58.42" cy="287.22" r="2.58" fill="#FA1313"/><circle cx="73.57" cy="299.6" r="1.95" fill="#188FF5"/><circle cx="70.52" cy="271.55" r="1.95" fill="#FA1313"/><circle cx="74.91" cy="292.25" r="0.91" fill="#188FF5"/><circle cx="81.65" cy="287.68" r="1.26" fill="#FA1313"/><circle cx="74" cy="283.58" r="1.39" fill="#FA1313"/><circle cx="65.25" cy="298.21" r="1.39" fill="#188FF5"/><circle cx="55.44" cy="301" r="1.39" fill="#188FF5"/><circle cx="46.02" cy="291.2" r="1.39" fill="#188FF5"/><circle cx="74.91" cy="278.88" r="0.91" fill="#FA1313"/><circle cx="81.17" cy="296.46" r="1.22" fill="#188FF5"/><circle cx="65.53" cy="281.6" r="0.61" fill="#FA1313"/><circle cx="67.67" cy="290.85" r="0.61" fill="#188FF5"/><circle cx="51.89" cy="292.25" r="0.61" fill="#188FF5"/><circle cx="62.53" cy="301.61" r="0.61" fill="#188FF5"/><circle cx="61.64" cy="274.11" r="0.88" fill="#FA1313"/><circle cx="80.66" cy="282.59" r="0.99" fill="#FA1313"/><path d="M116.24 268.31 107.05 277.22C107.05 277.22 100.46 273.68 97.71 269.61 97.71 269.6 104.27 275.52 116.24 268.31Z" fill="#AAA9A9"/><path d="M110.4 254.35C110.4 254.35 117.52 262.91 122.54 263.99L110.4 254.35Z" fill="#AAA9A9"/><path d="M91.41 260.43 99.61 251.89 101.61 254.7Z" fill="#E8E3E3"/><path d="M43.44 290.24 67.22 266.11 81.65 280.66 67.22 268.31Z" fill="#FFFFFF"/><path d="M79.67 259.71 68.56 248.33 37.46 279.8 68.56 249.71Z" fill="#FFFFFF"/><path d="M50.42 228.2C50.42 228.2 46.59 228.28 46.01 233.27 45.43 238.26 45.84 261.04 46.01 260.79 46.18 260.54 45.76 236.93 46.93 233.44 48.1 229.95 50.42 228.2 50.42 228.2Z" fill="#FFFFFF"/><ellipse cx="542.1" cy="335.27" rx="15.81" ry="3.74" stroke="#333333" stroke-width="1.452" stroke-miterlimit="10" fill="none"/><path d="M559.49 334.91C559.49 337.18 551.7 339.02 542.09 339.02 532.48 339.01 524.7 337.17 524.7 334.89L524.7 330.25C524.7 327.98 532.49 326.14 542.1 326.14 551.71 326.15 559.49 327.99 559.49 330.27L559.49 334.91Z" fill="#777676"/><path d="M559.49 334.91C559.49 337.18 551.7 339.02 542.09 339.02 532.48 339.01 524.7 337.17 524.7 334.89L524.7 330.25C524.7 327.98 532.49 326.14 542.1 326.14 551.71 326.15 559.49 327.99 559.49 330.27L559.49 334.91Z" stroke="#333333" stroke-width="1.5972" stroke-miterlimit="10" fill="none"/><ellipse cx="542.1" cy="330.26" rx="17.39" ry="4.12" fill="#A5A2A2"/><ellipse cx="542.1" cy="330.26" rx="17.39" ry="4.12" stroke="#333333" stroke-width="1.5972" stroke-miterlimit="10" fill="none"/><rect x="517.73" y="323.56" width="47.55" height="93.78" stroke="#333333" stroke-width="0.7744" stroke-miterlimit="10" fill="none"/><path d="M525.21 318.24 572.76 318.24 565.28 323.56 517.73 323.56Z" stroke="#333333" stroke-width="0.7744" stroke-linejoin="round" stroke-miterlimit="10" fill="none"/><path d="M528.7 339.69 528.7 398.11C528.7 398.1 530.81 355.98 528.7 339.69Z" fill="#333333"/><path d="M531.58 341.24 531.58 399.66C531.58 399.65 533.69 357.53 531.58 341.24Z" fill="#333333"/><path d="M534.66 342.57 534.66 400.99C534.66 400.99 536.76 358.86 534.66 342.57Z" fill="#333333"/><path d="M538.2 343.26 538.2 401.68C538.2 401.67 540.3 359.55 538.2 343.26Z" fill="#333333"/><path d="M543.33 343.26 543.33 400.21C543.33 400.21 544 349.37 543.33 343.26Z" fill="#333333"/><path d="M554.97 364.18 554.97 399.27C554.97 399.27 552.64 379.26 554.97 364.18Z" fill="#F7ECCD"/><g><g><path d="M526.8 494.21C525.97 494.21 525.3 493.54 525.3 492.71L525.3 450.81C525.3 449.98 525.97 449.31 526.8 449.31 527.63 449.31 528.3 449.98 528.3 450.81L528.3 492.71C528.3 493.53 527.63 494.21 526.8 494.21Z" fill="#FA1313"/></g><g><g><path d="M526.8 440 533.02 455.23 526.8 451.61 520.59 455.23Z" fill="#FA1313"/></g></g></g><g><g><path d="M524.66 249.83 482.76 249.83C481.93 249.83 481.26 249.16 481.26 248.33 481.26 247.5 481.93 246.83 482.76 246.83L524.66 246.83C525.49 246.83 526.16 247.5 526.16 248.33 526.16 249.16 525.49 249.83 524.66 249.83Z" fill="#FA1313"/></g><g><g><path d="M471.96 248.33 487.18 242.11 483.57 248.33 487.18 254.55Z" fill="#FA1313"/></g></g></g><g><g><path d="M599.83 433.13 572.76 433.13C572.21 433.13 571.76 432.68 571.76 432.13 571.76 431.58 572.21 431.13 572.76 431.13L599.83 431.13C600.38 431.13 600.83 431.58 600.83 432.13 600.83 432.68 600.38 433.13 599.83 433.13Z" fill="#FFDC21"/></g><g><g><path d="M607.03 432.13 596.88 436.28 599.29 432.13 596.88 427.99Z" fill="#FFDC21"/></g></g></g><g><path d="M541.9 332.76C540.52 332.76 539.4 331.64 539.4 330.26L539.4 262.93 358.39 262.93C357.01 262.93 355.89 261.81 355.89 260.43 355.89 259.05 357.01 257.93 358.39 257.93L544.4 257.93 544.4 330.26C544.4 331.64 543.28 332.76 541.9 332.76Z" fill="#FA1313"/></g><path d="M546.33 341.24C546.33 341.24 552.65 341.83 554.98 340.26 554.98 340.26 554.87 362.22 554.98 361.88 555.09 361.54 554.53 345.34 546.33 341.24Z" fill="#F7ECCD"/><path d="M293.84 148.7C293.84 148.7 293.59 157.57 317.76 156.02 317.76 156.01 300.41 156.9 293.84 148.7Z" fill="#F9CFC2"/><path d="M300.37 214.62C299.8 216.71 298.73 218.63 297.96 220.66 295.2 227.93 296.34 236.13 294.39 243.66 293.66 246.49 292.48 249.27 292.55 252.2 292.82 248.96 294.49 246.03 295.64 242.99 296.79 239.95 297.45 236.73 297.58 233.48 297.7 230.46 297.37 227.36 298.28 224.47 298.73 223.05 299.46 221.75 300.02 220.37 301.59 216.56 302.58 210.71 301.47 206.67 300.79 207.21 301.06 209.65 300.99 210.56 300.89 211.93 300.74 213.3 300.37 214.62Z" fill="#FAD0C3"/><path d="M318.55 70.17C318.74 72.61 319.1 75.14 320.47 77.17 321.55 78.78 323.2 79.95 324.98 80.69 326.76 81.43 328.69 81.78 330.62 81.99 328.4 81.19 326.14 80.37 324.27 78.93 322.19 77.33 320.71 75.04 319.83 72.57 319.43 71.46 319.14 70.3 318.95 69.14 318.82 68.37 318.84 67.43 318.42 66.76 318.28 67.85 318.46 69.06 318.55 70.17Z" fill="#FAD0C3"/><path d="M318.3 98.4C316.5 99.79 314.42 100.76 312.36 101.72 309.68 102.97 307 104.23 304.33 105.48 307.04 104.59 309.7 103.58 312.31 102.45 315.66 101 319.01 99.29 321.47 96.58 322.02 95.98 322.52 95.32 322.8 94.56 323.32 93.18 323.14 91.34 322.68 89.98 322.36 90.62 322.5 91.49 322.38 92.19 322.23 93.05 321.95 93.88 321.54 94.65 320.79 96.14 319.61 97.39 318.3 98.4Z" fill="#FAD0C3"/><path d="M326.63 267.84C324.79 265.65 323.63 262.94 323.01 260.15 324.42 262.53 326.2 264.65 327.98 266.77 328.78 267.72 329.57 268.67 330.46 269.54 330.76 269.83 332.72 271.15 331.75 271.5 330.44 271.98 327.36 268.7 326.63 267.84Z" fill="#FAD0C3"/><path d="M300.17 350.38C300.18 350.75 300.19 351.14 300.37 351.47 300.55 351.8 300.94 352.04 301.3 351.92 301.56 351.83 301.73 351.57 301.85 351.32 302.86 349.3 302.46 346.97 302.23 344.82 302.07 343.38 302.65 339.73 301.39 338.73 300.67 338.16 300.76 338.33 300.65 339.07 300.5 340.09 300.73 341.39 300.6 342.49 300.27 345.11 300.13 347.75 300.17 350.38Z" fill="#FAD0C3"/><path d="M361.84 363.8C361.68 363.89 361.51 363.98 361.33 363.98 360.95 363.97 360.7 363.52 360.75 363.14 360.8 362.76 361.06 362.44 361.3 362.15 362.68 360.43 363.9 358.58 364.94 356.63 365.48 355.62 365.87 354.53 366.4 353.53 366.81 352.75 367.05 352.29 367.43 353.43 367.96 355.01 366.5 358.01 365.78 359.41 364.87 361.18 363.57 362.78 361.84 363.8Z" fill="#FAD0C3"/><path d="M300.34 387.3C301.46 395.34 302.87 403.34 304.55 411.29 302.27 405.52 302.33 399.14 301.85 392.96 301.57 389.33 301.09 385.71 300.73 382.09 300.55 380.28 300.4 378.47 300.32 376.66 300.27 375.66 300.78 372.77 299.64 372.37 298.93 374.44 299.35 377.47 299.49 379.65 299.66 382.2 299.98 384.75 300.34 387.3Z" fill="#FAD0C3"/><path d="M305.58 464.64C305.26 466.04 304.73 467.37 304.2 468.71 302.71 472.46 301.22 476.23 299.24 479.76 301.2 476.26 303.04 472.62 304.52 468.89 305.28 466.98 308.2 460.82 306.43 459.04 305.82 460.76 305.99 462.83 305.58 464.64Z" fill="#FAD0C3"/><path d="M331.83 85.22C334.72 85.64 337.68 85.77 340.56 85.28 343.44 84.8 346.25 83.67 348.47 81.77 348.13 81.85 348.04 82.29 348.02 82.64 347.83 86 347.85 89.38 348.09 92.74 347.51 90.83 345.96 89.34 344.2 88.4 342.44 87.46 340.47 87 338.53 86.54 337 86.18 335.47 85.83 333.95 85.47" fill="#E29983"/><path d="M361.32 158.79C365.19 159.03 369.11 158.34 372.65 156.77 372.95 157.69 373.42 158.54 374.03 159.29 374.27 159.59 374.55 159.87 374.67 160.24 374.91 160.96 374.49 161.72 374.1 162.38 371.28 167.14 369.44 172.47 368.72 177.95 368.84 173.01 370.57 168.28 371.93 163.54 372.19 162.64 372.41 161.57 371.83 160.83 371.3 160.15 370.33 160.04 369.46 159.99 368.05 159.91 366.64 159.82 365.23 159.74 364.24 159.67 362.14 158.19 361.32 158.79" fill="#E29983"/><path d="M338.61 274.37C337.98 277.59 337.35 280.85 337.56 284.12 337.96 290.36 335.49 296.78 337.26 302.78 337.09 295.1 337.69 287.41 339.06 279.86 339.33 278.38 339.63 276.91 340.02 275.46 340.37 274.16 341.14 272.8 341.34 271.49 341.53 270.25 341.12 270.11 340.2 270.93 339.18 271.82 338.86 273.08 338.61 274.37Z" fill="#E29882"/><path d="M345.41 364.62C346.74 369.4 345.85 374.47 345.08 379.37 344.31 384.27 343.7 389.45 345.55 394.05 345.45 389.33 345.88 384.59 346.84 379.97 347.31 377.7 347.91 375.44 347.95 373.12 347.97 371.94 347.94 370.47 349.07 369.77 349.85 369.29 352.52 369.72 352.4 368.25 352.28 366.68 346.08 367 345.41 364.62Z" fill="#E29882"/><line x1="565.28" y1="323.56" x2="517.73" y2="323.56" stroke="#333333" stroke-width="0.7744" stroke-linejoin="round" stroke-miterlimit="10" fill="none"/><path d="M570.06 339.89C570.06 339.89 567.64 342.8 569.79 345.96" stroke="#333333" stroke-width="0.7744" stroke-linecap="round" stroke-miterlimit="10" fill="none"/></g></svg>