<svg viewBox="0 0 519.68 248.31" xmlns="http://www.w3.org/2000/svg" xmlns:xlink="http://www.w3.org/1999/xlink" id="Calque_2" overflow="hidden"><defs></defs><path d="M54 320.14C41 350.9 39.85 426.56 39.85 426.56 34.03 426.56 32.85 435.56 32.85 435.56L32.85 481.28C32.85 487.93 41.85 491.76 46.85 491.76L75 491.76C75.1032 491.767 75.2068 491.767 75.31 491.76L86.65 490.53 157.23 493.44 168.71 494.93 169.29 494.93 420.69 494.6 421.44 494.6C421.44 494.6 433.08 492.94 433.58 493.27 434.08 493.6 501.75 495.27 501.75 495.27L513.66 499.73 513.72 499.73C513.72 499.73 532.34 501.56 539.16 499.73 545.98 497.9 546.64 492.58 547.16 489.73 547.68 486.88 550.32 465.29 551.48 455.81 552.64 446.33 540.67 441.51 540.67 441.51 537.67 419.73 521.55 406.1 509.58 400.11 497.61 394.12 443.58 363.2 443.58 363.2 443.58 363.2 394 328 380.2 319.31 366.4 310.62 357.59 311.83 357.59 311.83L66 311.83C60.38 311.83 55.35 316 54 320.14Z" fill="#FFFFFF" transform="translate(-32.36 -283.7)"/><path d="M49.11 405.3C49.11 405.3 52.62 373.71 53.62 362.51 54.37 354.08 48.84 352.13 46.06 351.68 42.56 373.28 41.06 397.74 40.38 412.68 49.36 411.07 49.11 405.3 49.11 405.3Z" fill="#686767" transform="translate(-32.36 -283.7)"/><path d="M48.59 338.35C47.86 341.61 47.2 345.02 46.59 348.53 56.84 349.36 56 341.9 56 341.9L56 338.35Z" fill="#444040" transform="translate(-32.36 -283.7)"/><path d="M46.47 418.1C45.07 416.43 42 416.66 40.21 416.97 40.02 422.06 39.95 425.77 39.93 426.64L46.1 426.64C46.1 426.64 48.52 420.54 46.47 418.1Z" fill="#444040" transform="translate(-32.36 -283.7)"/><path d="M33 435.62 33 481.34C33 487.99 42 491.82 47 491.82L75.4 491.82 81.08 489.43 86.38 476.79 89.85 463.79 70 463.79C70 463.79 62.79 464.58 62.79 454.44 62.79 445.96 62.68 426.9 62.68 426.9L39.9 426.62C34.11 426.64 33 435.62 33 435.62Z" fill="#848383" transform="translate(-32.36 -283.7)"/><path d="M540.74 441.6C540.735 441.56 540.735 441.52 540.74 441.48L516.21 430.1 494 458.53 510.37 484.22 512.83 498 513.74 499.78 513.8 499.78C513.8 499.78 532.42 501.61 539.24 499.78 546.06 497.95 546.72 492.63 547.24 489.78 547.76 486.93 550.4 465.34 551.56 455.86 552.72 446.38 540.74 441.6 540.74 441.6Z" fill="#848383" transform="translate(-32.36 -283.7)"/><path d="M492 451.05C483.85 446.56 461.57 440.33 443.78 452.13 425.99 463.93 424.66 484.31 423.5 490.13 423.289 491.802 422.542 493.36 421.37 494.57L421.5 494.57C421.5 494.57 433.14 492.91 433.64 493.24 434.14 493.57 501.81 495.24 501.81 495.24L513.72 499.71 513.78 499.71C515.13 467.51 500.17 455.54 492 451.05Z" fill="#444040" transform="translate(-32.36 -283.7)"/><path d="M492 451.05C483.85 446.56 461.57 440.33 443.78 452.13 425.99 463.93 424.66 484.31 423.5 490.13 423.289 491.802 422.542 493.36 421.37 494.57L421.5 494.57C421.5 494.57 433.14 492.91 433.64 493.24 434.14 493.57 501.81 495.24 501.81 495.24L513.72 499.71 513.78 499.71C515.13 467.51 500.17 455.54 492 451.05Z" stroke="#333333" stroke-linecap="round" stroke-miterlimit="10" fill="none" transform="translate(-32.36 -283.7)"/><path d="M121.33 447.81C84.18 451.14 81.08 484.64 78.84 488.21 77.7966 489.733 76.3586 490.942 74.68 491.71L75.4 491.71 86.74 490.47 157.32 493.38 168.79 494.87 169.38 494.87C170.38 479.48 158.48 444.48 121.33 447.81Z" fill="#444040" transform="translate(-32.36 -283.7)"/><path d="M121.33 447.81C84.18 451.14 81.08 484.64 78.84 488.21 77.7966 489.733 76.3586 490.942 74.68 491.71L75.4 491.71 86.74 490.47 157.32 493.38 168.79 494.87 169.38 494.87C170.38 479.48 158.48 444.48 121.33 447.81Z" stroke="#333333" stroke-linecap="round" stroke-miterlimit="10" fill="none" transform="translate(-32.36 -283.7)"/><path d="M363 322.11 338.55 322.11C338.55 322.11 327.91 321.44 327.08 328.93L327.08 366.17C327.08 366.17 326.25 374.17 341.55 379.64 349.24 382.4 368.36 387.3 385.48 391.49L380.85 327.87C376.69 325.17 371.33 322.11 363 322.11Z" fill="#686767" transform="translate(-32.36 -283.7)"/><path d="M386.55 331.66 391.48 393C405.78 396.47 417.36 399.14 417.36 399.14 417.36 399.14 428.67 397.14 430 387.14L430 365.17C430 365.17 396.42 338.8 386.55 331.66Z" fill="#686767" transform="translate(-32.36 -283.7)"/><path d="M430 365.17C430 365.17 396.42 338.8 386.55 331.66 385.5 330.9 384.72 330.36 384.28 330.09 383.21 329.44 382.08 328.67 380.85 327.87 376.69 325.17 371.33 322.11 362.99 322.11L338.55 322.11C338.55 322.11 327.91 321.44 327.08 328.93L327.08 329.79C337.46 330.2 369.54 332.37 385.03 343.89 403.67 357.75 412.76 365.06 413.21 366.5 413.66 367.94 413.21 374.6 413.21 374.6 413.21 374.6 409.21 375.48 403.01 381.69L393.81 374.6 389 379.81 384 371.49 391 361C391 361 392.88 358.45 391 357.45 389.12 356.45 376.51 373.13 369.66 387.59L377.25 389.51C378.612 387.667 380.099 385.92 381.7 384.28 383.36 382.84 387.35 387.16 387.35 387.16L388.03 392.16 391.45 392.98C405.75 396.45 417.33 399.12 417.33 399.12 417.33 399.12 428.64 397.12 429.97 387.12Z" fill="#444343" transform="translate(-32.36 -283.7)"/><path d="M384.28 330.09C383.21 329.44 382.08 328.67 380.85 327.87L385.48 391.49 391.48 392.95 386.55 331.66C385.5 330.9 384.72 330.36 384.28 330.09Z" transform="translate(-32.36 -283.7)"/><path d="M509.64 400.09 508.36 399.43C507.67 403.37 506.69 412.72 511.36 418.38 515.87 423.81 531.49 431.16 539.25 434.59 534.23 416.8 520.3 405.42 509.64 400.09Z" fill="#CECCCC" transform="translate(-32.36 -283.7)"/><rect x="258.11" y="104.75" rx="3" width="10.97" height="27.35" fill="#444040"/><rect x="261.14" y="106.66" rx="2.45" width="4.9" height="16.63" fill="#8E8B8B"/><rect x="261.39" y="125.76" rx="2.2" width="4.41" height="4.41" fill="#8E8B8B"/><rect x="287.46" y="104.75" rx="3" width="10.97" height="27.35" fill="#444040"/><rect x="290.49" y="106.66" rx="2.45" width="4.9" height="16.63" fill="#8E8B8B"/><rect x="290.74" y="125.76" rx="2.2" width="4.41" height="4.41" fill="#8E8B8B"/><path d="M68.53 323.11C68.53 323.11 62 361.18 62.88 398.68L275.2 398.68 306.13 368 306.13 332.75C306.13 332.75 306.99 323.11 293.51 323.11Z" fill="#686767" transform="translate(-32.36 -283.7)"/><path d="M49.11 405.3C49.11 405.3 52.62 373.71 53.62 362.51 54.37 354.08 48.84 352.13 46.06 351.68 42.56 373.28 41.06 397.74 40.38 412.68 49.36 411.07 49.11 405.3 49.11 405.3Z" fill="#AAAAAA" transform="translate(-32.36 -283.7)"/><rect x="29.46" y="106.64" width="110.07" height="8.04" fill="#474646"/><rect x="29.46" y="106.64" width="110.07" height="8.04" stroke="#333333" stroke-linecap="round" stroke-miterlimit="10" fill="none"/><path d="M138.25 109.81 33.63 109.81 33.6 107.95 138.25 107.91 138.25 109.81Z" fill="#7C7B7B"/><path d="M138.25 113.56 33.63 113.61 33.63 111.65 138.25 111.65 138.25 113.56Z" fill="#7C7B7B"/><rect x="78.34" y="23.39" width="8.59" height="4.43" fill="#444040"/><rect x="73.41" y="17.18" width="18.57" height="6.21" fill="#0B2DF9"/><rect x="301.14" y="24.83" width="9.2" height="3.27" fill="#444040"/><rect x="295.6" y="13.69" width="19.9" height="11.14" fill="#0B2DF9"/><line x1="268.86" y1="28.1" x2="229.29" y2="0.5" stroke="#333333" stroke-linecap="round" stroke-miterlimit="10" fill="none"/><path d="M48.59 338.35C47.86 341.61 47.2 345.02 46.59 348.53 56.84 349.36 56 341.9 56 341.9L56 338.35Z" fill="#F9B450" transform="translate(-32.36 -283.7)"/><path d="M49.11 405.3C49.11 405.3 52.62 373.71 53.62 362.51 54.37 354.08 48.84 352.13 46.06 351.68 42.56 373.28 41.06 397.74 40.38 412.68 49.36 411.07 49.11 405.3 49.11 405.3Z" stroke="#333333" stroke-linecap="round" stroke-miterlimit="10" fill="none" transform="translate(-32.36 -283.7)"/><path d="M48.59 338.35C47.86 341.61 47.2 345.02 46.59 348.53 56.84 349.36 56 341.9 56 341.9L56 338.35Z" stroke="#333333" stroke-linecap="round" stroke-miterlimit="10" fill="none" transform="translate(-32.36 -283.7)"/><path d="M46.47 418.1C45.07 416.43 42 416.66 40.21 416.97 40.02 422.06 39.95 425.77 39.93 426.64L46.1 426.64C46.1 426.64 48.52 420.54 46.47 418.1Z" fill="#F91010" transform="translate(-32.36 -283.7)"/><path d="M46.39 418C44.98 416.33 41.92 416.56 40.12 416.87 39.93 421.96 39.86 425.67 39.85 426.54L46 426.54C46 426.54 48.44 420.46 46.39 418Z" stroke="#333333" stroke-linecap="round" stroke-miterlimit="10" fill="none" transform="translate(-32.36 -283.7)"/><path d="M478.29 153.52 30.35 153.52 30.35 143.22 486.26 143.22 478.29 153.52Z" fill="#0B2DF9"/><path d="M515.86 410.52C515.402 410.976 515.059 411.535 514.86 412.15 514.668 412.771 514.771 413.445 515.14 413.98 515.184 414.048 515.252 414.098 515.33 414.12 515.431 414.117 515.525 414.065 515.58 413.98 515.795 413.663 515.982 413.329 516.14 412.98 516.329 412.61 516.727 412.395 517.14 412.44 517.296 412.494 517.439 412.579 517.56 412.69L520.65 415.14 519.5 414.75C518.986 414.538 518.436 414.426 517.88 414.42 517.309 414.432 516.797 414.776 516.57 415.3 516.535 415.39 516.535 415.49 516.57 415.58 516.604 415.65 516.66 415.706 516.73 415.74 517.187 416.109 517.705 416.397 518.26 416.59 518.82 416.791 519.44 416.74 519.96 416.45 520.22 416.29 520.48 416.03 520.79 416.07 520.937 416.098 521.075 416.163 521.19 416.26 521.84 416.816 522.406 417.462 522.87 418.18 524.343 420.167 526.068 421.955 528 423.5 527.429 421.8 526.65 420.178 525.68 418.67 525.07 417.67 524.44 416.61 523.8 415.59 522.54 413.59 521.05 411.51 518.8 410.85 518.066 410.671 517.315 410.577 516.56 410.57 516.25 410.538 515.936 410.572 515.64 410.67 515.338 410.78 515.138 411.068 515.14 411.39" fill="#FFFFFF" transform="translate(-32.36 -283.7)"/><path d="M173.78 467.26 179.6 486.91 415.54 486.91C415.54 486.91 419.69 483.39 418.36 474.25Z" fill="#848383" transform="translate(-32.36 -283.7)"/><path d="M147.23 203.21 141.41 183.56 139.25 175.91 139.25 34.67 278.17 34.67 278.17 203.21 147.23 203.21Z" stroke="#333333" stroke-linecap="round" stroke-miterlimit="10" fill="none"/><path d="M283.91 28.21 283.91 133.85 292.06 150.81 292.06 203.21" stroke="#333333" stroke-linecap="round" stroke-miterlimit="10" fill="none"/><line x1="411.27" y1="79.59" x2="411.27" y2="168.43" stroke="#333333" stroke-linecap="round" stroke-miterlimit="10" fill="none"/><rect x="78.34" y="23.39" width="8.59" height="4.43" stroke="#333333" stroke-linecap="round" stroke-miterlimit="10" fill="none"/><rect x="73.41" y="17.18" width="18.57" height="6.21" stroke="#333333" stroke-linecap="round" stroke-miterlimit="10" fill="none"/><rect x="301.14" y="24.83" width="9.2" height="3.27" stroke="#333333" stroke-linecap="round" stroke-miterlimit="10" fill="none"/><path d="M315.5 24.83 295.6 24.83 295.6 13.69 302.42 13.69 315.5 13.69 315.5 24.83Z" stroke="#333333" stroke-linecap="round" stroke-miterlimit="10" fill="none"/><circle cx="348.34" cy="148.37" r="31.43" fill="#FFFFFF"/><rect x="374.85" y="410.52" width="11.69" height="44.89" fill="#F91010" transform="matrix(6.12323e-17 -1 1 6.12323e-17 -84.62 529.96)"/><rect x="342.49" y="126.82" width="11.69" height="44.89" fill="#F91010"/><circle cx="348.34" cy="148.37" r="31.43" stroke="#000000" stroke-width="2" stroke-miterlimit="10" fill="none"/><path d="M75.4 491.7 74.68 491.7C76.3586 490.932 77.7966 489.723 78.84 488.2 80.13 486.2 81.71 474.2 89.84 463.83L89.84 463.83 70 463.83C70 463.83 62.8 464.31 62.79 454.48 62.79 446 62.68 426.94 62.68 426.94L39.9 426.66C34.08 426.66 32.9 435.66 32.9 435.66L32.9 481.38C32.9 488.03 41.9 491.86 46.9 491.86L75.4 491.86" stroke="#333333" stroke-linecap="round" stroke-miterlimit="10" fill="none" transform="translate(-32.36 -283.7)"/><path d="M386.55 331.66C385.5 330.9 384.72 330.36 384.28 330.09 383.21 329.44 382.08 328.67 380.85 327.87 376.69 325.17 371.33 322.11 362.99 322.11L338.55 322.11C338.55 322.11 327.91 321.44 327.08 328.93L327.08 366.17C327.08 366.17 326.25 374.17 341.55 379.64 349.24 382.4 368.36 387.3 385.48 391.49L391.48 392.95C405.78 396.42 417.36 399.09 417.36 399.09 417.36 399.09 428.67 397.09 430 387.09L430 365.17C430 365.17 396.42 338.8 386.55 331.66Z" stroke="#333333" stroke-linecap="round" stroke-miterlimit="10" fill="none" transform="translate(-32.36 -283.7)"/><path d="M68.53 323.11C68.53 323.11 62 361.18 62.88 398.68L275.2 398.68 306.13 368 306.13 332.75C306.13 332.75 306.99 323.11 293.51 323.11Z" stroke="#333333" stroke-linecap="round" stroke-miterlimit="10" fill="none" transform="translate(-32.36 -283.7)"/><path d="M433 364 433 400C433 400 440.65 397.42 440.65 392.43L440.65 371.82C440.65 371.82 440.89 369.5 433 364Z" fill="#848383" transform="translate(-32.36 -283.7)"/><path d="M433 364 433 400C433 400 429 398 429 394.87L429 368.27C429.731 366.383 431.165 364.853 433 364Z" fill="#D6D4D4" transform="translate(-32.36 -283.7)"/><path d="M433 364 433 400C433 400 440.65 397.42 440.65 392.43L440.65 371.82C440.65 371.82 440.89 369.5 433 364Z" stroke="#333333" stroke-linecap="round" stroke-linejoin="round" fill="none" transform="translate(-32.36 -283.7)"/><path d="M433 364 433 400C433 400 429 398 429 394.87L429 368.27C429.731 366.383 431.165 364.853 433 364Z" stroke="#333333" stroke-linecap="round" stroke-linejoin="round" fill="none" transform="translate(-32.36 -283.7)"/><line x1="16.22" y1="54.65" x2="34" y2="54.65" stroke="#333333" stroke-linecap="round" stroke-miterlimit="10" fill="none"/><rect x="21.74" y="105.38" rx="3" width="11.89" height="11.06" fill="#474646"/><rect x="21.74" y="105.38" rx="3" width="11.89" height="11.06" stroke="#333333" stroke-linecap="round" stroke-miterlimit="10" fill="none"/><path d="M171.28 388.74 171.28 398.37 190.45 398.37C190.45 398.37 190.36 387.58 171.28 388.74Z" fill="#474646" transform="translate(-32.36 -283.7)"/><path d="M171.28 388.74 171.28 398.37 190.45 398.37C190.45 398.37 190.36 387.58 171.28 388.74Z" stroke="#333333" stroke-linecap="round" stroke-miterlimit="10" fill="none" transform="translate(-32.36 -283.7)"/><path d="M51.9 360.89 47.66 406.15C47.66 406.15 46.75 374.32 51.9 360.89Z" fill="#FFFFFF" transform="translate(-32.36 -283.7)"/><path d="M173.78 467.26 179.6 486.91 415.54 486.91C415.54 486.91 419.69 483.39 418.36 474.25Z" stroke="#333333" stroke-linecap="round" stroke-miterlimit="10" fill="none" transform="translate(-32.36 -283.7)"/><line x1="302.65" y1="24.83" x2="302.65" y2="13.69" stroke="#333333" stroke-width="0.75" stroke-linecap="round" stroke-miterlimit="10" fill="none"/><line x1="308.58" y1="24.83" x2="308.58" y2="13.69" stroke="#333333" stroke-width="0.75" stroke-linecap="round" stroke-miterlimit="10" fill="none"/><path d="M539.28 434.59C539.28 434.59 529.56 430.07 528.01 429.27 526.46 428.47 519.73 424.74 519.73 424.74L516.21 430.1 540.65 441.52Z" fill="#F9B450" transform="translate(-32.36 -283.7)"/><path d="M54 320.14C41 350.9 39.85 426.56 39.85 426.56 34.03 426.56 32.85 435.56 32.85 435.56L32.85 481.28C32.85 487.93 41.85 491.76 46.85 491.76L75 491.76C75.1032 491.767 75.2068 491.767 75.31 491.76L86.65 490.53 157.23 493.44 168.71 494.93 169.29 494.93 420.69 494.6 421.44 494.6C421.44 494.6 433.08 492.94 433.58 493.27 434.08 493.6 501.75 495.27 501.75 495.27L513.66 499.73 513.72 499.73C513.72 499.73 532.34 501.56 539.16 499.73 545.98 497.9 546.64 492.58 547.16 489.73 547.68 486.88 550.32 465.29 551.48 455.81 552.64 446.33 540.67 441.51 540.67 441.51 537.67 419.73 521.55 406.1 509.58 400.11 497.61 394.12 443.58 363.2 443.58 363.2 443.58 363.2 394 328 380.2 319.31 366.4 310.62 357.59 311.83 357.59 311.83L66 311.83C60.38 311.83 55.35 316 54 320.14Z" stroke="#333333" stroke-linecap="round" stroke-miterlimit="10" fill="none" transform="translate(-32.36 -283.7)"/><path d="M513.66 499.69 513.72 499.69C513.72 499.69 532.34 501.52 539.16 499.69 545.98 497.86 546.64 492.54 547.16 489.69 547.68 486.84 550.32 465.25 551.48 455.77 552.64 446.29 540.67 441.47 540.67 441.47 540.675 441.43 540.675 441.39 540.67 441.35L516.13 430 497.13 454.36C505.13 460.66 514.82 473.47 513.74 499.58L513.68 499.58" stroke="#333333" stroke-linecap="round" stroke-miterlimit="10" fill="none" transform="translate(-32.36 -283.7)"/><line x1="487.36" y1="141.04" x2="464.74" y2="170.68" stroke="#333333" stroke-linecap="round" stroke-miterlimit="10" fill="none"/><path d="M539.28 434.59C539.28 434.59 529.56 430.07 528.01 429.27 526.46 428.47 519.73 424.74 519.73 424.74L516.21 430.1 540.65 441.52Z" stroke="#333333" stroke-linecap="round" stroke-miterlimit="10" fill="none" transform="translate(-32.36 -283.7)"/><path d="M509.64 400.09 508.36 399.43C507.67 403.37 506.69 412.72 511.36 418.38 515.87 423.81 531.49 431.16 539.25 434.59 534.23 416.8 520.3 405.42 509.64 400.09Z" stroke="#333333" stroke-linecap="round" stroke-miterlimit="10" fill="none" transform="translate(-32.36 -283.7)"/><path d="M53.13 105.29 88.1 41.02 110.93 41.02 78.15 105.29 53.13 105.29Z" fill="#7F7E7E"/><path d="M172.42 113.48 203.43 41.02 227.21 41.02 200.81 113.06 172.42 113.48Z" fill="#7F7E7E"/><path d="M112.23 41.02 79.27 105.29 84.49 105.29 116.31 41.02 112.23 41.02Z" fill="#7F7E7E"/><path d="M228.79 41.02 202.6 113.06 208.71 113.06 233.78 41.02 228.79 41.02Z" fill="#7F7E7E"/><path d="M360.66 323.11 351.66 323.11 336 375.9C336 375.9 340.8 378.77 344.9 379.43Z" fill="#7F7E7E" transform="translate(-32.36 -283.7)"/><circle cx="91.67" cy="209.73" r="38.57"/><circle cx="91.67" cy="209.73" r="27" fill="#BCBBBB"/><circle cx="91.67" cy="209.73" r="2.7" fill="#444040"/><circle cx="91.67" cy="202.71" r="1.89" fill="#444040"/><circle cx="84.48" cy="208.28" r="1.89" fill="#444040"/><circle cx="98.4" cy="208.28" r="1.89" fill="#444040"/><circle cx="95.53" cy="215.93" r="1.89" fill="#444040"/><circle cx="87.3" cy="215.64" r="1.89" fill="#444040"/><path d="M105.08 481.54C108.13 477.189 112.472 473.908 117.49 472.16 117.49 472.16 118.87 485.33 105.08 481.54Z" fill="#444040" transform="translate(-32.36 -283.7)"/><path d="M106.32 507.68C103.199 503.379 101.512 498.204 101.5 492.89 101.5 492.89 114.39 495.88 106.32 507.68Z" fill="#444040" transform="translate(-32.36 -283.7)"/><path d="M131.79 514.89C126.733 516.528 121.287 516.528 116.23 514.89 116.23 514.89 123.07 503.56 131.79 514.89Z" fill="#444040" transform="translate(-32.36 -283.7)"/><path d="M129.5 471.88C134.598 473.372 139.097 476.43 142.36 480.62 142.36 480.62 130.34 486.15 129.5 471.88Z" fill="#444040" transform="translate(-32.36 -283.7)"/><path d="M146.56 493.25C146.469 498.575 144.702 503.737 141.51 508 141.51 508 133 497.83 146.56 493.25Z" fill="#444040" transform="translate(-32.36 -283.7)"/><circle cx="91.67" cy="209.73" r="27" stroke="#333333" stroke-linecap="round" stroke-miterlimit="10" fill="none"/><circle cx="436.1" cy="209.73" r="38.57"/><circle cx="436.1" cy="209.73" r="27" fill="#BCBBBB"/><circle cx="436.37" cy="203.01" r="1.89" fill="#444040"/><circle cx="429.09" cy="208.28" r="1.89" fill="#444040"/><circle cx="443.02" cy="208.28" r="1.89" fill="#444040"/><circle cx="440.15" cy="215.93" r="1.89" fill="#444040"/><circle cx="431.92" cy="215.64" r="1.89" fill="#444040"/><circle cx="436.1" cy="209.73" r="2.7" fill="#444040"/><path d="M449.17 481.54C452.22 477.189 456.562 473.908 461.58 472.16 461.58 472.16 463 485.33 449.17 481.54Z" fill="#444040" transform="translate(-32.36 -283.7)"/><path d="M450.41 507.68C447.289 503.379 445.602 498.204 445.59 492.89 445.59 492.89 458.49 495.88 450.41 507.68Z" fill="#444040" transform="translate(-32.36 -283.7)"/><path d="M475.88 514.89C470.826 516.527 465.384 516.527 460.33 514.89 460.33 514.89 467.17 503.56 475.88 514.89Z" fill="#444040" transform="translate(-32.36 -283.7)"/><path d="M473.59 471.88C478.688 473.372 483.187 476.43 486.45 480.62 486.45 480.62 474.43 486.15 473.59 471.88Z" fill="#444040" transform="translate(-32.36 -283.7)"/><path d="M490.65 493.25C490.567 498.559 488.818 503.709 485.65 507.97 485.65 507.97 477.1 497.83 490.65 493.25Z" fill="#444040" transform="translate(-32.36 -283.7)"/><circle cx="436.1" cy="209.73" r="27" stroke="#333333" stroke-linecap="round" stroke-miterlimit="10" fill="none"/><path d="M105.08 482.22C105.08 482.22 118.3 487.15 118.02 472.16 118 472.16 120.18 488.21 105.08 482.22Z" fill="#FFFFFF" transform="translate(-32.36 -283.7)"/><path d="M128.87 472.16C128.87 472.16 128.69 486.11 142.36 481.29 142.36 481.29 128 488.31 128.87 472.16Z" fill="#FFFFFF" transform="translate(-32.36 -283.7)"/><path d="M146 492.54C146 492.54 132.81 496.69 140.79 507.97 140.8 508 130.49 496.8 146 492.54Z" fill="#FFFFFF" transform="translate(-32.36 -283.7)"/><path d="M115.81 513.88C115.81 513.88 123.67 503.34 131.81 514.15 131.79 514.15 124.89 501.52 115.81 513.88Z" fill="#FFFFFF" transform="translate(-32.36 -283.7)"/><path d="M107.16 507.28C107.16 507.28 115.31 496 102 492.54 102 492.54 117 494.75 107.16 507.28Z" fill="#FFFFFF" transform="translate(-32.36 -283.7)"/><path d="M123.8 483.81C123.8 483.81 120.8 484.5 122.06 487.67 122.06 487.67 120 484.1 123.8 483.81Z" fill="#FFFFFF" transform="translate(-32.36 -283.7)"/><path d="M116.55 489.57C116.55 489.57 113.55 490.26 114.81 493.43 114.81 493.43 112.71 489.86 116.55 489.57Z" fill="#FFFFFF" transform="translate(-32.36 -283.7)"/><path d="M119.42 497C119.42 497 116.42 497.7 117.68 500.87 117.68 500.82 115.58 497.24 119.42 497Z" fill="#FFFFFF" transform="translate(-32.36 -283.7)"/><path d="M130.45 489.57C130.45 489.57 127.45 490.26 128.71 493.43 128.71 493.43 126.61 489.86 130.45 489.57Z" fill="#FFFFFF" transform="translate(-32.36 -283.7)"/><path d="M127.67 497.16C127.67 497.16 124.67 497.86 125.93 501.03 125.93 501 123.83 497.45 127.67 497.16Z" fill="#FFFFFF" transform="translate(-32.36 -283.7)"/><path d="M449.31 482.22C449.31 482.22 462.53 487.15 462.25 472.16 462.25 472.16 464.41 488.21 449.31 482.22Z" fill="#FFFFFF" transform="translate(-32.36 -283.7)"/><path d="M473.1 472.16C473.1 472.16 472.91 486.11 486.59 481.29 486.59 481.29 472.26 488.31 473.1 472.16Z" fill="#FFFFFF" transform="translate(-32.36 -283.7)"/><path d="M490.24 492.54C490.24 492.54 477.05 496.69 485 508 485 508 474.72 496.8 490.24 492.54Z" fill="#FFFFFF" transform="translate(-32.36 -283.7)"/><path d="M460 513.88C460 513.88 467.87 503.34 476 514.15 476 514.15 469.12 501.52 460 513.88Z" fill="#FFFFFF" transform="translate(-32.36 -283.7)"/><path d="M451.39 507.28C451.39 507.28 459.53 495.97 446.23 492.54 446.23 492.54 461.25 494.75 451.39 507.28Z" fill="#FFFFFF" transform="translate(-32.36 -283.7)"/><path d="M468 483.81C468 483.81 465 484.5 466.25 487.67 466.28 487.67 464.19 484.1 468 483.81Z" fill="#FFFFFF" transform="translate(-32.36 -283.7)"/><path d="M460.77 489.57C460.77 489.57 457.77 490.26 459.03 493.43 459 493.43 456.94 489.86 460.77 489.57Z" fill="#FFFFFF" transform="translate(-32.36 -283.7)"/><path d="M463.64 497C463.64 497 460.64 497.7 461.9 500.87 461.9 500.82 459.81 497.24 463.64 497Z" fill="#FFFFFF" transform="translate(-32.36 -283.7)"/><path d="M474.68 489.57C474.68 489.57 471.68 490.26 472.94 493.43 472.94 493.43 470.84 489.86 474.68 489.57Z" fill="#FFFFFF" transform="translate(-32.36 -283.7)"/><path d="M471.89 497.16C471.89 497.16 468.89 497.86 470.15 501.03 470.15 501 468.06 497.45 471.89 497.16Z" fill="#FFFFFF" transform="translate(-32.36 -283.7)"/><path d="M509.31 401.75C509.31 401.75 505.31 418.13 522.31 424.24 522.28 424.24 510 416.38 509.31 401.75Z" fill="#9E9D9D" transform="translate(-32.36 -283.7)"/><path d="M540.24 443.49C540.24 443.49 550.8 446.98 549.63 457.87 548.46 468.76 544.48 493.25 544.48 493.25 544.48 493.25 548.05 459.25 548.39 458.12 548.73 456.99 548.72 448.64 540.24 443.49Z" fill="#BAB9B9" transform="translate(-32.36 -283.7)"/><path d="M41.09 429.13C41.09 429.13 35.88 428.13 34.89 437.67 33.9 447.21 34.89 481.67 34.89 481.67 34.89 481.67 36.24 489.07 47.04 490.08 47.04 490.08 38.1 486.98 36.66 480.78 35.22 474.58 36.44 437.88 36.44 437.88 36.44 437.88 36.77 430.57 41.09 429.13Z" fill="#BAB9B9" transform="translate(-32.36 -283.7)"/><path d="M143.75 185.29 276.84 188.76 276.59 200.82 275.16 190.78 144.35 187.53 143.75 185.29Z" fill="#BAB9B9"/><path d="M279.34 188.76 290.74 189.26 290.74 201.12 289.48 190.78 279.34 188.76Z" fill="#BAB9B9"/><path d="M326.33 473.12 416.71 476C416.71 476 418.17 481.86 415.35 485.2 415.35 485.2 417.64 478.41 415.56 477.15 413.48 475.89 326.33 475 326.33 475Z" fill="#BAB9B9" transform="translate(-32.36 -283.7)"/><rect x="258.11" y="104.75" rx="3" width="10.97" height="27.35" stroke="#333333" stroke-linecap="round" stroke-miterlimit="10" fill="none"/><rect x="287.46" y="104.75" rx="3" width="10.97" height="27.35" stroke="#333333" stroke-linecap="round" stroke-miterlimit="10" fill="none"/><path d="M297.3 392C297.452 392.383 297.54 392.788 297.56 393.2 297.729 394.861 297.762 396.533 297.66 398.2 297.585 396.192 297.248 394.202 296.66 392.28 296.518 391.908 296.304 391.568 296.03 391.28 296.567 391.205 297.088 391.5 297.3 392Z" fill="#BCBBBB" transform="translate(-32.36 -283.7)"/><path d="M296.3 410C296.3 410 297.67 410.07 297.64 411.31 297.61 412.55 296.3 410 296.3 410Z" fill="#BCBBBB" transform="translate(-32.36 -283.7)"/><path d="M326.8 392C326.96 392.381 327.052 392.787 327.07 393.2 327.239 394.861 327.272 396.533 327.17 398.2 327.09 396.192 326.754 394.203 326.17 392.28 326.024 391.911 325.81 391.571 325.54 391.28 326.075 391.207 326.592 391.502 326.8 392Z" fill="#BCBBBB" transform="translate(-32.36 -283.7)"/><path d="M325.81 410C325.81 410 327.17 410.07 327.14 411.31 327.11 412.55 325.81 410 325.81 410Z" fill="#BCBBBB" transform="translate(-32.36 -283.7)"/><path d="M434.82 368.17 434.82 396.6C434.82 396.6 438.15 372.82 434.82 368.17Z" fill="#BAB9B9" transform="translate(-32.36 -283.7)"/></svg>