<svg viewBox="0 0 301.64 274.39" xmlns="http://www.w3.org/2000/svg" xmlns:xlink="http://www.w3.org/1999/xlink" id="Calque_2" overflow="hidden"><defs></defs><path d="M510.16 255.1C511.74 247.7 505.01 244.88 505.01 244.88L467.93 237.48C467.93 237.48 375.83 219.85 290.68 244.48L250.78 257.78C250.78 257.78 240.14 261.11 239.47 267.09 239.47 267.09 228.17 272.42 225.47 277.74L225.47 484.56C225.47 484.56 228.14 493.87 250.75 499.19 273.36 504.51 281.67 506.19 297.97 503.51 314.27 500.83 513.15 478.9 513.15 478.9 513.15 478.9 526.15 476.58 526.15 454.3L526.15 276.05C526.15 276.05 527.45 261.42 510.16 255.1ZM355.84 274.91C336.08 268.91 323.38 260.54 323.38 260.54 323.38 260.54 348.69 244.54 417.06 247.01 398.13 265.18 355.84 274.91 355.84 274.91Z" fill="#F91010" transform="translate(-225 -230.87)"/><path d="M510.16 255.1C511.74 247.7 505.01 244.88 505.01 244.88L467.93 237.48 467.26 246.12C467.26 246.12 492.87 248.79 510.16 255.1Z" fill="#9E9E9D" transform="translate(-225 -230.87)"/><path d="M273.06 274.06 312.3 260.42C312.3 260.42 313.96 249.12 308.97 247.79 303.98 246.46 290.68 244.46 290.68 244.46L250.78 257.76C255.822 258.239 260.83 259.017 265.78 260.09 273.06 261.75 273.06 274.06 273.06 274.06Z" fill="#9E9E9D" transform="translate(-225 -230.87)"/><path d="M250.78 257.76C250.78 257.76 240.14 261.09 239.47 267.07 239.47 267.07 228.17 272.4 225.47 277.72L225.47 484.56C225.47 484.56 228.14 493.87 250.75 499.19 273.36 504.51 281.67 506.19 297.97 503.51 314.27 500.83 513.15 478.9 513.15 478.9 513.15 478.9 526.15 476.58 526.15 454.3L526.15 276.05C526.15 276.05 527.48 261.42 510.15 255.05 511.73 247.65 505 244.83 505 244.83L467.92 237.43C467.92 237.43 375.82 219.8 290.67 244.43Z" stroke="#333333" stroke-linecap="round" stroke-miterlimit="10" fill="none" transform="translate(-225 -230.87)"/><path d="M225.5 277.72 225.5 484.56C225.5 484.56 228.17 493.87 250.78 499.19 273.39 504.51 281.7 506.19 298 503.51 314.3 500.83 513.15 478.9 513.15 478.9 513.15 478.9 526.15 476.58 526.15 454.3L526.15 276.05C526.15 276.05 527.48 261.42 510.15 255.05 492.82 248.68 467.25 246.05 467.25 246.05L467.92 237.41C467.92 237.41 375.82 219.78 290.67 244.41 290.67 244.41 303.97 246.41 308.96 247.74 313.95 249.07 312.29 260.37 312.29 260.37L273.05 274.01C273.05 274.01 273.05 261.7 265.73 260.01 260.78 258.937 255.772 258.159 250.73 257.68 250.73 257.68 240.09 261.01 239.42 266.99 239.47 267.07 228.17 272.4 225.5 277.72Z" stroke="#333333" stroke-linecap="round" stroke-miterlimit="10" fill="none" transform="translate(-225 -230.87)"/><path d="M510.16 255.1C492.87 248.79 467.26 246.1 467.26 246.1L467.93 237.46C467.93 237.46 375.83 219.83 290.68 244.46 290.68 244.46 303.98 246.46 308.97 247.79 313.96 249.12 312.3 260.42 312.3 260.42L273.06 274.06C273.06 274.06 273.06 261.75 265.74 260.06 260.79 258.987 255.782 258.209 250.74 257.73 250.74 257.73 240.1 261.06 239.43 267.04 239.43 267.04 228.13 272.37 225.43 277.69L225.43 484.56C225.43 484.56 228.1 493.87 250.71 499.19 273.32 504.51 281.63 506.19 297.93 503.51 314.23 500.83 513.15 478.9 513.15 478.9 513.15 478.9 526.15 476.58 526.15 454.3L526.15 276.05C526.15 276.05 527.45 261.42 510.16 255.1ZM355.84 274.91C336.08 268.91 323.38 260.53 323.38 260.53 323.38 260.53 348.69 244.53 417.06 247.01 398.13 265.18 355.84 274.91 355.84 274.91Z" stroke="#333333" stroke-linecap="round" stroke-miterlimit="10" fill="none" transform="translate(-225 -230.87)"/><path d="M488.83 250.78C468.67 249.12 442.16 278.88 399.42 280.71 356.68 282.54 323.42 260.53 323.42 260.53 323.42 260.53 357.52 239 453.63 249.78" stroke="#333333" stroke-linecap="round" stroke-miterlimit="10" fill="none" transform="translate(-225 -230.87)"/><path d="M370.22 278.47C370.22 278.47 401.22 276.88 444.15 248.8" stroke="#333333" stroke-linecap="round" stroke-miterlimit="10" fill="none" transform="translate(-225 -230.87)"/><path d="M273.06 274.06 259.2 279.5 259.2 271.5C259.207 266.616 262.28 262.262 266.88 260.62" stroke="#333333" stroke-linecap="round" stroke-miterlimit="10" fill="none" transform="translate(-225 -230.87)"/><line x1="14.47" y1="36.21" x2="14.11" y2="47.27" stroke="#333333" stroke-linecap="round" stroke-miterlimit="10" fill="none"/><path d="M257.9 259.26C257.9 259.26 255.24 260.71 253.9 261.55 252.56 262.39 247.43 265.04 247.43 274.06L247.43 484.22C247.43 493.09 248.9 497.41 252.68 499.63" stroke="#333333" stroke-linecap="round" stroke-miterlimit="10" fill="none" transform="translate(-225 -230.87)"/><path d="M502.06 244.29C502.06 244.29 502.95 249.73 502.06 252.54" stroke="#333333" stroke-linecap="round" stroke-miterlimit="10" fill="none" transform="translate(-225 -230.87)"/><path d="M312.56 246.29C319.508 243.93 326.582 241.96 333.75 240.39 340.91 238.783 348.123 237.45 355.39 236.39 362.66 235.39 369.95 234.51 377.27 234.05 380.93 233.76 384.6 233.64 388.27 233.51 390.1 233.45 391.94 233.51 393.77 233.51 395.6 233.51 397.44 233.51 399.27 233.51 391.97 234.18 384.68 234.81 377.42 235.63 370.16 236.45 362.92 237.34 355.69 238.39L350.27 239.18 344.87 240.06C341.26 240.65 337.67 241.29 334.07 241.94 326.88 243.26 319.7 244.64 312.56 246.29Z" fill="#F97658" transform="translate(-225 -230.87)"/><path d="M325.82 266.08 293.77 277.08 289.77 278.48 287.77 279.19C287.16 279.48 286.5 279.69 285.94 280.03 284.771 280.593 283.746 281.414 282.94 282.43 282.169 283.454 281.633 284.635 281.37 285.89 280.934 288.603 280.786 291.355 280.93 294.1L281.05 302.59C281.32 325.19 281.36 347.79 281.4 370.39 281.44 392.99 281.33 415.59 281.05 438.19L280.64 472.09 280.47 480.57C280.346 483.376 280.383 486.188 280.58 488.99 280.786 491.78 281.462 494.515 282.58 497.08 283.753 499.645 285.59 501.851 287.9 503.47 285.474 501.952 283.496 499.816 282.17 497.28 280.919 494.702 280.121 491.928 279.81 489.08 279.498 486.254 279.344 483.413 279.35 480.57L279.19 472.09 278.77 438.19C278.5 415.59 278.46 392.98 278.42 370.38 278.38 347.78 278.5 325.18 278.77 302.57L278.86 294.11C278.774 291.206 279.009 288.302 279.56 285.45 280.247 282.388 282.331 279.825 285.19 278.53 285.842 278.206 286.509 277.916 287.19 277.66L289.19 276.98 293.24 275.69 309.48 270.8C314.933 269.2 320.38 267.627 325.82 266.08Z" fill="#F97658" transform="translate(-225 -230.87)"/><line x1="47.94" y1="40.31" x2="87.55" y2="26.24" stroke="#333333" stroke-linecap="round" stroke-miterlimit="10" fill="none"/><ellipse cx="408.5" cy="379.44" rx="52.23" ry="37.77" fill="#FFFFFF" transform="matrix(0.0854169 -0.996345 0.996345 0.0854169 -229.49 523.14)"/><ellipse cx="408.5" cy="379.44" rx="52.23" ry="37.77" stroke="#000000" stroke-width="2.83" stroke-miterlimit="10" fill="none" transform="matrix(0.0854169 -0.996345 0.996345 0.0854169 -229.49 523.14)"/><path d="M210.55 138.22 210.57 157.59 156.44 161.89 156.42 142.52 210.55 138.22Z" fill="#F91010"/><path d="M190.59 186.67 176.49 187.79 176.4 113.44 190.5 112.32 190.59 186.67Z" fill="#F91010"/><path d="M353.09 277.16C353.09 277.16 403.91 296.01 453.09 266.96 453.07 267 410.23 298.5 353.09 277.16Z" fill="#F97658" transform="translate(-225 -230.87)"/><path d="M247 261.26C247 261.26 240.1 262.67 240.35 271.81 240.39 271.81 241.63 263.5 247 261.26Z" fill="#F97658" transform="translate(-225 -230.87)"/><path d="M257.9 261.26C257.9 261.26 248.21 264.09 249.05 275.77 249.05 275.77 249.62 265.78 257.9 261.26Z" fill="#F97658" transform="translate(-225 -230.87)"/><path d="M249 289.33 249 481.78C249 481.78 250.78 306.43 249 289.33Z" fill="#F97658" transform="translate(-225 -230.87)"/><path d="M359.63 274.91C359.63 274.91 395.63 268.55 418.27 248.42L440.55 249.67C440.55 249.67 404.41 274.06 370.22 277.05 366.61 277.37 359.63 274.91 359.63 274.91Z" fill="#D80707" transform="translate(-225 -230.87)"/><path d="M376.37 278.47C376.37 278.47 407.19 274.91 444.87 249.89 444.87 249.89 439.43 272.17 414.06 277.94 401.4 280.82 376.37 278.47 376.37 278.47Z" fill="#D80707" transform="translate(-225 -230.87)"/><path d="M291.9 499.63C291.9 499.63 419.4 486.63 495.9 467.38 513.82 462.87 519.84 450.97 523.31 438.2 523.31 438.2 525.31 471.42 512.75 474.47 494.77 478.82 291.9 499.63 291.9 499.63Z" fill="#D80707" transform="translate(-225 -230.87)"/></svg>