<svg viewBox="0 0 544.12 156.27" xmlns="http://www.w3.org/2000/svg" xmlns:xlink="http://www.w3.org/1999/xlink" id="Calque_2" overflow="hidden"><defs></defs><path d="M424.61 222.86 301.08 222.86C299.975 222.86 299.08 223.755 299.08 224.86L299.08 224.86C299.08 225.965 299.975 226.86 301.08 226.86L424.61 226.86C424.61 226.86 437.26 227.34 442.96 223.7 444.2 222.91 444.86 221.5 444.22 220.51 443.82 219.9 442.81 219.79 441.52 220.2 438 221.31 435.92 222.86 424.61 222.86Z" fill="#A3A3A3" transform="translate(-27.71 -74.55)"/><path d="M424.61 222.86 301.08 222.86C299.975 222.86 299.08 223.755 299.08 224.86L299.08 224.86C299.08 225.965 299.975 226.86 301.08 226.86L424.61 226.86C424.61 226.86 437.26 227.34 442.96 223.7 444.2 222.91 444.86 221.5 444.22 220.51 443.82 219.9 442.81 219.79 441.52 220.2 438 221.31 435.92 222.86 424.61 222.86Z" stroke="#333333" stroke-linecap="round" stroke-miterlimit="10" fill="none" transform="translate(-27.71 -74.55)"/><path d="M332.57 217.64 332.57 205.92C332.543 204.274 331.216 202.947 329.57 202.92L329.57 202.92C327.913 202.92 326.57 204.263 326.57 205.92L326.57 217.64C326.57 219.76 326.29 222 324.71 222.25 323.718 222.402 322.714 222.469 321.71 222.45 321.369 224.099 321.369 225.801 321.71 227.45L336.71 227.45C337.014 225.797 337.014 224.103 336.71 222.45 335.728 222.485 334.747 222.37 333.8 222.11 333.12 221.75 332.57 221.67 332.57 217.64Z" fill="#A3A3A3" transform="translate(-27.71 -74.55)"/><path d="M419.52 217.64 420.86 201.51C420.833 199.864 419.506 198.537 417.86 198.51L417.86 198.51C416.203 198.51 414.86 199.853 414.86 201.51L413.52 217.64C413.52 219.76 413.24 222 411.66 222.25 410.668 222.403 409.664 222.469 408.66 222.45 408.313 224.099 408.313 225.801 408.66 227.45L423.66 227.45C423.964 225.797 423.964 224.103 423.66 222.45 422.678 222.485 421.697 222.37 420.75 222.11 420.07 221.75 419.52 221.67 419.52 217.64Z" fill="#A3A3A3" transform="translate(-27.71 -74.55)"/><path d="M332.57 217.64 332.57 205.92C332.543 204.274 331.216 202.947 329.57 202.92L329.57 202.92C327.913 202.92 326.57 204.263 326.57 205.92L326.57 217.64C326.57 219.76 326.29 222 324.71 222.25 323.718 222.402 322.714 222.469 321.71 222.45 321.369 224.099 321.369 225.801 321.71 227.45L336.71 227.45C337.014 225.797 337.014 224.103 336.71 222.45 335.728 222.485 334.747 222.37 333.8 222.11 333.12 221.75 332.57 221.67 332.57 217.64Z" stroke="#333333" stroke-linecap="round" stroke-miterlimit="10" fill="none" transform="translate(-27.71 -74.55)"/><path d="M419.52 217.64 420.86 201.51C420.833 199.864 419.506 198.537 417.86 198.51L417.86 198.51C416.203 198.51 414.86 199.853 414.86 201.51L413.52 217.64C413.52 219.76 413.24 222 411.66 222.25 410.668 222.403 409.664 222.469 408.66 222.45 408.313 224.099 408.313 225.801 408.66 227.45L423.66 227.45C423.964 225.797 423.964 224.103 423.66 222.45 422.678 222.485 421.697 222.37 420.75 222.11 420.07 221.75 419.52 221.67 419.52 217.64Z" stroke="#333333" stroke-linecap="round" stroke-miterlimit="10" fill="none" transform="translate(-27.71 -74.55)"/><path d="M47 170.35C47 170.35 50.29 188.5 53.36 190.83 56.43 193.16 81.71 196.32 81.71 196.32L100 170.8Z" fill="#F91010" transform="translate(-27.71 -74.55)"/><path d="M47 170.35C47 170.35 50.29 188.5 53.36 190.83 56.43 193.16 81.71 196.32 81.71 196.32L100 170.8Z" stroke="#333333" stroke-linecap="round" stroke-miterlimit="10" fill="none" transform="translate(-27.71 -74.55)"/><path d="M29.15 75.25 65.62 75.25C65.62 75.25 71.39 74.25 76.49 83.25 81.59 92.25 115.24 140.34 115.24 140.34L231.45 132.91C231.45 132.91 256.94 119.91 294.19 113.18L302.06 99.87 329.33 97.55 358.59 105.64 365.02 114.95C365.02 114.95 407.36 120.16 425.76 131.58 425.76 131.58 472.43 148.43 483.18 168.27 484.86 171.36 486.29 181.46 463.45 192.65 440.61 203.84 413.57 213.27 315.36 211.39 312.68 211.34 294.85 211.63 240.98 170.04 238.31 167.98 230.9 160.4 225.46 160.62 220.02 160.84 119.16 160.62 119.16 160.62 119.16 160.62 102.62 177.73 73.27 178.91 51.21 179.8 27.82 155.19 27.82 155.19L27.82 144.64 45.67 118.92Z" fill="#F4F3F2" transform="translate(-27.71 -74.55)"/><path d="M425.17 131.41C406.24 120.41 365.33 115.04 365.33 115.04L358.9 105.73 329.63 97.64 302.36 100 294.49 113.3C257.25 120 231.75 133 231.75 133L115.55 140.43C115.55 140.43 81.89 92.32 76.79 83.34 71.69 74.36 65.93 75.34 65.93 75.34L29.46 75.34 46 119 28.13 144.75 28.13 155.28C28.13 155.28 51.52 179.89 73.58 179 102.93 177.82 119.47 160.71 119.47 160.71 119.47 160.71 220.34 160.93 225.77 160.71L225.85 160.71C225.85 160.71 258.76 159.57 265.37 159.57 271.98 159.57 296.14 148.89 302.87 145.49 309.6 142.09 318.66 135.13 352.55 131.98 382.92 129.15 388.83 129.26 425.17 131.41Z" fill="#F91010" transform="translate(-27.71 -74.55)"/><rect x="302.39" y="10.9" rx="1" width="19.79" height="10.92" fill="#333333"/><path d="M325.5 85.44C325.45 85.5 323.79 84.61 326 83.17 330.662 80.36 336.028 78.9377 341.47 79.07 348.78 79.29 355.47 84.45 356.65 85.44 357.83 86.43 356.53 87.02 355.75 87.06 355.201 87.0847 354.665 86.8822 354.27 86.5 353.99 86.28 352.86 85.33 352.05 86.39 351.579 87.2903 350.508 87.6946 349.56 87.33 345.979 86.8356 342.36 86.6815 338.75 86.87 336.75 87.16 337.31 85.44 335.81 85.06 334.31 84.68 334.1 85.78 334.1 85.78Z" fill="#565655" transform="translate(-27.71 -74.55)"/><path d="M325.5 85.44C325.45 85.5 323.79 84.61 326 83.17 330.662 80.36 336.028 78.9377 341.47 79.07 348.78 79.29 355.47 84.45 356.65 85.44 357.83 86.43 356.53 87.02 355.75 87.06 355.201 87.0847 354.665 86.8822 354.27 86.5 353.99 86.28 352.86 85.33 352.05 86.39 351.579 87.2903 350.508 87.6946 349.56 87.33 345.979 86.8356 342.36 86.6815 338.75 86.87 336.75 87.16 337.31 85.44 335.81 85.06 334.31 84.68 334.1 85.78 334.1 85.78Z" stroke="#333333" stroke-miterlimit="10" fill="none" transform="translate(-27.71 -74.55)"/><path d="M346.45 90.9C344.72 93.04 345.25 95.27 351.01 96.84 377.035 103.124 402.416 111.828 426.82 122.84 430.62 124.58 432.91 126.61 436.35 125 436.35 125 410.75 108.27 359.64 92 351.92 89.53 347.78 89.27 346.45 90.9Z" fill="#B7B7B7" transform="translate(-27.71 -74.55)"/><path d="M346.45 90.9C344.72 93.04 345.25 95.27 351.01 96.84 377.035 103.124 402.416 111.828 426.82 122.84 430.62 124.58 432.91 126.61 436.35 125 436.35 125 410.75 108.27 359.64 92 351.92 89.53 347.78 89.27 346.45 90.9Z" stroke="#333333" stroke-miterlimit="10" fill="none" transform="translate(-27.71 -74.55)"/><path d="M330.49 93.65C330.32 90.65 304.78 90.38 291.7 90.9 278.62 91.42 159.7 101.18 153.14 109.17 153.14 109.17 181.29 104.72 266.42 97.17 272.34 96.65 315.53 94.17 320.96 95.23 326.39 96.29 330.71 97.53 330.49 93.65Z" fill="#B7B7B7" transform="translate(-27.71 -74.55)"/><path d="M330.49 93.65C330.32 90.65 304.78 90.38 291.7 90.9 278.62 91.42 159.7 101.18 153.14 109.17 153.14 109.17 181.29 104.72 266.42 97.17 272.34 96.65 315.53 94.17 320.96 95.23 326.39 96.29 330.71 97.53 330.49 93.65Z" stroke="#333333" stroke-miterlimit="10" fill="none" transform="translate(-27.71 -74.55)"/><path d="M340.58 90.63C340.58 86.94 336.48 85.5 331.1 85.17 325.72 84.84 235.05 75.05 197.25 75.05 194.25 75.05 188.16 76.05 189.72 77.52 229.649 77.3807 269.517 80.6795 308.88 87.38 313 88.09 327.39 95 335 95 340.8 95 340.58 90.63 340.58 90.63Z" fill="#D8D8D6" transform="translate(-27.71 -74.55)"/><path d="M343.9 93.15C344.07 94.92 345.07 97.91 352.99 96.58 360.91 95.25 401.43 87.33 566.65 104.58 571.58 105.1 575.65 103.51 562.33 101.14 549.01 98.77 396.56 87.33 387.91 87.33 379.26 87.33 349.91 85.58 346.23 88.88 343.78 91.1 343.9 93.15 343.9 93.15Z" fill="#D6D6D4" transform="translate(-27.71 -74.55)"/><path d="M365.13 139.37 388.83 139.37C390.83 139.37 395.06 138.19 395.06 143.52L395.06 162.52C395.06 165.35 394.98 167.84 389.49 167.84L364.49 167.84C360.91 167.84 358.83 167.01 358.83 162.84 358.83 158.67 358.09 148.45 358.09 145.96 358.09 143.47 357.15 139.37 365.13 139.37Z" fill="#878787" transform="translate(-27.71 -74.55)"/><path d="M340.44 141.87C336.44 142.37 330.13 143.18 327.89 143.52 325.65 143.86 323.07 144.61 324.98 148.35 326.89 152.09 330.21 158.58 331.05 160.35 332.002 162.674 334.268 164.189 336.78 164.18 340.11 164.26 340.86 164.18 342.52 164.18 344.18 164.18 345.59 164.84 345.59 160.85 345.59 156.86 344.59 146.63 344.51 145.64 344.43 144.65 344.08 141.4 340.44 141.87Z" fill="#878787" transform="translate(-27.71 -74.55)"/><path d="M139.89 151.12 137.13 156.63C137.13 156.63 141.87 156.54 143.13 155.96 144.39 155.38 148.74 153.55 148.66 151.96 148.58 150.37 139.89 151.12 139.89 151.12Z" stroke="#333333" stroke-linecap="round" stroke-miterlimit="10" fill="none" transform="translate(-27.71 -74.55)"/><line x1="6.65" y1="13.55" x2="49.16" y2="8.79" stroke="#333333" stroke-linecap="round" stroke-miterlimit="10" fill="none"/><circle cx="45.57" cy="71.6" r="22.32" fill="#9B9B9A"/><path d="M54.91 146.92C54.9155 134.591 64.9114 124.6 77.24 124.6 78.0049 124.6 78.7693 124.64 79.53 124.72 67.6964 121.267 55.3044 128.061 51.8517 139.895 48.399 151.728 55.193 164.12 67.0265 167.573 68.3248 167.952 69.6547 168.212 71 168.35 61.468 165.579 54.9113 156.846 54.91 146.92Z" fill="#828282" transform="translate(-27.71 -74.55)"/><ellipse cx="45.57" cy="71.6" rx="8.89" ry="8.97" stroke="#333333" stroke-linecap="round" stroke-miterlimit="10" fill="none"/><circle cx="45.57" cy="71.6" r="22.32" stroke="#333333" stroke-linecap="round" stroke-miterlimit="10" fill="none"/><path d="M135.39 160.74 154.09 160.74C154.09 160.74 148.98 171.96 142.89 175.74 138.947 177.999 134.424 179.043 129.89 178.74Z" fill="#F91010" transform="translate(-27.71 -74.55)"/><path d="M135.39 160.74 154.09 160.74C154.09 160.74 148.98 171.96 142.89 175.74 138.947 177.999 134.424 179.043 129.89 178.74Z" stroke="#333333" stroke-linecap="round" stroke-miterlimit="10" fill="none" transform="translate(-27.71 -74.55)"/><path d="M231.84 133C231.84 133 228.96 137.71 219.84 140.7 210.72 143.69 182.84 144.11 182.84 144.11 182.84 144.11 214.1 142.95 221.33 139.54 228.56 136.13 230 133 230 133Z" fill="#333333" transform="translate(-27.71 -74.55)"/><path d="M108.75 71.36 152.61 69.56 109.69 72.32 108.75 71.36Z" fill="#333333"/><path d="M227.93 84.53 202.69 86.01 227.93 85.53 227.93 84.53Z" fill="#333333"/><path d="M294.8 113.72C294.8 113.72 330.13 111.72 342.52 113.27 342.52 113.27 299.52 111.91 295.02 112.21Z" fill="#333333" transform="translate(-27.71 -74.55)"/><line x1="49.36" y1="63.49" x2="58.36" y2="53.31" stroke="#333333" stroke-miterlimit="10" fill="none"/><line x1="52.88" y1="66.5" x2="65.45" y2="61.43" stroke="#333333" stroke-miterlimit="10" fill="none"/><line x1="54.46" y1="71.6" x2="67.89" y2="71.6" stroke="#333333" stroke-miterlimit="10" fill="none"/><line x1="53.86" y1="74.84" x2="62.46" y2="86.19" stroke="#333333" stroke-miterlimit="10" fill="none"/><path d="M79.34 152.7C79.34 152.7 82.34 166.53 82.54 166.46" stroke="#333333" stroke-miterlimit="10" fill="none" transform="translate(-27.71 -74.55)"/><line x1="47.36" y1="80.57" x2="41.26" y2="93.5" stroke="#333333" stroke-miterlimit="10" fill="none"/><line x1="41.69" y1="79.66" x2="29.86" y2="87.45" stroke="#333333" stroke-miterlimit="10" fill="none"/><line x1="37.55" y1="75.47" x2="23.25" y2="74.38" stroke="#333333" stroke-miterlimit="10" fill="none"/><line x1="36.68" y1="70.14" x2="24.77" y2="63.49" stroke="#333333" stroke-miterlimit="10" fill="none"/><line x1="39.3" y1="64.71" x2="33.89" y2="52.57" stroke="#333333" stroke-miterlimit="10" fill="none"/><line x1="43.87" y1="62.63" x2="45.57" y2="49.28" stroke="#333333" stroke-miterlimit="10" fill="none"/><path d="M401.6 130.14C401.6 130.14 360.42 125.79 320.96 137.54 347.463 131.964 374.524 129.481 401.6 130.14Z" fill="#333333" transform="translate(-27.71 -74.55)"/><path d="M410 139C405.2 138.64 400.61 137.5 400.69 142.82 400.77 148.14 400.69 163.94 400.69 163.94 400.69 163.94 400.11 167.94 406.93 168.51 413.75 169.08 439 170.88 439 170.88 439 170.88 443.65 171.05 441 167.39 438.35 163.73 423.3 145.27 423.3 145.27 423.3 145.27 419 139.62 410 139Z" fill="#878787" transform="translate(-27.71 -74.55)"/><path d="M365.13 139.37 388.83 139.37C390.83 139.37 395.06 138.19 395.06 143.52L395.06 162.52C395.06 165.35 394.98 167.84 389.49 167.84L364.49 167.84C360.91 167.84 358.83 167.01 358.83 162.84 358.83 158.67 358.09 148.45 358.09 145.96 358.09 143.47 357.15 139.37 365.13 139.37Z" stroke="#333333" stroke-linecap="round" stroke-miterlimit="10" fill="none" transform="translate(-27.71 -74.55)"/><path d="M340.44 141.87C336.44 142.37 330.13 143.18 327.89 143.52 325.65 143.86 323.07 144.61 324.98 148.35 326.89 152.09 330.21 158.58 331.05 160.35 332.002 162.674 334.268 164.189 336.78 164.18 340.11 164.26 340.86 164.18 342.52 164.18 344.18 164.18 345.59 164.84 345.59 160.85 345.59 156.86 344.59 146.63 344.51 145.64 344.43 144.65 344.08 141.4 340.44 141.87Z" stroke="#333333" stroke-linecap="round" stroke-miterlimit="10" fill="none" transform="translate(-27.71 -74.55)"/><path d="M406 170.05C406 170.05 406.59 171.05 406 171.55L400.7 171.55C402.048 172.987 404.168 173.391 405.95 172.55 405.95 172.55 403.29 175.08 399.72 171.55L399.26 171.49 399.26 170.08Z" fill="#333333" transform="translate(-27.71 -74.55)"/><rect x="330.74" y="94.92" rx="0.71" width="5.94" height="1.41" fill="#333333"/><path d="M411.63 134.22C418.5 135.22 426.82 137.65 436.91 151.51 447 165.37 444.66 169.37 455.97 171.8 464.92 173.73 475.97 176.35 483.89 175.19 484.707 172.963 484.592 170.501 483.57 168.36 472.82 148.52 426.15 131.67 426.15 131.67L403.87 130.67C403.87 130.67 404.76 133.22 411.63 134.22Z" fill="#878787" transform="translate(-27.71 -74.55)"/><path d="M482.5 178.21C479.19 178.33 471.85 178.21 458.08 176.03 450.23 174.82 454.32 181.7 464.62 192.35 474.9 187.19 480.08 182.29 482.5 178.21Z" fill="#494948" transform="translate(-27.71 -74.55)"/><path d="M482.5 178.21C479.19 178.33 471.85 178.21 458.08 176.03 450.23 174.82 454.32 181.7 464.62 192.35 474.9 187.19 480.08 182.29 482.5 178.21Z" stroke="#333333" stroke-linecap="round" stroke-miterlimit="10" fill="none" transform="translate(-27.71 -74.55)"/><path d="M426.15 131.67 403.87 130.67C403.87 130.67 404.76 133.22 411.63 134.22 415.636 134.703 419.503 135.988 423 138 425.31 137.08 428 135.79 428.58 134.56 443.242 140.116 457.108 147.58 469.82 156.76 471.62 158.08 466.08 156.9 444.63 148.76 444.63 148.76 437.81 157.49 451.7 163.64 450.828 165.546 450.228 167.566 449.92 169.64 451.822 170.652 453.87 171.361 455.99 171.74 464.94 173.67 475.99 176.29 483.91 175.13 484.727 172.903 484.612 170.441 483.59 168.3 472.82 148.52 426.15 131.67 426.15 131.67Z" fill="#494948" transform="translate(-27.71 -74.55)"/><path d="M371.61 115.92C371.61 115.92 369.01 122.25 374.17 129.67" stroke="#333333" stroke-linecap="round" stroke-miterlimit="10" fill="none" transform="translate(-27.71 -74.55)"/><path d="M315.75 139C315.75 139 302.75 144.31 298.96 147.47Z" fill="#333333" transform="translate(-27.71 -74.55)"/><path d="M314.81 26.63 309.76 25.24 309.76 20.71 314.81 20.71 314.81 26.63Z" fill="#333333"/><path d="M340.58 90.63C340.58 86.94 336.48 85.5 331.1 85.17 325.72 84.84 235.05 75.05 197.25 75.05 194.25 75.05 188.16 76.05 189.72 77.52 229.649 77.3807 269.517 80.6795 308.88 87.38 313 88.09 327.39 95 335 95 340.8 95 340.58 90.63 340.58 90.63Z" stroke="#333333" stroke-miterlimit="10" fill="none" transform="translate(-27.71 -74.55)"/><path d="M343.9 93.15C344.07 94.92 345.07 97.91 352.99 96.58 360.91 95.25 401.43 87.33 566.65 104.58 571.58 105.1 575.65 103.51 562.33 101.14 549.01 98.77 396.56 87.33 387.91 87.33 379.26 87.33 349.91 85.58 346.23 88.88 343.78 91.1 343.9 93.15 343.9 93.15Z" stroke="#333333" stroke-miterlimit="10" fill="none" transform="translate(-27.71 -74.55)"/><circle cx="249.63" cy="80.2" r="22.91" fill="#FFFFFF"/><circle cx="249.63" cy="80.2" r="22.91" stroke="#000000" stroke-width="1.46" stroke-miterlimit="10" fill="none"/><rect x="273.08" y="139.03" width="8.53" height="32.72" fill="#F91010" transform="matrix(6.12323e-17 -1 1 6.12323e-17 94.24 358.18)"/><rect x="245.37" y="64.48" width="8.53" height="32.72" fill="#F91010"/><path d="M416.65 140.54C414.534 139.661 412.287 139.141 410 139 405.2 138.64 400.61 137.5 400.69 142.82 400.77 148.14 400.69 163.94 400.69 163.94 400.69 163.94 400.28 166.85 404.43 168.06L404.43 143.94C404.43 140.54 405.76 140.54 407.59 140.54Z" fill="#494948" transform="translate(-27.71 -74.55)"/><path d="M409.28 148.85C408.41 149.024 407.614 149.46 407 150.1L407 168.47C408.87 168.63 412.14 168.88 415.89 169.17 413.63 161.29 410 148.85 409.28 148.85Z" fill="#494948" transform="translate(-27.71 -74.55)"/><path d="M392.68 134.88C380.6 135.32 366.63 135.88 364.52 135.99 362.41 136.1 354.32 136.21 354.21 144.19 354.1 152.17 355.32 176.45 356.1 180.88 356.88 185.31 355.54 193.52 373.44 192.88 391.34 192.24 436.24 188.77 440.23 188.22 444.22 187.67 452.4 184.44 448.69 175.49 444.78 166.08 432.8 146.38 423.94 140.89 418.4 137.43 412.75 134.15 392.68 134.88Z" stroke="#333333" stroke-linecap="round" stroke-miterlimit="10" fill="none" transform="translate(-27.71 -74.55)"/><path d="M410 139C405.2 138.64 400.61 137.5 400.69 142.82 400.77 148.14 400.69 163.94 400.69 163.94 400.69 163.94 400.11 167.94 406.93 168.51 413.75 169.08 439 170.88 439 170.88 439 170.88 443.65 171.05 441 167.39 438.35 163.73 423.3 145.27 423.3 145.27 423.3 145.27 419 139.62 410 139Z" stroke="#333333" stroke-linecap="round" stroke-miterlimit="10" fill="none" transform="translate(-27.71 -74.55)"/><rect x="319.63" y="97.25" rx="1" width="18.66" height="3.22" fill="#333333"/><line x1="321.12" y1="98.86" x2="279.1" y2="98.86" stroke="#333333" stroke-miterlimit="10" fill="none"/><line x1="373.25" y1="71.32" x2="396.86" y2="72.26" stroke="#333333" stroke-linecap="round" stroke-miterlimit="10" fill="none"/><line x1="373.25" y1="83.21" x2="406.73" y2="84.46" stroke="#333333" stroke-linecap="round" stroke-miterlimit="10" fill="none"/><line x1="385.81" y1="71.82" x2="385.81" y2="83.47" stroke="#333333" stroke-linecap="round" stroke-miterlimit="10" fill="none"/><path d="M411.63 134.22C418.5 135.22 426.82 137.65 436.91 151.51 447 165.37 444.66 169.37 455.97 171.8 464.92 173.73 475.97 176.35 483.89 175.19 484.707 172.963 484.592 170.501 483.57 168.36 472.82 148.52 426.15 131.67 426.15 131.67L403.87 130.67C403.87 130.67 404.76 133.22 411.63 134.22Z" stroke="#333333" stroke-linecap="round" stroke-miterlimit="10" fill="none" transform="translate(-27.71 -74.55)"/><path d="M336.98 92.26 350.06 65.77 355.65 65.77 342.63 92.26 336.98 92.26Z" fill="#999998"/><path d="M336.64 143.23 331.71 159.38C332.132 160.706 333.006 161.842 334.18 162.59 334.18 162.59 340.12 142.53 340.12 142.7 338.973 142.955 337.811 143.132 336.64 143.23Z" fill="#999998" transform="translate(-27.71 -74.55)"/><path d="M343.6 92.26 356.43 66.04 345.04 92.26 343.6 92.26Z" fill="#999998"/><path d="M261.55 125.24C259.3 123.74 244.17 128.56 241.09 134.05 238.01 139.54 246.33 139.87 251.32 137.88 256.31 135.89 258.73 134.18 260.96 130.98 264 126.61 261.55 125.24 261.55 125.24Z" fill="#B5B3B1" transform="translate(-27.71 -74.55)"/><path d="M308.4 68.68 303.87 83.47 306.58 68.97 308.4 68.68Z" fill="#999998"/><path d="M255.94 125.64C255.94 125.64 261.05 123.19 261.55 125.24 262.05 127.29 260.07 131.96 255.98 134.63 252.22 137.09 246.04 138 243.42 135.94 243.42 135.94 251.79 136.94 255.06 132.39 258.33 127.84 255.94 125.64 255.94 125.64Z" fill="#7C7C7A" transform="translate(-27.71 -74.55)"/><path d="M261.55 125.24C259.3 123.74 244.17 128.56 241.09 134.05 238.01 139.54 246.15 139.34 251.32 137.88 255.228 136.739 258.638 134.316 261 131 263.82 126.62 261.55 125.24 261.55 125.24Z" stroke="#333333" stroke-linecap="round" stroke-miterlimit="10" fill="none" transform="translate(-27.71 -74.55)"/><path d="M262.92 122.8C262.92 122.8 290.48 106.61 368.92 117.39 368.9 117.39 305.12 111.07 262.92 122.8Z" fill="#F75B3C" transform="translate(-27.71 -74.55)"/><path d="M31.7 76.77 35.25 86.83 45.06 85.72C45.06 85.72 34.39 85 31.7 76.77Z" fill="#F75B3C" transform="translate(-27.71 -74.55)"/><path d="M61.61 76.77C61.61 76.77 69.67 74.36 75.07 82.67 75.07 82.67 70.84 77.1 61.61 76.77Z" fill="#F75B3C" transform="translate(-27.71 -74.55)"/><path d="M29.54 75.36 66 75.36C66 75.36 71.77 74.36 76.86 83.36 81.95 92.36 115.62 140.45 115.62 140.45L231.84 133C231.84 133 257.33 120 294.58 113.27L302.45 99.97 329.72 97.64 359 105.73 365.43 115.04C365.43 115.04 407.77 120.25 426.17 131.67 426.17 131.67 472.84 148.52 483.59 168.36 485.27 171.46 486.7 181.55 463.86 192.74 441.02 203.93 414 213.36 315.75 211.48 313.07 211.48 295.24 211.72 241.37 170.13 238.7 168.07 231.28 160.49 225.85 160.71 220.42 160.93 119.55 160.71 119.55 160.71 119.55 160.71 103 177.82 73.66 179 51.6 179.89 28.21 155.28 28.21 155.28L28.21 144.75 46.06 119Z" stroke="#333333" stroke-linecap="round" stroke-miterlimit="10" fill="none" transform="translate(-27.71 -74.55)"/><path d="M128.53 139.26 110.02 139.59 116.5 153 107.14 178.71C107.14 178.71 117.94 178.16 120.55 176.33 123.16 174.5 138.79 156.74 139.89 151.11 140.5 148 128.53 139.26 128.53 139.26Z" fill="#F91010" transform="translate(-27.71 -74.55)"/><path d="M128.53 139.26 110.02 139.59 116.5 153 107.14 178.71C107.14 178.71 117.94 178.16 120.55 176.33 123.16 174.5 138.79 156.74 139.89 151.11 140.5 148 128.53 139.26 128.53 139.26Z" stroke="#333333" stroke-linecap="round" stroke-miterlimit="10" fill="none" transform="translate(-27.71 -74.55)"/><path d="M69.4 122.25C69.4 122.25 52.33 124.48 49.27 143.52 46.79 159 63 169.28 69 169.76 69 169.76 45.27 166.43 46.84 144.11 48.14 125.32 69.4 122.25 69.4 122.25Z" fill="#F75B3C" transform="translate(-27.71 -74.55)"/><path d="M72.43 138.76C69.0022 139.654 66.515 142.619 66.23 146.15 65.68 152.29 72.88 153.81 72.88 153.81 72.88 153.81 67.07 150.74 67.56 146.15 68.05 141.56 72.43 138.76 72.43 138.76Z" fill="#D1D1CF" transform="translate(-27.71 -74.55)"/><path d="M62.77 127.59 67.4 138.26C67.4 138.26 66.32 128.42 62.77 127.59Z" fill="#D1D1CF" transform="translate(-27.71 -74.55)"/><path d="M72.43 136.3 74 124.63C74 124.63 76.14 125.88 72.43 136.3Z" fill="#D1D1CF" transform="translate(-27.71 -74.55)"/><path d="M78.37 137.82 86.21 129C86.21 129 87.35 132.28 78.37 137.82Z" fill="#D1D1CF" transform="translate(-27.71 -74.55)"/><path d="M92.78 137 81.78 141.4C81.78 141.4 92.92 140.37 92.78 137Z" fill="#D1D1CF" transform="translate(-27.71 -74.55)"/><path d="M82.83 146.88 94.64 146.99C94.64 146.99 94.11 150.26 82.83 146.88Z" fill="#D1D1CF" transform="translate(-27.71 -74.55)"/><path d="M81.75 150.87 89.23 160.74C89.23 160.74 86.35 162.18 81.75 150.87Z" fill="#D1D1CF" transform="translate(-27.71 -74.55)"/><path d="M78.84 154.21C78.84 154.21 81.68 166 81.58 165.92 81.48 165.84 78.43 167 78.84 154.21Z" fill="#D1D1CF" transform="translate(-27.71 -74.55)"/><path d="M73.66 156.05 68.45 167.05C68.45 167.05 64.79 165.81 73.66 156.05Z" fill="#D1D1CF" transform="translate(-27.71 -74.55)"/><path d="M67.92 154.21C67.92 154.21 57.73 161.01 57.75 160.93 57.77 160.85 55.81 158.41 67.92 154.21Z" fill="#D1D1CF" transform="translate(-27.71 -74.55)"/><path d="M64 148.93 51.92 148.13C51.92 148.13 51.07 144.19 64 148.93Z" fill="#D1D1CF" transform="translate(-27.71 -74.55)"/><path d="M64 143.52 53.5 137.63C53.5 137.63 54.48 133.43 64 143.52Z" fill="#D1D1CF" transform="translate(-27.71 -74.55)"/><path d="M48.24 172.27C48.24 172.27 50.15 184.68 53.69 189.92 54.23 190.72 69.17 193.92 70.77 193.99 70.77 194 51.71 190.08 48.24 172.27Z" fill="#F75B3C" transform="translate(-27.71 -74.55)"/><path d="M112 141 117.71 152.66 108.62 177.46C108.62 177.46 119.09 177.68 122.69 172.92 122.69 172.92 111.69 176.69 111.28 174.92 110.87 173.15 119.76 152.61 119.76 152.61Z" fill="#F75B3C" transform="translate(-27.71 -74.55)"/><path d="M225.08 140.31C218.849 142.291 212.415 143.566 205.9 144.11 194.82 145.11 142.38 146.87 142.38 146.87 142.38 146.87 201.91 145.87 206.38 145.49 210.85 145.11 219.42 143.53 225.08 140.31Z" fill="#F75B3C" transform="translate(-27.71 -74.55)"/><path d="M421.72 225.78 292.8 225.78C291.695 225.78 290.8 226.675 290.8 227.78L290.8 227.78C290.8 228.885 291.695 229.78 292.8 229.78L421.72 229.78C421.72 229.78 434.36 230.26 440.06 226.62 441.3 225.83 441.97 224.42 441.32 223.42 440.93 222.81 439.92 222.7 438.62 223.12 435.12 224.22 433 225.78 421.72 225.78Z" fill="#CECECC" transform="translate(-27.71 -74.55)"/><path d="M421.72 225.78 292.8 225.78C291.695 225.78 290.8 226.675 290.8 227.78L290.8 227.78C290.8 228.885 291.695 229.78 292.8 229.78L421.72 229.78C421.72 229.78 434.36 230.26 440.06 226.62 441.3 225.83 441.97 224.42 441.32 223.42 440.93 222.81 439.92 222.7 438.62 223.12 435.12 224.22 433 225.78 421.72 225.78Z" stroke="#333333" stroke-linecap="round" stroke-miterlimit="10" fill="none" transform="translate(-27.71 -74.55)"/><path d="M324.84 220.55 324.84 208.83C324.84 207.173 323.497 205.83 321.84 205.83L321.84 205.83C320.183 205.83 318.84 207.173 318.84 208.83L318.84 220.55C318.84 222.67 318.55 224.92 316.97 225.17 315.978 225.323 314.974 225.389 313.97 225.37 313.636 227.003 313.636 228.687 313.97 230.32L328.97 230.32C329.268 228.683 329.268 227.007 328.97 225.37 327.967 225.401 326.965 225.276 326 225 325.39 224.67 324.84 224.59 324.84 220.55Z" fill="#CECECC" transform="translate(-27.71 -74.55)"/><path d="M416.63 220.55 418 204.43C418 202.773 416.657 201.43 415 201.43L415 201.43C413.343 201.43 412 202.773 412 204.43L410.66 220.55C410.66 222.67 410.37 224.92 408.79 225.17 407.798 225.323 406.794 225.389 405.79 225.37 405.456 227.003 405.456 228.687 405.79 230.32L420.79 230.32C421.082 228.683 421.082 227.007 420.79 225.37 419.808 225.405 418.827 225.29 417.88 225.03 417.17 224.67 416.63 224.59 416.63 220.55Z" fill="#CECECC" transform="translate(-27.71 -74.55)"/><path d="M324.84 220.55 324.84 208.83C324.84 207.173 323.497 205.83 321.84 205.83L321.84 205.83C320.183 205.83 318.84 207.173 318.84 208.83L318.84 220.55C318.84 222.67 318.55 224.92 316.97 225.17 315.978 225.323 314.974 225.389 313.97 225.37 313.636 227.003 313.636 228.687 313.97 230.32L328.97 230.32C329.268 228.683 329.268 227.007 328.97 225.37 327.967 225.401 326.965 225.276 326 225 325.39 224.67 324.84 224.59 324.84 220.55Z" stroke="#333333" stroke-linecap="round" stroke-miterlimit="10" fill="none" transform="translate(-27.71 -74.55)"/><path d="M416.63 220.55 418 204.43C418 202.773 416.657 201.43 415 201.43L415 201.43C413.343 201.43 412 202.773 412 204.43L410.66 220.55C410.66 222.67 410.37 224.92 408.79 225.17 407.798 225.323 406.794 225.389 405.79 225.37 405.456 227.003 405.456 228.687 405.79 230.32L420.79 230.32C421.082 228.683 421.082 227.007 420.79 225.37 419.808 225.405 418.827 225.29 417.88 225.03 417.17 224.67 416.63 224.59 416.63 220.55Z" stroke="#333333" stroke-linecap="round" stroke-miterlimit="10" fill="none" transform="translate(-27.71 -74.55)"/><path d="M373.06 117.7C373.06 117.7 406.53 122.25 420.39 130.12 420.39 130.12 374.61 115.59 373.06 122.8 373.06 122.8 371.84 120.92 373.06 117.7Z" fill="#F75B3C" transform="translate(-27.71 -74.55)"/><path d="M112.15 137.82 76.15 85 70.33 85.71C70.33 85.71 75.8 83.46 112.15 137.82Z" fill="#F75B3C" transform="translate(-27.71 -74.55)"/><path d="M357.07 179C357.86 181.35 353.94 193.94 376.19 192 376.19 192 358.45 194.52 357.07 179Z" fill="#FFFFFF" transform="translate(-27.71 -74.55)"/><path d="M357.07 179C357.86 181.35 353.94 193.94 376.19 192 376.19 192 357.59 193.85 357.07 179Z" fill="#FFFFFF" transform="translate(-27.71 -74.55)"/><path d="M323.65 137.88C323.65 137.88 362.22 129.36 401.92 130.98 401.92 131 359.81 131.56 323.65 137.88Z" fill="#FFFFFF" transform="translate(-27.71 -74.55)"/><path d="M330.05 226.66C330.05 226.66 404.79 226.75 404.54 226.66 404.29 226.57 363.8 228.49 330.05 226.66Z" fill="#FFFFFF" transform="translate(-27.71 -74.55)"/><path d="M312.67 226.66 292.72 226.66C292.72 226.66 308.43 228.15 312.67 226.66Z" fill="#FFFFFF" transform="translate(-27.71 -74.55)"/><path d="M319.91 213.24C320.183 212.1 320.39 210.944 320.53 209.78 320.835 209.021 321.079 208.238 321.26 207.44 321.06 207.05 320.44 207.35 320.26 207.59 319.82 208.14 319.93 209.77 319.91 210.43 320.01 211.364 320.01 212.306 319.91 213.24Z" fill="#FFFFFF" transform="translate(-27.71 -74.55)"/><path d="M412.59 208.44C412.65 207.65 414.78 203.72 414.33 203.39 412.72 202.23 412.63 207.89 412.59 208.44Z" fill="#FFFFFF" transform="translate(-27.71 -74.55)"/><path d="M322.68 99.3 303.17 101.18 296.68 111.66 308.32 112.17C308.32 112.17 298.32 104.67 304.39 102.57 310.46 100.47 322.68 99.3 322.68 99.3Z" fill="#F75B3C" transform="translate(-27.71 -74.55)"/><path d="M346.07 92C345.744 92.5398 345.613 93.1753 345.7 93.8 345.953 94.5737 346.546 95.189 347.31 95.47 349.472 96.2792 351.878 96.1152 353.91 95.02 352.066 95.0774 350.227 94.8031 348.48 94.21 348.281 94.1605 348.094 94.0722 347.93 93.95 347.656 93.6887 347.497 93.3287 347.49 92.95 347.422 92.3036 347.529 91.6507 347.8 91.06 348.409 89.9527 349.369 89.08 350.53 88.58 348.75 88.51 346.81 90.55 346.07 92Z" fill="#FFFFFF" transform="translate(-27.71 -74.55)"/><path d="M338.15 88.69C338.853 89.5965 338.952 90.8339 338.4 91.84 338.152 92.2292 337.833 92.5684 337.46 92.84 336.903 93.3293 336.233 93.6728 335.51 93.84 334.914 93.8999 334.312 93.8593 333.73 93.72L330.84 93.21C331.75 93.21 332.67 93.21 333.58 93.14 334.72 93.1835 335.831 92.7818 336.68 92.02 337.29 91.2477 337.456 90.2148 337.12 89.29 336.98 88.89 335.7 87.29 335.91 87.17 336.38 86.75 337.91 88.35 338.15 88.69Z" fill="#FFFFFF" transform="translate(-27.71 -74.55)"/></svg>