<svg viewBox="0 0 774.19 418.04" xmlns="http://www.w3.org/2000/svg" xmlns:xlink="http://www.w3.org/1999/xlink" id="Calque_2" overflow="hidden"><defs></defs><path d="M593.87 284.78C583.01 279.46 551.53 264.16 551.53 264.16 550.619 265.279 549.579 266.286 548.43 267.16 545.97 269.16 538.37 268.24 536.37 267.16 534.37 266.08 520.48 259.16 520.48 259.16 520.48 259.16 520.59 252.37 520.84 247.39 521.09 242.41 527.14 246.24 529.39 247.07 531.64 247.9 554.91 260.21 554.91 260.21L551.53 264.11 558.4 256.8C558.4 256.8 563.72 253.47 552.4 248.37 541.08 243.27 519.59 233.08 519.59 233.08 516.203 230.874 511.904 230.62 508.28 232.41 504.438 234.488 500.87 237.037 497.66 240L438.66 212.73 438.97 212.44 438.66 212.73 438.24 215.28 436.02 215.28 434.22 217.03 413.03 208.03C413.319 205.111 413.769 202.209 414.38 199.34 415.21 195.93 420.78 199.34 420.78 199.34L442.29 209.29 444.9 207C444.9 207 450.9 200.79 441.57 197 432.24 193.21 411.42 183.7 411.42 183.7 411.42 183.7 405.21 179.04 399.67 182.37 396.076 184.552 392.598 186.918 389.25 189.46L333.83 165.3 333.22 168.48 326.22 171.17 311.22 164.06 311.22 156.93C311.22 156.93 311.39 151.39 319.75 155.1 328.11 158.81 336.89 163.1 336.89 163.1L333.89 165.28 341.89 159.96C341.89 159.96 348.54 155.3 339.23 152.64 329.92 149.98 309.52 141.56 309.52 141.56 309.52 141.56 303.76 138.9 298.88 141.56 294 144.22 290.23 145.99 290.23 145.99 290.23 145.99 251.88 132.91 248.55 131.8 245.22 130.69 230.82 127.37 212.86 134.91 194.9 142.45 167.11 160 167.11 160 150.93 170.86 129.84 185.49 124.33 203.45 121.41 212.94 127.84 217.5 133.19 220.74 141.34 225.67 156.92 232.27 156.92 232.27 156.92 232.27 165.79 235.39 160.92 239.6 159.03 241.24 156.74 243 155 244.8L202.21 269.09C206.11 264.46 207.91 263.09 215.21 266.41 222.97 269.96 246.21 281.49 250.02 283.04 253.83 284.59 261.43 288.69 256.89 294.12L255.05 296.29 302.34 320.62C305.47 316.88 308.13 313.31 311.2 314.62 315.08 316.28 357.76 337.34 360.75 338.56 363.74 339.78 365.75 342 362.19 347.32 361.45 348.43 360.72 349.41 360.05 350.32L411.16 376.62C412.16 375.29 412.56 374.57 413.63 373.28 415.18 371.39 415.84 369.84 420.17 371.73 424.5 373.62 479.7 399.84 484 402.06 488.3 404.28 545.52 403.61 588.53 359.06 631.54 314.51 604.74 290.1 593.87 284.78Z" fill="#8C8C8C" transform="translate(-83.9 -115.01)"/><path d="M593.87 284.78C583.01 279.46 551.53 264.16 551.53 264.16 550.619 265.279 549.579 266.286 548.43 267.16 545.97 269.16 538.37 268.24 536.37 267.16 534.37 266.08 520.48 259.16 520.48 259.16 520.48 259.16 520.59 252.37 520.84 247.39 521.09 242.41 527.14 246.24 529.39 247.07 531.64 247.9 554.91 260.21 554.91 260.21L551.53 264.11 558.4 256.8C558.4 256.8 563.72 253.47 552.4 248.37 541.08 243.27 519.59 233.08 519.59 233.08 516.203 230.874 511.904 230.62 508.28 232.41 504.438 234.488 500.87 237.037 497.66 240L438.66 212.73 438.97 212.44 438.66 212.73 438.24 215.28 436.24 215.09 434.24 217.09 413.05 208.09C413.339 205.171 413.789 202.269 414.4 199.4 415.23 195.99 420.8 199.4 420.8 199.4L442.31 209.35 444.9 207C444.9 207 450.9 200.79 441.57 197 432.24 193.21 411.42 183.7 411.42 183.7 411.42 183.7 405.21 179.04 399.67 182.37 396.076 184.552 392.598 186.918 389.25 189.46L333.83 165.3 333.22 168.48 326.22 171.17 311.22 164.06 311.22 156.93C311.22 156.93 311.39 151.39 319.75 155.1 328.11 158.81 336.89 163.1 336.89 163.1L333.89 165.28 341.89 159.96C341.89 159.96 348.54 155.3 339.23 152.64 329.92 149.98 309.52 141.56 309.52 141.56 309.52 141.56 303.76 138.9 298.88 141.56 294 144.22 290.23 145.99 290.23 145.99 290.23 145.99 251.88 132.91 248.55 131.8 245.22 130.69 230.82 127.37 212.86 134.91 194.9 142.45 167.11 160 167.11 160 150.93 170.86 129.84 185.49 124.33 203.45 121.41 212.94 127.84 217.5 133.19 220.74 141.34 225.67 156.92 232.27 156.92 232.27 156.92 232.27 165.79 235.39 160.92 239.6 159.03 241.24 156.74 243 155 244.8L202.21 269.09C206.11 264.46 207.91 263.09 215.21 266.41 222.97 269.96 246.21 281.49 250.02 283.04 253.83 284.59 261.43 288.69 256.89 294.12L255.05 296.29 302.34 320.62C305.47 316.88 308.13 313.31 311.2 314.62 315.08 316.28 357.76 337.34 360.75 338.56 363.74 339.78 365.75 342 362.19 347.32 361.45 348.43 360.72 349.41 360.05 350.32L411.16 376.62C412.16 375.29 412.56 374.57 413.63 373.28 415.18 371.39 415.84 369.84 420.17 371.73 424.5 373.62 479.7 399.84 484 402.06 488.3 404.28 545.52 403.61 588.53 359.06 631.54 314.51 604.74 290.1 593.87 284.78Z" stroke="#333333" stroke-linecap="round" stroke-linejoin="round" fill="none" transform="translate(-83.9 -115.01)"/><path d="M304 161C304.18 153.84 304.38 144.94 304.48 140.3 302.548 140.162 300.617 140.564 298.9 141.46 294.02 144.12 290.25 145.9 290.25 145.9L290.09 155.37Z" fill="#656566" transform="translate(-83.9 -115.01)"/><path d="M290.22 145.86 289.91 145.75Z" fill="#656566" transform="translate(-83.9 -115.01)"/><path d="M389.25 189.45 389.47 197.99 401.58 204.28 404 181.11C404 181.11 402.14 180.68 398.3 183.19 394.46 185.7 389.25 189.45 389.25 189.45Z" fill="#656566" transform="translate(-83.9 -115.01)"/><path d="M497.55 240 497.88 248.92 512.26 255.73 513.51 231.21C511.687 231.16 509.886 231.61 508.3 232.51 504.514 234.702 500.918 237.207 497.55 240Z" fill="#656566" transform="translate(-83.9 -115.01)"/><path d="M820.22 372.79C815.81 370.56 477.94 197.62 325.62 139.79 253.8 112.53 233 112.53 209.9 119.18 186.8 125.83 146.72 147.44 146.72 147.44 106.15 172.38 85.53 199.65 84.53 216 83.53 232.35 87.75 246.48 104.53 255.84 113.38 260.78 535.9 484.09 704.1 527.59 723.38 532.59 730.37 536.59 753.31 525.59 776.25 514.59 838.78 468 855 429.44 868.33 397.85 825.53 375.48 820.22 372.79ZM112.37 200.32C109.74 206.14 107.21 211.2 104.11 212.6 103.57 209.47 104.19 205.18 107.64 199.49 113.99 189.02 119.64 186.49 122.46 185.99 119 189.81 115 194.51 112.37 200.32ZM588.55 359.05C545.55 403.61 488.35 404.27 484.02 402.05 479.69 399.83 424.5 373.56 420.18 371.68 415.86 369.8 415.18 371.34 413.64 373.23 412.1 375.12 411.86 375.78 409.42 378.88 406.98 381.98 404.88 380.88 403.11 379.99 401.34 379.1 363.53 359.37 359.32 357.27 355.11 355.17 358.66 352.61 362.2 347.27 365.74 341.93 363.76 339.73 360.76 338.51 357.76 337.29 315.09 316.23 311.21 314.57 307.33 312.91 304.12 319 299.8 323.44 295.48 327.88 289.38 325.77 286.61 324.55 283.84 323.33 257.79 310.91 252.69 307.48 247.59 304.05 251.61 300.39 256.9 294.06 261.44 288.63 253.8 284.53 250.03 282.98 246.26 281.43 223 269.93 215.22 266.38 207.44 262.83 205.91 264.61 201.48 269.93 197.05 275.25 191.35 271 191.35 271 191.35 271 160.91 257.25 154.7 253 148.49 248.75 156.04 243.7 160.91 239.49 165.78 235.28 156.91 232.16 156.91 232.16 156.91 232.16 141.33 225.56 133.18 220.63 127.84 217.39 121.4 212.83 124.32 203.34 129.83 185.34 150.92 170.75 167.1 159.89 167.1 159.89 194.82 142.37 212.77 134.84 230.72 127.31 245.14 130.62 248.47 131.73 251.8 132.84 290.15 146 290.15 146 290.15 146 293.92 144.23 298.8 141.57 303.68 138.91 309.44 141.57 309.44 141.57 309.44 141.57 329.84 149.99 339.15 152.65 348.46 155.31 341.81 159.97 341.81 159.97L333.81 165.29 389.23 189.45C392.578 186.908 396.056 184.542 399.65 182.36 405.19 179.03 411.4 183.69 411.4 183.69 411.4 183.69 432.24 193.22 441.55 196.99 450.86 200.76 444.88 206.99 444.88 206.99L442.3 209.37 438.67 212.75 438.98 212.46 438.67 212.75 497.67 240.02C500.889 237.074 504.463 234.541 508.31 232.48 511.934 230.69 516.233 230.944 519.62 233.15 519.62 233.15 541.12 243.35 552.43 248.44 563.74 253.53 558.43 256.87 558.43 256.87L551.56 264.18C551.56 264.18 583.04 279.48 593.9 284.8 604.76 290.12 631.56 314.49 588.55 359.05ZM665.7 323.05 699.7 338.15 693.84 346.22 660.53 329.71ZM690.42 442.6C688.31 441.7 680.09 438.6 672.55 435.66L683.94 423.15C683.94 423.15 689.59 416.66 696.94 414.5 701.46 413.17 712.77 417.5 720.75 420.98 715.87 427.14 708.75 436.14 705.14 440.11 699.68 446.06 693.91 444.07 690.42 442.57ZM743.79 505.45C735.572 506.967 727.168 507.196 718.88 506.13 719.727 503.978 721.873 502.625 724.18 502.79 729.66 502.95 751.61 500.13 758.93 496.63 762.61 494.88 765.23 494.89 766.93 495.33 760.23 499.75 752.14 503.82 743.79 505.42ZM775.22 389.67 747.69 376.24 754.6 368.17 781.23 379.8ZM826.43 444.16C821.89 449.99 814.79 448.87 813.02 447.76 811.25 446.65 803.38 442.55 803.38 442.55 803.38 442.55 814.79 424.37 815.38 414.72 815.97 405.07 803.38 400.2 803.38 400.2L811.69 388.2C813.46 385.65 816.79 386.32 819.89 387.54 822.99 388.76 839.18 397.62 840.51 410.04 841.84 422.46 831 438.31 826.43 444.13Z" fill="#AAAAB2" transform="translate(-83.9 -115.01)"/><path d="M238.67 120.84C226.83 118.93 209.01 120.92 194.77 130.15 185.77 135.97 196.77 133.97 201.77 132.15 206.77 130.33 219.77 125.83 231.37 125.99 242.97 126.15 249 122.5 238.67 120.84Z" fill="#8C8C8C" transform="translate(-83.9 -115.01)"/><path d="M238.67 120.84C226.83 118.93 209.01 120.92 194.77 130.15 185.77 135.97 196.77 133.97 201.77 132.15 206.77 130.33 219.77 125.83 231.37 125.99 242.97 126.15 249 122.5 238.67 120.84Z" stroke="#333333" stroke-linecap="round" stroke-miterlimit="10" fill="none" transform="translate(-83.9 -115.01)"/><path d="M127.76 173.21C124.46 171.46 112.96 176.37 103.82 189.21 94.68 202.05 95.82 210.66 100.66 212.65 105.5 214.64 108.83 208.18 112.37 200.35 119.28 185 135.58 177.37 127.76 173.21Z" stroke="#000000" stroke-miterlimit="10" fill="none" transform="translate(-83.9 -115.01)"/><path d="M107.64 199.49C104.19 205.18 103.57 209.49 104.11 212.6 107.21 211.2 109.74 206.14 112.37 200.32 115 194.5 119 189.81 122.46 186 119.67 186.54 114 189 107.64 199.49Z" stroke="#333333" stroke-linecap="round" stroke-miterlimit="10" fill="none" transform="translate(-83.9 -115.01)"/><path d="M107.64 199.49C113.99 189.02 119.64 186.49 122.46 185.99 128.18 179.72 132.61 175.8 127.76 173.22 124.46 171.46 112.96 176.38 103.82 189.22 94.68 202.06 95.82 210.67 100.66 212.66 101.756 213.157 103.014 213.157 104.11 212.66 103.57 209.47 104.19 205.18 107.64 199.49Z" fill="#8C8C8C" transform="translate(-83.9 -115.01)"/><path d="M167.11 160C150.93 170.86 129.84 185.49 124.33 203.45 121.41 212.94 127.84 217.5 133.19 220.74 141.34 225.67 156.92 232.27 156.92 232.27 156.92 232.27 165.79 235.39 160.92 239.6 156.05 243.81 148.5 248.9 154.71 253.11 160.92 257.32 191.36 271.11 191.36 271.11 191.36 271.11 197.05 275.32 201.49 270 205.93 264.68 207.49 262.9 215.23 266.45 222.97 270 246.23 281.53 250.04 283.08 253.85 284.63 261.45 288.73 256.91 294.16 251.62 300.49 247.6 304.16 252.7 307.58 257.8 311 283.85 323.43 286.62 324.65 289.39 325.87 295.48 327.97 299.81 323.54 304.14 319.11 307.34 313.01 311.22 314.67 315.1 316.33 357.78 337.39 360.77 338.61 363.76 339.83 365.77 342.05 362.21 347.37 358.65 352.69 355.12 355.24 359.33 357.37 363.54 359.5 401.33 379.2 403.12 380.09 404.91 380.98 407 382.09 409.43 378.98 411.86 375.87 412.1 375.21 413.65 373.33 415.2 371.45 415.86 369.89 420.19 371.78 424.52 373.67 479.7 399.84 484 402.06 488.3 404.28 545.53 403.61 588.53 359.06 631.53 314.51 604.72 290.11 593.85 284.79 582.98 279.47 551.51 264.17 551.51 264.17L558.38 256.86C558.38 256.86 563.7 253.53 552.38 248.43 541.06 243.33 519.57 233.14 519.57 233.14 516.183 230.934 511.884 230.68 508.26 232.47 504.428 234.53 500.867 237.06 497.66 240L438.66 212.73 444.9 207C444.9 207 450.9 200.79 441.57 197 432.24 193.21 411.42 183.7 411.42 183.7 411.42 183.7 405.21 179.04 399.67 182.37 396.076 184.552 392.598 186.918 389.25 189.46L333.83 165.3 341.83 159.98C341.83 159.98 348.48 155.32 339.17 152.66 329.86 150 309.46 141.58 309.46 141.58 309.46 141.58 303.7 138.92 298.82 141.58 293.94 144.24 290.17 146.01 290.17 146.01 290.17 146.01 251.82 132.93 248.5 131.82 245.18 130.71 230.76 127.39 212.8 134.93 194.84 142.47 167.11 160 167.11 160Z" stroke="#000000" stroke-linejoin="round" fill="none" transform="translate(-83.9 -115.01)"/><path d="M248.48 131.81C245.15 130.7 230.74 127.38 212.78 134.92 194.82 142.46 167.11 160 167.11 160 150.93 170.86 129.84 185.49 124.33 203.45 121.41 212.94 127.84 217.5 133.19 220.74 141.34 225.67 156.92 232.27 156.92 232.27 156.92 232.27 165.79 235.39 160.92 239.6 158.784 241.306 156.735 243.119 154.78 245.03L201.53 269.91C205.93 264.63 207.53 262.91 215.23 266.41 222.93 269.91 246.23 281.49 250.04 283.04 253.85 284.59 261.45 288.69 256.91 294.12 255.84 295.4 254.84 296.56 253.91 297.63L300.81 322.38C304.63 318.12 307.63 313.1 311.19 314.63 315.07 316.29 357.75 337.35 360.74 338.57 363.73 339.79 365.74 342.01 362.18 347.33 361.11 348.95 360.03 350.33 359.18 351.48L411 376.77C412.06 375.32 412.49 374.59 413.61 373.24 415.16 371.35 415.82 369.8 420.15 371.69 424.48 373.58 479.7 399.84 484 402.06 488.3 404.28 545.53 403.61 588.53 359.06 631.53 314.51 604.72 290.11 593.85 284.79 582.98 279.47 551.51 264.17 551.51 264.17 551.51 264.17 548.74 270.37 537.77 266.44 526.8 262.51 497.86 248.88 497.86 248.88L497.53 239.96 438.67 212.74 438.25 215.29 436.25 215.1 434.25 217.1 389.47 198 389.25 189.46 333.83 165.3 333.22 168.48 326.22 171.17 290.1 155.34 290.19 146.01C290.19 146.01 251.8 132.92 248.48 131.81Z" fill="#0F65BA" transform="translate(-83.9 -115.01)"/><path d="M248.48 131.81C245.15 130.7 230.74 127.38 212.78 134.92 194.82 142.46 167.11 160 167.11 160 150.93 170.86 129.84 185.49 124.33 203.45 121.41 212.94 127.84 217.5 133.19 220.74 141.34 225.67 156.92 232.27 156.92 232.27 156.92 232.27 165.79 235.39 160.92 239.6 158.784 241.306 156.735 243.119 154.78 245.03L201.53 269.91C205.93 264.63 207.53 262.91 215.23 266.41 222.93 269.91 246.23 281.49 250.04 283.04 253.85 284.59 261.45 288.69 256.91 294.12 255.84 295.4 254.84 296.56 253.91 297.63L300.81 322.38C304.63 318.12 307.63 313.1 311.19 314.63 315.07 316.29 357.75 337.35 360.74 338.57 363.73 339.79 365.74 342.01 362.18 347.33 361.11 348.95 360.03 350.33 359.18 351.48L411 376.77C412.06 375.32 412.49 374.59 413.61 373.24 415.16 371.35 415.82 369.8 420.15 371.69 424.48 373.58 479.7 399.84 484 402.06 488.3 404.28 545.53 403.61 588.53 359.06 631.53 314.51 604.72 290.11 593.85 284.79 582.98 279.47 551.51 264.17 551.51 264.17 551.51 264.17 548.74 270.37 537.77 266.44 526.8 262.51 497.86 248.88 497.86 248.88L497.53 239.96 438.67 212.74 438.25 215.29 436.03 215.29 434.23 217.04 389.47 198 389.25 189.46 333.83 165.3 333.22 168.48 326.22 171.17 290.1 155.34 290.19 146.01C290.19 146.01 251.8 132.92 248.48 131.81Z" stroke="#333333" stroke-linecap="round" stroke-linejoin="round" fill="none" transform="translate(-83.9 -115.01)"/><path d="M593.87 284.78C583.01 279.46 551.53 264.16 551.53 264.16L558.4 256.85C558.4 256.85 563.72 253.52 552.4 248.42 541.08 243.32 519.59 233.13 519.59 233.13 516.203 230.924 511.904 230.67 508.28 232.46 504.44 234.522 500.873 237.055 497.66 240L438.66 212.73 444.9 207C444.9 207 450.9 200.79 441.57 197 432.24 193.21 411.42 183.7 411.42 183.7 411.42 183.7 405.21 179.04 399.67 182.37 396.076 184.552 392.598 186.918 389.25 189.46L333.83 165.3 333.22 168.48 326.22 171.17 311.22 164.06 311.22 156.93C311.22 156.93 311.39 151.39 319.75 155.1 328.11 158.81 336.89 163.1 336.89 163.1L333.89 165.28 341.89 159.96C341.89 159.96 348.54 155.3 339.23 152.64 329.92 149.98 309.52 141.56 309.52 141.56 309.52 141.56 303.76 138.9 298.88 141.56 294 144.22 290.23 145.99 290.23 145.99 290.23 145.99 251.88 132.91 248.56 131.8 245.24 130.69 230.82 127.37 212.86 134.91 194.9 142.45 167.11 160 167.11 160 150.93 170.86 129.84 185.49 124.33 203.45 121.41 212.94 127.84 217.5 133.19 220.74 141.34 225.67 156.92 232.27 156.92 232.27 156.92 232.27 165.79 235.39 160.92 239.6 156.05 243.81 148.5 248.9 154.71 253.11 160.92 257.32 191.36 271.11 191.36 271.11 191.36 271.11 197.05 275.32 201.49 270 205.93 264.68 207.49 262.9 215.23 266.45 222.97 270 246.23 281.53 250.04 283.08 253.85 284.63 261.45 288.73 256.91 294.16 251.62 300.49 247.6 304.16 252.7 307.58 257.8 311 283.85 323.43 286.62 324.65 289.39 325.87 295.48 327.97 299.81 323.54 304.14 319.11 307.34 313.01 311.22 314.67 315.1 316.33 357.78 337.39 360.77 338.61 363.76 339.83 365.77 342.05 362.21 347.37 358.65 352.69 355.12 355.24 359.33 357.37 363.54 359.5 401.33 379.2 403.12 380.09 404.91 380.98 407 382.09 409.43 378.98 411.86 375.87 412.1 375.21 413.65 373.33 415.2 371.45 415.86 369.89 420.19 371.78 424.52 373.67 479.7 399.84 484 402.06 488.3 404.28 545.53 403.61 588.53 359.06 631.53 314.51 604.74 290.1 593.87 284.78Z" stroke="#333333" stroke-linecap="round" stroke-linejoin="round" fill="none" transform="translate(-83.9 -115.01)"/><path d="M162 238.28C161.716 238.774 161.343 239.212 160.9 239.57 156.03 243.78 148.48 248.87 154.69 253.08 157.056 254.558 159.495 255.913 162 257.14Z" fill="#8C8C8C" transform="translate(-83.9 -115.01)"/><path d="M258.26 291.25C258.094 292.309 257.621 293.297 256.9 294.09 251.61 300.42 247.59 304.09 252.69 307.51 254.39 308.65 258.44 310.8 263.17 313.2Z" fill="#8C8C8C" transform="translate(-83.9 -115.01)"/><path d="M364 341.67 364 341.67C364.39 343.04 364 344.9 362.25 347.51 358.7 352.83 355.15 355.38 359.37 357.51 360.54 358.1 364.3 360.05 369.17 362.57Z" fill="#8C8C8C" transform="translate(-83.9 -115.01)"/><path d="M572.77 190.62 560.24 206.62 609.8 231.19 576.49 214.67 581.64 208.02 615.65 223.11 609.8 231.19 621.21 215.44 572.77 190.62Z" fill="#8C8C8C"/><path d="M701.3 258.23 657.41 236.73 645.43 252.25 663.79 261.2 670.71 253.13 697.33 264.76 691.33 274.64 701.3 258.23Z" fill="#8C8C8C"/><path d="M690.42 391C686.84 392 680.78 397.82 677.42 401.64 674.06 405.46 661.93 420 660.55 422 659.17 424 654.28 428 660.55 430.81 666.82 433.62 686.93 441.12 690.42 442.61 693.91 444.1 699.68 446.1 705.11 440.12 710.54 434.14 724.01 416.67 725.67 414.85 727.33 413.03 734.32 404.04 722.84 400.05 711.36 396.06 698.9 392.05 698.9 392.05 698.9 392.05 693.64 390.14 690.42 391Z" stroke="#000000" stroke-miterlimit="10" fill="none" transform="translate(-83.9 -115.01)"/><path d="M683.94 423.12C683.94 423.12 689.59 416.63 696.94 414.47 701.46 413.14 712.77 417.47 720.75 420.95 723.24 417.82 725.14 415.42 725.7 414.81 727.36 412.98 734.35 404 722.87 400.01 711.39 396.02 698.93 392.01 698.93 392.01 698.93 392.01 693.67 390.12 690.45 391.01 686.87 392.01 680.81 397.83 677.45 401.65 674.09 405.47 661.93 420 660.55 422 659.17 424 654.28 428 660.55 430.81 663.02 431.92 667.64 433.81 672.55 435.67Z" fill="#8C8C8C" transform="translate(-83.9 -115.01)"/><path d="M683.94 423.12C683.94 423.12 689.59 416.63 696.94 414.47 701.46 413.14 712.77 417.47 720.75 420.95 723.24 417.82 725.14 415.42 725.7 414.81 727.36 412.98 734.35 404 722.87 400.01 711.39 396.02 698.93 392.01 698.93 392.01 698.93 392.01 693.67 390.12 690.45 391.01 686.87 392.01 680.81 397.83 677.45 401.65 674.09 405.47 661.93 420 660.55 422 659.17 424 654.28 428 660.55 430.81 663.02 431.92 667.64 433.81 672.55 435.67Z" stroke="#333333" stroke-linecap="round" stroke-miterlimit="10" fill="none" transform="translate(-83.9 -115.01)"/><path d="M815.08 411.66 815.08 411.66C815.319 412.641 815.414 413.652 815.36 414.66 814.8 424.31 803.36 442.49 803.36 442.49 803.36 442.49 811.23 446.59 813 447.7L813.17 447.79C818.72 438.27 819.43 434.01 819.51 432.48 819.59 430.95 815.08 411.66 815.08 411.66Z" fill="#8C8C8C" transform="translate(-83.9 -115.01)"/><path d="M819.89 387.54C816.79 386.32 813.46 385.65 811.69 388.2L803.38 400.2C803.38 400.2 815.9 405.08 815.38 414.72 815.38 415.08 815.32 415.44 815.27 415.81L815.27 415.81C815.27 415.81 820.14 406.43 827.87 410.17 832.68 412.49 836.68 417.83 839.04 421.49 840.316 417.822 840.826 413.932 840.54 410.06 839.18 397.62 823 388.76 819.89 387.54Z" fill="#8C8C8C" transform="translate(-83.9 -115.01)"/><path d="M811.69 388.2 803.38 400.2C803.38 400.2 815.9 405.08 815.38 414.72 814.86 424.36 803.38 442.55 803.38 442.55 803.38 442.55 811.25 446.65 813.02 447.76 814.79 448.87 821.89 449.99 826.43 444.16 830.97 438.33 841.84 422.48 840.51 410.07 839.18 397.66 823 388.79 819.89 387.57 816.78 386.35 813.46 385.65 811.69 388.2Z" stroke="#000000" stroke-miterlimit="10" fill="none" transform="translate(-83.9 -115.01)"/><path d="M781.37 473C778.21 471.51 769.9 467.85 769.9 467.85 769.9 467.85 767.74 465.19 762.42 469.35 757.1 473.51 751.28 478.35 738.81 480.99 726.34 483.63 711.87 481.32 711.04 480.99 710.21 480.66 708.21 479.99 708.21 479.99 705.05 480.65 701.21 487.14 700.07 489.63 698.93 492.12 693.58 497.78 700.07 501.1 703.54 502.89 710.36 505.1 718.88 506.1 719.727 503.948 721.873 502.595 724.18 502.76 729.66 502.92 751.61 500.1 758.93 496.6 762.61 494.85 765.23 494.86 766.93 495.3 775.58 489.56 781.93 483.17 783.52 480.64 786.36 476.15 784.53 474.49 781.37 473Z" fill="#8C8C8C" transform="translate(-83.9 -115.01)"/><path d="M781.37 473C778.21 471.51 769.9 467.85 769.9 467.85 769.9 467.85 767.74 465.19 762.42 469.35 757.1 473.51 751.28 478.35 738.81 480.99 726.34 483.63 711.87 481.32 711.04 480.99 710.21 480.66 708.21 479.99 708.21 479.99 705.05 480.65 701.21 487.14 700.07 489.63 698.93 492.12 693.58 497.78 700.07 501.1 703.54 502.89 710.36 505.1 718.88 506.1 719.727 503.948 721.873 502.595 724.18 502.76 729.66 502.92 751.61 500.1 758.93 496.6 762.61 494.85 765.23 494.86 766.93 495.3 775.58 489.56 781.93 483.17 783.52 480.64 786.36 476.15 784.53 474.49 781.37 473Z" stroke="#333333" stroke-linecap="round" stroke-miterlimit="10" fill="none" transform="translate(-83.9 -115.01)"/><path d="M535.89 412.23C534.52 413.36 522.38 426.11 522.38 426.11L536.59 431.88C536.18 425.31 535.7 418.67 535.89 412.23Z" fill="#656566" transform="translate(-83.9 -115.01)"/><path d="M587.33 432.1 536.01 412.1 535.89 412.18C535.7 418.62 536.18 425.26 536.59 431.83L573.48 446.83Z" fill="#8C8C8C" transform="translate(-83.9 -115.01)"/><path d="M630.27 449.4 630.27 449.4 616.27 464.59 629.05 470.22C629.31 463.3 630.37 456.48 630.27 449.4Z" fill="#656566" transform="translate(-83.9 -115.01)"/><path d="M676.57 467.35 630.27 449.35C630.37 456.43 629.27 463.25 629.05 470.16L663.26 485.25Z" fill="#8C8C8C" transform="translate(-83.9 -115.01)"/><path d="M535.89 412.23C534.52 413.36 522.38 426.11 522.38 426.11L536.59 431.88 573.48 446.88 587.33 432.14 536.01 412.14Z" stroke="#333333" stroke-linecap="round" stroke-miterlimit="10" fill="none" transform="translate(-83.9 -115.01)"/><path d="M546.37 334.4 546.34 334.38 532.37 349.57 545.15 355.21 579.37 370.3 592.67 352.34 546.37 334.4Z" stroke="#333333" stroke-linecap="round" stroke-miterlimit="10" fill="none"/><path d="M173.58 236.19 173.5 236.32C172.649 237.428 172.858 239.017 173.966 239.867 174.11 239.978 174.266 240.073 174.43 240.15L176.52 241.24C176.158 239.125 175.958 236.985 175.92 234.84 174.992 234.963 174.151 235.448 173.58 236.19Z" fill="#013A59" transform="translate(-83.9 -115.01)"/><path d="M208.27 250.86 178 235.16C177.349 234.831 176.609 234.719 175.89 234.84 175.928 236.985 176.128 239.125 176.49 241.24L204.64 255.86C206.17 256.619 208.023 256.202 209.08 254.86L209.17 254.74C210.045 253.643 209.865 252.045 208.768 251.17 208.615 251.048 208.447 250.944 208.27 250.86Z" fill="#035084" transform="translate(-83.9 -115.01)"/><path d="M282.79 165.17 282.7 165.3C281.88 166.334 282.053 167.838 283.088 168.658 283.273 168.805 283.48 168.924 283.7 169.01L286.16 170.1 286.16 163.59C284.845 163.53 283.585 164.121 282.79 165.17Z" fill="#013A59" transform="translate(-83.9 -115.01)"/><path d="M318 177.37 287.3 163.86C286.928 163.695 286.527 163.604 286.12 163.59L286.12 170.1 314.37 182.52C315.994 183.148 317.837 182.612 318.87 181.21L318.96 181.08C319.789 180.06 319.635 178.561 318.615 177.732 318.429 177.581 318.222 177.459 318 177.37Z" fill="#035084" transform="translate(-83.9 -115.01)"/><path d="M379.56 211.59 379.47 211.71C378.646 212.741 378.813 214.245 379.844 215.069 380.033 215.221 380.244 215.342 380.47 215.43L383.14 216.61C383.33 214.5 383.52 212.39 383.82 210.18 382.245 209.704 380.54 210.268 379.56 211.59Z" fill="#013A59" transform="translate(-83.9 -115.01)"/><path d="M414.78 223.78 384.07 210.27C383.975 210.234 383.878 210.204 383.78 210.18 383.48 212.39 383.29 214.5 383.1 216.61L411.1 228.94C412.724 229.565 414.565 229.029 415.6 227.63L415.69 227.5C416.53 226.481 416.384 224.975 415.366 224.136 415.189 223.99 414.991 223.87 414.78 223.78Z" fill="#035084" transform="translate(-83.9 -115.01)"/><path d="M277.29 285.48C275.891 285.119 274.412 285.627 273.53 286.77L273.44 286.89C272.589 287.998 272.798 289.587 273.906 290.437 274.05 290.548 274.206 290.643 274.37 290.72L276.76 291.96C276.7 289.8 277.14 287.64 277.29 285.48Z" fill="#013A59" transform="translate(-83.9 -115.01)"/><path d="M308.21 301.44 278 285.73C277.783 285.623 277.555 285.539 277.32 285.48 277.17 287.64 276.73 289.8 276.79 291.96L304.64 306.43C306.173 307.195 308.032 306.777 309.09 305.43L309.18 305.31C310.038 304.2 309.833 302.605 308.723 301.747 308.564 301.625 308.392 301.522 308.21 301.44Z" fill="#035084" transform="translate(-83.9 -115.01)"/><path d="M447 384.38 484 402.06 484 395.85C484 394.35 484.23 391.36 488.72 387.2 493.21 383.04 589.64 295.59 592.64 293.26 595.64 290.93 599.06 288.01 601.28 290.1 598.539 287.798 595.567 285.787 592.41 284.1 587.59 281.6 572.85 274.34 572.85 274.34 572.85 274.34 570.3 272.68 560.85 280.77 551.4 288.86 455 368.58 452.54 370.8 450.08 373.02 447.05 375.01 447.05 378.5 447.05 381.99 447 384.38 447 384.38Z" fill="#F98115" transform="translate(-83.9 -115.01)"/><line x1="378.51" y1="247.56" x2="411.61" y2="266.03" stroke="#333333" stroke-linecap="round" stroke-miterlimit="10" fill="none"/><line x1="430.3" y1="249.06" x2="398.25" y2="231.19" stroke="#333333" stroke-linecap="round" stroke-miterlimit="10" fill="none"/><line x1="450.13" y1="188.19" x2="479.7" y2="204.34" stroke="#333333" stroke-linecap="round" stroke-miterlimit="10" fill="none"/><line x1="472.16" y1="169.86" x2="500.78" y2="185.33" stroke="#333333" stroke-linecap="round" stroke-miterlimit="10" fill="none"/><path d="M492.73 260.65 492.67 260.65 484.25 267.3 492.42 272C492.302 268.214 492.406 264.424 492.73 260.65Z" fill="#013A59" transform="translate(-83.9 -115.01)"/><path d="M523.6 277.58 492.73 260.65C492.407 264.414 492.304 268.194 492.42 271.97L514.84 284.87Z" fill="#035084" transform="translate(-83.9 -115.01)"/><path d="M388.64 335.72 379.27 346.19 389.32 351.07C389.541 345.943 389.314 340.807 388.64 335.72Z" fill="#013A59" transform="translate(-83.9 -115.01)"/><path d="M426.94 353.4 388.7 335.66 388.64 335.72C389.314 340.807 389.541 345.943 389.32 351.07L418.51 365.26Z" fill="#035084" transform="translate(-83.9 -115.01)"/><path d="M408.76 331.89C408.42 331.97 388.03 354.62 388.03 354.62 388.03 354.62 390.14 362.71 402.11 361.62L422.73 338.16C422.73 338.16 420.18 329.45 408.76 331.89Z" fill="#F74608" transform="translate(-83.9 -115.01)"/><path d="M506.75 260 489.46 276.52C489.46 276.52 489.79 283.79 501.21 284.92L520.27 267.21C520.27 267.21 517.28 259 506.75 260Z" fill="#F74608" transform="translate(-83.9 -115.01)"/><path d="M408.76 331.89C408.42 331.97 388.03 354.62 388.03 354.62 388.03 354.62 390.14 362.71 402.11 361.62L422.73 338.16C422.73 338.16 420.18 329.45 408.76 331.89Z" stroke="#333333" stroke-linecap="round" stroke-miterlimit="10" fill="none" transform="translate(-83.9 -115.01)"/><path d="M506.75 260 489.46 276.52C489.46 276.52 489.79 283.79 501.21 284.92L520.27 267.21C520.27 267.21 517.28 259 506.75 260Z" stroke="#333333" stroke-linecap="round" stroke-miterlimit="10" fill="none" transform="translate(-83.9 -115.01)"/><path d="M602.08 300.34C602.08 300.34 608.08 310.06 602.08 323.02 602.08 323 610.94 312.13 602.08 300.34Z" fill="#FFFFFF" transform="translate(-83.9 -115.01)"/><path d="M491.23 390.79C491.23 390.79 501.65 392.08 511.4 388.53 511.4 388.53 503.64 394.16 491.23 390.79Z" fill="#FFFFFF" transform="translate(-83.9 -115.01)"/><path d="M594.32 335.72C594.32 335.72 570.26 367.47 535.84 377.45 535.84 377.45 563.5 369.59 594.32 335.72Z" fill="#FFFFFF" transform="translate(-83.9 -115.01)"/><path d="M139.35 186.22C134.987 189.014 131.593 193.086 129.63 197.88 129.045 199.176 128.729 200.578 128.7 202 128.669 202.423 128.809 202.841 129.09 203.16 129.636 203.536 130.382 203.407 130.77 202.87 131.128 202.342 131.351 201.734 131.42 201.1 132.53 195.525 135.232 190.391 139.2 186.32" fill="#FFFFFF" transform="translate(-83.9 -115.01)"/><path d="M232.72 134.68C233.19 134.68 219.43 132.17 194.72 149.45 194.76 149.45 215.44 135.27 232.72 134.68Z" fill="#FFFFFF" transform="translate(-83.9 -115.01)"/><path d="M708.21 479.65C705.05 480.32 701.21 486.8 700.07 489.29 698.93 491.78 693.58 497.44 700.07 500.77 706.56 504.1 724.67 508.77 743.79 505.09 762.91 501.41 780.71 484.81 783.53 480.32 786.35 475.83 784.53 474.16 781.37 472.67 778.21 471.18 769.9 467.51 769.9 467.51 769.9 467.51 767.74 464.85 762.42 469.01 757.1 473.17 751.28 478.01 738.81 480.65 726.34 483.29 711.87 480.98 711.04 480.65 710.21 480.32 708.21 479.65 708.21 479.65Z" stroke="#333333" stroke-linecap="round" stroke-miterlimit="10" fill="none" transform="translate(-83.9 -115.01)"/><path d="M815.08 411.66 815.08 411.66C815.319 412.641 815.414 413.652 815.36 414.66 814.8 424.31 803.36 442.49 803.36 442.49 803.36 442.49 811.23 446.59 813 447.7L813.17 447.79C818.72 438.27 819.43 434.01 819.51 432.48 819.59 430.95 815.08 411.66 815.08 411.66Z" stroke="#333333" stroke-linecap="round" stroke-miterlimit="10" fill="none" transform="translate(-83.9 -115.01)"/><path d="M819.89 387.54C816.79 386.32 813.46 385.65 811.69 388.2L803.38 400.2C803.38 400.2 815.9 405.08 815.38 414.72 815.38 415.08 815.32 415.44 815.27 415.81L815.27 415.81C815.27 415.81 820.14 406.43 827.87 410.17 832.68 412.49 836.68 417.83 839.04 421.49 840.316 417.822 840.826 413.932 840.54 410.06 839.18 397.62 823 388.76 819.89 387.54Z" stroke="#333333" stroke-linecap="round" stroke-miterlimit="10" fill="none" transform="translate(-83.9 -115.01)"/><path d="M447 384.38 484 402.06 484 395.85C484 394.35 484.23 391.36 488.72 387.2 493.21 383.04 589.64 295.59 592.64 293.26 595.64 290.93 599.06 288.01 601.28 290.1 598.539 287.798 595.567 285.787 592.41 284.1 587.59 281.6 572.85 274.34 572.85 274.34 572.85 274.34 570.3 272.68 560.85 280.77 551.4 288.86 455 368.58 452.54 370.8 450.08 373.02 447.05 375.01 447.05 378.5 447.05 381.99 447 384.38 447 384.38Z" stroke="#333333" stroke-linecap="round" stroke-miterlimit="10" fill="none" transform="translate(-83.9 -115.01)"/><path d="M162 238.28C161.716 238.774 161.343 239.212 160.9 239.57 156.03 243.78 148.48 248.87 154.69 253.08 157.056 254.558 159.495 255.913 162 257.14Z" stroke="#333333" stroke-linecap="round" stroke-miterlimit="10" fill="none" transform="translate(-83.9 -115.01)"/><path d="M258.26 291.25C258.094 292.309 257.621 293.297 256.9 294.09 251.61 300.42 247.59 304.09 252.69 307.51 254.39 308.65 258.44 310.8 263.17 313.2Z" stroke="#333333" stroke-linecap="round" stroke-miterlimit="10" fill="none" transform="translate(-83.9 -115.01)"/><path d="M364 341.67 364 341.67C364.39 343.04 364 344.9 362.25 347.51 358.7 352.83 355.15 355.38 359.37 357.51 360.54 358.1 364.3 360.05 369.17 362.57Z" stroke="#333333" stroke-linecap="round" stroke-miterlimit="10" fill="none" transform="translate(-83.9 -115.01)"/><path d="M107.64 199.49C113.99 189.02 119.64 186.49 122.46 185.99 128.18 179.72 132.61 175.8 127.76 173.22 124.46 171.46 112.96 176.38 103.82 189.22 94.68 202.06 95.82 210.67 100.66 212.66 101.756 213.157 103.014 213.157 104.11 212.66 103.57 209.47 104.19 205.18 107.64 199.49Z" stroke="#333333" stroke-linecap="round" stroke-miterlimit="10" fill="none" transform="translate(-83.9 -115.01)"/><path d="M820.22 372.79C815.81 370.56 477.94 197.62 325.62 139.79 253.8 112.53 233 112.53 209.9 119.18 186.8 125.83 146.72 147.44 146.72 147.44 106.15 172.38 85.53 199.65 84.53 216 83.53 232.35 87.75 246.48 104.53 255.84 113.38 260.78 535.9 484.09 704.1 527.59 723.38 532.59 730.37 536.59 753.31 525.59 776.25 514.59 838.78 468 855 429.44 868.33 397.85 825.53 375.48 820.22 372.79ZM112.37 200.32C109.74 206.14 107.21 211.2 104.11 212.6 103.57 209.47 104.19 205.18 107.64 199.49 113.99 189.02 119.64 186.49 122.46 185.99 119 189.81 115 194.51 112.37 200.32ZM588.55 359.05C545.55 403.61 488.35 404.27 484.02 402.05 479.69 399.83 424.5 373.56 420.18 371.68 415.86 369.8 415.18 371.34 413.64 373.23 412.1 375.12 411.86 375.78 409.42 378.88 406.98 381.98 404.88 380.88 403.11 379.99 401.34 379.1 363.53 359.37 359.32 357.27 355.11 355.17 358.66 352.61 362.2 347.27 365.74 341.93 363.76 339.73 360.76 338.51 357.76 337.29 315.09 316.23 311.21 314.57 307.33 312.91 304.12 319 299.8 323.44 295.48 327.88 289.38 325.77 286.61 324.55 283.84 323.33 257.79 310.91 252.69 307.48 247.59 304.05 251.61 300.39 256.9 294.06 261.44 288.63 253.8 284.53 250.03 282.98 246.26 281.43 223 269.93 215.22 266.38 207.44 262.83 205.91 264.61 201.48 269.93 197.05 275.25 191.35 271 191.35 271 191.35 271 160.91 257.25 154.7 253 148.49 248.75 156.04 243.7 160.91 239.49 165.78 235.28 156.91 232.16 156.91 232.16 156.91 232.16 141.33 225.56 133.18 220.63 127.84 217.39 121.4 212.83 124.32 203.34 129.83 185.34 150.92 170.75 167.1 159.89 167.1 159.89 194.82 142.37 212.77 134.84 230.72 127.31 245.14 130.62 248.47 131.73 251.8 132.84 290.15 146 290.15 146 290.15 146 293.92 144.23 298.8 141.57 303.68 138.91 309.44 141.57 309.44 141.57 309.44 141.57 329.84 149.99 339.15 152.65 348.46 155.31 341.81 159.97 341.81 159.97L333.81 165.29 389.23 189.45C392.578 186.908 396.056 184.542 399.65 182.36 405.19 179.03 411.4 183.69 411.4 183.69 411.4 183.69 432.24 193.22 441.55 196.99 450.86 200.76 444.88 206.99 444.88 206.99L442.3 209.37 438.67 212.75 438.98 212.46 438.67 212.75 497.67 240.02C500.889 237.074 504.463 234.541 508.31 232.48 511.934 230.69 516.233 230.944 519.62 233.15 519.62 233.15 541.12 243.35 552.43 248.44 563.74 253.53 558.43 256.87 558.43 256.87L551.56 264.18C551.56 264.18 583.04 279.48 593.9 284.8 604.76 290.12 631.56 314.49 588.55 359.05ZM665.7 323.05 699.7 338.15 693.84 346.22 660.53 329.71ZM690.42 442.6C688.31 441.7 680.09 438.6 672.55 435.66L683.94 423.15C683.94 423.15 689.59 416.66 696.94 414.5 701.46 413.17 712.77 417.5 720.75 420.98 715.87 427.14 708.75 436.14 705.14 440.11 699.68 446.06 693.91 444.07 690.42 442.57ZM743.79 505.45C735.572 506.967 727.168 507.196 718.88 506.13 719.727 503.978 721.873 502.625 724.18 502.79 729.66 502.95 751.61 500.13 758.93 496.63 762.61 494.88 765.23 494.89 766.93 495.33 760.23 499.75 752.14 503.82 743.79 505.42ZM775.22 389.67 747.69 376.24 754.6 368.17 781.23 379.8ZM826.43 444.16C821.89 449.99 814.79 448.87 813.02 447.76 811.25 446.65 803.38 442.55 803.38 442.55 803.38 442.55 814.79 424.37 815.38 414.72 815.97 405.07 803.38 400.2 803.38 400.2L811.69 388.2C813.46 385.65 816.79 386.32 819.89 387.54 822.99 388.76 839.18 397.62 840.51 410.04 841.84 422.46 831 438.31 826.43 444.13Z" stroke="#333333" stroke-linecap="round" stroke-linejoin="round" fill="none" transform="translate(-83.9 -115.01)"/><path d="M572.77 190.62 560.24 206.62 609.8 231.19 576.49 214.67 581.64 208.02 615.65 223.11 609.8 231.19 621.21 215.44 572.77 190.62Z" stroke="#333333" stroke-linecap="round" stroke-miterlimit="10" fill="none"/><path d="M701.3 258.23 657.41 236.73 645.43 252.25 663.79 261.2 670.71 253.13 697.33 264.76 691.33 274.64 701.3 258.23Z" stroke="#333333" stroke-linecap="round" stroke-miterlimit="10" fill="none"/><path d="M150 228.92C150 229.41 133.15 220.71 133.15 220.71 133.15 220.71 126.06 216.94 126.56 211.12 127.06 205.3 173.95 177.2 178.56 174.05 183.17 170.9 237.56 135.55 240.08 134.05 243.928 131.747 248.535 131.074 252.88 132.18 258.04 133.67 272.88 138.66 272.88 138.66 269.052 138.059 265.136 138.888 261.88 140.99 256.88 144.48 170.77 206.17 166.11 210.32 161.45 214.47 150.38 219.11 150 228.92Z" stroke="#333333" stroke-linecap="round" stroke-miterlimit="10" fill="none" transform="translate(-83.9 -115.01)"/><path d="M150 228.92C150 229.41 133.15 220.71 133.15 220.71 133.15 220.71 126.06 216.94 126.56 211.12 127.06 205.3 173.95 177.2 178.56 174.05 183.17 170.9 237.56 135.55 240.08 134.05 243.928 131.747 248.535 131.074 252.88 132.18 258.04 133.67 272.88 138.66 272.88 138.66 269.052 138.059 265.136 138.888 261.88 140.99 256.88 144.48 170.77 206.17 166.11 210.32 161.45 214.47 150.38 219.11 150 228.92Z" fill="#F98115" transform="translate(-83.9 -115.01)"/><line x1="59.61" y1="81.41" x2="84.39" y2="93.61" stroke="#333333" stroke-linecap="round" stroke-miterlimit="10" fill="none"/><line x1="80.08" y1="68.16" x2="103.9" y2="79.26" stroke="#333333" stroke-linecap="round" stroke-miterlimit="10" fill="none"/><line x1="129.58" y1="36.3" x2="150" y2="46.02" stroke="#333333" stroke-linecap="round" stroke-miterlimit="10" fill="none"/><line x1="147.84" y1="25.24" x2="168.22" y2="32.96" stroke="#333333" stroke-linecap="round" stroke-miterlimit="10" fill="none"/><path d="M221.64 185.34 204 195.52C200.05 197.81 196 200.16 193 203.61 190 207.06 188.14 211.85 189.35 216.26 191.02 222.34 197.5 225.51 203.19 228.26 228.96 240.57 251.7 258.26 276.29 272.84 298.98 286.26 323.19 296.89 347.54 306.99 358.587 311.557 369.673 316.027 380.8 320.4 384.48 321.84 388.31 323.29 392.24 323 396.17 322.71 400.24 320.16 400.91 316.27 401.91 310.64 395.91 306.51 390.8 303.96L339.31 278.29C311.52 264.43 283.24 250.22 261.01 228.53 254.2 221.89 247.61 213.34 248.8 203.91 249.66 197.1 257.72 183.82 248.16 179.55 239.74 175.72 228.78 181.2 221.64 185.34Z" fill="#0D74C9" transform="translate(-83.9 -115.01)"/><path d="M501.16 379C499.16 381.1 497.25 383.43 496.83 386.27 498.44 386.6 500.06 385.84 501.52 385.11 504.52 383.58 507.58 382.05 510.68 380.68 514.68 378.93 518.8 377.45 522.85 375.81 535.385 370.744 547.245 364.147 558.16 356.17 559.49 355.275 560.691 354.201 561.73 352.98 562.05 352.57 562.34 351.98 562.04 351.55 561.899 351.388 561.721 351.265 561.52 351.19 557.42 349.42 552.05 352.05 548.52 348.76 546.91 347.25 546.94 344.49 545.04 343.34 543.14 342.19 541.39 343.44 539.94 344.67 531.55 351.8 523.03 358.82 514.72 366.05 509.973 370.123 505.447 374.446 501.16 379Z" fill="#0D74C9" transform="translate(-83.9 -115.01)"/><path d="M155.45 173.11C149.86 177.88 144.52 183.27 141.64 190.02 141.36 190.69 141.15 191.59 141.72 192.02 142.129 192.255 142.623 192.288 143.06 192.11 145.11 191.52 146.68 189.91 148.15 188.37 155.96 180.23 164.15 172.31 173.52 166.08 176.237 164.441 178.825 162.595 181.26 160.56 182.68 159.26 185.07 157.14 181.95 156.69 179.18 156.29 176.56 158.2 174.35 159.53 171.243 161.39 168.207 163.39 165.24 165.53 161.87 167.88 158.6 170.43 155.45 173.11Z" fill="#0D74C9" transform="translate(-83.9 -115.01)"/><path d="M105.06 220.09C107.06 220.18 109.13 219.83 111.06 220.4 112.99 220.97 114.69 222.51 116.29 223.89 125.52 231.89 137.29 236.77 145.62 245.71 140.91 245.85 136.36 244.16 131.95 242.5 125.57 240.09 119.19 237.69 113 234.84 107.62 232.36 102.3 229.49 98.14 225.28 96.0283 223.176 94.3112 220.71 93.07 218 92.68 217.12 90.15 210.66 92.53 211.11 93.24 211.25 96.25 216.42 97.36 217.27 99.5798 218.972 102.266 219.956 105.06 220.09Z" fill="#B5B5BA" transform="translate(-83.9 -115.01)"/><path d="M154.63 264.65C191.39 282.77 227.797 301.587 263.85 321.1 232.43 296.69 195.69 280.16 158.85 265.1 156.69 264.22 154.52 263.34 152.41 262.33 151.06 261.68 148.63 259.66 147.22 260.19 149.3 262.15 152.1 263.4 154.63 264.65Z" fill="#B5B5BA" transform="translate(-83.9 -115.01)"/><path d="M299.5 340.92C337.84 367.47 381.07 386 424.26 403.6 443.333 411.367 462.467 418.993 481.66 426.48 428.08 389 361.19 375.92 304.08 344.09" fill="#B5B5BA" transform="translate(-83.9 -115.01)"/><path d="M687.41 508 695.06 510.15C696.954 510.722 698.881 511.179 700.83 511.52 702.65 511.81 704.51 511.89 706.32 512.29 708.13 512.69 709.72 513.29 711.46 513.72 713.853 514.162 716.292 514.3 718.72 514.13 735.998 513.481 752.983 509.463 768.72 502.3 760.47 509.57 750.97 515.85 740.25 518.3 732.788 519.855 725.092 519.906 717.61 518.45 715.12 518.01 712.61 517.45 710.19 516.89L701.46 514.89C697.46 513.98 693.21 512.89 690.39 509.95" fill="#B5B5BA" transform="translate(-83.9 -115.01)"/><path d="M606.57 365.14C596.39 377.82 584.22 389.67 568.92 395.19 566.55 396.05 563.92 396.86 562.46 398.91 561.717 399.813 561.508 401.042 561.91 402.14 562.191 402.657 562.588 403.102 563.07 403.44 565.108 404.85 567.346 405.946 569.71 406.69 586.76 413.114 603.057 421.384 618.31 431.35 623.31 434.59 629.09 438.17 634.72 436.3 635.987 436.012 637.011 435.083 637.42 433.85 637.81 431.94 635.81 430.52 634.28 429.33 631.5 427.15 629.58 424.09 627.71 421.1 625.24 417.1 622.71 413.1 621.45 408.59 620.04 403.59 620.19 398.34 620.71 393.2 622.83 372.1 630.89 351.36 628.51 330.28 628.39 329.22 627.76 326.64 626.28 326.64 624.8 326.64 624.89 328.99 624.7 330.12 623.89 334.527 622.547 338.818 620.7 342.9 617.19 351 612.07 358.28 606.57 365.14Z" fill="#B5B5BA" transform="translate(-83.9 -115.01)"/><path d="M780.15 400.38C784.019 402.061 787.664 404.218 791 406.8 794.076 409.218 796.223 412.623 797.08 416.44 797.88 420.93 796.18 425.44 794.08 429.51 791.551 434.312 788.375 438.743 784.64 442.68 781.931 445.458 779.084 448.098 776.11 450.59L768.67 457.05C765.811 459.701 762.684 462.047 759.34 464.05 755.34 466.3 750.57 467.54 746.04 466.68 744.805 466.584 743.691 465.904 743.04 464.85 742.32 463.24 743.68 461.51 744.95 460.29 751.68 453.85 759.15 448.05 764.66 440.54 770.17 433.03 773.54 423.18 770.66 414.31 769.3 410.09 766.66 406.48 763.99 403 762.56 401.16 757.11 396.07 758.99 393.52 762.23 389 777 398.85 780.15 400.38Z" fill="#B5B5BA" transform="translate(-83.9 -115.01)"/><path d="M131.39 214.62 136.54 218.2C139.74 220.43 143.1 222.73 146.97 223.27 143.503 221.262 140.226 218.942 137.18 216.34 135.672 215.206 134.61 213.578 134.18 211.74 133.96 210.21 134.97 208.65 133.03 208.15 131.75 207.82 130.23 208.84 129.58 209.87 128.33 211.91 129.71 213.45 131.39 214.62Z" fill="#F99C50" transform="translate(-83.9 -115.01)"/><path d="M450.46 381.88C451.398 382.23 452.401 382.377 453.4 382.31 462.87 382.66 469.93 392.43 479.4 392.99 472.87 390.71 467.8 385.51 461.58 382.48 459.52 381.48 457.35 380.66 455.86 378.83 454.94 377.7 454.09 374.97 452.53 374.56 449.15 373.68 447.35 380.33 450.46 381.88Z" fill="#F39B53" transform="translate(-83.9 -115.01)"/><path d="M290.06 155.33 290.15 146 269.51 138.87 267.36 139.13C267.36 139.13 277.92 143.66 286.12 146.56 288.16 147.28 290.43 152.54 290.06 155.33Z" fill="#AAAAB2" transform="translate(-83.9 -115.01)"/><path d="M333.22 168.47 333.83 165.29 389.25 189.45 389.47 197.99C389.596 194.108 387.341 190.541 383.78 188.99 377.58 186.08 342.84 171.29 340.51 170.08 338.235 168.993 335.741 168.443 333.22 168.47Z" fill="#AAAAB2" transform="translate(-83.9 -115.01)"/><path d="M290.06 155.33 290.15 146 270 139 267.38 139.56C267.38 139.56 277.94 143.63 286.14 146.56 288.16 147.28 290.43 152.54 290.06 155.33Z" stroke="#333333" stroke-linecap="round" stroke-miterlimit="10" fill="none" transform="translate(-83.9 -115.01)"/><path d="M333.22 168.47 333.83 165.29 389.25 189.45 389.47 197.99C389.596 194.108 387.341 190.541 383.78 188.99 377.58 186.08 342.91 171.16 340.51 170.08 338.63 169.25 334.65 167.76 333.22 168.47Z" stroke="#333333" stroke-linecap="round" stroke-linejoin="round" fill="none" transform="translate(-83.9 -115.01)"/><path d="M434.25 217.05 436.05 215.3C436.05 215.3 437.44 214.2 446.59 218.52 455.74 222.84 490.59 239.14 492.37 240.06 495.862 241.563 498.057 245.073 497.88 248.87L497.66 240 438.66 212.73 438.24 215.28 436.02 215.28Z" fill="#AAAAB2" transform="translate(-83.9 -115.01)"/><path d="M434.25 217.05 436.05 215.3C436.05 215.3 437.44 214.2 446.59 218.52 455.74 222.84 490.59 239.14 492.37 240.06 495.862 241.563 498.057 245.073 497.88 248.87L497.66 240 438.66 212.73 438.24 215.28 436.02 215.28Z" stroke="#333333" stroke-linecap="round" stroke-linejoin="round" fill="none" transform="translate(-83.9 -115.01)"/><path d="M571.93 274.08 551.53 264.16C551.126 264.978 550.466 265.641 549.65 266.05L570.37 274.56Z" fill="#AAAAB2" transform="translate(-83.9 -115.01)"/><path d="M571.93 274.08 551.53 264.16C551.133 264.971 550.494 265.639 549.7 266.07L569.82 274.76Z" stroke="#333333" stroke-linecap="round" stroke-linejoin="round" fill="none" transform="translate(-83.9 -115.01)"/></svg>