<?xml version="1.0" encoding="utf-8"?>
<!-- Generator: Adobe Illustrator 26.3.1, SVG Export Plug-In . SVG Version: 6.00 Build 0)  -->
<svg xmlns="http://www.w3.org/2000/svg" xmlns:xlink="http://www.w3.org/1999/xlink" version="1.1" id="Layer_1" x="0px" y="0px" viewBox="0 0 1000 1000" style="enable-background:new 0 0 1000 1000;" xml:space="preserve">
<style type="text/css">
	.st0{fill:none;stroke:#CEB69B;stroke-width:6.2547;stroke-miterlimit:10;}
	.st1{fill:#FFF3E3;stroke:#CEB69B;stroke-width:6.2547;stroke-miterlimit:10;}
	.st2{fill:none;stroke:#CEB69B;stroke-width:2.0849;stroke-miterlimit:10;}
	.st3{fill:#EF7F7F;}
	.st4{fill:#FCC12B;}
	.st5{fill:#B8D86D;}
	.st6{fill:#CEB69B;}
	.st7{fill:#77BDBF;}
	.st8{fill:#B169AB;}
	.st9{fill:none;stroke:#0F0700;stroke-width:0.9628;stroke-miterlimit:10;}
	.st10{font-family:'ArialMT';}
	.st11{font-size:30px;}
</style>
<path class="st0" d="M605.1,882.4l-6.3-117.1c0,0,10.4-45.9-27.1-54.2c-37.5-8.3-89.7-70.9-91.7-100.1s-2.1-29.2-2.1-29.2  s-41.7,39.6-68.8-18.8S396.6,536,367.4,536s-187.6-14.6-269-91.7c0,0-79.2-91.7,39.6-216.8s337.8-120.9,337.8-120.9  s304.4-6.3,402.4,196s20.8,275.2,20.8,275.2l-20.8,48c0,0-4.2,16.7-29.2,12.5c0,0,20.8,2.1-12.5,41.7  C803.2,719.5,709.4,757,709.4,757s-50,16.7-50,85.5l2.1,33.4"/>
<path class="st1" d="M605.1,882.4l-6.3-117.1c0,0,10.4-45.9-27.1-54.2c-37.5-8.3-89.7-70.9-91.7-100.1s-2.1-29.2-2.1-29.2  s-41.7,39.6-68.8-18.8S396.6,536,367.4,536s-187.6-14.6-269-91.7c0,0-79.2-91.7,39.6-216.8s337.8-120.9,337.8-120.9  s304.4-6.3,402.4,196s20.8,275.2,20.8,275.2l-20.8,48c0,0-4.2,16.7-29.2,12.5c0,0,20.8,2.1-12.5,41.7  C803.2,719.5,709.4,757,709.4,757s-50,16.7-50,85.5l2.1,33.4"/>
<path class="st2" d="M89,401.7c0,0-15.5-9.5-5.1-47.1c0,0,2.2-84.4,55.3-115.2c0,0,1,4.7,7.2-9.9c6.3-14.6,66.7-50,98-56.3h10.4  c0,0,18.8-39.6,106.3-31.3l6.3-2.1c0,0,10.4-20.8,95.9-16.7h8.3c0,0,20.8-6.3,33.4,0c0,0,6.3,4.2,8.3,2.1  c2.1-2.1,145.9,0,193.9,37.5l4.2,8.3c0,0,54.2,4.2,77.1,50l4.2,6.3c0,0,38.1,25.3,40.9,49.2c0,0,44.6,48.8,48.7,65.5l2.1,8.3  c0,0,27.1,62.5,20.8,81.3c0,0-4.2,16.7,2.1,18.8c0,0,12.5,35.4,2.1,56.3c0,0,0,45.9-10.4,54.2l-3.6,5.2c0,0-8.1,38.8-16.9,38.7  l-7.9-0.3c0,0,17.9,14.8-5,23.1c-22.9,8.3-73-48-77.1-52.1c-4.2-4.2-54.2-35.4-56.3-43.8c-2.1-8.3-16.7-8.3-18.8-16.7  c-2.1-8.3-2.1-8.3-2.1-8.3s-14.6,4.2-20.8-2.1c-6.3-6.3-22.9-10.4-29.2-20.8c-6.3-10.4-52.1-68.8-112.6-98c0,0-44.8-30.2-60.5-29.2  c0,0-131.3-25-104.2,39.6c0,0,56.3,37.5,56.3,60.5c0,0,20.8-18.8,18.8,20.8c-2.1,39.6-22.9,12.5-22.9,12.5l4.2,27.1  c0,0,18.8-14.6,20.8,6.3c1.3,12.7,4.6,12.4,3.6,21.1c4.8-3.9,8.2-2.4,13.1-6.5c12.5-10.4,33.4-41.7,54.2-29.2  c20.8,12.5,56.3,35.4,70.9,68.8c14.6,33.4,50,141.8,43.8,248.1l4.2,55.5"/>
<path class="st3" d="M629,470c-23,16.4-64.6,14.9-64.6,14.9"/>
<path class="st3" d="M621.3,475c0,0-96.5,32.5-123.6-25.5c0,0-4.9-14.6,10-23.3c14.9-8.7,87.6,7.8,112.4,34.2S626.7,466.1,621.3,475  z"/>
<path class="st4" d="M447.6,534.5c0,0,5.4-10,14.3-2.9c0,0,5,7.2,3,12.9c0,0,12.7-6.2,13.1-6.5c0,0,7.6-2.5,3,7.8l-8.4,10.2  c0,0-13.6-5.2-23.2,0.8c0,0-8-8.3-13.1-6c0,0,17.3-3,18.6-9.5C454.9,541.4,447.6,534,447.6,534.5z"/>
<path class="st5" d="M449.4,556.8c0,0-7.4-10.9-16.2-4.9c-8.8,6.1-15.4,5-15,17.1s9.6,21.1,18.9,14.7s5.2-14,5.2-14L449.4,556.8z"/>
<path class="st2" d="M377.3,325.8c0,0-84.6,16.6-21.2,87.3"/>
<path class="st2" d="M364.9,324.1c0,0-61.1,17-30.9,74.3"/>
<path class="st2" d="M556.1,380.7c0,0,95.9,66.7,110.5,91.7c0,0,33.4,45.9,43.8,2.1c0,0-19.7-20.2-30.7-27.8s-23.8-18.5-23.8-18.5"/>
<path class="st2" d="M617.6,878.7c0,0,0-121.7-8.3-148.8c-8.3-27.1-16.7-35.4-16.7-35.4s27.1-41.7-18.8-91.7"/>
<path class="st2" d="M609.3,729.9c0,0-14.6-20.8-39.6-29.2L550.9,684"/>
<path class="st2" d="M510.3,564.1c0,0-54.2,48,29.2,112.6"/>
<path class="st2" d="M692.7,561c0,0-7.3-30.2,13.6-26.1c20.8,4.2,3.1,19.8-1,28.1c0,0,13.6-28.1,28.1-13.6  c12.5,12.5-1,15.6-3.1,19.8c0,0,16.7-14.6,27.1,0c0,0,7.3,9.4-7.3,24c0,0,14.6-27.1,27.1-6.3c0,0,2.1,8.3-10.4,16.7  c0,0,18.8-16.7,27.1-2.1c0,0,6.3,12.5-6.3,16.7c0,0,20.8-8.3,18.8,16.7c0,0,2.1,8.3-14.6,8.3c0,0,16.7-4.2,10.4,14.6  c-6.3,18.8-8.3,12.5-16.7,12.5c0,0,12.5,12.5-2.1,20.8c-14.6,8.3-16.7-2.1-16.7-2.1s4.2,18.8-10.4,20.8s-14.6-6.3-14.6-6.3  s8.3,16.7-2.1,18.8c-10.4,2.1-20.8-2.1-20.8-10.4c0,0,2.1,20.8-20.8,12.5c0,0-8.3-2.1-8.3-12.5c0,0-12.5,14.6-18.8,2.1  s-2.1-14.6-2.1-14.6s-14.6-2.1-14.6-12.5s6.3-22.9,6.3-22.9s-22.9-12.5-20.8-25s2.1-12.5,2.1-12.5s-14.6-4.2-10.4-20.8  c0,0-8.3-16.7,4.2-25c0,0-14.6-16.7,8.3-22.9c0,0,0-22.9,20.8-20.8c0,0,16.7-12.5,20.8-4.2C687.5,537,692.7,561,692.7,561z"/>
<path class="st2" d="M680.2,554.7c0,0,18.8,45.9,20.8,54.2s8.3,20.8,10.4,14.6c2.1-6.3,2.1-12.5,2.1-14.6s-10.4-6.3-8.3-20.8  s12.5-22.9,12.5-22.9"/>
<path class="st2" d="M730.2,569.3c0,0-17.7,19.8-17.7,24"/>
<path class="st2" d="M722.9,593.3c0,0-6.3,22.9,0,16.7c1.1-1.1,2.2-2.4,3.2-3.9c5-7,9.3-16.9,9.3-16.9s-6.3,0-6.3-10.4"/>
<path class="st2" d="M727.1,616.3c0,0,29.2-8.3,35.4-20.8"/>
<path class="st2" d="M741.7,624.6c0,0,18.8-4.2,31.3-16.7"/>
<path class="st2" d="M741.7,639.2c0,0,37.5,2.1,43.8-4.2"/>
<path class="st2" d="M733.3,647.5c0,0,29.2,31.3,39.6,33.4"/>
<path class="st2" d="M741.7,645.4c0,0,27.1,10.4,35.4,6.3"/>
<path class="st2" d="M766.7,662.1c0,0,16.7,2.1,18.8,8.3"/>
<path class="st2" d="M722.9,647.5c0,0,29.2,43.8,29.2,50"/>
<path class="st2" d="M718.8,655.9c0,0,12.5,45.9,12.5,54.2"/>
<path class="st2" d="M710.4,660c0,0,0,8.3-4.2,12.5c0,0,6.3,0,6.3,12.5s4.2,20.8,4.2,22.9"/>
<path class="st2" d="M691.6,691.3c0,0,0,6.3,0,14.6"/>
<line class="st2" x1="677.1" y1="691.3" x2="668.7" y2="699.6"/>
<path class="st2" d="M664.5,666.3c0,0,12.5,14.6,22.9,2.1s10.4-12.5,10.4-12.5"/>
<path class="st2" d="M662.5,660c0,0,25-14.6,35.4-14.6"/>
<path class="st2" d="M645.8,637.1c0,0,18.8,12.5,33.4,6.3"/>
<path class="st2" d="M645.8,616.3c0,0,22.9,2.1,35.4,8.3c12.5,6.3,16.7,4.2,20.8,4.2"/>
<path class="st2" d="M649.9,576.6c0,0,12.5,12.5,18.8,20.8c6.3,8.3,12.5,27.1,12.5,27.1"/>
<path class="st2" d="M635.4,580.8c0,0,20.8,8.3,22.9,16.7"/>
<line class="st2" x1="631.2" y1="605.8" x2="658.3" y2="607.9"/>
<path class="st2" d="M643.7,557.9c0,0,29.2,14.6,33.4,22.9c4.2,8.3,22.9,41.7,22.9,41.7"/>
<path class="st2" d="M534.2,427.1c0,0,54.3,4.7,75.1,23.4c20.8,18.8,35.4,35.4,35.4,35.4s-27.1-6.3-10.4,12.5l6.3,6.3  c0,0-22.9-14.6-35.4-4.2c-12.5,10.4-4.2,25,0,45.9c4.2,20.8,17.7,46.9,17.7,46.9s7.3-57.3,2.1-62.5s-28.1-26.1-8.3-22.9  c19.8,3.1,30.2,21.9,37.5,14.6s-2.1-20.8-2.1-20.8s17.7,7.3,18.8-2.1c1-9.4-16.6-24.9-16.6-24.9s-46.9-63.7-91.8-64.8  c-44.8-1-71.9,28.1-64.6,39.6c7.3,11.5,11.5,26.1,33.4,27.1"/>
<path class="st2" d="M565.5,396.6c0,0-115.7-5.5-78.2,75.8"/>
<path class="st2" d="M499.8,472.4c0,0,33.4,29.2,66.7,25"/>
<path class="st2" d="M585.3,495.3c0,0,43.4-4.8,53-18"/>
<path class="st2" d="M535.3,420.3c0,0,62.5-22.9,125.1,75.1"/>
<path class="st2" d="M733.3,549.5c0,0,7.3,1,15.6,7.3c8.3,6.3,10.4,6.3,14.6,10.4s-2.1,2.1,8.3,8.3c10.4,6.3,20.8,10.4,27.1,20.8  c0,0,20.8,12.5,20.8,25c0,0,8.3,2.1,8.3,18.8s-2.1,25-6.3,27.1c0,0-2.1,18.8-22.9,22.9c0,0-2.1,18.8-22.9,16.7  c0,0-27.1,33.4-43.8,31.3c0,0-12.5,4.2-25,10.4c-12.5,6.3-22.9,4.2-27.1,14.6s-22.9,33.4-22.9,33.4s2.1-30.4,1.8-54.8  c-0.1-10-0.6-19-1.8-24.4c-4.2-18.8-3.8-23.8-3.8-23.8"/>
<path class="st2" d="M660.4,722.6c0,0,37.6,28.5,55.3,21.5"/>
<path class="st2" d="M656.2,708c0,0,42.3,39.2,68,33.1"/>
<path class="st2" d="M659.4,733.9c0,0,30.3,19.2,41.7,17.5"/>
<path class="st2" d="M660.1,744.1c0,0,19.2,15.6,27.4,10.6"/>
<path class="st2" d="M659.1,755c0,0,13.8,11.3,21.1,8.2"/>
<path class="st2" d="M658.1,765.9c0,0,14.7,8.9,17.9,3.6"/>
<path class="st2" d="M659.4,777.2c0,0,9.3,1.7,11.4-0.4"/>
<path class="st2" d="M703.8,726.9c0,0,15,10.3,25.4,10.3"/>
<path class="st2" d="M715.3,724.9c0,0,24.6,11.9,31.7,8.9"/>
<path class="st2" d="M739.6,722.6c0,0,13,6.9,20,1.4"/>
<path class="st2" d="M746.1,714c0,0,14.2,1.6,26.8-4.3"/>
<path class="st2" d="M767.2,696.2c0,0,21.1,16.4,30.1,2.6c9-13.8-9.6-11.6-9.6-11.6"/>
<path class="st2" d="M791.7,685.1c0,0,16.7-6.3,20.8-31.3c4.2-25,6.3-31.3,0-39.6c-6.3-8.3-6.3-8.3-6.3-8.3"/>
<path class="st2" d="M822,667.3c0,0,3.1-7.3-3.1-11.5"/>
<path class="st2" d="M636.1,514.5c0,0-26.4-5.5-17.4,10"/>
<path class="st2" d="M639.6,521.1c0,0-23.6-9.8-18.1,6.2"/>
<path class="st2" d="M442.5,575.6c0,0,9.8,28.6,28.1,3.6c7.3-10,1.8-16.8,2.1-19.2c0.5-4.1,0.5-3.3,3.1-7.3  c4.2-6.3,20.8-27.1,31.3-22.9c10.4,4.2,8.3,8.3,14.6,16.7c6.3,8.3,15.6,11.5,1,19.8c0,0-48,20.8,2.1,79.2c50,58.4,67.8,49,67.8,49"/>
<g>
	<path class="st6" d="M859.5,471.3l27.1-18.8c0,0-12.5,12.5-6.3,16.7C880.3,469.3,876.2,465.1,859.5,471.3z"/>
	<path class="st6" d="M717.7,471.3c0,0,0,10.4,0,18.8c0,9.3,8.3,4.2,8.3,4.2s-10.4,6.3-2.1,10.4c8.3,4.2,27.1,8.3,27.1,8.3   s-22.9-6.3-22.9,0c0,6.3,39.6,29.2,43.8,29.2c0,0-54.2-22.9-54.2-27.1c0-4.2-4.2-10.4-4.2-10.4s-35.4-6.3-37.5-10.4   C676,494.3,719.8,506.8,717.7,471.3z"/>
	<path class="st6" d="M361.2,141.9l6.3-2.1l8.3-4.2c0,0-14.6,6.3,4.2,31.3c18.8,25,12.5,39.6,20.8,45.9c0,0-12.5-20.8-18.8-31.3   s-14.6-31.3-14.6-31.3L361.2,141.9z"/>
	<path class="st6" d="M362,475.8c0,0,21,11.6,26.1,8.1s9.4-22.7-7.7-33.4c0,0,27.9,11.6,6.9,41.2c0,0-5.6,4.3-9.9,4.7   c0,0,9.4-3,1.3-9C370.6,481.4,362,475.8,362,475.8z"/>
	<path class="st6" d="M234,460.9c0,0,27.1,27.1,52.1,27.1C286.1,488,250.7,508.9,234,460.9z"/>
	<path class="st6" d="M509.2,169c0,0-6.3,14.6,10.4,31.3c16.7,16.7,16.7,16.7,16.7,16.7l2.1-48c0,0,4.2,33.4-8.3,22.9   C517.6,181.5,509.2,169,509.2,169z"/>
	<path class="st6" d="M471.7,177.4c0,0,10.4-29.2,20.8-31.3c10.4-2.1,20.8-4.2,25-2.1c4.2,2.1,14.6,8.3,14.6,8.3l16.7,10.4   c0,0,14.6,2.1,12.5,27.1s2.1,18.8,2.1,18.8s6.3-48-6.3-54.2c-12.5-6.3-25-14.6-29.2-14.6c-4.2,0-18.8-10.4-18.8-10.4   s-16.7,14.6-25,12.5L471.7,177.4z"/>
	<path class="st6" d="M434.2,154.4c0,0,22.9-8.3,25-16.7c2.1-8.3,4.2-14.6,4.2-14.6s6.3,4.2,8.3,0   C473.8,119,467.5,154.4,434.2,154.4z"/>
	<path class="st6" d="M815.4,472.2c-0.1,2.1-0.6,5.6-1.8,11.7c-4.2,20.8-62.5,29.2-62.5,29.2c48-6.3,87.6,10.4,87.6,10.4   c-12.5-8.3-48-16.7-48-16.7c29.2-12.5,52.1-29.2,52.1-29.2C832.8,479.3,820.1,474.3,815.4,472.2z"/>
	<path class="st6" d="M813.6,471.3c0,0,0.7,0.3,1.8,0.8C815.7,467.1,813.6,471.3,813.6,471.3z"/>
	<path class="st6" d="M671.8,187.8c1,1,2.1,1.8,3.1,2.4C673.4,188.6,671.8,187.8,671.8,187.8z"/>
	<path class="st6" d="M673.9,206.6c-10.4,12.5-10.4,12.5-10.4,12.5s39.6-43.8,48-43.8c8.3,0,16.7-2.1,16.7-2.1s-16.7,0-16.7-2.1   c0-2.1-2.1-6.3-2.1-6.3s-2.1,8.3-8.3,8.3s0,4.2,0,4.2s-14.1,19.3-26,12.8C677.8,193,680.6,198.5,673.9,206.6z"/>
	<path class="st6" d="M438.3,202.4c5.4,6.3,8.1,10.9,9.4,14.2c-1.2-12.8,2-26,5.2-32.7c-21.1,17.8-52.1-16.9-52.1-16.9   C406.5,174.3,430,192.6,438.3,202.4z"/>
	<path class="st6" d="M447.7,216.6c0.2,2.2,0.5,4.5,1,6.6C448.8,223.2,449.6,221.3,447.7,216.6z"/>
	<path class="st6" d="M457.1,179.5c-1-0.9-2.6,0.9-4.2,4.4C454.4,182.7,455.8,181.2,457.1,179.5z"/>
	<path class="st6" d="M859.4,547.6c3.4,3,6.3,5,6.3,5L859.4,547.6z"/>
	<path class="st6" d="M849.1,521.4c-12.5,10.4,6.3,22.9,6.3,22.9l4.1,3.3c-10.2-9.1-24.1-26.8,29.2-22.1c0,0-23.9-9.3-40-17.3   C852.8,511.6,855.2,516.3,849.1,521.4z"/>
	<path class="st6" d="M848.7,508.2c-4.2-3.5-10.1-5.6-10.1-5.6C841.2,504.3,844.7,506.2,848.7,508.2z"/>
	<path class="st6" d="M611.5,201.6c-0.1,0.5-0.1,0.8-0.1,0.8C611.4,202.1,611.4,201.9,611.5,201.6z"/>
	<path class="st6" d="M628.3,171.5c1.2-0.2,1.9-0.4,1.9-0.4C629.5,171.2,628.9,171.3,628.3,171.5z"/>
	<path class="st6" d="M611.5,201.6c0.5-4.5,3.4-26.5,16.8-30.1c-5.2,0.8-19.9,1.7-27.6-12.9C604.5,167.5,612.6,188.5,611.5,201.6z"/>
	<path class="st6" d="M600.7,158.6c-1.1-2.6-1.8-4.1-1.8-4.1C599.4,155.9,600,157.3,600.7,158.6z"/>
	<path class="st6" d="M327.8,171.1c14.6,2.1,20.8,12.5,20.8,12.5s0-6.3-6.3-12.5c-6.3-6.3-16.7-8.3-16.7-8.3l-14.6-14.6h-8.3   C302.8,148.2,313.2,169,327.8,171.1z"/>
	<path class="st6" d="M269.5,210.7c2.1,16.7,4.2,14.6,4.2,14.6s2.1-14.6-4.2-29.2c-6.3-14.6-12.5-16.7-10.4-22.9   c2.1-6.3,2.1-6.3,2.1-6.3l-6.3,6.3h-10.4C244.4,173.2,267.4,194.1,269.5,210.7z"/>
	<path class="st6" d="M782.3,546.4c0,0,25,16.7,33.4,16.7c8.3,0-10.4-20.8-10.4-20.8C805.3,561,782.3,546.4,782.3,546.4z"/>
	<path class="st6" d="M736.2,526.9c1.8,15.9,56.6,46.6,56.6,46.6s-4.2-20.8,2.1,2.1c2.4,8.8,12.5,18.6,24.8,27   c-15.9-16.8-21.3-38.7-21.3-38.7C762.2,564.7,736.2,526.9,736.2,526.9z"/>
	<path class="st6" d="M878.9,603.4c-2,0.8-5.4,1.5-6.9-2.8c-2.1-6.3-12.5-33.4-12.5-33.4s0,0,4.2,20.8c4.2,20.8-41.7-10.4-41.7-10.4   c0,4.2,81.3,48,35.4,43.8c-0.3,0-0.6-0.1-0.9-0.1c6.9,2.3,12.5,3.2,15.5,2.2c8.9-3,3.1-13.2-1.1-19   C873.5,605.6,877,604.3,878.9,603.4z"/>
	<path class="st6" d="M856.5,621.4c-10.9-3.6-24.9-10.6-36.9-18.8C828.4,611.9,840.4,619.7,856.5,621.4z"/>
	<path class="st6" d="M878.9,603.4c0.9-0.4,1.4-0.7,1.4-0.7S879.8,603,878.9,603.4z"/>
	<path class="st6" d="M198.6,423.4c-2.1-12.5-22.9-18.8-22.9-18.8c-10.4-31.3-37.5-20.8-37.5-20.8c48,4.2,27.1,35.4,27.1,35.4   C179.8,400.5,198.6,423.4,198.6,423.4z"/>
	<path class="st6" d="M219.4,406.7c0,0,0,0-10.4-16.7c-10.4-16.7-16.7-12.5-22.9-18.8c-2.8-2.8-1-5.5,1.7-7.7   c-3.3,1.4-7.4,2.8-12.1,3.6c-12.5,2.1-27.1-31.3-27.1-31.3s8.3,33.4,31.3,37.5C194.3,376,219.4,406.7,219.4,406.7z"/>
	<path class="st6" d="M187.8,363.5c5.5-2.3,8.7-4.8,8.7-4.8S191.3,360.7,187.8,363.5z"/>
	<path class="st6" d="M138.8,294.7c-0.3-1.6-0.7-2.7-0.7-2.7S137.7,293.6,138.8,294.7z"/>
	<path class="st6" d="M136.6,310.1c3.9-4.2,25.5-25.2,55.7-13.9c0,0-18.8-12.5-37.5-4.2c-10.7,4.7-14.6,4.1-16,2.7   C139.6,298.5,140.4,305.6,136.6,310.1z"/>
	<path class="st6" d="M136.6,310.1c-0.4,0.4-0.6,0.7-0.6,0.7C136.2,310.6,136.4,310.4,136.6,310.1z"/>
	<path class="st6" d="M282.5,432.8c-0.6-4-2.6-7.3-2.6-7.3S280.9,428.8,282.5,432.8z"/>
	<path class="st6" d="M279.9,442.2c-16.7,6.3-50-27.1-50-27.1c25,35.4,62.5,31.3,62.5,31.3c-3.8,0-7.5-7.5-9.9-13.5   C283,435.9,282.6,439.4,279.9,442.2z"/>
	<path class="st6" d="M828.2,429.7c1.3-1.8,2.8-5.6,4.4-10.5C825.9,427,824.5,434.6,828.2,429.7z"/>
	<path class="st6" d="M844.9,367.1c0,0-6.5,33.7-12.3,52c4.5-5.3,11.4-10.7,20.6-12.4C853.2,406.7,840.7,402.5,844.9,367.1z"/>
	<path class="st6" d="M761.5,337.9c-8.3-8.3,6.3-35.4,6.3-35.4c-4.2,6.3-31.3,48-31.3,48c23.6-5,28.7,7.9,29,19   c3.9-15.2,12.7-25.3,12.7-25.3S769.8,346.3,761.5,337.9z"/>
	<path class="st6" d="M765.4,369.5c-1.1,4.4-1.9,9.2-1.9,14.3C763.6,383.8,765.6,377,765.4,369.5z"/>
	<path class="st6" d="M769.8,250.3c0,0-12.3,19.3-28.8,30.5c7.4-4.2,22.8-11.8,39.2-11.8C780.3,269.1,769.8,267,769.8,250.3z"/>
	<path class="st6" d="M741.1,280.9c-2.9,1.7-4.6,2.8-4.6,2.8C738,282.8,739.6,281.9,741.1,280.9z"/>
	<path class="st6" d="M717.7,242c0,0,18.8-16.7,45.9-10.4c27.1,6.3,35.4-2.1,35.4-2.1l-6.3-2.1c0,0-16.7,4.2-25,0   C759.4,223.2,717.7,227.4,717.7,242z"/>
	<path class="st6" d="M686.9,248.1c5.9-4.6,10-8.2,10-8.2C693,241.6,689.7,244.6,686.9,248.1z"/>
	<path class="st6" d="M676,271.2c0,0,3.4-13.4,10.9-23.1c-7.6,5.9-18.2,13.3-27.6,16.8c-16.7,6.3-18.8,10.4-18.8,10.4   S663.5,262.9,676,271.2z"/>
	<path class="st6" d="M217.3,254.5c6.3,18.8,12.5,33.4-6.3,37.5c0,0,27.1,12.5,8.3-50c0,0-6.3-18.8,22.9-16.7   c0,0-22.9-12.5-29.2,10.4c0,0-9.7,2.1-19,2.6C202.6,239.6,213.6,243.4,217.3,254.5z"/>
	<path class="st6" d="M194.2,238.3c-5.7-0.8-10.2-0.5-10.2-0.5C186.9,238.4,190.5,238.5,194.2,238.3z"/>
	<path class="st6" d="M300.7,196.1c1.7,1.7,4.9,4.6,8.8,8C305.3,199.5,300.7,196.1,300.7,196.1z"/>
	<path class="st6" d="M283.2,241.5c-0.8,0.3-1.2,0.5-1.2,0.5S282.4,241.8,283.2,241.5z"/>
	<path class="st6" d="M283.2,241.5c6.8-2.8,39.7-16.2,50.9-16.2c0,0-14.4-12.2-24.6-21.2c5.1,5.7,9.5,13.3,3.7,19.1   C304.3,232.2,287.8,239.5,283.2,241.5z"/>
	<path class="st6" d="M334.1,467.2c-10.4-4.2-4.2-18.8-4.2-18.8c-33.4,35.4-93.8-4.2-93.8-4.2C284,479.7,334.1,467.2,334.1,467.2z"/>
	<path class="st6" d="M738.6,471.3c8.3-16.7,41.7-25,50-25c3.6,0,8.4,2.8,12.7,5.9c-7.8-12.4-5.4-32.3-3.5-41.9   c-1.8,6.5-6,17.7-15.4,29.8c-14.6,18.8-41.7,2.1-41.7,2.1c4.2,16.7-16.7,56.3-16.7,56.3S730.2,488,738.6,471.3z"/>
	<path class="st6" d="M797.8,410.3c1-3.5,1.3-5.7,1.3-5.7S798.4,406.8,797.8,410.3z"/>
	<path class="st6" d="M811.5,460.9c0,0-4.7-4.7-10.2-8.7C803.7,456,807,459,811.5,460.9z"/>
	<path class="st6" d="M751.4,412c-17,10.3-17.1-5.5-21.1-11.6c-4.2-6.3-29.2-39.6-29.2-39.6s10.4,18.8,10.4,25s-6.3,14.6-6.3,14.6   s6.3-6.3,14.6-2.1c7,3.5,16.9,32,19.9,41c-0.3-1.7-0.7-4.1-1.2-7.7C737.6,425.3,744,418.1,751.4,412z"/>
	<path class="st6" d="M771.9,398.4c0,0-11.1,5.9-20.6,13.6c0.6-0.4,1.2-0.7,1.8-1.1C771.9,398.4,771.9,398.4,771.9,398.4z"/>
	<path class="st6" d="M740.6,442.2c0,0-0.3-1-0.9-2.8C740.6,444.5,740.6,442.2,740.6,442.2z"/>
	<path class="st6" d="M792.9,379.1c-1.8-1.6-4-2.9-6.4-3.7C786.5,375.4,789.2,377.9,792.9,379.1z"/>
	<path class="st6" d="M792.9,379.1c7.6,6.4,10.3,17.2,10.3,17.2l2.1-10.4c8.3-8.3,6.3-25,6.3-25C807.7,380.2,799,381.2,792.9,379.1z   "/>
	<path class="st6" d="M548.8,264.9C548.8,264.9,548.8,264.9,548.8,264.9L548.8,264.9z"/>
	<path class="st6" d="M694.8,348.3c-12.5-12.5-8.3-18.8-8.3-18.8s6.7-8.3,13.3-16.1c-14.4,8.3-34.1,5.7-34.1,5.7   s-27.1-10.4-35.4-12.5c-8.3-2.1-27.1-22.9-27.1-41.7c0-18.8,0-54.2,0-54.2s-4.2,60.5-8.3,68.8c-4.2,8.3-45.8-14.6-45.9-14.6   c0,0,0.5,0.3,14.6,8.3c14.6,8.3,81.3,50,102.2,56.3c20.8,6.3,35.4,31.3,35.4,31.3S707.3,360.8,694.8,348.3z"/>
	<path class="st6" d="M707.7,306.8c0.6-0.7,1.2-1.5,1.7-2.3c7.1-10.6-1.2-1.3-9.6,8.9C702.7,311.7,705.4,309.6,707.7,306.8z"/>
	<path class="st6" d="M171.5,256.6c8.3,0,20.8,8.3,20.8,8.3s-8.3-12.5-27.1-16.7c-18.8-4.2-18.8-10.4-18.8-10.4s-6.3,2.1-4.2,8.3   C144.4,252.4,163.1,256.6,171.5,256.6z"/>
	<path class="st6" d="M138.1,346.3c-0.9-0.9-4.9-1.7-10.1-2.4C130.1,347.6,138.1,346.3,138.1,346.3z"/>
	<path class="st6" d="M134.6,327.6c3.4-3.4,5.6-6.4,5.6-6.4S137.5,323.9,134.6,327.6z"/>
	<path class="st6" d="M102.7,342.1c7.4,0,17.7,0.7,25.3,1.8c-0.5-0.9-0.7-2.2-0.3-3.8c1-4.1,4.1-8.7,6.9-12.4   c-4.6,4.7-11.3,10.3-17.3,10.3c-10.4,0-16.7,2.1-20.8-2.1c-4.2-4.2-4.2-14.6-4.2-14.6s-4.2,12.5-4.2,18.8s-4.2,14.6-4.2,14.6   S90.2,342.1,102.7,342.1z"/>
	<path class="st6" d="M88,395.3c0-0.3,0-0.7,0.1-1C88.1,394.2,88,394.6,88,395.3z"/>
	<path class="st6" d="M294.5,492.2c0,0,2.1,10.4,6.3,10.4c4.2,0,8.3,2.1,2.1,8.3c-6.3,6.3-70.9-16.7-87.6-16.7   c-16.7,0-27.1-16.7-12.5-18.8c3.3-0.5,17.8,4.4,29.6,8.6c-16-8.5-35.9-23.2-35.9-23.2c0,10.4-4.2,16.7-6.3,20.8   c-2.1,4.2-12.5,0-22.9,0c-10.4,0-16.7-12.5-12.5-22.9c4.2-10.4,27.1-22.9,27.1-22.9s-20.8,8.3-22.9,8.3c-2.1,0-4.2-14.6-4.2-14.6   s0,2.1-4.2,20.8C146.4,469.3,136,463,136,463c-27.1-6.3-33.4-45.9-33.4-45.9s4.2,0,16.7,0s25-12.5,25-12.5s-25,6.3-41.7,6.3   c-14.1,0-14.8-12-14.7-15.6c-3.3,47.3,52.2,74.1,59.6,80.7c7.4,6.7,55.1,20.4,61.4,22.5s83.4,14.6,104.2,20.8   c20.8,6.3,79.2,4.2,79.2,4.2s-48-4.2-60.5-6.3C319.5,515.1,294.5,492.2,294.5,492.2z"/>
	<path class="st6" d="M232.4,484.1c6.6,3.5,12.6,6,16.2,6C248.6,490.1,241.2,487.3,232.4,484.1z"/>
	<path class="st6" d="M386.2,223.2c0,1.4,0,3.1,0.5,4.8C387,224.3,386.2,221.8,386.2,223.2z"/>
	<path class="st6" d="M248.6,256.6c0,0,16.7,20.8,14.6,25c-2.1,4.2-20.8,20.8-22.9,27.1c-2.1,6.3-12.5,22.9-12.5,22.9   s-37,5.8-43.2,2.5c4.2,2.9,31.5,21.4,41.2,8c0,0,0,50,27.1,66.7c0,0-41.7-50-10.4-93.8c0,0,37.5-64.6,152.2-70.9   c0,0,106.3,4.2,143.9,20.8c0,0-8.9-16.6-9.8-28.8c-2.3,7.3-8.3,15.9-23.5,12.1c0,0-93.8-6.3-106.3-10.4c-8.3-2.8-11.1-6.4-12-9.8   c-0.6,6.7-4.7,17.4-23.4,16.1c-29.2-2.1-77.1,27.1-77.1,27.1s-10.4,8.3-25-4.2S248.6,256.6,248.6,256.6z"/>
	<path class="st6" d="M528.6,236.2c1.5-4.6,1.5-8.8,1.5-8.8C528.7,229.7,528.3,232.8,528.6,236.2z"/>
	<path class="st6" d="M184.5,334.1c-0.3-0.2-0.5-0.4-0.5-0.4C184.1,333.9,184.3,334,184.5,334.1z"/>
	<path class="st6" d="M569.7,317.1c0,0,36.1,13.1,66.3,35.5c-2.8-5.9-3.9-12.2-1.7-18.8c0,0-22.9,6.3-31.3-8.3   c-4.7-8.2-6.8-11.8-7.7-13.4C597.4,316,601.3,327.6,569.7,317.1z"/>
	<path class="st6" d="M595.4,312c-0.4-0.7-0.7-1.2-0.7-1.2S594.7,310.8,595.4,312z"/>
	<path class="st6" d="M665.6,381.7c-7.5-10.9-18.1-20.7-29.6-29.2C643.9,369.2,665.6,381.7,665.6,381.7z"/>
	<path class="st6" d="M473.8,287.9c0,0,27.1-4.2,64.6,25C538.4,312.9,507.1,279.5,473.8,287.9z"/>
	<path class="st6" d="M440.4,258.7c0,0,0,0,0,10.5C441.8,263.8,440.4,258.7,440.4,258.7z"/>
	<path class="st6" d="M419.6,281.6c-27.1,0-27.1,0-27.1,0s60.5,18.8,70.9,12.5c0,0-22.9,6.3-22.9-14.6c0-4.2,0-7.6,0-10.3   C438.9,275.3,433.8,281.6,419.6,281.6z"/>
	<path class="st6" d="M301.5,400.3c2,2.8,3.4,4.3,3.4,4.3C303.9,403.2,302.7,401.8,301.5,400.3z"/>
	<path class="st6" d="M349.8,286.3c-17.9,5-38.3,12.5-44.9,22.4c0,0-14.4,14.4-29.9,6.4c3.9,3,9.8,9.1,10.6,19.8   c0.4,5.4-0.5,11.9-3.6,19.7c0,0,4.2,16.7-2.1,18.8c-5.6,1.9,10.7,13.9,21.7,27c-7-10.1-21.3-37-5-72.8   C296.6,327.5,321,299.6,349.8,286.3z"/>
	<path class="st6" d="M349.8,286.3c16.1-4.5,30.1-6.8,30.1-6.8C369.9,279,359.6,281.8,349.8,286.3z"/>
	<path class="st6" d="M275,315.1c-2-1.5-3.5-2.2-3.5-2.2C272.7,313.8,273.9,314.5,275,315.1z"/>
	<path class="st6" d="M361,309.3c0.1-0.9,0.2-1.8,0.2-2.7C361.2,306.6,360.9,307.8,361,309.3z"/>
	<path class="st6" d="M676,429.7c-12.5-4.2-8.3-10.4-8.3-16.7s-2.1,0-12.5,0c-10.4,0-25-22.9-29.2-31.3c-3.3-6.6,5.1-11.8,8.8-13.8   c-2.9,1.4-9.4,4.5-17.1,7.5c-10.4,4.2-10.4-12.5-10.4-12.5c-27.1,4.2-64.6-20.8-77.1-27.1c-5.1-2.5-6.7-4.4-6.9-5.7   c-3.7,0.8-10.3-2.6-18.1-2.6c-10.4,0-56.3-14.6-66.7-14.6c-10.4,0-12.5-8.3-12.5-8.3c0,14.6-6.3,8.3-6.3,8.3s-43.8,2.1-52.1,2.1   c-5.2,0-6.3-3.2-6.5-5.7c-0.9,5.7-4,11.9-4,11.9c6.3,2.1,22.9,8.3,52.1,2.1c29.2-6.3,85.5,12.5,93.8,14.6   c8.3,2.1,54.2,22.9,95.9,48c41.7,25,50,39.6,70.9,52.1c20.8,12.5,43.8,25,43.8,25C713.5,450.5,676,429.7,676,429.7z"/>
	<path class="st6" d="M634.7,367.9c1.1-0.5,1.7-0.8,1.7-0.8S635.7,367.4,634.7,367.9z"/>
	<path class="st6" d="M525.9,327.5c0,0-2.9,0.7-2.7,2.6C524.4,329.9,525.4,329.1,525.9,327.5z"/>
	<path class="st6" d="M304.9,404.6c0,0,2.4,8.5,6.9,14.6C310.2,412.9,308,407.1,304.9,404.6z"/>
	<path class="st6" d="M317.4,442.2c2.1-14.6,6.3-10.4,22.9-20.8c7.1-4.4,12.6-5.5,16.7-5.2c-11.1-5.9-22.9-17.7-22.9-17.7   s8.3,14.6-6.3,25c-6.7,4.8-12.1,1.2-16-4.1C315.5,434.1,316,452.4,317.4,442.2z"/>
	<path class="st6" d="M357,416.1c2.9,1.5,5.7,2.7,8.3,3.1C365.4,419.2,362.6,416.5,357,416.1z"/>
	<path class="st6" d="M830.3,287.9l-4.2,12.5c-11.3,8.5-25.4,31.2-33.4,45.1c8.6-10.8,23-24.2,23-24.2c2.1,18.8,33.4,4.2,33.4,4.2   s0,0-14.6,2.1c-14.6,2.1-8.3-14.6-8.3-14.6c12.5-16.7,6.3-39.6,6.3-39.6c-2.1,18.8-33.4,6.3-33.4,6.3   C805.3,285.8,830.3,287.9,830.3,287.9z"/>
	<path class="st6" d="M792.7,345.5c-3.6,4.6-6.2,8.7-6.2,11.2C786.5,356.7,788.9,352.1,792.7,345.5z"/>
	<path class="st6" d="M844.9,354.6c0,0,25-14.6,39.6-4.2l-2.1-8.3C882.4,342.1,849.1,337.9,844.9,354.6z"/>
	<path class="st6" d="M875.7,439.7c20.1,1.8,31.7,10.8,31.7,10.8c-4.2-4.2-2.1-18.8-2.1-18.8c-2.1,6.3-16.7,6.3-16.7,6.3   c-6.2-1.7-11.4-2.3-15.6-2.3c-1.5-2.3-2.4-4-2.4-4c0.3,1.4,0.6,2.8,0.9,4c-10.2,0.4-14.2,4.4-14.2,4.4c5.5-0.7,10.5-0.9,15.2-0.6   c7.9,28.6,16.9,8.9,16.9,8.9C885.8,452,879.9,445.6,875.7,439.7z"/>
	<path class="st6" d="M410.2,443.2c16.7,12.5,14.6,41.7,2.1,66.7c-6.3,12.5-11.5,9.9-15.1,4.2c2.2,7.9,0.4,9.9-1.5,10.1   c15.8,2.5,25-12.2,25-12.2C447.7,468.2,410.2,443.2,410.2,443.2z"/>
	<path class="st6" d="M395.6,524.2c-1-0.2-2.1-0.4-3.2-0.7C392.5,523.5,394.1,524.4,395.6,524.2z"/>
	<path class="st6" d="M397.2,514.1c-1-3.5-2.8-8.3-5.7-14.6C391.4,499.5,393.5,508.4,397.2,514.1z"/>
	<g>
		<path class="st6" d="M511.3,565.2c0,0,0,0-8.3,0s-14.6,6.3-14.6,6.3s-6.3-4.2-6.3-8.3c0-4.2,6.7-3.8,6.7-3.8l3.3-0.7    c2.2,0.4,4.1,0.9,5.6,1.4c6.3,2.1,6.3-4.2,6.3-4.2s2.1-18.8-2.1-18.8c0,0,6.3,12.5-4.2,16.7c-7.6,3-15.6,3.1-19.4,2.9l-2.3-0.2    l-3.2,3.6c0,0,3.1,7.3,9.4,9.4c5,1.7,8.7,15.4,10,20.8c-0.6-3-1.6-8.8-1.6-14.5C490.5,567.3,511.3,565.2,511.3,565.2z"/>
		<path class="st6" d="M492.5,592.3c0,0-0.2-0.8-0.5-2.1C492.3,591.5,492.5,592.3,492.5,592.3z"/>
	</g>
</g>
<path class="st7" d="M460,468.5c0,0,21,46.7,49.1,39.5c0,0-17.7,15.8-27,25c-7.2,7.2-15.1,11.8-17.3,11.6c0.8-5,0-4.8-3.6-21.1  c0,0-1.2-21.3-20.8-6.3l-4.2-26.1C436.2,491.1,461,521.4,460,468.5z"/>
<path class="st8" d="M472.6,556.1c0,0-9.6-4.8-15.8-2.2c-11.8,5.1-19.5,15.6-9.6,29.1c9.9,13.5,22.5-0.1,25.4-9.8  C475.5,563.6,474.5,556.1,472.6,556.1z"/>
<path class="st2" d="M425.8,504.4c0,0,0,4.5,0,17s8.3,4.2,18.8,12.5c10.4,8.3,14.6,4.2,8.3,10.4c-6.3,6.3-40.5,5.2-34.3,28.1  c5.5,20.1,18.7,14.7,22.6,6.8c0.6-1.1,1-2.4,1.2-3.7c2.1-10.4,0.2-17.6,16.7-22.9"/>
<polyline class="st9" points="434.1,580.2 340.7,721.7 117.3,721.7 "/>
<polyline class="st9" points="462,573.4 340.7,786.2 117.3,786.2 "/>
<switch><text transform="matrix(1 0 0 1 114.5554 707.8093)" class="st10 st11" id="trsvg6-eu" systemLanguage="eu"><tspan id="trsvg1-eu">Aurreko ptituario</tspan></text><text transform="matrix(1 0 0 1 114.5554 707.8093)" class="st10 st11" id="trsvg6"><tspan id="trsvg1">Anterior ptituary</tspan></text></switch>
<switch><text transform="matrix(1 0 0 1 114.5554 578.7985)" class="st10 st11" id="trsvg7-eu" systemLanguage="eu"><tspan id="trsvg2-eu">Hipotalamoa</tspan></text><text transform="matrix(1 0 0 1 114.5554 578.7985)" class="st10 st11" id="trsvg7"><tspan id="trsvg2">Hypothalamus </tspan></text></switch>
<switch><text transform="matrix(1 0 0 1 114.5554 765.5749)" class="st10 st11" id="trsvg8-eu" systemLanguage="eu"><tspan id="trsvg3-eu">Atzeko ptituarioa</tspan></text><text transform="matrix(1 0 0 1 114.5554 765.5749)" class="st10 st11" id="trsvg8"><tspan id="trsvg3">Posterior ptituary</tspan></text></switch>
<switch><text transform="matrix(1 0 0 1 114.5554 832.0056)" class="st10 st11" id="trsvg9-eu" systemLanguage="eu"><tspan id="trsvg4-eu">Talamoa</tspan></text><text transform="matrix(1 0 0 1 114.5554 832.0056)" class="st10 st11" id="trsvg9"><tspan id="trsvg4">Thalamus</tspan></text></switch>
<polyline class="st9" points="466.8,503.1 307.9,595.6 117.3,595.6 "/>
<polyline class="st9" points="453.3,544.5 314.7,659.1 115.4,659.1 "/>
<path class="st7" d="M90,582.1h-9c-5,0-9-4-9-9v-9c0-5,4-9,9-9h9c5,0,9,4,9,9v9C99,578.1,95,582.1,90,582.1z"/>
<path class="st4" d="M90,644.7h-9c-5,0-9-4-9-9v-9c0-5,4-9,9-9h9c5,0,9,4,9,9v9C99,640.6,95,644.7,90,644.7z"/>
<path class="st5" d="M90,714h-9c-5,0-9-4-9-9v-9c0-5,4-9,9-9h9c5,0,9,4,9,9v9C99,710,95,714,90,714z"/>
<path class="st8" d="M90,769.8h-9c-5,0-9-4-9-9v-9c0-5,4-9,9-9h9c5,0,9,4,9,9v9C99,765.8,95,769.8,90,769.8z"/>
<path class="st3" d="M90,838.2h-9c-5,0-9-4-9-9v-9c0-5,4-9,9-9h9c5,0,9,4,9,9v9C99,834.2,95,838.2,90,838.2z"/>
<polyline class="st9" points="565,459.8 361.8,853.6 114.4,853.6 "/>
<switch><text transform="matrix(1 0 0 1 114.5554 642.3415)" class="st10 st11" id="trsvg10-eu" systemLanguage="eu"><tspan id="trsvg5-eu">Infundibulua</tspan></text><text transform="matrix(1 0 0 1 114.5554 642.3415)" class="st10 st11" id="trsvg10"><tspan id="trsvg5">Infundibulum</tspan></text></switch>
</svg>
