<?xml version="1.0" encoding="UTF-8" standalone="no"?>
<!-- Created with Inkscape (http://www.inkscape.org/) -->
<svg xmlns:dc="http://purl.org/dc/elements/1.1/" xmlns:cc="http://creativecommons.org/ns#" xmlns:rdf="http://www.w3.org/1999/02/22-rdf-syntax-ns#" xmlns:svg="http://www.w3.org/2000/svg" xmlns="http://www.w3.org/2000/svg" xmlns:sodipodi="http://sodipodi.sourceforge.net/DTD/sodipodi-0.dtd" xmlns:inkscape="http://www.inkscape.org/namespaces/inkscape" width="704.28571" height="532.69611" id="svg2" version="1.1" inkscape:version="0.47 r22583" sodipodi:docname="Gray769.svg">
  <defs id="defs4"/>
  <sodipodi:namedview id="base" pagecolor="#ffffff" bordercolor="#666666" borderopacity="1.0" inkscape:pageopacity="0.0" inkscape:pageshadow="2" inkscape:zoom="0.7" inkscape:cx="279.20543" inkscape:cy="207.54521" inkscape:document-units="px" inkscape:current-layer="layer3" showgrid="false" inkscape:window-width="1024" inkscape:window-height="722" inkscape:window-x="0" inkscape:window-y="0" inkscape:window-maximized="1" showguides="true" inkscape:guide-bbox="true"/>
  <metadata id="metadata7">
    <rdf:RDF>
      <cc:Work rdf:about="">
        <dc:format>image/svg+xml</dc:format>
        <dc:type rdf:resource="http://purl.org/dc/dcmitype/StillImage"/>
        <dc:title/>
      </cc:Work>
    </rdf:RDF>
  </metadata>
  <g inkscape:groupmode="layer" id="layer2" inkscape:label="Layer" style="display:inline">
    <path style="fill:#cefbc8;fill-opacity:1;stroke:none" d="m 86.873119,187.22394 7.071068,19.69797 288.903623,1.51523 16.16245,153.54319 23.2335,166.67517 45.45687,-2.52539 16.66752,-295.46962 151.0178,-29.7995 -0.50508,-23.73858 -276.27672,-50.50763 -271.731031,60.60916 z" id="path6741"/>
    <path sodipodi:nodetypes="ccccccccccccccccccccccccccccccccccccccccc" d="m 110.10663,269.04629 44.95179,-13.13198 c 16.36855,-1.99666 34.27267,-9.87967 42.93148,17.67767 3.99521,13.24928 7.52926,31.11008 12.12183,38.38579 16.33005,31.18577 65.53464,17.00078 65.40737,-3.78806 0.47635,-6.33964 -3.61487,-36.66613 -7.94597,-50.5816 -5.0531,-23.74567 31.77917,-21.53966 50.11985,-21.89685 36.94471,-2.65287 32.64255,29.59545 36.36549,55.05331 2.17151,15.16655 -6.35545,27.55942 -40.4061,33.33504 -22.06533,3.9636 -35.40726,15.03516 -31.81981,39.90102 8.55318,35.72074 36.70998,26.78876 61.61931,25.25381 10.73877,-1.5404 11.04195,4.22411 12.6269,9.09138 l 5.05077,126.26907 47.98224,4.04061 c -0.8944,-54.36742 -1.25432,-107.66585 -2.68321,-163.10225 1.6375,-6.16019 -5.36264,-13.75099 -16.78571,-16.78572 5.07153,1.42514 10.34395,3.42423 12.67857,5.00001 3.65838,2.79294 5.32804,0.53703 5.17857,-4.28572 0.55073,-18.251 0.43899,-38.82069 -0.35714,-61.78571 -1.5952,-38.37903 -9.55455,-92.81326 -48.57143,-96.42858 -15.19156,-1.85865 -38.33926,-2.82754 -58.21429,-0.71428 -19.71268,0.58461 -57.00892,3.90994 -75.27048,8.48477 -6.78855,2.1916 -12.08153,1.8447 -10.80095,8.65809 -2.36929,-3.49984 -6.62244,-5.74377 -17.5,-3.57143 -29.91118,5.37226 -58.06078,9.86372 -98.92857,20.71428 m 433.21429,300.35715 c -1.25623,-20.37491 -2.26848,-40.83115 -0.71429,-62.14286 1.1581,-13.14941 7.42922,-17.27458 21.07143,-14.28572 39.96067,3.57134 54.65055,-43.20569 29.28572,-57.85714 -25.12321,-13.65722 -55.82983,-21.72248 -54.64286,-56.07143 1.44925,-23.22993 2.97174,-46.09367 5.35714,-64.64285 4.56007,-22.66929 17.28381,-19.68887 40,-19.64286 25.36026,0.40549 43.56848,6.9413 62.5,12.85714 l -1.068,-47.39711 -15.15229,-3.03045 c -20.43963,-4.10302 -40.13679,-8.3121 -69.70052,-11.11168 -14.81052,-0.0593 -29.17844,0.58964 -37.37565,11.11168 -39.89365,36.68343 -23.65195,113.46353 -29.7995,174.25131 -0.2786,16.93695 9.06174,15.06785 15.65737,18.18275 -6.69462,-0.61131 -15.57199,-5.40622 -14.64722,8.58629 l 0,115.15739" style="fill:#d0d9f3;fill-opacity:1;stroke:none" id="path6734"/>
    <path id="path6731" style="fill:#f3f0d0;fill-opacity:1;stroke:none" d="m 81.31728,174.59703 367.19045,-30.80965 187.3833,23.2335 -0.17674,-50.75335 C 602.59312,108.2203 575.9903,98.987911 529.28571,93.410391 493.7709,88.786846 465.78174,80.400474 420.71429,80.553248 368.69726,78.746245 320.21345,81.355769 273.57143,86.267534 226.81909,93.589995 179.08449,100.63181 141.42857,110.55325 l -73.571427,20.71428" sodipodi:nodetypes="ccccccccc"/>
    <path id="path4498" style="fill:none;stroke:#000000;stroke-width:1;stroke-linecap:butt;stroke-linejoin:miter;stroke-miterlimit:4;stroke-opacity:1;stroke-dasharray:none" d="m 632.86057,216.01328 -15.15229,-3.03045 c -20.43963,-4.10302 -40.13679,-8.3121 -69.70052,-11.11168 -14.81052,-0.0593 -29.17844,0.58964 -37.37565,11.11168 -39.89365,36.68343 -23.65195,113.46353 -29.7995,174.25131 -0.2786,16.93695 9.06174,15.06785 15.65737,18.18275 -6.69462,-0.61131 -15.57199,-5.40622 -14.64722,8.58629 l 0,115.15739 m -72.73098,-0.50507 c -0.8944,-54.36742 -1.25432,-107.66585 -2.68321,-163.10225 1.6375,-6.16019 -5.36264,-13.75099 -16.78571,-16.78572 5.07153,1.42514 10.34395,3.42423 12.67857,5.00001 3.65838,2.79294 5.32804,0.53703 5.17857,-4.28572 0.55073,-18.251 0.43899,-38.82069 -0.35714,-61.78571 -1.5952,-38.37903 -9.55455,-92.81326 -48.57143,-96.42858 -15.19156,-1.85865 -38.33926,-2.82754 -58.21429,-0.71428 -19.71268,0.58461 -57.00892,3.90994 -75.27048,8.48477 -6.78855,2.1916 -12.08153,1.8447 -10.80095,8.65809 -2.36929,-3.49984 -6.62244,-5.74377 -17.5,-3.57143 -29.91118,5.37226 -58.06078,9.86372 -98.92857,20.71428 m 12.24949,44.20733 44.95179,-13.13198 c 16.36855,-1.99666 34.27267,-9.87967 42.93148,17.67767 3.99521,13.24928 7.52926,31.11008 12.12183,38.38579 16.33005,31.18577 65.53464,17.00078 65.40737,-3.78806 0.47635,-6.33964 -3.61487,-36.66613 -7.94597,-50.5816 -5.0531,-23.74567 31.77917,-21.53966 50.11985,-21.89685 36.94471,-2.65287 32.64255,29.59545 36.36549,55.05331 2.17151,15.16655 -6.35545,27.55942 -40.4061,33.33504 -22.06533,3.9636 -35.40726,15.03516 -31.81981,39.90102 8.55318,35.72074 36.70998,26.78876 61.61931,25.25381 10.73877,-1.5404 11.04195,4.22411 12.6269,9.09138 l 5.05077,126.26907 m 169.94189,0.58122 c -1.25623,-20.37491 -2.26848,-40.83115 -0.71429,-62.14286 1.1581,-13.14941 7.42922,-17.27458 21.07143,-14.28572 39.96067,3.57134 54.65055,-43.20569 29.28572,-57.85714 -25.12321,-13.65722 -55.82983,-21.72248 -54.64286,-56.07143 1.44925,-23.22993 2.97174,-46.09367 5.35714,-64.64285 4.56007,-22.66929 17.28381,-19.68887 40,-19.64286 25.36026,0.40549 43.56848,6.9413 62.5,12.85714" sodipodi:nodetypes="ccccccccccccccccccccccccccccccccccccccccc"/>
    <path style="fill:none;stroke:#000000;stroke-width:1px;stroke-linecap:butt;stroke-linejoin:miter;stroke-opacity:1" d="m 465.35714,87.16039 c -3.99613,1.718715 -8.92858,2.857143 -20.89285,4.107143 -3.03179,0.774137 -6.60107,2.247531 2.5,4.464286 7.54837,2.266809 15.3339,3.076937 20.17857,3.928572 9.18866,1.422449 5.84181,5.451879 1.25,6.071429 -3.44371,0.30027 -11.97814,0.81216 -15.17857,0.89286 -7.29075,0.5072 -4.4269,2.18609 0.53571,4.10714 l 11.07143,3.92857 c 7.57996,2.59598 9.93565,5.55991 5.625,9.10714" id="path4493" sodipodi:nodetypes="ccccccccc"/>
    <path id="path4323" style="fill:#e4f15d;fill-opacity:1;stroke:none" d="m 86.428572,190.55325 c 41.782958,-10.61305 76.297378,-16.82392 107.131878,-21.16541 20.20827,-3.60569 71.20225,-3.62214 112.15384,-12.40602 17.53743,-4.39679 49.99964,-2.06433 80,8.57143 62.53898,33.28066 51.44353,91.10612 54.28571,144.28571 l 0,217.85715 11.42857,0 0.71429,-210 C 450.42187,267.60648 450.63974,218.39815 490,186.98182 c 12.40967,-11.44494 25.15887,-17.41856 44.28571,-17.14286 39.43553,-1.08012 69.07927,10.07949 101.42858,17.85715 l 0.68181,-28.75645 c -32.08801,-10.4008 -78.11551,-16.58444 -120.20815,-23.2335 -10.6066,-1.52123 -21.2132,-2.65733 -31.8198,-8.08122 -20.87515,-8.67786 -42.60448,-12.65772 -66.165,-6.566 -6.34624,2.16013 -13.74801,4.21471 -33.33503,5.05077 -30.73215,1.75173 -62.31369,4.1405 -87.88327,2.0203 -30.40342,-0.36235 -57.24185,1.41429 -74.24621,9.09137 -21.44503,9.48632 -102.37291,18.38684 -142.936589,33.84011" sodipodi:nodetypes="ccccccccccccccccccc"/>
    <path sodipodi:nodetypes="ccccccccccccccccccc" d="m 451.42857,527.69611 0.71429,-210 C 450.42187,267.60648 450.63974,218.39815 490,186.98182 c 12.40967,-11.44494 25.15887,-17.41856 44.28571,-17.14286 39.43553,-1.08012 69.07927,10.07949 101.42858,17.85715 m 0.68181,-28.75645 c -32.08801,-10.4008 -78.11551,-16.58444 -120.20815,-23.2335 -10.6066,-1.52123 -21.2132,-2.65733 -31.8198,-8.08122 -20.87515,-8.67786 -42.60448,-12.65772 -66.165,-6.566 -6.34624,2.16013 -13.74801,4.21471 -33.33503,5.05077 -30.73215,1.75173 -62.31369,4.1405 -87.88327,2.0203 -30.40342,-0.36235 -57.24185,1.41429 -74.24621,9.09137 -21.44503,9.48632 -102.37291,18.38684 -142.936589,33.84011 m 6.626521,19.49176 c 41.782958,-10.61305 76.297378,-16.82392 107.131878,-21.16541 20.20827,-3.60569 71.20225,-3.62214 112.15384,-12.40602 17.53743,-4.39679 49.99964,-2.06433 80,8.57143 62.53898,33.28066 51.44353,91.10612 54.28571,144.28571 l 0,217.85715" style="fill:none;stroke:#000000;stroke-width:1px;stroke-linecap:butt;stroke-linejoin:miter;stroke-opacity:1" id="path6736"/>
    <path id="path4487" style="fill:#74e767;fill-opacity:1;fill-rule:nonzero;stroke:none" d="m 91.785714,201.98182 c 48.390866,-7.83797 90.044916,-17.92154 146.071426,-23.21429 31.16209,-4.83963 83.12948,-11.05456 98.125,-10.26785 69.68511,2.45704 92.26888,46.52042 89.73215,111.69643 1.65457,82.02381 4.11202,166.72618 2.14285,248.74999 l -18.74536,-0.2906 c -0.8944,-54.36742 -1.25432,-107.66585 -2.68321,-163.10225 1.6375,-6.16019 -5.36264,-13.75099 -16.78571,-16.78572 5.07153,1.42514 10.34395,3.42423 12.67857,5.00001 3.65838,2.79294 5.32804,0.53703 5.17857,-4.28572 0.55073,-18.251 0.43899,-38.82069 -0.35714,-61.78571 -1.5952,-38.37903 -9.55455,-92.81326 -48.57143,-96.42858 -15.19156,-1.85865 -38.33926,-2.82754 -58.21429,-0.71428 -19.71268,0.58461 -57.00892,3.90994 -75.27048,8.48477 -6.78855,2.1916 -12.08153,1.8447 -10.80095,8.65809 -2.36929,-3.49984 -6.62244,-5.74377 -17.5,-3.57143 -29.91118,5.37226 -58.06078,9.86372 -98.928567,20.71428 M 635.35714,199.48182 c -35.63883,-8.58415 -99.94159,-31.22755 -124.28571,-13.21429 -7.82332,6.41604 -16.59092,13.91241 -23.57143,4.64286 -2.19764,-5.50359 -2.51649,-10.06777 -2.85714,-14.64286 -0.88977,-7.87255 -12.8737,-13.21481 -21.78572,-3.21428 -3.03799,4.25853 -7.97881,11.27515 -1.78571,17.32143 1.64883,1.95172 5.96889,5.16005 12.14286,4.46428 12.47234,-0.41333 8.91923,18.12929 2.85714,25.35714 -10.93114,16.02951 -11.22201,50.64976 -12.5,76.78572 0.82309,76.67691 1.20063,153.79937 1.07143,231.42857 l 17.37847,0.21447 -0.17857,-114.62168 c -0.92477,-13.99251 7.9526,-9.1976 14.64722,-8.58629 -6.59563,-3.1149 -15.93597,-1.2458 -15.65737,-18.18275 6.14755,-60.78778 -10.09415,-137.56788 29.7995,-174.25131 8.19721,-10.52204 22.56513,-11.17094 37.37565,-11.11168 29.56373,2.79958 49.26089,7.00866 69.70052,11.11168 l 15.15229,3.03045"/>
    <path d="m 482.02133,528.62486 -0.17857,-114.62168 c -0.92477,-13.99251 7.9526,-9.1976 14.64722,-8.58629 -6.59563,-3.1149 -15.93597,-1.2458 -15.65737,-18.18275 6.14755,-60.78778 -10.09415,-137.56788 29.7995,-174.25131 8.19721,-10.52204 22.56513,-11.17094 37.37565,-11.11168 29.56373,2.79958 49.26089,7.00866 69.70052,11.11168 l 15.15229,3.03045 M 409.11178,528.6555 c -0.8944,-54.36742 -1.25432,-107.66585 -2.68321,-163.10225 1.6375,-6.16019 -5.36264,-13.75099 -16.78571,-16.78572 5.07153,1.42514 10.34395,3.42423 12.67857,5.00001 3.65838,2.79294 5.32804,0.53703 5.17857,-4.28572 0.55073,-18.251 0.43899,-38.82069 -0.35714,-61.78571 -1.5952,-38.37903 -9.55455,-92.81326 -48.57143,-96.42858 -15.19156,-1.85865 -38.33926,-2.82754 -58.21429,-0.71428 -19.71268,0.58461 -57.00892,3.90994 -75.27048,8.48477 -6.78855,2.1916 -12.08153,1.8447 -10.80095,8.65809 -2.36929,-3.49984 -6.62244,-5.74377 -17.5,-3.57143 -29.91118,5.37226 -58.06078,9.86372 -98.928567,20.71428 m -6.071429,-22.85714 c 48.390866,-7.83797 90.044916,-17.92154 146.071426,-23.21429 31.16209,-4.83963 83.12948,-11.05456 98.125,-10.26785 69.68511,2.45704 92.26888,46.52042 89.73215,111.69643 1.65457,82.02381 4.11202,166.72618 2.14285,248.74999 m 207.5,-329.46428 c -35.63883,-8.58415 -99.94159,-31.22755 -124.28571,-13.21429 -7.82332,6.41604 -16.59092,13.91241 -23.57143,4.64286 -2.19764,-5.50359 -2.51649,-10.06777 -2.85714,-14.64286 -0.88977,-7.87255 -12.8737,-13.21481 -21.78572,-3.21428 -3.03799,4.25853 -7.97881,11.27515 -1.78571,17.32143 1.64883,1.95172 5.96889,5.16005 12.14286,4.46428 12.47234,-0.41333 8.91923,18.12929 2.85714,25.35714 -10.93114,16.02951 -11.22201,50.64976 -12.5,76.78572 0.82309,76.67691 1.20063,153.79937 1.07143,231.42857" style="fill:none;stroke:#000000;stroke-width:1px;stroke-linecap:butt;stroke-linejoin:miter;stroke-opacity:1" id="path6739" sodipodi:nodetypes="ccccccccccccccccccccccccccccccccccc"/>
    <path style="fill:none;stroke:#d40000;stroke-width:2;stroke-linecap:butt;stroke-linejoin:miter;stroke-miterlimit:4;stroke-opacity:1;stroke-dasharray:none" d="m 481.84276,529.16057 0,-115.15739 c -0.92477,-13.99251 7.9526,-9.1976 14.64722,-8.58629 -6.59563,-3.1149 -15.93597,-1.2458 -15.65737,-18.18275 6.14755,-60.78778 -10.09415,-137.56788 29.7995,-174.25131 8.19721,-10.52204 22.56513,-11.17094 37.37565,-11.11168 29.56373,2.79958 49.26089,7.00866 69.70052,11.11168 l 15.15229,3.03045" id="path4325" sodipodi:nodetypes="cccccccc"/>
    <path style="fill:none;stroke:#000000;stroke-width:1px;stroke-linecap:butt;stroke-linejoin:miter;stroke-opacity:1" d="M 635.71429,116.26753 C 602.59312,108.2203 575.9903,98.987911 529.28571,93.410391 493.7709,88.786846 465.78174,80.400474 420.71429,80.553248 368.69726,78.746245 320.21345,81.355769 273.57143,86.267534 226.81909,93.589995 179.08449,100.63181 141.42857,110.55325 l -73.571427,20.71428" id="path4464" sodipodi:nodetypes="cccccc"/>
    <path style="fill:#489cc7;fill-opacity:1;stroke:#000000;stroke-width:1px;stroke-linecap:butt;stroke-linejoin:miter;stroke-opacity:1" d="m 634.82143,209.12468 0.17858,7.49999 c -19.06354,-0.9541 -38.36271,-12.58519 -48.39287,-21.96428 -15.10286,-17.37004 -27.85062,-39.21477 -51.96428,-39.46428 l -21.96429,-1.07143 c -3.15235,0.43597 -6.40743,0.05 -9.10714,4.10714 -5.28605,5.46068 -8.29256,3.1709 -11.25,0.71429 -6.39793,-4.41837 -13.56787,-8.76656 -9.82143,-14.10715 l 7.5,-4.82143 c 5.15014,-3.19474 5.75983,-0.55175 7.85714,0.17858 5.59172,3.80212 10.06454,4.53644 11.07143,4.28571 12.2344,-0.43704 12.64414,2.01982 18.39286,1.78571 16.95648,1.02946 32.96938,6.23765 46.60714,21.96429 13.4401,12.4119 25.93239,37.37605 60.89286,40.89286 z" id="path3527" sodipodi:nodetypes="cccccccccccccc"/>
    <path id="path4305" style="fill:#489cc7;fill-opacity:1;stroke:#000000;stroke-width:1px;stroke-linecap:butt;stroke-linejoin:miter;stroke-opacity:1" d="m 428.03572,126.08896 c 0.94355,-3.87712 -0.95444,-3.96551 -4.28572,-2.14285 l -8.03571,3.75 c -3.51747,2.20778 -2.9696,4.82209 -1.78572,7.5 3.69673,6.45433 5.93599,13.07061 5.35715,20 0.0577,3.62358 3.40872,1.14466 4.28571,0.17857 5.28276,-4.53168 6.89441,-12.06008 5.35714,-15.35715 -1.80777,-5.54895 -1.42215,-9.78186 -0.89285,-13.92857 z m 20.53571,-3.92857 c 2.83728,-0.5524 4.33855,9.37853 -1.60714,9.64286 -3.9881,-0.84093 -7.97619,-0.23049 -11.96429,1.78571 -2.34134,0.65201 -4.66397,1.28264 -3.75,-1.78571 0.51181,-2.82913 0.74208,-5.44074 1.25,-7.32143 -0.16983,-3.0226 2.15728,-2.2998 3.75,-2.67857 6.64015,0.7523 9.37853,0.52915 12.32143,0.35714 z m 14.46429,1.42857 c -2.12685,-0.0238 -4.39212,-0.44262 -6.07143,1.42857 l -1.78572,2.85715 c -0.49056,2.40284 1.22644,2.96606 2.67857,3.75 8.00896,0.95565 13.56378,4.63813 18.57143,8.92857 1.57882,0.73394 3.09921,1.87698 5,0.35714 l 3.54976,-2.82651 c 2.889,-2.76093 1.94179,-3.96304 -0.51404,-5.38777 -6.46806,-4.04792 -12.98403,-8.02395 -21.42857,-9.10715 z m -38.92858,61.07143 c 2.64173,1.85772 2.53139,0.0621 2.85715,-1.78571 0.20056,-5.12474 -1.0363,-9.09954 -3.21429,-12.32143 -2.69282,-1.7463 -5.89023,-5.25868 -6.78571,-0.71429 0.22634,3.21429 -1.68637,6.42857 1.96428,9.64286 l 5.17857,5.17857 z m 4.10715,9.46429 c -0.74894,-5.7873 4.51099,-4.27764 5.53571,-0.89286 0.0273,1.68896 0.2767,4.04438 1.25,8.57143 0.18553,1.53578 -2.65197,5.99242 -4.28571,-0.35714 -1.36021,-2.5722 -2.97124,-5.2071 -2.5,-7.32143 z m 56.15386,-29.62918 c -23.55976,-6.43815 -40.33417,16.05938 -27.14785,28.53681 2.77949,2.44016 10.06044,2.30024 4.92449,9.59645 -12.84748,13.66458 -26.49746,11.46271 -23.73858,3.53554 2.11112,-8.58961 -0.86114,-14.63754 -6.81853,-19.1929 -0.25135,-7.17354 1.17931,-14.70752 -8.08122,-19.95052 -5.86549,-2.0203 -2.32406,-4.04061 -0.50508,-6.06091 8.05062,-4.9 9.3632,-11.82141 10.85914,-18.68782 -0.97698,-7.87969 5.73519,-8.07023 13.38452,-7.32361 13.67234,-0.39552 21.2959,3.93312 30.3479,15.5834 2.50981,3.01697 6.50173,7.11876 10.0582,10.93311 1.74593,1.94978 2.19596,5.39721 -3.28299,3.03045 z"/>
    <path style="fill:#489cc7;fill-opacity:1;stroke:#000000;stroke-width:1px;stroke-linecap:butt;stroke-linejoin:miter;stroke-opacity:1" d="m 323.5,76.625 -39.15625,3.03125 c -6.93152,2.757298 -13.77352,5.594895 -14.125,16.90625 l 0.5,28.53125 c 0.64723,5.43124 -0.0336,9.67106 -6.0625,9.09375 l -19.9375,2.53125 c -1.54545,0.0432 -3.38746,2.01842 -4.3125,-2.28125 -0.77383,-4.96969 -1.59583,-9.68202 -3.03125,-11.34375 -3.51529,-6.46157 0.36319,-5.56553 1.03125,-7.84375 l 4.78125,-5.5625 c -0.30169,-1.53872 -0.97113,-2.5871 -2.28125,-2.78125 l -8.5625,7.84375 c -4.83279,-5.95975 -16.59058,-4.34612 -24,-0.875 -7.83402,3.68068 -19.11489,8.28405 -31.0625,3.15625 -5.93558,-2.14113 -3.29783,-5.30844 3.28125,-9.03125 -0.15449,-0.69792 -0.42349,-1.39583 -1.75,-2.09375 -0.56238,0.26528 -4.00074,1.90794 -7.03125,4.40625 -1.67763,1.43304 -2.04461,3.72205 -7.375,3.9375 -3.35246,0.71818 -6.4237,1.06453 -12.375,5.03125 -2.52538,1.43273 -5.06837,3.3349 -7.59375,1.53125 -6.85948,-2.831 -12.04612,-1.25059 -16.90625,1.25 -8.47314,4.71404 -17.45083,9.48685 -29.861607,14.20089 l 0.428571,4.17411 c 8.725066,-3.283 16.407096,-6.24825 23.120536,-9.53125 4.68162,-2.52538 7.60202,-5.03712 16.65625,-7.5625 9.96256,-1.57438 6.17269,6.51159 6.3125,10.34375 l 3.8125,-0.5 0.75,-8.09375 c 5.75694,-1.76777 8.11182,-3.54473 10.59375,-5.3125 4.20897,-2.15462 8.41603,-2.40491 12.625,-0.75 5.34099,4.44141 11.67324,3.95618 17.9375,3.78125 11.39722,-0.10152 18.82046,-3.16491 26.53125,-6.03125 12.61442,-4.47205 19.05775,5.98974 17.90625,17.40625 0.31748,4.51821 -1.2671,6.30377 -4.28125,6.0625 -1.20067,0.31901 -2.17635,-4.6e-4 -4.28125,3.03125 -1.23599,1.60475 -3.98038,2.90198 -7.59375,4.03125 -5.27101,1.24445 -10.67092,2.50027 -10.84375,3.28125 -4.1557,2.21102 -8.58558,3.90016 -14.15625,3.28125 -6.58745,-2.25305 -11.97069,-0.92139 -16.65625,2.53125 -4.22566,3.62479 -9.63537,5.08419 -17.1875,2.53125 -4.10832,-1.21512 -7.96161,-0.5631 -11.59375,2.03125 -2.60465,1.3596 -4.15439,2.86679 -9.875,3.78125 l -14.125,3.03125 -48.25,11.875 1.28125,3.03125 41.40625,-11.375 c 9.25973,-0.3235 18.52152,-2.45556 27.78125,-7.0625 5.13762,-2.80202 9.99429,-3.01016 14.65625,-1.53125 8.33808,1.81364 10.97327,-1.36542 15.90625,-2.53125 4.79764,-3.71038 9.88283,-4.27324 15.15625,-2.75 6.7462,2.72337 11.21205,-0.24962 16.15625,-2.03125 9.89993,-4.89088 17.72327,-2.1459 18.6875,-0.25 3.59505,2.81704 7.55675,3.83022 11.625,4.28125 5.86518,0.94405 5.40281,7.68268 5.78125,13.65625 0.61179,7.6957 0.69115,14.60314 -12.625,16.65625 l -29.71875,5.8125 c -11.99427,1.83412 -24.57954,4.85635 -37.4375,4.53125 l 0,7.84375 c 14.91624,-2.0203 24.12914,-4.0422 35.09375,-6.0625 3.33868,-0.75762 5.93666,-1.52363 13.375,-2.28125 11.27724,-1.26269 13.77209,-2.51856 19.96875,-3.78125 6.55,-1.28272 13.74773,-2.43898 25,-2.78125 6.75005,-0.0176 11.4481,-1.4024 16.90625,-2.28125 21.39662,-1.69335 41.26959,-7.16189 56.3125,-7.3125 18.78944,-0.72273 35.29043,-6.02377 52.28125,-10.34375 4.81986,-2.69112 15.20259,-2.29992 24,-2.78125 9.781,2.06694 7.44014,-5.59002 8.34375,-10.625 -0.0842,-4.55117 -0.1658,-8.52514 -0.25,-12.125 -1.35607,-12.26457 -21.13261,-15.29304 -25.53125,-14.625 -16.00953,-0.98158 -42.69683,-1.21447 -56.8125,0.25 -7.38101,1.52158 -15.19587,2.04903 -24,0.25 -8.24958,-1.40205 -16.50042,-1.47824 -24.75,-0.5 -3.06428,-0.4626 -6.35302,-0.36915 -6.8125,-7.34375 l -1.75,-22.21875 c 0.7288,-9.68132 3.69033,-17.292367 13.125,-18.9375 13.5462,-2.185324 24.86666,-2.853697 34.39732,-3.03125 L 323.5,76.625 z m 58.28125,61.78125 c 5.87381,0.34583 12.42478,-0.46992 14.65625,6.25 l 2.84375,7.6875 c 1.34116,4.29837 2.92978,8.69126 -5,9.28125 -18.49212,5.25633 -28.4468,11.5532 -46.78125,13.21875 -9.79176,1.03085 -17.98541,1.89775 -32.6875,3.375 -11.51564,0.74893 -21.09701,2.04924 -29.28125,3.75 -5.1612,1.12157 -9.93011,1.34121 -10.875,-7.84375 L 273.75,163.59375 c 0.45625,-3.61645 -0.9505,-8.09337 6.25,-8.5625 11.91666,-2.47223 19.64732,-7.75595 29.46875,-11.625 7.40585,-2.17424 14.3742,-4.48241 27.3125,-4.8125 l 45,-0.1875 z m -118.15625,19.25 c 2.23503,0.005 4.42778,0.65013 3.34375,5.03125 -0.52726,3.05264 0.18131,8.59924 1.0625,14.46875 1.08476,4.48936 -1.30925,5.90831 -4.46875,6.625 l -6.78125,1.0625 c -2.82658,0.6363 -5.48563,0.48741 -6.4375,-7.3125 0.1246,-4.06427 0.1515,-8.85778 -0.15625,-11.625 -1.73627,-7.18408 1.33423,-6.0424 3.21875,-6.4375 l 9.28125,-1.78125 c 0.31204,-0.0161 0.61821,-0.032 0.9375,-0.0312 l 0,-5e-5 z" id="path4307" sodipodi:nodetypes="ccccccccccccccccccccccccccccccccccccccccccccccccccccccccccccccccccccccccccccccccccccccccccccccccccccc"/>
    <path style="fill:none;stroke:#d40000;stroke-width:2;stroke-linecap:butt;stroke-linejoin:miter;stroke-miterlimit:4;stroke-opacity:1;stroke-dasharray:none" d="m 561.39228,416.02349 c -12.16819,-6.16586 -22.86058,-10.36677 -36.36549,-9.84899 -8.6972,0.0525 -15.99852,1.02693 -28.91562,-0.88388" id="path4327" sodipodi:nodetypes="ccc"/>
    <path style="fill:none;stroke:#d40000;stroke-width:2;stroke-linecap:butt;stroke-linejoin:miter;stroke-miterlimit:4;stroke-opacity:1;stroke-dasharray:none" d="m 318.95567,356.17195 c 24.50793,-6.70884 48.46581,-10.66741 70.96321,-7.32361" id="path4352" sodipodi:nodetypes="cc"/>
    <path style="fill:none;stroke:#d40000;stroke-width:2;stroke-linecap:butt;stroke-linejoin:miter;stroke-miterlimit:4;stroke-opacity:1;stroke-dasharray:none" d="m 214.0892,207.42699 c 5.78276,8.92031 5.56311,18.13782 6.62913,27.52665 0.65925,11.22181 7.01416,29.28985 13.25825,40.53237 3.70368,6.31346 4.80677,10.48034 5.68211,15.5311" id="path4354" sodipodi:nodetypes="cccc"/>
    <path sodipodi:type="arc" style="fill:#489cc7;fill-opacity:1;stroke:#000000;stroke-opacity:1" id="path4467" sodipodi:cx="166.80144" sodipodi:cy="204.144" sodipodi:rx="2.6516504" sodipodi:ry="4.0406103" d="m 169.45309,204.144 a 2.6516504,4.0406103 0 1 1 -5.3033,0 2.6516504,4.0406103 0 1 1 5.3033,0 z" transform="translate(-2.5253814,0)"/>
    <path transform="matrix(0.47115975,0,0,0.50000002,85.685932,102.072)" d="m 169.45309,204.144 a 2.6516504,4.0406103 0 1 1 -5.3033,0 2.6516504,4.0406103 0 1 1 5.3033,0 z" sodipodi:ry="4.0406103" sodipodi:rx="2.6516504" sodipodi:cy="204.144" sodipodi:cx="166.80144" id="path4469" style="fill:#000000;fill-opacity:1;stroke:none" sodipodi:type="arc"/>
    <path transform="matrix(0.51434522,0,0,0.54083039,11.837602,28.092048)" d="m 169.45309,204.144 a 2.6516504,4.0406103 0 1 1 -5.3033,0 2.6516504,4.0406103 0 1 1 5.3033,0 z" sodipodi:ry="4.0406103" sodipodi:rx="2.6516504" sodipodi:cy="204.144" sodipodi:cx="166.80144" id="path4471" style="fill:#489cc7;fill-opacity:1;stroke:#000000;stroke-width:1.89601648;stroke-opacity:1" sodipodi:type="arc"/>
    <path sodipodi:type="arc" style="fill:#000000;fill-opacity:1;stroke:none" id="path4473" sodipodi:cx="166.80144" sodipodi:cy="204.144" sodipodi:rx="2.6516504" sodipodi:ry="4.0406103" d="m 169.45309,204.144 a 2.6516504,4.0406103 0 1 1 -5.3033,0 2.6516504,4.0406103 0 1 1 5.3033,0 z" transform="matrix(0.24233876,0,0,0.27041519,57.208671,83.295686)"/>
    <path transform="matrix(0.49513078,0,0,0.55805828,241.06308,-35.092745)" d="m 169.45309,204.144 a 2.6516504,4.0406103 0 1 1 -5.3033,0 2.6516504,4.0406103 0 1 1 5.3033,0 z" sodipodi:ry="4.0406103" sodipodi:rx="2.6516504" sodipodi:cy="204.144" sodipodi:cx="166.80144" id="path4475" style="fill:#489cc7;fill-opacity:1;stroke:#000000;stroke-width:1.9023931;stroke-opacity:1" sodipodi:type="arc"/>
    <path sodipodi:type="arc" style="fill:#000000;fill-opacity:1;stroke:none" id="path4477" sodipodi:cx="166.80144" sodipodi:cy="204.144" sodipodi:rx="2.6516504" sodipodi:ry="4.0406103" d="m 169.45309,204.144 a 2.6516504,4.0406103 0 1 1 -5.3033,0 2.6516504,4.0406103 0 1 1 5.3033,0 z" transform="matrix(0.23328569,0,0,0.27902915,284.73921,21.869377)"/>
    <path sodipodi:type="arc" style="fill:#489cc7;fill-opacity:1;stroke:#000000;stroke-width:1.07575083;stroke-opacity:1" id="path4479" sodipodi:cx="166.80144" sodipodi:cy="204.144" sodipodi:rx="2.6516504" sodipodi:ry="4.0406103" d="m 169.45309,204.144 a 2.6516504,4.0406103 0 1 1 -5.3033,0 2.6516504,4.0406103 0 1 1 5.3033,0 z" transform="matrix(0.8991918,0,0,0.96100194,485.18297,16.776863)"/>
    <path transform="matrix(0.42366297,0,0,0.48050099,564.50185,114.86825)" d="m 169.45309,204.144 a 2.6516504,4.0406103 0 1 1 -5.3033,0 2.6516504,4.0406103 0 1 1 5.3033,0 z" sodipodi:ry="4.0406103" sodipodi:rx="2.6516504" sodipodi:cy="204.144" sodipodi:cx="166.80144" id="path4481" style="fill:#000000;fill-opacity:1;stroke:none" sodipodi:type="arc"/>
    <path style="fill:none;stroke:#d40000;stroke-width:2;stroke-linecap:butt;stroke-linejoin:miter;stroke-miterlimit:4;stroke-opacity:1;stroke-dasharray:none" d="m 409.11178,528.6555 c -0.8944,-54.36742 -1.25432,-107.66585 -2.68321,-163.10225 1.6375,-6.16019 -5.36264,-13.75099 -16.78571,-16.78572 5.07153,1.42514 10.34395,3.42423 12.67857,5.00001 3.65838,2.79294 5.32804,0.53703 5.17857,-4.28572 0.55073,-18.251 0.43899,-38.82069 -0.35714,-61.78571 -1.5952,-38.37903 -9.55455,-92.81326 -48.57143,-96.42858 -15.19156,-1.85865 -38.33926,-2.82754 -58.21429,-0.71428 -19.71268,0.58461 -57.00892,3.90994 -75.27048,8.48477 -6.78855,2.1916 -12.08153,1.8447 -10.80095,8.65809 -2.36929,-3.49984 -6.62244,-5.74377 -17.5,-3.57143 -29.91118,5.37226 -58.06078,9.86372 -98.928567,20.71428" id="path4350" sodipodi:nodetypes="cccccccccccc"/>
    <path style="fill:none;stroke:#000000;stroke-width:1px;stroke-linecap:butt;stroke-linejoin:miter;stroke-opacity:1" d="m 629.46429,135.37468 c 5.08676,0.43866 1.13373,5.90938 -1.43755,5.12627 -1.07403,-0.47125 -5.4874,-3.88736 1.43755,-5.12627 z" id="path4501" sodipodi:nodetypes="ccc"/>
    <path style="fill:none;stroke:#000000;stroke-width:1px;stroke-linecap:butt;stroke-linejoin:miter;stroke-opacity:1" d="m 632.16609,144.41872 c 2.89492,-0.60668 2.92064,1.82463 3.03046,4.16688 0.0226,1.63395 -5.44458,-2.72389 -3.03046,-4.16688 z" id="path4503" sodipodi:nodetypes="ccc"/>
    <path style="fill:none;stroke:#000000;stroke-width:1px;stroke-linecap:butt;stroke-linejoin:miter;stroke-opacity:1" d="m 624.96875,145.49201 c -1.34383,0.96315 3.77997,3.5071 3.21987,1.89403 -0.69566,-0.82016 -0.36201,-2.15497 -3.21987,-1.89403 z" id="path4505" sodipodi:nodetypes="ccc"/>
    <path style="fill:none;stroke:#000000;stroke-width:1px;stroke-linecap:butt;stroke-linejoin:miter;stroke-opacity:1" d="m 519.09214,118.40729 c -3.38723,-4.58866 -7.44773,-1.4347 -11.49049,1.51523 -1.31833,1.0521 7.45078,2.83877 11.49049,-1.51523 z" id="path4507" sodipodi:nodetypes="ccc"/>
    <path style="fill:none;stroke:#000000;stroke-width:1px;stroke-linecap:butt;stroke-linejoin:miter;stroke-opacity:1" d="m 532.09785,111.08369 c -5.08207,-1.86951 -8.86063,0.49735 -12.6269,2.90419" id="path4509" sodipodi:nodetypes="cc"/>
    <path style="fill:none;stroke:#000000;stroke-width:1px;stroke-linecap:butt;stroke-linejoin:miter;stroke-opacity:1" d="m 515.55661,112.22011 c -3.64495,-3.25767 -6.01055,-1.39795 -8.71257,-0.88389" id="path4511" sodipodi:nodetypes="cc"/>
    <path style="fill:none;stroke:#000000;stroke-width:1px;stroke-linecap:butt;stroke-linejoin:miter;stroke-opacity:1" d="m 502.42462,112.97772 c -4.12054,-0.17626 -4.23314,1.53357 -2.65165,4.04061 2.66433,-1.5447 2.99597,-2.83021 2.65165,-4.04061 z" id="path4513" sodipodi:nodetypes="ccc"/>
    <path style="fill:none;stroke:#000000;stroke-width:1px;stroke-linecap:butt;stroke-linejoin:miter;stroke-opacity:1" d="m 507.60165,99.340663 c 1.53982,-0.306546 1.0618,-1.016659 1.01016,-1.641498 -1.78897,0.339701 -1.54678,0.969569 -1.01016,1.641498 z" id="path4515" sodipodi:nodetypes="ccc"/>
    <path style="fill:none;stroke:#000000;stroke-width:1px;stroke-linecap:butt;stroke-linejoin:miter;stroke-opacity:1" d="m 512.27361,101.36097 c -0.63051,0.6055 0.90112,1.93133 2.02031,1.6415 0.11418,-0.89722 0.76221,-2.0317 -2.02031,-1.6415 z" id="path4517" sodipodi:nodetypes="ccc"/>
    <path style="fill:none;stroke:#000000;stroke-width:1px;stroke-linecap:butt;stroke-linejoin:miter;stroke-opacity:1" d="m 523.89036,101.61351 c -2.03204,0.34259 -1.3383,-0.67772 -1.51522,-1.26269 1.03791,-0.822399 1.48681,-0.27042 1.51522,1.26269 z" id="path4519" sodipodi:nodetypes="ccc"/>
    <path style="fill:none;stroke:#000000;stroke-width:1px;stroke-linecap:butt;stroke-linejoin:miter;stroke-opacity:1" d="m 361.63461,113.35653 c 0.32203,-3.46908 4.71407,-6.14588 7.32361,-4.41942 0.91178,1.76763 -3.91891,5.07021 -7.32361,4.41942 z" id="path4521" sodipodi:nodetypes="ccc"/>
    <path style="fill:none;stroke:#000000;stroke-width:1px;stroke-linecap:butt;stroke-linejoin:miter;stroke-opacity:1" d="m 358.09908,116.26072 c -0.13465,2.58829 -1.36554,4.48386 -5.80838,1.51523 1.05606,-1.18957 1.82511,-2.60237 5.80838,-1.51523 z" id="path4523" sodipodi:nodetypes="ccc"/>
    <path style="fill:none;stroke:#000000;stroke-width:1px;stroke-linecap:butt;stroke-linejoin:miter;stroke-opacity:1" d="m 156.06857,130.40285 c 4.00604,-2.45624 7.78716,-4.46264 7.82868,1.01016 -0.86573,4.30152 -8.31121,1.52751 -7.82868,-1.01016 z" id="path6149" sodipodi:nodetypes="ccc"/>
    <path style="fill:none;stroke:#000000;stroke-width:1px;stroke-linecap:butt;stroke-linejoin:miter;stroke-opacity:1" d="m 158.46768,137.60019 c -6.5773,-5.4418 -6.11923,0.32955 -8.08122,1.26269 -0.25711,2.53216 8.19786,2.02926 8.08122,-1.26269 z" id="path6151" sodipodi:nodetypes="ccc"/>
    <path style="fill:none;stroke:#000000;stroke-width:1px;stroke-linecap:butt;stroke-linejoin:miter;stroke-opacity:1" d="m 148.87123,143.2823 c 0.98544,2.31453 -7.26053,3.92406 -8.71256,3.53553 3.77459,-2.2976 7.26297,-4.22721 8.71256,-3.53553 z" id="path6153" sodipodi:nodetypes="ccc"/>
    <path style="fill:none;stroke:#000000;stroke-width:1px;stroke-linecap:butt;stroke-linejoin:miter;stroke-opacity:1" d="m 137.00194,135.45362 c -2.74225,-0.11714 -3.53175,2.10902 -4.67196,3.91434 0.49962,1.21831 6.99408,-1.81061 4.67196,-3.91434 z" id="path6155" sodipodi:nodetypes="ccc"/>
    <path style="fill:none;stroke:#000000;stroke-width:1px;stroke-linecap:butt;stroke-linejoin:miter;stroke-opacity:1" d="m 89.777308,142.39842 c -1.591728,-1.40917 -5.736781,-0.10842 -5.808378,2.0203 0.688943,0.62605 6.584633,-0.13803 5.808378,-2.0203 z" id="path6157" sodipodi:nodetypes="ccc"/>
    <path style="fill:none;stroke:#000000;stroke-width:1px;stroke-linecap:butt;stroke-linejoin:miter;stroke-opacity:1" d="m 250.13902,117.64968 c 2.81789,2.98043 7.27342,-2.29492 5.05077,-4.16688 -2.66412,0.29949 -5.34308,0.58248 -5.05077,4.16688 z" id="path6159" sodipodi:nodetypes="ccc"/>
    <path style="fill:none;stroke:#000000;stroke-width:1px;stroke-linecap:butt;stroke-linejoin:miter;stroke-opacity:1" d="m 419.59211,100.09828 c -5.08867,-1.036313 -8.23096,-0.843334 -6.94479,2.14657 4.07484,2.47872 6.62037,-1.18198 6.94479,-2.14657 z" id="path6161" sodipodi:nodetypes="ccc"/>
    <path style="fill:none;stroke:#000000;stroke-width:1px;stroke-linecap:butt;stroke-linejoin:miter;stroke-opacity:1" d="m 592.20193,131.16047 c -0.40438,1.21563 -9.02029,0.23451 -8.33376,-2.02031 4.22137,-1.67217 6.80314,-0.67999 8.33376,2.02031 z" id="path6163" sodipodi:nodetypes="ccc"/>
    <path style="fill:none;stroke:#000000;stroke-width:1px;stroke-linecap:butt;stroke-linejoin:miter;stroke-opacity:1" d="m 567.95827,121.05894 c -1.17199,-2.13975 -3.58453,-2.57376 -7.44988,-1.01015 0.36229,1.83856 8.03145,1.93512 7.44988,1.01015 z" id="path6165" sodipodi:nodetypes="ccc"/>
    <path style="fill:none;stroke:#000000;stroke-width:1px;stroke-linecap:butt;stroke-linejoin:miter;stroke-opacity:1" d="m 620.4862,136.08496 c 0.28383,-5.38381 -4.44171,-3.06092 -8.33376,-2.0203 -1.09396,3.28805 7.61634,3.26844 8.33376,2.0203 z" id="path6167" sodipodi:nodetypes="ccc"/>
    <path style="fill:none;stroke:#000000;stroke-width:1px;stroke-linecap:butt;stroke-linejoin:miter;stroke-opacity:1" d="m 342.18917,105.90666 c 3.14839,-2.18583 8.34371,1.68459 7.82869,2.77791 -3.39634,0.64758 -7.61905,2.9479 -7.82869,-2.77791 z" id="path6675" sodipodi:nodetypes="ccc"/>
    <path style="fill:none;stroke:#000000;stroke-width:1px;stroke-linecap:butt;stroke-linejoin:miter;stroke-opacity:1" d="m 283.85287,109.44219 c 2.69374,3.19456 5.38748,1.64283 8.08122,0.25254 -0.72529,-3.20616 -8.04306,-2.28116 -8.08122,-0.25254 z" id="path6677" sodipodi:nodetypes="ccc"/>
    <path style="fill:none;stroke:#000000;stroke-width:1px;stroke-linecap:butt;stroke-linejoin:miter;stroke-opacity:1" d="m 300.52038,119.79625 c 2.70007,-4.56027 5.9793,-2.74974 9.34391,0 0.72721,1.74983 -7.08541,2.90199 -9.34391,0 z" id="path6679" sodipodi:nodetypes="ccc"/>
    <path style="fill:none;stroke:#000000;stroke-width:1px;stroke-linecap:butt;stroke-linejoin:miter;stroke-opacity:1" d="m 81.31728,158.93966 c 1.7017,1.83925 9.250079,-0.71825 7.828682,-3.28299 -2.887565,-1.1297 -5.61044,-0.94189 -7.828682,3.28299 z" id="path6681" sodipodi:nodetypes="ccc"/>
    <path style="fill:none;stroke:#000000;stroke-width:1px;stroke-linecap:butt;stroke-linejoin:miter;stroke-opacity:1" d="m 113.13709,144.54499 c 3.79012,-4.35892 8.17336,-3.37968 12.6269,-1.76777 -2.21806,2.88608 -12.05699,4.87182 -12.6269,1.76777 z" id="path6683" sodipodi:nodetypes="ccc"/>
    <path style="fill:none;stroke:#000000;stroke-width:1px;stroke-linecap:butt;stroke-linejoin:miter;stroke-opacity:1" d="m 201.96429,111.80325 c 3.47945,2.37019 6.52216,-0.83639 6.60714,-2.14286 -4.58795,-1.96948 -5.7676,-0.10463 -6.60714,2.14286 z" id="path6685" sodipodi:nodetypes="ccc"/>
    <path style="fill:none;stroke:#000000;stroke-width:1px;stroke-linecap:butt;stroke-linejoin:miter;stroke-opacity:1" d="m 195.53571,133.94611 c -1.92393,-1.50498 6.78675,-7.98255 7.32143,-5.53572 -0.32609,2.50598 0.33271,5.31975 -7.32143,5.53572 z" id="path6687" sodipodi:nodetypes="ccc"/>
    <path style="fill:none;stroke:#000000;stroke-width:1px;stroke-linecap:butt;stroke-linejoin:miter;stroke-opacity:1" d="m 218.39286,125.73182 c -0.19702,2.45893 2.19094,2.33286 4.28571,2.5 0.53572,-1.84524 -2.85714,-3.57143 -4.28571,-2.5 z" id="path6689" sodipodi:nodetypes="ccc"/>
    <path style="fill:none;stroke:#000000;stroke-width:1px;stroke-linecap:butt;stroke-linejoin:miter;stroke-opacity:1" d="m 401.07143,87.696105 c 0.89347,-0.828172 2.33167,0.491852 2.14286,1.607143 -2.29108,-0.185316 -1.84847,-0.978119 -2.14286,-1.607143 z" id="path6691" sodipodi:nodetypes="ccc"/>
    <path style="fill:none;stroke:#000000;stroke-width:1px;stroke-linecap:butt;stroke-linejoin:miter;stroke-opacity:1" d="m 369.73214,91.356819 c -0.84524,1.978529 2.01844,2.22652 2.14286,1.964286 0.73894,-0.663927 -0.0806,-2.644106 -2.14286,-1.964286 z" id="path6693" sodipodi:nodetypes="ccc"/>
    <path style="fill:none;stroke:#000000;stroke-width:1px;stroke-linecap:butt;stroke-linejoin:miter;stroke-opacity:1" d="m 364.91072,95.999676 c -0.22534,1.697278 2.1279,2.172018 2.41071,1.785715 1.17497,-1.171946 -1.47536,-2.856465 -2.41071,-1.785715 z" id="path6695" sodipodi:nodetypes="ccc"/>
    <path style="fill:none;stroke:#000000;stroke-width:1px;stroke-linecap:butt;stroke-linejoin:miter;stroke-opacity:1" d="m 315.92521,93.911094 c 1.51578,-0.303225 2.04904,1.908145 1.13642,2.272843 -0.72341,0.269869 -2.49736,-2.239981 -1.13642,-2.272843 z" id="path6697" sodipodi:nodetypes="ccc"/>
    <path style="fill:none;stroke:#000000;stroke-width:1px;stroke-linecap:butt;stroke-linejoin:miter;stroke-opacity:1" d="m 296.42857,93.946105 c 0.67084,0.519722 0.38415,3.075188 -1.69643,2.053571 -0.0394,-2.347959 0.80127,-2.275689 1.69643,-2.053571 z" id="path6699" sodipodi:nodetypes="ccc"/>
    <path style="fill:none;stroke:#000000;stroke-width:1px;stroke-linecap:butt;stroke-linejoin:miter;stroke-opacity:1" d="m 601.04077,117.77595 c -0.23371,-1.22625 1.19365,-2.74748 2.0203,-1.26269 0.81973,1.12456 -1.74151,2.17186 -2.0203,1.26269 z" id="path6701" sodipodi:nodetypes="ccc"/>
    <path style="fill:none;stroke:#000000;stroke-width:1px;stroke-linecap:butt;stroke-linejoin:miter;stroke-opacity:1" d="m 588.54013,117.1446 c 0.75712,-0.38977 3.7317,0.0472 2.90419,2.14658 0.64605,0.74642 -4.13036,-1.23125 -2.90419,-2.14658 z" id="path6703" sodipodi:nodetypes="ccc"/>
    <path style="fill:none;stroke:#000000;stroke-width:1px;stroke-linecap:butt;stroke-linejoin:miter;stroke-opacity:1" d="m 619.85486,125.22582 c -0.95991,0.77826 3.58399,-0.68697 3.6618,-1.76776 -0.26072,-1.27405 -1.37836,-0.88465 -3.6618,1.76776 z" id="path6705" sodipodi:nodetypes="ccc"/>
    <path style="fill:none;stroke:#000000;stroke-width:1px;stroke-linecap:butt;stroke-linejoin:miter;stroke-opacity:1" d="m 569.4735,109.31592 c -1.18855,0.56341 1.70403,3.58461 1.89403,2.52538 -0.27654,-2.26099 -0.94446,-2.95647 -1.89403,-2.52538 z" id="path6707" sodipodi:nodetypes="ccc"/>
    <path style="fill:none;stroke:#000000;stroke-width:1px;stroke-linecap:butt;stroke-linejoin:miter;stroke-opacity:1" d="m 544.09342,104.64396 c -0.49198,-2.15422 2.74394,-2.29995 2.77791,-1.01015 1.23193,0.5133 -1.37812,2.31151 -2.77791,1.01015 z" id="path6709" sodipodi:nodetypes="ccc"/>
    <path style="fill:none;stroke:#000000;stroke-width:1px;stroke-linecap:butt;stroke-linejoin:miter;stroke-opacity:1" d="m 479.56992,95.173784 c -1.04152,0.495328 1.89671,3.094927 1.89404,2.020305 0.60891,-1.863824 -1.28813,-2.276498 -1.89404,-2.020305 z" id="path6711" sodipodi:nodetypes="ccc"/>
    <path style="fill:none;stroke:#000000;stroke-width:1px;stroke-linecap:butt;stroke-linejoin:miter;stroke-opacity:1" d="m 476.91827,106.15919 c 0.47831,-1.33526 1.05159,-1.81573 1.76777,-1.01015 0.83094,0.50955 -1.93479,2.33322 -1.76777,1.01015 z" id="path6713" sodipodi:nodetypes="ccc"/>
    <path style="fill:none;stroke:#000000;stroke-width:1px;stroke-linecap:butt;stroke-linejoin:miter;stroke-opacity:1" d="m 430.32498,93.153479 c 1.56038,-0.671355 1.72888,0.446845 1.6415,1.894036 -0.0179,0.775327 -2.52286,-1.812862 -1.6415,-1.894036 z" id="path6715" sodipodi:nodetypes="ccc"/>
    <path style="fill:none;stroke:#000000;stroke-width:1px;stroke-linecap:butt;stroke-linejoin:miter;stroke-opacity:1" d="m 310.36937,106.03292 c -0.9481,-3.38294 5.60989,-4.5664 6.06092,-3.40926 0.12989,1.43646 -3.97073,5.45673 -6.06092,3.40926 z" id="path6717" sodipodi:nodetypes="ccc"/>
    <path style="fill:none;stroke:#000000;stroke-width:1px;stroke-linecap:butt;stroke-linejoin:miter;stroke-opacity:1" d="m 319.83955,107.29561 6.9448,-0.25253 -6.9448,0.25253 z" id="path6719"/>
    <path style="fill:none;stroke:#000000;stroke-width:1px;stroke-linecap:butt;stroke-linejoin:miter;stroke-opacity:1" d="m 282.96898,121.81656 c -0.46027,-1.36454 1.6723,-4.39479 2.90419,-3.03046 1.51464,1.74156 -1.58587,3.75646 -2.90419,3.03046 z" id="path6721" sodipodi:nodetypes="ccc"/>
    <path style="fill:none;stroke:#000000;stroke-width:1px;stroke-linecap:butt;stroke-linejoin:miter;stroke-opacity:1" d="m 174.37758,135.70616 6.56599,-5.55584 -6.56599,5.55584 z" id="path6723"/>
    <path style="fill:none;stroke:#000000;stroke-width:1px;stroke-linecap:butt;stroke-linejoin:miter;stroke-opacity:1" d="m 184.73165,109.06338 c 2.20823,0.0996 0.0844,4.1438 -1.76777,3.15673 -2.04486,-0.67698 -0.0135,-3.51235 1.76777,-3.15673 z" id="path6725" sodipodi:nodetypes="ccc"/>
    <path style="fill:none;stroke:#000000;stroke-width:1px;stroke-linecap:butt;stroke-linejoin:miter;stroke-opacity:1" d="m 110.2329,127.24613 c 0.33418,-2.15501 0.81431,-3.82355 2.14657,-2.65165 1.5439,0.92383 -1.20839,4.50568 -2.14657,2.65165 z" id="path6727" sodipodi:nodetypes="ccc"/>
  </g>
  <g inkscape:groupmode="layer" id="layer3" inkscape:label="Layer#1" style="display:inline">
    <path sodipodi:type="arc" style="fill:#000000;fill-opacity:1;fill-rule:nonzero;stroke:none" id="path4330" sodipodi:cx="121.21831" sodipodi:cy="187.98155" sodipodi:rx="1.767767" sodipodi:ry="1.767767" d="m 122.98607,187.98155 a 1.767767,1.767767 0 1 1 -3.53553,0 1.767767,1.767767 0 1 1 3.53553,0 z" transform="matrix(1.2142857,0,0,1.2142857,-25.975352,-40.281761)"/>
    <path style="fill:none;stroke:#000000;stroke-width:1px;stroke-linecap:butt;stroke-linejoin:miter;stroke-opacity:1" d="m 121.21831,187.69611 0,92.85714" id="path4332"/>
    <path transform="matrix(1.2142857,0,0,1.2142857,-5.5197629,-23.361706)" d="m 122.98607,187.98155 a 1.767767,1.767767 0 1 1 -3.53553,0 1.767767,1.767767 0 1 1 3.53553,0 z" sodipodi:ry="1.767767" sodipodi:rx="1.767767" sodipodi:cy="187.98155" sodipodi:cx="121.21831" id="path4334" style="fill:#000000;fill-opacity:1;fill-rule:nonzero;stroke:none" sodipodi:type="arc"/>
    <path id="path4336" d="m 141.6739,204.62156 0,110.01897" style="fill:none;stroke:#000000;stroke-width:1px;stroke-linecap:butt;stroke-linejoin:miter;stroke-opacity:1" sodipodi:nodetypes="cc"/>
    <path sodipodi:type="arc" style="fill:#000000;fill-opacity:1;fill-rule:nonzero;stroke:none" id="path4342" sodipodi:cx="121.21831" sodipodi:cy="187.98155" sodipodi:rx="1.767767" sodipodi:ry="1.767767" d="m 122.98607,187.98155 a 1.767767,1.767767 0 1 1 -3.53553,0 1.767767,1.767767 0 1 1 3.53553,0 z" transform="matrix(1.2142857,0,0,1.2142857,51.749363,-109.639)"/>
    <path sodipodi:nodetypes="cc" style="fill:none;stroke:#000000;stroke-width:1px;stroke-linecap:butt;stroke-linejoin:miter;stroke-opacity:1" d="M 198.95089,118.63361 184.30018,84.410294" id="path4344"/>
    <path transform="matrix(1.2142857,0,0,1.2142857,-5.8293321,-63.929597)" d="m 122.98607,187.98155 a 1.767767,1.767767 0 1 1 -3.53553,0 1.767767,1.767767 0 1 1 3.53553,0 z" sodipodi:ry="1.767767" sodipodi:rx="1.767767" sodipodi:cy="187.98155" sodipodi:cx="121.21831" id="path4360" style="fill:#000000;fill-opacity:1;fill-rule:nonzero;stroke:none" sodipodi:type="arc"/>
    <path id="path4362" d="M 141.37219,164.34301 115.35726,112.18949" style="fill:none;stroke:#000000;stroke-width:1px;stroke-linecap:butt;stroke-linejoin:miter;stroke-opacity:1" sodipodi:nodetypes="cc"/>
    <path transform="matrix(1.2142857,0,0,1.2142857,118.41943,-81.859805)" d="m 122.98607,187.98155 a 1.767767,1.767767 0 1 1 -3.53553,0 1.767767,1.767767 0 1 1 3.53553,0 z" sodipodi:ry="1.767767" sodipodi:rx="1.767767" sodipodi:cy="187.98155" sodipodi:cx="121.21831" id="path4364" style="fill:#000000;fill-opacity:1;fill-rule:nonzero;stroke:none" sodipodi:type="arc"/>
    <path id="path4366" d="m 265.62096,146.41281 -29.803,-92.307091" style="fill:none;stroke:#000000;stroke-width:1px;stroke-linecap:butt;stroke-linejoin:miter;stroke-opacity:1" sodipodi:nodetypes="cc"/>
    <path sodipodi:type="arc" style="fill:#000000;fill-opacity:1;fill-rule:nonzero;stroke:none" id="path4368" sodipodi:cx="121.21831" sodipodi:cy="187.98155" sodipodi:rx="1.767767" sodipodi:ry="1.767767" d="m 122.98607,187.98155 a 1.767767,1.767767 0 1 1 -3.53553,0 1.767767,1.767767 0 1 1 3.53553,0 z" transform="matrix(1.2142857,0,0,1.2142857,134.37702,-144.11906)"/>
    <path sodipodi:nodetypes="cc" style="fill:none;stroke:#000000;stroke-width:1px;stroke-linecap:butt;stroke-linejoin:miter;stroke-opacity:1" d="M 281.57855,84.153561 267.48984,35.060754" id="path4370"/>
    <path transform="matrix(1.2142857,0,0,1.2142857,185.80559,-49.476203)" d="m 122.98607,187.98155 a 1.767767,1.767767 0 1 1 -3.53553,0 1.767767,1.767767 0 1 1 3.53553,0 z" sodipodi:ry="1.767767" sodipodi:rx="1.767767" sodipodi:cy="187.98155" sodipodi:cx="121.21831" id="path4372" style="fill:#000000;fill-opacity:1;fill-rule:nonzero;stroke:none" sodipodi:type="arc"/>
    <path id="path4374" d="m 333.00712,178.79642 0.0745,-111.235667" style="fill:none;stroke:#000000;stroke-width:1px;stroke-linecap:butt;stroke-linejoin:miter;stroke-opacity:1" sodipodi:nodetypes="cc"/>
    <path sodipodi:type="arc" style="fill:#000000;fill-opacity:1;fill-rule:nonzero;stroke:none" id="path4376" sodipodi:cx="121.21831" sodipodi:cy="187.98155" sodipodi:rx="1.767767" sodipodi:ry="1.767767" d="m 122.98607,187.98155 a 1.767767,1.767767 0 1 1 -3.53553,0 1.767767,1.767767 0 1 1 3.53553,0 z" transform="matrix(1.2142857,0,0,1.2142857,300.80559,-69.476203)"/>
    <path sodipodi:nodetypes="cc" style="fill:none;stroke:#000000;stroke-width:1px;stroke-linecap:butt;stroke-linejoin:miter;stroke-opacity:1" d="M 448.00712,158.79642 447.96953,55.060753" id="path4378"/>
    <path transform="matrix(1.2142857,0,0,1.2142857,329.37702,-43.404774)" d="m 122.98607,187.98155 a 1.767767,1.767767 0 1 1 -3.53553,0 1.767767,1.767767 0 1 1 3.53553,0 z" sodipodi:ry="1.767767" sodipodi:rx="1.767767" sodipodi:cy="187.98155" sodipodi:cx="121.21831" id="path4380" style="fill:#000000;fill-opacity:1;fill-rule:nonzero;stroke:none" sodipodi:type="arc"/>
    <path id="path4382" d="M 476.57855,184.86785 496.77556,84.703611" style="fill:none;stroke:#000000;stroke-width:1px;stroke-linecap:butt;stroke-linejoin:miter;stroke-opacity:1" sodipodi:nodetypes="cc"/>
    <path sodipodi:type="arc" style="fill:#000000;fill-opacity:1;fill-rule:nonzero;stroke:none" id="path4384" sodipodi:cx="121.21831" sodipodi:cy="187.98155" sodipodi:rx="1.767767" sodipodi:ry="1.767767" d="m 122.98607,187.98155 a 1.767767,1.767767 0 1 1 -3.53553,0 1.767767,1.767767 0 1 1 3.53553,0 z" transform="matrix(1.2142857,0,0,1.2142857,467.23416,-61.61906)"/>
    <path sodipodi:nodetypes="cc" style="fill:none;stroke:#000000;stroke-width:1px;stroke-linecap:butt;stroke-linejoin:miter;stroke-opacity:1" d="m 614.43569,166.65356 6.55995,109.44242" id="path4386"/>
    <path transform="matrix(1.2142857,0,0,1.2142857,420.26207,-44.951543)" d="m 122.98607,187.98155 a 1.767767,1.767767 0 1 1 -3.53553,0 1.767767,1.767767 0 1 1 3.53553,0 z" sodipodi:ry="1.767767" sodipodi:rx="1.767767" sodipodi:cy="187.98155" sodipodi:cx="121.21831" id="path4388" style="fill:#000000;fill-opacity:1;fill-rule:nonzero;stroke:none" sodipodi:type="arc"/>
    <path id="path4390" d="m 567.4636,183.32108 15.14625,123.58456" style="fill:none;stroke:#000000;stroke-width:1px;stroke-linecap:butt;stroke-linejoin:miter;stroke-opacity:1" sodipodi:nodetypes="cc"/>
    <path sodipodi:type="arc" style="fill:#000000;fill-opacity:1;fill-rule:nonzero;stroke:none" id="path4392" sodipodi:cx="121.21831" sodipodi:cy="187.98155" sodipodi:rx="1.767767" sodipodi:ry="1.767767" d="m 122.98607,187.98155 a 1.767767,1.767767 0 1 1 -3.53553,0 1.767767,1.767767 0 1 1 3.53553,0 z" transform="matrix(1.2142857,0,0,1.2142857,298.68662,140.20224)"/>
    <path sodipodi:nodetypes="cc" style="fill:none;stroke:#000000;stroke-width:1px;stroke-linecap:butt;stroke-linejoin:miter;stroke-opacity:1" d="m 445.88815,368.47486 -176.99661,0.0131" id="path4394"/>
    <path transform="matrix(1.2142857,0,0,1.2142857,260.11519,178.05938)" d="m 122.98607,187.98155 a 1.767767,1.767767 0 1 1 -3.53553,0 1.767767,1.767767 0 1 1 3.53553,0 z" sodipodi:ry="1.767767" sodipodi:rx="1.767767" sodipodi:cy="187.98155" sodipodi:cx="121.21831" id="path4396" style="fill:#000000;fill-opacity:1;fill-rule:nonzero;stroke:none" sodipodi:type="arc"/>
    <path id="path4398" d="M 407.31672,406.332 273.5344,406.3451" style="fill:none;stroke:#000000;stroke-width:1px;stroke-linecap:butt;stroke-linejoin:miter;stroke-opacity:1" sodipodi:nodetypes="cc"/>
    <path transform="matrix(1.2142857,0,0,1.2142857,354.75009,127.07026)" d="m 122.98607,187.98155 a 1.767767,1.767767 0 1 1 -3.53553,0 1.767767,1.767767 0 1 1 3.53553,0 z" sodipodi:ry="1.767767" sodipodi:rx="1.767767" sodipodi:cy="187.98155" sodipodi:cx="121.21831" id="path4400" style="fill:#000000;fill-opacity:1;fill-rule:nonzero;stroke:none" sodipodi:type="arc"/>
    <path id="path4402" d="m 501.95162,355.34288 45.74203,0.0131" style="fill:none;stroke:#000000;stroke-width:1px;stroke-linecap:butt;stroke-linejoin:miter;stroke-opacity:1" sodipodi:nodetypes="cc"/>
    <switch style="font-size:16px;font-style:normal;font-variant:normal;font-weight:normal;font-stretch:normal;text-align:end;text-anchor:end;fill:#000000;fill-opacity:1;stroke:none;font-family:Arial;-inkscape-font-specification:Arial"><text xml:space="preserve" style="font-size:16px;font-style:normal;font-variant:normal;font-weight:normal;font-stretch:normal;text-align:end;text-anchor:end;fill:#000000;fill-opacity:1;stroke:none;font-family:Arial;-inkscape-font-specification:Arial" x="264.28574" y="369.12469" id="text4404-fa" systemLanguage="fa"><tspan sodipodi:role="line" id="tspan4406-fa" x="264.28574" y="369.12469">داس مغز</tspan></text><text xml:space="preserve" style="font-size:16px;font-style:normal;font-variant:normal;font-weight:normal;font-stretch:normal;text-align:end;text-anchor:end;fill:#000000;fill-opacity:1;stroke:none;font-family:Arial;-inkscape-font-specification:Arial" x="264.28574" y="369.12469" id="text4404"><tspan sodipodi:role="line" id="tspan4406" x="264.28574" y="369.12469">Falx cerebri</tspan></text></switch>
    <switch style="font-size:16px;font-style:normal;font-variant:normal;font-weight:normal;font-stretch:normal;text-align:end;text-anchor:end;fill:#000000;fill-opacity:1;stroke:none;font-family:Arial;-inkscape-font-specification:Arial"><text id="text4408-fa" y="407.69611" x="263.57144" style="font-size:16px;font-style:normal;font-variant:normal;font-weight:normal;font-stretch:normal;text-align:end;text-anchor:end;fill:#000000;fill-opacity:1;stroke:none;font-family:Arial;-inkscape-font-specification:Arial" xml:space="preserve" systemLanguage="fa"><tspan y="407.69611" x="263.57144" id="tspan4410-fa" sodipodi:role="line">نرم‌شامه</tspan></text><text id="text4408" y="407.69611" x="263.57144" style="font-size:16px;font-style:normal;font-variant:normal;font-weight:normal;font-stretch:normal;text-align:end;text-anchor:end;fill:#000000;fill-opacity:1;stroke:none;font-family:Arial;-inkscape-font-specification:Arial" xml:space="preserve"><tspan y="407.69611" x="263.57144" id="tspan4410" sodipodi:role="line">Pia mater</tspan></text></switch>
    <switch style="font-size:16px;font-style:normal;font-variant:normal;font-weight:normal;font-stretch:normal;text-align:end;text-anchor:end;fill:#000000;fill-opacity:1;stroke:none;font-family:Arial;-inkscape-font-specification:Arial"><text xml:space="preserve" style="font-size:16px;font-style:normal;font-variant:normal;font-weight:normal;font-stretch:normal;text-align:end;text-anchor:end;fill:#000000;fill-opacity:1;stroke:none;font-family:Arial;-inkscape-font-specification:Arial" x="152.14287" y="332.98181" id="text4412-fa" systemLanguage="fa"><tspan sodipodi:role="line" id="tspan4414-fa" x="152.14287" y="332.98181">مننژ</tspan></text><text xml:space="preserve" style="font-size:16px;font-style:normal;font-variant:normal;font-weight:normal;font-stretch:normal;text-align:end;text-anchor:end;fill:#000000;fill-opacity:1;stroke:none;font-family:Arial;-inkscape-font-specification:Arial" x="152.14287" y="332.98181" id="text4412"><tspan sodipodi:role="line" id="tspan4414" x="152.14287" y="332.98181">Subarachnoid cavity</tspan></text></switch>
    <switch style="font-size:16px;font-style:normal;font-variant:normal;font-weight:normal;font-stretch:normal;text-align:end;text-anchor:end;fill:#000000;fill-opacity:1;stroke:none;font-family:Arial;-inkscape-font-specification:Arial"><text id="text4416-fa" y="296.47675" x="128.27557" style="font-size:16px;font-style:normal;font-variant:normal;font-weight:normal;font-stretch:normal;text-align:end;text-anchor:end;fill:#000000;fill-opacity:1;stroke:none;font-family:Arial;-inkscape-font-specification:Arial" xml:space="preserve" systemLanguage="fa"><tspan y="296.47675" x="128.27557" id="tspan4418-fa" sodipodi:role="line">فضای ساب‌دورال</tspan></text><text id="text4416" y="296.47675" x="128.27557" style="font-size:16px;font-style:normal;font-variant:normal;font-weight:normal;font-stretch:normal;text-align:end;text-anchor:end;fill:#000000;fill-opacity:1;stroke:none;font-family:Arial;-inkscape-font-specification:Arial" xml:space="preserve"><tspan y="296.47675" x="128.27557" id="tspan4418" sodipodi:role="line">Subdural cavity</tspan></text></switch>
    <switch style="font-size:16px;font-style:normal;font-variant:normal;font-weight:normal;font-stretch:normal;text-align:end;text-anchor:end;fill:#000000;fill-opacity:1;stroke:none;font-family:Arial;-inkscape-font-specification:Arial"><text xml:space="preserve" style="font-size:16px;font-style:normal;font-variant:normal;font-weight:normal;font-stretch:normal;text-align:end;text-anchor:end;fill:#000000;fill-opacity:1;stroke:none;font-family:Arial;-inkscape-font-specification:Arial" x="118.17405" y="102.52745" id="text4420-fa" systemLanguage="fa"><tspan sodipodi:role="line" id="tspan4422-fa" x="118.17405" y="102.52745">سیاهرگ مننژیال</tspan></text><text xml:space="preserve" style="font-size:16px;font-style:normal;font-variant:normal;font-weight:normal;font-stretch:normal;text-align:end;text-anchor:end;fill:#000000;fill-opacity:1;stroke:none;font-family:Arial;-inkscape-font-specification:Arial" x="118.17405" y="102.52745" id="text4420"><tspan sodipodi:role="line" id="tspan4422" x="118.17405" y="102.52745">Meningeal vein</tspan></text></switch>
    <switch style="font-size:16px;font-style:normal;font-variant:normal;font-weight:normal;font-stretch:normal;text-align:end;text-anchor:end;fill:#000000;fill-opacity:1;stroke:none;font-family:Arial;-inkscape-font-specification:Arial"><text id="text4424-fa" y="73.738106" x="199.49133" style="font-size:16px;font-style:normal;font-variant:normal;font-weight:normal;font-stretch:normal;text-align:end;text-anchor:end;fill:#000000;fill-opacity:1;stroke:none;font-family:Arial;-inkscape-font-specification:Arial" xml:space="preserve" systemLanguage="fa"><tspan y="73.738106" x="199.49133" id="tspan4426-fa" sodipodi:role="line">سیاهرگ دیپلوئیک</tspan></text><text id="text4424" y="73.738106" x="199.49133" style="font-size:16px;font-style:normal;font-variant:normal;font-weight:normal;font-stretch:normal;text-align:end;text-anchor:end;fill:#000000;fill-opacity:1;stroke:none;font-family:Arial;-inkscape-font-specification:Arial" xml:space="preserve"><tspan y="73.738106" x="199.49133" id="tspan4426" sodipodi:role="line">Diploic vein</tspan></text></switch>
    <switch style="font-size:16px;font-style:normal;font-variant:normal;font-weight:normal;font-stretch:normal;text-align:end;text-anchor:end;fill:#000000;fill-opacity:1;stroke:none;font-family:Arial;-inkscape-font-specification:Arial"><text xml:space="preserve" style="font-size:16px;font-style:normal;font-variant:normal;font-weight:normal;font-stretch:normal;text-align:end;text-anchor:end;fill:#000000;fill-opacity:1;stroke:none;font-family:Arial;-inkscape-font-specification:Arial" x="256.05988" y="42.928452" id="text4428-fa" systemLanguage="fa"><tspan sodipodi:role="line" id="tspan4430-fa" x="256.05988" y="42.928452">حفره سیاهرگی</tspan></text><text xml:space="preserve" style="font-size:16px;font-style:normal;font-variant:normal;font-weight:normal;font-stretch:normal;text-align:end;text-anchor:end;fill:#000000;fill-opacity:1;stroke:none;font-family:Arial;-inkscape-font-specification:Arial" x="256.05988" y="42.928452" id="text4428"><tspan sodipodi:role="line" id="tspan4430" x="256.05988" y="42.928452">Venous lacuna</tspan></text></switch>
    <switch style="font-size:16px;font-style:normal;font-variant:normal;font-weight:normal;font-stretch:normal;text-align:end;text-anchor:end;fill:#000000;fill-opacity:1;stroke:none;font-family:Arial;-inkscape-font-specification:Arial"><text id="text4432-fa" y="23.735554" x="319.69949" style="font-size:16px;font-style:normal;font-variant:normal;font-weight:normal;font-stretch:normal;text-align:end;text-anchor:end;fill:#000000;fill-opacity:1;stroke:none;font-family:Arial;-inkscape-font-specification:Arial" xml:space="preserve" systemLanguage="fa"><tspan y="23.735554" x="319.69949" id="tspan4434-fa" sodipodi:role="line">سیاهرگ بیرون‌دهنده</tspan></text><text id="text4432" y="23.735554" x="319.69949" style="font-size:16px;font-style:normal;font-variant:normal;font-weight:normal;font-stretch:normal;text-align:end;text-anchor:end;fill:#000000;fill-opacity:1;stroke:none;font-family:Arial;-inkscape-font-specification:Arial" xml:space="preserve"><tspan y="23.735554" x="319.69949" id="tspan4434" sodipodi:role="line">Emissary vein</tspan></text></switch>
    <switch style="font-size:16px;font-style:normal;font-variant:normal;font-weight:normal;font-stretch:normal;text-align:start;text-anchor:start;fill:#000000;fill-opacity:1;stroke:none;font-family:Arial;-inkscape-font-specification:Arial"><text xml:space="preserve" style="font-size:16px;font-style:normal;font-variant:normal;font-weight:normal;font-stretch:normal;text-align:start;text-anchor:start;fill:#000000;fill-opacity:1;stroke:none;font-family:Arial;-inkscape-font-specification:Arial" x="304.54718" y="56.565514" id="text4436-fa" systemLanguage="fa"><tspan sodipodi:role="line" id="tspan4438-fa" x="304.54718" y="56.565514">سیاهرگ مغزی</tspan></text><text xml:space="preserve" style="font-size:16px;font-style:normal;font-variant:normal;font-weight:normal;font-stretch:normal;text-align:start;text-anchor:start;fill:#000000;fill-opacity:1;stroke:none;font-family:Arial;-inkscape-font-specification:Arial" x="304.54718" y="56.565514" id="text4436"><tspan sodipodi:role="line" id="tspan4438" x="304.54718" y="56.565514">Cerebral vein</tspan></text></switch>
    <switch style="font-size:16px;font-style:normal;font-variant:normal;font-weight:normal;font-stretch:normal;text-align:start;text-anchor:start;fill:#000000;fill-opacity:1;stroke:none;font-family:Arial;-inkscape-font-specification:Arial"><text id="text4440-fa" y="44.948761" x="437.38223" style="font-size:16px;font-style:normal;font-variant:normal;font-weight:normal;font-stretch:normal;text-align:start;text-anchor:start;fill:#000000;fill-opacity:1;stroke:none;font-family:Arial;-inkscape-font-specification:Arial" xml:space="preserve" systemLanguage="fa"><tspan y="44.948761" x="437.38223" id="tspan4442-fa" sodipodi:role="line">سینوس ساژیتال بالایی</tspan></text><text id="text4440" y="44.948761" x="437.38223" style="font-size:16px;font-style:normal;font-variant:normal;font-weight:normal;font-stretch:normal;text-align:start;text-anchor:start;fill:#000000;fill-opacity:1;stroke:none;font-family:Arial;-inkscape-font-specification:Arial" xml:space="preserve"><tspan y="44.948761" x="437.38223" id="tspan4442" sodipodi:role="line">Sup. sagittal sinus</tspan></text></switch>
    <switch style="font-size:16px;font-style:normal;font-variant:normal;font-weight:normal;font-stretch:normal;text-align:start;text-anchor:start;fill:#000000;fill-opacity:1;stroke:none;font-family:Arial;-inkscape-font-specification:Arial"><text xml:space="preserve" style="font-size:16px;font-style:normal;font-variant:normal;font-weight:normal;font-stretch:normal;text-align:start;text-anchor:start;fill:#000000;fill-opacity:1;stroke:none;font-family:Arial;-inkscape-font-specification:Arial" x="489.91016" y="74.243187" id="text4444-fa" systemLanguage="fa"><tspan sodipodi:role="line" id="tspan4446-fa" x="489.91016" y="74.243187">پرز گرانوله آراکنوئید</tspan></text><text xml:space="preserve" style="font-size:16px;font-style:normal;font-variant:normal;font-weight:normal;font-stretch:normal;text-align:start;text-anchor:start;fill:#000000;fill-opacity:1;stroke:none;font-family:Arial;-inkscape-font-specification:Arial" x="489.91016" y="74.243187" id="text4444"><tspan sodipodi:role="line" id="tspan4446" x="489.91016" y="74.243187">Arachnoid granulation</tspan></text></switch>
    <switch style="font-size:16px;font-style:normal;font-variant:normal;font-weight:normal;font-stretch:normal;text-align:start;text-anchor:start;fill:#000000;fill-opacity:1;stroke:none;font-family:Arial;-inkscape-font-specification:Arial"><text id="text4452-fa" y="295.17075" x="611.27643" style="font-size:16px;font-style:normal;font-variant:normal;font-weight:normal;font-stretch:normal;text-align:start;text-anchor:start;fill:#000000;fill-opacity:1;stroke:none;font-family:Arial;-inkscape-font-specification:Arial" xml:space="preserve" systemLanguage="fa"><tspan y="295.17075" x="611.27643" id="tspan4454-fa" sodipodi:role="line">سخت‌شامه</tspan></text><text id="text4452" y="295.17075" x="611.27643" style="font-size:16px;font-style:normal;font-variant:normal;font-weight:normal;font-stretch:normal;text-align:start;text-anchor:start;fill:#000000;fill-opacity:1;stroke:none;font-family:Arial;-inkscape-font-specification:Arial" xml:space="preserve"><tspan y="295.17075" x="611.27643" id="tspan4454" sodipodi:role="line">Dura mater</tspan></text></switch>
    <switch style="font-size:16px;font-style:normal;font-variant:normal;font-weight:normal;font-stretch:normal;text-align:start;text-anchor:start;fill:#000000;fill-opacity:1;stroke:none;font-family:Arial;-inkscape-font-specification:Arial"><text xml:space="preserve" style="font-size:16px;font-style:normal;font-variant:normal;font-weight:normal;font-stretch:normal;text-align:start;text-anchor:start;fill:#000000;fill-opacity:1;stroke:none;font-family:Arial;-inkscape-font-specification:Arial" x="572.70502" y="324.45645" id="text4456-fa" systemLanguage="fa"><tspan sodipodi:role="line" id="tspan4458-fa" x="572.70502" y="324.45645">عنکبوتیه (آراکنوئید)</tspan></text><text xml:space="preserve" style="font-size:16px;font-style:normal;font-variant:normal;font-weight:normal;font-stretch:normal;text-align:start;text-anchor:start;fill:#000000;fill-opacity:1;stroke:none;font-family:Arial;-inkscape-font-specification:Arial" x="572.70502" y="324.45645" id="text4456"><tspan sodipodi:role="line" id="tspan4458" x="572.70502" y="324.45645">Arachnoid</tspan></text></switch>
    <switch style="font-size:16px;font-style:normal;font-variant:normal;font-weight:normal;font-stretch:normal;text-align:start;text-anchor:start;fill:#000000;fill-opacity:1;stroke:none;font-family:Arial;-inkscape-font-specification:Arial"><text id="text4460-fa" y="361.95645" x="557.70502" style="font-size:16px;font-style:normal;font-variant:normal;font-weight:normal;font-stretch:normal;text-align:start;text-anchor:start;fill:#000000;fill-opacity:1;stroke:none;font-family:Arial;-inkscape-font-specification:Arial" xml:space="preserve" systemLanguage="fa"><tspan y="361.95645" x="557.70502" id="tspan4462-fa" sodipodi:role="line">کورتکس مغزی</tspan></text><text id="text4460" y="361.95645" x="557.70502" style="font-size:16px;font-style:normal;font-variant:normal;font-weight:normal;font-stretch:normal;text-align:start;text-anchor:start;fill:#000000;fill-opacity:1;stroke:none;font-family:Arial;-inkscape-font-specification:Arial" xml:space="preserve"><tspan y="361.95645" x="557.70502" id="tspan4462" sodipodi:role="line">Cerebral cortex</tspan></text></switch>
  </g>
</svg>
