<?xml version="1.0" encoding="utf-8"?>
<!-- Generator: Adobe Illustrator 26.3.1, SVG Export Plug-In . SVG Version: 6.00 Build 0)  -->
<svg version="1.1" id="Layer_1" xmlns="http://www.w3.org/2000/svg" xmlns:xlink="http://www.w3.org/1999/xlink" x="0px" y="0px"
	 viewBox="0 0 1000 1000" style="enable-background:new 0 0 1000 1000;" xml:space="preserve">
<style type="text/css">
	.st0{fill:#FC95E8;}
	.st1{fill:#F4ABE9;}
	.st2{fill:#E570D5;}
	.st3{opacity:0.22;fill:#FBF8FF;enable-background:new    ;}
	.st4{opacity:0.5;fill:#C647BA;enable-background:new    ;}
	.st5{fill:#A3219D;}
	.st6{opacity:0.6;}
	.st7{fill:#FFFFFF;}
	.st8{opacity:0.6;fill:#FFFFFF;enable-background:new    ;}
	.st9{font-family:'ArialMT';}
	.st10{font-size:34px;}
</style>
<path class="st0" d="M385.7,86.1c-0.3-0.8-0.7-1.4-1.1-1.7C384.7,84.3,385.1,84.8,385.7,86.1z"/>
<path class="st0" d="M407.4,89.2c0,0,0,0.3-0.1,0.9C407.4,89.8,407.4,89.5,407.4,89.2z"/>
<path class="st0" d="M334.6,131.9c-0.4,0.1-0.7,0.2-0.8,0.4C333.8,132.3,334.1,132.2,334.6,131.9z"/>
<path class="st0" d="M193.5,90.5c0,0,0.9,0.7,2.2,2C194.9,91.5,194.1,90.8,193.5,90.5z"/>
<path class="st0" d="M227.2,88.3c0-0.6-0.1-1.1-0.2-1.3C227,86.9,227.2,87.4,227.2,88.3z"/>
<path class="st0" d="M223.1,137.2c0,0,0.2,0.3,0.6,0.8C223.5,137.6,223.3,137.4,223.1,137.2z"/>
<g>
	<path class="st0" d="M97,360.9c0.1,0.3,0.2,0.6,0.4,0.7C97.4,361.6,97.3,361.4,97,360.9z"/>
	<path class="st0" d="M168.7,379c0,0.1,0,0.2,0,0.3C168.7,379.3,168.7,379.2,168.7,379z"/>
	<g>
		<path class="st0" d="M269.3,318.2c0,0-0.2-0.1-0.6-0.4C269,318,269.2,318.1,269.3,318.2z"/>
		<path class="st0" d="M155.8,169.9c0,0,0.2,0.2,0.5,0.6C156.2,170.2,156,170,155.8,169.9z"/>
		<path class="st0" d="M149.4,170.6c-0.2-0.1-0.3-0.1-0.4-0.1C149,170.5,149.2,170.5,149.4,170.6z"/>
		<path class="st0" d="M427.8,275.4c0,0-0.8,0.1-2.2,0.1C426.6,275.6,427.3,275.6,427.8,275.4z"/>
		<path class="st0" d="M220.3,262.8c0,0-0.3,0.4-0.9,1C219.9,263.4,220.2,263.1,220.3,262.8z"/>
		<path class="st0" d="M178.5,167.6c0.1-0.4,0.1-0.7,0-0.9C178.5,166.7,178.5,167,178.5,167.6z"/>
		<path class="st0" d="M185.6,174c0,0-0.1,0.1-0.3,0.3C185.5,174.2,185.6,174.1,185.6,174z"/>
		<g>
			<path class="st0" d="M449.7,212c0,0-18.5-9.9-37.3,5.6c-14.4,11.8-37.8,19.7-37.8,19.7l-21.5-0.8l0.1-0.2
				c-11.1-1.1-78.8,0.8-83.5,0.4c-4-0.6-20-2.8-36.4-0.7c-11.5-0.4-24.5-6.3-37.2-12.1c-8.2-3.7-16-7.3-23.2-9.3
				c-3.3-2.9-7.5-7.7-8.8-13.9c-1.1-5.3,4.7-14.9,9.5-23.8l-0.2,0.1c0.4-0.6,0.7-1,0.9-1.4c1.2-2.3,3.4-7.1,6.9-11.7
				c1.4-0.6,2.9-1,4.5-0.8c4.6,0.3,7-1.5,7.8-2.2c-1,0.8-4.3,1.7-8.6,1.1c-0.7-0.1-1.4-0.1-2.1,0.1c3.1-3.5,7.2-6.5,12.3-7.6
				c2-0.4,3.8-0.9,5.3-1.6l0,0c1.8-0.2,3.8,0,5.5,0.9c4,2.1,7,1.4,8,1c-1.2,0.3-4.6-0.2-8.3-2.3c-0.8-0.5-1.6-0.7-2.5-0.9
				c4.3-2.3,6.3-5.1,7.1-6.4c-1.7,2.2-8.2,6-17.5,7.4c-5.4,0.8-9.7,4.6-13.5,9.1c0.3-2.8,1.2-5.6,3-8.1c5.2-7.4,4.5-13.1,3.9-15.2
				c0.2,1.6-0.5,4.9-2.5,8.9c-0.9-1.3-1.5-2.8-1.5-4.5c-0.2-4.5-2.3-6.5-3.1-7.2c0.9,0.9,2.2,3.9,2.1,8.1c0,1.8,0.7,3.5,1.9,5
				c-0.9,1.7-2.1,3.4-3.5,5.1c-2.5,3.2-3.3,7.3-3.2,11.6c-2.6,3.5-5,7-7.4,9.9c-1.5,1.7-2.1,2.6-5,6.7l0.1,0.2
				c-3.9,6.5-6.1,13.2-4.7,19.4c0.5,2.6,1.5,4.9,2.6,7c-4-3.8-7.8-9.3-9.9-16.8c-0.4-1.5-0.8-2.9-1.2-4.3
				c-3.3-11.8-6-21.3-10.7-28.9H140c-1.6-3.7-3.2-7.1-4.5-9c-2.8-4.1-11.6-16.2-7.6-27.8c0.6-1.9,1-3.6,1.3-5.2l0,0
				c0.8-1.6,1.9-3.1,3.6-4.1c3.9-2.3,4.7-5.1,4.9-6.2c-0.4,1.2-2.5,3.8-6.2,5.7c-0.8,0.4-1.5,1-2.1,1.7c0.1-4.6-1.3-7.7-2.1-9.1
				c1.1,2.5,1.2,9.7-2.2,18.2c-1.9,4.8-1,10.1,1,15.4c-2.2-1.6-4-3.6-5.3-6.2c-3.9-8-9.4-10.1-11.5-10.7c1.5,0.6,4.2,2.8,6.7,6.4
				c-1.6,0.1-3.3-0.2-4.8-0.9c-4.1-2.1-7-1.3-8-0.9c1.2-0.3,4.6,0.1,8.3,2.3c1.6,0.9,3.4,1.1,5.4,0.9c1,1.6,2,3.4,2.8,5.4
				c1.5,3.5,4.6,6.1,8.3,8.1c1.8,4,3.9,7.8,5.5,11.2c1.7,3.8,1.2,2.8,2.4,5c5.1,7.2,6.7,17.4,10.2,30.1c0.4,1.4,0.8,2.8,1.2,4.3
				c2.6,9.1,7.2,15.4,12,19.8c-16.3,1.2-33.3,11.5-43.5,18.9l-0.2-0.3c-5,4-10.2,8.4-12.5,11c-2.7,3.1-7.8,9.8-14.9,15.6
				c-2.3,0.4-4.8,0.4-7.3-0.3c-7-2.2-11.4-0.2-12.9,0.6c1.9-0.8,7.3-1,13.7,1.4c1.1,0.4,2.2,0.6,3.3,0.7c-6.1,4.3-13.5,7.5-21.8,7.3
				c-3.2-0.1-6.2,0.1-8.8,0.5l0,0c-2.9-0.4-5.8-1.4-8.2-3.4c-5.5-4.7-10.3-4.7-12-4.4c2,0,7.1,1.9,12,6.6c1,1,2.3,1.7,3.6,2.3
				c-7.4,2-11.6,5.6-13.4,7.4c3.5-2.8,14.8-6.4,29.8-5.2c8.6,0.7,16.7-3.6,24.2-9.3c-1.5,4.2-3.9,8.2-7.6,11.4
				c-10.8,9.5-11.7,18.7-11.6,22.1c0.3-2.6,2.5-7.5,7.1-12.9c0.9,2.4,1.3,4.9,0.7,7.6c-1.4,7,1.1,11,2.2,12.3
				c-1.1-1.7-1.9-6.9-0.3-13.3c0.7-2.8,0.1-5.6-1.1-8.4c2-2.2,4.4-4.5,7.2-6.7c5.1-4,7.8-10.1,9.2-16.9c1.2-1,2.5-2.1,3.7-3.1
				c3,1,8.8,4.9,13.9,11.9c3.2,4.4,8.1,7.5,13.9,8.8c-2.6,1-5.1,0.4-8.2,0c-9-1.3-13.7,2.1-15.3,3.5c1.3-0.9,4.6-1.8,9-1.9
				c-0.8,1.4-1.8,2.6-3.3,3.5c-3.9,2.2-4.8,5-5,6.1c0.4-1.2,2.5-3.7,6.2-5.6c1.6-0.8,2.7-2.2,3.6-4c1.9,0.1,4,0.3,6.2,0.7
				c4,0.8,5.8,3.3,9.7,1.2c0.1,0,0.1,0,0.2,0l-0.2,0.4c0.1-0.1,0.2-0.2,0.2-0.4c1.1,0.2,2.6,0.7,3.7,0.9c4.6,1.3,11.7,3.7,20.8,7.8
				c6.1,2.8,12.7,3,19.3,0.7c-7.7,11.4-15.8,22.4-23.5,28.8l0.2,0.2l-0.1,0.1c-2.4,0.7-5,0.9-7.7,0.8c-14.2-0.1-21.1,6.2-23.4,8.8
				c2-1.8,6.9-3.9,13.9-4.9c-1,2.4-2.5,4.6-4.7,6.3c-5.8,4.3-6.8,9-6.9,10.8c0.4-2,3.4-6.5,9-10.2c2.4-1.6,4-4.2,5.1-7.1
				c3-0.3,6.2-0.4,9.7-0.1c0,0-10.3,13-12.6,17.7c-2.5,5-8.7,20.9-22.1,23.8c-2.1,0.5-4,1.1-5.6,1.8l0,0c-2,0.2-4,0-5.9-1
				c-4.3-2.4-7.4-1.6-8.5-1.1c1.3-0.3,4.9,0.2,8.8,2.6c0.8,0.5,1.7,0.8,2.7,1c-4.5,2.6-6.7,5.7-7.6,7.2c1.8-2.5,8.7-6.8,18.6-8.4
				c5.7-0.9,10.3-5,14.3-10.1c-0.4,3.1-1.3,6.1-3.2,8.9c-5.6,8.3-4.7,14.8-4.1,17.1c-0.2-1.8,0.5-5.6,2.6-10
				c0.9,1.5,1.6,3.2,1.7,5.1c0.2,5.1,2.4,7.4,3.3,8.1c-0.9-1-2.3-4.4-2.2-9.1c0-2-0.8-3.9-2-5.7c1-1.9,2.2-3.8,3.7-5.8
				c2.7-3.5,3.5-8.1,3.4-12.9c2.8-4,5.3-8.1,7.9-11.4c5-6.5,7.1-9.7,17.6-16.9l0.1,0.1c5.9-5.1,11.8-12.3,17.5-20.1
				c-0.1,4.2,0.3,8.8,1.6,13.1c2.4,7.9,1.3,13.2-0.5,16.7l0.1,0.1c-0.1,0.3-0.2,0.6-0.3,0.9c-1.8,4.6-5.8,19.2-17.8,22.7
				c-9.5,2.8-12.8,8.3-13.7,10.4c1.4-2.3,7.3-6.6,16.3-8.7c4.7-1.1,8.7-4.4,12-8.5c-0.2,2.3-0.8,4.5-1.9,6.6
				c-4.2,7.8-2.8,13.5-2,15.5c-0.6-2.4,0.3-9,4.7-16c1.8-2.9,2.2-6.4,2-10c2.4-3.8,4.3-7.9,5.6-11.6c3.1-6.8,2-14.3,0.5-19.6
				c-2.1-6.9-1.4-15.3-0.7-19.8c2.9-4.2,5.7-8.5,8.4-12.6c7.8-11.9,15.2-23.2,20.9-28.1c6.1-5.3,15.1-8,24.1-9.3
				c2.6,0.1,5.1-0.1,7.6-0.6c0.2,0,0.4-0.1,0.6-0.2c8.8-0.4,86.2-0.4,105,1.7c4.8,0.7,14.9,2.2,24.4,3.6c13.2,1.9,39.8,20.5,43,22.8
				s40.3,20.8,56-6.6C489.5,231.3,449.7,212,449.7,212z M99.9,254.1c2.4-2.1,4.7-4.1,6.9-5.9c0.5,1.5,1,3.8,0.8,6.6
				c-0.1,0.9,0.1,1.8,0.4,2.7C104.7,255.1,101.7,254.4,99.9,254.1z M204.3,247.1c-6.6,5.7-13.9,16.9-22.4,29.8
				c-0.5,0.8-1,1.6-1.6,2.4c-0.7,0.5-1.4,1-2.2,1.4c-7.2,4.2-14.2,4.9-20.7,1.9c-9.8-4.5-17.2-6.9-22.1-8.3c-2.1-0.8-4.1-1.6-6.5-2
				c-1.2-0.9-2-3.2-2.6-4.7c-1.8-4.2-4.5-5.5-5.6-5.9c1.1,0.6,3.5,3.1,4.9,7.1c0.2,0.7,0.6,1.3,1,1.9c-4.5-1.2-9.1-3.4-12.4-7.5
				c-1.3-1.6-2.6-2.9-3.8-4l0,0c-1-1.5-1.7-3.3-1.7-5.3c0-2.8-0.8-4.8-1.5-6c1.4-1.1,2.7-2.2,4-3.1c2.1-1.5,4.1-2.8,6-4l0,0l0.1-0.1
				c0.7-0.4,1.5-0.9,2.2-1.3l-0.1-0.2c3.1-2.3,6.9-4.8,11.1-7.4c14.1-8.3,26.5-11.9,36-10.4c7.5,1.2,16.6,5.4,26.2,9.7
				c7.2,3.3,14.9,6.8,22.6,9.3C211.2,242.2,207.5,244.3,204.3,247.1z"/>
			<path class="st0" d="M134.5,361.7c-0.3,0.5-0.4,0.9-0.4,1.2C134.1,362.9,134.2,362.4,134.5,361.7z"/>
			<path class="st0" d="M139.3,89.5c0,0,0.5,0,1.4,0.1C140.2,89.5,139.7,89.4,139.3,89.5z"/>
			<path class="st0" d="M145.4,125c-0.5,0.3-0.8,0.5-0.9,0.8C144.4,125.8,144.8,125.5,145.4,125z"/>
			<path class="st0" d="M151.1,79c0,0,0.2,0.1,0.5,0.4C151.4,79.2,151.3,79,151.1,79z"/>
			<path class="st0" d="M145.5,136.6c0,0,0-0.2,0.1-0.6C145.5,136.2,145.5,136.4,145.5,136.6z"/>
			<path class="st0" d="M66.6,197.2c0,0,0.7-0.2,2-0.5C67.7,196.7,67.1,196.9,66.6,197.2z"/>
			<path class="st0" d="M70.5,252.1c0,0,0.2-0.4,0.7-1.2C70.8,251.4,70.6,251.8,70.5,252.1z"/>
			<path class="st0" d="M78,177.3c0,0,0.3,0.1,0.8,0.4C78.6,177.4,78.3,177.3,78,177.3z"/>
			<path class="st0" d="M75.3,263.2c0,0-0.1-0.2-0.1-0.7C75.2,262.8,75.2,263.1,75.3,263.2z"/>
			<path class="st0" d="M161.2,139.8c-0.5-0.3-1-0.4-1.3-0.4C159.9,139.4,160.4,139.5,161.2,139.8z"/>
			<path class="st0" d="M150.5,146.6c0,0,0.2-0.1,0.7-0.2C150.9,146.4,150.7,146.5,150.5,146.6z"/>
			<path class="st0" d="M89.9,219c0,0,0.3,0,0.7,0C90.3,219,90.1,219,89.9,219z"/>
		</g>
		<g>
			
				<ellipse transform="matrix(0.5863 -0.8101 0.8101 0.5863 -18.3765 456.9)" class="st1" cx="438.2" cy="246.4" rx="24.6" ry="24.9"/>
			<g>
				
					<ellipse transform="matrix(0.5863 -0.8101 0.8101 0.5863 -18.6091 457.0477)" class="st2" cx="438.2" cy="246.7" rx="17.8" ry="18.4"/>
				
					<ellipse transform="matrix(0.8276 -0.5613 0.5613 0.8276 -65.6026 284.4554)" class="st3" cx="430.3" cy="249" rx="6" ry="8.9"/>
				
					<ellipse transform="matrix(0.2512 -0.9679 0.9679 0.2512 79.5835 619.7223)" class="st3" cx="440.3" cy="258.4" rx="3.1" ry="2.9"/>
				<path class="st4" d="M427,232.2c3.3,5.6,3.9,6.7,15.3,11.6c13.6,5.9,6.1,13,3.1,19.7c3-1.2,5.6-3.2,7.6-5.9
					c5.8-8,3.8-19.3-4.5-25.2C441.9,227.6,433.2,227.7,427,232.2z"/>
				<path class="st5" d="M438.9,228.9c2.8,3,6.7,6.9,11.5,11.5c6.3,6,5,12.6,2.6,17.3c0,0,0,0,0.1-0.1c5.8-8,3.8-19.3-4.5-25.2
					C445.6,230.3,442.3,229.1,438.9,228.9z"/>
			</g>
			<g>
				<g class="st6">
					<path class="st7" d="M429.5,222.4c0,0,6.7-3.8,13.5-1"/>
					<path class="st7" d="M444.3,222.9c-0.5,0.4-1.3,0.6-2,0.3c-5.8-2.4-11.8,0.9-11.8,0.9c-0.9,0.5-2.1,0.2-2.6-0.7
						s-0.3-2.1,0.7-2.6c0.3-0.2,7.6-4.2,15.2-1.1c1,0.4,1.5,1.5,1.1,2.5C444.7,222.4,444.5,222.7,444.3,222.9z"/>
				</g>
				
					<ellipse transform="matrix(0.5863 -0.8101 0.8101 0.5863 3.3484 456.3125)" class="st8" cx="448.4" cy="224.9" rx="2.2" ry="2.3"/>
			</g>
			<g>
				
					<ellipse transform="matrix(0.5863 -0.8101 0.8101 0.5863 -14.1771 479.1975)" class="st8" cx="462.1" cy="253.5" rx="2.2" ry="2.3"/>
			</g>
			<g class="st6">
				<path class="st7" d="M441.4,269.3c0,0-7.2,2.8-13.6-0.8"/>
				<path class="st7" d="M426.8,266.9c0.6-0.4,1.3-0.4,2,0c5.5,3.1,11.8,0.7,11.9,0.7c1-0.4,2.1,0.1,2.5,1.1s0,2.1-1,2.5
					c-0.3,0.1-8.1,3.1-15.2-1c-0.9-0.5-1.3-1.7-0.8-2.6C426.3,267.3,426.5,267.1,426.8,266.9z"/>
			</g>
		</g>
		<path class="st0" d="M418.8,258.6c0.2,0.1,0.4,0.1,0.6,0.1C419.4,258.6,419.2,258.6,418.8,258.6z"/>
		<path class="st0" d="M422.4,255.3c0.1,0,0.2-0.1,0.2-0.1C422.7,255.2,422.6,255.2,422.4,255.3z"/>
		<path class="st0" d="M205.5,279.8c0.1,0.2,0.2,0.4,0.3,0.5C205.8,280.3,205.7,280.1,205.5,279.8z"/>
		<path class="st0" d="M210.3,281c0.1,0.1,0.2,0.1,0.3,0.1C210.5,281.1,210.4,281.1,210.3,281z"/>
	</g>
</g>
<text transform="matrix(1 0 0 1 223.3657 424.142)" class="st9 st10">Unipolar</text>
<text transform="matrix(1 0 0 1 602.7872 421.9535)" class="st9 st10">Pseudounipolar</text>
<text transform="matrix(1 0 0 1 145.4781 927.1509)" class="st9 st10">Bipolar</text>
<text transform="matrix(1 0 0 1 458.8778 927.0483)" class="st9 st10">Multipolar</text>
<text transform="matrix(1 0 0 1 740.3517 927.0483)" class="st9 st10">Anaxonic</text>
<g>
	<path class="st0" d="M231.7,787.2c0,0,0-0.3,0-0.9C231.6,786.7,231.6,787,231.7,787.2z"/>
	<path class="st0" d="M302.7,560.2c0,0-0.1,0.4-0.2,1C302.7,560.8,302.8,560.5,302.7,560.2z"/>
	<path class="st0" d="M297.3,554.1c0-0.2-0.1-0.4-0.2-0.5C297.1,553.6,297.2,553.8,297.3,554.1z"/>
	<path class="st0" d="M222.6,734.4c0,0-0.5-0.5-1.2-1.5C221.9,733.6,222.3,734.2,222.6,734.4z"/>
	<path class="st0" d="M253.3,695.6c0,0-0.6,0-1.6-0.2C252.4,695.6,253,695.7,253.3,695.6z"/>
	<path class="st0" d="M321.7,582.2c0.4-0.2,0.7-0.4,0.9-0.6C322.7,581.5,322.4,581.8,321.7,582.2z"/>
	<path class="st0" d="M47.9,613.6c-0.4,0-0.8,0.2-1,0.3C46.9,613.9,47.3,613.8,47.9,613.6z"/>
	<path class="st0" d="M60.8,639.3c-0.2,0.3-0.4,0.6-0.5,0.9C60.3,640.2,60.4,639.9,60.8,639.3z"/>
	<path class="st0" d="M243.7,482.2c-0.2-0.5-0.4-0.8-0.6-1C243.1,481.2,243.4,481.5,243.7,482.2z"/>
	<path class="st0" d="M221,503.2c-0.4-0.2-0.8-0.3-1-0.3C219.9,502.9,220.3,503,221,503.2z"/>
	<path class="st0" d="M256.5,484.2c0,0,0,0.2-0.1,0.5C256.4,484.6,256.4,484.4,256.5,484.2z"/>
	<path class="st0" d="M213.3,508.8c-0.2,0-0.4,0.1-0.5,0.2C212.8,509.1,213,509,213.3,508.8z"/>
	<path class="st0" d="M130.6,483.4c0,0,0.5,0.4,1.3,1.2C131.4,484,131,483.6,130.6,483.4z"/>
	<path class="st0" d="M93.6,513.6c0,0,0.4-0.1,1.2-0.1C94.3,513.5,93.9,513.5,93.6,513.6z"/>
	<path class="st0" d="M150.5,482.4c0-0.3,0-0.6-0.1-0.8C150.3,481.6,150.4,481.9,150.5,482.4z"/>
	<path class="st0" d="M88.1,522.5c0,0,0.1-0.1,0.4-0.4C88.3,522.3,88.2,522.4,88.1,522.5z"/>
	<path class="st0" d="M218.4,521.8c-0.1-0.5-0.2-0.9-0.4-1.2C218,520.6,218.2,521,218.4,521.8z"/>
	<path class="st0" d="M208.8,517.9c-0.2-0.2-0.3-0.3-0.5-0.3C208.2,517.6,208.4,517.7,208.8,517.9z"/>
	<path class="st0" d="M94.6,727.1c-0.1,0.1-0.3,0.1-0.3,0.2C94.2,727.3,94.4,727.2,94.6,727.1z"/>
	<path class="st0" d="M126.7,510.9c0,0,0.1,0.2,0.3,0.5C126.9,511.1,126.8,511,126.7,510.9z"/>
	<path class="st0" d="M320.3,594.3c0,0-0.2,0-0.5-0.1C320,594.3,320.2,594.3,320.3,594.3z"/>
	<path class="st0" d="M116.5,531.8c-3.5-0.4-10.9-0.6-18.5-2.8c-1.5-1.4-2.7-3.2-3.4-5.3c-2-6-5.5-8.2-6.9-8.8
		c1.5,0.9,4.4,4.7,5.8,10.4c0.2,1,0.7,1.9,1.2,2.7c-6.1-2.2-12-5.8-16-11.9c-1.6-2.4-3.2-4.3-4.7-6l0,0c-1.2-2.2-1.9-4.8-1.7-7.6
		c0.6-6.3-1.8-9.6-2.9-10.7c1.1,1.4,2.2,6,1.3,11.8c-0.2,1.3-0.1,2.5,0.2,3.7c-5.1-4.2-9.7-5.5-11.9-5.8c3.7,1.1,11.9,7.3,18.5,18.5
		c3.8,6.5,10.9,10,18.6,12.5c-3.8,1-7.7,1.3-11.9,0.3c-12.2-2.9-19.1,1.1-21.4,2.8c2-1.1,6.6-1.9,12.7-1.4c-1.2,1.8-2.9,3.4-5,4.3
		c-5.6,2.5-7.2,6.3-7.6,7.7c0.7-1.6,3.9-4.8,9.3-6.8c2.3-0.9,4.1-2.7,5.5-5c2.6,0.3,5.4,0.9,8.3,1.8c5.4,1.6,11,0.5,16.5-1.9
		c5.8,1.5,11.6,2.7,16.5,4.4c2.9,1,5.6,2.1,8,3.2l3.4-6.9C125.1,533.6,119.4,532.1,116.5,531.8z"/>
	<path class="st0" d="M199.7,548.8c2.2-0.3,6.7-1.2,11.7-0.9c1.1,0.6,2.1,1.6,2.8,2.8c2,3.4,4.5,4.2,5.5,4.4
		c-1.1-0.4-3.3-2.2-5.1-5.5c-0.3-0.5-0.7-1-1.1-1.5c4,0.5,8.2,1.9,11.5,5c1.3,1.2,2.5,2.2,3.8,3l0,0c1.1,1.2,1.9,2.6,2.1,4.4
		c0.5,3.9,2.5,5.6,3.3,6.2c-0.8-0.7-2.2-3.3-2.5-7c0-0.8-0.3-1.5-0.7-2.2c3.8,1.8,6.7,1.9,8.1,1.8c-2.4-0.1-8.3-2.8-14-8.7
		c-3.3-3.4-8.1-4.6-13.2-5c2.2-1.1,4.5-1.9,7.3-1.9c7.8,0,11.5-3.4,12.7-4.8c-1,1-3.7,2.1-7.6,2.7c0.5-1.3,1.2-2.5,2.5-3.4
		c3.1-2.3,3.5-4.9,3.6-5.8c-0.2,1.1-1.7,3.5-4.7,5.5c-1.3,0.9-2.1,2.3-2.6,3.8c-1.7,0.2-3.5,0.2-5.3,0.1c-3.5-0.2-6.8,1.3-9.9,3.5
		c-3.7-0.1-7.5,0-10.7-0.3c-1.9-0.2-2.9-0.2-7.3-0.2l-1,3.9C192.2,548.7,197.8,549.1,199.7,548.8z"/>
	<path class="st0" d="M58.3,642.3c1.4-1.6,6.5-4.2,13.7-4.7c3-0.2,5.6-1.6,8.1-3.6c4.1-0.2,8.3-1,11.7-2c0.1,0,0.2-0.1,0.4-0.1
		l-0.2-4.2c-1.2,0.3-2.2,0.5-3,0.7c-4.1,1.1-16.5,5.5-25-1.2c-6.7-5.3-12.2-4.9-14.2-4.5c2.3-0.2,8.3,1.9,14.3,7.2
		c3.1,2.8,7.5,4,12,4.3c-1.7,1-3.6,1.7-5.7,2C62.6,636.8,59.3,640.7,58.3,642.3z"/>
	<path class="st0" d="M194,516.6c1.9-3.2,3.7-6.3,4.5-8.2c1.6-4,5.6-16.3,15.9-19.2c1.7-0.5,3.1-1,4.3-1.7l0,0
		c1.5-0.3,3.2-0.2,4.7,0.5c3.6,1.6,6,0.8,6.8,0.4c-1,0.3-3.9,0.1-7.2-1.5c-0.7-0.3-1.5-0.6-2.2-0.6c3.3-2.2,4.8-4.8,5.3-6
		c-1.2,2-6.2,5.8-14,7.5c-4.3,1-7.6,4.4-10.4,8.4c0.1-2.3,0.5-4.7,1.7-6.9c3.7-6.8,2.5-11.7,1.8-13.5c0.3,1.4,0.1,4.3-1.2,7.9
		c-0.9-1.1-1.5-2.4-1.7-3.9c-0.6-3.9-2.6-5.6-3.3-6.1c0.8,0.7,2.2,3.3,2.5,7c0.1,1.6,0.9,3,2,4.3c-0.6,1.5-1.4,3.1-2.4,4.7
		c-1.7,2.8-2,6.3-1.6,9.9c-1.9,3.3-3.6,6.7-5.2,9.5c-1.8,3.1-1.4,2.3-2.4,4.2L194,516.6z"/>
	<path class="st0" d="M87.4,610l6.9-5.7c-2.6-0.1-3.7-0.6-6.3-1c-1.7-1.3-3.1-3.1-4.4-5c-7-10.1-14.9-11.8-17.9-12.2
		c2.2,0.5,6.2,2.9,10.4,7.4c-2.2,0.5-4.5,0.5-6.8-0.2c-6-1.9-9.8-0.3-11.1,0.5c1.6-0.7,6.3-0.8,11.7,1.3c2.3,0.9,4.9,0.7,7.6,0
		c1.7,2,3.3,4.2,4.9,6.8c0,0-14.4-0.8-18.8-0.1c-4.8,0.7-19.1,4.3-27.9-3.7c-1.4-1.3-2.7-2.3-4-3.1l0,0c-1.1-1.3-2-2.8-2.2-4.7
		c-0.5-4.2-2.6-6-3.5-6.6c0.9,0.8,2.3,3.6,2.5,7.5c0,0.8,0.3,1.7,0.6,2.4c-4.1-1.9-7.4-1.9-8.9-1.7c2.7,0.1,9.1,2.7,15.2,9
		c3.5,3.5,8.7,4.8,14.3,5.1c-2.3,1.3-5,2.1-7.9,2.2c-8.7,0.2-12.8,4.1-14.2,5.6c1.2-1.1,4.2-2.4,8.4-3.2c-0.6,1.4-1.5,2.7-2.8,3.7
		c-3.5,2.6-4,5.4-4.1,6.4c0.3-1.2,2-3.9,5.4-6.2c1.5-1,2.4-2.5,3-4.2c1.8-0.2,3.8-0.3,5.9-0.3c3.8,0.1,7.5-1.6,10.8-4
		c4.2,0,8.4-0.2,12-0.1C73.5,606.1,76.8,606,87.4,610z"/>
	<path class="st0" d="M392.7,793.5c-0.3-3.4-3-6.2-6.3-6.6c-2-0.3-3.9,0.2-5.5,1.3c-7.5-3.2-18.2-3.9-29.5-3.8
		c2.9-2.1,6-4.8,8.3-7.9c6.3-8.5,12.8-8.8,15.9-8.3c0.2,3.3,3,5.9,6.5,5.8c3.2-0.2,5.7-2.7,5.9-5.9c0.2-3.5-2.6-6.5-6.1-6.5
		c-2,0-3.8,0.9-5,2.4c-1.3-0.3-3.1-0.4-5.2-0.2c-7.2,0.8-12.4,6-15.5,10.1c-3.7,5-9.9,8.8-13.3,10.7c-4.4,0.2-8.8,0.4-13.1,0.7
		c-12.3,0.7-24,1.4-30.4,0c-6.9-1.5-13.4-6.3-18.9-12c-1.3-1.8-2.7-3.5-4.3-5c-0.1-0.1-0.3-0.2-0.4-0.3
		c-9.8-11.9-61.9-103.6-71.7-121c-1.5-3.1-8-15.6-17.7-26.1c-5.4-8.3-7.8-20.6-10-32.4c-1.5-7.6-2.8-15-5-21.1
		c0.4-3.7,1.7-9.2,5.5-13.2c3.2-3.4,12.9-4.1,21.5-5.2l-5.7-4.2c-7.8,0.1-14.7,1.8-19.1,6.5c-1.6,1.7-2.8,3.5-3.7,5.3
		c0.7-4.8,2.7-10.1,6.9-15.4c0.8-1,1.6-2,2.5-3c6.7-8.3,12.1-14.9,15.1-22.1l-2.3-2.9c-2.6,7.2-9,13.4-16.2,22.2c-0.8,1-1.6,2-2.5,3
		c-5.1,6.3-7.3,12.8-8,18.4c-9.4-11.5-26.4-18.5-36.7-21.9L125,541c3.5,1.1,8.1,2.7,13,4.9c12.9,5.8,21.7,12.9,25.4,20.3
		c2.8,5.9,4.5,14.4,6.2,23.4c1.3,6.8,2.6,13.9,4.7,20.7c-3.2-2-6.7-3.6-10.2-4.5c-7.3-1.8-18.9-1.4-32.3-0.9c-0.8,0-1.7,0.1-2.5,0.1
		c-0.7-0.3-1.4-0.6-2.1-0.9c-6.6-3-10.5-7.6-11.7-13.7c-2-10.5-4.3-17.5-5.8-21.4l-5,0.5c0.1,0,0.3,0,0.5,0c1.4,3.3,3.9,10.5,6,21.7
		c1,5.7,4.2,10.5,9.2,14c-12,0.2-23.8,0-32.1-2.2l-1,7c6.6,1.6,14.6,2.3,23,2.4c-3,2.1-6.1,4.6-8.5,7.7c-4.4,5.6-8.7,7.5-12.1,8
		l0.6,4.3c6.8-1,11.8-5.7,14.9-9.6c3.9-4.9,10.2-8.6,13.6-10.4c4.4-0.1,8.8-0.2,13.1-0.4c12.3-0.4,24-0.8,30.4,0.8
		c6.8,1.7,13.2,6.7,18.6,12.5c1.2,1.9,2.6,3.5,4.2,5.1c0.1,0.1,0.3,0.2,0.4,0.3c10.5,13.4,40.8,71.4,40.8,71.4
		c4.4,6.7,18.1,29.3,30.5,50.1c1.6,3.1,8.4,15.4,18.3,25.7c5.6,8.2,8.2,20.4,10.8,32.2c1.7,7.6,3.2,14.9,5.6,20.9
		c-0.3,3.7-1.5,9.2-5.2,13.3c-3.5,4-8.9,6.1-15.8,6.2c-0.8-2.6-3.2-4.5-6.2-4.4c-3.2,0.1-5.8,2.7-6,5.9c-0.2,3.5,2.6,6.5,6.1,6.5
		c2.5,0,4.7-1.4,5.7-3.6c0,0,0,0,0.1,0c8.4-0.1,14.9-2.7,19.3-7.7c1.5-1.7,2.7-3.6,3.6-5.4c-0.6,4.8-2.5,10.2-6.6,15.6
		c-0.8,1.1-1.6,2.1-2.4,3.1c-10.6,13.7-17.7,22.9-16.9,36.9c-1.2,1.3-1.9,3.3-1.6,5.3c0.4,2.9,2.8,5.2,5.6,5.6
		c3.9,0.5,7.3-2.5,7.4-6.4c0-3.6-2.8-6.6-6.5-6.6c-0.2,0-0.4,0-0.6,0c0-11.4,6.3-19.5,16-32.1c0.8-1,1.6-2,2.4-3.1
		c5-6.4,7-13,7.6-18.6c12.2,14.2,36.2,21,43.6,22.8c0.3,4,3.7,7.1,7.9,6.9c3.7-0.2,6.8-3.3,7-7c0.2-4.3-3.1-7.9-7.3-7.9
		c-1.7,0-3.3,0.5-4.5,1.4c-2.2-0.5-10.1-2.5-18.9-6.1c-13.1-5.5-22-12.3-25.8-19.7c-3-5.8-4.8-14.3-6.8-23.3
		c-1.4-6.7-3-13.9-5.2-20.5c3.3,1.9,6.8,3.4,10.3,4.3c7.4,1.6,18.9,1,32.3,0.2c0.8,0,1.7-0.1,2.4-0.2c0.7,0.3,1.4,0.5,2.1,0.8
		c6.7,2.9,10.7,7.3,12,13.4c2.4,11.6,5.3,18.9,6.8,22.4c-1.3,1.3-2,3.1-1.8,5.1c0.3,2.8,2.6,5,5.4,5.4c3.7,0.5,6.9-2.4,7-6.1
		c0-3.4-2.7-6.3-6.1-6.3c-0.1,0-0.3,0-0.5,0c-1.4-3.3-4.2-10.4-6.5-21.6c-1.2-5.7-4.4-10.4-9.5-13.8c14.1-0.7,28-0.6,36.4,2.8
		c0.1,3.9,3.4,7.1,7.3,7.2C389.6,801.8,393.2,798,392.7,793.5z"/>
	<path class="st0" d="M106.5,534.8c1,2.2,1.4,8.7-1.3,16.5c-1.5,4.5-1.2,9.5,0.7,14.2c-2-1.4-2.9-3.4-4.1-5.8
		c-3.6-7-8.3-8.7-10.1-9.1c1.3,0.5,3.6,2.3,5.9,5.5c-1.4,0.1-2.8,0-4.1-0.6c-3.5-1.6-5.9-0.9-6.8-0.5c1-0.3,3.9-0.1,7.1,1.6
		c1.4,0.7,3,0.8,4.6,0.6c0.9,1.4,1.8,2.9,2.6,4.7c1.4,3.2,0.6,5.7,4,7.4c0.5,1,0.9,2.5,1.4,3.4l3.9-1.9c-0.5-1.9-0.9-3.8-1.9-5.9
		c0.1-1.3,1.3-3,2-4.2c2.1-3.4,1.6-6,1.4-6.9c0.2,1.1-0.4,4-2.6,7c-0.3,0.5-0.6,1.1-0.8,1.7c-1.5-3.8-2.1-8.1-0.9-12.5
		c0.5-1.7,0.8-3.2,0.9-4.7l0,0c0.6-1.5,1.5-2.9,2.9-3.9c3.2-2.3,3.8-4.8,4-5.8c-0.3,1.1-2,3.5-5.1,5.4c-0.7,0.4-1.2,1-1.7,1.6
		C108.5,538.7,107.2,536,106.5,534.8z"/>
	<path class="st0" d="M209.7,658.4c0,0,15.6,12.3,28,16.6c22.3,7.6,21.1,26.7,21.4,35.7c0.3,9-2.6,23.4,5,39
		c7.5,15.6-7.4,2.4-7.4,2.4s-19.4-18.3-29.4-20.9c-14-3.6-23.6-16.8-21.9-34.3c1-10.2,2.5-19.7,0.6-30.6
		C203.9,655.6,209.7,658.4,209.7,658.4z"/>
	<g>
		
			<ellipse transform="matrix(1.239691e-02 -0.9999 0.9999 1.239691e-02 -474.9794 928.5049)" class="st1" cx="232.6" cy="704.7" rx="21.6" ry="21.3"/>
		<g>
			
				<ellipse transform="matrix(1.239691e-02 -0.9999 0.9999 1.239691e-02 -475.4546 928.4106)" class="st2" cx="232.3" cy="704.9" rx="15.9" ry="15.4"/>
			
				<ellipse transform="matrix(0.353 -0.9356 0.9356 0.353 -508.7437 665.3239)" class="st3" cx="226.7" cy="700.5" rx="7.7" ry="5.1"/>
			
				<ellipse transform="matrix(0.9359 -0.3523 0.3523 0.9359 -236.5184 124.9622)" class="st3" cx="225.1" cy="712.3" rx="2.7" ry="2.5"/>
			<path class="st4" d="M237,689.8c-2.3,5.1-2.8,6.1-0.6,16.7c2.7,12.6-6.2,10.8-12.4,12c2.3,1.5,5.1,2.4,8,2.4
				c8.5,0.1,15.5-6.9,15.6-15.7C247.8,698,243.3,691.8,237,689.8z"/>
			<path class="st5" d="M245.4,696.5c-0.7,3.5-1.6,8.1-2.4,13.9c-1.1,7.4-6.4,9.8-11,10.5c0,0,0,0,0.1,0c8.5,0.1,15.5-6.9,15.6-15.7
				C247.8,701.9,246.9,699,245.4,696.5z"/>
		</g>
		<g>
			<g class="st6">
				<path class="st7" d="M245.2,686.6c0,0,6,2.8,7.5,9"/>
				<path class="st7" d="M252.3,697.3c-0.6-0.2-1.1-0.6-1.2-1.2c-1.2-5.3-6.5-7.9-6.6-7.9c-0.8-0.4-1.1-1.4-0.8-2.2
					c0.4-0.8,1.3-1.2,2.1-0.8c0.3,0.1,6.8,3.2,8.4,10.2c0.2,0.9-0.3,1.8-1.2,2C252.8,697.3,252.6,697.3,252.3,697.3z"/>
			</g>
			
				<ellipse transform="matrix(1.239691e-02 -0.9999 0.9999 1.239691e-02 -451.4522 945.4453)" class="st8" cx="252.9" cy="701.3" rx="2" ry="1.9"/>
		</g>
		<g>
			
				<ellipse transform="matrix(1.239691e-02 -0.9999 0.9999 1.239691e-02 -488.6432 955.6223)" class="st8" cx="239.5" cy="725.2" rx="2" ry="1.9"/>
		</g>
		<g class="st6">
			<path class="st7" d="M218,718.5c0,0-5.6-3.7-6.2-10"/>
			<path class="st7" d="M212.4,706.9c0.5,0.2,1,0.7,1,1.4c0.5,5.4,5.4,8.7,5.4,8.8c0.8,0.5,1,1.5,0.5,2.3s-1.5,1-2.2,0.5
				c-0.2-0.1-6.3-4.2-7-11.3c-0.1-0.9,0.6-1.7,1.5-1.8C211.9,706.7,212.2,706.8,212.4,706.9z"/>
		</g>
	</g>
	<path class="st0" d="M216.6,718.2c-0.1,0.2-0.2,0.4-0.2,0.5C216.5,718.7,216.5,718.5,216.6,718.2z"/>
	<path class="st0" d="M230.1,719.6c0,0.2,0.1,0.3,0.2,0.4C230.3,720.1,230.2,719.9,230.1,719.6z"/>
	<path class="st0" d="M234.2,720.6c0.1,0,0.1,0.1,0.2,0.1C234.4,720.7,234.3,720.6,234.2,720.6z"/>
	<path class="st0" d="M224.9,692.6c-0.2,0.2-0.3,0.4-0.3,0.6C224.5,693.2,224.6,693.1,224.9,692.6z"/>
	<path class="st0" d="M227,698.5c0,0.1,0,0.3,0,0.3C227.1,698.9,227.1,698.7,227,698.5z"/>
</g>
<g>
	<path class="st0" d="M664.8,729.9c-1.4,0.1-2.7,0.6-3.7,1.5c-6.6-2.3-15.8-2.3-25.6-1.5c2.4-2,4.9-4.5,6.7-7.2
		c4.9-7.7,10.5-8.3,13.2-8.1c0.4,2.7,2.8,4.7,5.6,4.6c3-0.2,5.2-2.7,5-5.6c-0.2-3-2.7-5.2-5.6-5c-1.8,0.1-3.3,1-4.1,2.4
		c-1.1-0.1-2.7-0.2-4.5,0.1c-6.1,1.1-10.3,5.9-12.7,9.6c-2.9,4.5-8,8.2-10.8,10c-3.7,0.4-7.5,0.9-11.2,1.3
		c-10.5,1.3-20.5,2.6-26.1,1.8c-6-0.9-11.9-4.7-16.9-9.2c-1.2-1.5-2.5-2.8-4-4c-0.1-0.1-0.3-0.2-0.4-0.3
		c-11.4-12.1-42.1-60.2-44.4-63.7c-7.5-11.3-9.1-24.8-9.5-30c0.4-16.5,4.4-28.3,9.3-36.5c4-4.3,12.3-10.7,12.3-10.7s13.3-6.3,17-9.1
		c3.9-3,15-13.3,26.9-10.1c1.9,0.5,3.6,0.8,5.2,0.9l0,0c1.7,0.7,3.2,1.7,4.3,3.3c2.6,3.8,5.4,4.4,6.5,4.5c-1.2-0.3-3.9-2.2-6.1-5.8
		c-0.5-0.8-1.1-1.4-1.8-2c4.6-0.2,7.6-1.8,8.9-2.7c-2.4,1.2-9.6,1.9-18.2-1c-4.9-1.6-10.1-0.3-15.3,2c1.5-2.3,3.4-4.3,5.8-5.7
		c7.7-4.4,9.5-10,9.9-12.2c-0.5,1.6-2.5,4.3-6,7c-0.2-1.6-0.1-3.3,0.6-4.9c1.8-4.2,0.9-7,0.4-8c0.4,1.2,0.2,4.6-1.7,8.4
		c-0.8,1.6-0.9,3.5-0.6,5.4c-1.5,1.1-3.2,2.2-5.2,3.1c-3.4,1.7-5.8,5-7.6,8.8c-3.8,2.1-7.5,4.4-10.8,6.2c-11.2,6-18.4,2.3-18.4,2.3
		l-0.1,0.3c-6.8-2.9-13.8-7.9-18.9-12.3c-3.2-2.8-6-7.5-8.4-12.7c-1-2.8-1.8-5.9-2.5-8.4c0.4-1.8,1-3.5,1.9-5.3
		c5.1-9.5,3.5-16.5,2.6-18.9c0.4,1.9,0,6.1-1.7,11.1c-1.2-1.5-2.1-3.3-2.4-5.4c-0.7-5.4-3.4-7.7-4.5-8.5c1.1,1,3,4.6,3.4,9.7
		c0.2,2.2,1.2,4.2,2.8,5.9c-0.8,2.1-2,4.3-3.4,6.6c0,0-1.6-3.8-3.3-7.7c-0.1-0.5-0.2-0.8-0.2-0.8c0,0.1,0,0.1-0.1,0.2
		c-1.2-2.6-2.4-5.1-3.3-6.4c-2.3-3.4-10.3-13.2-7.5-23.2c0.5-1.6,0.7-3.1,0.9-4.4l0,0c0.5-1.4,1.4-2.7,2.7-3.6
		c3-2.1,3.6-4.5,3.7-5.4c-0.2,1-1.9,3.2-4.8,5c-0.6,0.4-1.2,0.9-1.6,1.5c-0.1-4-1.3-6.5-2-7.6c1,2.1,1.3,8.2-1.2,15.5
		c-1.4,4.1-0.4,8.7,1.4,13.2c-1.8-1.3-3.4-3-4.6-5.2c-3.3-6.6-7.8-8.4-9.5-8.8c1.2,0.5,3.4,2.3,5.5,5.3c-1.3,0.1-2.6,0-3.9-0.7
		c-3.3-1.7-5.6-0.9-6.4-0.6c1-0.3,3.6,0,6.6,1.7c1.3,0.7,2.8,0.8,4.3,0.6c0.8,1.3,1.7,2.8,2.4,4.5c1.3,3,3.9,5.1,7,6.8
		c1.6,3.3,3.3,6.4,4.5,9.3c2,4.7,2.5,8.6,2.2,11.8c-1.7,4.3-3.2,7.6-4.6,10.1c-0.2,0.2-0.3,0.3-0.3,0.3h0.1c-3.7,6.7-6,7.9-6,7.9
		c-9.6,12.9-30.3-4.2-30.3-4.2c0.7,0.8,1.4,1.7,1.9,2.5c-3.4-4-10.8-12.5-14.1-15.1c-2.4-1.9-7.6-5.4-12.2-10.5
		c-0.4-1.7-0.5-3.6-0.1-5.4c1.3-5.3-0.3-8.5-1-9.5c0.7,1.3,1.1,5.4-0.5,10.3c-0.2,0.8-0.4,1.7-0.4,2.5c-3.4-4.4-6.1-9.7-6.3-16
		c-0.1-2.4-0.3-4.6-0.7-6.5l0,0c0.2-2.2,0.8-4.4,2.2-6.3c3.3-4.3,3.1-7.8,2.8-9.1c0.1,1.5-1.2,5.3-4.4,9.2c-0.7,0.8-1.2,1.7-1.6,2.8
		c-1.8-5.4-4.6-8.4-6-9.7c2.2,2.5,5.3,10.8,5,22c-0.2,6.5,3.3,12.3,7.9,17.7c-3.2-1-6.2-2.6-8.8-5.2c-7.5-7.7-14.4-8-16.9-7.8
		c1.9,0.1,5.7,1.6,9.9,4.8c-1.7,0.7-3.6,1.1-5.7,0.9c-5.3-0.8-8.1,1.3-9.1,2.1c1.2-0.9,5.1-1.7,9.9-0.7c2.1,0.4,4.2-0.1,6.3-1.1
		c1.7,1.4,3.5,3.2,5.3,5.2c3.2,3.6,7.8,5.4,12.9,6.2c3.5,3.7,7.2,7.3,10,10.8c23.6,29.2,3.3,47.9-2.7,52.4c-0.4,0.3-0.9,0.6-1.3,1
		c-0.1,0.1-0.2,0.1-0.2,0.1l0,0c-0.2,0.1-0.3,0.2-0.5,0.4c-10.1,3.6-19.7,6.7-23.7,8.2c-4.6,1.8-18,8.4-28.6,1.9
		c-8.4-5.2-14.6-4-16.8-3.2c2.7-0.5,9.7,1,17.2,6.2c3.9,2.8,9,3.6,14.3,3.3c-1.8,1.4-3.8,2.4-6.2,3c-8.6,2-11.8,6.9-12.8,8.8
		c1.4-2,6.8-5.7,14.9-7.1c3.3-0.6,6.2-2.6,8.7-5.2c4.7-0.8,9.3-2.3,13-3.9c9.1-3.9,16.2-5.4,21.7-5.4c3.2,0.5,6,1.1,8.5,1.7
		c8.6,4.1,10.2,14.5,9.9,23.2c-0.8,0.1-1.2,0.2-1.2,0.2c2.2,2.9-0.6,16-6.4,26c-1.6,1-3.4,1.7-5.3,2.1c-10.3,2.5-14.2,8.3-15.3,10.6
		c1.1-1.7,4.3-4.1,9.1-6.1c-0.3,1.9-1,3.8-2.3,5.4c-3.4,4.2-3.3,7.8-3.1,9.1c0-1.5,1.3-5.3,4.6-9.1c1.5-1.6,2.1-3.7,2.4-6.1
		c2.1-0.7,4.4-1.4,7-1.9c0,0-5.1,11.3-5.9,15.1c-0.9,4.1-2.5,16.7-11.7,21.2c-1.5,0.7-2.7,1.5-3.8,2.3l0,0c-1.4,0.5-2.9,0.7-4.5,0.3
		c-3.5-0.9-5.6,0.2-6.4,0.7c0.9-0.5,3.6-0.7,6.8,0.3c0.7,0.2,1.4,0.3,2.1,0.2c-2.8,2.7-3.8,5.3-4.2,6.6c0.9-2.1,5-6.5,12-9.4
		c3.9-1.7,6.5-5.5,8.5-9.9c0.3,2.3,0.1,4.6-0.7,7c-2.5,7-0.7,11.6,0.1,13.2c-0.5-1.3-0.7-4.1,0.1-7.8c0.9,0.9,1.7,2,2.1,3.4
		c1,3.6,3.1,4.9,3.9,5.3c-0.9-0.5-2.5-2.8-3.3-6.2c-0.3-1.5-1.3-2.7-2.5-3.8c0.4-1.5,0.9-3.2,1.6-4.9c1.3-3,1.1-6.5,0.2-9.9
		c1.3-3.4,2.4-6.8,3.6-9.7c6.3-14.7,32-43.2,48.1-42.7c0,0-0.1,0-0.2-0.1c0.3,0,0.5,0,0.8,0l-0.4,0.2c4.9-0.3,13.3,9.3,13.3,9.3
		s12.9,21.8,18.3,27.6c1.7,1.9,16.9,23.3,30.3,42.7c1.6,2.6,8.1,12.7,17.3,21c5.3,6.7,8.3,17,11.2,27c1.9,6.5,3.6,12.6,6,17.6
		c-0.1,3.2-0.7,8-3.7,11.7c-2.8,3.6-7.3,5.7-13.2,6.3c-0.8-2.1-2.9-3.6-5.3-3.4c-3,0.2-5.2,2.7-5,5.6c0.2,3,2.7,5.2,5.6,5
		c2.2-0.1,4-1.5,4.7-3.5c0,0,0,0,0.1,0c7.2-0.6,12.6-3.2,16.1-7.8c1.2-1.5,2.1-3.2,2.7-4.9c-0.3,4.1-1.5,8.9-4.7,13.8
		c-0.6,1-1.2,1.9-1.9,2.8c-8.3,12.4-13.9,20.7-12.3,32.7c-0.8,1.1-1.3,2.4-1.2,3.8c0.2,3.1,2.8,5.5,6,5.3c3.1-0.2,5.5-2.8,5.3-6
		c-0.2-3.1-2.8-5.5-6-5.3c-0.2,0-0.4,0-0.5,0.1c-0.7-9.8,4.2-17.1,11.9-28.5c0.6-0.9,1.2-1.8,1.9-2.8c3.9-5.8,5.3-11.6,5.4-16.4
		c11.3,11.5,32.4,15.9,38.8,17c0.4,3.3,3.3,5.7,6.7,5.5c3.6-0.2,6.3-3.2,6.1-6.8s-3.2-6.3-6.8-6.1c-1.5,0.1-2.8,0.7-3.8,1.5
		c-1.9-0.3-8.8-1.5-16.6-4.1c-11.6-4-19.6-9.3-23.4-15.4c-2.9-4.8-5-12-7.2-19.6c-1.6-5.7-3.4-11.8-5.7-17.3c2.9,1.5,6,2.6,9.1,3
		c6.4,0.9,16.3-0.3,27.8-1.8c0.7-0.1,1.4-0.2,2.1-0.3c0.6,0.2,1.2,0.3,1.9,0.6c5.9,2.1,9.6,5.7,11.1,10.8c2.8,9.8,5.6,15.9,7.2,18.9
		c-0.9,1-1.4,2.4-1.3,3.8c0.2,3,2.7,5.2,5.6,5c3-0.2,5.2-2.7,5-5.6c-0.2-3-2.7-5.2-5.6-5c-0.1,0-0.3,0-0.4,0
		c-1.4-2.7-4.2-8.6-6.9-18.1c-1.4-4.8-4.4-8.6-9-11.3c12.1-1.4,24-2.2,31.4,0.2c0.4,3.4,3.3,5.9,6.7,5.7c3.6-0.2,6.3-3.2,6.1-6.8
		C671.4,732.4,668.3,729.7,664.8,729.9z"/>
	<g>
		
			<ellipse transform="matrix(0.9984 -5.624499e-02 5.624499e-02 0.9984 -32.4736 28.169)" class="st1" cx="484.2" cy="591" rx="31.3" ry="31.7"/>
		<g>
			
				<ellipse transform="matrix(0.9984 -5.624499e-02 5.624499e-02 0.9984 -32.4909 28.1524)" class="st2" cx="483.9" cy="591.3" rx="22.7" ry="23.4"/>
			
				<ellipse transform="matrix(0.288 -0.9576 0.9576 0.288 -222.2174 871.8889)" class="st3" cx="475.2" cy="585.4" rx="11.3" ry="7.6"/>
			
				<ellipse transform="matrix(0.9095 -0.4157 0.4157 0.9095 -207.7217 251.6391)" class="st3" cx="474.1" cy="602.9" rx="3.9" ry="3.6"/>
			<path class="st4" d="M489.3,568.6c-2.9,7.7-3.5,9.2,0.8,24.5c5.2,18.2-8,16.5-17,18.8c3.5,2,7.7,3,12,2.8
				c12.5-0.7,22.1-11.8,21.3-24.7C505.9,579.6,498.7,571,489.3,568.6z"/>
			<path class="st5" d="M502.2,577.7c-0.7,5.2-1.5,12.1-2.1,20.6c-0.9,11-8.4,15.1-15,16.5h0.1c12.5-0.7,22.1-11.8,21.3-24.7
				C506.2,585.4,504.7,581.2,502.2,577.7z"/>
		</g>
		<g>
			<g class="st6">
				<path class="st7" d="M501,563.2c0,0,9.1,3.6,11.9,12.5"/>
				<path class="st7" d="M512.4,578.2c-0.8-0.2-1.6-0.8-1.9-1.7c-2.3-7.7-10.3-10.9-10.4-10.9c-1.2-0.5-1.9-1.9-1.4-3.2
					s1.8-1.9,3.1-1.4c0.4,0.1,10.2,4.1,13.3,14.1c0.4,1.3-0.3,2.7-1.5,3.1C513.2,578.2,512.8,578.2,512.4,578.2z"/>
			</g>
			
				<ellipse transform="matrix(0.9984 -5.624499e-02 5.624499e-02 0.9984 -32.0275 29.8226)" class="st8" cx="513.8" cy="583.9" rx="2.8" ry="2.9"/>
		</g>
		<g>
			
				<ellipse transform="matrix(0.9984 -5.624499e-02 5.624499e-02 0.9984 -34.1081 28.9017)" class="st8" cx="496.4" cy="620.4" rx="2.8" ry="2.9"/>
		</g>
		<g class="st6">
			<path class="st7" d="M464.2,612.6c0,0-8.6-4.8-10.1-14.1"/>
			<path class="st7" d="M454.9,596.2c0.8,0.3,1.5,1,1.6,2c1.3,7.9,8.8,12.2,8.9,12.3c1.2,0.6,1.6,2.2,0.9,3.3
				c-0.6,1.2-2.1,1.6-3.2,1c-0.4-0.2-9.6-5.5-11.3-15.8c-0.2-1.3,0.6-2.6,1.9-2.8C454.2,596.1,454.5,596.1,454.9,596.2z"/>
		</g>
	</g>
	<path class="st0" d="M532.8,739.3c0,0-0.1-0.2,0-0.8C532.6,738.9,532.7,739.1,532.8,739.3z"/>
	<path class="st0" d="M580.4,540.1c0,0,0,0.3-0.1,0.9C580.4,540.6,580.4,540.3,580.4,540.1z"/>
	<path class="st0" d="M575.3,535.2c-0.1-0.2-0.1-0.3-0.2-0.4C575.1,534.8,575.2,534.9,575.3,535.2z"/>
	<path class="st0" d="M521.8,694.5c0,0-0.4-0.4-1.1-1.2C521.1,693.9,521.5,694.3,521.8,694.5z"/>
	<path class="st0" d="M545.9,659.3c0,0-0.5,0-1.4,0C545.1,659.4,545.6,659.4,545.9,659.3z"/>
	<path class="st0" d="M598,557.8c0.4-0.2,0.6-0.4,0.8-0.6C598.8,557.2,598.5,557.5,598,557.8z"/>
	<path class="st0" d="M364.6,601c-0.4,0.1-0.7,0.2-0.9,0.3C363.7,601.4,364.1,601.2,364.6,601z"/>
	<path class="st0" d="M377.1,622.3c-0.2,0.3-0.3,0.6-0.4,0.8C376.8,623.1,376.9,622.8,377.1,622.3z"/>
	<path class="st0" d="M525,476.6c-0.2-0.4-0.4-0.7-0.6-0.8C524.5,475.7,524.7,476,525,476.6z"/>
	<path class="st0" d="M506.8,495.9c-0.4-0.1-0.7-0.2-0.9-0.2C505.8,495.8,506.2,495.8,506.8,495.9z"/>
	<path class="st0" d="M536.1,477.5c0,0,0,0.2,0,0.5C536.1,477.8,536.1,477.7,536.1,477.5z"/>
	<path class="st0" d="M500.5,501.2c-0.2,0.1-0.3,0.1-0.4,0.2C500.1,501.4,500.2,501.4,500.5,501.2z"/>
	<path class="st0" d="M427.9,484.3c0,0,0.5,0.3,1.2,0.9C428.6,484.7,428.3,484.4,427.9,484.3z"/>
	<path class="st0" d="M397.9,512.4c0,0,0.4-0.1,1-0.1C398.5,512.2,398.1,512.3,397.9,512.4z"/>
	<path class="st0" d="M444.9,482.2c0-0.3-0.1-0.5-0.2-0.7C444.8,481.5,444.9,481.8,444.9,482.2z"/>
	<path class="st0" d="M393.7,520.4c0,0,0.1-0.1,0.4-0.4C393.9,520.2,393.8,520.3,393.7,520.4z"/>
	<path class="st0" d="M505.7,512c-0.1-0.4-0.3-0.8-0.4-1C505.2,511,505.4,511.4,505.7,512z"/>
	<path class="st0" d="M497.1,509.3c-0.2-0.2-0.3-0.2-0.4-0.3C496.6,509.1,496.8,509.1,497.1,509.3z"/>
	<path class="st0" d="M416.2,702.9c-0.1,0.3-0.2,0.6-0.2,0.8C416,703.7,416.1,703.4,416.2,702.9z"/>
	<path class="st0" d="M436.1,703.8c0.1,0.3,0.2,0.5,0.4,0.6C436.5,704.4,436.3,704.2,436.1,703.8z"/>
	<path class="st0" d="M411.4,695.8c-0.1,0.1-0.2,0.1-0.3,0.2C411.1,696,411.2,695.9,411.4,695.8z"/>
	<path class="st0" d="M442.2,704.7c0.1,0.1,0.3,0.1,0.3,0.1S442.4,704.8,442.2,704.7z"/>
	<path class="st0" d="M425.7,664.7c-0.2,0.3-0.4,0.7-0.4,0.9C425.3,665.7,425.4,665.3,425.7,664.7z"/>
	<path class="st0" d="M429.5,673.1c0,0.2,0.1,0.4,0.1,0.5C429.6,673.6,429.5,673.4,429.5,673.1z"/>
	<path class="st0" d="M426.2,508.1c0,0,0.1,0.2,0.3,0.4C426.4,508.3,426.3,508.2,426.2,508.1z"/>
	<path class="st0" d="M597.5,568.3c0,0-0.2,0-0.4,0C597.2,568.3,597.4,568.4,597.5,568.3z"/>
</g>
<g>
	<g>
		<path class="st0" d="M933.5,631.3c1.8,0.8,3.6,2.1,4.8,4.1c2.7,4.4,5.9,5.3,7.1,5.5c-1.4-0.4-4.3-2.8-6.6-7
			c-1.2-2.2-3.3-3.5-5.8-4.5L933.5,631.3z"/>
		<path class="st0" d="M945.8,640.9c0,0-0.2,0-0.5,0C945.5,640.9,945.7,640.9,945.8,640.9z"/>
	</g>
	<g>
		<path class="st0" d="M860.9,831.9c0,0,0-0.3,0-0.9C860.8,831.4,860.8,831.7,860.9,831.9z"/>
		<path class="st0" d="M928.1,607.6c0,0,0,0.4-0.2,1C928,608.2,928.1,607.8,928.1,607.6z"/>
		<path class="st0" d="M922.6,601.6c-0.1-0.2-0.1-0.4-0.2-0.5C922.4,601.2,922.5,601.3,922.6,601.6z"/>
		<path class="st0" d="M881.7,833.2c0,0-0.5-0.5-1.2-1.4C880.9,832.4,881.3,832.9,881.7,833.2z"/>
		<path class="st0" d="M911.5,794.6c0,0-0.6,0-1.6-0.1C910.5,794.6,911.1,794.7,911.5,794.6z"/>
		<path class="st0" d="M920.1,784c0.3-0.1,0.6-0.3,0.7-0.5C920.8,783.5,920.5,783.7,920.1,784z"/>
		<path class="st0" d="M926.3,626.6c-5.4-2.2-11.5-1-17.6,1.3c1.8-2.5,4.1-4.6,7-6.1c9-4.6,11.5-10.9,12.1-13.3
			c-0.7,1.8-3.2,4.8-7.3,7.7c-0.1-1.8,0.1-3.7,1-5.5c2.3-4.7,1.4-7.9,1-9.1c0.4,1.4-0.1,5.2-2.5,9.4c-1,1.8-1.2,3.9-1,6.2
			c-1.8,1.2-3.8,2.3-6.1,3.3c-4,1.7-6.9,5.3-9.2,9.5c-4.5,2.1-8.9,4.6-12.7,6.4c-13.2,6.1-21.2,1.4-21.2,1.4l-0.2,0.4
			c-7.5-3.8-15.2-9.9-20.8-15.3c-3.5-3.3-6.4-9-8.7-15.1c-0.9-3.2-1.7-6.8-2.3-9.8c0.6-2,1.4-4,2.5-5.9c6.4-10.5,5-18.5,4.2-21.4
			c0.4,2.3-0.3,6.9-2.7,12.6c-1.2-1.8-2.1-3.9-2.3-6.3c-0.5-6.3-3.4-9-4.6-9.9c1.2,1.2,3.1,5.4,3.2,11.2c0.1,2.5,1.2,4.8,2.8,6.9
			c-1.1,2.3-2.5,4.8-4.2,7.3c0,0-1.6-4.5-3.3-9c-0.1-0.6-0.2-0.9-0.2-0.9c0,0.1-0.1,0.2-0.1,0.2c-1.2-3.1-2.5-6-3.4-7.5
			c-2.4-4.1-10.9-15.7-7-27c0.6-1.8,1-3.5,1.3-5l0,0c0.7-1.6,1.8-3,3.4-4c3.6-2.2,4.4-4.9,4.6-5.9c-0.4,1.1-2.3,3.6-5.8,5.4
			c-0.7,0.4-1.4,0.9-1.9,1.6c0.2-4.5-1.1-7.5-1.8-8.9c0.9,2.5,0.9,9.5-2.4,17.6c-1.9,4.6-1,9.9,0.8,15.1c-2-1.6-3.7-3.7-4.9-6.3
			c-3.4-7.8-8.4-10-10.3-10.6c1.4,0.6,3.7,2.8,5.9,6.4c-1.5,0-3-0.2-4.4-1c-3.7-2.1-6.3-1.4-7.3-1.1c1.1-0.3,4.2,0.2,7.5,2.4
			c1.4,0.9,3.1,1.1,4.9,1c0.9,1.6,1.7,3.3,2.5,5.3c1.3,3.5,4.2,6.1,7.6,8.2c1.6,3.8,3.3,7.6,4.6,10.9c2,5.5,2.3,10,1.7,13.6
			c-2.2,4.8-4.2,8.4-5.9,11.3c-0.2,0.2-0.4,0.3-0.4,0.3l0.1,0.1c-4.6,7.4-7.4,8.6-7.4,8.6c-11.8,14.2-34.3-6.7-34.3-6.7
			c0.8,1,1.4,2,2,3c-3.6-4.8-11.5-14.9-15.1-18.2c-2.6-2.3-8.4-6.7-13.2-12.8c-0.4-2-0.4-4.1,0.3-6.2c1.9-6,0.2-9.7-0.5-11
			c0.7,1.6,0.8,6.2-1.2,11.7c-0.3,0.9-0.5,1.9-0.6,2.8c-3.6-5.2-6.3-11.5-6.1-18.7c0.1-2.8-0.1-5.3-0.4-7.5l0,0c0.3-2.5,1.2-5,3-7
			c4-4.7,4-8.8,3.8-10.3c0,1.7-1.7,6-5.7,10.2c-0.9,0.9-1.5,1.9-2,3.1c-1.7-6.3-4.7-9.9-6.2-11.4c2.4,3,5.4,12.7,4.3,25.5
			c-0.6,7.4,3,14.2,7.9,20.7c-3.6-1.3-6.9-3.4-9.7-6.6c-8.1-9.2-15.9-10-18.8-10c2.2,0.2,6.4,2.2,11,6.1c-2,0.7-4.2,1.1-6.5,0.6
			c-6-1.2-9.3,0.9-10.5,1.9c1.5-0.9,5.9-1.6,11.4-0.2c2.4,0.6,4.8,0.1,7.2-0.9c1.9,1.7,3.8,3.8,5.7,6.2c3.4,4.4,8.6,6.7,14.3,7.9
			c3.8,4.5,7.7,8.8,10.7,12.9c25.1,34.8,0.7,54.8-6.5,59.7c-0.5,0.3-1.1,0.7-1.6,1c-0.1,0.1-0.2,0.1-0.2,0.1h0.1
			c-0.2,0.1-0.4,0.2-0.6,0.4c-11.7,3.5-22.9,6.4-27.6,7.9c-5.4,1.7-21.1,8.5-32.8,0.3c-9.2-6.5-16.4-5.5-19-4.8
			c3.1-0.4,11,1.7,19.3,8.2c4.3,3.4,10.1,4.7,16.1,4.7c-2.1,1.4-4.5,2.5-7.3,3c-9.9,1.8-13.9,7.1-15.2,9.3c1.7-2.3,8.2-6.1,17.5-7.2
			c3.8-0.5,7.2-2.5,10.3-5.4c5.4-0.6,10.7-2,15.1-3.6c10.6-3.8,18.8-5.1,25.1-4.7c3.6,0.8,6.8,1.6,9.6,2.5
			c9.6,5.2,10.8,17.2,9.9,27.1c-0.9,0.1-1.4,0.2-1.4,0.2c2.3,3.4-1.7,18.2-9,29.3c-1.9,1-3.9,1.7-6.2,2.1
			c-11.9,2.2-16.7,8.6-18.2,11.1c1.4-1.8,5.2-4.4,10.8-6.4c-0.5,2.1-1.4,4.2-3,6c-4.2,4.6-4.2,8.7-4.1,10.2c0-1.7,1.8-6,5.9-10
			c1.8-1.7,2.7-4.1,3.1-6.8c2.4-0.7,5.2-1.3,8.1-1.7c0,0-6.5,12.6-7.7,16.9c-1.3,4.6-4,18.9-14.7,23.5c-1.7,0.7-3.2,1.5-4.4,2.4l0,0
			c-1.6,0.5-3.3,0.6-5.1,0.1c-4-1.3-6.5-0.1-7.3,0.4c1.1-0.5,4.1-0.6,7.8,0.8c0.8,0.3,1.6,0.4,2.4,0.4c-3.4,2.9-4.7,5.9-5.2,7.3
			c1.1-2.4,6.2-7.1,14.3-10c4.6-1.7,7.8-5.9,10.4-10.7c0.2,2.6-0.1,5.3-1.2,8c-3.3,7.9-1.6,13.2-0.7,15c-0.5-1.5-0.5-4.7,0.6-8.8
			c1,1.1,1.8,2.4,2.2,4c1,4.2,3.2,5.8,4.1,6.3c-1-0.7-2.6-3.4-3.3-7.3c-0.3-1.7-1.3-3.2-2.6-4.4c0.5-1.7,1.2-3.6,2.2-5.4
			c1.7-3.4,1.6-7.3,0.8-11.3c1.7-3.8,3.2-7.6,4.8-10.8c8.2-16.4,39.3-47.2,57.6-45.6c-0.1,0-0.1-0.1-0.2-0.1c0.3,0,0.6,0,0.9,0.1
			l-0.5,0.1c5.6,0,14.6,11.4,14.6,11.4s13.3,25.7,19.1,32.7c6.1,7.5,26.7,28.4,22.1,52.4c-0.7,3.8-1.1,7.3-1.1,10.5l0,0
			c-1,3.4-2.7,6.6-5.7,9c-6.7,5.5-7.5,11.2-7.6,13.3c0.4-2.4,3.6-8,10.1-12.8c1.4-1,2.5-2.3,3.4-3.8c1,9.2,4.3,14.9,6.2,17.3
			c-2.6-4.7-4.7-18.9-0.4-36.4c2.4-9.9-0.6-20.2-5.6-30.1c4.4,2.6,8.3,6.2,11.3,10.9c9.2,14.7,19.9,17.7,23.9,18.3
			c-3-0.8-8.4-4.5-13.9-11c3-0.6,6.1-0.5,9.1,0.7c8,3.1,13.2,0.9,15-0.1c-2.2,0.9-8.5,0.9-15.8-2.4c-3.1-1.4-6.6-1.3-10.2-0.5
			c-2.2-2.9-4.5-6.2-6.5-10c-3.6-6.6-10-10.9-17.3-14c-4.3-7.4-9.2-14.5-12.9-20.8c-7.8-13.3-8.8-28.9-8.9-34.9
			c1.5-18.9,6.8-32,13-41.1c4.9-4.7,14.8-11.4,14.8-11.4s15.5-6.3,20-9.3c4.7-3.2,18-14.2,31.4-9.8c10.6,3.5,17.2,0.5,19.5-0.9
			C944.2,630.2,936,630.5,926.3,626.6z"/>
		<path class="st0" d="M947.1,629c0.4-0.2,0.7-0.4,0.9-0.6C948,628.3,947.7,628.6,947.1,629z"/>
		<path class="st0" d="M677.9,663.2c-0.5,0.1-0.8,0.2-1,0.3C676.9,663.6,677.2,663.4,677.9,663.2z"/>
		<path class="st0" d="M690.8,688.4c-0.3,0.3-0.4,0.6-0.5,0.9C690.4,689.2,690.5,688.9,690.8,688.4z"/>
		<path class="st0" d="M822.6,531.7c-0.1-0.4-0.3-0.6-0.5-0.8C822.1,530.9,822.3,531.2,822.6,531.7z"/>
		<path class="st0" d="M805.8,547.5c-0.3-0.1-0.6-0.2-0.8-0.2C805,547.4,805.3,547.4,805.8,547.5z"/>
		<path class="st0" d="M832.1,533.1c0,0,0,0.2-0.1,0.4C832.1,533.3,832.1,533.2,832.1,533.1z"/>
		<path class="st0" d="M800.1,551.8c-0.2,0-0.3,0.1-0.4,0.2C799.8,552,799.9,551.9,800.1,551.8z"/>
		<path class="st0" d="M738.1,533.6c0,0,0.4,0.3,1,0.9C738.8,534.1,738.4,533.8,738.1,533.6z"/>
		<path class="st0" d="M721.6,564.2c0,0,0.4-0.1,1.2-0.1C722.3,564.1,721.9,564.1,721.6,564.2z"/>
		<path class="st0" d="M753,532.7c0-0.3,0-0.5-0.1-0.6C752.9,532.1,752.9,532.3,753,532.7z"/>
		<path class="st0" d="M716.3,573.1c0,0,0.1-0.2,0.4-0.4C716.5,572.8,716.4,573,716.3,573.1z"/>
		<path class="st0" d="M844.6,570.7c-0.1-0.5-0.2-0.9-0.4-1.1C844.2,569.6,844.4,570,844.6,570.7z"/>
		<path class="st0" d="M835,567.1c-0.2-0.2-0.3-0.3-0.5-0.3C834.5,566.7,834.7,566.8,835,567.1z"/>
		<path class="st0" d="M730.2,782.9c-0.2,0.3-0.3,0.6-0.2,0.9C730,783.8,730,783.4,730.2,782.9z"/>
		<path class="st0" d="M752.9,785.1c0.1,0.3,0.2,0.6,0.4,0.7C753.3,785.8,753.1,785.6,752.9,785.1z"/>
		<path class="st0" d="M725.2,774.4c-0.2,0.1-0.3,0.2-0.3,0.2C724.8,774.6,725,774.6,725.2,774.4z"/>
		<path class="st0" d="M759.8,786.6c0.1,0.1,0.3,0.2,0.4,0.2C760.1,786.7,760,786.7,759.8,786.6z"/>
		<path class="st0" d="M743.5,739.8c-0.3,0.4-0.5,0.8-0.5,1.1C743,740.9,743.1,740.5,743.5,739.8z"/>
		<path class="st0" d="M747.3,749.6c0,0.3,0,0.5,0.1,0.6C747.4,750.2,747.3,750,747.3,749.6z"/>
		<path class="st0" d="M754.2,561.1c0,0,0.1,0.2,0.3,0.5C754.4,561.4,754.3,561.2,754.2,561.1z"/>
	</g>
	<ellipse class="st1" cx="815" cy="659.5" rx="35.9" ry="36.2"/>
	<g>
		<ellipse class="st2" cx="814.6" cy="659.9" rx="25.9" ry="26.8"/>
		
			<ellipse transform="matrix(0.3414 -0.9399 0.9399 0.3414 -83.0251 1186.5679)" class="st3" cx="805.2" cy="652.5" rx="12.9" ry="8.7"/>
		
			<ellipse transform="matrix(0.9314 -0.3639 0.3639 0.9314 -189.6644 338.1993)" class="st3" cx="802.6" cy="672.4" rx="4.5" ry="4.2"/>
		<path class="st4" d="M822.3,634.3c-3.8,8.6-4.6,10.3-0.6,28c4.7,21.1-10.2,18.3-20.6,20.4c3.9,2.5,8.5,3.9,13.5,3.9
			c14.3,0,25.9-12,25.9-26.8C840.5,647.8,832.9,637.7,822.3,634.3z"/>
		<path class="st5" d="M836.4,645.4c-1.1,5.9-2.4,13.7-3.8,23.4c-1.7,12.5-10.6,16.6-18.2,17.9h0.1c14.3,0,25.9-12,25.9-26.8
			C840.5,654.5,839,649.6,836.4,645.4z"/>
	</g>
	<g>
		<g class="st6">
			<path class="st7" d="M836,628.8c0,0,10.2,4.6,12.7,15"/>
			<path class="st7" d="M848.1,646.6c-1-0.2-1.8-1-2-2.1c-2.2-8.9-11.1-13.1-11.2-13.2c-1.4-0.6-2-2.3-1.4-3.7s2.2-2.1,3.6-1.4
				c0.5,0.2,11.4,5.3,14.3,16.9c0.4,1.5-0.5,3-2,3.4C849,646.7,848.5,646.7,848.1,646.6z"/>
		</g>
		<ellipse class="st8" cx="849.2" cy="653.2" rx="3.2" ry="3.4"/>
	</g>
	<g>
		<ellipse class="st8" cx="827.1" cy="693.8" rx="3.2" ry="3.4"/>
	</g>
	<g class="st6">
		<path class="st7" d="M790.9,682.9c0,0-9.5-6-10.6-16.7"/>
		<path class="st7" d="M781.2,663.6c0.9,0.4,1.6,1.2,1.7,2.3c1,9.1,9.2,14.6,9.3,14.6c1.3,0.8,1.7,2.6,0.9,3.9
			c-0.8,1.3-2.5,1.7-3.8,0.9c-0.4-0.3-10.6-6.9-11.9-18.8c-0.2-1.5,0.9-2.9,2.4-3.1C780.4,663.4,780.8,663.4,781.2,663.6z"/>
	</g>
</g>
<g>
	<path class="st0" d="M559.4,340.8c2.8,1.4,6.3,0.7,8.3-1.7c1.2-1.5,1.8-3.2,1.6-4.9c6.2-4.3,12-12.3,17.6-21.2
		c0.2,3.3,0.8,7,2,10.4c3.5,9.2,0.6,14.4-1.4,16.6c-2.7-1.5-6.1-0.5-7.7,2.2c-1.4,2.5-0.7,5.8,1.7,7.5c2.7,1.9,6.4,1.2,8.1-1.6
		c1-1.6,1.2-3.5,0.6-5.1c0.8-0.9,1.9-2.2,2.8-4c2.9-6,1.5-12.6-0.2-17.1c-2.1-5.4-2-12.1-1.8-15.7c2-3.5,4-7.1,5.9-10.5
		c5.5-10,10.7-19.4,15-23.7c4.6-4.6,11.6-7.3,18.7-8.8c2.1-0.1,4.1-0.4,6-0.9c0.2,0,0.3-0.1,0.5-0.2c14.1-1.8,111.5,2.8,130,3.8
		c1.5,0.2,37.5,1.7,50.5-1c9.2-0.4,20,3.6,30.4,7.5c6.8,2.5,13.2,4.8,19.1,6c2.8,2.1,6.4,5.7,7.8,10.6c1.4,4.7,0.4,9.9-3,15.4
		c-2.4-0.7-5.1,0.3-6.5,2.6c-1.5,2.5-0.8,5.9,1.6,7.6c2.7,1.9,6.4,1.2,8.1-1.6c1.3-2,1.2-4.4,0-6.3c0,0,0,0,0-0.1
		c4.1-6.6,5.2-13,3.5-18.9c-0.6-2-1.5-3.8-2.5-5.5c3.4,2.8,6.7,6.9,8.9,12.8c0.4,1.1,0.8,2.3,1.2,3.4c5.5,15,9.1,25.2,20.5,31.4
		c0.4,1.6,1.6,3.1,3.4,3.9c2.4,1.1,5.4,0.4,7.1-1.6c2.3-2.8,1.6-7-1.4-8.9c-2.8-1.8-6.6-1-8.4,1.8c-0.1,0.2-0.2,0.3-0.3,0.5
		c-8.9-5.6-12.1-14.5-17.2-28.4c-0.4-1.1-0.8-2.2-1.2-3.4c-2.6-7.1-6.7-11.9-10.7-15.1c17.1-2.5,34.3-18,39.3-22.8
		c3.3,1.7,7.4,0.6,9.3-2.7c1.7-3,0.8-6.9-2-9c-3.2-2.3-7.7-1.5-9.8,1.8c-0.9,1.3-1.2,2.8-1.1,4.3c-1.5,1.5-6.9,6.7-14.1,11.7
		c-10.8,7.5-20.5,11.1-28.1,10.5c-6-0.5-13.6-3.3-21.5-6.2c-6-2.2-12.3-4.5-18.6-6.1c3.1-1.6,6-3.6,8.4-6c4.9-5,10.1-14.3,16.1-25.2
		c0.4-0.7,0.8-1.3,1.1-2c0.5-0.4,1.1-0.8,1.7-1.3c5.5-3.8,11-4.7,16.4-2.7c10.3,3.8,17.4,5.2,20.9,5.8c0.4,1.6,1.4,3.1,3.1,3.9
		c2.3,1.1,5.2,0.5,6.9-1.5c2.2-2.7,1.6-6.6-1.3-8.5c-2.7-1.7-6.2-1-8,1.7c-0.1,0.1-0.1,0.2-0.2,0.4c-3.3-0.5-10.2-1.8-20.1-5.5
		c-5-1.9-10.3-1.6-15.5,0.6c6.5-11.3,13.3-22.2,20.1-27c3.1,1.8,7.2,0.9,9.2-2.2c2.5-3.5,1.3-8.1-2.4-10c-2.8-1.4-6.3-0.7-8.3,1.7
		c-1.2,1.5-1.8,3.2-1.6,4.9c-6.2,4.3-12,12.3-17.6,21.2c-0.2-3.3-0.8-7-2-10.4c-3.5-9.2-0.6-14.4,1.4-16.6c2.7,1.5,6.1,0.5,7.7-2.2
		c1.4-2.5,0.7-5.8-1.7-7.5c-2.7-1.9-6.4-1.2-8.1,1.6c-1,1.6-1.2,3.5-0.6,5.1c-0.8,0.9-1.9,2.2-2.8,4c-2.9,6-1.5,12.6,0.2,17.1
		c2.1,5.4,2,12.1,1.8,15.7c-2,3.5-4,7.1-5.9,10.5c-5.5,10-10.7,19.4-15,23.7c-4.6,4.6-11.6,7.3-18.7,8.8c-2.1,0.1-4.1,0.4-6,0.9
		c-0.2,0-0.3,0.1-0.5,0.2c-4.4,0.5-16.8,0.5-32.4,0.1l0,0.1c-13-0.2-32-1.3-46.1-2.3c-3.1-0.6-10.5-3.2-10.8-11.9
		c-0.4-11,1.2-34,1.2-34s2.5-11.2,19.3-31.4c0,0,19.3-25.5-3.9-41.1s-36.1-0.4-41.4,8.5s0.8,34.2,9.7,51.8s7.6,45.1,7.6,45.1
		s-1.9,10.4-8.8,11.1c-0.9,0.1-1.6,0.2-2.3,0.4c-11.2-0.1-27.9-0.5-43.5-0.9c-3.2-0.3-16.2-1-29.1,1.6c-9.2,0.4-20-3.6-30.4-7.5
		c-6.8-2.5-13.2-4.8-19.1-6c-2.8-2.1-6.4-5.7-7.8-10.6c-1.4-4.7-0.4-9.9,3-15.4c2.4,0.7,5.1-0.3,6.5-2.6c1.5-2.5,0.8-5.9-1.6-7.6
		c-2.7-1.9-6.4-1.2-8.1,1.6c-1.3,2-1.2,4.4,0,6.3c0,0,0,0,0,0.1c-4.1,6.6-5.2,13-3.5,18.9c0.6,2,1.5,3.8,2.5,5.5
		c-3.4-2.8-6.7-6.9-8.9-12.8c-0.4-1.1-0.8-2.3-1.2-3.4c-5.5-15-9.1-25.2-20.5-31.4c-0.4-1.6-1.6-3.1-3.4-3.9
		c-2.4-1.1-5.4-0.4-7.1,1.6c-2.3,2.8-1.6,7,1.4,8.9c2.8,1.8,6.6,1,8.4-1.8c0.1-0.2,0.2-0.3,0.3-0.5c8.9,5.6,12.1,14.5,17.2,28.4
		c0.4,1.1,0.8,2.2,1.2,3.4c2.6,7.1,6.7,11.9,10.7,15.1c-17.1,2.5-34.3,18-39.3,22.8c-3.3-1.7-7.4-0.6-9.3,2.7c-1.7,3-0.8,6.9,2,9
		c3.2,2.3,7.7,1.5,9.8-1.8c0.9-1.3,1.2-2.8,1.1-4.3c1.5-1.5,6.9-6.7,14.1-11.7c10.8-7.5,20.5-11.1,28.1-10.5
		c6,0.5,13.6,3.3,21.5,6.2c6,2.2,12.3,4.5,18.6,6.1c-3.1,1.6-6,3.6-8.4,6c-4.9,5-10.1,14.3-16.1,25.2c-0.4,0.7-0.8,1.3-1.1,2
		c-0.5,0.4-1.1,0.8-1.7,1.3c-5.5,3.8-11,4.7-16.4,2.7c-10.3-3.8-17.4-5.2-20.9-5.8c-0.4-1.6-1.4-3.1-3.1-3.9
		c-2.3-1.1-5.2-0.5-6.9,1.5c-2.2,2.7-1.6,6.6,1.3,8.5c2.7,1.7,6.2,1,8-1.7c0.1-0.1,0.1-0.2,0.2-0.4c3.3,0.5,10.2,1.8,20.1,5.5
		c5,1.9,10.3,1.6,15.5-0.6c-6.5,11.3-13.3,22.2-20.1,27c-3.1-1.8-7.2-0.9-9.2,2.2C554.5,334.3,555.7,339,559.4,340.8z"/>
	<path class="st0" d="M643.9,218.1c0,0,0.3,0.1,0.7,0.4C644.3,218.3,644.1,218.1,643.9,218.1z"/>
	<path class="st0" d="M786.2,385.7c0,0-0.3-0.2-0.7-0.7C785.7,385.3,785.9,385.6,786.2,385.7z"/>
	<path class="st0" d="M793.6,384.4c0.2,0.1,0.4,0.1,0.5,0.1C794.1,384.5,793.9,384.5,793.6,384.4z"/>
	<path class="st0" d="M689.6,237.1c0,0,0.6-0.1,1.7-0.2C690.6,236.9,690,236.9,689.6,237.1z"/>
	<path class="st0" d="M704.8,280.2c0,0,0.3-0.5,0.9-1.2C705.2,279.5,704.9,279.9,704.8,280.2z"/>
	<path class="st0" d="M759.6,389.7c-0.1,0.4-0.1,0.8,0,1C759.6,390.7,759.6,390.4,759.6,389.7z"/>
	<path class="st0" d="M876.2,378.1c0.5,0.1,0.8,0.1,1.1,0C877.4,378.2,877,378.2,876.2,378.1z"/>
	<path class="st0" d="M871.1,350c0.4-0.2,0.6-0.5,0.7-0.7C871.8,349.3,871.6,349.6,871.1,350z"/>
	<path class="st0" d="M868.4,387.1c0,0-0.2-0.1-0.4-0.3C868.1,386.9,868.3,387,868.4,387.1z"/>
	<path class="st0" d="M870.5,341.2c0.1-0.2,0.1-0.4,0.1-0.5C870.5,340.7,870.5,340.9,870.5,341.2z"/>
	<path class="st0" d="M922.2,305.2c0.3,0.2,0.5,0.3,0.7,0.3C922.9,305.5,922.6,305.4,922.2,305.2z"/>
	<path class="st0" d="M857.8,338.8c0.4,0.2,0.8,0.3,1.1,0.3C859,339.1,858.5,339,857.8,338.8z"/>
	<path class="st0" d="M865.6,333.1c0.2-0.1,0.4-0.1,0.5-0.2C866.1,332.9,866,333,865.6,333.1z"/>
	<path class="st0" d="M758.6,140.6c0-0.2,0-0.3,0-0.4C758.6,140.2,758.6,140.4,758.6,140.6z"/>
	<path class="st0" d="M750.9,382.6c0,0,0.1-0.2,0.3-0.4C751,382.4,750.9,382.5,750.9,382.6z"/>
	<g>
		
			<ellipse transform="matrix(0.5447 -0.8386 0.8386 0.5447 190.725 678.2185)" class="st1" cx="720" cy="163.4" rx="19.7" ry="19.9"/>
		<g>
			
				<ellipse transform="matrix(0.5447 -0.8386 0.8386 0.5447 190.9545 678.0207)" class="st2" cx="720" cy="163.1" rx="14.3" ry="14.7"/>
			
				<ellipse transform="matrix(0.7983 -0.6022 0.6022 0.7983 49.5187 469.7569)" class="st3" cx="726.1" cy="160.9" rx="4.8" ry="7.1"/>
			
				<ellipse transform="matrix(0.2022 -0.9793 0.9793 0.2022 421.9084 825.6688)" class="st3" cx="717.7" cy="153.9" rx="2.5" ry="2.3"/>
			<path class="st4" d="M729.4,174.3c-2.8-4.4-3.4-5.2-12.7-8.7c-11.2-4.2-5.4-10.2-3.3-15.6c-2.3,1.1-4.4,2.8-5.8,5
				c-4.3,6.6-2.2,15.6,4.6,20C717.7,178.7,724.7,178.2,729.4,174.3z"/>
			<path class="st5" d="M720.1,177.5c-2.4-2.3-5.6-5.2-9.6-8.7c-5.2-4.5-4.5-9.9-2.8-13.8c0,0,0,0,0,0.1c-4.3,6.6-2.2,15.6,4.6,20
				C714.6,176.7,717.4,177.5,720.1,177.5z"/>
		</g>
		<g>
			<g class="st6">
				<path class="st7" d="M727.9,182.3c0,0-5.2,3.3-10.7,1.4"/>
				<path class="st7" d="M716,182.5c0.4-0.4,1-0.5,1.6-0.3c4.8,1.6,9.4-1.2,9.4-1.2c0.7-0.4,1.6-0.2,2.1,0.5
					c0.4,0.7,0.3,1.6-0.4,2.1c-0.3,0.2-5.9,3.7-12.1,1.5c-0.8-0.3-1.2-1.1-1-1.9C715.7,182.9,715.8,182.7,716,182.5z"/>
			</g>
			
				<ellipse transform="matrix(0.5447 -0.8386 0.8386 0.5447 172.57 680.053)" class="st8" cx="712.6" cy="181.1" rx="1.8" ry="1.8"/>
		</g>
		<g>
			
				<ellipse transform="matrix(0.5447 -0.8386 0.8386 0.5447 185.8215 659.7354)" class="st8" cx="700.5" cy="158.7" rx="1.8" ry="1.8"/>
		</g>
		<g class="st6">
			<path class="st7" d="M716.4,145.3c0,0,5.6-2.6,10.9,0.1"/>
			<path class="st7" d="M728.2,146.6c-0.4,0.3-1.1,0.4-1.6,0.1c-4.5-2.3-9.5-0.1-9.5-0.1c-0.8,0.4-1.7,0-2.1-0.8
				c-0.4-0.8-0.1-1.6,0.7-2c0.2-0.1,6.3-2.8,12.2,0.1c0.8,0.4,1.1,1.3,0.7,2.1C728.6,146.3,728.4,146.5,728.2,146.6z"/>
		</g>
	</g>
	<path class="st0" d="M705.3,240.4c-0.1-0.2-0.2-0.3-0.3-0.4C704.9,240,705.1,240.2,705.3,240.4z"/>
	<path class="st0" d="M697.4,250.2c-0.2-0.1-0.3-0.1-0.5,0C697,250.1,697.2,250.1,697.4,250.2z"/>
	<path class="st0" d="M694.7,252.9c-0.1,0.1-0.1,0.1-0.2,0.1C694.5,253,694.6,253,694.7,252.9z"/>
	<path class="st0" d="M721.2,259.5c-0.1-0.3-0.2-0.4-0.3-0.6C720.8,258.9,720.9,259,721.2,259.5z"/>
	<path class="st0" d="M715.5,258.3c-0.1-0.1-0.2-0.1-0.3-0.1C715.2,258.1,715.3,258.2,715.5,258.3z"/>
</g>
</svg>
