<?xml version="1.0" encoding="utf-8"?>
<!-- Generator: Adobe Illustrator 13.0.0, SVG Export Plug-In . SVG Version: 6.00 Build 14948)  -->
<!DOCTYPE svg PUBLIC "-//W3C//DTD SVG 1.1//EN" "http://www.w3.org/Graphics/SVG/1.1/DTD/svg11.dtd">
<svg version="1.1" xmlns="http://www.w3.org/2000/svg" xmlns:xlink="http://www.w3.org/1999/xlink" x="0px" y="0px" width="250px"
	 height="208px" viewBox="0 0 250 208" enable-background="new 0 0 250 208" xml:space="preserve">
<g id="Ebene_2">
	<g id="XMLID_1_">
		<g>
			<linearGradient id="SVGID_1_" gradientUnits="userSpaceOnUse" x1="41.6216" y1="56.6343" x2="228.2881" y2="176.3008">
				<stop  offset="0" style="stop-color:#FFFFFF"/>
				<stop  offset="1" style="stop-color:#CCCCCC"/>
			</linearGradient>
			<path fill="url(#SVGID_1_)" d="M36.986,71.181c0-29.64,32.12-29.3,33.92-29.25c-2.81,4.34-4.83,8.79-6.19,12.8l-0.16-0.05
				c0,0-15.57,2-15.57,16.75c0,5.75,4,14.35,4,14.35l0.1,0.39c-3.93,1.18-7.74,2.56-11.2,4.11l-0.15-0.35
				C41.736,89.931,36.986,83.431,36.986,71.181z"/>
			<linearGradient id="SVGID_2_" gradientUnits="userSpaceOnUse" x1="47.793" y1="47.0078" x2="234.4595" y2="166.6743">
				<stop  offset="0" style="stop-color:#FFFFFF"/>
				<stop  offset="1" style="stop-color:#CCCCCC"/>
			</linearGradient>
			<path fill="url(#SVGID_2_)" d="M70.906,41.931c7.43-11.49,20.36-22.25,41.08-22.25c37.5,0,38.25,29.75,38.25,35
				c0,19.5-7.5,25.75-7.5,25.75s5,6.25,5,10s-2.5,5.75-2.5,5.75s13,4.5,13,21.75c0,21.2,16.15,26.05,18.67,26.67h0.01
				c4.101-7.97,12.99-14.67,23.32-14.67c14.25,0,30.25,11.75,30.25,32.25s-16.5,37.5-40,37.5c-27,0-33-26.75-36.25-31.25
				c-2.07-2.86-25.5-7.25-41.17-19.36c-5.18-4.01-16.58-17.68-16.58-26.64c0-3.25,0-3.25,0-3.25s-15,4.75-26.25,4.75
				s-44.25-4.5-44.25-18.5c0-5.87,6.73-11.09,15.9-15.15c3.46-1.55,7.27-2.93,11.2-4.11c4.29-1.3,8.73-2.38,12.99-3.19l-0.09-0.52
				c0,0-3.5-5.53-3.5-16.53c0-2.62,0.68-6.63,2.23-11.2C66.076,50.721,68.096,46.271,70.906,41.931z M58.227,93.911l0.01,0.02
				c0,0,4,5.5,9.25,8s13.75,3,13.75,3s-3.75-2.75-7.5-7.25s-4.25-6.75-4.25-6.75l-0.09-0.37
				C65.667,91.421,61.846,92.591,58.227,93.911z M47.366,98.581c-5.17,2.65-8.63,5.23-8.63,6.85c0,4.5,8.75,7.5,19.25,7.5
				c3.17,0,5.88-0.09,8.13-0.22c-1.4-0.74-6.5-3.471-10.13-6.03C52.156,103.981,48.136,99.461,47.366,98.581z M82.746,88.951
				c0.15,0.53,3.43,11.23,10.74,11.23c1.17,0,2.33-0.61,2.77-0.87C96.296,95.521,95.696,89.321,82.746,88.951z M82.566,43.551
				l0.17,0.13c0,0,3.75-0.25,17.25,8.75s14.25,20,14.25,20s3.57-2.4,5.97-1.53c2.75,1,4.78,4.28,4.78,4.28l0.04,0.13
				c3.2-0.94,6.46-0.13,6.46-0.13s4.25-8.75,4.25-17.5c0-12.14-6.73-26.75-25.25-26.75C99.286,30.931,89.036,35.351,82.566,43.551z
				 M76.736,55.371c-0.81,3.09-1.25,6.45-1.25,10.06c0,6.75,3.25,15.25,3.25,15.25l0.04,0.62c1.31-0.08,2.55-0.12,3.71-0.12
				c7.58,0,13.71,0.88,18.65,2.3l0.07-0.23c0,0-0.22-2.32,1.28-3.82s2-0.75,2-3c0-11-27.5-21-27.5-21L76.736,55.371z"/>
		</g>
		<g>
			<path fill="none" stroke="#000000" d="M176.916,144.601c4.101-7.97,12.99-14.67,23.32-14.67c14.25,0,30.25,11.75,30.25,32.25
				s-16.5,37.5-40,37.5c-27,0-33-26.75-36.25-31.25c-2.07-2.86-25.5-7.25-41.17-19.36c-5.18-4.01-16.58-17.68-16.58-26.64
				c0-3.25,0-3.25,0-3.25s-15,4.75-26.25,4.75s-44.25-4.5-44.25-18.5c0-5.87,6.73-11.09,15.9-15.15c3.46-1.55,7.27-2.93,11.2-4.11
				c4.29-1.3,8.73-2.38,12.99-3.19c4.54-0.87,8.9-1.44,12.7-1.68c1.31-0.08,2.55-0.12,3.71-0.12c7.58,0,13.71,0.88,18.65,2.3
				c20.49,5.86,20.75,20.95,20.75,20.95"/>
			<path fill="none" stroke="#000000" d="M202.236,155.681c0,0,0.25,9-6.25,9s-8.75-4.75-8.75-9s6.25-9.75,10.5-9.75
				s12.75,4,12.75,12.5s-5.25,16-16.75,16s-19.25-9.25-19.25-20.5c0-3.1,0.87-6.3,2.42-9.33"/>
			<path fill="none" stroke="#000000" d="M100.486,109.181c0,0-4.25-5-4.25-8.5c0-0.4,0.02-0.86,0.02-1.37
				c0.04-3.79-0.56-9.99-13.51-10.36c-0.41-0.01-0.83-0.02-1.26-0.02c-3.62,0-7.8,0.62-12.09,1.63c-3.73,0.86-7.55,2.03-11.17,3.35
				c-3.99,1.44-7.74,3.07-10.86,4.67c-5.17,2.65-8.63,5.23-8.63,6.85c0,4.5,8.75,7.5,19.25,7.5c3.17,0,5.88-0.09,8.13-0.22
				c5.19-0.29,7.87-0.78,7.87-0.78"/>
			<path fill="none" stroke="#000000" d="M65.986,82.461c0,0-3.5-5.53-3.5-16.53c0-2.62,0.68-6.63,2.23-11.2
				c1.36-4.01,3.38-8.46,6.19-12.8c7.43-11.49,20.36-22.25,41.08-22.25c37.5,0,38.25,29.75,38.25,35c0,19.5-7.5,25.75-7.5,25.75
				s5,6.25,5,10s-2.5,5.75-2.5,5.75s13,4.5,13,21.75c0,21.2,16.15,26.05,18.67,26.67h0.01c0.21,0.061,0.32,0.08,0.32,0.08"/>
			<path fill="none" stroke="#000000" d="M78.736,80.681c0,0-3.25-8.5-3.25-15.25c0-3.61,0.44-6.97,1.25-10.06
				c1.19-4.53,3.2-8.49,5.83-11.82c6.47-8.2,16.72-12.62,27.92-12.62c18.52,0,25.25,14.61,25.25,26.75c0,8.75-4.25,17.5-4.25,17.5
				s-3.26-0.81-6.46,0.13c-0.35,0.1-0.7,0.22-1.04,0.37c-3.5,1.5-6.25,5.5-6.25,5.5"/>
			<path fill="none" stroke="#000000" d="M124.986,75.181c0,0-2.03-3.28-4.78-4.28c-2.4-0.87-5.97,1.53-5.97,1.53s-0.75-11-14.25-20
				s-17.25-8.75-17.25-8.75"/>
			<path fill="none" stroke="#000000" d="M70.986,41.931c0,0-0.03,0-0.08,0c-1.8-0.05-33.92-0.39-33.92,29.25
				c0,12.25,4.75,18.75,4.75,18.75"/>
			<path fill="none" stroke="#000000" d="M101.207,83.251c0,0-0.22-2.32,1.28-3.82s2-0.75,2-3c0-11-27.5-21-27.5-21"/>
			<path fill="none" stroke="#000000" d="M64.556,54.681c0,0-15.57,2-15.57,16.75c0,5.75,4,14.35,4,14.35"/>
			<path fill="none" stroke="#000000" d="M47.236,98.431c0,0,0.04,0.05,0.13,0.15c0.77,0.88,4.79,5.4,8.62,8.1
				c3.63,2.56,8.73,5.29,10.13,6.03c0.24,0.12,0.37,0.189,0.37,0.189"/>
			<path fill="none" stroke="#000000" d="M58.236,93.931c0,0,4,5.5,9.25,8s13.75,3,13.75,3s-3.75-2.75-7.5-7.25
				s-4.25-6.75-4.25-6.75"/>
			<path fill="none" stroke="#000000" d="M82.736,88.931c0,0,0,0.01,0.01,0.02c0.15,0.53,3.43,11.23,10.74,11.23
				c1.17,0,2.33-0.61,2.77-0.87c0.13-0.08,0.2-0.13,0.2-0.13"/>
		</g>
	</g>
	<g>
		<g>
			<path fill="none" d="M143.236,114.801c0,5.6-4.03,10.13-9,10.13s-9-4.53-9-10.13c0-5.59,4.03-10.12,9-10.12
				S143.236,109.211,143.236,114.801z"/>
			<g>
				<path d="M142.198,118.043c0.257-0.796,0.439-1.606,0.459-2.447l1.01,0.074c-0.025,0.917-0.223,1.806-0.504,2.68L142.198,118.043
					z"/>
			</g>
			<g>
				<path d="M140.25,121.591c0.463-0.686,1.051-1.293,1.349-2.081l0.905,0.453c-0.334,0.861-0.973,1.546-1.494,2.297L140.25,121.591
					z"/>
			</g>
			<g>
				<path d="M136.962,123.872c0.798-0.208,1.452-0.767,2.136-1.2l0.63,0.793c-0.763,0.495-1.502,1.104-2.401,1.352L136.962,123.872z
					"/>
			</g>
			<g>
				<path d="M133.021,124.285c0.813,0.155,1.625,0.153,2.438-0.001l0.164,0.999c-0.922,0.173-1.844,0.175-2.767,0.001
					L133.021,124.285z"/>
			</g>
			<g>
				<path d="M129.381,122.677c0.687,0.43,1.338,0.992,2.138,1.196l-0.363,0.945c-0.901-0.243-1.639-0.856-2.403-1.348
					L129.381,122.677z"/>
			</g>
			<g>
				<path d="M126.878,119.518c0.298,0.788,0.888,1.394,1.35,2.08l-0.759,0.669c-0.521-0.752-1.162-1.435-1.496-2.295
					L126.878,119.518z"/>
			</g>
			<g>
				<path d="M125.816,115.604c0.02,0.842,0.205,1.651,0.46,2.447l-0.964,0.308c-0.28-0.874-0.48-1.762-0.505-2.68L125.816,115.604z"
					/>
			</g>
			<g>
				<path d="M126.273,111.568c-0.258,0.796-0.438,1.606-0.458,2.447l-1.01-0.073c0.025-0.918,0.221-1.807,0.503-2.681
					L126.273,111.568z"/>
			</g>
			<g>
				<path d="M128.223,108.021c-0.464,0.685-1.051,1.292-1.35,2.08l-0.905-0.453c0.335-0.861,0.973-1.546,1.495-2.297
					L128.223,108.021z"/>
			</g>
			<g>
				<path d="M131.511,105.741c-0.798,0.208-1.452,0.767-2.137,1.199l-0.629-0.793c0.763-0.494,1.502-1.104,2.401-1.351
					L131.511,105.741z"/>
			</g>
			<g>
				<path d="M135.451,105.328c-0.813-0.156-1.625-0.153-2.438,0.001l-0.164-0.999c0.922-0.172,1.844-0.174,2.767-0.001
					L135.451,105.328z"/>
			</g>
			<g>
				<path d="M139.092,106.935c-0.686-0.43-1.338-0.992-2.138-1.196l0.363-0.946c0.901,0.244,1.639,0.857,2.403,1.348
					L139.092,106.935z"/>
			</g>
			<g>
				<path d="M141.596,110.093c-0.298-0.788-0.888-1.394-1.351-2.079l0.76-0.67c0.521,0.752,1.161,1.435,1.496,2.295L141.596,110.093
					z"/>
			</g>
			<g>
				<path d="M142.657,114.006c-0.02-0.841-0.204-1.65-0.46-2.446l0.964-0.308c0.282,0.874,0.48,1.762,0.506,2.68L142.657,114.006z"
					/>
			</g>
		</g>
	</g>
	<g>
		<g>
			<circle fill="none" cx="150.956" cy="147.211" r="9.25"/>
			<g>
				<path d="M159.11,150.295c0.255-0.758,0.494-1.519,0.511-2.325l1.009,0.088c-0.025,0.898-0.285,1.75-0.572,2.596L159.11,150.295z
					"/>
			</g>
			<g>
				<path d="M156.972,153.532c0.527-0.582,1.112-1.16,1.472-1.87l0.87,0.518c-0.407,0.79-1.05,1.44-1.644,2.086L156.972,153.532z"/>
			</g>
			<g>
				<path d="M153.626,155.494c0.791-0.167,1.449-0.646,2.162-1l0.56,0.843c-0.789,0.406-1.532,0.926-2.411,1.121L153.626,155.494z"
					/>
			</g>
			<g>
				<path d="M149.766,155.833c0.794,0.136,1.587,0.136,2.381,0l0.138,1.004c-0.886,0.147-1.771,0.147-2.656,0L149.766,155.833z"/>
			</g>
			<g>
				<path d="M146.125,154.493c0.712,0.355,1.371,0.834,2.161,1.001l-0.311,0.964c-0.879-0.195-1.622-0.715-2.411-1.121
					L146.125,154.493z"/>
			</g>
			<g>
				<path d="M143.469,151.661c0.359,0.711,0.944,1.288,1.472,1.871l-0.697,0.733c-0.595-0.646-1.237-1.296-1.645-2.086
					L143.469,151.661z"/>
			</g>
			<g>
				<path d="M142.291,147.97c0.017,0.807,0.256,1.567,0.511,2.325l-0.947,0.358c-0.287-0.846-0.547-1.697-0.572-2.596
					L142.291,147.97z"/>
			</g>
			<g>
				<path d="M142.802,144.127c-0.255,0.758-0.494,1.518-0.511,2.324l-1.009-0.087c0.025-0.898,0.285-1.75,0.572-2.596
					L142.802,144.127z"/>
			</g>
			<g>
				<path d="M144.94,140.891c-0.527,0.582-1.112,1.159-1.472,1.87l-0.87-0.518c0.407-0.79,1.05-1.44,1.645-2.086L144.94,140.891z"/>
			</g>
			<g>
				<path d="M148.286,138.929c-0.79,0.167-1.449,0.646-2.161,1l-0.561-0.843c0.789-0.406,1.532-0.926,2.411-1.121L148.286,138.929z"
					/>
			</g>
			<g>
				<path d="M152.146,138.59c-0.793-0.136-1.587-0.136-2.381-0.001l-0.138-1.003c0.886-0.147,1.771-0.147,2.656,0L152.146,138.59z"
					/>
			</g>
			<g>
				<path d="M155.788,139.929c-0.712-0.354-1.371-0.833-2.162-1l0.311-0.964c0.88,0.195,1.622,0.715,2.412,1.121L155.788,139.929z"
					/>
			</g>
			<g>
				<path d="M158.443,142.761c-0.359-0.711-0.943-1.288-1.472-1.87l0.698-0.733c0.595,0.646,1.237,1.296,1.644,2.086
					L158.443,142.761z"/>
			</g>
			<g>
				<path d="M159.621,146.453c-0.017-0.807-0.256-1.567-0.511-2.325l0.947-0.358c0.287,0.846,0.547,1.697,0.572,2.596
					L159.621,146.453z"/>
			</g>
		</g>
	</g>
</g>
<g id="Ebene_3">
	<line fill="none" stroke="#AAAAAA" x1="34.736" y1="18.181" x2="55.236" y2="50.681"/>
	<line fill="none" stroke="#AAAAAA" x1="36.236" y1="129.931" x2="60.486" y2="117.681"/>
	<line fill="none" stroke="#AAAAAA" x1="94.986" y1="167.931" x2="124.236" y2="143.181"/>
	<line fill="none" stroke="#AAAAAA" x1="143.236" y1="187.431" x2="149.236" y2="148.681"/>
	<line fill="none" stroke="#AAAAAA" x1="216.736" y1="124.931" x2="198.236" y2="154.181"/>
	<line fill="none" stroke="#AAAAAA" x1="171.236" y1="90.431" x2="142.736" y2="102.181"/>
	<line fill="none" stroke="#AAAAAA" x1="155.236" y1="23.681" x2="132.486" y2="34.181"/>
</g>
</svg>
