<?xml version="1.0" encoding="UTF-8" standalone="no"?>
<svg
   xmlns:dc="http://purl.org/dc/elements/1.1/"
   xmlns:cc="http://creativecommons.org/ns#"
   xmlns:rdf="http://www.w3.org/1999/02/22-rdf-syntax-ns#"
   xmlns:svg="http://www.w3.org/2000/svg"
   xmlns="http://www.w3.org/2000/svg"
   xmlns:sodipodi="http://sodipodi.sourceforge.net/DTD/sodipodi-0.dtd"
   xmlns:inkscape="http://www.inkscape.org/namespaces/inkscape"
   sodipodi:docname="Cochlea.svg"
   inkscape:version="1.0 (4035a4fb49, 2020-05-01)"
   version="1.1"
   id="svg8747"
   viewBox="0 0 472.44493 268.56287"
   height="75.794411mm"
   width="133.33446mm">
  <defs
     id="defs8749">
    <marker
       inkscape:isstock="true"
       style="overflow:visible"
       id="Arrow1Mstart"
       refX="0.0"
       refY="0.0"
       orient="auto"
       inkscape:stockid="Arrow1Mstart">
      <path
         transform="scale(0.4) translate(10,0)"
         style="fill-rule:evenodd;stroke:#000000;stroke-width:1pt;stroke-opacity:1;fill:#000000;fill-opacity:1"
         d="M 0.0,0.0 L 5.0,-5.0 L -12.5,0.0 L 5.0,5.0 L 0.0,0.0 z "
         id="path4264" />
    </marker>
    <marker
       inkscape:isstock="true"
       style="overflow:visible;"
       id="Arrow1Mend"
       refX="0.0"
       refY="0.0"
       orient="auto"
       inkscape:stockid="Arrow1Mend">
      <path
         transform="scale(0.4) rotate(180) translate(10,0)"
         style="fill-rule:evenodd;stroke:#000000;stroke-width:1pt;stroke-opacity:1;fill:#000000;fill-opacity:1"
         d="M 0.0,0.0 L 5.0,-5.0 L -12.5,0.0 L 5.0,5.0 L 0.0,0.0 z "
         id="path4267" />
    </marker>
    <inkscape:perspective
       sodipodi:type="inkscape:persp3d"
       inkscape:vp_x="0 : 138.483 : 1"
       inkscape:vp_y="0 : 1000 : 0"
       inkscape:vp_z="474.157 : 138.483 : 1"
       inkscape:persp3d-origin="237.0785 : 92.322 : 1"
       id="perspective250" />
  </defs>
  <sodipodi:namedview
     inkscape:document-rotation="0"
     inkscape:window-maximized="1"
     inkscape:window-y="-8"
     inkscape:window-x="-8"
     inkscape:window-height="1017"
     inkscape:window-width="1920"
     fit-margin-bottom="0"
     fit-margin-right="0"
     fit-margin-left="0"
     fit-margin-top="0"
     showgrid="false"
     inkscape:current-layer="g1304"
     inkscape:document-units="px"
     inkscape:cy="90.664659"
     inkscape:cx="201.61665"
     inkscape:zoom="1.4"
     inkscape:pageshadow="2"
     inkscape:pageopacity="0.0"
     borderopacity="1.0"
     bordercolor="#666666"
     pagecolor="#ffffff"
     id="base" />
  <metadata
     id="metadata8752">
    <rdf:RDF>
      <cc:Work
         rdf:about="">
        <dc:format>image/svg+xml</dc:format>
        <dc:type
           rdf:resource="http://purl.org/dc/dcmitype/StillImage" />
        <dc:title />
      </cc:Work>
    </rdf:RDF>
  </metadata>
  <g
     transform="translate(-106.63468,-318.08077)"
     id="layer1"
     inkscape:groupmode="layer"
     inkscape:label="Layer 1">
    <g
       inkscape:export-ydpi="89.019997"
       inkscape:export-xdpi="89.019997"
       transform="translate(96.360399,313.78566)"
       id="Layer_3">
      <path
         style="fill:none;stroke:#000000;stroke-width:2;stroke-linecap:round"
         inkscape:connector-curvature="0"
         id="path5"
         d="m 327.023,103.263 c 0.833,-6.146 3.971,-12.109 8.063,-16.958" />
      <path
         style="fill:none;stroke:#000000;stroke-width:2;stroke-linecap:round"
         inkscape:connector-curvature="0"
         id="path7"
         d="m 357.828,73.581 c 0.408,-0.074 1.274,-0.499 1.688,-0.562 20.54,-3.125 39.303,8.238 41.911,25.381 2.61,17.142 -11.927,33.573 -32.466,36.698 -16.172,2.46 -31.243,-4.061 -38.194,-15.313" />
      <path
         style="stroke:#000000;stroke-width:2;stroke-linecap:round"
         inkscape:connector-curvature="0"
         id="path9"
         d="m 359.146,86.305 c 0,-2.374 -2.489,-7.173 -2.489,-11.846 -1.996,1.425 -2.429,1.538 -3.999,2.75 3.999,3.999 4.896,8.204 6.488,9.096 z" />
      <path
         style="fill:none;stroke:#000000;stroke-width:2;stroke-linecap:round"
         inkscape:connector-curvature="0"
         id="path11"
         d="m 363.873,97.287 c -0.838,-6 -4.727,-15.595 -2.899,-18.827 1.394,-3.511 2.82,-5.018 16.923,-0.923 14.103,4.095 18.081,15.091 18.731,17.248 0.68,2.252 3.202,15.436 -4.423,23.061 -9.756,9.756 -15.309,14.191 -18.684,6.066 -3.375,-8.125 -7.902,-17.125 -9.648,-26.625 z" />
      <path
         style="fill:none;stroke:#000000;stroke-width:2;stroke-linecap:round"
         inkscape:connector-curvature="0"
         id="path13"
         d="M 443.146,129.787" />
      <path
         style="fill:none;stroke:#000000;stroke-width:2;stroke-linecap:round"
         inkscape:connector-curvature="0"
         id="path15"
         d="m 341.479,122.274 c 4.743,-4.743 13,-33.118 13,-35.969 0,-2.851 -1.116,-9.965 -12.452,-2.877 -11.336,7.088 -7.625,1.886 -10.551,7.873 -2.926,5.987 -2.552,22.824 1.669,27.044 3.168,6.958 4.7,9.28 8.334,3.929 z" />
    </g>
    <ellipse
       style="fill:none;stroke:#000000;stroke-width:2;marker-start:"
       inkscape:export-ydpi="89.019997"
       inkscape:export-xdpi="89.019997"
       id="ellipse18"
       ry="70.024269"
       rx="48.870186"
       cy="-331.67621"
       cx="-317.26331"
       transform="matrix(-0.9631963,-0.26879897,0.26879897,-0.9631963,0,0)" />
    <circle
       style="fill:none;stroke:#000000;stroke-width:2;marker-start:"
       inkscape:export-ydpi="89.019997"
       inkscape:export-xdpi="89.019997"
       id="circle20"
       r="22.674"
       cy="432.13068"
       cx="203.0414" />
    <ellipse
       style="fill:none;stroke:#000000;stroke-width:2;marker-start:"
       inkscape:export-ydpi="89.019997"
       inkscape:export-xdpi="89.019997"
       id="ellipse22"
       ry="18.605009"
       rx="30.664015"
       cy="315.20792"
       cx="294.32928"
       transform="matrix(0.97999951,0.1989999,-0.1989999,0.97999951,0,0)" />
    <path
       inkscape:connector-curvature="0"
       inkscape:export-ydpi="89.019997"
       inkscape:export-xdpi="89.019997"
       style="fill:none;stroke:#000000;stroke-width:2;stroke-dasharray:4, 4;marker-end:url(#Arrow1Mend)"
       id="path24"
       d="m 229.78541,373.41066 c 9.126,38.778 26.211,119.935 81.396,154.652 85.465,38.373 138.927,-16.073 138.927,-94.563" />
    <path
       inkscape:connector-curvature="0"
       inkscape:export-ydpi="89.019997"
       inkscape:export-xdpi="89.019997"
       style="fill:none;stroke:#000000;stroke-width:2;stroke-dasharray:4, 4;marker-start:url(#Arrow1Mstart)"
       id="path26"
       d="m 205.9484,438.38466 c 13.36301,34.812 54.65101,130.743 165.11601,130.743 88.663,-9.588 107.305,-62.036 109.631,-143.388" />
    <path
       style="fill:none;stroke:#000000;stroke-width:2;stroke-linecap:round;marker-start:"
       inkscape:connector-curvature="0"
       inkscape:export-ydpi="89.019997"
       inkscape:export-xdpi="89.019997"
       id="path28"
       d="m 338.35941,481.55066 c -16.853,13.355 -54.853,-17.312 -23.689,-45.491 14.664,-14.664 63.805,-2.369 49.337,41.345 -15.5,36.833 -53.134,14.833 -61.233,5.167 -8.1,-7.167 -35.266,-61.333 18.4,-93.333 53.666,-32 101.667,13 104.333,35 1.503,12.401 28.261,109.515 -78.667,102.333 -105.333,-29 -67.297,-141.501 -61.333,-151.667 5.539,-9.44 48,-84.333 152,-44 35,21 28.333,30 28.333,39.333 0,9.333 -12.739,21.299 -38,31.333 0,0 -8.375,1.293 -15.431,-0.098" />
    <path
       style="fill:none;stroke:#000000;stroke-width:2;stroke-linecap:round;marker-start:"
       inkscape:connector-curvature="0"
       inkscape:export-ydpi="89.019997"
       inkscape:export-xdpi="89.019997"
       id="path30"
       d="m 180.3674,461.33666 c 11.333,17 109.13901,168.568 250.80601,111.568 129.99999,-78.333 52.333,-207.667 32.012,-220.902" />
    <path
       style="fill:none;stroke:#000000;stroke-dasharray:4, 4;marker-start:"
       inkscape:connector-curvature="0"
       inkscape:export-ydpi="89.019997"
       inkscape:export-xdpi="89.019997"
       id="path32"
       d="m 319.25041,531.45166 c 10.87,7.931 4.971,24.081 -9.698,26.158" />
    <path
       style="fill:none;stroke:#000000;stroke-dasharray:4, 4;marker-start:"
       inkscape:connector-curvature="0"
       inkscape:export-ydpi="89.019997"
       inkscape:export-xdpi="89.019997"
       id="path34"
       d="m 389.07041,535.97666 c 18.667,-5.968 30.082,21.396 15.012,26.767" />
    <path
       style="fill:none;stroke:#000000;stroke-width:2;marker-start:"
       inkscape:connector-curvature="0"
       inkscape:export-ydpi="89.019997"
       inkscape:export-xdpi="89.019997"
       id="path36"
       d="m 432.85641,438.58366 c 26.25,12.756 39.755,13.418 30.272,-17.152" />
    <text
       style="font-size:12px;line-height:0%;font-family:Arial"
       y="363.19437"
       x="501.66257"
       inkscape:export-ydpi="89.019997"
       inkscape:export-xdpi="89.019997"
       id="text38"
       font-size="12">Nerve</text>
    <text
       style="line-height:0%"
       y="395.46777"
       x="517.06989"
       inkscape:export-ydpi="89.019997"
       inkscape:export-xdpi="89.019997"
       id="text40"><tspan
         style="font-size:12px;font-family:Arial"
         id="tspan42"
         font-size="12"
         y="395.46777"
         x="517.06989">Organ</tspan><tspan
         style="font-size:12px;font-family:Arial"
         id="tspan44"
         font-size="12"
         y="409.86774"
         x="517.06989">of Corti</tspan></text>
    <text
       style="line-height:0%"
       inkscape:export-ydpi="89.019997"
       inkscape:export-xdpi="89.019997"
       y="453.80463"
       x="530.4585"
       id="text46"><tspan
         style="font-size:12px;font-family:Arial"
         id="tspan48"
         font-size="12"
         y="453.80463"
         x="530.4585">Scala</tspan></text>
    <text
       style="line-height:0%"
       inkscape:export-ydpi="89.019997"
       inkscape:export-xdpi="89.019997"
       y="463.80463"
       x="530.4585"
       id="text4824"><tspan
         id="tspan4826"
         style="font-size:12px;font-family:Arial"
         font-size="12"
         y="463.80463"
         x="530.4585">Tympani</tspan></text>
    <text
       style="line-height:0%"
       y="510.39453"
       x="512.38141"
       inkscape:export-ydpi="89.019997"
       inkscape:export-xdpi="89.019997"
       id="text52"><tspan
         style="font-size:12px;font-family:Arial"
         id="tspan54"
         font-size="12"
         y="510.39453"
         x="512.38141">Tectorial</tspan><tspan
         style="font-size:12px;font-family:Arial"
         id="tspan56"
         font-size="12"
         y="524.79456"
         x="512.38141">Membrane</tspan></text>
    <text
       style="font-size:12px;line-height:0%;font-family:Arial"
       y="558.70892"
       x="337.70374"
       inkscape:export-ydpi="89.019997"
       inkscape:export-xdpi="89.019997"
       id="text58"
       font-size="12">Fluid Paths</text>
    <text
       style="line-height:0%"
       y="355.90625"
       x="124.49422"
       inkscape:export-ydpi="89.019997"
       inkscape:export-xdpi="89.019997"
       id="text60"><tspan
         style="font-size:12px;font-family:Arial"
         id="tspan62"
         font-size="12"
         y="355.90625"
         x="124.49422">Oval</tspan><tspan
         style="font-size:12px;font-family:Arial"
         id="tspan64"
         font-size="12"
         y="370.30624"
         x="106.4882">Window</tspan></text>
    <text
       style="line-height:0%"
       y="428.22266"
       x="113.80672"
       inkscape:export-ydpi="89.019997"
       inkscape:export-xdpi="89.019997"
       id="text66"><tspan
         style="font-size:12px;font-family:Arial"
         id="tspan68"
         font-size="12"
         y="428.22266"
         x="113.80672">Round</tspan><tspan
         style="font-size:12px;font-family:Arial"
         id="tspan70"
         font-size="12"
         y="442.62268"
         x="106.48869">Window</tspan></text>
    <g
       transform="translate(96.360399,313.78566)"
       inkscape:export-ydpi="89.019997"
       inkscape:export-xdpi="89.019997"
       id="g72">
      <g
         id="g74">
        <line
           style="fill:none;stroke:#000000;stroke-width:2"
           id="line76"
           y2="47.588001"
           x2="120.076"
           y1="48.316002"
           x1="58.426998" />
        <path
           inkscape:connector-curvature="0"
           id="path78"
           d="m 126.111,47.517 c -2.827,1.087 -6.329,2.927 -8.49,4.855 l 1.664,-4.775 -1.776,-4.734 c 2.205,1.878 5.75,3.635 8.602,4.654 z" />
      </g>
    </g>
    <g
       transform="translate(96.360399,313.78566)"
       inkscape:export-ydpi="89.019997"
       inkscape:export-xdpi="89.019997"
       id="g80">
      <g
         id="g82">
        <line
           style="fill:none;stroke:#ffffff;stroke-width:3"
           id="line84"
           y2="67.793999"
           x2="370.729"
           y1="49.408001"
           x1="403.16699" />
        <path
           style="fill:#ffffff"
           inkscape:connector-curvature="0"
           id="path86"
           d="m 362.854,72.258 c 2.926,-3.476 6.194,-8.428 7.636,-12.526 l 1.273,7.477 5.761,4.933 c -4.257,-0.87 -10.185,-0.61 -14.67,0.116 z" />
      </g>
      <g
         id="g88">
        <line
           style="fill:none;stroke:#000000;stroke-width:2"
           id="line90"
           y2="67.793999"
           x2="370.729"
           y1="49.408001"
           x1="403.16699" />
        <path
           inkscape:connector-curvature="0"
           id="path92"
           d="m 365.479,70.77 c 1.951,-2.317 4.13,-5.619 5.091,-8.351 l 0.849,4.984 3.841,3.289 c -2.839,-0.579 -6.791,-0.406 -9.781,0.078 z" />
      </g>
    </g>
    <g
       transform="translate(96.360399,313.78566)"
       inkscape:export-ydpi="89.019997"
       inkscape:export-xdpi="89.019997"
       id="g94">
      <g
         id="g96">
        <line
           style="fill:none;stroke:#ffffff;stroke-width:3"
           id="line98"
           y2="95.094002"
           x2="368.621"
           y1="85.741997"
           x1="420.35901" />
        <path
           style="fill:#ffffff"
           inkscape:connector-curvature="0"
           id="path100"
           d="m 359.712,96.705 c 3.911,-2.313 8.632,-5.907 11.347,-9.299 l -1.27,7.478 3.807,6.56 c -3.73,-2.228 -9.411,-3.943 -13.884,-4.739 z" />
      </g>
      <g
         id="g102">
        <line
           style="fill:none;stroke:#000000;stroke-width:2"
           id="line104"
           y2="95.094002"
           x2="368.621"
           y1="85.741997"
           x1="420.35901" />
        <path
           inkscape:connector-curvature="0"
           id="path106"
           d="m 362.682,96.168 c 2.607,-1.542 5.754,-3.938 7.565,-6.2 l -0.847,4.985 2.538,4.374 c -2.487,-1.485 -6.274,-2.628 -9.256,-3.159 z" />
      </g>
    </g>
    <g
       inkscape:export-ydpi="89.019997"
       inkscape:export-xdpi="89.019997"
       transform="matrix(0.80867779,0,0,1.0029629,178.46557,304.48642)"
       id="g108">
      <g
         id="g110">
        <line
           style="fill:none;stroke:#ffffff;stroke-width:3"
           id="line112"
           y2="115.109"
           x2="376.72299"
           y1="141.267"
           x1="431.46799" />
        <path
           style="fill:#ffffff"
           inkscape:connector-curvature="0"
           id="path114"
           d="m 368.555,111.206 c 4.525,0.41 10.456,0.255 14.643,-0.908 l -5.403,5.323 -0.747,7.547 c -1.725,-3.987 -5.331,-8.7 -8.493,-11.962 z" />
      </g>
      <g
         id="g116">
        <line
           style="fill:none;stroke:#000000;stroke-width:2"
           id="line118"
           y2="115.109"
           x2="376.72299"
           y1="141.267"
           x1="431.46799" />
        <path
           inkscape:connector-curvature="0"
           id="path120"
           d="m 371.278,112.507 c 3.017,0.274 6.971,0.17 9.762,-0.605 l -3.602,3.549 -0.499,5.032 c -1.149,-2.66 -3.553,-5.801 -5.661,-7.976 z" />
      </g>
    </g>
    <g
       transform="translate(96.360399,313.78566)"
       inkscape:export-ydpi="89.019997"
       inkscape:export-xdpi="89.019997"
       id="g122">
      <g
         id="g124">
        <line
           style="fill:none;stroke:#000000;stroke-width:2"
           id="line126"
           y2="117.751"
           x2="93.259003"
           y1="118.479"
           x1="58.426998" />
        <path
           inkscape:connector-curvature="0"
           id="path128"
           d="m 99.292,117.625 c -2.817,1.113 -6.302,2.984 -8.446,4.932 l 1.62,-4.79 -1.818,-4.718 c 2.223,1.858 5.784,3.582 8.644,4.576 z" />
      </g>
    </g>
    <g
       inkscape:export-ydpi="89.019997"
       inkscape:export-xdpi="89.019997"
       transform="matrix(1.0426481,0,0,1.0951876,78.695215,294.94478)"
       id="g130">
      <g
         id="g132">
        <polyline
           style="fill:none;stroke:#ffffff;stroke-width:3"
           id="polyline134"
           points="413.146,196.787 363.019,166.607 360.49,118.823    " />
        <path
           style="fill:#ffffff"
           inkscape:connector-curvature="0"
           id="path136"
           d="m 360.012,109.783 c 1.804,4.17 4.776,9.306 7.8,12.425 l -7.258,-2.199 -6.986,2.953 c 2.677,-3.421 5.091,-8.841 6.444,-13.179 z" />
      </g>
      <g
         id="g138">
        <polyline
           style="fill:none;stroke:#000000;stroke-width:2"
           id="polyline140"
           points="413.146,196.787 363.019,166.607 360.49,118.823    " />
        <path
           inkscape:connector-curvature="0"
           id="path142"
           d="m 360.171,112.796 c 1.202,2.78 3.184,6.204 5.2,8.284 l -4.839,-1.466 -4.658,1.968 c 1.786,-2.28 3.396,-5.894 4.297,-8.786 z" />
      </g>
    </g>
    <path
       style="fill:none;stroke:#000000;marker-start:"
       inkscape:connector-curvature="0"
       inkscape:export-ydpi="89.019997"
       inkscape:export-xdpi="89.019997"
       id="path144"
       d="m 462.60841,419.94766 c -0.778,0 -3.537,-0.646 -4.675,-3.363 -0.696,-1.664 -1.257,-4.709 -0.479,-6.505 0.778,-1.796 -1.018,-5.45 -2.935,-1.796 -1.917,3.654 1.129,9.282 2.331,11.499 -1.792,-0.539 -1.809,-1.593 -2.949,-2.732 -1.14,-1.139 -2.14,-6.874 -1.64,-8.479 0.5,-1.605 2.378,-6.745 6.48,-4.175" />
    <g
       transform="matrix(0.93749999,0,0,0.93749999,238.74496,-8.8097405)"
       id="g1304">
      <path
         id="path3830-9"
         d="m 26.590975,402.08705 13.804667,33.79616 0.627482,-0.62586"
         style="fill:none;stroke:#000000;stroke-width:2.13592;stroke-linecap:butt;stroke-linejoin:miter;stroke-miterlimit:4;stroke-dasharray:none;stroke-opacity:1" />
    </g>
  </g>
</svg>
