<?xml version="1.0" encoding="utf-8"?>
<!-- Generator: Adobe Illustrator 24.0.2, SVG Export Plug-In . SVG Version: 6.00 Build 0)  -->
<svg version="1.1" id="Layer_1" xmlns="http://www.w3.org/2000/svg" xmlns:xlink="http://www.w3.org/1999/xlink" x="0px" y="0px"
	 viewBox="0 0 1000 1000" style="enable-background:new 0 0 1000 1000;" xml:space="preserve">
<style type="text/css">
	.st0{fill:#AAE012;}
	.st1{fill:#FFFFFF;}
	.st2{font-family:'Arial-BoldMT';}
	.st3{font-size:30.6714px;}
	.st4{fill:#F9BC93;stroke:#8E220D;stroke-width:2;stroke-miterlimit:10;}
	.st5{fill:none;stroke:#6D2307;stroke-width:0.75;stroke-miterlimit:10;}
	.st6{opacity:0.1;fill:#6D2307;}
	.st7{opacity:0.14;fill:#6D2307;}
	.st8{opacity:0.3;fill:#FFFFFF;}
	.st9{fill:none;stroke:#6D2307;stroke-width:0.5;stroke-miterlimit:10;}
	.st10{opacity:0.33;fill:#6D2307;}
	.st11{fill:#FFAE55;}
	.st12{fill:#6D2307;}
	.st13{fill:#300D02;}
	.st14{opacity:0.37;fill:#FFFFFF;}
	.st15{opacity:0.1;}
	.st16{fill:none;stroke:#6D2307;stroke-miterlimit:10;}
	.st17{fill:none;stroke:#000000;stroke-miterlimit:10;}
	.st18{font-family:'ArialMT';}
	.st19{font-size:34px;}
</style>
<path class="st0" d="M1003.2,1000H287c0,0,8-57,57-57s659.2,0,659.2,0V1000z"/>
<text transform="matrix(1 0 0 1 354.9927 982.5371)" class="st1 st2 st3">RIGHT OSSEOUS LABYRINTH: LATERAL</text>
<g>
	<path class="st4" d="M674.3,452.7c-84.1,0-97.9,52.6-97.9,52.6c-11-17.1-52.2-26.5-52.2-26.5c-0.8-14.3-14.7-36.3-14.7-36.3
		s-40.4-43-45.3-74.3c-7.8-49.8-31.4-62-31.4-62s-40-28.2-61.6,6.9c-18.2,29.6-19.2,90.2-19.2,90.2c10.2,46.9-38.8,40.8-38.8,40.8
		S203,440.9,203,552.3s75.1,135.5,97.1,132.2c22-3.3,80.4-2.4,80.4-2.4c53.9,3.3,76.7-8.2,76.7-8.2c7.8,29.4,62.4,44.9,90.6,32.6
		c28.2-12.2,43.3-8.6,43.3-8.6c145.7,17.1,168.1-93.9,168.1-93.9C774.7,554.4,753.9,452.7,674.3,452.7z M286.7,623.7
		c-52.2-22.4-22.4-91-22.4-91c33.1-72.6,113-19.2,113-19.2c-2,9-36.7,27.3-36.7,27.3s-52.6,14.7-63.3,20.4
		c-10.6,5.7-22.4,25.7-7.3,46.5c15.1,20.8,64.1,6.9,64.1,6.9c20.8-6.9,44.1-6.5,44.1-6.5C374,622.5,338.9,646.2,286.7,623.7z
		 M438.1,486.2c0,0-13.1-9-25.7-26.5c-12.7-17.5-4.1-71-4.1-71s24.9,47.7,27.3,65.7c2.4,18,9,29,9,29L438.1,486.2z"/>
	<path class="st5" d="M645.8,566.2c0,0-11.4-36.3,28.6-36.3c46.1,0,37.1,56.3,16.7,73c-11,9-40,17.5-62.8-4.9
		c-22.9-22.4-23.2-54-4-81.4c19.2-27.3,69.7-25.5,92.6,10s11,77.5-19.6,96.3c-30.6,18.8-129.4,11.4-127.3-74.7
		c0,0,1.2-27.7,6.5-42.8"/>
	<path class="st6" d="M302.3,601.3c3.1-0.9,44.4-15.9,54.5-26.9s50.8-56,84.2-47.7s36.7,18.7,30.6,24.8c-6.1,6.1,11.6,5.8-51.4,10.1
		c0,0-34.3,5.8-52,22c-17.8,16.2-64.3,24.5-75.9,23.9C280.6,606.8,302.3,601.3,302.3,601.3z"/>
	<path class="st7" d="M309.5,602.5c0,0,47-21.5,57.1-31.8c15.5-15.9,52.2-35.1,72.2-32.2c20,2.9,26.9,6.9,17.1,13.1
		c-9.8,6.1-56.3,7.8-72.2,20.4C376.8,577.5,346.3,600.1,309.5,602.5z"/>
	<path class="st8" d="M288.3,593.9c0,0-13.5-4.5,16.3-15.9c29.8-11.4,87.7-67.7,105.7-60.8c18,6.9,0,18.8-7.8,18.8
		c-7.8,0-76.7,37.1-90.2,46.1C298.9,591.1,302.6,591.1,288.3,593.9z"/>
	<path class="st8" d="M386.7,635.2c-5.3,0.8-43.7,10.2-32.6,15.9c11,5.7,8.6,5.3,32.2,9c23.7,3.7,59.6,9.4,54.7-2.4
		c0,0-35.9-27.7-42.8-25.7L386.7,635.2z"/>
	<path class="st8" d="M419.3,328.7c0,0,12.2,12.2,16.3,24.9c4.1,12.7,10.6,23.7,13.9,37.1c3.3,13.5,9.8,31.8,18.8,45.7
		c9,13.9,28.6,27.3,16.3,27.7s-29-17.1-32.2-27.7s-39.6-82.4-38.8-92.6C414.4,333.6,412,323.8,419.3,328.7z"/>
	<path class="st8" d="M376.9,340.9c0,0-7.8,49.4-6.5,69.8c1.2,20.4,5.3,35.5-4.1,42.8c-9.4,7.3-33.1,6.5-15.1,22
		c18,15.5,45.3,32.6,49.4,22.4s3.7-4.9-6.5-25.3s-16.7-26.5-14.7-57.5C381.3,384.2,397.7,314.8,376.9,340.9z"/>
	<path class="st8" d="M558.5,629c0,0-62.4-27.3-68.1-11.8c-5.7,15.5,26.5,29.8,39.6,27.7C542.9,642.9,566.2,655.1,558.5,629z"/>
	<path class="st8" d="M224.6,499.7c0,0-33.5,87.3-3.3,115.1c0,0,6.5,5.7,3.7-6.1c-2.9-11.8-4.1-21.2-1.6-40.4
		S247.5,480.9,224.6,499.7z"/>
	<path class="st7" d="M444.6,663.3c-23.7,6.1-68.6-1.2-80.4,2.4c-11.8,3.7-42.4,9.8-64.5,10.2c-13.5,0.2-20.5,2.9-24,5
		c10.1,3.5,18.9,4.4,24.4,3.6c22-3.3,80.4-2.4,80.4-2.4c53.9,3.3,76.7-8.2,76.7-8.2c0.5,1.9,1.2,3.8,2.1,5.6
		C462.5,670,461.1,659,444.6,663.3z"/>
	<path class="st6" d="M727.4,554.4c0,0-1.6,59.2-37.1,71c-35.5,11.8-82.4,5.7-111.4-33.1c0,0-20.4-32.2-1.2-85.3
		c1.9-5.2,3.4-9.8,4.7-14.1c-4.6,7.2-5.9,12.5-5.9,12.5c-10.6-16.6-49.5-25.9-52.1-26.5c-0.3,1.3-0.6,2.4-0.6,2.4s6.9,18-0.8,19.2
		c-7.8,1.2-27.7-11.4-22.9-0.8c4.9,10.6,8.2,38.8-4.9,40.8c-13.1,2,25.3,2.4,39.2,15.9c13.9,13.5,16.7,16.3,18.8,40.4
		c2,24.1,118.7,86.9,150.6,35.9C735.6,581.7,737.6,565.4,727.4,554.4z"/>
	<path class="st7" d="M721.8,586.6c-4.9,15.9-14.2,32.9-31.5,38.7c-35.5,11.8-82.4,5.7-111.4-33.1c0,0-20.4-32.2-1.2-85.3
		c0.5-1.5-1.2-1.6-1.2-1.6c-6.3-9.8-22.5-17.1-35.3-21.5c3,3.9,7.1,9.2,12.4,15.8c11.8,14.7,14.3,29,9.8,49.4s6.9,90.2,68.6,87.7
		c48.1-1.9,75.1-14.3,86-28c1.8-3.3,3.5-6.4,4.9-9.4c0.2-0.8,0.4-1.5,0.5-2.3C724,592.9,723.3,589.5,721.8,586.6z"/>
	<path class="st8" d="M601.9,504c0,0-31.8,36.7-10.7,77.1c21.1,40.4,66.7,38,66.7,38s-51.7-10.1-60-42.2
		C589.7,544.7,601.9,504,601.9,504z"/>
	<path class="st8" d="M638.9,512.8c0,0-36.1,38.3-8.6,72.2c0,0,2.8,5.8,5.5-2.4c2.8-8.3-8.9-5.2-8-26.3
		C628.8,535.2,638.9,512.8,638.9,512.8z"/>
	<path class="st8" d="M656.1,542.5c0,0,21.1,10.4,16.5,18.4c-4.6,8-23.6,11-25.4,0.3C645.4,550.5,647.2,537.3,656.1,542.5z"/>
	<path class="st6" d="M297.7,460.3c7.7,11-25.9,11.6-36.1,22.3c-10.3,10.6-18.5,22.1,6.8,15.1c25.3-7,26.7-8.6,46.2-13.9
		c4-1.1,3.7,4,18-10.3c14.3-14.3,11.7-12.8,19.4-28.6c5.9-12,9-17.4,1-24.2c-4.1,27.9-39.8,23.5-39.8,23.5s-59.7-1.8-91.2,41.7
		c0.3,1.2,1.6,1.8,4.3,1.1C226.3,487,290,449.3,297.7,460.3z"/>
	<path class="st9" d="M378.1,608.2c0,0,58.6-0.8,76.9,48.2"/>
	<path class="st10" d="M510.1,700.4c0,0-19.6-43.5-40.1-39.8s0.3,26.9,0.3,26.9S494.2,711.5,510.1,700.4z"/>
	<path class="st11" d="M470.7,655.6"/>
	<path class="st12" d="M510.1,700.4c0,0-19.6-43.5-40.1-39.8c-0.1,0-0.2,0-0.2,0.1c-2.2,5-5.8,19.2,15.7,30.8
		c10.4,5.6,16.7,9.3,20.6,11C507.4,702,508.8,701.3,510.1,700.4z"/>
	<path class="st13" d="M473.6,660.5c0,5.4,0.6,13.2,4,18.3c4.4,6.6,21.4,14.9,30.5,17.6C503.1,686.5,488.9,661.7,473.6,660.5z"/>
	<path class="st7" d="M428.7,628.7c14.4,5.8-2-19-51.2-20c-1.3,3.1-3.9,6.4-7.6,9.6c3,0.1,6.4,0.7,10.3,1.8
		C398.1,625.4,413.6,622.6,428.7,628.7z"/>
	<path class="st7" d="M298.9,473.3c0,0-43.5,12.2-32.4,17.1C277.5,495.4,327.7,462.9,298.9,473.3z"/>
	<path class="st6" d="M286.7,623.7c-52.2-22.4-22.4-91-22.4-91c2.1-4.7,4.5-8.8,7-12.5c-8.5,4.1-21.2,13.5-22.5,33.3
		c-1.8,30,4.3,63,23.3,69.8c7.9,2.8,16.3,3.7,23.4,3.8C292.5,626.1,289.6,625,286.7,623.7z"/>
	<path class="st6" d="M697.4,540.7c0,0-10.4,4.9-8.6,19.6c1.8,14.7-8.6,52-33.7,43.5c0,0,42.2,13.5,50.2-31.2
		C705.4,572.5,706.6,538.8,697.4,540.7z"/>
	<path class="st6" d="M688.3,453.9c-13.8,3.8-30,9.7-14.8,12.8c23.9,4.9,120.6,39.8,58.8,146.9c0,0-27.5,39.2-79.6,41.6
		c-31,1.5-39.4,24.4-35.3,44.6c122.1,1.7,141.8-95.6,141.8-95.6C773.8,557.4,756.3,465,688.3,453.9z"/>
	<path class="st7" d="M689.4,666.8c0,0-61.2,16.5-49,22C652.7,694.3,740.3,659.4,689.4,666.8z"/>
	<path class="st7" d="M466,470.9c-20.2-19-9.8-9.8-14.1-22.6c-3.2-9.6-16.4-13.4-22.8-14.7c3.3,8.2,5.8,15.7,6.5,20.8
		c2.4,18,9,29,9,29c17.8-2.9,50.2,10.8,50.2,10.8S486.2,489.9,466,470.9z"/>
	<path class="st6" d="M524.3,478.9c-0.1,0-0.1,0-0.1,0c-0.8-14.3-14.7-36.3-14.7-36.3s-41.6-42.8-45.3-74.3c-0.2-1.5-0.4-3-0.7-4.4
		c-2.4,4.6-9.6,20.2-2.4,27.5c8.6,8.6,15.9,27.5,20.2,35.5c4.3,8,28.2,44.7,31.2,55.1c3.1,10.4,10.4,20.8,10.4,20.8
		S517.7,488.7,524.3,478.9L524.3,478.9z"/>
	<path class="st8" d="M505.4,660.9c0,0,2.9-2.4-4.9-9c-7.8-6.5-22.9-11.8-24.5-6.9C474.4,649.8,490.3,644.5,505.4,660.9z"/>
	<path class="st8" d="M510.7,673.5c0,0-11.8-26.9-40-24.9c0,0-8.2,2.4,3.3,4.9S501.7,663.7,510.7,673.5z"/>
	<path class="st8" d="M456.8,662.9l4.9,3.3c0,0,4.1-18,31,2.4c26.9,20.4-2.9-8.6-9-9.8C477.7,657.6,457.7,647,456.8,662.9z"/>
	<path class="st8" d="M460.9,674.7c0,0-0.4,11,13.1,20.4s19.2,9,19.2,9S466.8,693.1,460.9,674.7z"/>
	<path class="st8" d="M501.3,705.3c0,0,12.7,4.9,35.1-1.6c22.4-6.5,29-8.6,30.6-8.2c1.6,0.4-20.2,8.4-27.3,10.6
		C529.1,709.4,507,711.1,501.3,705.3z"/>
	<path class="st13" d="M475.6,564.6c0,0-24.5,6.1-28.6,25.7c-4.1,19.6,22,13.5,44.1,5.3c0,0,19.6-1.6,37.5-4.5
		c18-2.9,21.6-15.5,15.9-21.6S523.4,550.3,475.6,564.6z"/>
	<path class="st9" d="M478.5,561.3c0,0-30.6,9.8-33.9,26.5s12.7,15.5,12.7,15.5"/>
	<path class="st9" d="M517.2,697.2c-27.3-62.4-57.8-40.4-57.8-40.4s-1.8-14.7,11.3-18.4"/>
	<path class="st9" d="M461.7,651.9c0,0,30.2-24.9,62.4,44.5"/>
	<path class="st9" d="M497.2,644.5c0,0,34.7,22.4,38.8,53"/>
	<path class="st6" d="M572.7,690.2c0,0-47.7-30.2-44.5-22c3.3,8.2,11,24.5,11.4,29c0.4,4.5-15.5,8.6-11.4,8.6S576,697.2,572.7,690.2
		z"/>
	<path class="st14" d="M421.3,343c0,0,0,22,12.9,41.6C447,404.2,423.8,331.3,421.3,343z"/>
	<path class="st14" d="M410.3,517.2c0,0-54.5,16.1-51.4,29.6C362,560.3,419.5,514.6,410.3,517.2z"/>
	<path class="st14" d="M507.6,624.5c0,0-9.8,11,10.4,13.5C538.3,640.5,513.2,621.5,507.6,624.5z"/>
	<path class="st14" d="M590.3,533.3c0,0-9.2,30,4.9,49.6C595.2,582.9,586.6,541.9,590.3,533.3z"/>
	<path class="st14" d="M653.3,549.9c0,0-8.6,11.6,1.8,14.7S653.3,549.9,653.3,549.9z"/>
	<path class="st14" d="M222.1,505.8c-1.5,2.7-19.1,66.7-5.1,96.1C217,601.9,230.6,489.9,222.1,505.8z"/>
	<path class="st14" d="M388.9,642.3c0,0-30.6,0-13.5,7.3s24.5,15.9,26.3,7.3C403.6,648.4,395,641.7,388.9,642.3z"/>
	<path class="st14" d="M377.3,464.2c0,0-18.4,8-8,13.5s16.5,8.6,16.5,8.6S382.8,461.1,377.3,464.2z"/>
	<path class="st6" d="M406.7,462.3c19,27.5,22.6,28.8,22.6,28.8l8.8-4.9c0,0-13.1-9-25.7-26.5c-5.8-8.1-7.2-23.9-6.9-38.5
		C400.2,426.5,390.8,439.3,406.7,462.3z"/>
	<g class="st15">
		<path class="st12" d="M377.3,513.5c-0.1,0.3-0.2,0.6-0.3,0.8C377.2,514.1,377.3,513.8,377.3,513.5z"/>
		<path class="st12" d="M328.3,491.7c-7.2-1.1-12.4,0.8-15.9,3.2c32.2-3.2,64.9,18.6,64.9,18.6c0-3.3,10.4-4.1,10.4-4.1
			S344.2,494.2,328.3,491.7z"/>
	</g>
	<path class="st16" d="M495.2,540.5c-6.9,15.7-30.4,20.4-56.1,19.8c-25.7-0.6-55.3,11.6-71,23.3c-15.7,11.6-56.3,22-56.3,22"/>
	<path class="st5" d="M377.3,513.5c0.8-3.1,52.6-27.5,67.3-30.2c14.7-2.7,56.3,5.9,57.5,22.4"/>
	<path class="st8" d="M474.6,499.1c-12,2.4-60.6,5.5-42.8,15.3c17.8,9.8,45.3,21.4,48.4,9.2C483.2,511.3,486.8,496.6,474.6,499.1z"
		/>
	<path class="st9" d="M279.3,574.7c0,0,53.3-26.3,62.4-34.6"/>
	<path class="st6" d="M314,556.4c-1.6,0-37.5,6.9-40,13.5c-2.4,6.5-11,9.4-4.5,7.8C276.1,576,314,556.4,314,556.4z"/>
	<path class="st6" d="M356,608.6c0,0,7.8-20-2-17.5c-9.8,2.4-49.4,18.4-55.1,18.4c-5.7,0-4.1,6.9,9,8.6
		C321,619.6,353.2,609.9,356,608.6z"/>
	<path class="st7" d="M343.4,596c0,0-0.3,0.1-0.8,0.2c-5.1,1.3-33.6,8.5-26.6,9.6c7.8,1.2,12.7,2,21.6-1.2S346.3,596.4,343.4,596z"
		/>
	<path class="st7" d="M302.2,562.9c0,0-29.4,6.1-22,8.6C287.5,573.9,302.2,562.9,302.2,562.9z"/>
	<path class="st6" d="M375.1,607.7c0,0,29.1-12.9,52.9,1.8c23.9,14.7,21.7,35.5,21.7,35.5s-16.2-20.7-29.4-26.9
		C408.2,612.3,391,607.1,375.1,607.7z"/>
	<path class="st14" d="M625,536.8c0,0-8.2,24.9,1.2,37.5C626.2,574.3,622.1,542.9,625,536.8z"/>
</g>
<polyline class="st17" points="411,342.5 561.5,258 949.6,258 "/>
<text transform="matrix(1 0 0 1 725.3958 245.5918)" class="st18 st19">Superior canal</text>
<g>
	<text transform="matrix(1 0 0 1 54.2425 363.2324)" class="st18 st19">Common crus</text>
</g>
<g>
	<text transform="matrix(1 0 0 1 54.2425 442.6646)" class="st18 st19">Lateral canal</text>
</g>
<g>
	<text transform="matrix(1 0 0 1 54.2425 651.5518)"><tspan x="0" y="0" class="st18 st19">Posterior</tspan><tspan x="0" y="40.8" class="st18 st19">canal</tspan></text>
</g>
<text transform="matrix(1 0 0 1 823.1008 328.1802)" class="st18 st19">Ampulla</text>
<text transform="matrix(1 0 0 1 825.6154 405.6016)" class="st18 st19">Cochlea</text>
<text transform="matrix(1 0 0 1 811.1042 684.6211)" class="st18 st19">Vestibule</text>
<text transform="matrix(1 0 0 1 795.126 581.5596)"><tspan x="0" y="0" class="st18 st19">Vestibular</tspan><tspan x="28.3" y="40.8" class="st18 st19">fenestra</tspan></text>
<text transform="matrix(1 0 0 1 681.7874 752.4902)" class="st18 st19">Cochlear fenestra</text>
<polyline class="st17" points="485.6,458.6 599.8,346.3 947.7,346.3 "/>
<polyline class="st17" points="467.6,511.9 599.8,346.3 407.7,643.6 "/>
<polyline class="st17" points="948.8,417 775.5,417 676.9,523.1 "/>
<polyline class="st17" points="561.3,653.3 700.6,692.2 949.6,692.2 "/>
<polyline class="st17" points="488.4,683.9 551.3,761.4 949.6,761.4 "/>
<polyline class="st17" points="359,464.1 270.7,375.8 56.4,375.8 "/>
<polyline class="st17" points="343.6,558.3 241.6,456.2 54,456.2 "/>
<polyline class="st17" points="259.2,639 196.2,701.9 56.3,701.9 "/>
<polyline class="st17" points="539.7,586.4 762.4,628.1 949.6,628.1 "/>
</svg>
