<?xml version="1.0" encoding="UTF-8"?>
<svg xmlns="http://www.w3.org/2000/svg" xmlns:xlink="http://www.w3.org/1999/xlink" version="1.1" width="100%" height="100%" viewBox="-1170 -1840 2048 2048">
 <title>Human photoreceptor distribution</title>
 <desc>Density of rod (dotted line) and cone (solid line) photoreceptors along a line passing through the fovea and the blind spot of a human eye vs the angle measured from the fovea, drawn by CMG Lee based on http://stanford.edu/group/vista/cgi-bin/FOV/chapter-3-the-photoreceptor-mosaic .</desc>
 <defs>
  <clipPath id="clip_frame"><use xlink:href="#frame"/></clipPath>
  <rect id="frame" x="-700" y="-1800" width="1500" height="1800"/>
  <path id="grid_x_1" d="M 0,-9999 V 9999"/>
  <g id="grid_x_5" stroke-opacity="0.125">
   <use xlink:href="#grid_x_1" stroke-opacity="0.25"/>
   <use xlink:href="#grid_x_1" transform="translate(100,0)"/>
   <use xlink:href="#grid_x_1" transform="translate(200,0)"/>
   <use xlink:href="#grid_x_1" transform="translate(300,0)"/>
   <use xlink:href="#grid_x_1" transform="translate(400,0)"/>
  </g>
  <use id="grid_y_1" xlink:href="#grid_x_1" transform="rotate(90)"/>
  <use id="grid_y_5" xlink:href="#grid_x_5" transform="rotate(90)"/>
  <g id="main" font-family="Helvetica,Arial,sans-serif" font-size="80" text-anchor="middle" stroke="none" stroke-width="5" stroke-linejoin="round" fill="none">
   <circle cx="0" cy="0" r="99999" fill="#ffffff"/>
   <g id="grid">
    <g stroke="#000000" clip-path="url(#clip_frame)">
     <use xlink:href="#grid_y_5" transform="translate(0,-2000)"/>
     <use xlink:href="#grid_y_5" transform="translate(0,-1500)"/>
     <use xlink:href="#grid_y_5" transform="translate(0,-1000)"/>
     <use xlink:href="#grid_y_5" transform="translate(0,-500)"/>
     <use xlink:href="#grid_x_5" transform="translate(-1000,0)"/>
     <use xlink:href="#grid_x_5" transform="translate(-500,0)"/>
     <use xlink:href="#grid_x_5" transform="translate(0,0)"/>
     <use xlink:href="#grid_x_5" transform="translate(500,0)"/>
     <use xlink:href="#frame"/>
     <path d="M -200,-410 L 5,-50 M  350,-410 L 160,-50" stroke-width="2"/>
    </g>
    <g fill="#000000">
     <switch><text transform="translate( -880,-1800)" x="0" y="0.7ex" id="trsvg29-id" systemLanguage="id"><tspan id="trsvg1-id">180 000</tspan></text><text transform="translate( -880,-1800)" x="0" y="0.7ex" id="trsvg29"><tspan id="trsvg1">180 000</tspan></text></switch>
     <switch><text transform="translate( -880,-1600)" x="0" y="0.7ex" id="trsvg30-id" systemLanguage="id"><tspan id="trsvg2-id">160 000</tspan></text><text transform="translate( -880,-1600)" x="0" y="0.7ex" id="trsvg30"><tspan id="trsvg2">160 000</tspan></text></switch>
     <switch><text transform="translate( -880,-1400)" x="0" y="0.7ex" id="trsvg31-id" systemLanguage="id"><tspan id="trsvg3-id">140 000</tspan></text><text transform="translate( -880,-1400)" x="0" y="0.7ex" id="trsvg31"><tspan id="trsvg3">140 000</tspan></text></switch>
     <switch><text transform="translate( -880,-1200)" x="0" y="0.7ex" id="trsvg32-id" systemLanguage="id"><tspan id="trsvg4-id">120 000</tspan></text><text transform="translate( -880,-1200)" x="0" y="0.7ex" id="trsvg32"><tspan id="trsvg4">120 000</tspan></text></switch>
     <switch><text transform="translate( -880,-1000)" x="0" y="0.7ex" id="trsvg33-id" systemLanguage="id"><tspan id="trsvg5-id">100 000</tspan></text><text transform="translate( -880,-1000)" x="0" y="0.7ex" id="trsvg33"><tspan id="trsvg5">100 000</tspan></text></switch>
     <switch><text transform="translate( -880, -800)" x="0" y="0.7ex" id="trsvg34-id" systemLanguage="id"><tspan id="trsvg6-id">80 000</tspan></text><text transform="translate( -880, -800)" x="0" y="0.7ex" id="trsvg34"><tspan id="trsvg6">80 000</tspan></text></switch>
     <switch><text transform="translate( -880, -600)" x="0" y="0.7ex" id="trsvg35-id" systemLanguage="id"><tspan id="trsvg7-id">60 000</tspan></text><text transform="translate( -880, -600)" x="0" y="0.7ex" id="trsvg35"><tspan id="trsvg7">60 000</tspan></text></switch>
     <switch><text transform="translate( -880, -400)" x="0" y="0.7ex" id="trsvg36-id" systemLanguage="id"><tspan id="trsvg8-id">40 000</tspan></text><text transform="translate( -880, -400)" x="0" y="0.7ex" id="trsvg36"><tspan id="trsvg8">40 000</tspan></text></switch>
     <switch><text transform="translate( -880, -200)" x="0" y="0.7ex" id="trsvg37-id" systemLanguage="id"><tspan id="trsvg9-id">20 000</tspan></text><text transform="translate( -880, -200)" x="0" y="0.7ex" id="trsvg37"><tspan id="trsvg9">20 000</tspan></text></switch>
     <switch><text transform="translate( -880,    0)" x="0" y="0.7ex" id="trsvg38"><tspan id="trsvg10">0</tspan></text></switch>
     <switch><text transform="translate( -600,   60)" x="0" y="0.7ex" id="trsvg39-id" systemLanguage="id"><tspan id="trsvg11-id">60°</tspan></text><text transform="translate( -600,   60)" x="0" y="0.7ex" id="trsvg39"><tspan id="trsvg11">60°</tspan></text></switch>
     <switch><text transform="translate( -400,   60)" x="0" y="0.7ex" id="trsvg40-id" systemLanguage="id"><tspan id="trsvg12-id">60°</tspan></text><text transform="translate( -400,   60)" x="0" y="0.7ex" id="trsvg40"><tspan id="trsvg12">40°</tspan></text></switch>
     <switch><text transform="translate( -200,   60)" x="0" y="0.7ex" id="trsvg41-id" systemLanguage="id"><tspan id="trsvg13-id">20°</tspan></text><text transform="translate( -200,   60)" x="0" y="0.7ex" id="trsvg41"><tspan id="trsvg13">20°</tspan></text></switch>
     <switch><text transform="translate(    0,   60)" x="0" y="0.7ex" id="trsvg42-id" systemLanguage="id"><tspan id="trsvg14-id">0°</tspan></text><text transform="translate(    0,   60)" x="0" y="0.7ex" id="trsvg42"><tspan id="trsvg14"> 0°</tspan></text></switch>
     <switch><text transform="translate(  200,   60)" x="0" y="0.7ex" id="trsvg43-id" systemLanguage="id"><tspan id="trsvg15-id">20°</tspan></text><text transform="translate(  200,   60)" x="0" y="0.7ex" id="trsvg43"><tspan id="trsvg15">20°</tspan></text></switch>
     <switch><text transform="translate(  400,   60)" x="0" y="0.7ex" id="trsvg44-id" systemLanguage="id"><tspan id="trsvg16-id">40°</tspan></text><text transform="translate(  400,   60)" x="0" y="0.7ex" id="trsvg44"><tspan id="trsvg16">40°</tspan></text></switch>
     <switch><text transform="translate(  600,   60)" x="0" y="0.7ex" id="trsvg45-id" systemLanguage="id"><tspan id="trsvg17-id">60°</tspan></text><text transform="translate(  600,   60)" x="0" y="0.7ex" id="trsvg45"><tspan id="trsvg17">60°</tspan></text></switch>
     <switch><text transform="translate(  800,   60)" x="0" y="0.7ex" id="trsvg46-id" systemLanguage="id"><tspan id="trsvg18-id">80°</tspan></text><text transform="translate(  800,   60)" x="0" y="0.7ex" id="trsvg46"><tspan id="trsvg18">80°</tspan></text></switch>
     <switch><text transform="translate(    0,  150)" x="0" y="0.7ex" id="trsvg47-de" systemLanguage="de"><tspan id="trsvg19-de">Winkel zur Fovea</tspan></text><text transform="translate(    0,  150)" x="0" y="0.7ex" id="trsvg47-id" systemLanguage="id"><tspan id="trsvg19-id">Sudut dari fovea</tspan></text><text transform="translate(    0,  150)" x="0" y="0.7ex" id="trsvg47-fr" systemLanguage="fr"><tspan id="trsvg19-fr">Angle à la fovea</tspan></text><text transform="translate(    0,  150)" x="0" y="0.7ex" id="trsvg47"><tspan id="trsvg19">Angle from fovea</tspan></text></switch>
     <switch><text transform="translate(-1120,-1000) rotate(-90)" x="0" y="0.7ex" id="trsvg48-de" systemLanguage="de"><tspan id="trsvg20-de">Zahl der Rezeptoren pro mm²</tspan></text><text transform="translate(-1120,-1000) rotate(-90)" x="0" y="0.7ex" id="trsvg48-id" systemLanguage="id"><tspan id="trsvg20-id">Jumlah reseptor per mm²</tspan></text><text transform="translate(-1120,-1000) rotate(-90)" x="0" y="0.7ex" id="trsvg48-fr" systemLanguage="fr"><tspan id="trsvg20-fr">nombre de récepteur par mm²</tspan></text><text transform="translate(-1120,-1000) rotate(-90)" x="0" y="0.7ex" id="trsvg48"><tspan id="trsvg20">Number of receptors per mm²</tspan></text></switch>
     <switch><text transform="translate( -200, -450)" x="0" y="0.7ex" id="trsvg49-id" systemLanguage="id"><tspan id="trsvg21-id">Fovea</tspan></text><text transform="translate( -200, -450)" x="0" y="0.7ex" id="trsvg49"><tspan id="trsvg21">Fovea</tspan></text></switch>
     <switch><text transform="translate(  490, -450)" x="0" y="0.7ex" id="trsvg50-de" systemLanguage="de"><tspan id="trsvg22-de">Blinder Fleck</tspan></text><text transform="translate(  490, -450)" x="0" y="0.7ex" id="trsvg50-id" systemLanguage="id"><tspan id="trsvg22-id">Titik buta</tspan></text><text transform="translate(  490, -450)" x="0" y="0.7ex" id="trsvg50-fr" systemLanguage="fr"><tspan id="trsvg22-fr">Tache aveugle</tspan></text><text transform="translate(  490, -450)" x="0" y="0.7ex" id="trsvg50"><tspan id="trsvg22">Blind spot</tspan></text></switch>
     <switch><text transform="translate( -550,-1740)" x="0" y="0.7ex" id="trsvg51-de" systemLanguage="de"><tspan id="trsvg23-de">(Schläfe)</tspan><tspan x="0.5ex" dy="2ex" id="trsvg24-de"> </tspan></text><text transform="translate( -550,-1740)" x="0" y="0.7ex" id="trsvg51-id" systemLanguage="id"><tspan id="trsvg23-id">sisi</tspan><tspan x="0.5ex" dy="2ex" id="trsvg24-id">pelipis</tspan></text><text transform="translate( -550,-1740)" x="0" y="0.7ex" id="trsvg51-fr" systemLanguage="fr"><tspan id="trsvg23-fr">(côté</tspan><tspan x="0.5ex" dy="2ex" id="trsvg24-fr">temporal)</tspan></text><text transform="translate( -550,-1740)" x="0" y="0.7ex" id="trsvg51"><tspan id="trsvg23">(temple</tspan><tspan x="0.5ex" dy="2ex" id="trsvg24">side)</tspan></text></switch>
     <switch><text transform="translate(  650,-1740)" x="0" y="0.7ex" id="trsvg52-de" systemLanguage="de"><tspan id="trsvg25-de">(Nase)</tspan><tspan x="0.5ex" dy="2ex" id="trsvg26-de"> </tspan></text><text transform="translate(  650,-1740)" x="0" y="0.7ex" id="trsvg52-id" systemLanguage="id"><tspan id="trsvg25-id">sisi</tspan><tspan x="0.5ex" dy="2ex" id="trsvg26-id">hidung</tspan></text><text transform="translate(  650,-1740)" x="0" y="0.7ex" id="trsvg52-fr" systemLanguage="fr"><tspan id="trsvg25-fr">(côté</tspan><tspan x="0.5ex" dy="2ex" id="trsvg26-fr">nasal)</tspan></text><text transform="translate(  650,-1740)" x="0" y="0.7ex" id="trsvg52"><tspan id="trsvg25">(nose</tspan><tspan x="0.5ex" dy="2ex" id="trsvg26">side)</tspan></text></switch>
    </g>
   </g>
   <g id="rod" stroke="#cc0000" fill="#cc0000">
    <path d="M -695,-310 C -670,-600 -630,-800 -500,-802 C -400,-950 -430,-1050 -380,-1112 C -180,-1220 -250,-1400 -170,-1535 C -90,-1535 -65,-1000 -20,-500 C -3,-400 -20,-400 -3,-5 H 10 C 20,-400 0,-500 40,-640 C 55,-800 50,-1200 120,-1430 C 160,-1300 120,-1000 140,0 H 185 C 200,-1400 150,-1550 230,-1610 C 270,-1410 410,-1400 440,-1300 C 500,-1200 500,-1000 800,-750" fill="none" stroke-width="10" stroke-dasharray="10,5"/>
    <switch><text transform="translate(650,-750)" x="0" y="0.7ex" stroke="none" id="trsvg53-de" systemLanguage="de"><tspan id="trsvg27-de">Stäbchen</tspan></text><text transform="translate(650,-750)" x="0" y="0.7ex" stroke="none" id="trsvg53-id" systemLanguage="id"><tspan id="trsvg27-id">Batang</tspan></text><text transform="translate(650,-750)" x="0" y="0.7ex" stroke="none" id="trsvg53-fr" systemLanguage="fr"><tspan id="trsvg27-fr">Bâtonnets</tspan></text><text transform="translate(650,-750)" x="0" y="0.7ex" stroke="none" id="trsvg53"><tspan id="trsvg27">Rods</tspan></text></switch>
   </g>
   <g id="cone" stroke="#0066cc" fill="#0066cc">
    <path d="M -695,-55 C -150,-55 -400,-20 -200,-80 C -120,-50 -120,-80 -60,-150 C -50,-200 0,0 0,-1500 C -10,0 60,-120 140,-80 V 0 H 185 L 200,-80 C 400,-30 600,-55 780,-48" stroke-width="8" fill="none"/>
    <switch><text transform="translate(650,-150)" x="0" y="0.7ex" stroke="none" id="trsvg54-de" systemLanguage="de"><tspan id="trsvg28-de">Zapfen</tspan></text><text transform="translate(650,-150)" x="0" y="0.7ex" stroke="none" id="trsvg54-id" systemLanguage="id"><tspan id="trsvg28-id">Kerucut</tspan></text><text transform="translate(650,-150)" x="0" y="0.7ex" stroke="none" id="trsvg54-fr" systemLanguage="fr"><tspan id="trsvg28-fr">Cônes</tspan></text><text transform="translate(650,-150)" x="0" y="0.7ex" stroke="none" id="trsvg54"><tspan id="trsvg28">Cones</tspan></text></switch>
   </g>
  </g>
 </defs>
 <use xlink:href="#main"/>
</svg>
