<?xml version="1.0" encoding="UTF-8" standalone="no"?>
<svg xmlns:dc="http://purl.org/dc/elements/1.1/" xmlns:cc="http://creativecommons.org/ns#" xmlns:rdf="http://www.w3.org/1999/02/22-rdf-syntax-ns#" xmlns:svg="http://www.w3.org/2000/svg" xmlns="http://www.w3.org/2000/svg" xmlns:sodipodi="http://sodipodi.sourceforge.net/DTD/sodipodi-0.dtd" xmlns:inkscape="http://www.inkscape.org/namespaces/inkscape" width="210mm" height="297mm" viewBox="0 0 210 297" version="1.1" id="svg8" inkscape:version="1.0.2 (1.0.2+r75+1)" sodipodi:docname="Sistema_Nervioso_Autonomo.svg" inkscape:export-filename="/home/malena1/Escritorio/sna.png" inkscape:export-xdpi="165" inkscape:export-ydpi="165">
  <defs id="defs2">
    <marker style="overflow:visible" id="DotM" refX="0.0" refY="0.0" orient="auto" inkscape:stockid="DotM" inkscape:isstock="true">
      <path transform="scale(0.4) translate(7.4, 1)" style="fill-rule:evenodd;stroke:#000000;stroke-width:1pt;stroke-opacity:1;fill:#000000;fill-opacity:1" d="M -2.5,-1.0 C -2.5,1.7600000 -4.7400000,4.0 -7.5,4.0 C -10.260000,4.0 -12.5,1.7600000 -12.5,-1.0 C -12.5,-3.7600000 -10.260000,-6.0 -7.5,-6.0 C -4.7400000,-6.0 -2.5,-3.7600000 -2.5,-1.0 z " id="path1457"/>
    </marker>
    <marker style="overflow:visible" id="DotM-1" refX="0" refY="0" orient="auto" inkscape:stockid="DotM" inkscape:isstock="true">
      <path transform="matrix(0.4,0,0,0.4,2.96,0.4)" style="fill:#000000;fill-opacity:1;fill-rule:evenodd;stroke:#000000;stroke-width:1pt;stroke-opacity:1" d="m -2.5,-1 c 0,2.76 -2.24,5 -5,5 -2.76,0 -5,-2.24 -5,-5 0,-2.76 2.24,-5 5,-5 2.76,0 5,2.24 5,5 z" id="path1457-1"/>
    </marker>
    <marker style="overflow:visible" id="DotM-8" refX="0" refY="0" orient="auto" inkscape:stockid="DotM" inkscape:isstock="true">
      <path transform="matrix(0.4,0,0,0.4,2.96,0.4)" style="fill:#000000;fill-opacity:1;fill-rule:evenodd;stroke:#000000;stroke-width:1pt;stroke-opacity:1" d="m -2.5,-1 c 0,2.76 -2.24,5 -5,5 -2.76,0 -5,-2.24 -5,-5 0,-2.76 2.24,-5 5,-5 2.76,0 5,2.24 5,5 z" id="path1457-5"/>
    </marker>
    <marker style="overflow:visible" id="DotM-8-4" refX="0" refY="0" orient="auto" inkscape:stockid="DotM" inkscape:isstock="true">
      <path transform="matrix(0.4,0,0,0.4,2.96,0.4)" style="fill:#000000;fill-opacity:1;fill-rule:evenodd;stroke:#000000;stroke-width:1pt;stroke-opacity:1" d="m -2.5,-1 c 0,2.76 -2.24,5 -5,5 -2.76,0 -5,-2.24 -5,-5 0,-2.76 2.24,-5 5,-5 2.76,0 5,2.24 5,5 z" id="path1457-5-6"/>
    </marker>
    <marker style="overflow:visible" id="DotM-8-5" refX="0" refY="0" orient="auto" inkscape:stockid="DotM" inkscape:isstock="true">
      <path transform="matrix(0.4,0,0,0.4,2.96,0.4)" style="fill:#000000;fill-opacity:1;fill-rule:evenodd;stroke:#000000;stroke-width:1pt;stroke-opacity:1" d="m -2.5,-1 c 0,2.76 -2.24,5 -5,5 -2.76,0 -5,-2.24 -5,-5 0,-2.76 2.24,-5 5,-5 2.76,0 5,2.24 5,5 z" id="path1457-5-8"/>
    </marker>
    <marker style="overflow:visible" id="DotM-8-2" refX="0" refY="0" orient="auto" inkscape:stockid="DotM" inkscape:isstock="true">
      <path transform="matrix(0.4,0,0,0.4,2.96,0.4)" style="fill:#000000;fill-opacity:1;fill-rule:evenodd;stroke:#000000;stroke-width:1pt;stroke-opacity:1" d="m -2.5,-1 c 0,2.76 -2.24,5 -5,5 -2.76,0 -5,-2.24 -5,-5 0,-2.76 2.24,-5 5,-5 2.76,0 5,2.24 5,5 z" id="path1457-5-84"/>
    </marker>
    <marker style="overflow:visible" id="DotM-8-24" refX="0" refY="0" orient="auto" inkscape:stockid="DotM" inkscape:isstock="true">
      <path transform="matrix(0.4,0,0,0.4,2.96,0.4)" style="fill:#000000;fill-opacity:1;fill-rule:evenodd;stroke:#000000;stroke-width:1pt;stroke-opacity:1" d="m -2.5,-1 c 0,2.76 -2.24,5 -5,5 -2.76,0 -5,-2.24 -5,-5 0,-2.76 2.24,-5 5,-5 2.76,0 5,2.24 5,5 z" id="path1457-5-0"/>
    </marker>
    <marker style="overflow:visible" id="DotM-8-9" refX="0" refY="0" orient="auto" inkscape:stockid="DotM" inkscape:isstock="true">
      <path transform="matrix(0.4,0,0,0.4,2.96,0.4)" style="fill:#000000;fill-opacity:1;fill-rule:evenodd;stroke:#000000;stroke-width:1pt;stroke-opacity:1" d="m -2.5,-1 c 0,2.76 -2.24,5 -5,5 -2.76,0 -5,-2.24 -5,-5 0,-2.76 2.24,-5 5,-5 2.76,0 5,2.24 5,5 z" id="path1457-5-9"/>
    </marker>
  </defs>
  <sodipodi:namedview id="base" pagecolor="#ffffff" bordercolor="#666666" borderopacity="1.0" inkscape:pageopacity="0.0" inkscape:pageshadow="2" inkscape:zoom="0.49497475" inkscape:cx="306.35533" inkscape:cy="760.30332" inkscape:document-units="mm" inkscape:current-layer="layer1" inkscape:document-rotation="0" showgrid="false" inkscape:window-width="1920" inkscape:window-height="1024" inkscape:window-x="1360" inkscape:window-y="27" inkscape:window-maximized="1"/>
  <metadata id="metadata5">
    <rdf:RDF>
      <cc:Work rdf:about="">
        <dc:format>image/svg+xml</dc:format>
        <dc:type rdf:resource="http://purl.org/dc/dcmitype/StillImage"/>
        <dc:title/>
      </cc:Work>
    </rdf:RDF>
  </metadata>
  <g inkscape:label="Capa 1" inkscape:groupmode="layer" id="layer1">
    <rect style="fill:#ffb380;fill-opacity:1;stroke:#000000;stroke-width:0.412665;stroke-linecap:round;stroke-miterlimit:4;stroke-dasharray:none;stroke-opacity:1;paint-order:markers fill stroke" id="rect1221" width="198.15134" height="48.859035" x="8.091876" y="1.7669491"/>
    <ellipse style="fill:#99ff55;fill-opacity:1;stroke:#000000;stroke-width:0.56385;stroke-linecap:round;stroke-miterlimit:4;stroke-dasharray:none;stroke-opacity:1;paint-order:markers fill stroke" id="path1119" cx="36.456272" cy="250.20433" rx="24.874048" ry="20.564407"/>
    <ellipse style="fill:#99ff55;fill-opacity:1;stroke:#000000;stroke-width:0.56385;stroke-linecap:round;stroke-miterlimit:4;stroke-dasharray:none;stroke-opacity:1;paint-order:markers fill stroke" id="path1119-6" cx="175.49159" cy="250.20433" rx="24.874048" ry="20.564407"/>
    <path style="fill:#800080;fill-opacity:1;stroke:none;stroke-width:0.460243;stroke-linecap:round;stroke-miterlimit:4;stroke-dasharray:none;stroke-opacity:1;paint-order:markers fill stroke" d="m 172.53981,160.24249 c -1.49845,-1.15768 -1.7108,-3.01025 -0.48326,-4.21592 1.31021,-1.28686 2.8302,-1.10749 3.79582,0.44794 0.76248,1.22823 0.66417,2.32932 -0.30477,3.41322 -0.96959,1.08462 -1.91826,1.19651 -3.00779,0.35476 z" id="path910-6-9"/>
    <path style="fill:#ffaacc;fill-opacity:1;stroke:#000000;stroke-width:0.376249;stroke-miterlimit:4;stroke-dasharray:none;stroke-opacity:1" d="m 169.70625,246.22186 c -0.9261,-0.90544 -0.88675,-1.33934 0.17344,-1.91253 0.5789,-0.31298 0.73871,-0.35475 2.0338,-0.53157 0.47099,-0.0643 0.98464,-0.24474 1.14145,-0.40096 0.23711,-0.23623 0.0643,-0.35022 -1.02676,-0.67703 -0.72153,-0.21612 -1.42474,-0.52895 -1.56267,-0.69516 -0.29818,-0.35927 -0.32379,-0.33549 2.59183,-2.40711 1.0522,-0.74761 1.07021,-0.95837 0.0515,-0.60326 -0.38157,0.13301 -1.15062,-0.0906 -1.6259,0.11408 l -0.93213,-0.12777 0.12139,0.74807 c 0.15334,0.94491 -0.24924,1.42112 -1.9112,2.26078 -0.77937,0.39376 -1.34518,0.85031 -1.5538,1.25373 -0.21393,0.41372 -0.43924,0.59182 -0.64753,0.5119 -0.7683,-0.29483 0.15711,-1.4813 1.80776,-2.31774 0.6073,-0.30775 1.15941,-0.70346 1.22691,-0.87937 0.13526,-0.35248 -0.32726,-2.22486 -0.54294,-2.19793 -0.0743,0.009 -0.18329,-0.002 -0.24216,-0.0248 -0.80401,-0.31346 -2.32783,-0.4401 -2.47281,-0.20552 -0.15427,0.24961 0.34985,1.90922 0.57994,1.90922 0.0991,0 0.1802,0.1445 0.1802,0.32113 0,0.33418 -0.59036,0.43039 -0.96514,0.15728 -0.34731,-0.25308 -0.98982,-2.29668 -0.84265,-2.68018 0.29041,-0.75681 1.50232,-0.79933 4.44257,-0.15585 2.56677,0.56174 2.75308,-0.026 3.91208,-0.62731 l 0.5333,-0.80585 -0.28053,-57.65229 c -0.0717,-0.47099 -0.18844,-1.48253 -0.25943,-2.24788 -0.071,-0.76535 -0.16872,-1.72873 -0.2172,-2.14084 -0.0485,-0.41211 -0.14532,-1.27916 -0.21519,-1.92676 -0.10534,-0.97638 -0.56865,-3.32953 -0.82194,-4.17464 -0.40926,-1.36548 -2.25517,-3.6044 -3.3063,-4.01024 -1.53227,-0.59161 -2.8359,-0.15847 -2.8359,0.94223 0,0.97946 -0.4412,2.35872 -0.93003,2.90745 -0.57106,0.64102 -0.92041,0.61678 -0.49381,-0.0342 0.18593,-0.28378 0.3831,-0.74139 0.43813,-1.0169 0.055,-0.27552 0.16687,-0.81404 0.24852,-1.19671 0.19615,-0.91932 -0.11617,-0.89248 -0.9732,0.0836 -0.67819,0.77241 -0.68302,0.79401 -0.53826,2.40845 0.17815,1.98695 0.16615,1.75908 0.11959,2.2713 -0.0358,0.39321 -0.0551,0.38787 -0.23694,-0.0655 -0.10891,-0.27148 -0.22019,-0.78458 -0.2473,-1.14022 -0.071,-0.93244 -0.32064,-0.95982 -0.83302,-0.0914 -0.75125,1.27326 -0.87843,0.85025 -0.15774,-0.52464 0.37089,-0.70755 0.61085,-1.34995 0.53324,-1.42755 -0.14949,-0.1495 -0.94924,0.20283 -1.87839,0.82752 -0.39071,0.26268 -0.60292,0.64216 -0.70055,1.25276 -0.10958,0.68524 -0.39926,1.13307 -1.33069,2.05708 -0.65485,0.64963 -1.13823,1.23354 -1.07418,1.29759 0.18104,0.18104 -0.50298,1.41177 -1.01354,1.82358 -0.25222,0.20344 -0.65125,0.37167 -0.88674,0.37385 -0.3344,0.003 -0.27421,-0.0899 0.27479,-0.42463 0.77349,-0.4716 1.01685,-0.89024 0.81828,-1.40769 -0.1125,-0.29317 -0.26838,-0.26168 -1.14685,0.23167 -1.84926,1.03856 -3.45492,1.60264 -3.97073,1.39494 -0.29634,-0.11932 -0.35207,-0.2007 -0.15014,-0.21924 0.89742,-0.0824 1.46409,-0.2782 2.55338,-0.88236 0.6562,-0.36397 1.57845,-0.86774 2.04944,-1.11951 0.47098,-0.25177 1.40057,-0.99258 2.06575,-1.64626 1.00551,-0.98812 1.1912,-1.28377 1.10139,-1.75358 -0.0834,-0.4361 0.0559,-0.73256 0.6103,-1.29877 0.39507,-0.40351 0.91985,-0.79619 1.16615,-0.87262 0.4565,-0.14164 1.58433,-1.20201 1.27848,-1.20201 -0.0924,0 -0.78819,0.43353 -1.54616,0.96338 -1.40932,0.98519 -2.08618,1.28845 -1.16672,0.52274 0.86109,-0.71711 0.30676,-0.73697 -0.83088,-0.0298 -1.02631,0.63799 -1.48327,0.65234 -0.69804,0.0219 0.3599,-0.28894 0.73925,-0.481 3.58591,-1.81551 1.34251,-0.62936 2.78192,-1.75518 1.92354,-1.50448 -0.23726,0.0693 -0.89669,0.18071 -1.46539,0.2476 -1.37638,0.16187 -2.04987,0.43693 -2.19175,0.89515 -0.19936,0.64381 -0.42664,0.9909 -0.71093,1.08566 -0.21356,0.0712 -0.22025,-0.008 -0.0307,-0.3619 0.29017,-0.54221 0.26703,-0.54672 -0.59595,-0.11622 -0.41072,0.2049 -0.72986,0.56112 -0.81515,0.90986 -0.15085,0.61683 -0.42795,0.88578 -0.91797,0.89098 -0.23465,0.002 -0.21954,-0.0618 0.0631,-0.26846 0.20439,-0.14946 0.38897,-0.5021 0.41019,-0.78365 0.0265,-0.35276 0.32308,-0.68376 0.95379,-1.06472 0.83587,-0.50489 1.16045,-0.88101 0.75467,-0.87449 -0.1977,0.003 -1.82517,0.92586 -2.32276,1.31688 -0.3977,0.31252 -2.19169,2.11195 -3.5402,3.55096 -0.46896,0.50042 -0.99573,0.90985 -1.17061,0.90985 -0.17488,0 0.2162,-0.52151 0.86908,-1.15892 1.79946,-1.75682 1.56805,-2.06114 -0.76363,-1.00427 -1.52034,0.68913 -2.2759,0.87818 -2.24468,0.56167 0.0114,-0.1155 0.11704,-0.21317 0.23479,-0.21706 0.11775,-0.004 0.57535,-0.13362 1.01689,-0.28831 0.90804,-0.31809 1.09597,-0.78216 0.25138,-0.6207 -0.34147,0.0653 -0.47534,0.0293 -0.35157,-0.0944 0.10992,-0.10992 0.52666,-0.24392 0.92609,-0.29776 1.15891,-0.15622 1.31585,-0.20298 2.33185,-0.69481 1.00419,-0.4861 2.35493,-1.53406 2.35493,-1.82705 0,-0.0933 -0.90379,-0.10514 -2.00841,-0.0264 -1.37044,0.0977 -2.05448,0.0686 -2.15348,-0.0916 -0.0961,-0.15557 0.16601,-0.24025 0.77742,-0.25111 0.50738,-0.009 1.11517,-0.0585 1.35067,-0.11005 0.23549,-0.0515 1.34338,-0.13238 2.46196,-0.17969 1.11859,-0.0473 2.46732,-0.19348 2.99718,-0.32484 0.52985,-0.13135 1.20422,-0.28594 1.49858,-0.34353 0.29438,-0.0576 0.82423,-0.16106 1.17747,-0.22994 0.64256,-0.1253 1.66998,-0.51564 2.67605,-1.01672 0.37117,-0.18485 0.52532,-0.42666 0.50295,-0.7889 -0.14381,-2.32869 -0.33242,-2.68189 -1.54924,-2.90131 -0.86192,-0.15543 -1.04638,-0.19543 -2.27201,-0.49269 -0.47099,-0.11423 -1.09718,-0.25218 -1.39155,-0.30655 -1.08713,-0.20079 -3.09225,-1.07204 -3.57252,-1.5523 -0.27229,-0.2723 -0.49507,-0.67721 -0.49507,-0.8998 0,-0.50792 -0.57422,-1.03726 -1.46027,-1.34614 -0.74441,-0.2595 -1.11137,-1.06783 -0.70634,-1.55587 0.29578,-0.35639 0.0984,-0.56625 -0.5325,-0.56625 -0.55985,0 -0.85945,-0.33124 -0.44384,-0.49073 0.15397,-0.0591 0.56285,-0.0687 0.90863,-0.0214 l 0.62868,0.086 -0.64225,-0.24559 c -1.14071,-0.4362 -1.84865,-1.05072 -1.77806,-1.54341 0.036,-0.25106 0.24538,-0.49081 0.46539,-0.53276 0.26247,-0.05 0.34676,0.01 0.24517,0.17422 -0.0859,0.13904 0.0576,0.47668 0.32266,0.75877 0.39999,0.42577 0.77779,0.59313 1.9223,0.85159 1.24001,0.28003 1.6494,0.45248 2.06807,0.87115 0.27552,0.27551 0.50094,0.63248 0.50094,0.79326 0,0.58471 1.51507,2.04141 2.8288,2.71982 3.71603,1.91896 7.47221,0.23773 5.31524,-2.37906 -0.70348,-0.85344 -1.25368,-1.11899 -3.04634,-1.47028 -0.66978,-0.13125 -1.53682,-0.46801 -1.92676,-0.74835 -1.60558,-1.15433 -3.11487,-2.00764 -3.93976,-2.22742 -0.87534,-0.23322 -1.77924,-0.96973 -1.51474,-1.23423 0.077,-0.077 0.31099,0.0146 0.51986,0.20359 0.20887,0.18902 0.70113,0.4003 1.09391,0.46949 0.39277,0.0692 1.09958,0.32246 1.57068,0.56279 0.53901,0.27499 0.79649,0.33193 0.69456,0.15361 -0.3683,-0.6443 -0.81687,-1.01573 -1.37463,-1.13823 -1.22955,-0.27006 -1.96772,-1.70134 -1.24842,-2.42063 0.37981,-0.37981 0.66697,-0.31176 0.49686,0.11774 -0.38432,0.97041 -0.31648,1.1489 0.59373,1.56211 0.49521,0.22483 1.04612,0.41088 1.22423,0.41347 0.1781,0.003 0.51529,0.26511 0.74929,0.58338 0.9161,1.24599 1.70738,2.04071 2.23193,2.24163 0.75882,0.29064 2.29949,0.46311 2.71448,0.30387 0.48481,-0.18604 0.0385,-0.68651 -1.08357,-1.21519 -1.49253,-0.7032 -2.13248,-1.39074 -2.13365,-2.29231 -5.7e-4,-0.43678 0.0751,-0.95652 0.16804,-1.15499 0.27574,-0.58848 -1.759,-1.66882 -3.33431,-1.77033 -0.0824,-0.005 -0.27509,-0.13644 -0.42816,-0.29139 -0.6564,-0.66448 2.7869,0.11317 3.91752,0.88475 0.67126,0.45809 0.72329,0.57325 0.66638,1.4751 -0.0541,0.85714 0.0267,1.07201 0.65304,1.73608 0.39312,0.41683 1.14343,0.92576 1.66735,1.13096 0.59673,0.2337 1.43245,0.8738 2.23711,1.71345 1.61184,1.68195 2.10733,1.88016 4.17463,1.66996 0.8831,-0.0898 1.6538,-0.17372 1.71268,-0.1865 0.83916,-0.18217 1.2845,-0.37874 1.2845,-0.56698 0,-0.12695 0.4711,-0.65438 1.04688,-1.17206 1.34015,-1.20491 1.50293,-1.8058 0.78361,-2.89275 -0.58795,-0.88846 -0.68678,-1.80601 -0.30752,-2.85486 0.26676,-0.73768 -0.0116,-1.54808 -0.98945,-2.88144 -0.58088,-0.79201 -0.77562,-2.49332 -0.26591,-2.3231 0.15849,0.0529 0.2399,0.35896 0.19968,0.75058 -0.052,0.5068 0.1032,0.85255 0.66488,1.48058 1.06194,1.1874 1.24442,1.64245 1.25149,3.12094 0.007,1.35743 0.14255,1.79969 0.73638,2.39352 0.79783,0.79783 2.28149,-0.9659 2.57445,-3.06046 0.12594,-0.90033 -0.0355,-1.15403 -1.28537,-2.01927 -0.71358,-0.49401 -0.70363,-1.00229 0.0331,-1.6921 0.66015,-0.61807 1.55211,-0.97078 1.55211,-0.61374 0,0.12568 -0.0823,0.22851 -0.18283,0.22851 -0.31813,0 -1.31576,1.03641 -1.31576,1.3669 0,0.17431 0.1932,0.37824 0.42933,0.45318 0.23612,0.0749 0.71781,0.37902 1.07041,0.67571 0.7701,0.648 0.81147,1.22369 0.21294,2.96336 -0.51756,1.50429 -0.51568,1.39154 -0.0231,1.39154 0.22275,0 0.89002,-0.43607 1.48282,-0.96904 1.14843,-1.03254 1.439,-1.72045 1.35861,-3.21644 -0.0369,-0.6863 0.066,-0.97299 0.49347,-1.37455 0.59084,-0.55506 1.02197,-0.45578 0.4602,0.10599 -0.38887,0.38888 -0.4672,1.50073 -0.1208,1.71482 0.1242,0.0768 1.05221,-0.35434 2.06224,-0.95799 1.01003,-0.60364 1.88786,-1.04611 1.95071,-0.98326 0.13845,0.13846 0.25844,0.0397 -1.56271,1.28558 -1.99041,1.36163 -2.15736,1.51928 -2.6384,2.49156 -0.37751,0.76303 -0.38168,0.83291 -0.0497,0.83291 0.83409,0 2.7967,-0.74208 4.34447,-1.64268 0.91104,-0.5301 1.77771,-0.9234 1.92594,-0.87399 0.29512,0.0984 -0.82027,0.8559 -2.55332,1.7341 -0.60818,0.30819 -1.16646,0.65852 -1.24061,0.7785 -0.28122,0.45501 1.00771,0.19538 2.10536,-0.4241 0.82524,-0.46574 1.39801,-0.6358 2.08407,-0.61879 l 0.94607,0.0235 -0.93985,0.18458 c -0.5169,0.10152 -1.09494,0.3202 -1.2845,0.48594 -0.81059,0.70874 -1.74483,0.99524 -3.24533,0.99524 -0.84172,0 -1.83396,0.13141 -2.20499,0.29203 -0.37103,0.16061 -0.91545,0.39494 -1.20982,0.52072 l -0.53521,0.22869 0.55471,0.0145 c 0.30509,0.008 1.02762,-0.12897 1.60563,-0.30432 1.75969,-0.53382 2.27219,-0.35075 0.62276,0.22246 -1.08736,0.37787 -1.95681,0.52129 -3.16838,0.52265 -2.15129,0.002 -2.73264,0.30088 -3.34115,1.71542 -0.55342,1.28643 -0.46095,1.73108 0.51473,2.47527 0.86022,0.65612 3.26488,1.08449 4.21958,0.75168 0.32877,-0.11461 0.59776,-0.16326 0.59776,-0.10812 0,0.20931 1.84567,-0.83622 2.41029,-1.36538 0.50616,-0.47436 0.57024,-0.66227 0.44824,-1.31447 -0.0783,-0.41854 -0.28639,-0.8667 -0.46245,-0.99591 -0.21428,-0.15725 -0.24349,-0.28228 -0.0884,-0.37814 0.12745,-0.0788 0.2924,-0.045 0.36655,0.0749 0.0907,0.1467 0.2778,0.14164 0.57134,-0.0155 0.31087,-0.16637 0.40782,-0.38368 0.33684,-0.75498 -0.0549,-0.28676 -0.0163,-0.57293 0.0857,-0.63594 0.10195,-0.063 0.18537,0.0781 0.18537,0.3136 0,0.69765 0.32296,0.69456 0.98414,-0.009 0.67057,-0.71397 2.49576,-1.6726 3.1905,-1.67572 0.23549,-0.001 -0.16624,0.27928 -0.89274,0.62297 -1.69164,0.80029 -3.49599,2.50139 -3.49599,3.29597 0,0.48436 0.0924,0.57438 0.58874,0.57337 1.14872,-0.002 2.21411,-0.4535 2.93383,-1.24242 0.39648,-0.4346 1.163,-1.29917 1.70337,-1.92127 0.54039,-0.6221 0.98251,-1.02747 0.98251,-0.90082 0,0.12664 -0.0981,0.34662 -0.21806,0.48883 -1.04124,1.23472 -1.09748,1.33051 -0.81527,1.38844 0.15928,0.0327 0.82856,-0.12598 1.48728,-0.35262 0.65873,-0.22664 1.31559,-0.3392 1.45968,-0.25015 0.15911,0.0983 -0.0601,0.21456 -0.55822,0.29599 -1.02756,0.16797 -3.28332,1.22898 -3.71034,1.74518 -0.34243,0.41394 -1.4707,0.94859 -2.33104,1.1046 -0.79934,0.14495 -2.80698,1.61663 -2.80698,2.05764 0,0.60548 5.05021,-0.90684 6.71858,-2.01191 0.53854,-0.35672 1.21588,-0.9299 1.50519,-1.27373 0.28933,-0.34384 0.64749,-0.62515 0.79594,-0.62515 0.14845,0 -0.0621,0.34488 -0.46787,0.76641 l -0.73776,0.76641 0.85633,-0.15207 c 0.47098,-0.0836 0.97676,-0.24765 1.12394,-0.36446 0.36167,-0.28704 0.34126,0.011 -0.0259,0.37821 -0.32486,0.32486 -2.42447,1.45292 -2.92241,1.57012 -0.17406,0.041 -0.55732,0.11701 -0.85169,0.16897 -0.29436,0.052 -0.72789,0.15822 -0.96338,0.23611 -0.23549,0.0779 -0.47634,0.15005 -0.53521,0.16034 -1.32352,0.23129 -1.83523,0.85684 -0.53521,0.6543 0.41211,-0.0642 1.0955,-0.17097 1.51865,-0.23725 0.42315,-0.0663 1.31427,-0.41558 1.98028,-0.77623 0.66601,-0.36065 1.69261,-0.79741 2.28135,-0.97057 0.58872,-0.17317 1.43061,-0.51536 1.87083,-0.76044 0.44024,-0.24507 0.85015,-0.39586 0.91093,-0.33508 0.0608,0.0608 -0.39574,0.39102 -1.0145,0.73385 l -1.12501,0.62334 1.25808,0.065 c 0.69195,0.0358 1.559,-0.0445 1.92676,-0.17832 0.36777,-0.13383 0.95768,-0.28994 1.31092,-0.34691 0.62273,-0.10043 0.62857,-0.0937 0.19201,0.22195 -0.24763,0.17904 -0.68115,0.37321 -0.96337,0.43149 -0.28223,0.0583 -0.75399,0.16354 -1.04835,0.23392 -0.29437,0.0704 -1.41135,0.12191 -2.48218,0.11452 -1.58788,-0.011 -2.04193,0.0603 -2.46196,0.38625 -0.28326,0.21983 -0.65951,0.45465 -0.83613,0.52181 -0.17662,0.0672 0.30507,0.14618 1.07041,0.1756 0.76536,0.0294 1.72873,0.0681 2.14085,0.086 1.07181,0.0466 4.28167,0.56568 4.28167,0.69245 0,0.13226 -3.19603,-0.12125 -3.44154,-0.27298 -0.30483,-0.1884 -1.2683,0.14864 -1.2683,0.44368 0,0.263 1.32917,0.88758 2.25827,1.06115 0.22978,0.0429 0.44187,0.0975 0.4713,0.12119 0.0294,0.0237 0.12577,0.0577 0.21408,0.0755 0.0883,0.0178 0.35324,0.15612 0.58874,0.30739 0.40565,0.26058 0.40003,0.26972 -0.10705,0.17394 -0.61468,-0.1161 -1.11131,-0.2446 -2.0712,-0.5359 -0.37382,-0.11344 -0.72335,-0.16257 -0.77674,-0.10917 -0.0534,0.0534 -0.41442,-0.22034 -0.80228,-0.6083 -0.67432,-0.67451 -0.78556,-0.70806 -2.54156,-0.76671 -2.02567,-0.0677 -2.0285,-0.0464 -0.14308,1.07296 0.54052,0.3209 0.98276,0.68916 0.98276,0.81835 0,0.1292 -0.25555,0.0339 -0.56789,-0.21181 -0.83008,-0.65293 -0.90488,-0.3342 -0.11325,0.48255 0.37463,0.38652 0.68114,0.81655 0.68114,0.95562 0,0.13908 -0.50656,-0.27012 -1.12569,-0.90933 -0.61912,-0.63922 -1.48273,-1.3114 -1.91914,-1.49374 -1.05161,-0.43939 -3.73951,-0.80981 -4.55084,-0.62715 -0.64586,0.1454 -0.64524,0.14619 0.56122,0.71792 0.79325,0.37591 1.63177,0.58951 2.44306,0.62234 1.45726,0.059 2.21449,0.40544 2.95561,1.35242 0.75054,0.95901 0.53849,1.0072 -0.50431,0.1146 -0.92272,-0.78981 -1.62617,-1.01942 -3.07821,-1.00477 l -0.88309,0.009 0.85633,0.76562 c 0.73051,0.65312 0.7777,0.7428 0.32112,0.61035 -0.29436,-0.0854 -0.92901,-0.535 -1.41035,-0.99912 -0.97884,-0.94385 -2.38074,-1.4651 -3.94037,-1.4651 -0.83553,0 -1.09281,0.10302 -1.55623,0.62313 -1.19914,1.34584 -1.55953,2.59999 -1.05131,3.65856 0.44547,0.92786 1.17394,1.06485 2.454,0.46149 0.4958,-0.2337 1.33498,-0.47808 1.86484,-0.54306 l 0.96337,-0.11815 -0.96337,0.31377 c -1.64081,0.53441 -1.63034,0.52854 -1.30336,0.73063 0.33553,0.20737 0.94165,0.048 2.58786,-0.68025 0.67381,-0.2981 1.68111,-0.54413 2.35492,-0.57518 1.36412,-0.0629 1.33893,0.18115 -0.034,0.32904 -0.51117,0.0551 -1.4131,0.3331 -2.00427,0.61786 -1.03624,0.49913 -3.04406,1.04155 -3.44203,0.92988 -0.43824,-0.12297 -1.79858,0.28643 -1.79858,0.54129 0,0.15139 0.23315,0.40003 0.51812,0.55254 0.69837,0.37376 1.74149,0.15346 3.38969,-0.71587 0.73549,-0.38792 1.67142,-0.77064 2.07985,-0.8505 0.93329,-0.18247 0.62007,0.14591 -0.47201,0.49485 -0.43992,0.14056 -0.86516,0.36125 -0.94499,0.49041 -0.0986,0.15954 -0.0138,0.17884 0.26463,0.0602 0.22537,-0.0961 0.79512,-0.14324 1.26611,-0.10484 0.47098,0.0384 1.57886,0.0617 2.46196,0.0518 l 1.60563,-0.018 -1.0621,0.32017 c -0.87992,0.26526 -1.26972,0.27612 -2.27235,0.0633 -0.91217,-0.19357 -1.32284,-0.19656 -1.66746,-0.0121 -0.25148,0.13459 -0.45724,0.18135 -0.45724,0.10392 0,-0.0774 -0.1445,-0.0208 -0.32112,0.12572 -0.17662,0.14658 -0.32113,0.20316 -0.32113,0.12572 0,-0.0774 -0.21065,-0.0281 -0.46812,0.10975 -0.25747,0.13779 -0.81141,0.29575 -1.23099,0.35103 -1.0491,0.13821 -1.06095,0.21132 -0.0999,0.61695 0.82051,0.34632 1.83773,0.28668 3.6723,-0.21531 1.21962,-0.33372 1.50766,-0.39181 2.44444,-0.49296 0.5807,-0.0627 1.16368,-0.004 1.39154,0.14062 0.3283,0.20803 0.26521,0.23162 -0.38721,0.14475 -0.67766,-0.0902 -1.13305,-0.0259 -2.753,0.38896 -0.17662,0.0452 -0.51115,0.0896 -0.7434,0.0986 -0.41297,0.016 -0.41258,0.0232 0.0174,0.32437 0.24184,0.1694 0.69771,0.37274 1.01304,0.45188 0.31533,0.0791 0.61923,0.2182 0.67536,0.30901 0.0562,0.0908 -0.56894,-0.0111 -1.38904,-0.22636 -0.82009,-0.21531 -2.17089,-0.41132 -3.00176,-0.43558 -0.83087,-0.0243 -1.56209,-0.12732 -1.62495,-0.22902 -0.0629,-0.1017 -0.20553,-0.12851 -0.31707,-0.0596 -0.32231,0.1992 -0.053,0.46253 1.53035,1.49608 0.81682,0.5332 1.48511,1.07925 1.48511,1.21342 0,0.13419 -0.24083,0.0177 -0.5352,-0.25883 -0.62015,-0.58261 -0.65561,-0.48849 -0.21409,0.56823 0.17662,0.42271 0.32113,1.06187 0.32113,1.42035 0,0.74587 -0.14161,0.71296 -0.28686,-0.0667 -0.13323,-0.71521 -1.18783,-2.77829 -1.42016,-2.77829 -0.10226,0 -0.62934,-0.44342 -1.17129,-0.98537 -0.8142,-0.81421 -1.04026,-0.93981 -1.3014,-0.72308 -0.4968,0.41231 -0.37907,0.85666 0.50575,1.90875 1.04734,1.24537 1.31985,1.76627 1.31577,2.5152 -0.002,0.46786 -0.0498,0.53092 -0.2108,0.28167 -0.11415,-0.17661 -0.209,-0.4986 -0.21081,-0.71552 -0.002,-0.21692 -0.18367,-0.62373 -0.40415,-0.90403 -0.94426,-1.20042 -1.77493,-2.05627 -1.88701,-1.94419 -0.0663,0.0663 0.04,0.52201 0.23625,1.01258 0.19628,0.49056 0.31178,0.93704 0.25666,0.99215 -0.22245,0.22245 -0.77403,-1.25979 -0.77403,-2.08 0,-1.17147 -0.68708,-1.82732 -1.98468,-1.89449 -0.81944,-0.0424 -1.05455,0.055 -1.8402,0.76216 -0.49541,0.44594 -0.95408,1.05164 -1.01926,1.346 0.65479,1.73922 0.19901,73.17072 0.19901,73.17072 l 0.90257,0.94197 c 0.78472,0.81897 1.00608,0.935 1.69533,0.88858 0.88949,-0.0599 0.95926,-0.12238 1.0251,-0.91792 0.0672,-0.81205 0.63448,-1.21917 1.81175,-1.30025 0.56653,-0.039 1.21538,-0.14252 1.44188,-0.22999 0.32077,-0.12388 0.38309,-0.0842 0.28185,0.17963 -0.0909,0.23686 0.0276,0.37821 0.39429,0.47023 0.75617,0.18979 1.27828,0.69771 2.25266,2.19142 0.87393,1.33974 1.16045,1.57186 2.11853,1.71631 0.84672,0.12765 1.10778,0.26207 0.96326,0.49591 -0.20371,0.32961 -2.46185,-0.11163 -2.46185,-0.48104 0,-0.12802 -0.0702,-0.16252 -0.15608,-0.0767 -0.24409,0.24409 1.22702,1.41387 1.77808,1.41387 0.49738,0 0.88428,0.34817 0.6487,0.58375 -0.22492,0.22492 -1.80329,-0.36429 -2.46308,-0.91946 -0.36749,-0.30922 -0.83356,-1.05859 -1.09493,-1.7605 -0.6958,-1.86853 -2.00594,-3.04181 -3.39662,-3.04181 -0.77483,0 -1.31043,0.49025 -1.31043,1.19947 0,0.4932 0.20748,0.68258 0.89315,0.8153 0.88766,0.17181 1.54467,0.72816 2.01759,1.70847 0.28304,0.58672 0.51461,1.19464 0.51461,1.35095 0,0.15631 0.30769,0.47133 0.68375,0.70002 0.56601,0.34422 0.62102,0.43989 0.31948,0.5556 -0.70294,0.26975 -1.73015,-0.76969 -1.9822,-2.00577 -0.1144,-0.56107 -0.75383,-1.32628 -1.37797,-1.64903 -0.35213,-0.18209 -0.64024,-0.26864 -0.64024,-0.19233 0,0.0763 -0.14503,0.0184 -0.32228,-0.12871 -0.20438,-0.16962 -0.62085,-0.21974 -1.13834,-0.13698 -0.44884,0.0718 -1.12268,0.0426 -1.49743,-0.0649 -1.13154,-0.32453 -0.7761,-0.0416 1.06839,0.85035 0.96238,0.46539 1.98331,1.06404 2.26872,1.33033 0.72977,0.68084 1.39713,2.05549 1.20648,2.48518 -0.0864,0.19464 -0.16533,0.42615 -0.1755,0.51446 -0.0102,0.0883 -0.0907,0.16056 -0.17906,0.16056 h -0.46639 c -0.16821,0 -0.46916,-0.16332 -0.66878,-0.36295 -0.3412,-0.3412 -0.32609,-0.39314 0.25232,-0.86701 l 0.61526,-0.50407 -0.94683,-0.82982 c -0.52075,-0.4564 -1.33963,-0.99648 -1.81972,-1.20019 -0.48009,-0.20371 -1.3955,-0.60697 -2.03424,-0.89615 -1.55518,-0.70406 -2.62931,-0.56027 -4.14165,0.55446 -0.61573,0.45386 -1.33628,0.94051 -1.60121,1.08144 -0.26493,0.14095 -0.48169,0.32718 -0.48169,0.41385 0,0.0867 0.60211,0.34933 1.33803,0.58368 1.04543,0.33292 1.35257,0.52771 1.40454,0.8908 0.0985,0.68817 -0.64869,1.0252 -2.71376,1.22409 -0.90588,0.0873 -1.74149,0.45589 -1.74149,0.76827 0,0.10951 0.299,0.53964 0.66443,0.95585 0.57655,0.65664 0.61024,0.75675 0.25473,0.75675 -0.22534,0 -0.717,-0.30045 -1.0926,-0.66766 z m 12.89393,-2.45947 c 0.18626,-0.0714 0.33864,-0.20745 0.33864,-0.30218 0,-0.26237 -0.71445,-0.10056 -0.80905,0.18323 -0.0942,0.28247 -0.0107,0.30357 0.47041,0.11895 z m -7.26949,-83.62977 c 1.10147,-1.18788 1.1863,-2.39563 0.26792,-3.8141 -1.18197,-1.82559 -4.22033,-0.63408 -4.22033,1.65504 0,2.25575 2.56403,3.65638 3.95241,2.15906 z m -13.49386,-3.67077 c 0.0647,-0.10466 -0.49622,-0.59022 -1.24646,-1.07902 -0.75025,-0.4888 -1.53495,-1.07754 -1.74379,-1.3083 -0.20884,-0.23076 -0.48189,-0.41957 -0.60677,-0.41957 -0.12489,0 -0.68739,-0.45339 -1.24999,-1.00753 -0.74396,-0.73277 -1.08714,-0.94332 -1.25842,-0.77204 -0.40528,0.40528 -0.12093,0.93066 0.76723,1.41758 1.11884,0.61339 1.3425,0.8381 1.51391,1.52106 0.23321,0.92921 3.41983,2.30226 3.82429,1.64782 z m -3.94585,-4.2723 c 0,-0.34773 -0.7826,-0.8851 -1.40559,-0.96513 -0.34551,-0.0444 -0.47695,-0.0411 -0.29209,0.007 0.18486,0.0484 0.57021,0.31859 0.85634,0.60043 0.54474,0.53659 0.84134,0.66258 0.84134,0.3574 z m 37.25064,-1.67661 0.5352,-0.30555 -0.62481,0.13129 c -0.34365,0.0722 -0.82534,0.2788 -1.07043,0.4591 -0.43733,0.32173 -0.43567,0.32496 0.0896,0.17427 0.29437,-0.0845 0.77606,-0.29105 1.07043,-0.45911 z" id="path899-4-2" sodipodi:nodetypes="csssssssscssscssccsssssssccsssssssssssssscsssssssscssssssssssssssssssssscsscscsssssssscsssssssssssssssssssssssssscscsscssssssssssssssssssssssscssscssssssssssssssssssssssssssssssssssssssssscsssssccsssssssscsssscssscsscssscssssssssssccsssssssssssssscsssssssssssssssssssssssssssssssssssscsssssssscsssssssssssssssscsssssssssssssssssssssssssssssssscscsssssssccssssssssssscsssssssssssssssscsssssssscsssssssscssscccsscsssscssssssscsssssccssssc"/>
    <path style="fill:none;stroke:#000000;stroke-width:0.865;stroke-linecap:butt;stroke-linejoin:miter;stroke-miterlimit:4;stroke-dasharray:none;stroke-opacity:1;marker-start:url(#DotM)" d="m 50.089172,249.12339 34.261899,1.82558 0.370758,-0.37076" id="path1391" sodipodi:nodetypes="ccc"/>
    <path style="fill:none;stroke:#000000;stroke-width:0.865;stroke-linecap:butt;stroke-linejoin:miter;stroke-miterlimit:4;stroke-dasharray:none;stroke-opacity:1;marker-start:url(#DotM-1)" d="m 152.77908,249.92041 -34.2619,1.82558 -0.37076,-0.37076" id="path1391-0" sodipodi:nodetypes="ccc"/>
    <g id="g985" transform="translate(0.85772633,-154.78139)">
      <path style="fill:#800080;fill-opacity:1;stroke:none;stroke-width:0.460243;stroke-linecap:round;stroke-miterlimit:4;stroke-dasharray:none;stroke-opacity:1;paint-order:markers fill stroke" d="m 33.06987,199.18926 c -1.498445,-1.15768 -1.7108,-3.01025 -0.483259,-4.21592 1.31021,-1.28686 2.830196,-1.10749 3.795815,0.44794 0.76249,1.22823 0.664173,2.32932 -0.304767,3.41322 -0.969585,1.08462 -1.918257,1.19651 -3.007789,0.35476 z" id="path910-0"/>
      <path id="path899-3" style="fill:#ffaacc;fill-opacity:1;stroke:#000000;stroke-width:0.376249;stroke-miterlimit:4;stroke-dasharray:none;stroke-opacity:1" d="m 30.236316,245.04854 c -2.931177,-2.61858 4.99604,-2.04904 2.689007,-3.40886 -2.296905,-0.1728 -2.335093,-1.75701 -0.298618,-2.53202 1.301282,-0.73263 2.510001,-1.91023 0.248452,-1.15347 -1.90366,-0.46787 -1.753997,0.13041 -1.947717,1.77097 -1.419525,0.39608 -3.10815,3.11124 -4.111456,2.48765 0.999172,-1.60338 5.318183,-3.38911 2.192208,-5.15939 -2.027142,-0.98803 -2.747986,0.69082 -1.381522,2.13328 -2.253385,0.97947 -2.512849,-4.85042 0.741054,-3.03229 2.099703,0.29092 5.213926,1.7303 6.279684,-0.98983 -1.094995,-6.65133 0,0 -0.13321,-18.76533 -0.153577,2.83799 -0.412357,-2.48128 -0.608776,-3.53265 -0.324276,-3.43152 -0.782609,-7.3775 -3.872108,-9.49496 -3.169919,-2.04482 -3.264106,1.72306 -4.193002,3.61685 -1.704453,1.81048 1.78635,-4.89586 -0.780363,-2.16422 -1.405129,0.79158 0.282865,7.09271 -0.902908,3.47407 -0.152453,-2.01024 -2.331897,2.53888 -0.990764,-0.61602 1.699056,-3.00139 -2.800058,-0.16403 -2.402849,1.59173 -1.843613,1.1258 -1.986055,4.33104 -4.141876,4.52751 2.421693,-1.21001 0.836128,-2.72413 -0.868837,-0.98287 -0.713769,0.92765 -4.986801,1.0234 -1.907192,0.398 2.398596,-1.28824 6.016647,-2.5283 6.547449,-5.46349 -0.01874,-1.12862 4.907874,-3.80097 2.074898,-2.47679 -0.976196,0.64372 -3.015491,2.17666 -1.380993,0.3478 -1.188639,0.62319 -3.447043,1.52403 -1.002586,0.0255 1.373346,-0.80214 4.449214,-1.74407 4.649033,-2.80433 -1.949563,0.003 -3.563896,0.80809 -4.534585,2.20684 0.886756,-2.63105 -3.507156,3.65219 -1.719927,0.29218 0.411487,-0.95786 3.152007,-2.57787 0.659536,-1.4262 -2.421422,1.14339 -3.863133,4.04438 -6.014437,5.17324 0.761119,-0.87134 3.527622,-3.6372 0.547835,-2.25393 -0.843635,0.83817 -4.25713,1.0638 -1.405591,0.23849 2.309332,-0.82135 -1.762096,-0.49532 0.825893,-1.01292 1.789304,0.1863 6.886619,-3.17636 2.678373,-2.54825 -1.60161,0.35232 -3.175199,-0.42395 -0.598771,-0.38175 3.838967,-0.35332 7.859782,-0.40598 11.38462,-2.16569 2.133087,-3.24801 -2.224028,-4.28893 -4.709847,-4.48945 -3.150802,-0.31125 -4.531542,-3.15233 -6.399392,-4.94161 1.230261,-1.21198 -2.62667,-1.31318 0.09748,-1.49093 1.580127,0.57433 -3.728437,-1.98979 -1.081064,-2.06156 0.936481,2.30631 4.852661,1.25673 5.362623,4.2134 1.833846,2.08181 5.826329,3.86698 8.066853,1.49996 0.684226,-3.64624 -4.124306,-3.11137 -6.040999,-4.73458 -1.074351,-1.31583 -4.679061,-1.68434 -4.64758,-3.04152 0.825754,0.46953 5.383431,2.48275 2.692184,0.38816 -1.897447,0.44885 -2.325808,-3.37424 -1.149851,-2.44181 -0.605157,2.23948 3.327218,1.83534 3.830039,4.07167 0.773121,1.53914 5.814684,1.3453 2.600042,-0.18241 -3.340997,-0.70432 -0.649756,-5.31504 -4.693044,-5.13655 -3.086989,-1.12087 4.559517,-0.36613 3.548868,1.98738 0.56951,3.02398 4.621573,3.82412 6.474017,6.12503 2.995119,0.76388 6.158286,-0.39865 7.466281,-3.29073 -1.479736,-2.36196 0.153448,-5.3261 -1.876575,-7.47263 -0.840708,-1.43937 0.196431,-2.91193 0.235177,-0.5435 2.64433,1.42799 0.73609,5.5508 3.248096,6.45315 2.37508,-1.40644 2.324296,-4.66328 0.06412,-6.00529 -0.0061,-1.49661 3.601144,-2.20437 1.152512,-0.74519 -1.617354,1.59831 3.038915,2.08006 1.368374,4.2994 -2.133633,4.12003 3.725318,0.0943 2.624009,-2.1937 -0.186525,-1.55442 2.055586,-2.42977 0.617548,-0.34561 -0.105197,2.35235 6.048472,-2.95763 3.261264,-0.27106 -1.354985,0.36717 -5.499459,4.54371 -1.95072,3.44944 1.616706,-0.245 3.727375,-2.21548 4.90661,-2.04543 -1.008353,0.74452 -5.907229,3.3183 -2.074974,2.11429 1.246265,-1.08649 5.136859,-0.98379 1.742435,-0.40661 -2.162989,1.94276 -5.307468,0.70384 -7.653397,2.27748 0.857071,0.23921 5.657497,-1.24119 2.323006,0.0898 -2.430731,0.64927 -6.592889,-0.26357 -6.426934,3.54815 1.646226,2.65544 5.967215,2.3513 8.058405,0.31248 1.415782,-1.33241 -1.334947,-2.96926 1.146903,-2.92968 -0.105454,-2.41344 0.546343,1.02534 1.581573,-1.06294 0.713926,-0.96255 4.596739,-2.01595 1.678603,-0.61571 -2.025004,0.48295 -4.99897,4.95073 -0.961424,3.38294 1.466459,-0.32811 3.519683,-4.12141 3.773858,-3.24945 -2.536238,2.38738 1.381774,0.52868 2.09903,0.94 -3.045593,0.70176 -5.423387,2.78485 -8.270184,3.90924 -3.057939,2.41318 2.845634,0.54549 3.86122,-0.006 1.2991,0.089 4.018544,-3.26454 3.852066,-2.29577 -1.885852,1.4647 0.06595,0.96873 1.237688,0.49125 -1.46995,2.25766 -5.172065,1.84914 -6.745089,3.24 3.328759,-0.0237 6.117744,-2.17948 9.212976,-3.0953 -0.721812,0.79306 -3.276905,1.56668 -0.881425,1.4222 1.06662,0.23376 5.364029,-1.24117 2.466314,0.12821 -2.004244,0.79189 -5.673156,-0.34803 -6.64665,1.35845 1.976335,0.0981 6.513131,0.31211 6.807751,0.88662 -1.3989,-0.38498 -6.213487,-0.47678 -2.693178,0.99532 1.74952,0.25748 3.083198,1.42883 0.482827,0.53446 -2.213022,-0.35675 -3.818695,-2.53184 -6.300915,-1.58313 0.771574,0.56826 3.802966,2.66042 1.145223,1.27829 0.802135,0.94577 1.835848,2.6412 0.106968,0.83869 -1.242125,-1.88039 -5.837781,-2.77824 -6.596253,-1.73589 1.771141,1.10704 6.415404,0.85782 6.20612,2.91581 -0.513636,-1.2121 -4.736942,-2.14743 -4.201498,-1.14601 2.535327,2.58857 -1.709409,-1.10263 -2.883296,-1.21693 -3.412795,-2.29462 -6.777189,5.28568 -2.282277,4.71993 1.146671,-0.70882 4.851184,-1.18043 1.779022,-0.36235 -2.37992,1.26406 2.371201,-0.0564 3.002472,-0.5139 1.447462,-0.49685 3.071316,0.0458 0.697795,0.22132 -1.932058,1.2647 -5.488004,0.96586 -6.647002,2.28516 1.642016,1.73209 5.768668,-2.13656 6.029168,-1.04502 -3.804844,1.28182 1.617136,0.5552 3.06888,0.7401 2.268866,-0.0289 -2.811466,0.98183 -3.462269,0.22543 -1.288291,0.4535 -6.304151,1.18319 -2.480654,1.78521 1.613733,-0.0675 6.445616,-1.50745 6.082279,-0.63932 -1.558447,-0.0653 -5.634662,0.5898 -2.031082,1.41396 -0.677189,0.409 -5.494033,-1.40384 -6.041784,-0.3565 1.150236,0.87857 4.09803,2.78071 1.975593,1.96721 0.689602,1.03104 0.691729,3.86593 0.02886,1.23437 -0.42103,-1.26902 -3.090538,-4.9801 -3.912644,-3.03645 0.610595,0.80327 2.937301,4.16708 1.728417,3.64852 0.02643,-1.53622 -3.46501,-4.76775 -1.895583,-1.54914 -0.835987,0.24349 -0.412774,-4.73342 -3.247405,-3.63996 -3.474529,0.99345 -2.141236,5.04006 -2.35947,7.69435 0.151692,9.12116 0.146388,18.24408 0.221774,27.36611 1.078572,1.7421 3.800885,2.81821 4.112611,-0.0116 3.14825,-1.84061 4.920879,1.14391 6.720524,3.54166 1.219722,0.21835 3.186628,1.2473 0.746765,0.92745 -2.782722,-1.39355 0.05413,0.90354 1.184138,1.22767 -3.300311,0.88302 -3.450967,-4.27498 -6.00303,-5.31865 -1.946114,-1.31421 -3.453176,2.12873 -0.813627,2.00382 1.534988,0.81716 1.962876,3.34971 2.912202,4.11347 -2.3619,-0.46304 -2.339155,-4.75523 -5.46103,-4.11282 -0.950769,0.20642 -3.373697,-0.63711 -1.050926,0.47951 1.815772,0.63209 5.261721,2.84894 3.570802,4.79647 -2.341169,-0.22722 -0.13463,-1.37677 -0.354166,-1.96042 -1.938569,-1.6551 -4.496404,-3.31965 -7.119145,-2.99626 -1.60242,0.77874 -5.475749,2.68798 -1.656671,3.15849 3.022102,2.50284 -6.458478,1.1032 -2.706442,4.0057 0.585612,0.87716 -1.0789,-0.0488 -1.170812,-0.30625 z m 12.893926,-2.45947 c 1.133578,-1.00544 -1.58819,0.3059 0,0 z m -7.269487,-43.4131 c 2.567122,-2.01626 -0.803492,-6.57065 -3.211647,-3.92497 -2.173384,1.952 0.807796,6.1445 3.211647,3.92497 z m -13.49386,-3.67077 c -1.923221,-1.16105 -4.432293,-4.35066 -6.281427,-4.26246 1.893116,1.44616 3.344065,4.88674 6.281427,4.26246 z m -3.945853,-4.2723 c -0.806477,-1.27106 -2.514871,-1.16783 -0.480067,-0.0323 0.0388,0.0722 0.514585,0.37199 0.480067,0.0323 z m 37.250637,-1.67661 c 1.66951,-1.01078 -3.294257,1.17499 -0.53522,0.26091 l 0.535216,-0.26091 z" sodipodi:nodetypes="sccccccccccccccccccccccccccccccccccccccccccccccccccccccccccccccccccccccccccccccccccccccccccccccccccccccccccccccccccccccccccccccccscccccccccccsccs"/>
      <path style="fill:none;stroke:#000000;stroke-width:0.865;stroke-linecap:butt;stroke-linejoin:miter;stroke-miterlimit:4;stroke-dasharray:none;stroke-opacity:1;marker-start:url(#DotM-8)" d="m 37.197485,213.56685 22.12991,11.3733" id="path1391-06" sodipodi:nodetypes="cc"/>
    </g>
    <path style="fill:none;stroke:#000000;stroke-width:0.865;stroke-linecap:butt;stroke-linejoin:miter;stroke-miterlimit:4;stroke-dasharray:none;stroke-opacity:1;marker-start:url(#DotM-8-4)" d="m 172.59666,205.24714 -22.1087,5.24021" id="path1391-06-2" sodipodi:nodetypes="cc"/>
    <g id="g1061">
      <path style="fill:#800080;fill-opacity:1;stroke:none;stroke-width:0.460243;stroke-linecap:round;stroke-miterlimit:4;stroke-dasharray:none;stroke-opacity:1;paint-order:markers fill stroke" d="m 171.52225,44.613759 c -1.49845,-1.157674 -1.7108,-3.010243 -0.48326,-4.215912 1.31021,-1.286865 2.8302,-1.107494 3.79582,0.447932 0.76248,1.228234 0.66417,2.329323 -0.30477,3.413224 -0.96959,1.08462 -1.91826,1.196512 -3.00779,0.354756 z" id="path910-6"/>
      <path style="fill:#aaeeff;fill-opacity:1;stroke:#000000;stroke-width:0.376249;stroke-miterlimit:4;stroke-dasharray:none;stroke-opacity:1" d="m 168.68869,130.68976 c -0.9261,-0.90544 -0.88675,-1.33934 0.17344,-1.91253 0.5789,-0.31298 0.73871,-0.35475 2.0338,-0.53157 0.47099,-0.0643 0.98464,-0.24474 1.14145,-0.40096 0.23711,-0.23623 0.0642,-0.35022 -1.02676,-0.67703 -0.72153,-0.21612 -1.42474,-0.52895 -1.56267,-0.69516 -0.29818,-0.35927 -0.32379,-0.33549 2.59183,-2.40711 1.0522,-0.74761 1.07021,-0.95837 0.0515,-0.60326 -0.38157,0.13301 -1.15062,-0.0906 -1.6259,0.11408 l -0.93213,-0.12777 0.12139,0.74807 c 0.15334,0.94491 -0.24924,1.42112 -1.9112,2.26078 -0.77937,0.39376 -1.34518,0.85031 -1.5538,1.25373 -0.21393,0.41372 -0.43924,0.59182 -0.64753,0.5119 -0.7683,-0.29483 0.15711,-1.4813 1.80776,-2.31774 0.6073,-0.30775 1.15941,-0.70346 1.22691,-0.87937 0.13526,-0.35248 -0.32726,-2.22486 -0.54294,-2.19793 -0.0743,0.009 -0.18329,-0.002 -0.24216,-0.0248 -0.80401,-0.31346 -2.32783,-0.4401 -2.47281,-0.20552 -0.15427,0.24961 0.34985,1.90922 0.57994,1.90922 0.0991,0 0.1802,0.1445 0.1802,0.32113 0,0.33418 -0.59036,0.43039 -0.96514,0.15728 -0.34731,-0.25308 -0.98982,-2.29668 -0.84265,-2.68018 0.29041,-0.75681 1.50232,-0.79933 4.44257,-0.15585 2.56677,0.56174 2.75308,-0.026 3.91208,-0.62731 l 0.5333,-0.80585 -0.28053,-57.652334 c -0.0717,-0.47099 -0.18844,-1.482532 -0.25943,-2.247887 -0.071,-0.765346 -0.16872,-1.728728 -0.2172,-2.140838 -0.0485,-0.41211 -0.14532,-1.279156 -0.21519,-1.926757 -0.10534,-0.976377 -0.56865,-3.329534 -0.82194,-4.174637 -0.40926,-1.365483 -2.25517,-3.604408 -3.3063,-4.010246 -1.53227,-0.591607 -2.8359,-0.158467 -2.8359,0.942237 0,0.979457 -0.4412,2.358719 -0.93003,2.907444 -0.57106,0.641022 -0.92041,0.61678 -0.49382,-0.03423 0.18594,-0.28378 0.38311,-0.741388 0.43814,-1.016899 0.055,-0.275519 0.16687,-0.81404 0.24852,-1.196713 0.19615,-0.919318 -0.11617,-0.89248 -0.9732,0.08362 -0.67819,0.772418 -0.68302,0.794014 -0.53826,2.408453 0.17815,1.98695 0.16615,1.759081 0.11959,2.271297 -0.0358,0.393216 -0.0551,0.387875 -0.23694,-0.06546 -0.10891,-0.271481 -0.22019,-0.784579 -0.2473,-1.140219 -0.071,-0.932435 -0.32064,-0.959816 -0.83302,-0.09138 -0.75125,1.273266 -0.87843,0.850249 -0.15774,-0.524638 0.37089,-0.707549 0.61085,-1.349947 0.53324,-1.427552 -0.14949,-0.149496 -0.94924,0.202835 -1.87839,0.827521 -0.39071,0.262678 -0.60292,0.642163 -0.70055,1.252764 -0.10958,0.685241 -0.39926,1.133066 -1.33069,2.057076 -0.65485,0.649632 -1.13823,1.233545 -1.07418,1.297588 0.18104,0.181045 -0.50299,1.411774 -1.01354,1.823584 -0.25222,0.203441 -0.65125,0.371669 -0.88674,0.373854 -0.3344,0.0032 -0.27421,-0.08991 0.27479,-0.424635 0.77349,-0.471598 1.01685,-0.890237 0.81828,-1.407688 -0.11251,-0.293174 -0.26838,-0.261683 -1.14685,0.231672 -1.84926,1.03856 -3.45492,1.602633 -3.97073,1.394936 -0.29634,-0.119324 -0.35207,-0.200698 -0.15014,-0.219236 0.89742,-0.08238 1.46409,-0.278205 2.55338,-0.882363 0.6562,-0.363966 1.57845,-0.867743 2.04944,-1.119506 0.47098,-0.251771 1.40057,-0.992584 2.06575,-1.646261 1.00551,-0.988126 1.1912,-1.283769 1.10139,-1.753586 -0.0834,-0.436102 0.0559,-0.732553 0.6103,-1.298763 0.39507,-0.403516 0.91985,-0.796199 1.16615,-0.872622 0.4565,-0.141639 1.58433,-1.202013 1.27848,-1.202013 -0.0924,0 -0.78819,0.433528 -1.54616,0.963383 -1.40932,0.985189 -2.08618,1.288445 -1.16672,0.522734 0.86109,-0.717105 0.30676,-0.736969 -0.83088,-0.02978 -1.02631,0.637996 -1.48327,0.652342 -0.69804,0.02193 0.3599,-0.288935 0.73925,-0.481 3.58591,-1.815503 1.34251,-0.62936 2.78192,-1.755184 1.92354,-1.504487 -0.23726,0.06929 -0.89669,0.180712 -1.46539,0.247599 -1.37638,0.161873 -2.04987,0.436937 -2.19175,0.895156 -0.19936,0.643807 -0.42664,0.990895 -0.71093,1.085661 -0.21356,0.0712 -0.22025,-0.0081 -0.0307,-0.361903 0.29017,-0.542208 0.26703,-0.546723 -0.59595,-0.116215 -0.41072,0.204897 -0.72986,0.561111 -0.81515,0.909857 -0.15085,0.616829 -0.42795,0.885778 -0.91797,0.890981 -0.23465,0.0024 -0.21954,-0.06182 0.0631,-0.268464 0.20439,-0.149455 0.38897,-0.502101 0.41019,-0.783648 0.0265,-0.35276 0.32308,-0.683761 0.95379,-1.064722 0.83587,-0.504886 1.16045,-0.881004 0.75467,-0.874485 -0.1977,0.0032 -1.82517,0.925853 -2.32276,1.316875 -0.3977,0.312521 -2.19169,2.111952 -3.5402,3.550963 -0.46896,0.500419 -0.99573,0.90985 -1.17061,0.90985 -0.17488,0 0.2162,-0.521513 0.86908,-1.15892 1.79946,-1.756822 1.56805,-2.061146 -0.76363,-1.004268 -1.52034,0.689125 -2.2759,0.87818 -2.24468,0.561662 0.0114,-0.115496 0.11704,-0.213167 0.23478,-0.217051 0.11776,-0.004 0.57536,-0.133629 1.0169,-0.288311 0.90804,-0.318096 1.09597,-0.78216 0.25138,-0.620705 -0.34147,0.0653 -0.47534,0.02929 -0.35157,-0.09445 0.10992,-0.109921 0.52666,-0.243914 0.92609,-0.297762 1.15891,-0.15622 1.31585,-0.20298 2.33185,-0.694806 1.00419,-0.486105 2.35493,-1.53406 2.35493,-1.827047 0,-0.09327 -0.90379,-0.105147 -2.00841,-0.0264 -1.37044,0.0977 -2.05448,0.06862 -2.15348,-0.09156 -0.0961,-0.155574 0.16601,-0.240255 0.77742,-0.251111 0.50738,-0.009 1.11517,-0.05853 1.35067,-0.110055 0.23549,-0.05152 1.34338,-0.132379 2.46196,-0.179686 1.11859,-0.04731 2.46732,-0.193486 2.99718,-0.324837 0.52985,-0.131353 1.20422,-0.285941 1.49858,-0.343532 0.29438,-0.05759 0.82423,-0.161065 1.17747,-0.229944 0.64256,-0.125295 1.66998,-0.515643 2.67605,-1.016715 0.37117,-0.184857 0.52532,-0.426661 0.50295,-0.7889 -0.14381,-2.32869 -0.33242,-2.681893 -1.54924,-2.901315 -0.86192,-0.155426 -1.04638,-0.195426 -2.27201,-0.492687 -0.47099,-0.114231 -1.09718,-0.252177 -1.39155,-0.306547 -1.08713,-0.200794 -3.09225,-1.072047 -3.57252,-1.552304 -0.27229,-0.272296 -0.49507,-0.677209 -0.49507,-0.899804 0,-0.507916 -0.57422,-1.037259 -1.46027,-1.346134 -0.74441,-0.259501 -1.11137,-1.067833 -0.70634,-1.555869 0.29578,-0.356389 0.0984,-0.566254 -0.5325,-0.566254 -0.55985,0 -0.85945,-0.331242 -0.44384,-0.490727 0.15397,-0.05908 0.56285,-0.06874 0.90863,-0.02145 l 0.62868,0.08598 -0.64225,-0.245593 c -1.14071,-0.4362 -1.84865,-1.050715 -1.77806,-1.543413 0.036,-0.251059 0.24538,-0.490802 0.46539,-0.53276 0.26247,-0.05005 0.34676,0.0098 0.24517,0.174225 -0.0859,0.139039 0.0576,0.476675 0.32266,0.758768 0.39999,0.425768 0.77779,0.593135 1.9223,0.851594 1.24001,0.280025 1.6494,0.452473 2.06807,0.871142 0.27552,0.275518 0.50094,0.632488 0.50094,0.793265 0,0.584705 1.51507,2.041408 2.8288,2.719818 3.71603,1.918961 7.47221,0.237727 5.31524,-2.379055 -0.70348,-0.853444 -1.25368,-1.118991 -3.04634,-1.470281 -0.66978,-0.13125 -1.53682,-0.468009 -1.92676,-0.748354 -1.60558,-1.154333 -3.11487,-2.007638 -3.93976,-2.227418 -0.87534,-0.233225 -1.77924,-0.969729 -1.51474,-1.234227 0.077,-0.07705 0.31099,0.01456 0.51986,0.203584 0.20887,0.189026 0.70113,0.400299 1.09391,0.469495 0.39277,0.0692 1.09958,0.322454 1.57068,0.562791 0.53901,0.274986 0.79649,0.331929 0.69456,0.153605 -0.3683,-0.644297 -0.81687,-1.015728 -1.37463,-1.138232 -1.22955,-0.270054 -1.96772,-1.701332 -1.24842,-2.420629 0.37981,-0.379806 0.66697,-0.311754 0.49686,0.117747 -0.38432,0.970406 -0.31648,1.148894 0.59373,1.56211 0.49521,0.224821 1.04612,0.41088 1.22423,0.413466 0.1781,0.0026 0.51529,0.265105 0.74929,0.583375 0.9161,1.245996 1.70738,2.040714 2.23193,2.24163 0.75882,0.290646 2.29949,0.463119 2.71448,0.303874 0.48481,-0.186037 0.0385,-0.686511 -1.08357,-1.215192 -1.49253,-0.7032 -2.13248,-1.390739 -2.13365,-2.292306 -5.7e-4,-0.436779 0.0751,-0.956523 0.16804,-1.154988 0.27574,-0.588483 -1.759,-1.66882 -3.33431,-1.770338 -0.0824,-0.0053 -0.27509,-0.136437 -0.42816,-0.291389 -0.6564,-0.664474 2.7869,0.113177 3.91752,0.884749 0.67126,0.458095 0.72329,0.573256 0.66638,1.475102 -0.0541,0.857147 0.0267,1.072011 0.65304,1.736086 0.39312,0.41683 1.14343,0.925758 1.66735,1.130952 0.59673,0.233707 1.43245,0.873806 2.23711,1.713453 1.61184,1.681956 2.10733,1.880163 4.17463,1.669957 0.8831,-0.0898 1.6538,-0.173719 1.71268,-0.186499 0.83916,-0.182162 1.2845,-0.378733 1.2845,-0.566978 0,-0.126953 0.4711,-0.654379 1.04688,-1.172058 1.34015,-1.204913 1.50293,-1.8058 0.78361,-2.892754 -0.58795,-0.888454 -0.68678,-1.806006 -0.30752,-2.854856 0.26676,-0.737684 -0.0116,-1.548079 -0.98945,-2.881444 -0.58088,-0.792003 -0.77562,-2.493317 -0.26591,-2.323099 0.15849,0.05293 0.2399,0.358963 0.19968,0.75058 -0.052,0.506807 0.1032,0.852552 0.66488,1.480583 1.06194,1.187404 1.24442,1.642451 1.25149,3.12094 0.007,1.357429 0.14255,1.799692 0.73638,2.393516 0.79783,0.797834 2.28149,-0.9659 2.57445,-3.060454 0.12594,-0.900333 -0.0355,-1.154035 -1.28537,-2.019274 -0.71358,-0.494009 -0.70363,-1.00229 0.0331,-1.692095 0.66015,-0.618078 1.55211,-0.970781 1.55211,-0.613742 0,0.125681 -0.0823,0.228511 -0.18283,0.228511 -0.31813,0 -1.31576,1.036405 -1.31576,1.366897 0,0.174308 0.1932,0.37824 0.42933,0.453184 0.23612,0.07494 0.71781,0.379013 1.07041,0.67571 0.7701,0.647995 0.81147,1.223682 0.21294,2.963353 -0.51756,1.504291 -0.51568,1.391547 -0.0231,1.391547 0.22275,0 0.89002,-0.436069 1.48282,-0.969042 1.14843,-1.03254 1.439,-1.720449 1.35861,-3.216437 -0.0369,-0.686307 0.066,-0.972999 0.49347,-1.37455 0.59084,-0.555066 1.02197,-0.455781 0.4602,0.105982 -0.38887,0.388883 -0.4672,1.500732 -0.1208,1.714823 0.1242,0.07675 1.05221,-0.354337 2.06224,-0.957985 1.01003,-0.603649 1.88786,-1.046115 1.95071,-0.98326 0.13845,0.138452 0.25844,0.03974 -1.56271,1.285576 -1.99041,1.361625 -2.15736,1.519282 -2.6384,2.491556 -0.37751,0.763031 -0.38168,0.832917 -0.0497,0.832917 0.83409,0 2.7967,-0.742079 4.34447,-1.64268 0.91104,-0.530105 1.77771,-0.9234 1.92594,-0.873991 0.29512,0.09837 -0.82027,0.855894 -2.55332,1.734096 -0.60818,0.308192 -1.16646,0.658519 -1.24061,0.778504 -0.28122,0.455011 1.00771,0.195373 2.10536,-0.424098 0.82524,-0.465743 1.39801,-0.635805 2.08407,-0.618795 l 0.94607,0.02346 -0.93985,0.184582 c -0.5169,0.101521 -1.09494,0.320194 -1.2845,0.485939 -0.81059,0.708738 -1.74483,0.995239 -3.24533,0.995239 -0.84172,0 -1.83396,0.131412 -2.20499,0.292026 -0.37103,0.160615 -0.91545,0.39494 -1.20982,0.520722 l -0.53521,0.228694 0.55471,0.01449 c 0.30509,0.0079 1.02762,-0.128975 1.60563,-0.304321 1.75969,-0.53382 2.27219,-0.350747 0.62276,0.222458 -1.08736,0.377872 -1.95681,0.521295 -3.16838,0.522651 -2.15129,0.0024 -2.73264,0.300883 -3.34115,1.715416 -0.55342,1.286439 -0.46095,1.731083 0.51473,2.47527 0.86022,0.656125 3.26488,1.084495 4.21958,0.751684 0.32877,-0.114608 0.59776,-0.163263 0.59776,-0.108122 0,0.20931 1.84567,-0.836222 2.41029,-1.365373 0.50616,-0.474364 0.57024,-0.662272 0.44824,-1.314473 -0.0783,-0.418543 -0.28639,-0.866704 -0.46245,-0.995913 -0.21428,-0.157252 -0.24349,-0.282278 -0.0884,-0.378139 0.12745,-0.07877 0.2924,-0.04504 0.36655,0.07494 0.0907,0.1467 0.2778,0.141637 0.57134,-0.01545 0.31087,-0.166373 0.40782,-0.383678 0.33684,-0.754983 -0.0549,-0.286753 -0.0163,-0.572924 0.0857,-0.635937 0.10195,-0.06301 0.18537,0.07811 0.18537,0.313602 0,0.697645 0.32296,0.694554 0.98414,-0.0094 0.67057,-0.713972 2.49576,-1.672604 3.1905,-1.675724 0.23549,-0.0011 -0.16624,0.279281 -0.89274,0.622973 -1.69164,0.800291 -3.49599,2.501392 -3.49599,3.295967 0,0.484367 0.0924,0.57438 0.58874,0.573373 1.14872,-0.0023 2.21411,-0.453499 2.93383,-1.24242 0.39648,-0.434602 1.163,-1.299175 1.70337,-1.921272 0.54039,-0.622099 0.98251,-1.027469 0.98251,-0.900822 0,0.126646 -0.0981,0.346622 -0.21806,0.488835 -1.04124,1.234717 -1.09748,1.330504 -0.81527,1.388437 0.15928,0.0327 0.82856,-0.125983 1.48728,-0.352619 0.65873,-0.226636 1.31559,-0.339204 1.45968,-0.250152 0.15911,0.09834 -0.0601,0.214562 -0.55822,0.29599 -1.02756,0.16797 -3.28332,1.228986 -3.71034,1.745182 -0.34243,0.413943 -1.4707,0.948595 -2.33104,1.104604 -0.79934,0.144949 -2.80698,1.616629 -2.80698,2.057634 0,0.605478 5.05021,-0.906833 6.71858,-2.01191 0.53854,-0.356717 1.21588,-0.929894 1.50519,-1.273729 0.28933,-0.343834 0.64749,-0.625153 0.79594,-0.625153 0.14845,0 -0.0621,0.344887 -0.46787,0.766414 l -0.73776,0.766414 0.85633,-0.152076 c 0.47098,-0.08364 0.97676,-0.247648 1.12394,-0.364459 0.36167,-0.287037 0.34126,0.01105 -0.0259,0.378208 -0.32486,0.324865 -2.42447,1.452925 -2.92241,1.570127 -0.17406,0.04098 -0.55732,0.117007 -0.85169,0.168969 -0.29436,0.05196 -0.72789,0.158213 -0.96338,0.236111 -0.23549,0.07789 -0.47634,0.15005 -0.53521,0.160338 -1.32352,0.231289 -1.83523,0.856843 -0.53521,0.654295 0.41211,-0.06421 1.0955,-0.170971 1.51865,-0.237249 0.42315,-0.06628 1.31427,-0.415582 1.98028,-0.776231 0.66601,-0.360647 1.69261,-0.797404 2.28135,-0.970568 0.58872,-0.173165 1.43061,-0.51536 1.87083,-0.760434 0.44024,-0.245075 0.85015,-0.39586 0.91093,-0.33508 0.0608,0.06078 -0.39574,0.391012 -1.0145,0.733849 l -1.12501,0.62334 1.25808,0.06501 c 0.69195,0.03576 1.559,-0.04449 1.92676,-0.178321 0.36777,-0.133833 0.95768,-0.289944 1.31092,-0.346913 0.62273,-0.100433 0.62857,-0.09369 0.19201,0.221951 -0.24763,0.179042 -0.68115,0.373212 -0.96337,0.431488 -0.28223,0.05827 -0.75399,0.163542 -1.04835,0.233922 -0.29437,0.07038 -1.41135,0.121914 -2.48218,0.114518 -1.58788,-0.01096 -2.04193,0.06026 -2.46196,0.386252 -0.28326,0.219834 -0.65951,0.454648 -0.83613,0.521808 -0.17662,0.06716 0.30507,0.14618 1.07041,0.1756 0.76536,0.02942 1.72873,0.06814 2.14085,0.08604 1.07181,0.04657 4.28167,0.565677 4.28167,0.692454 0,0.132255 -3.19603,-0.121254 -3.44154,-0.272983 -0.30483,-0.1884 -1.2683,0.148642 -1.2683,0.44368 0,0.263004 1.32917,0.887577 2.25827,1.061151 0.22978,0.04292 0.44187,0.09746 0.4713,0.12119 0.0294,0.02372 0.12577,0.0577 0.21408,0.07549 0.0883,0.01779 0.35324,0.156117 0.58874,0.307388 0.40565,0.260577 0.40003,0.269722 -0.10705,0.173946 -0.61468,-0.116106 -1.11131,-0.2446 -2.0712,-0.535901 -0.37382,-0.113441 -0.72335,-0.162571 -0.77674,-0.109175 -0.0534,0.05339 -0.41442,-0.220338 -0.80228,-0.608297 -0.67432,-0.674507 -0.78556,-0.708064 -2.54156,-0.766708 -2.02567,-0.06765 -2.0285,-0.0464 -0.14308,1.072957 0.54052,0.320903 0.98276,0.689163 0.98276,0.818353 0,0.129192 -0.25555,0.03388 -0.56789,-0.211811 -0.83008,-0.652936 -0.90488,-0.334205 -0.11325,0.482549 0.37463,0.386516 0.68114,0.816547 0.68114,0.955623 0,0.139077 -0.50656,-0.270126 -1.12569,-0.909338 -0.61912,-0.639214 -1.48273,-1.311394 -1.91914,-1.493736 -1.05161,-0.439391 -3.73951,-0.809811 -4.55084,-0.627153 -0.64586,0.145406 -0.64524,0.146194 0.56122,0.717925 0.79325,0.37591 1.63177,0.589511 2.44306,0.622334 1.45726,0.05895 2.21449,0.405448 2.95561,1.352426 0.75054,0.959007 0.53849,1.007194 -0.50431,0.114599 -0.92272,-0.789812 -1.62617,-1.019426 -3.07821,-1.004773 l -0.88309,0.0089 0.85633,0.76562 c 0.73051,0.65312 0.7777,0.742805 0.32112,0.610355 -0.29436,-0.08539 -0.92901,-0.534999 -1.41035,-0.99912 -0.97884,-0.943851 -2.38074,-1.4651 -3.94037,-1.4651 -0.83553,0 -1.09281,0.10302 -1.55623,0.623131 -1.19914,1.345832 -1.55953,2.599989 -1.05131,3.658552 0.44547,0.927861 1.17394,1.064856 2.454,0.461491 0.4958,-0.233698 1.33498,-0.478075 1.86484,-0.543059 l 0.96337,-0.118153 -0.96337,0.313774 c -1.64081,0.534415 -1.63034,0.528545 -1.30336,0.730633 0.33553,0.20737 0.94165,0.04805 2.58786,-0.680256 0.67381,-0.2981 1.68111,-0.54413 2.35492,-0.575181 1.36412,-0.06286 1.33893,0.181151 -0.034,0.329042 -0.51117,0.05506 -1.4131,0.333102 -2.00427,0.617859 -1.03624,0.49913 -3.04406,1.041557 -3.44203,0.929886 -0.43824,-0.122969 -1.79858,0.286428 -1.79858,0.541286 0,0.151388 0.23315,0.400032 0.51812,0.552541 0.69837,0.373756 1.74149,0.153459 3.38969,-0.715865 0.73549,-0.387923 1.67142,-0.770649 2.07985,-0.850503 0.93329,-0.182468 0.62007,0.145905 -0.47201,0.494849 -0.43992,0.140561 -0.86516,0.361246 -0.94499,0.490411 -0.0986,0.159536 -0.0138,0.178838 0.26463,0.06019 0.22537,-0.09606 0.79512,-0.143239 1.26611,-0.104845 0.47098,0.03839 1.57886,0.06172 2.46196,0.05184 l 1.60563,-0.01796 -1.0621,0.320177 c -0.87992,0.265255 -1.26972,0.276121 -2.27235,0.06335 -0.91217,-0.193577 -1.32284,-0.196564 -1.66746,-0.01212 -0.25148,0.134586 -0.45724,0.181347 -0.45724,0.103914 0,-0.07743 -0.1445,-0.02085 -0.32112,0.125724 -0.17662,0.14658 -0.32113,0.203157 -0.32113,0.125723 0,-0.07744 -0.21065,-0.02805 -0.46812,0.109744 -0.25747,0.137792 -0.81141,0.295754 -1.23099,0.351029 -1.0491,0.138208 -1.06095,0.211324 -0.1,0.61695 0.82051,0.346321 1.83773,0.286682 3.6723,-0.215308 1.21962,-0.333722 1.50766,-0.391807 2.44444,-0.492956 0.5807,-0.0627 1.16367,-0.0038 1.39154,0.140615 0.3283,0.208036 0.26521,0.231617 -0.38721,0.144751 -0.67766,-0.09023 -1.13305,-0.02589 -2.753,0.388961 -0.17662,0.04523 -0.51115,0.08961 -0.7434,0.09862 -0.41297,0.01601 -0.41258,0.02317 0.0174,0.32437 0.24184,0.169396 0.69771,0.372744 1.01304,0.451884 0.31533,0.07914 0.61923,0.218195 0.67536,0.309005 0.0562,0.09081 -0.56894,-0.01105 -1.38904,-0.226359 -0.82009,-0.215309 -2.17089,-0.41132 -3.00176,-0.435582 -0.83087,-0.02426 -1.56209,-0.127319 -1.62495,-0.229017 -0.0629,-0.101698 -0.20553,-0.128508 -0.31707,-0.05958 -0.32231,0.1992 -0.053,0.462526 1.53035,1.496083 0.81682,0.5332 1.48511,1.079241 1.48511,1.21342 0,0.134182 -0.24083,0.0177 -0.5352,-0.258838 -0.62015,-0.582602 -0.65561,-0.488491 -0.21409,0.56823 0.17662,0.422709 0.32113,1.06187 0.32113,1.42035 0,0.74587 -0.14161,0.712963 -0.28686,-0.06667 -0.13323,-0.715204 -1.18783,-2.778287 -1.42017,-2.778287 -0.10225,0 -0.62933,-0.443415 -1.17128,-0.985369 -0.8142,-0.814209 -1.04026,-0.939808 -1.3014,-0.72308 -0.4968,0.412305 -0.37907,0.85666 0.50575,1.908754 1.04734,1.245365 1.31985,1.766264 1.31577,2.515193 -0.002,0.467867 -0.0498,0.530923 -0.2108,0.281677 -0.11415,-0.176619 -0.209,-0.498606 -0.21081,-0.715528 -0.002,-0.216921 -0.18367,-0.623731 -0.40415,-0.904028 -0.94426,-1.200422 -1.77493,-2.056272 -1.88701,-1.944192 -0.0663,0.06635 0.04,0.522013 0.23624,1.012581 0.19629,0.490567 0.31179,0.937038 0.25667,0.992155 -0.22245,0.222447 -0.77403,-1.259788 -0.77403,-2.080006 0,-1.171464 -0.68708,-1.827315 -1.98468,-1.894484 -0.81944,-0.04241 -1.05455,0.05496 -1.8402,0.762158 -0.49541,0.445936 -0.95408,1.051635 -1.01926,1.346001 0.65479,1.739215 0.19901,73.170765 0.19901,73.170765 l 0.90257,0.94197 c 0.78472,0.81897 1.00608,0.935 1.69533,0.88858 0.88949,-0.0599 0.95926,-0.12238 1.0251,-0.91792 0.0672,-0.81205 0.63448,-1.21917 1.81175,-1.30025 0.56653,-0.039 1.21538,-0.14252 1.44188,-0.22999 0.32077,-0.12388 0.38309,-0.0842 0.28185,0.17963 -0.0909,0.23686 0.0276,0.37821 0.39429,0.47023 0.75617,0.18979 1.27828,0.69771 2.25266,2.19142 0.87393,1.33974 1.16045,1.57186 2.11853,1.71631 0.84672,0.12765 1.10778,0.26207 0.96326,0.49591 -0.20371,0.32961 -2.46185,-0.11163 -2.46185,-0.48104 0,-0.12802 -0.0702,-0.16252 -0.15608,-0.0767 -0.24409,0.24409 1.22702,1.41387 1.77808,1.41387 0.49738,0 0.88428,0.34817 0.6487,0.58375 -0.22492,0.22492 -1.80329,-0.36429 -2.46308,-0.91946 -0.36749,-0.30922 -0.83356,-1.05859 -1.09493,-1.7605 -0.6958,-1.86853 -2.00594,-3.04181 -3.39662,-3.04181 -0.77483,0 -1.31043,0.49025 -1.31043,1.19947 0,0.4932 0.20748,0.68258 0.89315,0.8153 0.88766,0.17181 1.54467,0.72816 2.01759,1.70847 0.28304,0.58672 0.51461,1.19464 0.51461,1.35095 0,0.15631 0.30769,0.47133 0.68375,0.70002 0.56601,0.34422 0.62102,0.43989 0.31948,0.5556 -0.70294,0.26975 -1.73015,-0.76969 -1.9822,-2.00577 -0.1144,-0.56107 -0.75383,-1.32628 -1.37797,-1.64903 -0.35213,-0.18209 -0.64024,-0.26864 -0.64024,-0.19233 0,0.0763 -0.14503,0.0184 -0.32228,-0.12871 -0.20438,-0.16962 -0.62085,-0.21974 -1.13834,-0.13698 -0.44884,0.0718 -1.12268,0.0426 -1.49743,-0.0649 -1.13154,-0.32453 -0.7761,-0.0416 1.06839,0.85035 0.96238,0.46539 1.98331,1.06404 2.26872,1.33033 0.72977,0.68084 1.39713,2.05549 1.20648,2.48518 -0.0863,0.19464 -0.16533,0.42615 -0.1755,0.51446 -0.0102,0.0883 -0.0907,0.16056 -0.17906,0.16056 h -0.46639 c -0.16821,0 -0.46916,-0.16332 -0.66878,-0.36295 -0.3412,-0.3412 -0.32609,-0.39314 0.25232,-0.86701 l 0.61526,-0.50407 -0.94683,-0.82982 c -0.52075,-0.4564 -1.33963,-0.99648 -1.81972,-1.20019 -0.48009,-0.20371 -1.3955,-0.60697 -2.03424,-0.89615 -1.55518,-0.70406 -2.62931,-0.56027 -4.14165,0.55446 -0.61573,0.45386 -1.33628,0.94051 -1.60121,1.08144 -0.26493,0.14095 -0.48169,0.32718 -0.48169,0.41385 0,0.0867 0.60211,0.34933 1.33803,0.58368 1.04543,0.33292 1.35257,0.52771 1.40454,0.8908 0.0985,0.68817 -0.64869,1.0252 -2.71376,1.22409 -0.90588,0.0873 -1.74149,0.45589 -1.74149,0.76827 0,0.10951 0.299,0.53964 0.66443,0.95585 0.57655,0.65664 0.61024,0.75675 0.25473,0.75675 -0.22534,0 -0.717,-0.30045 -1.0926,-0.66766 z m 12.89393,-2.45947 c 0.18626,-0.0714 0.33864,-0.20745 0.33864,-0.30218 0,-0.26237 -0.71445,-0.10056 -0.80905,0.18323 -0.0942,0.28247 -0.0107,0.30357 0.47041,0.11895 z m -7.26949,-83.629813 c 1.10147,-1.187879 1.1863,-2.395634 0.26792,-3.8141 -1.18197,-1.825593 -4.22033,-0.634083 -4.22033,1.655032 0,2.255752 2.56403,3.656387 3.95241,2.159068 z m -13.49386,-3.670775 c 0.0647,-0.104659 -0.49622,-0.590217 -1.24646,-1.079018 -0.75025,-0.488801 -1.53495,-1.077537 -1.74379,-1.308301 -0.20884,-0.230764 -0.48189,-0.419571 -0.60677,-0.419571 -0.12489,0 -0.68739,-0.45339 -1.24999,-1.007533 -0.74396,-0.732769 -1.08714,-0.943311 -1.25842,-0.772035 -0.40528,0.405282 -0.12093,0.930656 0.76723,1.417579 1.11884,0.613387 1.3425,0.838102 1.51391,1.521064 0.23321,0.929207 3.41983,2.302256 3.82429,1.647815 z m -3.94585,-4.272298 c 0,-0.347733 -0.7826,-0.885103 -1.40559,-0.965133 -0.34551,-0.04439 -0.47695,-0.0411 -0.29209,0.0073 0.18486,0.0484 0.57021,0.318593 0.85634,0.600429 0.54474,0.536591 0.84134,0.662587 0.84134,0.357404 z m 37.25064,-1.676607 0.5352,-0.305556 -0.62481,0.13129 c -0.34365,0.07221 -0.82534,0.278806 -1.07043,0.459102 -0.43733,0.321733 -0.43567,0.324965 0.0896,0.174266 0.29437,-0.08445 0.77606,-0.291047 1.07043,-0.459102 z" id="path899-4" sodipodi:nodetypes="csssssssscssscssccsssssssccsssssssssssssscsssssssscssssssssssssssssssssscsscscsssssssscsssssssssssssssssssssssssscscsscssssssssssssssssssssssscssscssssssssssssssssssssssssssssssssssssssssscsssssccsssssssscsssscssscsscssscssssssssssccsssssssssssssscsssssssssssssssssssssssssssssssssssscsssssssscsssssssssssssssscsssssssssssssssssssssssssssssssscscsssssssccssssssssssscsssssssssssssssscsssssssscsssssssscssscccsscsssscssssssscsssssccssssc"/>
      <path style="fill:none;stroke:#000000;stroke-width:0.865;stroke-linecap:butt;stroke-linejoin:miter;stroke-miterlimit:4;stroke-dasharray:none;stroke-opacity:1;marker-start:url(#DotM-8-5)" d="M 170.95319,76.539094 147.03112,74.925256" id="path1391-06-6" sodipodi:nodetypes="cc"/>
    </g>
    <path style="fill:#800080;fill-opacity:1;stroke:none;stroke-width:0.460243;stroke-linecap:round;stroke-miterlimit:4;stroke-dasharray:none;stroke-opacity:1;paint-order:markers fill stroke" d="m 33.160475,122.57526 c -1.498445,-1.15768 -1.7108,-3.01024 -0.483259,-4.21591 1.31021,-1.28687 2.830196,-1.1075 3.795815,0.44793 0.76249,1.22823 0.664173,2.32932 -0.304767,3.41322 -0.969585,1.08462 -1.918257,1.19651 -3.007789,0.35476 z" id="path910"/>
    <path style="fill:#aaeeff;fill-opacity:1;stroke:#000000;stroke-width:0.376249;stroke-miterlimit:4;stroke-dasharray:none;stroke-opacity:1" d="m 30.326921,246.22209 c -0.926106,-0.90544 -0.886757,-1.33934 0.173438,-1.91253 0.578897,-0.31298 0.73871,-0.35475 2.033798,-0.53157 0.47099,-0.0643 0.984638,-0.24474 1.141449,-0.40096 0.23711,-0.23623 0.06425,-0.35022 -1.026762,-0.67703 -0.721532,-0.21612 -1.424736,-0.52895 -1.56267,-0.69516 -0.298175,-0.35927 -0.323784,-0.33549 2.591835,-2.40711 1.052194,-0.74761 1.070205,-0.95837 0.05154,-0.60326 -0.381572,0.13301 -1.113226,0.18435 -1.625903,0.11408 l -0.932134,-0.12777 0.121395,0.74807 c 0.153331,0.94491 -0.249239,1.42112 -1.911197,2.26078 -0.779369,0.39376 -1.345182,0.85031 -1.553802,1.25373 -0.213936,0.41372 -0.43924,0.59182 -0.647536,0.5119 -0.768291,-0.29483 0.15711,-1.4813 1.807765,-2.31774 0.607298,-0.30775 1.159404,-0.70346 1.226911,-0.87937 0.135255,-0.35248 -0.327264,-2.22486 -0.542947,-2.19793 -0.07428,0.009 -0.183286,-0.002 -0.242159,-0.0248 -0.804007,-0.31346 -2.327821,-0.4401 -2.472803,-0.20552 -0.15427,0.24961 0.349847,1.90922 0.579933,1.90922 0.09911,0 0.180203,0.1445 0.180203,0.32113 0,0.33418 -0.590354,0.43039 -0.965138,0.15728 -0.347306,-0.25308 -0.989817,-2.29668 -0.842652,-2.68018 0.290416,-0.75681 1.502325,-0.79933 4.442574,-0.15585 2.566768,0.56174 3.191502,0.46156 3.912079,-0.62731 l 0.533294,-0.80585 -0.07509,-47.18339 c -0.04127,-25.95091 -0.133742,-47.56879 -0.20544,-48.03978 -0.07169,-0.47098 -0.18844,-1.48253 -0.259425,-2.24788 -0.07096,-0.76535 -0.168722,-1.72873 -0.217205,-2.14084 -0.04847,-0.41211 -0.145313,-1.27916 -0.215182,-1.92676 -0.105341,-0.97637 -0.568653,-3.32953 -0.821945,-4.17463 -0.409262,-1.36549 -2.25517,-3.60441 -3.306295,-4.01025 -1.53227,-0.59161 -2.835903,-0.15847 -2.835903,0.94224 0,0.97945 -0.441198,2.35872 -0.93003,2.90744 -0.571064,0.64102 -0.920409,0.61678 -0.493816,-0.0342 0.185932,-0.28378 0.383102,-0.74139 0.43814,-1.0169 0.05502,-0.27552 0.166868,-0.81404 0.248518,-1.19671 0.196151,-0.91932 -0.116176,-0.89248 -0.973205,0.0836 -0.678187,0.77242 -0.683017,0.79401 -0.538262,2.40845 0.178155,1.98695 0.166156,1.75908 0.11959,2.2713 -0.03576,0.39321 -0.0551,0.38787 -0.23694,-0.0655 -0.108909,-0.27148 -0.22019,-0.78458 -0.247296,-1.14022 -0.07104,-0.93244 -0.320637,-0.95982 -0.833023,-0.0914 -0.751243,1.27327 -0.878431,0.85025 -0.157741,-0.52464 0.370892,-0.70755 0.61085,-1.34995 0.533246,-1.42755 -0.149496,-0.1495 -0.949239,0.20283 -1.878395,0.82752 -0.390708,0.26268 -0.602912,0.64216 -0.700551,1.25276 -0.109573,0.68525 -0.39926,1.13307 -1.33069,2.05708 -0.654842,0.64963 -1.138221,1.23355 -1.074177,1.29759 0.181044,0.18104 -0.502984,1.41177 -1.013541,1.82358 -0.252216,0.20344 -0.65125,0.37167 -0.886741,0.37386 -0.334392,0.003 -0.274209,-0.0899 0.274791,-0.42464 0.773494,-0.4716 1.01685,-0.89024 0.81828,-1.40769 -0.112503,-0.29317 -0.268375,-0.26168 -1.146847,0.23168 -1.849257,1.03856 -3.454916,1.60263 -3.970733,1.39493 -0.296338,-0.11932 -0.352063,-0.2007 -0.150135,-0.21923 0.897421,-0.0824 1.464092,-0.27821 2.553376,-0.88237 0.656202,-0.36396 1.578448,-0.86774 2.049439,-1.1195 0.470982,-0.25177 1.400575,-0.99259 2.06575,-1.64626 1.005514,-0.98813 1.191203,-1.28377 1.101397,-1.75359 -0.08337,-0.4361 0.05591,-0.73255 0.610291,-1.29876 0.395077,-0.40352 0.919851,-0.7962 1.166152,-0.87263 0.456499,-0.14163 1.584331,-1.20201 1.278485,-1.20201 -0.09242,0 -0.788196,0.43353 -1.546163,0.96338 -1.409322,0.98519 -2.086181,1.28845 -1.166719,0.52274 0.861092,-0.71711 0.30676,-0.73697 -0.830878,-0.0298 -1.026317,0.63799 -1.483277,0.65234 -0.698042,0.0219 0.359896,-0.28894 0.739251,-0.481 3.585908,-1.8155 1.342511,-0.62936 2.781917,-1.75519 1.923544,-1.50449 -0.237263,0.0693 -0.896693,0.18071 -1.465395,0.2476 -1.376382,0.16187 -2.049867,0.43693 -2.191749,0.89515 -0.199355,0.64381 -0.426642,0.9909 -0.710932,1.08566 -0.213555,0.0712 -0.220247,-0.008 -0.03067,-0.3619 0.290172,-0.54221 0.267031,-0.54672 -0.595946,-0.11621 -0.410717,0.20489 -0.729857,0.56111 -0.815148,0.90985 -0.150856,0.61683 -0.427953,0.88578 -0.917974,0.89098 -0.23465,0.002 -0.219543,-0.0618 0.06311,-0.26846 0.204396,-0.14945 0.388976,-0.5021 0.410192,-0.78365 0.02654,-0.35276 0.32308,-0.68376 0.953786,-1.06472 0.83587,-0.50489 1.160456,-0.881 0.754674,-0.87448 -0.197705,0.003 -1.82517,0.92585 -2.322765,1.31687 -0.397699,0.31252 -2.191684,2.11195 -3.5402,3.55096 -0.468951,0.50042 -0.995724,0.90985 -1.170602,0.90985 -0.174879,0 0.216201,-0.52151 0.869077,-1.15892 1.799456,-1.75682 1.568051,-2.06114 -0.763631,-1.00426 -1.520343,0.68912 -2.275899,0.87818 -2.244682,0.56166 0.01141,-0.1155 0.117041,-0.21317 0.234787,-0.21705 0.117753,-0.004 0.575353,-0.13363 1.016899,-0.28831 0.908037,-0.3181 1.095967,-0.78216 0.251374,-0.62071 -0.341472,0.0653 -0.475335,0.0293 -0.35157,-0.0945 0.109921,-0.10992 0.526659,-0.24391 0.926089,-0.29776 1.158911,-0.15622 1.315851,-0.20298 2.331852,-0.69481 1.004195,-0.4861 2.354927,-1.53406 2.354927,-1.82704 0,-0.0933 -0.903781,-0.10515 -2.008406,-0.0264 -1.370443,0.0977 -2.05448,0.0686 -2.153477,-0.0916 -0.09615,-0.15558 0.16601,-0.24026 0.777418,-0.25112 0.507377,-0.009 1.115169,-0.0585 1.350668,-0.11005 0.235491,-0.0515 1.343377,-0.13238 2.46196,-0.17969 1.118591,-0.0473 2.467325,-0.19348 2.99718,-0.32483 0.529855,-0.13136 1.204222,-0.28594 1.498586,-0.34354 0.294372,-0.0576 0.824227,-0.16106 1.177464,-0.22994 0.64256,-0.12529 1.669977,-0.51564 2.67605,-1.01671 0.371167,-0.18486 0.525324,-0.42667 0.502951,-0.7889 -0.143808,-2.32869 -0.332417,-2.6819 -1.549238,-2.90132 -0.861924,-0.15543 -1.046383,-0.19542 -2.272015,-0.49269 -0.470982,-0.11423 -1.097181,-0.25217 -1.391545,-0.30654 -1.087132,-0.2008 -3.092254,-1.07205 -3.572517,-1.55231 -0.272291,-0.27229 -0.495079,-0.67721 -0.495079,-0.8998 0,-0.50792 -0.57422,-1.03726 -1.460265,-1.34613 -0.744406,-0.25951 -1.111373,-1.06784 -0.706344,-1.55587 0.29578,-0.35639 0.09842,-0.56626 -0.532493,-0.56626 -0.559858,0 -0.859449,-0.33124 -0.443844,-0.49073 0.153971,-0.0591 0.562852,-0.0687 0.908629,-0.0214 l 0.628683,0.086 -0.642253,-0.24559 c -1.140704,-0.4362 -1.848651,-1.05071 -1.778061,-1.54341 0.03601,-0.25106 0.245386,-0.4908 0.465391,-0.53276 0.262468,-0.05 0.346763,0.01 0.245176,0.17422 -0.08593,0.13904 0.05761,0.47668 0.32266,0.75877 0.399988,0.42577 0.777782,0.59314 1.922298,0.8516 1.24001,0.28002 1.649401,0.45247 2.068065,0.87114 0.275519,0.27552 0.500944,0.63249 0.500944,0.79326 0,0.58471 1.515069,2.04141 2.828799,2.71982 3.716033,1.91896 7.472208,0.23773 5.315236,-2.37905 -0.70348,-0.85345 -1.253677,-1.119 -3.046336,-1.47029 -0.669779,-0.13125 -1.536817,-0.468 -1.926756,-0.74835 -1.605587,-1.15433 -3.114877,-2.00764 -3.93976,-2.22742 -0.87534,-0.23322 -1.779243,-0.96973 -1.514744,-1.23422 0.07703,-0.077 0.310991,0.0146 0.519862,0.20358 0.20887,0.18903 0.701125,0.4003 1.093904,0.46949 0.392771,0.0692 1.099585,0.32246 1.57068,0.5628 0.539015,0.27498 0.796498,0.33192 0.694563,0.1536 -0.368303,-0.6443 -0.816872,-1.01573 -1.374634,-1.13823 -1.229548,-0.27006 -1.967716,-1.70133 -1.248417,-2.42063 0.379809,-0.37981 0.666971,-0.31175 0.496866,0.11775 -0.384323,0.9704 -0.316485,1.14889 0.593721,1.56211 0.495216,0.22482 1.046124,0.41088 1.224232,0.41346 0.178107,0.003 0.51529,0.26511 0.749293,0.58338 0.916096,1.24599 1.707375,2.04071 2.231931,2.24163 0.758816,0.29064 2.299493,0.46312 2.714483,0.30387 0.484803,-0.18604 0.03851,-0.68651 -1.083579,-1.21519 -1.492526,-0.7032 -2.13248,-1.39074 -2.133645,-2.29231 -5.67e-4,-0.43678 0.07509,-0.95652 0.168041,-1.15498 0.275738,-0.58849 -1.758998,-1.66882 -3.334307,-1.77034 -0.08242,-0.005 -0.275098,-0.13644 -0.428163,-0.29139 -0.656404,-0.66448 2.786894,0.11318 3.917517,0.88475 0.67126,0.45809 0.723287,0.57325 0.666381,1.4751 -0.05413,0.85715 0.0267,1.07201 0.653038,1.73609 0.393119,0.41683 1.143431,0.92575 1.667355,1.13095 0.596731,0.2337 1.432448,0.8738 2.237102,1.71345 1.611849,1.68196 2.107332,1.88016 4.174636,1.66996 0.883099,-0.0898 1.653802,-0.17372 1.712675,-0.1865 0.839164,-0.18216 1.284505,-0.37873 1.284505,-0.56698 0,-0.12695 0.471095,-0.65438 1.046877,-1.17206 1.340157,-1.20491 1.502931,-1.8058 0.783616,-2.89275 -0.587951,-0.88846 -0.686787,-1.80601 -0.30752,-2.85486 0.266756,-0.73768 -0.01157,-1.54808 -0.989453,-2.88144 -0.580879,-0.792 -0.775622,-2.49332 -0.265915,-2.3231 0.158494,0.0529 0.239909,0.35896 0.199687,0.75058 -0.05203,0.50681 0.103198,0.85255 0.664876,1.48058 1.061943,1.18741 1.24442,1.64245 1.251492,3.12094 0.0065,1.35743 0.142554,1.79969 0.736379,2.39352 0.797833,0.79783 2.281491,-0.9659 2.574455,-3.06046 0.125934,-0.90033 -0.03552,-1.15403 -1.285379,-2.01927 -0.713578,-0.49401 -0.703625,-1.00229 0.03309,-1.69209 0.66015,-0.61808 1.55211,-0.97079 1.55211,-0.61375 0,0.12568 -0.08226,0.22851 -0.182824,0.22851 -0.318128,0 -1.315762,1.03641 -1.315762,1.3669 0,0.17431 0.193198,0.37824 0.429328,0.45319 0.236123,0.0749 0.71781,0.37901 1.070415,0.67571 0.770096,0.64799 0.811467,1.22368 0.212933,2.96335 -0.517556,1.50429 -0.515679,1.39155 -0.02314,1.39155 0.222756,0 0.890027,-0.43607 1.482824,-0.96905 1.148433,-1.03254 1.439002,-1.72045 1.358606,-3.21643 -0.0369,-0.68631 0.06602,-0.973 0.493476,-1.37455 0.590836,-0.55507 1.021968,-0.45578 0.460201,0.10598 -0.388876,0.38888 -0.4672,1.50073 -0.120804,1.71482 0.124202,0.0767 1.052209,-0.35433 2.062246,-0.95798 1.01003,-0.60365 1.887854,-1.04612 1.950708,-0.98326 0.138451,0.13845 0.258438,0.0397 -1.56271,1.28557 -1.990412,1.36163 -2.157361,1.51928 -2.638405,2.49156 -0.377511,0.76303 -0.381678,0.83292 -0.04968,0.83292 0.834094,0 2.796704,-0.74208 4.344469,-1.64268 0.91104,-0.53011 1.777714,-0.9234 1.92594,-0.874 0.295125,0.0984 -0.820262,0.8559 -2.553312,1.7341 -0.608187,0.30819 -1.166468,0.65852 -1.240617,0.7785 -0.281215,0.45502 1.007715,0.19538 2.105358,-0.42409 0.825246,-0.46575 1.39801,-0.63581 2.084077,-0.6188 l 0.946067,0.0235 -0.939845,0.18458 c -0.516909,0.10152 -1.09494,0.3202 -1.284504,0.48594 -0.810593,0.70874 -1.744831,0.99524 -3.245334,0.99524 -0.841713,0 -1.833957,0.13141 -2.204983,0.29203 -0.371038,0.16061 -0.915457,0.39494 -1.209821,0.52072 l -0.535212,0.22869 0.554712,0.0145 c 0.305085,0.008 1.02762,-0.12897 1.605623,-0.30432 1.759694,-0.53382 2.272193,-0.35074 0.62276,0.22246 -1.087355,0.37787 -1.956804,0.5213 -3.168373,0.52265 -2.151293,0.002 -2.732641,0.30088 -3.341153,1.71542 -0.553417,1.28644 -0.460949,1.73108 0.514733,2.47527 0.860217,0.65612 3.264875,1.08449 4.219575,0.75168 0.328769,-0.11461 0.597758,-0.16326 0.597758,-0.10812 0,0.20931 1.845677,-0.83622 2.410293,-1.36537 0.506163,-0.47437 0.570239,-0.66228 0.448245,-1.31448 -0.07832,-0.41854 -0.286393,-0.8667 -0.462454,-0.99591 -0.214275,-0.15725 -0.243493,-0.28228 -0.08839,-0.37814 0.127447,-0.0788 0.292398,-0.045 0.366547,0.0749 0.09066,0.1467 0.277801,0.14164 0.57134,-0.0155 0.31087,-0.16637 0.407821,-0.38368 0.336844,-0.75498 -0.05486,-0.28675 -0.01626,-0.57293 0.08571,-0.63594 0.101952,-0.063 0.185374,0.0781 0.185374,0.3136 0,0.69765 0.322958,0.69456 0.984136,-0.009 0.670573,-0.71397 2.495759,-1.6726 3.190499,-1.67572 0.235492,-0.001 -0.166237,0.27928 -0.892736,0.62297 -1.691646,0.80029 -3.495989,2.50139 -3.495989,3.29597 0,0.48437 0.09243,0.57438 0.588736,0.57337 1.148723,-0.002 2.214114,-0.4535 2.933833,-1.24242 0.396477,-0.4346 1.162996,-1.29917 1.70337,-1.92127 0.540382,-0.6221 0.982503,-1.02747 0.982503,-0.90082 0,0.12664 -0.09812,0.34662 -0.218055,0.48883 -1.041237,1.23472 -1.09748,1.33051 -0.81527,1.38844 0.159279,0.0327 0.828556,-0.12598 1.487283,-0.35262 0.658726,-0.22663 1.315583,-0.3392 1.459674,-0.25015 0.159109,0.0983 -0.06012,0.21456 -0.558223,0.29599 -1.027555,0.16797 -3.283315,1.22899 -3.710337,1.74518 -0.342427,0.41394 -1.470695,0.9486 -2.331034,1.10461 -0.799346,0.14494 -2.806984,1.61662 -2.806984,2.05763 0,0.60548 5.05021,-0.90683 6.718578,-2.01191 0.538537,-0.35672 1.215881,-0.92989 1.505196,-1.27373 0.289323,-0.34383 0.647488,-0.62515 0.79594,-0.62515 0.148444,0 -0.06206,0.34488 -0.467875,0.76641 l -0.737763,0.76642 0.856334,-0.15208 c 0.470982,-0.0836 0.976757,-0.24765 1.123939,-0.36446 0.361668,-0.28704 0.341262,0.011 -0.02589,0.37821 -0.324861,0.32486 -2.424473,1.45292 -2.922408,1.57013 -0.174062,0.041 -0.557325,0.117 -0.851689,0.16896 -0.294364,0.052 -0.727892,0.15822 -0.963383,0.23612 -0.235491,0.0779 -0.476339,0.15005 -0.535211,0.16033 -1.323522,0.23129 -1.835228,0.85685 -0.535204,0.6543 0.41211,-0.0642 1.095498,-0.17097 1.518645,-0.23725 0.423146,-0.0663 1.314272,-0.41558 1.980281,-0.77623 0.666008,-0.36065 1.692609,-0.79741 2.281345,-0.97057 0.588728,-0.17316 1.43061,-0.51536 1.870837,-0.76043 0.440235,-0.24508 0.850152,-0.39586 0.910926,-0.33508 0.06077,0.0608 -0.39574,0.39101 -1.014503,0.73385 l -1.125008,0.62334 1.258086,0.065 c 0.69195,0.0358 1.558996,-0.0445 1.926757,-0.17833 0.367769,-0.13383 0.957678,-0.28994 1.310923,-0.34691 0.622728,-0.10043 0.62857,-0.0937 0.192008,0.22195 -0.247628,0.17904 -0.681147,0.37321 -0.963374,0.43149 -0.282227,0.0583 -0.753986,0.16354 -1.04835,0.23392 -0.294364,0.0704 -1.411345,0.12192 -2.482173,0.11452 -1.587882,-0.011 -2.041937,0.0603 -2.461968,0.38625 -0.283255,0.21984 -0.659511,0.45465 -0.83613,0.52181 -0.176618,0.0672 0.305069,0.14618 1.070415,0.1756 0.765355,0.0294 1.728729,0.0681 2.140847,0.086 1.071815,0.0466 4.281676,0.56568 4.281676,0.69245 0,0.13226 -3.196033,-0.12125 -3.441542,-0.27298 -0.304834,-0.1884 -1.268305,0.14864 -1.268305,0.44368 0,0.26301 1.329177,0.88758 2.258268,1.06115 0.229787,0.0429 0.44187,0.0975 0.471306,0.12119 0.02945,0.0237 0.125772,0.0577 0.214081,0.0755 0.08831,0.0178 0.353237,0.15612 0.588736,0.30739 0.405653,0.26058 0.40003,0.26972 -0.107048,0.17395 -0.614685,-0.11611 -1.111309,-0.2446 -2.071204,-0.5359 -0.373813,-0.11345 -0.723344,-0.16258 -0.776739,-0.10918 -0.0534,0.0534 -0.414416,-0.22034 -0.802275,-0.6083 -0.674327,-0.6745 -0.785567,-0.70806 -2.541564,-0.7667 -2.025665,-0.0677 -2.028497,-0.0464 -0.143079,1.07295 0.540519,0.32091 0.982761,0.68917 0.982761,0.81836 0,0.12919 -0.25555,0.0339 -0.567893,-0.21182 -0.830077,-0.65293 -0.904873,-0.3342 -0.113246,0.48255 0.37463,0.38652 0.681139,0.81655 0.681139,0.95563 0,0.13907 -0.50656,-0.27013 -1.125687,-0.90934 -0.619127,-0.63922 -1.482735,-1.3114 -1.919143,-1.49374 -1.051611,-0.43939 -3.739507,-0.80981 -4.550836,-0.62715 -0.645861,0.14541 -0.645246,0.14619 0.561217,0.71792 0.793245,0.37591 1.63177,0.58952 2.443059,0.62234 1.457264,0.059 2.214486,0.40545 2.955607,1.35242 0.750539,0.95901 0.538488,1.0072 -0.504311,0.1146 -0.922715,-0.78981 -1.626162,-1.01942 -3.078207,-1.00477 l -0.883092,0.009 0.856334,0.76562 c 0.730505,0.65312 0.777694,0.74281 0.321122,0.61036 -0.294364,-0.0854 -0.929018,-0.535 -1.41035,-0.99912 -0.978845,-0.94386 -2.380747,-1.4651 -3.940378,-1.4651 -0.835523,0 -1.092804,0.10302 -1.556221,0.62313 -1.199149,1.34583 -1.559538,2.59999 -1.051319,3.65855 0.44547,0.92786 1.173944,1.06485 2.454006,0.46149 0.495803,-0.2337 1.334975,-0.47808 1.864838,-0.54306 l 0.963374,-0.11815 -0.963374,0.31377 c -1.640812,0.53442 -1.630342,0.52855 -1.303358,0.73063 0.335533,0.20737 0.941649,0.0481 2.587862,-0.68025 0.673809,-0.2981 1.681111,-0.54413 2.35492,-0.57518 1.364116,-0.0629 1.338927,0.18115 -0.03398,0.32904 -0.511172,0.0551 -1.4131,0.3331 -2.004272,0.61786 -1.036237,0.49913 -3.044061,1.04156 -3.442031,0.92988 -0.438245,-0.12296 -1.798582,0.28643 -1.798582,0.54129 0,0.15139 0.233153,0.40003 0.518123,0.55254 0.698366,0.37376 1.741493,0.15346 3.389688,-0.71586 0.735489,-0.38793 1.671418,-0.77065 2.079854,-0.85051 0.933282,-0.18246 0.620066,0.14591 -0.472018,0.49485 -0.439912,0.14056 -0.865154,0.36125 -0.944983,0.49041 -0.09859,0.15954 -0.01376,0.17884 0.264628,0.0602 0.225369,-0.0961 0.795115,-0.14324 1.266105,-0.10484 0.470982,0.0384 1.578869,0.0617 2.46196,0.0518 l 1.605635,-0.018 -1.062105,0.32018 c -0.879912,0.26525 -1.269714,0.27612 -2.272347,0.0633 -0.912173,-0.19358 -1.322842,-0.19657 -1.667461,-0.0121 -0.25148,0.13458 -0.457235,0.18134 -0.457235,0.10391 0,-0.0774 -0.144504,-0.0209 -0.321122,0.12572 -0.176619,0.14658 -0.321131,0.20316 -0.321131,0.12573 0,-0.0774 -0.21065,-0.028 -0.468118,0.10974 -0.257467,0.13779 -0.81141,0.29575 -1.230988,0.35103 -1.049106,0.13821 -1.060952,0.21132 -0.09995,0.61695 0.820506,0.34632 1.837728,0.28668 3.6723,-0.21531 1.21962,-0.33372 1.507656,-0.39181 2.444434,-0.49295 0.580702,-0.0627 1.163677,-0.004 1.391546,0.14061 0.328291,0.20804 0.26521,0.23162 -0.387213,0.14475 -0.67766,-0.0902 -1.13305,-0.0259 -2.752998,0.38896 -0.176619,0.0452 -0.511148,0.0896 -0.743403,0.0986 -0.412967,0.016 -0.412579,0.0232 0.0174,0.32437 0.241842,0.1694 0.69771,0.37275 1.013039,0.45189 0.315328,0.0791 0.619232,0.21819 0.675362,0.309 0.05615,0.0908 -0.568945,-0.011 -1.389045,-0.22636 -0.820085,-0.21531 -2.170882,-0.41132 -3.001752,-0.43558 -0.83087,-0.0243 -1.562099,-0.12732 -1.624953,-0.22902 -0.06287,-0.10169 -0.205529,-0.1285 -0.317068,-0.0596 -0.322312,0.1992 -0.053,0.46253 1.530349,1.49609 0.816815,0.5332 1.485113,1.07924 1.485113,1.21342 0,0.13418 -0.240839,0.0177 -0.535203,-0.25884 -0.620155,-0.5826 -0.655611,-0.48849 -0.21409,0.56823 0.176619,0.42271 0.321131,1.06187 0.321131,1.42035 0,0.74587 -0.141615,0.71296 -0.286864,-0.0667 -0.133232,-0.71521 -1.187829,-2.77829 -1.420164,-2.77829 -0.102255,0 -0.629335,-0.44341 -1.171286,-0.98537 -0.814202,-0.81421 -1.040259,-0.93981 -1.3014,-0.72308 -0.496801,0.41231 -0.379064,0.85666 0.505751,1.90876 1.047339,1.24536 1.319848,1.76626 1.31577,2.51519 -0.0024,0.46787 -0.04976,0.53092 -0.210804,0.28168 -0.114145,-0.17662 -0.209,-0.49861 -0.210805,-0.71553 -0.0016,-0.21692 -0.183674,-0.62373 -0.404156,-0.90403 -0.944254,-1.20042 -1.77493,-2.05627 -1.887004,-1.94419 -0.06635,0.0663 0.03997,0.52201 0.236244,1.01258 0.196281,0.49057 0.311785,0.93704 0.256666,0.99215 -0.222447,0.22245 -0.774036,-1.25978 -0.774036,-2.08 0,-1.17147 -0.687078,-1.82732 -1.984675,-1.89449 -0.819445,-0.0424 -1.054548,0.055 -1.840203,0.76216 -0.495411,0.44594 -0.954078,1.05164 -1.019262,1.346 -0.139552,0.63017 -0.129324,12.53731 0.05915,68.91165 l 0.139867,41.82995 0.902568,0.94197 c 0.784709,0.81898 1.006081,0.935 1.695328,0.88858 0.889492,-0.0599 0.959264,-0.12238 1.025103,-0.91792 0.06724,-0.81205 0.634477,-1.21917 1.811746,-1.30025 0.566534,-0.039 1.21538,-0.14252 1.441882,-0.22999 0.320766,-0.12388 0.383086,-0.0842 0.281855,0.17963 -0.09089,0.23686 0.02759,0.37821 0.394284,0.47023 0.756167,0.18979 1.278278,0.69771 2.252657,2.19142 0.873932,1.33974 1.160456,1.57186 2.11853,1.71631 0.846721,0.12765 1.107789,0.26207 0.963261,0.49591 -0.203708,0.32961 -2.461847,-0.11163 -2.461847,-0.48104 0,-0.12802 -0.07023,-0.16252 -0.156082,-0.0767 -0.244092,0.24409 1.227023,1.41387 1.778086,1.41387 0.497376,0 0.884281,0.34817 0.648693,0.58375 -0.224916,0.22492 -1.803291,-0.36429 -2.463077,-0.91946 -0.367486,-0.30922 -0.833557,-1.05859 -1.094932,-1.7605 -0.695801,-1.86853 -2.005935,-3.04181 -3.396614,-3.04181 -0.77483,0 -1.31043,0.49025 -1.31043,1.19947 0,0.4932 0.207479,0.68258 0.893142,0.8153 0.887663,0.17181 1.544674,0.72816 2.017598,1.70847 0.283036,0.58672 0.514611,1.19464 0.514611,1.35095 0,0.15631 0.307683,0.47133 0.683749,0.70002 0.566007,0.34422 0.621021,0.43989 0.319472,0.5556 -0.702934,0.26975 -1.730149,-0.76969 -1.982195,-2.00577 -0.114404,-0.56107 -0.753833,-1.32628 -1.377968,-1.64903 -0.352129,-0.18209 -0.640238,-0.26864 -0.640238,-0.19233 0,0.0763 -0.14503,0.0184 -0.322287,-0.12871 -0.20438,-0.16962 -0.620843,-0.21974 -1.138342,-0.13698 -0.448836,0.0718 -1.122677,0.0426 -1.497429,-0.0649 -1.131537,-0.32453 -0.7761,-0.0416 1.068392,0.85035 0.962379,0.46539 1.983308,1.06404 2.268722,1.33033 0.729769,0.68084 1.397129,2.05549 1.20648,2.48518 -0.08635,0.19464 -0.165331,0.42615 -0.175502,0.51446 -0.0102,0.0883 -0.09074,0.16056 -0.179054,0.16056 -0.08831,0 -0.298183,0 -0.466394,0 -0.168212,0 -0.469162,-0.16332 -0.668776,-0.36295 -0.341205,-0.3412 -0.32609,-0.39313 0.252313,-0.86701 l 0.61526,-0.50407 -0.946828,-0.82982 c -0.52076,-0.45639 -1.339631,-0.99648 -1.819716,-1.20019 -0.480093,-0.20371 -1.395502,-0.60697 -2.034243,-0.89615 -1.555185,-0.70406 -2.629306,-0.56027 -4.141647,0.55446 -0.615737,0.45386 -1.336281,0.94051 -1.601217,1.08144 -0.264927,0.14095 -0.481687,0.32718 -0.481687,0.41385 0,0.0867 0.602111,0.34933 1.338029,0.58368 1.045429,0.33292 1.352569,0.52771 1.40454,0.8908 0.09849,0.68817 -0.648685,1.0252 -2.713756,1.22409 -0.905885,0.0873 -1.741489,0.45589 -1.741489,0.76827 0,0.10951 0.299001,0.53964 0.664431,0.95585 0.576542,0.65664 0.610235,0.75675 0.254724,0.75675 -0.225336,0 -0.717,-0.30045 -1.092593,-0.66766 z m 12.893926,-2.45947 c 0.186255,-0.0714 0.33864,-0.20745 0.33864,-0.30218 0,-0.26237 -0.714452,-0.10056 -0.809048,0.18323 -0.09416,0.28247 -0.01068,0.30357 0.470408,0.11895 z M 35.95136,122.56198 c 1.10147,-1.18788 1.1863,-2.39564 0.267913,-3.8141 -1.181971,-1.8256 -4.220328,-0.63409 -4.220328,1.65503 0,2.25575 2.564033,3.65639 3.952415,2.15907 z M 22.4575,118.8912 c 0.06465,-0.10466 -0.496228,-0.59022 -1.246467,-1.07902 -0.750248,-0.4888 -1.534949,-1.07753 -1.743787,-1.3083 -0.208838,-0.23076 -0.48189,-0.41957 -0.606772,-0.41957 -0.12489,0 -0.687386,-0.45339 -1.249987,-1.00753 -0.74396,-0.73277 -1.08714,-0.94331 -1.258418,-0.77204 -0.40528,0.40529 -0.120933,0.93066 0.767232,1.41758 1.118834,0.61339 1.342495,0.8381 1.513903,1.52107 0.233217,0.9292 3.419832,2.30225 3.824296,1.64781 z m -3.945853,-4.2723 c 0,-0.34773 -0.782605,-0.8851 -1.405592,-0.96513 -0.345509,-0.0444 -0.476953,-0.0411 -0.29209,0.007 0.184863,0.0484 0.570215,0.31859 0.856342,0.60043 0.544743,0.53659 0.84134,0.66259 0.84134,0.3574 z m 37.250637,-1.6766 0.535204,-0.30556 -0.624816,0.13129 c -0.343648,0.0722 -0.825335,0.27881 -1.070423,0.4591 -0.43733,0.32174 -0.435672,0.32497 0.0896,0.17427 0.294372,-0.0844 0.776059,-0.29105 1.070431,-0.4591 z" id="path899"/>
    <path style="fill:none;stroke:#000000;stroke-width:0.865;stroke-linecap:butt;stroke-linejoin:miter;stroke-miterlimit:4;stroke-dasharray:none;stroke-opacity:1;marker-start:url(#DotM-8-2)" d="m 37.804553,204.1657 26.333794,7.10058" id="path1391-06-7" sodipodi:nodetypes="cc"/>
    <path style="fill:none;stroke:#000000;stroke-width:0.865;stroke-linecap:butt;stroke-linejoin:miter;stroke-miterlimit:4;stroke-dasharray:none;stroke-opacity:1;marker-start:url(#DotM-8-24)" d="m 174.17429,134.05112 -40.75996,-7.91624" id="path1391-06-62" sodipodi:nodetypes="cc"/>
    <path style="fill:none;stroke:#000000;stroke-width:0.865;stroke-linecap:butt;stroke-linejoin:miter;stroke-miterlimit:4;stroke-dasharray:none;stroke-opacity:1;marker-start:url(#DotM-8-9)" d="m 36.692956,94.7163 50.122909,22.34155" id="path1391-06-0" sodipodi:nodetypes="cc"/>
    <switch style="font-style:normal;font-variant:normal;font-weight:normal;font-stretch:normal;font-size:7.05556px;line-height:1.25;font-family:sans-serif;-inkscape-font-specification:'sans-serif, Normal';font-variant-ligatures:normal;font-variant-caps:normal;font-variant-numeric:normal;font-variant-east-asian:normal;text-align:center;letter-spacing:0px;word-spacing:0px;text-anchor:middle" id="switch47">
      <text xml:space="preserve" style="font-style:normal;font-variant:normal;font-weight:normal;font-stretch:normal;font-size:7.05556px;line-height:1.25;font-family:sans-serif;-inkscape-font-specification:'sans-serif, Normal';font-variant-ligatures:normal;font-variant-caps:normal;font-variant-numeric:normal;font-variant-east-asian:normal;text-align:center;letter-spacing:0px;word-spacing:0px;text-anchor:middle" x="32.821964" y="14.010136" id="text1003-en" systemLanguage="en"><tspan sodipodi:role="line" id="tspan1001-en" x="32.821964" y="14.010136">Sympathetic</tspan></text>
      
    <text xml:space="preserve" style="font-style:normal;font-variant:normal;font-weight:normal;font-stretch:normal;font-size:7.05556px;line-height:1.25;font-family:sans-serif;-inkscape-font-specification:'sans-serif, Normal';font-variant-ligatures:normal;font-variant-caps:normal;font-variant-numeric:normal;font-variant-east-asian:normal;text-align:center;letter-spacing:0px;word-spacing:0px;text-anchor:middle" x="32.821964" y="14.010136" id="text1003"><tspan sodipodi:role="line" id="tspan1001" x="32.821964" y="14.010136">Simpático</tspan></text></switch>
    <switch style="font-style:normal;font-variant:normal;font-weight:bold;font-stretch:normal;font-size:12.7px;line-height:1.25;font-family:sans-serif;-inkscape-font-specification:'sans-serif, Bold';font-variant-ligatures:normal;font-variant-caps:normal;font-variant-numeric:normal;font-variant-east-asian:normal;text-align:center;letter-spacing:0px;word-spacing:0px;text-anchor:middle" id="switch53">
      <text xml:space="preserve" style="font-style:normal;font-variant:normal;font-weight:bold;font-stretch:normal;font-size:12.7px;line-height:1.25;font-family:sans-serif;-inkscape-font-specification:'sans-serif, Bold';font-variant-ligatures:normal;font-variant-caps:normal;font-variant-numeric:normal;font-variant-east-asian:normal;text-align:center;letter-spacing:0px;word-spacing:0px;text-anchor:middle" x="107.29766" y="28.01457" id="text1007-en" systemLanguage="en"><tspan sodipodi:role="line" id="tspan1005-en" x="107.29766" y="28.01457">CNS</tspan></text>
      
    <text xml:space="preserve" style="font-style:normal;font-variant:normal;font-weight:bold;font-stretch:normal;font-size:12.7px;line-height:1.25;font-family:sans-serif;-inkscape-font-specification:'sans-serif, Bold';font-variant-ligatures:normal;font-variant-caps:normal;font-variant-numeric:normal;font-variant-east-asian:normal;text-align:center;letter-spacing:0px;word-spacing:0px;text-anchor:middle" x="107.29766" y="28.01457" id="text1007"><tspan sodipodi:role="line" id="tspan1005" x="107.29766" y="28.01457">SNC</tspan></text></switch>
    <switch style="font-style:normal;font-variant:normal;font-weight:normal;font-stretch:normal;font-size:7.05556px;line-height:1.25;font-family:sans-serif;-inkscape-font-specification:'sans-serif, Normal';font-variant-ligatures:normal;font-variant-caps:normal;font-variant-numeric:normal;font-variant-east-asian:normal;text-align:center;letter-spacing:0px;word-spacing:0px;text-anchor:middle" id="switch59">
      <text xml:space="preserve" style="font-style:normal;font-variant:normal;font-weight:normal;font-stretch:normal;font-size:7.05556px;line-height:1.25;font-family:sans-serif;-inkscape-font-specification:'sans-serif, Normal';font-variant-ligatures:normal;font-variant-caps:normal;font-variant-numeric:normal;font-variant-east-asian:normal;text-align:center;letter-spacing:0px;word-spacing:0px;text-anchor:middle" x="172.04791" y="15.762966" id="text1011-en" systemLanguage="en"><tspan sodipodi:role="line" id="tspan1009-en" x="172.04791" y="15.762966">Parasympathetic</tspan></text>
      
    <text xml:space="preserve" style="font-style:normal;font-variant:normal;font-weight:normal;font-stretch:normal;font-size:7.05556px;line-height:1.25;font-family:sans-serif;-inkscape-font-specification:'sans-serif, Normal';font-variant-ligatures:normal;font-variant-caps:normal;font-variant-numeric:normal;font-variant-east-asian:normal;text-align:center;letter-spacing:0px;word-spacing:0px;text-anchor:middle" x="172.04791" y="15.762966" id="text1011"><tspan sodipodi:role="line" id="tspan1009" x="172.04791" y="15.762966">Parasimpático</tspan></text></switch>
    <switch style="font-style:normal;font-variant:normal;font-weight:normal;font-stretch:normal;font-size:7.05556px;line-height:1.25;font-family:sans-serif;-inkscape-font-specification:'sans-serif, Normal';font-variant-ligatures:normal;font-variant-caps:normal;font-variant-numeric:normal;font-variant-east-asian:normal;text-align:center;letter-spacing:0px;word-spacing:0px;text-anchor:middle" id="switch65">
      <text xml:space="preserve" style="font-style:normal;font-variant:normal;font-weight:normal;font-stretch:normal;font-size:7.05556px;line-height:1.25;font-family:sans-serif;-inkscape-font-specification:'sans-serif, Normal';font-variant-ligatures:normal;font-variant-caps:normal;font-variant-numeric:normal;font-variant-east-asian:normal;text-align:center;letter-spacing:0px;word-spacing:0px;text-anchor:middle" x="105.11385" y="213.96829" id="text1015-en" systemLanguage="en"><tspan sodipodi:role="line" id="tspan1013-en" x="105.11385" y="213.96829">Preganglionic neuron</tspan></text>
      
    <text xml:space="preserve" style="font-style:normal;font-variant:normal;font-weight:normal;font-stretch:normal;font-size:7.05556px;line-height:1.25;font-family:sans-serif;-inkscape-font-specification:'sans-serif, Normal';font-variant-ligatures:normal;font-variant-caps:normal;font-variant-numeric:normal;font-variant-east-asian:normal;text-align:center;letter-spacing:0px;word-spacing:0px;text-anchor:middle" x="105.11385" y="213.96829" id="text1015"><tspan sodipodi:role="line" id="tspan1013" x="105.11385" y="213.96829">Neurona pregangliolar</tspan></text></switch>
    <switch style="font-style:normal;font-variant:normal;font-weight:normal;font-stretch:normal;font-size:7.05556px;line-height:1.25;font-family:sans-serif;-inkscape-font-specification:'sans-serif, Normal';font-variant-ligatures:normal;font-variant-caps:normal;font-variant-numeric:normal;font-variant-east-asian:normal;text-align:center;letter-spacing:0px;word-spacing:0px;text-anchor:middle" id="switch71">
      <text xml:space="preserve" style="font-style:normal;font-variant:normal;font-weight:normal;font-stretch:normal;font-size:7.05556px;line-height:1.25;font-family:sans-serif;-inkscape-font-specification:'sans-serif, Normal';font-variant-ligatures:normal;font-variant-caps:normal;font-variant-numeric:normal;font-variant-east-asian:normal;text-align:center;letter-spacing:0px;word-spacing:0px;text-anchor:middle" x="101.1652" y="146.28951" id="text1019-en" systemLanguage="en"><tspan sodipodi:role="line" id="tspan1017-en" x="101.1652" y="146.28951">Acetylcholine </tspan></text>
      
    <text xml:space="preserve" style="font-style:normal;font-variant:normal;font-weight:normal;font-stretch:normal;font-size:7.05556px;line-height:1.25;font-family:sans-serif;-inkscape-font-specification:'sans-serif, Normal';font-variant-ligatures:normal;font-variant-caps:normal;font-variant-numeric:normal;font-variant-east-asian:normal;text-align:center;letter-spacing:0px;word-spacing:0px;text-anchor:middle" x="109.30843" y="123.71177" id="text1019"><tspan sodipodi:role="line" id="tspan1017" x="109.30843" y="123.71177">Acetilcolina</tspan></text></switch>
    <switch style="font-style:normal;font-variant:normal;font-weight:normal;font-stretch:normal;font-size:7.05556px;line-height:1.25;font-family:sans-serif;-inkscape-font-specification:'sans-serif, Normal';font-variant-ligatures:normal;font-variant-caps:normal;font-variant-numeric:normal;font-variant-east-asian:normal;text-align:center;letter-spacing:0px;word-spacing:0px;text-anchor:middle" id="switch77" transform="translate(-1.6089678,-13.100154)">
      <text xml:space="preserve" style="font-style:normal;font-variant:normal;font-weight:normal;font-stretch:normal;font-size:7.05556px;line-height:1.25;font-family:sans-serif;-inkscape-font-specification:'sans-serif, Normal';font-variant-ligatures:normal;font-variant-caps:normal;font-variant-numeric:normal;font-variant-east-asian:normal;text-align:center;letter-spacing:0px;word-spacing:0px;text-anchor:middle" x="102.96396" y="89.272995" id="text1023-en" systemLanguage="en"><tspan sodipodi:role="line" id="tspan1021-en" x="102.96396" y="89.272995">Postganglionic neuron</tspan></text>
      
    <text xml:space="preserve" style="font-style:normal;font-variant:normal;font-weight:normal;font-stretch:normal;font-size:7.05556px;line-height:1.25;font-family:sans-serif;-inkscape-font-specification:'sans-serif, Normal';font-variant-ligatures:normal;font-variant-caps:normal;font-variant-numeric:normal;font-variant-east-asian:normal;text-align:center;letter-spacing:0px;word-spacing:0px;text-anchor:middle" x="102.96396" y="89.272995" id="text1023"><tspan sodipodi:role="line" id="tspan1021" x="102.96396" y="89.272995">Neurona postgangliolar</tspan></text></switch>
    <switch style="font-style:normal;font-variant:normal;font-weight:normal;font-stretch:normal;font-size:7.05556px;line-height:1.25;font-family:sans-serif;-inkscape-font-specification:'sans-serif, Normal';font-variant-ligatures:normal;font-variant-caps:normal;font-variant-numeric:normal;font-variant-east-asian:normal;text-align:center;letter-spacing:0px;word-spacing:0px;text-anchor:middle" id="switch83">
      <text xml:space="preserve" style="font-style:normal;font-variant:normal;font-weight:normal;font-stretch:normal;font-size:7.05556px;line-height:1.25;font-family:sans-serif;-inkscape-font-specification:'sans-serif, Normal';font-variant-ligatures:normal;font-variant-caps:normal;font-variant-numeric:normal;font-variant-east-asian:normal;text-align:center;letter-spacing:0px;word-spacing:0px;text-anchor:middle" x="185.45656" y="288.88144" id="text1027-en" systemLanguage="en"><tspan sodipodi:role="line" id="tspan1025-en" x="185.45656" y="288.88144">Acetylcholine </tspan></text>
      
    <text xml:space="preserve" style="font-style:normal;font-variant:normal;font-weight:normal;font-stretch:normal;font-size:7.05556px;line-height:1.25;font-family:sans-serif;-inkscape-font-specification:'sans-serif, Normal';font-variant-ligatures:normal;font-variant-caps:normal;font-variant-numeric:normal;font-variant-east-asian:normal;text-align:center;letter-spacing:0px;word-spacing:0px;text-anchor:middle" x="185.45656" y="288.88144" id="text1027"><tspan sodipodi:role="line" id="tspan1025" x="185.45656" y="288.88144">Acetilcolina</tspan></text></switch>
    <switch style="font-style:normal;font-variant:normal;font-weight:normal;font-stretch:normal;font-size:7.05556px;line-height:1.25;font-family:sans-serif;-inkscape-font-specification:'sans-serif, Normal';font-variant-ligatures:normal;font-variant-caps:normal;font-variant-numeric:normal;font-variant-east-asian:normal;text-align:center;letter-spacing:0px;word-spacing:0px;text-anchor:middle" id="switch89">
      <text xml:space="preserve" style="font-style:normal;font-variant:normal;font-weight:normal;font-stretch:normal;font-size:7.05556px;line-height:1.25;font-family:sans-serif;-inkscape-font-specification:'sans-serif, Normal';font-variant-ligatures:normal;font-variant-caps:normal;font-variant-numeric:normal;font-variant-east-asian:normal;text-align:center;letter-spacing:0px;word-spacing:0px;text-anchor:middle" x="32.480217" y="285.25055" id="text1031-en" systemLanguage="en"><tspan sodipodi:role="line" id="tspan1029-en" x="32.480217" y="285.25055">Norepinephrine</tspan></text>
      
    <text xml:space="preserve" style="font-style:normal;font-variant:normal;font-weight:normal;font-stretch:normal;font-size:7.05556px;line-height:1.25;font-family:sans-serif;-inkscape-font-specification:'sans-serif, Normal';font-variant-ligatures:normal;font-variant-caps:normal;font-variant-numeric:normal;font-variant-east-asian:normal;text-align:center;letter-spacing:0px;word-spacing:0px;text-anchor:middle" x="32.480217" y="285.25055" id="text1031"><tspan sodipodi:role="line" id="tspan1029" x="32.480217" y="285.25055">Noradrenalina</tspan></text></switch>
    <switch style="font-style:normal;font-variant:normal;font-weight:normal;font-stretch:normal;font-size:9.87778px;line-height:1.25;font-family:sans-serif;-inkscape-font-specification:'sans-serif, Normal';font-variant-ligatures:normal;font-variant-caps:normal;font-variant-numeric:normal;font-variant-east-asian:normal;text-align:center;letter-spacing:0px;word-spacing:0px;text-anchor:middle" id="switch95">
      <text xml:space="preserve" style="font-style:normal;font-variant:normal;font-weight:normal;font-stretch:normal;font-size:9.87778px;line-height:1.25;font-family:sans-serif;-inkscape-font-specification:'sans-serif, Normal';font-variant-ligatures:normal;font-variant-caps:normal;font-variant-numeric:normal;font-variant-east-asian:normal;text-align:center;letter-spacing:0px;word-spacing:0px;text-anchor:middle" x="102.06877" y="248.52695" id="text1081-en" systemLanguage="en"><tspan sodipodi:role="line" id="tspan1079-en" x="102.06877" y="248.52695">Target</tspan></text>
      
    <text xml:space="preserve" style="font-style:normal;font-variant:normal;font-weight:normal;font-stretch:normal;font-size:9.87778px;line-height:1.25;font-family:sans-serif;-inkscape-font-specification:'sans-serif, Normal';font-variant-ligatures:normal;font-variant-caps:normal;font-variant-numeric:normal;font-variant-east-asian:normal;text-align:center;letter-spacing:0px;word-spacing:0px;text-anchor:middle" x="102.06877" y="248.52695" id="text1081"><tspan sodipodi:role="line" id="tspan1079" x="102.06877" y="248.52695">Órgano</tspan></text></switch>
    <switch style="font-style:normal;font-variant:normal;font-weight:normal;font-stretch:normal;font-size:9.87778px;line-height:1.25;font-family:sans-serif;-inkscape-font-specification:'sans-serif, Normal';font-variant-ligatures:normal;font-variant-caps:normal;font-variant-numeric:normal;font-variant-east-asian:normal;text-align:center;letter-spacing:0px;word-spacing:0px;text-anchor:middle" id="switch101">
      <text xml:space="preserve" style="font-style:normal;font-variant:normal;font-weight:normal;font-stretch:normal;font-size:9.87778px;line-height:1.25;font-family:sans-serif;-inkscape-font-specification:'sans-serif, Normal';font-variant-ligatures:normal;font-variant-caps:normal;font-variant-numeric:normal;font-variant-east-asian:normal;text-align:center;letter-spacing:0px;word-spacing:0px;text-anchor:middle" x="100.7408" y="260.95102" id="text1109-en" systemLanguage="en"><tspan sodipodi:role="line" id="tspan1107-en" x="100.7408" y="260.95102">Organ</tspan></text>
      
    <text xml:space="preserve" style="font-style:normal;font-variant:normal;font-weight:normal;font-stretch:normal;font-size:9.87778px;line-height:1.25;font-family:sans-serif;-inkscape-font-specification:'sans-serif, Normal';font-variant-ligatures:normal;font-variant-caps:normal;font-variant-numeric:normal;font-variant-east-asian:normal;text-align:center;letter-spacing:0px;word-spacing:0px;text-anchor:middle" x="100.7408" y="260.95102" id="text1109"><tspan sodipodi:role="line" id="tspan1107" x="100.7408" y="260.95102">Final</tspan></text></switch>
  </g>
</svg>
