<svg viewBox="0 0 561.6 460.08" xmlns="http://www.w3.org/2000/svg" xmlns:xlink="http://www.w3.org/1999/xlink" xml:space="preserve" overflow="hidden"><g><g><g id="ARTERE_-_copie"><path d="M249.65 199.32C249.74 203.8 249.84 208.34 251.03 212.66 253.33 221.02 259.47 227.8 262.56 235.91 265.53 243.71 265.53 252.33 267.71 260.39 268.1 261.83 268.98 263.56 270.47 263.44 270.84 251.85 269.55 240.21 266.65 228.99 265.09 222.94 263.04 216.74 264.12 210.59 264.36 209.25 264.75 207.91 265.57 206.82 267.59 204.15 271.38 203.84 274.53 202.72 275.5 202.38 276.5 201.88 276.97 200.97 277.27 200.4 277.32 199.74 277.37 199.09 277.85 192.69 278.33 186.29 278.81 179.9 279.11 175.94 279.29 171.58 276.87 168.44 274.89 165.86 271.6 164.71 268.51 163.69 263.33 161.99 258.13 159.89 252.85 158.54 250.85 158.03 249.81 158.2 249.07 160.46 248.39 162.54 248.96 165.46 249 167.63 249.23 178.19 249.44 188.75 249.65 199.32Z" fill="#F92D2D"/><path d="M259.74 225.02C260.46 226.33 261.5 227.83 262.99 227.75 261.53 227.82 264.28 203.24 257.03 206.05 254.68 206.96 254.64 211.3 254.84 213.28 255.27 217.47 257.75 221.41 259.74 225.02Z" fill="#F94141"/><path d="M243.59 18.89C243.59 18.89 264.77 4.48 285.94 18.89L285.52 376.7C285.52 376.7 266.68 394.66 243.27 376.7L243.59 18.89Z" fill="#F90606"/><path d="M243.59 18.89C243.59 18.89 264.77 4.48 285.94 18.89L285.52 376.7C285.52 376.7 266.68 394.66 243.27 376.7L243.59 18.89Z" stroke="#333333" stroke-linecap="round" stroke-linejoin="round" stroke-miterlimit="10" fill="none"/><g><path d="M386.5 157.54C386.48 156.82 386.46 156.09 386.44 155.37 386.4 156.1 386.4 156.82 386.5 157.54Z" fill="#F90606"/><path d="M255.47 87.18C255.47 87.18 254 93.28 252.57 97.71 251.14 102.14 246.62 107.06 233.28 105.8 219.94 104.55 198.37 93.5 183.63 115.67 183.63 115.67 182.85 120.33 189.62 122.65 189.62 122.65 195.16 111.01 206.36 111.34 217.56 111.67 242.85 123.87 258.23 107.24 259.46 105.91 264.99 117.88 279.35 116.44 293.71 115 298.04 109.68 309.68 111.9 320.55 113.97 321.85 126.57 334.3 125.57 334.25 126.13 334.13 126.68 333.96 127.21 333.56 128.5 332.94 129.72 332.61 131.03 332 133.39 332.27 136.06 330.88 138.07 329.46 140.12 326.81 140.78 324.52 141.77 322.45 142.66 320.54 143.93 318.91 145.48 322.29 143.41 325.94 141.79 329.75 140.68 327.26 144.08 326.59 148.46 326.23 152.66 326.84 148.36 328.73 144.24 331.59 140.97 332.75 139.64 334.11 138.4 334.74 136.75 335.38 135.08 335.19 133.19 335.74 131.48 336.23 129.96 337.27 128.66 337.72 127.13 337.93 126.42 338.03 125.64 338.17 124.9 350.11 121.98 359.01 114.13 368.81 117.47 374.44 119.39 378.11 121.12 381.92 121.62 381.92 125.35 381.93 129.09 381.93 132.82 381.93 134.78 381.91 136.83 381.04 138.59 380.21 140.26 378.7 141.47 377.49 142.89 375.26 145.51 374.06 148.9 373.64 152.32 374.56 147.75 378.1 144.19 381.79 141.35 383.76 143.79 383.25 143.94 384.26 146.1 384.48 146.58 384.9 146.96 385.09 147.46 385.33 148.07 385.35 148.73 385.36 149.38 385.4 150.97 386.4 153.79 386.45 155.38 386.57 153.21 387.12 151.03 386.96 148.85 386.85 147.38 386.42 145.93 385.71 144.64 385.15 143.63 384.42 142.7 384.1 141.6 383.63 139.94 384.17 138.19 384.62 136.52 385.93 131.69 386.45 126.64 386.19 121.64 387.99 121.42 389.96 120.9 392.25 119.99 401.78 116.22 403.45 116.11 406.99 116.89 407.32 116.96 407.7 117.03 408.1 117.08 413.49 122.79 416.67 130.33 419.16 137.83 419.46 138.73 419.75 139.65 419.75 140.6 419.75 141.52 419.47 142.42 419.46 143.34 419.45 145.22 420.58 146.89 421.67 148.43 420.54 145.7 420.75 143.4 421.07 140.47 422.3 142.02 423.47 142.24 425.09 143.38 428.56 145.83 431.18 149.27 433.73 152.66 431.63 147.84 427.86 143.99 424.11 140.31 423.04 139.26 421.95 138.2 421.17 136.91 419.96 134.92 419.56 132.56 418.98 130.31 417.76 125.58 415.6 121.11 412.7 117.19 416.06 116.89 420.07 115.7 423.64 112.61 425.85 112.84 428.03 113.32 430.04 114.25 432.29 115.28 434.3 116.83 436.63 117.67 438.29 118.26 440.06 118.48 441.74 119.01 442.91 119.38 444.02 119.9 445.09 120.49 445.28 121.34 445.34 122.23 445.3 123.11 445.23 124.73 444.86 126.33 444.58 127.93 444.31 129.53 444.13 131.18 444.43 132.78 444.52 133.23 444.64 133.67 444.76 134.11 445.21 135.69 445.69 137.27 446.21 138.83 445.83 136.4 445.6 133.87 446.25 131.5 446.4 130.94 446.61 130.4 446.78 129.84 447.57 127.37 447.85 124.77 447.83 122.17 448.69 122.72 449.55 123.29 450.43 123.81 451.94 124.72 453.5 125.54 455.1 126.25 457.04 127.12 459.11 127.85 461.23 127.76 461.19 126.82 461.1 125.92 461.46 125.07 456.67 124.55 452.76 122.54 449.22 119.26 448.49 118.59 447.81 117.87 447.04 117.24 445.38 115.89 443.35 115.01 441.23 114.73 440.07 114.58 438.88 114.6 437.76 114.27 435.55 113.62 433.93 111.73 431.84 110.74 430.21 109.97 428.4 109.79 426.59 109.58 428.81 107.17 431.25 104.58 434.57 102.04 436.97 102.65 439.22 103.9 441.17 105.46 443.77 107.55 445.87 110.19 447.87 112.85 448.78 114.06 449.69 115.31 450.94 116.17 452.78 117.44 455.11 117.73 457.34 117.88 458.8 117.98 460.59 118.1 462.06 118.1 462.16 117.57 462.12 117.04 462.12 116.46 459.97 116.14 457.27 115.67 455.17 115.08 454.46 114.88 453.74 114.66 453.1 114.3 452.3 113.84 451.64 113.17 451.04 112.48 449.89 111.16 448.88 109.72 448.02 108.19 450.87 108.74 453.86 109.27 456.62 108.37 457.14 108.2 457.65 107.98 458.18 107.85 459.3 107.58 461.25 107.81 462.38 108.03 462.32 107.34 462.22 106.49 462.26 105.7 460.35 105.98 457.9 106.45 455.98 106.73 454.69 106.92 453.4 107.11 452.1 107.09 451.02 107.07 449.95 106.9 448.9 106.67 447.59 106.38 446.27 105.97 445.17 105.19 444.42 104.66 443.8 103.99 443.14 103.35 441.6 101.88 439.83 100.65 437.93 99.7 439.22 98.88 440.64 98.08 442.2 97.3 443.66 97.39 445.11 97.66 446.5 98.14 448.96 98.98 451.25 100.41 453.84 100.67 454.57 100.74 455.31 100.72 456.04 100.69 458.07 100.61 460.28 100.66 462.3 100.54 462.26 99.93 462.28 99.05 462.22 98.34 461.54 98.4 460.71 98.4 460.02 98.46 458.81 98.56 457.58 98.66 456.38 98.48 455.53 98.36 454.71 98.1 453.88 97.88 452.3 97.48 450.67 97.23 449.15 96.65 448.3 96.32 447.48 95.86 446.8 95.25 451.08 93.54 455.12 92.23 461.49 90.98 461.49 90.98 461.3 87.24 460.09 85.99 457.87 85.21 439.69 89.98 429.5 98.63 419.31 107.28 416.09 108.4 408.33 107.39 403.01 106.69 399.31 107.17 392.99 110.6 386.67 114.04 381.4 113.48 372.2 109.05 364.03 105.11 353.58 109.27 348.26 111.82 342.94 114.37 332.3 119.25 325.31 111.38 319.59 104.93 313.12 101.18 302.25 102.73 291.39 104.28 278.53 110.71 270.22 104.17 261.91 97.63 269.44 87.99 269.44 87.99" fill="#F90606"/></g><g><path d="M386.5 157.54C386.48 156.82 386.46 156.09 386.44 155.37 386.4 156.1 386.4 156.82 386.5 157.54Z" stroke="#333333" stroke-linecap="round" stroke-linejoin="round" stroke-miterlimit="10" fill="none"/><path d="M255.47 87.18C255.47 87.18 254 93.28 252.57 97.71 251.14 102.14 246.62 107.06 233.28 105.8 219.94 104.55 198.37 93.5 183.63 115.67 183.63 115.67 182.85 120.33 189.62 122.65 189.62 122.65 195.16 111.01 206.36 111.34 217.56 111.67 242.85 123.87 258.23 107.24 259.46 105.91 264.99 117.88 279.35 116.44 293.71 115 298.04 109.68 309.68 111.9 320.55 113.97 321.85 126.57 334.3 125.57 334.25 126.13 334.13 126.68 333.96 127.21 333.56 128.5 332.94 129.72 332.61 131.03 332 133.39 332.27 136.06 330.88 138.07 329.46 140.12 326.81 140.78 324.52 141.77 322.45 142.66 320.54 143.93 318.91 145.48 322.29 143.41 325.94 141.79 329.75 140.68 327.26 144.08 326.59 148.46 326.23 152.66 326.84 148.36 328.73 144.24 331.59 140.97 332.75 139.64 334.11 138.4 334.74 136.75 335.38 135.08 335.19 133.19 335.74 131.48 336.23 129.96 337.27 128.66 337.72 127.13 337.93 126.42 338.03 125.64 338.17 124.9 350.11 121.98 359.01 114.13 368.81 117.47 374.44 119.39 378.11 121.12 381.92 121.62 381.92 125.35 381.93 129.09 381.93 132.82 381.93 134.78 381.91 136.83 381.04 138.59 380.21 140.26 378.7 141.47 377.49 142.89 375.26 145.51 374.06 148.9 373.64 152.32 374.56 147.75 378.1 144.19 381.79 141.35 383.76 143.79 383.25 143.94 384.26 146.1 384.48 146.58 384.9 146.96 385.09 147.46 385.33 148.07 385.35 148.73 385.36 149.38 385.4 150.97 386.4 153.79 386.45 155.38 386.57 153.21 387.12 151.03 386.96 148.85 386.85 147.38 386.42 145.93 385.71 144.64 385.15 143.63 384.42 142.7 384.1 141.6 383.63 139.94 384.17 138.19 384.62 136.52 385.93 131.69 386.45 126.64 386.19 121.64 387.99 121.42 389.96 120.9 392.25 119.99 401.78 116.22 403.45 116.11 406.99 116.89 407.32 116.96 407.7 117.03 408.1 117.08 413.49 122.79 416.67 130.33 419.16 137.83 419.46 138.73 419.75 139.65 419.75 140.6 419.75 141.52 419.47 142.42 419.46 143.34 419.45 145.22 420.58 146.89 421.67 148.43 420.54 145.7 420.75 143.4 421.07 140.47 422.3 142.02 423.47 142.24 425.09 143.38 428.56 145.83 431.18 149.27 433.73 152.66 431.63 147.84 427.86 143.99 424.11 140.31 423.04 139.26 421.95 138.2 421.17 136.91 419.96 134.92 419.56 132.56 418.98 130.31 417.76 125.58 415.6 121.11 412.7 117.19 416.06 116.89 420.07 115.7 423.64 112.61 425.85 112.84 428.03 113.32 430.04 114.25 432.29 115.28 434.3 116.83 436.63 117.67 438.29 118.26 440.06 118.48 441.74 119.01 442.91 119.38 444.02 119.9 445.09 120.49 445.28 121.34 445.34 122.23 445.3 123.11 445.23 124.73 444.86 126.33 444.58 127.93 444.31 129.53 444.13 131.18 444.43 132.78 444.52 133.23 444.64 133.67 444.76 134.11 445.21 135.69 445.69 137.27 446.21 138.83 445.83 136.4 445.6 133.87 446.25 131.5 446.4 130.94 446.61 130.4 446.78 129.84 447.57 127.37 447.85 124.77 447.83 122.17 448.69 122.72 449.55 123.29 450.43 123.81 451.94 124.72 453.5 125.54 455.1 126.25 457.04 127.12 459.11 127.85 461.23 127.76 461.19 126.82 461.1 125.92 461.46 125.07 456.67 124.55 452.76 122.54 449.22 119.26 448.49 118.59 447.81 117.87 447.04 117.24 445.38 115.89 443.35 115.01 441.23 114.73 440.07 114.58 438.88 114.6 437.76 114.27 435.55 113.62 433.93 111.73 431.84 110.74 430.21 109.97 428.4 109.79 426.59 109.58 428.81 107.17 431.25 104.58 434.57 102.04 436.97 102.65 439.22 103.9 441.17 105.46 443.77 107.55 445.87 110.19 447.87 112.85 448.78 114.06 449.69 115.31 450.94 116.17 452.78 117.44 455.11 117.73 457.34 117.88 458.8 117.98 460.59 118.1 462.06 118.1 462.16 117.57 462.12 117.04 462.12 116.46 459.97 116.14 457.27 115.67 455.17 115.08 454.46 114.88 453.74 114.66 453.1 114.3 452.3 113.84 451.64 113.17 451.04 112.48 449.89 111.16 448.88 109.72 448.02 108.19 450.87 108.74 453.86 109.27 456.62 108.37 457.14 108.2 457.65 107.98 458.18 107.85 459.3 107.58 461.25 107.81 462.38 108.03 462.32 107.34 462.22 106.49 462.26 105.7 460.35 105.98 457.9 106.45 455.98 106.73 454.69 106.92 453.4 107.11 452.1 107.09 451.02 107.07 449.95 106.9 448.9 106.67 447.59 106.38 446.27 105.97 445.17 105.19 444.42 104.66 443.8 103.99 443.14 103.35 441.6 101.88 439.83 100.65 437.93 99.7 439.22 98.88 440.64 98.08 442.2 97.3 443.66 97.39 445.11 97.66 446.5 98.14 448.96 98.98 451.25 100.41 453.84 100.67 454.57 100.74 455.31 100.72 456.04 100.69 458.07 100.61 460.28 100.66 462.3 100.54 462.26 99.93 462.28 99.05 462.22 98.34 461.54 98.4 460.71 98.4 460.02 98.46 458.81 98.56 457.58 98.66 456.38 98.48 455.53 98.36 454.71 98.1 453.88 97.88 452.3 97.48 450.67 97.23 449.15 96.65 448.3 96.32 447.48 95.86 446.8 95.25 451.08 93.54 455.12 92.23 461.49 90.98 461.49 90.98 461.3 87.24 460.09 85.99 457.87 85.21 439.69 89.98 429.5 98.63 419.31 107.28 416.09 108.4 408.33 107.39 403.01 106.69 399.31 107.17 392.99 110.6 386.67 114.04 381.4 113.48 372.2 109.05 364.03 105.11 353.58 109.27 348.26 111.82 342.94 114.37 332.3 119.25 325.31 111.38 319.59 104.93 313.12 101.18 302.25 102.73 291.39 104.28 278.53 110.71 270.22 104.17 261.91 97.63 269.44 87.99 269.44 87.99" stroke="#333333" stroke-linecap="round" stroke-linejoin="round" stroke-miterlimit="10" fill="none"/></g><path d="M260.58 84.82C260.58 84.82 263.33 84.24 264.61 85.49 264.61 85.49 263.41 82.74 260.58 84.82Z"/><path d="M249.55 221.66C249.55 221.66 251.5 227.74 254.64 233.06 257.78 238.38 267.98 324.18 255.87 390.68 255.87 390.68 264.43 399.1 272.85 392.9 272.85 392.9 285.76 303.34 272.85 227.96 271.9 222.43 271.96 215.38 268.64 211.81" fill="#F90606"/><path d="M249.55 221.66C249.55 221.66 251.5 227.74 254.64 233.06 257.78 238.38 267.98 324.18 255.87 390.68 255.87 390.68 264.43 399.1 272.85 392.9 272.85 392.9 285.76 303.34 272.85 227.96 271.9 222.43 271.96 215.38 268.64 211.81" stroke="#333333" stroke-linecap="round" stroke-linejoin="round" stroke-miterlimit="10" fill="none"/><path d="M249.55 221.66C249.55 221.66 251.5 227.74 254.64 233.06 257.78 238.38 267.98 324.18 255.87 390.68 255.87 390.68 264.43 399.1 272.85 392.9 272.85 392.9 285.76 303.34 272.85 227.96 271.9 222.43 271.96 215.38 268.64 211.81" fill="#F90606"/><path d="M249.55 221.66C249.55 221.66 251.5 227.74 254.64 233.06 257.78 238.38 267.98 324.18 255.87 390.68 255.87 390.68 264.43 399.1 272.85 392.9 272.85 392.9 285.76 303.34 272.85 227.96 271.9 222.43 271.96 215.38 268.64 211.81" stroke="#333333" stroke-linecap="round" stroke-linejoin="round" stroke-miterlimit="10" fill="none"/><path d="M249.55 221.66C249.55 221.66 251.5 227.74 254.64 233.06 257.78 238.38 267.98 324.18 255.87 390.68 255.87 390.68 264.43 399.1 272.85 392.9 272.85 392.9 285.76 303.34 272.85 227.96 271.9 222.43 271.96 215.38 268.64 211.81" fill="#F90606"/><path d="M249.55 221.66C249.55 221.66 251.5 227.74 254.64 233.06 257.78 238.38 267.98 324.18 255.87 390.68 255.87 390.68 264.43 399.1 272.85 392.9 272.85 392.9 285.76 303.34 272.85 227.96 271.9 222.43 271.96 215.38 268.64 211.81" stroke="#333333" stroke-linecap="round" stroke-linejoin="round" stroke-miterlimit="10" fill="none"/><path d="M249.65 199.32C249.74 203.8 249.84 208.34 251.03 212.66 253.33 221.02 259.47 227.8 262.56 235.91 265.53 243.71 265.53 252.33 267.71 260.39 268.1 261.83 268.98 263.56 270.47 263.44 270.84 251.85 269.55 240.21 266.65 228.99 265.09 222.94 263.04 216.74 264.12 210.59 264.36 209.25 264.75 207.91 265.57 206.82 267.59 204.15 271.38 203.84 274.53 202.72 275.5 202.38 276.5 201.88 276.97 200.97 277.27 200.4 277.32 199.74 277.37 199.09 277.85 192.69 278.33 186.29 278.81 179.9 279.11 175.94 279.29 171.58 276.87 168.44 274.89 165.86 271.6 164.71 268.51 163.69 263.33 161.99 258.13 159.89 252.85 158.54 250.85 158.03 249.81 158.2 249.07 160.46 248.39 162.54 248.96 165.46 249 167.63 249.23 178.19 249.44 188.75 249.65 199.32Z" fill="#F92D2D"/><path d="M254.13 100.36C252.87 103.16 250.84 105.73 248.07 107.04 245.8 108.11 243.14 108.31 241.06 109.71 240.64 109.99 240.21 110.4 240.26 110.91 240.34 111.72 241.46 111.86 242.26 111.71 246.25 110.96 249.69 108.55 253.37 106.82 256.03 105.57 259.17 104.68 261.85 105.87 263.44 106.58 264.64 107.93 266.01 109.02 268.37 110.91 271.33 112.03 274.35 112.2 274.53 112.21 274.73 112.21 274.89 112.11 275 112.03 275.07 111.91 275.11 111.78 275.45 110.77 274.45 109.83 273.54 109.28 271.55 108.07 269.39 107.14 267.53 105.76 265.67 104.37 264.07 102.39 263.86 100.08 263.72 98.5 264.23 96.95 264.55 95.4 264.87 93.85 264.96 92.12 264.1 90.8 263.33 89.62 261.85 88.98 260.45 89.1 258.55 89.26 256.88 90.6 256.4 92.41 255.69 95.1 255.3 97.79 254.13 100.36Z" fill="#F92D2D"/><path d="M256.95 98.64C256.67 99.65 256.46 100.91 257.26 101.59 258.17 102.35 259.63 101.62 260.18 100.57 260.73 99.52 260.72 98.28 261.06 97.14 261.34 96.2 261.84 95.34 262.12 94.41 262.67 92.55 261.67 90.39 259.6 91.58 257.8 92.61 257.46 96.83 256.95 98.64Z" fill="#F94141"/><path d="M302.11 106.15C305.96 104.91 310.34 105.41 313.81 107.5 315.62 108.59 317.16 110.07 318.76 111.46 320.29 112.79 321.89 114.06 323.62 115.11 330.25 119.13 338.83 119.75 345.96 116.7 349.08 115.37 352.02 113.36 355.39 112.98 355.67 113.38 355.22 113.87 354.81 114.14 349.64 117.55 343.86 120.27 337.7 120.88 331.54 121.49 324.95 119.77 320.62 115.34 319.36 114.06 318.3 112.57 316.85 111.51 314.28 109.64 310.91 109.4 307.74 109.24 305.94 109.14 304.13 109.05 302.33 108.95 301.7 108.92 301.04 108.87 300.52 108.51 300 108.15 299.73 107.36 300.13 106.88" fill="#F92D2D"/><path d="M378.46 114.31C383.47 115.94 389.09 115.63 393.89 113.46 396.65 112.21 399.27 110.34 402.3 110.19 404.56 110.08 406.75 110.96 408.99 111.28 412.38 111.77 415.94 110.93 418.76 108.98 419.28 108.62 419.97 108.21 420.5 108.56 421.24 109.06 420.62 110.21 419.94 110.79 416.96 113.31 413.15 114.83 409.26 115.05 406.95 115.18 404.65 114.87 402.34 114.9 394.73 114.99 387.35 118.73 379.8 117.79 378.39 117.61 376.86 117.18 376.11 115.97 375.36 114.76 376.14 112.73 377.55 112.86" fill="#F92D2D"/><path d="M224.34 106.99C222.1 105.86 219.6 105.38 217.13 104.94 212.1 104.04 206.95 103.26 201.9 104.02 196.85 104.78 191.82 107.32 189.22 111.72 188.74 112.53 188.63 113.94 189.56 114.04 189.91 114.08 190.24 113.86 190.53 113.66 195.03 110.47 199.69 106.86 205.19 106.51 208.57 106.3 211.88 107.37 215.19 108.1 217.46 108.6 219.76 108.94 222.07 109.13 223.22 109.22 224.83 108.85 224.74 107.7" fill="#F92D2D"/><path d="M281.32 19.14C271.68 16.78 261.42 16.98 251.88 19.72 250.65 20.07 249.32 20.56 248.73 21.7 248.34 22.47 248.37 23.38 248.41 24.24 249.09 41.7 243.53 59.37 247.1 76.48 247.4 77.92 248.58 79.76 249.87 79.05 250.49 78.71 250.69 77.93 250.83 77.23 251.34 74.66 251.85 72.09 252.36 69.51 253.11 65.71 253.87 61.9 254.19 58.03 254.46 54.74 254.42 51.42 254.98 48.17 257.01 36.45 267.12 27.1 278.6 23.97 280.09 23.56 282.04 22.51 281.48 21.07" fill="#F92D2D"/><ellipse cx="363.09" cy="110.23" rx="3.57" ry="1.66" fill="#F94646"/><ellipse cx="308.72" cy="105.38" rx="3.57" ry="1.66" fill="#F94646"/><ellipse cx="403.16" cy="110.23" rx="3.57" ry="1.66" fill="#F94646"/><ellipse cx="311.29" cy="105.31" rx="1.58" ry="0.79" fill="#FFFFFF"/><ellipse cx="203.88" cy="105.31" rx="3.57" ry="1.66" fill="#F94646"/><ellipse cx="206.46" cy="105.25" rx="1.58" ry="0.79" fill="#FFFFFF"/><ellipse cx="365.66" cy="110.17" rx="1.58" ry="0.79" fill="#FFFFFF"/><ellipse cx="406.73" cy="109.38" rx="1.58" ry="0.79" fill="#FFFFFF"/><path d="M245.9 22C245.72 21.58 245.25 66.56 245.25 66.56 245.25 66.56 246.88 24.22 245.9 22Z" fill="#FFFFFF"/><path d="M244.87 375.54 244.87 316.51C244.87 316.52 246.05 370.5 244.87 375.54Z" fill="#FFFFFF"/><path d="M274.31 245.66C274.31 245.66 279.27 281.26 277.12 318.51 277.12 318.51 278.98 300.57 274.31 245.66Z" fill="#FFFFFF"/></g><g id="vaisseaux_-_copie"><path d="M161.4 23.88C161.4 23.88 141.11 20.72 138.45 43.83 138.45 43.83 207.37 92.94 214.77 216.54 216.27 241.66 217.43 388.46 217.43 388.46 217.43 388.46 228.29 398.44 239.6 388.46 239.6 388.46 236.94 251.19 236.27 230.04 235.6 208.89 233.71 159.23 236.05 149.03 236.05 149.03 253.56 157.01 271.52 157.23 289.48 157.45 305.88 157.23 312.98 177.18 320.08 197.13 328.06 233.3 341.58 247.25 341.58 247.25 348.67 248.29 350.45 241.44 350.45 241.44 335.72 219.76 332.66 201.51 329.6 183.26 324.29 171.19 322.96 168.98 321.63 166.77 327.5 165.77 332.94 157.23 338.37 148.69 344.63 137.78 355.94 135.78 367.25 133.78 372.57 138.94 381.71 132.62 390.85 126.3 402.16 130.17 409.31 129.07 416.46 127.97 420.06 125.97 421.06 125.31 422.06 124.64 429.6 126.31 433.47 125.86 437.35 125.42 436.74 131.89 438.1 134.14 438.1 134.14 438.46 128.85 437.02 126.08 435.58 123.31 441.34 126.4 443.45 129.07 445.56 131.74 454.2 131.74 460.41 130.41 460.41 130.41 449.1 132.07 445.22 127.75 441.34 123.43 439.01 122.54 432.36 122.1 425.71 121.66 422.61 121.88 426.93 119.44 431.25 117 434.8 113.73 436.13 112.98 437.46 112.23 445.33 126.42 462.18 123.76 462.18 123.76 462.85 122.1 462.18 121.43 462.18 121.43 448.3 123.82 438.35 111.56 436.91 109.79 442.67 108.01 443.45 108.79 444.23 109.57 453.35 116 462.48 115.11 462.48 115.11 462.38 113.71 462.32 112.94 462.32 112.94 449.05 110.84 446.67 107.13 444.9 104.36 452.66 103.03 456.98 99.59 461.3 96.15 459.57 95.82 461.6 94.82L461.45 91.78C461.45 91.78 457.2 96.04 450.66 99.04 444.12 102.03 436.91 104.8 429.82 110.79 422.73 116.78 416.52 122.98 405.32 122.32 394.12 121.65 385.26 121.21 377.16 126.31 366.7 132.9 356.21 120.1 340.36 133.29 327.19 144.25 325.59 153.84 316.08 154.13 306.57 154.42 309.63 142.93 282.65 140.16 255.67 137.39 238.49 139.72 222.31 109.01 206.13 78.3 186.01 44.83 161.4 23.88Z" fill="#3E5FFF"/><path d="M161.4 23.88C161.4 23.88 141.11 20.72 138.45 43.83 138.45 43.83 207.37 92.94 214.77 216.54 216.27 241.66 217.43 388.46 217.43 388.46 217.43 388.46 228.29 398.44 239.6 388.46 239.6 388.46 236.94 251.19 236.27 230.04 235.6 208.89 233.71 159.23 236.05 149.03 236.05 149.03 253.56 157.01 271.52 157.23 289.48 157.45 305.88 157.23 312.98 177.18 320.08 197.13 328.06 233.3 341.58 247.25 341.58 247.25 348.67 248.29 350.45 241.44 350.45 241.44 335.72 219.76 332.66 201.51 329.6 183.26 324.29 171.19 322.96 168.98 321.63 166.77 327.5 165.77 332.94 157.23 338.37 148.69 344.63 137.78 355.94 135.78 367.25 133.78 372.57 138.94 381.71 132.62 390.85 126.3 402.16 130.17 409.31 129.07 416.46 127.97 420.06 125.97 421.06 125.31 422.06 124.64 429.6 126.31 433.47 125.86 437.35 125.42 436.74 131.89 438.1 134.14 438.1 134.14 438.46 128.85 437.02 126.08 435.58 123.31 441.34 126.4 443.45 129.07 445.56 131.74 454.2 131.74 460.41 130.41 460.41 130.41 449.1 132.07 445.22 127.75 441.34 123.43 439.01 122.54 432.36 122.1 425.71 121.66 422.61 121.88 426.93 119.44 431.25 117 434.8 113.73 436.13 112.98 437.46 112.23 445.33 126.42 462.18 123.76 462.18 123.76 462.85 122.1 462.18 121.43 462.18 121.43 448.3 123.82 438.35 111.56 436.91 109.79 442.67 108.01 443.45 108.79 444.23 109.57 453.35 116 462.48 115.11 462.48 115.11 462.38 113.71 462.32 112.94 462.32 112.94 449.05 110.84 446.67 107.13 444.9 104.36 452.66 103.03 456.98 99.59 461.3 96.15 459.57 95.82 461.6 94.82L461.45 91.78C461.45 91.78 457.2 96.04 450.66 99.04 444.12 102.03 436.91 104.8 429.82 110.79 422.73 116.78 416.52 122.98 405.32 122.32 394.12 121.65 385.26 121.21 377.16 126.31 366.7 132.9 356.21 120.1 340.36 133.29 327.19 144.25 325.59 153.84 316.08 154.13 306.57 154.42 309.63 142.93 282.65 140.16 255.67 137.39 238.49 139.72 222.31 109.01 206.13 78.3 186.01 44.83 161.4 23.88Z" stroke="#333333" stroke-linecap="round" stroke-linejoin="round" stroke-miterlimit="10" fill="none"/><path d="M145.77 30.7C145.77 30.7 151.76 24.22 160.07 25.38 160.07 25.38 179.89 41.41 198.81 70.94 198.81 70.94 161.73 22.22 145.77 30.7Z" fill="#5377F9"/><path d="M246.78 147.49C243.08 146.09 239.24 144.67 235.29 144.89 234.61 144.93 233.92 145.02 233.31 145.33 231.4 146.31 231.14 148.89 231.11 151.03 231.02 158.94 230.75 166.85 230.29 174.75 230.04 179.19 229.7 183.73 227.89 187.78 227.72 188.15 227.49 188.57 227.08 188.64 226.64 188.71 226.26 188.33 226.01 187.95 225.07 186.53 224.72 184.8 224.41 183.13 223.26 177.03 222.25 170.89 220.75 164.86 218.13 154.29 214.06 144.15 210.07 134.02 208.65 130.41 207.22 126.73 206.92 122.86 206.79 121.2 207.2 119.08 208.83 118.7 209.25 118.6 209.7 118.65 210.13 118.72 214.39 119.4 217.97 122.17 221.47 124.7 229.55 130.55 238.23 135.57 247.33 139.67 249.44 140.62 251.58 141.53 253.52 142.79 255.77 144.25 257.7 146.16 259.6 148.05 260.14 148.59 260.73 149.25 260.64 150.01 260.17 153.96 248.5 148.14 246.78 147.49Z" fill="#5377F9"/><path d="M312.95 157.29C314.32 157.81 315.77 158.14 317.23 158.15 322.08 158.16 326.18 154.6 329.21 150.81 330.34 149.39 331.48 147.85 333.16 147.15 333.97 149.45 332.03 151.72 330.25 153.39 328.3 155.22 326.35 157.05 324.4 158.88 322.05 161.08 319.59 163.48 318.9 166.62 318.48 168.53 318.76 170.52 319.05 172.45 319.5 175.46 319.94 178.47 320.39 181.48 319.48 181.65 318.69 180.84 318.18 180.06 315.97 176.73 315.14 172.68 313.4 169.08 311.71 165.58 309.16 162.5 306.02 160.2 304.59 159.15 294.52 152.17 300.65 151.19 305.29 150.46 308.96 155.77 312.95 157.29Z" fill="#5377F9"/><path d="M340.04 137.71C343.88 132.63 350.48 129.79 356.81 130.5 358.98 130.74 361.1 131.37 363.27 131.59 366.54 131.93 369.83 131.36 373.06 130.79 369.21 133.66 364.03 133.76 359.22 133.82 354.41 133.87 349.2 134.14 345.52 137.22 344.58 138.01 343.77 138.96 342.76 139.67 341.75 140.38 340.45 140.82 339.28 140.42" fill="#5377F9"/><path d="M219.26 313.53C219.26 313.53 218.84 383.27 219.26 386.69 219.68 390.11 232.4 392.68 236.72 388.02 241.04 383.36 218.26 403.31 219.26 313.53Z" fill="#5377F9"/><ellipse cx="316.11" cy="158.47" rx="1.75" ry="0.92" fill="#FFFFFF"/><ellipse cx="234.39" cy="144.68" rx="1.66" ry="1.08" fill="#FFFFFF"/></g><g id="Calque_16"><g><path d="M386.5 157.54C386.48 156.82 386.46 156.09 386.44 155.37 386.4 156.1 386.4 156.82 386.5 157.54Z" fill="#F90606"/><path d="M255.47 87.18C255.47 87.18 254 93.28 252.57 97.71 251.14 102.14 246.62 107.06 233.28 105.8 219.94 104.55 198.37 93.5 183.63 115.67 183.63 115.67 182.85 120.33 189.62 122.65 189.62 122.65 195.16 111.01 206.36 111.34 217.56 111.67 242.85 123.87 258.23 107.24 259.46 105.91 264.99 117.88 279.35 116.44 293.71 115 298.04 109.68 309.68 111.9 320.55 113.97 321.85 126.57 334.3 125.57 334.25 126.13 334.13 126.68 333.96 127.21 333.56 128.5 332.94 129.72 332.61 131.03 332 133.39 332.27 136.06 330.88 138.07 329.46 140.12 326.81 140.78 324.52 141.77 322.45 142.66 320.54 143.93 318.91 145.48 322.29 143.41 325.94 141.79 329.75 140.68 327.26 144.08 326.59 148.46 326.23 152.66 326.84 148.36 328.73 144.24 331.59 140.97 332.75 139.64 334.11 138.4 334.74 136.75 335.38 135.08 335.19 133.19 335.74 131.48 336.23 129.96 337.27 128.66 337.72 127.13 337.93 126.42 338.03 125.64 338.17 124.9 350.11 121.98 359.01 114.13 368.81 117.47 374.44 119.39 378.11 121.12 381.92 121.62 381.92 125.35 381.93 129.09 381.93 132.82 381.93 134.78 381.91 136.83 381.04 138.59 380.21 140.26 378.7 141.47 377.49 142.89 375.26 145.51 374.06 148.9 373.64 152.32 374.56 147.75 378.1 144.19 381.79 141.35 383.76 143.79 383.25 143.94 384.26 146.1 384.48 146.58 384.9 146.96 385.09 147.46 385.33 148.07 385.35 148.73 385.36 149.38 385.4 150.97 386.4 153.79 386.45 155.38 386.57 153.21 387.12 151.03 386.96 148.85 386.85 147.38 386.42 145.93 385.71 144.64 385.15 143.63 384.42 142.7 384.1 141.6 383.63 139.94 384.17 138.19 384.62 136.52 385.93 131.69 386.45 126.64 386.19 121.64 387.99 121.42 389.96 120.9 392.25 119.99 401.78 116.22 403.45 116.11 406.99 116.89 407.32 116.96 407.7 117.03 408.1 117.08 413.49 122.79 416.67 130.33 419.16 137.83 419.46 138.73 419.75 139.65 419.75 140.6 419.75 141.52 419.47 142.42 419.46 143.34 419.45 145.22 420.58 146.89 421.67 148.43 420.54 145.7 420.75 143.4 421.07 140.47 422.3 142.02 423.47 142.24 425.09 143.38 428.56 145.83 431.18 149.27 433.73 152.66 431.63 147.84 427.86 143.99 424.11 140.31 423.04 139.26 421.95 138.2 421.17 136.91 419.96 134.92 419.56 132.56 418.98 130.31 417.76 125.58 415.6 121.11 412.7 117.19 416.06 116.89 420.07 115.7 423.64 112.61 425.85 112.84 428.03 113.32 430.04 114.25 432.29 115.28 434.3 116.83 436.63 117.67 438.29 118.26 440.06 118.48 441.74 119.01 442.91 119.38 444.02 119.9 445.09 120.49 445.28 121.34 445.34 122.23 445.3 123.11 445.23 124.73 444.86 126.33 444.58 127.93 444.31 129.53 444.13 131.18 444.43 132.78 444.52 133.23 444.64 133.67 444.76 134.11 445.21 135.69 445.69 137.27 446.21 138.83 445.83 136.4 445.6 133.87 446.25 131.5 446.4 130.94 446.61 130.4 446.78 129.84 447.57 127.37 447.85 124.77 447.83 122.17 448.69 122.72 449.55 123.29 450.43 123.81 451.94 124.72 453.5 125.54 455.1 126.25 457.04 127.12 459.11 127.85 461.23 127.76 461.19 126.82 461.1 125.92 461.46 125.07 456.67 124.55 452.76 122.54 449.22 119.26 448.49 118.59 447.81 117.87 447.04 117.24 445.38 115.89 443.35 115.01 441.23 114.73 440.07 114.58 438.88 114.6 437.76 114.27 435.55 113.62 433.93 111.73 431.84 110.74 430.21 109.97 428.4 109.79 426.59 109.58 428.81 107.17 431.25 104.58 434.57 102.04 436.97 102.65 439.22 103.9 441.17 105.46 443.77 107.55 445.87 110.19 447.87 112.85 448.78 114.06 449.69 115.31 450.94 116.17 452.78 117.44 455.11 117.73 457.34 117.88 458.8 117.98 460.59 118.1 462.06 118.1 462.16 117.57 462.12 117.04 462.12 116.46 459.97 116.14 457.27 115.67 455.17 115.08 454.46 114.88 453.74 114.66 453.1 114.3 452.3 113.84 451.64 113.17 451.04 112.48 449.89 111.16 448.88 109.72 448.02 108.19 450.87 108.74 453.86 109.27 456.62 108.37 457.14 108.2 457.65 107.98 458.18 107.85 459.3 107.58 461.25 107.81 462.38 108.03 462.32 107.34 462.22 106.49 462.26 105.7 460.35 105.98 457.9 106.45 455.98 106.73 454.69 106.92 453.4 107.11 452.1 107.09 451.02 107.07 449.95 106.9 448.9 106.67 447.59 106.38 446.27 105.97 445.17 105.19 444.42 104.66 443.8 103.99 443.14 103.35 441.6 101.88 439.83 100.65 437.93 99.7 439.22 98.88 440.64 98.08 442.2 97.3 443.66 97.39 445.11 97.66 446.5 98.14 448.96 98.98 451.25 100.41 453.84 100.67 454.57 100.74 455.31 100.72 456.04 100.69 458.07 100.61 460.28 100.66 462.3 100.54 462.26 99.93 462.28 99.05 462.22 98.34 461.54 98.4 460.71 98.4 460.02 98.46 458.81 98.56 457.58 98.66 456.38 98.48 455.53 98.36 454.71 98.1 453.88 97.88 452.3 97.48 450.67 97.23 449.15 96.65 448.3 96.32 447.48 95.86 446.8 95.25 451.08 93.54 455.12 92.23 461.49 90.98 461.49 90.98 461.3 87.24 460.09 85.99 457.87 85.21 439.69 89.98 429.5 98.63 419.31 107.28 416.09 108.4 408.33 107.39 403.01 106.69 399.31 107.17 392.99 110.6 386.67 114.04 381.4 113.48 372.2 109.05 364.03 105.11 353.58 109.27 348.26 111.82 342.94 114.37 332.3 119.25 325.31 111.38 319.59 104.93 313.12 101.18 302.25 102.73 291.39 104.28 278.53 110.71 270.22 104.17 261.91 97.63 269.44 87.99 269.44 87.99" fill="#F90606"/></g><g><path d="M386.5 157.54C386.48 156.82 386.46 156.09 386.44 155.37 386.4 156.1 386.4 156.82 386.5 157.54Z" stroke="#333333" stroke-linecap="round" stroke-linejoin="round" stroke-miterlimit="10" fill="none"/><path d="M255.47 87.18C255.47 87.18 254 93.28 252.57 97.71 251.14 102.14 246.62 107.06 233.28 105.8 219.94 104.55 198.37 93.5 183.63 115.67 183.63 115.67 182.85 120.33 189.62 122.65 189.62 122.65 195.16 111.01 206.36 111.34 217.56 111.67 242.85 123.87 258.23 107.24 259.46 105.91 264.99 117.88 279.35 116.44 293.71 115 298.04 109.68 309.68 111.9 320.55 113.97 321.85 126.57 334.3 125.57 334.25 126.13 334.13 126.68 333.96 127.21 333.56 128.5 332.94 129.72 332.61 131.03 332 133.39 332.27 136.06 330.88 138.07 329.46 140.12 326.81 140.78 324.52 141.77 322.45 142.66 320.54 143.93 318.91 145.48 322.29 143.41 325.94 141.79 329.75 140.68 327.26 144.08 326.59 148.46 326.23 152.66 326.84 148.36 328.73 144.24 331.59 140.97 332.75 139.64 334.11 138.4 334.74 136.75 335.38 135.08 335.19 133.19 335.74 131.48 336.23 129.96 337.27 128.66 337.72 127.13 337.93 126.42 338.03 125.64 338.17 124.9 350.11 121.98 359.01 114.13 368.81 117.47 374.44 119.39 378.11 121.12 381.92 121.62 381.92 125.35 381.93 129.09 381.93 132.82 381.93 134.78 381.91 136.83 381.04 138.59 380.21 140.26 378.7 141.47 377.49 142.89 375.26 145.51 374.06 148.9 373.64 152.32 374.56 147.75 378.1 144.19 381.79 141.35 383.76 143.79 383.25 143.94 384.26 146.1 384.48 146.58 384.9 146.96 385.09 147.46 385.33 148.07 385.35 148.73 385.36 149.38 385.4 150.97 386.4 153.79 386.45 155.38 386.57 153.21 387.12 151.03 386.96 148.85 386.85 147.38 386.42 145.93 385.71 144.64 385.15 143.63 384.42 142.7 384.1 141.6 383.63 139.94 384.17 138.19 384.62 136.52 385.93 131.69 386.45 126.64 386.19 121.64 387.99 121.42 389.96 120.9 392.25 119.99 401.78 116.22 403.45 116.11 406.99 116.89 407.32 116.96 407.7 117.03 408.1 117.08 413.49 122.79 416.67 130.33 419.16 137.83 419.46 138.73 419.75 139.65 419.75 140.6 419.75 141.52 419.47 142.42 419.46 143.34 419.45 145.22 420.58 146.89 421.67 148.43 420.54 145.7 420.75 143.4 421.07 140.47 422.3 142.02 423.47 142.24 425.09 143.38 428.56 145.83 431.18 149.27 433.73 152.66 431.63 147.84 427.86 143.99 424.11 140.31 423.04 139.26 421.95 138.2 421.17 136.91 419.96 134.92 419.56 132.56 418.98 130.31 417.76 125.58 415.6 121.11 412.7 117.19 416.06 116.89 420.07 115.7 423.64 112.61 425.85 112.84 428.03 113.32 430.04 114.25 432.29 115.28 434.3 116.83 436.63 117.67 438.29 118.26 440.06 118.48 441.74 119.01 442.91 119.38 444.02 119.9 445.09 120.49 445.28 121.34 445.34 122.23 445.3 123.11 445.23 124.73 444.86 126.33 444.58 127.93 444.31 129.53 444.13 131.18 444.43 132.78 444.52 133.23 444.64 133.67 444.76 134.11 445.21 135.69 445.69 137.27 446.21 138.83 445.83 136.4 445.6 133.87 446.25 131.5 446.4 130.94 446.61 130.4 446.78 129.84 447.57 127.37 447.85 124.77 447.83 122.17 448.69 122.72 449.55 123.29 450.43 123.81 451.94 124.72 453.5 125.54 455.1 126.25 457.04 127.12 459.11 127.85 461.23 127.76 461.19 126.82 461.1 125.92 461.46 125.07 456.67 124.55 452.76 122.54 449.22 119.26 448.49 118.59 447.81 117.87 447.04 117.24 445.38 115.89 443.35 115.01 441.23 114.73 440.07 114.58 438.88 114.6 437.76 114.27 435.55 113.62 433.93 111.73 431.84 110.74 430.21 109.97 428.4 109.79 426.59 109.58 428.81 107.17 431.25 104.58 434.57 102.04 436.97 102.65 439.22 103.9 441.17 105.46 443.77 107.55 445.87 110.19 447.87 112.85 448.78 114.06 449.69 115.31 450.94 116.17 452.78 117.44 455.11 117.73 457.34 117.88 458.8 117.98 460.59 118.1 462.06 118.1 462.16 117.57 462.12 117.04 462.12 116.46 459.97 116.14 457.27 115.67 455.17 115.08 454.46 114.88 453.74 114.66 453.1 114.3 452.3 113.84 451.64 113.17 451.04 112.48 449.89 111.16 448.88 109.72 448.02 108.19 450.87 108.74 453.86 109.27 456.62 108.37 457.14 108.2 457.65 107.98 458.18 107.85 459.3 107.58 461.25 107.81 462.38 108.03 462.32 107.34 462.22 106.49 462.26 105.7 460.35 105.98 457.9 106.45 455.98 106.73 454.69 106.92 453.4 107.11 452.1 107.09 451.02 107.07 449.95 106.9 448.9 106.67 447.59 106.38 446.27 105.97 445.17 105.19 444.42 104.66 443.8 103.99 443.14 103.35 441.6 101.88 439.83 100.65 437.93 99.7 439.22 98.88 440.64 98.08 442.2 97.3 443.66 97.39 445.11 97.66 446.5 98.14 448.96 98.98 451.25 100.41 453.84 100.67 454.57 100.74 455.31 100.72 456.04 100.69 458.07 100.61 460.28 100.66 462.3 100.54 462.26 99.93 462.28 99.05 462.22 98.34 461.54 98.4 460.71 98.4 460.02 98.46 458.81 98.56 457.58 98.66 456.38 98.48 455.53 98.36 454.71 98.1 453.88 97.88 452.3 97.48 450.67 97.23 449.15 96.65 448.3 96.32 447.48 95.86 446.8 95.25 451.08 93.54 455.12 92.23 461.49 90.98 461.49 90.98 461.3 87.24 460.09 85.99 457.87 85.21 439.69 89.98 429.5 98.63 419.31 107.28 416.09 108.4 408.33 107.39 403.01 106.69 399.31 107.17 392.99 110.6 386.67 114.04 381.4 113.48 372.2 109.05 364.03 105.11 353.58 109.27 348.26 111.82 342.94 114.37 332.3 119.25 325.31 111.38 319.59 104.93 313.12 101.18 302.25 102.73 291.39 104.28 278.53 110.71 270.22 104.17 261.91 97.63 269.44 87.99 269.44 87.99" stroke="#333333" stroke-linecap="round" stroke-linejoin="round" stroke-miterlimit="10" fill="none"/></g><path d="M254.13 100.36C252.87 103.16 250.84 105.73 248.07 107.04 245.8 108.11 243.14 108.31 241.06 109.71 240.64 109.99 240.21 110.4 240.26 110.91 240.34 111.72 241.46 111.86 242.26 111.71 246.25 110.96 249.69 108.55 253.37 106.82 256.03 105.57 259.17 104.68 261.85 105.87 263.44 106.58 264.64 107.93 266.01 109.02 268.37 110.91 271.33 112.03 274.35 112.2 274.53 112.21 274.73 112.21 274.89 112.11 275 112.03 275.07 111.91 275.11 111.78 275.45 110.77 274.45 109.83 273.54 109.28 271.55 108.07 269.39 107.14 267.53 105.76 265.67 104.37 264.07 102.39 263.86 100.08 263.72 98.5 264.23 96.95 264.55 95.4 264.87 93.85 264.96 92.12 264.1 90.8 263.33 89.62 261.85 88.98 260.45 89.1 258.55 89.26 256.88 90.6 256.4 92.41 255.69 95.1 255.3 97.79 254.13 100.36Z" fill="#F92D2D"/></g><g id="Calque_17"><path d="M254.13 100.36C252.87 103.16 250.84 105.73 248.07 107.04 245.8 108.11 243.14 108.31 241.06 109.71 240.64 109.99 240.21 110.4 240.26 110.91 240.34 111.72 241.46 111.86 242.26 111.71 246.25 110.96 249.69 108.55 253.37 106.82 256.03 105.57 259.17 104.68 261.85 105.87 263.44 106.58 264.64 107.93 266.01 109.02 268.37 110.91 271.33 112.03 274.35 112.2 274.53 112.21 274.73 112.21 274.89 112.11 275 112.03 275.07 111.91 275.11 111.78 275.45 110.77 274.45 109.83 273.54 109.28 271.55 108.07 269.39 107.14 267.53 105.76 265.67 104.37 264.07 102.39 263.86 100.08 263.72 98.5 264.23 96.95 264.55 95.4 264.87 93.85 264.96 92.12 264.1 90.8 263.33 89.62 261.85 88.98 260.45 89.1 258.55 89.26 256.88 90.6 256.4 92.41 255.69 95.1 255.3 97.79 254.13 100.36Z" fill="#F92D2D"/><path d="M256.95 98.64C256.67 99.65 256.46 100.91 257.26 101.59 258.17 102.35 259.63 101.62 260.18 100.57 260.73 99.52 260.72 98.28 261.06 97.14 261.34 96.2 261.84 95.34 262.12 94.41 262.67 92.55 261.67 90.39 259.6 91.58 257.8 92.61 257.46 96.83 256.95 98.64Z" fill="#F94141"/><path d="M302.11 106.15C305.96 104.91 310.34 105.41 313.81 107.5 315.62 108.59 317.16 110.07 318.76 111.46 320.29 112.79 321.89 114.06 323.62 115.11 330.25 119.13 338.83 119.75 345.96 116.7 349.08 115.37 352.02 113.36 355.39 112.98 355.67 113.38 355.22 113.87 354.81 114.14 349.64 117.55 343.86 120.27 337.7 120.88 331.54 121.49 324.95 119.77 320.62 115.34 319.36 114.06 318.3 112.57 316.85 111.51 314.28 109.64 310.91 109.4 307.74 109.24 305.94 109.14 304.13 109.05 302.33 108.95 301.7 108.92 301.04 108.87 300.52 108.51 300 108.15 299.73 107.36 300.13 106.88" fill="#F92D2D"/><path d="M378.46 114.31C383.47 115.94 389.09 115.63 393.89 113.46 396.65 112.21 399.27 110.34 402.3 110.19 404.56 110.08 406.75 110.96 408.99 111.28 412.38 111.77 415.94 110.93 418.76 108.98 419.28 108.62 419.97 108.21 420.5 108.56 421.24 109.06 420.62 110.21 419.94 110.79 416.96 113.31 413.15 114.83 409.26 115.05 406.95 115.18 404.65 114.87 402.34 114.9 394.73 114.99 387.35 118.73 379.8 117.79 378.39 117.61 376.86 117.18 376.11 115.97 375.36 114.76 376.14 112.73 377.55 112.86" fill="#F92D2D"/><path d="M224.34 106.99C222.1 105.86 219.6 105.38 217.13 104.94 212.1 104.04 206.95 103.26 201.9 104.02 196.85 104.78 191.82 107.32 189.22 111.72 188.74 112.53 188.63 113.94 189.56 114.04 189.91 114.08 190.24 113.86 190.53 113.66 195.03 110.47 199.69 106.86 205.19 106.51 208.57 106.3 211.88 107.37 215.19 108.1 217.46 108.6 219.76 108.94 222.07 109.13 223.22 109.22 224.83 108.85 224.74 107.7" fill="#F92D2D"/><path d="M281.32 19.14C271.68 16.78 261.42 16.98 251.88 19.72 250.65 20.07 249.32 20.56 248.73 21.7 248.34 22.47 248.37 23.38 248.41 24.24 249.09 41.7 243.53 59.37 247.1 76.48 247.4 77.92 248.58 79.76 249.87 79.05 250.49 78.71 250.69 77.93 250.83 77.23 251.34 74.66 251.85 72.09 252.36 69.51 253.11 65.71 253.87 61.9 254.19 58.03 254.46 54.74 254.42 51.42 254.98 48.17 257.01 36.45 267.12 27.1 278.6 23.97 280.09 23.56 282.04 22.51 281.48 21.07" fill="#F92D2D"/><ellipse cx="363.09" cy="110.23" rx="3.57" ry="1.66" fill="#F94646"/><ellipse cx="308.72" cy="105.38" rx="3.57" ry="1.66" fill="#F94646"/><ellipse cx="403.16" cy="110.23" rx="3.57" ry="1.66" fill="#F94646"/><ellipse cx="311.29" cy="105.31" rx="1.58" ry="0.79" fill="#FFFFFF"/><ellipse cx="203.88" cy="105.31" rx="3.57" ry="1.66" fill="#F94646"/><ellipse cx="206.46" cy="105.25" rx="1.58" ry="0.79" fill="#FFFFFF"/><ellipse cx="365.66" cy="110.17" rx="1.58" ry="0.79" fill="#FFFFFF"/><ellipse cx="406.73" cy="109.38" rx="1.58" ry="0.79" fill="#FFFFFF"/><path d="M245.9 22C245.72 21.58 245.25 66.56 245.25 66.56 245.25 66.56 246.88 24.22 245.9 22Z" fill="#FFFFFF"/><path d="M244.87 375.54 244.87 316.51C244.87 316.52 246.05 370.5 244.87 375.54Z" fill="#FFFFFF"/><path d="M145.77 30.7C145.77 30.7 151.76 24.22 160.07 25.38 160.07 25.38 179.89 41.41 198.81 70.94 198.81 70.94 161.73 22.22 145.77 30.7Z" fill="#5377F9"/><path d="M219.26 313.53C219.26 313.53 218.84 383.27 219.26 386.69 219.68 390.11 232.4 392.68 236.72 388.02 241.04 383.36 218.26 403.31 219.26 313.53Z" fill="#5377F9"/></g></g></g></svg>