<svg viewBox="0 0 376.88 406.59" xmlns="http://www.w3.org/2000/svg" xmlns:xlink="http://www.w3.org/1999/xlink" id="INTESTIN" xml:space="preserve" overflow="hidden"><g><g><path d="M69.67 178.01 77.07 172.4 89.54 168.52 101.34 171.31 106.16 176.96 110.32 184.02 111.98 200.13 118.24 212.55 126.28 225.22 136.08 239.36 139.66 253.74 126.94 287.74 116.38 288.74 76.9 249.74C76.9 249.74 60.69 210.92 60.69 211.08 60.69 211.24 64.02 180.76 64.02 180.76L69.67 178.01Z" fill="#F48794"/><path d="M114.26 183.85C114.26 183.85 111.38 171.21 95.64 167.67 79.9 164.13 68.15 176.76 68.15 176.76L72.14 181.86C72.14 181.86 73.58 180.53 73.25 178.65 72.92 176.77 73.8 175.55 74.69 176.77 75.58 177.99 77.13 180.1 77.35 177.99 77.57 175.88 79.01 173.22 80.23 173.22 81.45 173.22 81.12 175.66 83.89 174.11 86.66 172.56 87.22 169.9 89.21 170.45 91.21 171 89.54 174.22 91.21 173.44 92.88 172.66 94.09 169.67 95.87 171 97.64 172.33 96.09 174.92 97.64 175.45 99.19 175.98 100.97 172.99 102.07 174.32 103.18 175.65 102.18 178.98 102.96 179.64 103.74 180.31 105.07 177.87 105.18 180.31 105.29 182.75 106.51 183.86 106.51 183.86L114.26 183.86Z" fill="#FCDCD4"/><path d="M114.26 183.85C114.26 183.85 111.38 171.21 95.64 167.67 79.9 164.13 68.15 176.76 68.15 176.76L72.14 181.86C72.14 181.86 73.58 180.53 73.25 178.65 72.92 176.77 73.8 175.55 74.69 176.77 75.58 177.99 77.13 180.1 77.35 177.99 77.57 175.88 79.01 173.22 80.23 173.22 81.45 173.22 81.12 175.66 83.89 174.11 86.66 172.56 87.22 169.9 89.21 170.45 91.21 171 89.54 174.22 91.21 173.44 92.88 172.66 94.09 169.67 95.87 171 97.64 172.33 96.09 174.92 97.64 175.45 99.19 175.98 100.97 172.99 102.07 174.32 103.18 175.65 102.18 178.98 102.96 179.64 103.74 180.31 105.07 177.87 105.18 180.31 105.29 182.75 106.51 183.86 106.51 183.86L114.26 183.86Z" stroke="#333333" stroke-linecap="round" stroke-linejoin="round" stroke-miterlimit="10" fill="none"/><path d="M68.14 176.75C60.82 248.58 118.24 284.27 118.24 284.27 118.24 284.27 118.12 279.43 118.24 277.67 118.24 277.67 117.05 278.18 115.97 276.43 114.89 274.68 115.06 275.27 113.14 274.27 111.23 273.27 110.48 273.19 110.31 271.94 110.14 270.69 109.48 268.61 107.82 268.28 106.16 267.95 103.58 267.45 103.5 265.87 103.42 264.29 103.5 263.21 101.59 262.38 99.68 261.55 96.85 261.47 96.02 258.56 95.19 255.65 95.54 252.57 92.87 251.74 90.2 250.91 87.79 249.83 88.62 246.59 89.45 243.35 88.87 242.77 86.21 241.85 83.55 240.94 82.14 240.27 82.47 237.36 82.8 234.45 84.05 232.62 81.14 230.96 78.23 229.3 76.57 227.05 76.82 225.06 77.07 223.06 78.48 221.15 75.82 218.82 73.16 216.49 72.99 215.33 73.66 212.42 74.33 209.51 76.4 205.52 73.66 203.19 70.92 200.86 71 199.78 71.91 197.62 72.82 195.46 74.57 191.47 72.74 189.72 70.91 187.97 72.13 181.85 72.13 181.85L68.14 176.75Z" fill="#F9E7E4"/><path d="M68.14 176.75C60.82 248.58 118.24 284.27 118.24 284.27 118.24 284.27 118.12 279.43 118.24 277.67 118.24 277.67 117.05 278.18 115.97 276.43 114.89 274.68 115.06 275.27 113.14 274.27 111.23 273.27 110.48 273.19 110.31 271.94 110.14 270.69 109.48 268.61 107.82 268.28 106.16 267.95 103.58 267.45 103.5 265.87 103.42 264.29 103.5 263.21 101.59 262.38 99.68 261.55 96.85 261.47 96.02 258.56 95.19 255.65 95.54 252.57 92.87 251.74 90.2 250.91 87.79 249.83 88.62 246.59 89.45 243.35 88.87 242.77 86.21 241.85 83.55 240.94 82.14 240.27 82.47 237.36 82.8 234.45 84.05 232.62 81.14 230.96 78.23 229.3 76.57 227.05 76.82 225.06 77.07 223.06 78.48 221.15 75.82 218.82 73.16 216.49 72.99 215.33 73.66 212.42 74.33 209.51 76.4 205.52 73.66 203.19 70.92 200.86 71 199.78 71.91 197.62 72.82 195.46 74.57 191.47 72.74 189.72 70.91 187.97 72.13 181.85 72.13 181.85L68.14 176.75Z" stroke="#333333" stroke-linecap="round" stroke-linejoin="round" stroke-miterlimit="10" fill="none"/><path d="M114.26 183.85C114.26 183.85 107.42 203.69 139.67 236.95 139.67 236.95 136.37 238.3 133.03 242.2 133.03 242.2 130.77 239.6 130.61 237.94 130.44 236.28 130.53 236.11 128.28 235.28 126.04 234.45 125.62 234.03 125.79 232.12 125.96 230.21 126.62 228.63 124.13 227.96 121.64 227.29 121.14 227.05 121.3 225.38 121.47 223.72 122.46 220.39 119.72 219.56 116.98 218.73 116.31 218.15 116.23 216.23 116.15 214.32 114.82 211.82 113.15 211.33 111.48 210.84 111.15 210.66 111.49 208.59 111.83 206.52 111.74 205.85 110.58 205.43 109.42 205.01 110.5 202.94 109.08 202.27 107.67 201.6 107 201.11 107.33 199.44 107.66 197.77 109.07 196.2 107.25 194.78 105.43 193.36 105.17 192.54 106 190.87 106.83 189.2 107.61 185.95 106.5 183.83L114.26 183.83Z" fill="#F9E7E4"/><path d="M114.26 183.85C114.26 183.85 107.42 203.69 139.67 236.95 139.67 236.95 136.37 238.3 133.03 242.2 133.03 242.2 130.77 239.6 130.61 237.94 130.44 236.28 130.53 236.11 128.28 235.28 126.04 234.45 125.62 234.03 125.79 232.12 125.96 230.21 126.62 228.63 124.13 227.96 121.64 227.29 121.14 227.05 121.3 225.38 121.47 223.72 122.46 220.39 119.72 219.56 116.98 218.73 116.31 218.15 116.23 216.23 116.15 214.32 114.82 211.82 113.15 211.33 111.48 210.84 111.15 210.66 111.49 208.59 111.83 206.52 111.74 205.85 110.58 205.43 109.42 205.01 110.5 202.94 109.08 202.27 107.67 201.6 107 201.11 107.33 199.44 107.66 197.77 109.07 196.2 107.25 194.78 105.43 193.36 105.17 192.54 106 190.87 106.83 189.2 107.61 185.95 106.5 183.83L114.26 183.83Z" stroke="#333333" stroke-linecap="round" stroke-linejoin="round" stroke-miterlimit="10" fill="none"/><path d="M74.72 203.86C75.82 205.8 76.24 208.04 77.1 210.09 78.41 213.19 80.75 215.81 83.56 217.65 86.38 219.49 89.66 220.57 92.99 220.99 90.5 220.88 87.93 220.76 85.66 219.73 84.72 219.3 83.86 218.73 83.06 218.09 79.7 215.4 77.5 211.54 75.59 207.69 75.23 206.93 74.72 203.86 74.72 203.86Z" fill="#333333"/><path d="M100.85 217.98C101.52 218.67 102.73 218.58 103.47 217.96 103.92 217.58 105.2 215.66 103.87 215.75 103.53 215.78 102.75 216.75 102.46 216.97 101.96 217.37 101.43 217.72 100.85 217.98Z" fill="#333333"/><path d="M88.01 242.24C91.79 243.98 96.13 244.51 100.22 243.71 98.77 243.89 97.42 244.56 95.98 244.82 94.18 245.15 92.33 244.84 90.52 244.53 90.15 244.47 89.76 244.4 89.44 244.2 89.12 244 88.87 243.64 88.91 243.26" fill="#333333"/><path d="M123.13 246.35C122.34 249.93 120.7 253.43 117.91 255.82 121.05 253.62 123.37 250.27 124.32 246.56 124.83 244.57 124.96 242.5 125.06 240.45 125.09 239.84 125.5 237.18 124.96 236.8 124 236.13 123.92 238.23 123.91 238.56 123.86 241.17 123.7 243.79 123.13 246.35Z" fill="#333333"/><path d="M108.35 237.52C107.54 238.16 106.61 238.65 105.62 238.95 106.09 239.29 106.7 239.45 107.26 239.3 107.82 239.15 108.29 238.66 108.35 238.09 108.18 238.35 108 238.6 107.83 238.86" fill="#333333"/><path d="M104.4 58.56C104.4 58.56 43.33 98.21 55.41 208.65 58.51 237.03 83.04 301.39 153.4 311.52 216.58 320.61 258.49 269.89 258.49 269.89 258.49 269.89 261.33 341.89 262.48 350.54 262.48 350.54 294.63 371.38 318.13 347.88 318.13 347.88 318.35 265.19 318.13 250.11 317.91 235.03 315.03 194.46 275.79 192.78 242.43 191.35 207.51 255.21 163.17 243.46 156.31 241.64 148.32 235.26 142.11 235.92 135.9 236.58 116.84 255.21 118.39 284.03 118.39 284.03 60.97 248.34 68.29 176.51 68.29 176.51 80.04 163.87 95.78 167.42 111.52 170.97 114.4 183.6 114.4 183.6 114.4 183.6 111.74 131.5 142.33 117.98L104.4 58.56Z" fill="#F7C3B2"/><path d="M104.28 58.81C104.28 58.81 43.21 98.46 55.29 208.9 58.39 237.28 82.92 301.64 153.28 311.77 216.46 320.86 258.37 270.14 258.37 270.14 258.37 270.14 261.21 342.14 262.36 350.79 262.36 350.79 294.51 371.63 318.01 348.13 318.01 348.13 318.23 265.44 318.01 250.36 317.79 235.28 314.91 194.71 275.67 193.03 242.31 191.6 207.39 255.46 163.05 243.71 156.19 241.89 148.2 235.51 141.99 236.17 135.78 236.84 116.72 255.46 118.27 284.28 118.27 284.28 60.85 248.59 68.17 176.76 68.17 176.76 79.92 164.12 95.66 167.67 111.4 171.22 114.28 183.85 114.28 183.85 114.28 183.85 111.62 131.75 142.21 118.23L104.28 58.81Z" stroke="#333333" stroke-linecap="round" stroke-linejoin="round" stroke-miterlimit="10" fill="none"/><path d="M257.82 270.01C257.82 270.01 261.71 265 268.48 265 268.48 265 258.36 267.14 259 273.5L257.82 270.01Z" fill="#333333"/><path d="M104.28 58.81C94.74 68.06 125.67 126.76 142.19 118.22 159.81 105.03 119.13 44.4 104.28 58.81Z" fill="#FCDCD4"/><path d="M104.28 58.81C94.74 68.06 125.67 126.76 142.19 118.22 159.81 105.03 119.13 44.4 104.28 58.81Z" stroke="#333333" stroke-linecap="round" stroke-linejoin="round" stroke-miterlimit="10" fill="none"/><path d="M110.32 60.7C109.41 61.28 110.56 62.71 109.24 63.61 107.92 64.51 107.08 63.86 107.16 65.36 107.24 66.86 105.66 68.6 106.41 70.26 107.16 71.92 109.24 72.75 108.65 74.58 108.07 76.41 107.82 77.91 109.65 78.99 111.48 80.07 111.89 80.9 111.56 83.15 111.23 85.4 112.81 88.22 114.55 89.3 116.3 90.38 117.21 89.8 117.54 92.96 117.87 96.12 117.96 96.87 119.54 97.78 121.12 98.69 121.54 97.95 122.03 99.86 122.53 101.77 122.45 101.94 123.94 103.02 125.44 104.1 126.02 104.1 126.68 105.43 127.35 106.76 129.84 110.09 131.17 110.25 132.5 110.42 134.16 111.66 134.99 112.83 135.82 113.99 138.32 115.49 139.48 114.99 140.64 114.49 142.31 112.75 141.64 111.08 140.97 109.41 141.53 107.34 141.79 106.18 142.05 105.02 142.3 102.52 141.06 101.69 139.81 100.86 140.56 96.87 140.81 95.79 141.06 94.71 140.48 92.71 138.98 91.38 137.48 90.05 136.49 87.85 136.49 87.85 136.07 86.14 136.57 82.98 134.25 82.32 131.93 81.66 130.92 81.65 130.43 78.83 129.93 76 129.6 74.59 127.6 73.59 125.6 72.59 127.22 72.01 124.5 70.26 121.78 68.51 119.87 66.85 118.45 66.69 117.04 66.52 117.12 66.19 116.79 65.11 116.46 64.03 115.38 63.03 114.3 63.11 113.23 63.19 111.9 59.7 110.32 60.7Z" fill="#F48794"/><path d="M110.32 60.7C109.41 61.28 110.56 62.71 109.24 63.61 107.92 64.51 107.08 63.86 107.16 65.36 107.24 66.86 105.66 68.6 106.41 70.26 107.16 71.92 109.24 72.75 108.65 74.58 108.07 76.41 107.82 77.91 109.65 78.99 111.48 80.07 111.89 80.9 111.56 83.15 111.23 85.4 112.81 88.22 114.55 89.3 116.3 90.38 117.21 89.8 117.54 92.96 117.87 96.12 117.96 96.87 119.54 97.78 121.12 98.69 121.54 97.95 122.03 99.86 122.53 101.77 122.45 101.94 123.94 103.02 125.44 104.1 126.02 104.1 126.68 105.43 127.35 106.76 129.84 110.09 131.17 110.25 132.5 110.42 134.16 111.66 134.99 112.83 135.82 113.99 138.32 115.49 139.48 114.99 140.64 114.49 142.31 112.75 141.64 111.08 140.97 109.41 141.53 107.34 141.79 106.18 142.05 105.02 142.3 102.52 141.06 101.69 139.81 100.86 140.56 96.87 140.81 95.79 141.06 94.71 140.48 92.71 138.98 91.38 137.48 90.05 136.49 87.85 136.49 87.85 136.07 86.14 136.57 82.98 134.25 82.32 131.93 81.66 130.92 81.65 130.43 78.83 129.93 76 129.6 74.59 127.6 73.59 125.6 72.59 127.22 72.01 124.5 70.26 121.78 68.51 119.87 66.85 118.45 66.69 117.04 66.52 117.12 66.19 116.79 65.11 116.46 64.03 115.38 63.03 114.3 63.11 113.23 63.19 111.9 59.7 110.32 60.7Z" stroke="#333333" stroke-linecap="round" stroke-linejoin="round" stroke-miterlimit="10" fill="none"/><path d="M118.3 74.91C118.3 74.91 126.95 83.56 129.19 90.21 129.19 90.21 120.05 76.66 118.3 74.91Z" fill="#333333"/><path d="M117.97 85.55C117.97 85.55 121.05 87.96 121.79 91.12L117.97 85.55Z" fill="#333333"/><path d="M131.19 95.11C131.19 95.11 132.52 98.44 132.52 100.01 132.52 101.58 131.19 95.11 131.19 95.11Z" fill="#333333"/><path d="M123.26 100.62C123.24 101.12 123.59 101.57 124 101.85 124.41 102.13 124.9 102.28 125.34 102.51 127.29 103.48 128.34 105.58 129.61 107.35 129.82 107.64 130.04 107.93 130.33 108.14 130.65 108.37 131.04 108.48 131.42 108.59 132.25 108.83 133.07 109.07 133.9 109.31 134.16 109.39 134.43 109.46 134.65 109.62 134.92 109.81 135.1 110.09 135.29 110.35 135.85 111.14 136.5 111.85 137.23 112.47 137.71 112.88 138.25 113.26 138.88 113.34 139.51 113.42 140.22 113.12 140.42 112.52 140.59 111.99 140.33 111.43 140.16 110.89 139.6 109.14 140.06 107.25 140.31 105.43 140.35 105.11 140.39 104.78 140.35 104.45 140.25 103.71 139.75 103.1 139.46 102.42 138.43 100.01 140.06 97.16 139.33 94.64 139.08 93.78 138.56 93.02 138.04 92.29 137.3 91.26 136.51 90.27 135.69 89.3 136.01 90.28 136.3 91.26 136.57 92.25 136.9 93.45 137.19 94.69 137.01 95.92 136.89 96.74 136.57 97.53 136.5 98.36 136.33 100.34 137.61 102.14 137.98 104.09 137.11 103.04 136.21 101.94 135.86 100.62 135.73 100.13 135.67 99.62 135.51 99.14 134.95 97.48 133.22 96.4 132.69 94.73 133.24 97.58 133.8 100.45 134.93 103.12 135.69 104.92 136.74 106.75 136.49 108.69 135.5 107.26 134.49 105.84 133.46 104.43 133.25 104.14 133.03 103.84 132.73 103.64 132.34 103.38 131.87 103.31 131.43 103.15 129.56 102.45 128.72 100.12 126.88 99.35 127.87 100.89 128.86 102.44 129.49 104.16 129.83 105.09 130.13 106.15 130.99 106.64 129.19 105.79 128.16 103.82 126.46 102.79 125.38 102.13 123.84 101.73 123.26 100.62" fill="#E56A85"/><path d="M114.31 64.42C115.04 64.59 115.67 65.13 115.95 65.82 116.17 66.36 116.19 66.98 116.51 67.46 116.83 67.96 117.4 68.23 117.95 68.46 119.16 68.99 120.39 69.47 121.53 70.13 122.67 70.79 123.74 71.61 124.49 72.7 124.84 73.21 125.13 73.78 125.62 74.14 126 74.41 126.46 74.53 126.87 74.74 127.65 75.14 128.26 75.87 128.49 76.72 127.97 75.89 127.05 75.41 126.14 75.05 125.23 74.69 124.88 74.03 124.11 73.42 123.18 72.69 122.43 71.66 121.57 70.84 120.64 69.94 118.99 69.72 117.77 69.28 116.77 68.91 116.05 68.02 115.71 67.02 115.51 66.44 115.41 65.76 115.09 65.23 114.57 64.4 113.2 64.88 112.59 64.16 112.27 63.79 112.11 63.17 112.73 63.61 112.98 63.79 113.13 64.06 113.42 64.2 113.71 64.33 114.02 64.35 114.31 64.42Z" fill="#FFFFFF"/><path d="M120.92 77.2C120.92 77.2 126.76 83.4 128.49 87.84 128.5 87.84 126.41 81.6 120.92 77.2Z" fill="#FFFFFF"/><path d="M119.01 85.55C119.01 85.55 121.09 87.79 121.8 90.21 121.79 90.21 121.21 87.26 119.01 85.55Z" fill="#FFFFFF"/><path d="M101.36 176.26C101.37 176.04 101.37 175.8 101.25 175.62 101.06 175.33 100.63 175.29 100.3 175.41 99.97 175.53 99.7 175.77 99.39 175.94 98.02 176.71 96.01 175.76 95.74 174.21 95.68 173.84 95.69 173.44 95.49 173.12 95.09 172.48 94.11 172.58 93.46 172.97 92.81 173.36 92.27 173.96 91.54 174.14 90.61 174.38 89.54 173.76 89.29 172.83 89.21 172.54 89.17 172.19 88.9 172.05 88.66 171.92 88.36 172.05 88.12 172.17 86.42 173.05 85.29 174.43 83.66 175.44 83.21 175.72 82.14 175.58 81.66 175.37 81.39 175.26 81.21 175.01 80.95 174.88 80.19 174.49 79.32 175.29 79.07 176.1 78.82 176.92 78.85 177.84 78.37 178.55 77.8 179.39 76.53 179.65 75.68 179.1 75.31 178.86 74.9 178.49 74.52 178.68 74 178.94 74.34 179.72 74.35 180.31 74.37 181.28 73.31 181.9 72.95 182.8 72.7 183.42 72.8 184.12 72.9 184.79 73.02 185.56 73.14 186.32 73.26 187.09 73.34 187.62 73.43 188.16 73.62 188.67 73.81 189.18 74.09 189.65 74.28 190.16 74.5 190.75 74.58 191.37 74.74 191.98 75.45 194.66 77.59 196.78 80.06 198.03 82.53 199.27 85.32 199.73 88.08 200 89.36 200.12 90.65 200.21 91.93 200.13 95.03 199.93 98.06 198.72 100.45 196.73 102.84 194.74 104.56 191.97 105.3 188.95 105.68 187.41 105.54 186.01 105.46 184.45 105.41 183.6 105.07 182.8 104.63 182.03 104.06 181.03 103.45 180.98 102.6 180.42 101.22 179.52 101.31 177.7 101.36 176.26Z" fill="#E56A85"/><path d="M81.31 195.96C83.49 197.3 86.2 197.58 88.74 197.24 91.28 196.9 93.7 195.99 96.1 195.09 93.96 196.71 91.65 198.23 89.03 198.81 86.41 199.39 83.4 198.87 81.59 196.88 81.59 196.89 81.13 195.85 81.31 195.96Z" fill="#333333"/><path d="M75.66 209.59C75.41 211.68 73.89 213.73 74.61 215.71 75.25 217.47 77.4 218.29 78.12 220.02 78.93 221.97 77.62 224.19 77.93 226.27 78.09 225.19 78.54 224.19 78.85 223.15 79.16 222.11 79.34 220.96 78.94 219.95 78.34 218.43 76.64 217.63 75.76 216.25 74.73 214.62 75.02 212.51 75.39 210.61 75.36 210.77 75.34 210.93 75.31 211.09" fill="#FFFFFF"/><path d="M92.34 250.25C93.11 250.59 93.9 250.92 94.52 251.48 96.48 253.26 95.95 256.57 97.47 258.74 96.96 257.81 96.62 256.79 96.49 255.74 96.38 254.9 96.4 254.03 96.17 253.21 95.61 251.17 93.77 249.95 92.02 248.99 91.7 248.82 90.2 247.7 90 248.49 89.83 249.16 91.91 250.05 92.34 250.25Z" fill="#FFFFFF"/><path d="M107.93 202.95C108.19 203.08 108.5 203.2 108.61 203.48 108.67 203.64 108.66 203.81 108.66 203.98 108.67 204.39 108.81 204.8 109.06 205.13 108.41 204.83 108.4 203.87 107.87 203.39 107.7 203.24 107.5 203.15 107.31 203.03 106.39 202.46 105.76 201.08 106.23 200.05 106.26 201.25 106.83 202.39 107.93 202.95Z" fill="#FFFFFF"/><path d="M127.62 235.89C128.22 236.13 128.94 236.43 129.03 237.07 128.64 236.64 128.06 236.44 127.51 236.26 127.08 236.11 124.49 235.22 124.8 234.49 124.93 234.15 127.17 235.71 127.62 235.89Z" fill="#FFFFFF"/><path d="M111.06 257.65C109.21 258.1 107.28 258.05 105.38 257.99 107.04 258.96 109.14 258.37 110.96 257.77 111.86 257.47 112.77 257.17 113.67 256.87 114.65 256.54 115.65 256.21 116.51 255.63 117.2 255.16 118.04 254.46 118.39 253.7 116.07 255.25 113.83 256.98 111.06 257.65Z" fill="#FFFFFF"/><path d="M104.43 210.38C103.67 211.6 102.89 212.82 101.92 213.88 100.95 214.94 99.74 215.83 98.36 216.23 99.48 216.12 100.51 215.53 101.33 214.77 102.15 214.01 102.81 213.08 103.45 212.16 103.78 211.69 104.1 211.23 104.43 210.76 104.79 210.25 105.54 209.43 105.31 208.79 105.04 209.34 104.75 209.86 104.43 210.38Z" fill="#FFFFFF"/><path d="M56.45 156.55C55.97 160.45 55.35 164.62 55.87 168.52 56.18 170.86 58.74 172.2 61.03 172.78 62.57 173.17 64.19 172.42 65.37 171.35 66.54 170.28 67.4 168.92 68.45 167.73 71.63 164.12 76.34 162.34 80.71 160.33 85.08 158.32 89.59 155.65 91.48 151.23 92.43 149.02 92.63 146.58 92.84 144.19 93.66 135 94.9 125.63 99.09 117.41 100.83 114.01 103.06 110.82 104.19 107.17 105.71 102.26 105.1 96.96 104.34 91.87 103.65 87.26 102.85 82.67 102 78.08 101.51 75.43 101.8 69.52 97.94 70.04 94.78 70.46 91.46 71.92 89.7 74.15 87.25 77.26 84.43 81.09 82.22 84.38 73.33 97.6 67.86 109.78 63.27 125.03 60.71 133.53 57.53 147.76 56.45 156.55Z" fill="#F9CCC0"/><path d="M296.38 200.81C301.71 205.19 307.05 210.89 310.26 216.99 311.93 220.15 313.1 224.86 314.08 228.3 316.71 237.49 316.57 247.29 314.87 256.69 314.65 257.91 314.25 259.29 313.13 259.82 312.19 260.27 311.02 259.93 310.22 259.26 309.42 258.58 308.93 257.62 308.49 256.68 305.06 249.35 303.51 241.27 300.19 233.89 298.08 229.2 295.26 224.83 291.86 220.98 290.05 218.93 288.05 217.01 285.66 215.68 282.24 213.79 278.26 213.24 274.58 211.92 270.9 210.6 267.21 208.06 266.4 204.24 265.26 198.85 268.12 195.39 273.43 194.38 279.64 193.2 290.8 196.23 296.38 200.81Z" fill="#F9CCC0"/><path d="M122.61 300.24C122.61 300.24 195.91 337.04 257.83 267.87 257.82 267.87 208.03 324.18 122.61 300.24Z" fill="#F9A99B"/><path d="M271.66 265.65C271.66 265.65 260.58 266.47 260.13 272.08 259.58 279.01 263.15 338.92 263.15 338.92 263.15 338.92 261.35 275.52 264.78 271.64 268.21 267.76 271.66 265.65 271.66 265.65Z" fill="#F9A99B"/><path d="M89.7 74.16C89.7 74.16 65.59 101.34 59.52 139.67 59.53 139.68 65.26 106.48 89.7 74.16Z" fill="#FFFFFF"/><path d="M71.91 171.3C71.91 171.3 91.99 157.71 109.84 173.42 109.85 173.43 94.77 155.96 71.91 171.3Z" fill="#FFFFFF"/><path d="M137.87 239.36C137.87 239.36 121.02 251.58 119.36 278.51 119.35 278.51 122.35 252.96 137.87 239.36Z" fill="#FFFFFF"/><path d="M286.67 195.89C286.67 195.89 305.02 200.03 312.76 223.64 312.76 223.64 307.91 201.53 286.67 195.89Z" fill="#FFFFFF"/></g></g></svg>