<svg viewBox="0 0 561.6 460.08" xmlns="http://www.w3.org/2000/svg" xmlns:xlink="http://www.w3.org/1999/xlink" id="gangliosn_ok" xml:space="preserve" overflow="hidden"><g><g><g><path d="M155.09 104.8C156.9 104.69 158.57 103.93 159.79 102.91 161.62 103.63 163.67 104.46 165.44 105.27 165.4 105.59 165.39 105.92 165.39 106.25 165.39 108.94 168.21 111.13 171.69 111.13 174.09 111.13 176.18 110.09 177.24 108.56 177.4 108.57 177.55 108.59 177.71 108.6 184.27 109.2 193.25 110.03 201.08 113.88L203.98 115.31C211.38 118.96 217.49 121.97 222.54 123.58 222.46 123.89 222.41 124.2 222.41 124.5 222.41 127.7 226.6 130.3 231.78 130.3 236.9 130.3 241.05 127.76 241.14 124.6 247.4 124.59 254.96 124.66 260.72 124.73 262.24 126.84 266.13 128.3 269.55 128.3 273.07 128.3 275.01 126.75 275.63 124.54L297.74 123.43C298.84 126.01 302.56 128.41 305.82 128.41 309.48 128.41 312.48 126.21 312.81 123.39L353.87 126.28C354.39 129.16 358.61 131.4 362.38 131.4 365.81 131.4 368.68 129.54 369.45 127.04L392.78 127.87C392.92 130.91 396.68 132.21 401.08 132.21 405.56 132.21 409 130.86 409 127.7 409 127.33 408.95 126.98 408.85 126.63 414.97 125.82 422.85 124.98 428.96 125.04 430.06 127.41 433.5 129.83 436.89 129.83 440.99 129.83 444.32 127.63 444.32 124.91 444.32 122.19 441 119.99 436.89 119.99 433.07 119.99 429.17 120.74 428.65 123.04 422.14 123 413.96 123.9 407.82 124.74 406.4 123.08 403.83 121.98 400.89 121.98 397.31 121.98 394.28 123.62 393.2 125.89L369.62 125.05C369.21 122.2 366.13 119.99 362.39 119.99 358.98 119.99 355.22 121.82 354.14 124.3L312.59 121.38C311.76 119.05 309.05 117.33 305.83 117.33 302.18 117.33 297.96 118.73 297.47 121.44L275.84 122.53C275.59 119.63 272.17 117.33 267.97 117.33 263.68 117.33 260.2 119.73 260.09 122.72 254.3 122.65 246.88 122.59 240.75 122.6 239.61 119.92 236.24 117.33 232.06 117.33 228.33 117.33 224.99 119.39 223.41 121.74 218.38 120.17 212.14 117.09 204.89 113.51L201.99 112.08C193.85 108.08 184.69 107.23 177.98 106.61 177.99 106.49 178 106.37 178 106.24 178 103.55 173.48 101.09 170 101.09 167.89 101.09 166.65 102 166 103.32 164.47 102.63 162.78 101.93 161.2 101.31 161.61 100.63 161.83 99.93 161.79 99.27 161.74 98.51 161.39 97.82 160.82 97.23L162.92 95.73C164.94 96.18 167.59 96.01 169.62 95.22 173.06 93.88 173.39 91.28 172.53 89.05 171.66 86.82 168.17 86.11 164.73 87.45 161.29 88.79 159.19 91.68 160.06 93.9 160.2 94.25 160.45 94.55 160.78 94.81L159.05 96.04C157.88 95.53 156.42 95.26 154.85 95.36 151.16 95.58 148.29 97.7 148.43 100.08 148.56 102.46 151.41 105.03 155.09 104.8Z" fill="#08B708"/><path d="M517.8 114.17C517.64 114.17 517.5 114.19 517.35 114.21L514.32 109.83C514.98 108.77 515.39 107.59 515.39 106.39 515.39 102.65 512.82 99.62 509.65 99.62 506.48 99.62 503.91 102.65 503.91 106.39 503.91 110.13 505.06 113.74 508.23 113.74 509.82 113.74 511.61 112.83 513 111.45L515.67 115.3C514.8 116.44 514.38 118.24 514.38 119.93 514.38 122.03 515.48 123.81 517.03 124.53 516.71 125.61 516.18 126.87 515.33 127.97 513.04 126.85 509.81 126.66 507.23 128.6 503.84 131.16 502.77 136.5 504.09 139.1 502.76 141.65 501.97 144.77 502.25 148.58 500.49 149.1 499.22 150.52 499.22 152.21 499.22 154.34 501.24 156.06 503.73 156.06 506.22 156.06 508.24 154.33 508.24 152.21 508.24 150.24 506.5 148.63 504.26 148.4 504.04 145.32 504.6 142.76 505.6 140.61 507.73 141.75 511.2 141.14 514.18 138.9 517.81 136.17 519.33 132.05 517.56 129.71 517.4 129.5 517.21 129.3 517 129.1 518.06 127.7 518.68 126.13 519.05 124.82 521.11 124.52 522.71 122.46 522.71 119.93 522.71 117.22 520.1 114.17 517.8 114.17Z" fill="#08B708"/><path d="M442.34 196.47C438.87 197.91 437.64 200.73 437.77 203.24 434.87 204.12 431.65 205.37 428.65 206.61 427.18 204.9 423.65 204.64 419.84 205.35 415.15 206.22 411.81 208.21 412.36 211.15 412.45 211.64 412.62 212.12 412.86 212.58 409.56 213.75 405.72 215.23 402.3 216.86 398.56 218.64 390.65 220.87 383.84 222.68 382.74 220.12 379.78 217.95 375.74 218.7 371.53 219.48 367.6 223.17 367.28 226.11 366.35 226.12 365.39 226.12 364.38 226.11 361.32 226.09 357.85 226.07 354.24 226.56 348.58 227.32 335.33 229.05 328.92 229.88 327.4 227.9 323.71 226.46 320.52 226.05 316.24 225.5 314.5 227.01 314.1 230.08 313.7 233.15 316.85 236.09 321.13 236.65 325.41 237.21 329.2 235.16 329.6 232.08 329.61 231.99 329.6 231.9 329.61 231.8 336.17 230.95 348.97 229.28 354.51 228.53 357.98 228.06 361.38 228.08 364.37 228.1 365.52 228.11 366.61 228.11 367.67 228.09 368.91 230.45 372.68 231.7 376.78 230.94 381.08 230.14 384.24 227.41 384.28 224.62 391.18 222.78 399.27 220.51 403.16 218.66 406.72 216.97 410.76 215.43 414.14 214.24 415.64 215.6 417.97 216.38 420.83 215.85 425.27 215.03 429.4 211.36 429.35 208.47 432.21 207.29 435.37 206.05 438.16 205.19 438.19 205.27 438.21 205.35 438.24 205.42 439.42 208.25 444.06 209.02 448.6 207.13 453.14 205.24 455.87 201.41 454.69 198.58 453.53 195.77 446.88 194.58 442.34 196.47Z" fill="#08B708"/><path d="M258.66 251.3C260.26 254.52 263.28 256.28 265.41 255.23 267.54 254.17 267.97 250.7 266.36 247.48 264.85 244.43 262.07 242.7 259.97 243.41 258.8 241.72 257.26 240.28 255.75 238.87 255.11 238.27 254.46 237.65 253.84 237.03 254.09 236.22 254.21 235.31 254.24 234.43 256.27 233.71 258.28 232.94 260.27 232.11 260.6 232.74 261.01 233.28 261.49 233.68 263.34 235.22 266.5 234.49 268.54 232.03 270.58 229.58 270.73 226.34 268.88 224.8 267.03 223.26 262.73 223.51 260.69 225.96 259.66 227.2 259.4 228.77 259.64 230.21 257.77 230.99 255.88 231.73 253.97 232.41 253.33 230.57 251.6 229.24 249.55 229.24 246.95 229.24 244.85 231.35 244.85 233.94 244.85 236.53 248.36 239.62 250.96 239.62 251.76 239.62 252.37 239.33 252.85 238.85 253.36 239.35 253.89 239.85 254.4 240.33 255.92 241.74 257.37 243.11 258.42 244.67 257.41 246.23 257.44 248.83 258.66 251.3Z" fill="#08B708"/><path d="M285.33 259.93C282.36 259.93 279.9 261.86 279.38 264.41L274.09 264.41C273.38 262.32 271.74 260.85 269.83 260.85 267.27 260.85 265.2 263.48 265.2 266.73 265.2 269.98 267.27 272.61 269.83 272.61 272.39 272.61 274.46 269.98 274.46 266.73 274.46 266.62 274.45 266.51 274.45 266.4L279.38 266.4C279.87 268.79 282.06 270.63 284.77 270.86 285.18 272.54 285.42 274.6 285.23 276.95 282.88 277.13 281.01 279.92 281.01 283.33 281.01 286.87 283.01 289.73 285.47 289.73 287.93 289.73 289.93 286.86 289.93 283.33 289.93 280.67 288.8 278.4 287.2 277.43 287.46 274.84 287.23 272.58 286.81 270.71 289.43 270.11 291.38 267.96 291.38 265.4 291.38 262.38 288.67 259.93 285.33 259.93Z" fill="#08B708"/><path d="M272.26 322.34C269.22 322.34 266.63 323.75 265.63 325.72 263.7 325.54 261.19 325.76 258.54 327.17 256.67 326.32 253.99 326.78 251.77 328.53 248.9 330.79 247.91 334.31 249.56 336.4 250.23 337.26 251.25 337.72 252.41 337.84 252.57 339.59 252.68 342.01 252.44 343.9 250.31 343.82 248.34 344.75 247.36 346.52 245.9 349.18 247.24 352.71 250.35 354.42 253.46 356.13 257.16 355.35 258.62 352.7 260.08 350.04 258.74 346.51 255.63 344.8 255.23 344.58 254.82 344.4 254.4 344.26 254.7 342.05 254.56 339.43 254.4 337.72 255.52 337.47 256.68 336.93 257.72 336.11 260.43 333.98 261.46 330.71 260.17 328.59 262.04 327.76 263.79 327.59 265.19 327.69 265.33 330.45 268.43 332.65 272.24 332.65 276.14 332.65 279.31 330.34 279.31 327.5 279.33 324.65 276.17 322.34 272.26 322.34Z" fill="#08B708"/><path d="M125.96 268.64C123.69 269.89 122.84 272.91 123.59 276.07 121.44 276.46 119.25 277.22 117.77 277.8 117.08 276.98 116.17 276.21 115.12 275.5 114.33 274.97 113.53 274.52 112.75 274.2 113.41 271.57 113.57 268.02 113.6 267.11L113.6 267.01C117.73 266.47 119.66 262.68 119.66 259.81 119.66 256.72 115.75 254.21 110.93 254.21 110.46 254.21 110.01 254.24 109.57 254.29 109.42 250.71 108.84 245.8 106.97 241.64 106.28 240.11 105.78 238.78 105.4 237.64 106.28 237.72 107.15 237.58 107.93 237.17 110.77 235.7 111.47 231.4 109.48 227.58 108.33 225.36 106.74 223.15 105.05 221.97 106.88 217.21 108.79 209.31 109.73 203.53 109.86 203.53 110 203.54 110.13 203.54 113.59 203.54 116.4 200.73 116.4 197.27 116.4 193.81 113.59 191 110.13 191 110.13 191 110.13 191 110.12 191 110.31 189.06 110.79 187.1 111.81 185.19 112.29 184.29 112.85 183.39 113.39 182.51 114.53 180.67 115.68 178.79 116.36 176.64 116.54 176.66 116.72 176.67 116.89 176.67 119.98 176.67 121.32 173.73 121.32 171.57 121.32 169.41 118.81 167.67 115.72 167.67 115.7 167.67 115.69 167.67 115.67 167.67 114.91 166.42 113.9 165.47 112.92 164.67 113.95 163.82 114.69 162.75 114.88 161.68 115.08 160.6 114.76 159.52 114.06 158.57 116.43 158.15 119.38 158.61 121.69 159.2 122.36 161.32 123.9 163.41 126.32 163.41 129.66 163.41 133.39 159.42 133.39 156.89 133.39 154.89 131.7 153.2 129.35 152.58 129.54 151.2 129.5 149.74 129.35 148.4 131.91 148.75 134.24 147.84 135.06 145.94 136.14 143.47 133.33 141.25 129.96 139.79 126.59 138.32 123.94 138.16 122.87 140.62 121.79 143.09 123.65 146.27 127.02 147.74 127.1 147.77 127.18 147.8 127.26 147.83 127.48 149.29 127.58 150.9 127.38 152.32 127.37 152.32 127.36 152.32 127.36 152.32 124.02 152.32 121.32 154.37 121.32 156.89 121.32 156.94 121.33 157 121.33 157.05 118.66 156.44 115.11 156 112.31 156.96 111.49 156.45 110.53 156.07 109.46 155.87 105.98 155.22 102.67 158.64 102.2 161.19 101.72 163.74 103.99 165.53 107.47 166.18 108.73 166.41 109.99 166.22 111.1 165.76 111.92 166.41 112.78 167.12 113.47 167.99 111.5 168.6 110.13 169.97 110.13 171.56 110.13 173.15 112.13 175.17 114.42 176.12 113.82 178.01 112.77 179.7 111.69 181.45 111.13 182.35 110.56 183.28 110.05 184.24 108.79 186.6 108.25 189.06 108.09 191.4 105.14 192.53 102.21 195.76 102.21 198.57 102.21 201.26 104.91 202.75 107.74 203.29 106.82 208.78 105 216.5 103.23 221.13 102.6 221.02 101.98 221.08 101.38 221.39 98.54 222.86 97.22 229.07 99.2 232.89 100.16 234.74 101.57 236.13 103.09 236.92 103.51 238.38 104.14 240.21 105.14 242.43 106.93 246.42 107.46 251.21 107.58 254.62 104.42 255.46 102.2 257.46 102.2 259.79 102.2 262.61 106.83 266.31 111.29 266.95 111.4 267.1 111.5 267.25 111.58 267.36 111.5 269.32 111.24 271.89 110.83 273.63 109.24 273.4 107.84 273.84 106.88 275.27 105.11 277.9 106.27 281.77 109.47 283.93 112.67 286.08 116.7 285.7 118.47 283.07 119.26 281.89 119.31 280.68 118.84 279.51 120.4 278.91 122.41 278.27 124.23 277.97 124.36 278.26 124.5 278.55 124.66 278.83 126.88 282.85 131.06 284.8 133.99 283.18 136.92 281.56 138.62 279.92 136.4 275.9 134.18 271.88 128.89 267.02 125.96 268.64Z" fill="#08B708"/><path d="M504.76 129.49 505.42 115 494.8 124.89 500.24 124.38C496.89 130.72 493.47 135.1 490.06 137.35 487.36 139.13 484.51 140.8 481.75 142.42 477.61 144.85 473.32 147.36 469.41 150.32 468.28 151.18 467.16 152.09 466.08 152.96 465.39 153.52 464.69 154.08 463.99 154.64L448.87 154.72C447.49 154.73 446.06 154.75 444.64 154.94L439.16 152.44C437.6 151.73 435.99 150.99 434.27 150.53 432.94 150.17 431.58 149.98 430.24 149.83 431.05 147.91 431.82 145.58 432.57 142.8L436.59 146.52 434.17 132.21 425.88 144.12 431.11 142.47C430.05 146.39 428.92 149.47 427.73 151.61 427.64 151.78 427.52 151.94 427.43 152.11 424.3 154.98 419.65 156.76 412.82 157.71 410.01 158.1 407.12 158.39 404.33 158.68 399.51 159.17 394.58 159.68 389.75 160.7 389.73 160.69 389.71 160.68 389.69 160.68L389.68 160.72C388.73 160.92 387.78 161.15 386.83 161.39 388.45 159 389.5 156.2 390.51 153.46L390.63 153.14C391.75 150.09 392.91 147.08 394.01 144.31L397.31 148.69 397.46 134.18 387.19 144.43 392.62 143.73C391.52 146.51 390.35 149.55 389.22 152.62L389.1 152.94C387.72 156.67 386.3 160.54 383.4 163.07 382.54 163.82 381.5 164.49 380.23 165.12 377.63 162.92 373.86 162.06 370.82 161.56L360.77 159.92C359.73 159.75 358.53 159.46 358.08 158.72 361.69 154.24 364.14 149.32 365.15 144.44 365.19 144.25 365.22 144.04 365.24 143.83L370.34 145.71 362.61 133.43 359.53 147.61 363.68 144.11C363.68 144.12 363.68 144.13 363.68 144.14 363.12 146.87 362.06 149.62 360.6 152.3 358.77 153.07 356.78 153.35 354.68 153.63 354.1 153.71 353.51 153.78 352.93 153.87 350.55 154.23 348.18 154.8 345.89 155.35 342.9 156.07 339.8 156.81 336.72 157.08 334.33 157.29 331.87 157.22 329.5 157.15 327.84 157.1 326.13 157.05 324.44 157.09 321.17 157.17 317.91 157.61 314.73 158.37 314.36 158.07 313.99 157.78 313.61 157.51 309.76 154.72 305.28 153.17 300.89 151.73 301.08 151.27 301.26 150.82 301.44 150.36 302.47 147.72 303.43 144.63 304.19 141.55L308.42 145.01 305.13 130.88 297.58 143.27 302.7 141.3C301.95 144.28 301.03 147.26 300.03 149.81 299.81 150.37 299.58 150.92 299.36 151.47 298.78 152.88 298.18 154.33 297.75 155.84 297.48 156.8 297.27 157.78 297.11 158.76 294.82 156.25 291.65 155.06 289.27 154.52 286.65 153.92 283.95 153.8 281.33 153.68 280.73 153.65 280.12 153.62 279.52 153.59 278.63 153.54 277.77 153.48 276.98 153.25 274.93 152.66 273.32 151.01 271.91 149.48 271.92 147.72 271.63 144.96 271.04 141.26L276.16 143.09 268.32 130.88 265.36 145.09 269.55 141.5C270.16 145.31 270.45 148.15 270.4 149.77L270.4 149.77C270.4 153.74 269.82 155.16 268.28 158.96L267.62 160.6C267.41 161.12 267.19 161.63 266.97 162.14 266.28 163.77 265.56 165.45 265.24 167.25L265.17 167.18C264.6 167.75 263.58 167.96 262.46 167.73 261.79 167.59 261.13 167.34 260.44 167.07 260 166.9 259.56 166.73 259.11 166.58 256.93 165.88 254.65 165.85 252.44 165.83 251.87 165.82 251.31 165.82 250.75 165.8 248.44 165.72 245.52 165.42 243.49 163.68 240.92 161.48 240.42 157.65 240.14 153.9 240.56 150.45 240.39 146.48 239.65 142.07L244.92 143.56 236.28 131.9 234.28 146.27 238.19 142.44C238.9 146.68 239.05 150.49 238.64 153.78 237.6 160.31 232.68 163.05 228.73 165.25 227.97 165.67 227.25 166.07 226.59 166.48 222.92 168.74 219.13 171.08 215.01 172.49L214.29 172.73C213.28 173.06 212.23 173.41 211.26 173.98 211 174.13 210.75 174.31 210.5 174.48 210.05 170.69 210.25 167.65 211.1 165.01 212.52 160.66 215.85 157.17 219.06 153.8 219.74 153.09 220.41 152.38 221.06 151.67 223.13 149.42 225.32 145.97 226.91 142.49L230.91 146.22 228.54 131.9 220.21 143.78 225.42 142.16C223.91 145.37 221.84 148.61 219.96 150.66 219.31 151.37 218.64 152.07 217.97 152.77 214.64 156.27 211.19 159.88 209.67 164.56 208.67 167.63 208.5 171.16 209.13 175.62 209.01 175.72 208.9 175.83 208.78 175.93 208.09 176.56 207.43 177.15 206.69 177.6 205.78 178.16 204.76 178.51 203.68 178.89 203.11 179.09 202.53 179.3 201.95 179.53L201.87 179.45C201.81 179.51 201.77 179.57 201.71 179.63 201.7 179.63 201.7 179.64 201.69 179.64 200.74 180.05 199.87 180.56 199.06 181.13 196.75 180.42 194.23 180.79 191.78 181.15 190.12 181.4 188.55 181.63 187.07 181.54 184.91 181.41 182.9 180.55 180.78 179.64 179.67 179.17 178.53 178.68 177.35 178.3 174.58 177.41 171.68 177.14 168.86 176.88 166.59 176.67 164.24 176.46 162.03 175.91 154.73 174.11 148.65 168.63 143.65 163.78L147.91 162.01 135.94 157.29 140.91 169.15 142.59 164.85C147.72 169.83 153.97 175.47 161.66 177.37 161.82 177.41 161.98 177.43 162.14 177.47 163.43 178.47 164.16 179.57 164.61 181.22 164.95 182.45 165 183.8 165.05 185.09L165.15 187.85C164.3 187.28 163.44 186.73 162.54 186.24 160.44 185.1 158.18 184.23 156 183.39 153.14 182.29 150.17 181.14 147.65 179.4 146.24 178.43 144.94 177.24 143.67 176.09 142.77 175.28 141.85 174.43 140.88 173.66 138.29 171.59 135.74 170.41 133.35 170.18L135.72 165.96 123.85 171.01 135.86 175.72 133.45 171.71C135.48 171.97 137.66 173.02 139.94 174.84 140.87 175.59 141.78 176.41 142.66 177.21 143.96 178.39 145.31 179.62 146.79 180.65 148.08 181.55 149.47 182.28 150.88 182.93 154.1 186.74 155.67 191.21 155.43 195.86 155.38 196.76 155.25 197.69 155.13 198.59 154.98 199.66 154.83 200.76 154.8 201.88 154.75 203.87 155.18 205.61 156.02 206.92 152.92 206.51 149.99 206.02 147.07 205.36 146.08 205.14 145.09 204.89 144.11 204.65 141.44 203.99 138.68 203.31 135.87 203.03 135.31 202.97 134.75 202.93 134.18 202.89 133.25 202.82 132.29 202.75 131.38 202.61 131.09 202.56 130.78 202.51 130.45 202.44L133.81 198.07 119.78 201.77 132.39 208.95 130.29 203.94C130.58 204 130.87 204.05 131.14 204.1 132.12 204.25 133.11 204.33 134.07 204.39 134.62 204.43 135.17 204.47 135.71 204.52 138.41 204.79 141.12 205.46 143.74 206.1 144.74 206.35 145.73 206.59 146.73 206.82 151.64 207.93 156.57 208.58 162.24 209.14 161.51 209.48 160.77 209.8 160.03 210.08 158.66 210.59 157.21 210.95 155.75 211.25L155.75 211.25C155.75 211.25 155.75 211.25 155.75 211.25 154.83 211.44 153.91 211.62 153 211.79 149.63 212.41 146.15 213.06 143.08 214.8 140.31 216.37 138.13 218.71 136.02 220.97 134.35 222.75 132.63 224.6 130.65 226.01 129.37 226.93 127.61 227.67 125.53 228.19L128.06 223.36 114.88 229.44 128.54 234.33 125.59 229.73C127.99 229.16 130.02 228.31 131.52 227.24 133.62 225.74 135.39 223.84 137.11 222.01 139.24 219.73 141.25 217.58 143.82 216.12 146.66 214.5 149.87 213.91 153.27 213.28 153.87 213.17 154.47 213.06 155.08 212.94 153.67 217.05 153.78 221.43 154.08 224.89 154.2 226.26 154.35 227.63 154.51 229 154.86 232.03 155.22 235.17 155.09 238.24 154.9 242.7 153.58 246.5 151.35 249.1 149.41 250.35 147.42 251.64 145.62 253.1 143.82 254.56 141.71 256.71 139.33 259.49L137.31 254.42 133.33 268.37 145.94 261.19 140.49 260.43C142.8 257.73 144.84 255.66 146.56 254.26 148.06 253.04 149.72 251.94 151.37 250.87L151.56 251.07C151.83 250.82 152.07 250.54 152.32 250.26 152.37 250.22 152.43 250.19 152.49 250.15 154.41 248.91 156.36 247.65 158.15 246.23 161.32 246.61 164.08 248.66 166.75 250.66 167.52 251.24 168.29 251.81 169.06 252.35 173.4 255.35 178.45 257.35 183.66 258.14 184.39 258.25 185.13 258.34 185.86 258.43 187.26 258.6 188.7 258.77 190.07 259.11 191.9 259.57 194.41 260.79 195.68 262.41 196.18 263.87 196.76 265.3 197.48 266.68 199.88 271.27 203.67 275 207.05 278.05 214.47 284.73 222.67 290.54 231.42 295.33 232.97 296.18 234.53 296.99 236.09 297.81 240.12 299.91 244.28 302.08 248 304.76 250.51 306.56 253.36 309.67 255.79 313.2L250.32 312.88 261.27 322.4 260.12 307.94 257.14 312.52C254.57 308.74 251.6 305.5 248.88 303.55 245.07 300.81 240.86 298.62 236.79 296.49 235.23 295.68 233.68 294.87 232.14 294.03 223.49 289.3 215.39 283.55 208.05 276.95 204.76 273.99 201.1 270.38 198.8 266 196.84 262.25 195.9 258.04 195.02 253.92 196.02 253.46 197.14 253.26 198.33 253.06 199.93 252.78 201.59 252.49 203 251.5 203.24 251.33 203.46 251.15 203.69 250.97 204.01 250.71 204.3 250.47 204.62 250.3 205.1 250.04 205.68 249.93 206.29 249.81 208.24 249.43 210.44 249 212.45 249.42 212.6 252.11 212.78 254.87 213.49 257.5 214.03 259.47 214.86 261.34 215.96 263.06 218.79 267.47 223.59 271 229.48 273 235.22 274.95 241.36 275.3 246.07 275.39 246.14 275.39 246.21 275.39 246.28 275.39 247.84 275.39 250.44 275.1 252.99 274.76L250.85 279.79 263.5 272.69 249.49 268.9 252.82 273.28C250.2 273.62 247.53 273.92 246.1 273.89 241.5 273.8 235.5 273.46 229.96 271.58 224.39 269.69 219.87 266.38 217.22 262.25 216.2 260.66 215.43 258.93 214.93 257.1 214.22 254.51 214.07 251.7 213.91 248.98 213.69 245.05 213.46 240.99 211.6 237.4 211.1 236.44 210.5 235.55 209.92 234.69 209.16 233.56 208.44 232.49 207.94 231.31 206.82 228.65 206.94 225.73 207.07 222.64 207.1 221.92 207.13 221.19 207.14 220.45 207.29 220.22 207.43 219.96 207.54 219.61 208.57 216.23 211.64 214.19 213.38 213.27 215.59 212.1 218.07 211.36 220.48 210.65 221.03 210.49 221.58 210.32 222.13 210.16 225.15 209.23 228.3 208.08 230.83 205.93 231.07 205.72 231.31 205.51 231.54 205.29 232.1 204.78 232.64 204.29 233.24 203.94 235.19 202.83 237.66 203.29 239.4 203.88 240.82 204.36 243.35 206.61 244.47 208.14 245.09 209.27 245.77 210.37 246.45 211.44 246.78 211.96 247.1 212.47 247.42 213 247.98 213.91 248.59 215.11 249.24 216.56L243.13 215.57 254.16 227.33 254.53 211.21 250.65 216.01C249.96 214.47 249.32 213.21 248.71 212.21 248.39 211.68 248.06 211.16 247.73 210.64 247.19 209.79 246.65 208.93 246.14 208.05L246.19 208.02C246.08 207.82 245.94 207.59 245.77 207.36 245.39 206.66 245.03 205.95 244.73 205.23 243.62 202.53 243.44 199.9 244.22 197.81 245.51 194.34 249.33 192.28 252.4 190.63 252.97 190.32 253.53 190.02 254.09 189.7L261.66 190.54C264.44 190.85 267.32 191.17 269.89 192.28 273.99 194.05 277.44 197.89 280.16 203.7 280.33 204.06 280.49 204.42 280.66 204.78 281.32 206.23 282 207.72 282.95 209.07 283.71 210.14 284.63 211.09 285.52 212 286.58 213.09 287.58 214.12 288.33 215.34 289.55 217.33 290.1 219.89 289.97 222.93 289.88 225.12 289.44 227.35 289.03 229.5 288.93 230.02 288.83 230.53 288.74 231.05 288.04 234.8 287.26 240.5 286.57 246.83L282.15 243.66 286.32 257.56 293.08 244.72 288.06 247.02C288.75 240.72 289.52 235.04 290.21 231.33 290.3 230.82 290.4 230.31 290.5 229.79 290.93 227.59 291.37 225.31 291.47 223 291.61 219.66 290.99 216.82 289.61 214.57 288.78 213.2 287.67 212.06 286.59 210.96 285.7 210.05 284.87 209.19 284.17 208.21 283.3 206.98 282.68 205.62 282.02 204.17 281.85 203.8 281.69 203.44 281.52 203.07 280.99 201.93 280.41 200.88 279.82 199.89 280.48 196.62 282.6 193.16 284.63 190.44 286.76 189.35 289.95 189.1 293 189.79 295.86 190.44 298.51 191.57 301.45 192.88L301.55 192.92C302.81 193.48 304.11 194.07 305.51 194.4 306.94 194.74 308.42 194.81 309.8 194.84 310.15 194.85 310.51 194.85 310.87 194.85 313.54 194.85 316.43 194.69 319.63 194.37 319.61 197.47 319.49 200.86 319.36 204.37 319.25 207.2 319.15 210.11 319.1 212.89L314.31 210.3 320.2 223.56 325.29 209.97 320.61 212.88C320.66 210.13 320.76 207.24 320.87 204.42 321.1 198.22 321.32 192.37 320.95 187.83 320.84 186.48 320.65 185.26 320.38 184.13 320.55 184.26 320.71 184.41 320.87 184.54 325.07 187.72 330.15 189.37 335.07 190.96 335.94 191.24 336.82 191.53 337.68 191.82 348.52 195.46 357.5 199.1 365.56 209.36L360.1 209.64 372.02 217.91 369.3 203.66 366.82 208.56C362.26 202.72 357.43 198.94 352.17 196.12 355.71 195.86 358.92 195.31 361.66 193.71 369.15 191.33 376.01 187.29 382.65 183.37 384.83 182.08 387.07 180.77 389.33 179.51 390.28 179.2 391.71 179.22 392.84 179.55 395.22 180.27 397.72 181.13 399.84 182.55 402.35 184.25 404.28 186.71 406 189.12 406.9 190.39 408.09 191.82 409.35 193.34 409.74 193.81 410.13 194.29 410.53 194.77L405.06 195.04 416.97 203.33 414.35 189 411.87 193.88C411.44 193.35 411.01 192.82 410.58 192.31 409.34 190.82 408.17 189.4 407.3 188.18 405.5 185.66 403.47 183.07 400.76 181.24 398.48 179.7 395.85 178.79 393.36 178.04 393.05 177.95 392.72 177.88 392.38 177.83 392.4 177.82 392.42 177.81 392.45 177.79 395.19 176.36 398.05 175.02 400.82 173.72 401.63 173.34 402.45 172.95 403.27 172.56 404.87 172.36 406.53 172.43 408.15 172.51 411.16 172.66 414.26 172.82 417.23 173.43 420.51 174.11 423.24 175.29 425.33 176.93 427.19 178.39 428.71 180.34 430.17 182.22 430.47 182.6 430.76 182.98 431.06 183.36 431.77 184.26 432.51 185.36 433.3 186.58L427.85 187.16 440.21 194.76 436.71 180.68 434.51 185.69C433.72 184.46 432.97 183.36 432.23 182.42 431.93 182.05 431.64 181.67 431.35 181.29 429.83 179.33 428.26 177.31 426.25 175.74 425.81 175.4 425.35 175.08 424.87 174.78 430.36 170.67 437.02 168.2 443.61 166.17 449.7 164.29 455.93 162.14 461.27 158.48 463.27 157.11 465.19 155.6 467.03 154.11 468.1 153.24 469.21 152.34 470.32 151.5 474.16 148.59 478.41 146.1 482.51 143.69 485.28 142.06 488.15 140.38 490.88 138.58 494.58 136.14 498.09 131.69 501.61 124.99L504.76 129.49ZM429.04 152.33C429.23 151.99 429.41 151.64 429.59 151.27 431.03 151.43 432.49 151.61 433.87 151.98 435.47 152.41 437.02 153.12 438.53 153.81L442.16 155.47C441.81 155.57 441.47 155.68 441.13 155.8L441.12 155.78C441.08 155.8 441.05 155.82 441.02 155.84 439.63 156.32 438.28 156.92 436.96 157.51 436.29 157.81 435.63 158.1 434.96 158.38 430.5 160.25 425.83 161.43 421.04 161.91 424.48 158.96 427.14 155.79 429.04 152.33ZM360.54 161.4 370.59 163.04C373.21 163.47 376.4 164.17 378.7 165.81 378.53 165.88 378.37 165.95 378.19 166.02 373.31 167.92 367.97 168.79 362.74 168.53 359.46 168.37 356.15 167.76 352.95 167.18 351.03 166.83 349.08 166.48 347.1 166.21 348.91 165.64 350.81 165 352.54 163.94 354.08 163 355.52 161.73 357.12 159.89 358.07 160.98 359.74 161.27 360.54 161.4ZM352.68 168.65C355.93 169.24 359.29 169.86 362.67 170.03 363.3 170.06 363.93 170.08 364.57 170.08 366.63 170.08 368.7 169.9 370.74 169.58 368.86 173.77 367.78 178.12 366.98 181.9L366.88 182.36C366.75 182.99 366.6 183.63 366.45 184.26 365.52 183.26 364.29 182.12 363.2 181.53 361.01 180.35 358.57 179.92 356.21 179.51 354.51 179.21 352.75 178.91 351.15 178.32 348.6 177.38 346.42 175.76 344.13 174.04 342.73 172.99 341.28 171.91 339.73 171 338.61 170.34 337.31 169.64 335.89 169.15 338.5 168.59 341.1 167.95 343.67 167.23L343.66 167.35C346.67 167.56 349.72 168.11 352.68 168.65ZM324.46 158.58C326.11 158.54 327.81 158.59 329.44 158.64 331.86 158.71 334.37 158.78 336.84 158.57 340.04 158.29 343.19 157.53 346.24 156.8 348.5 156.26 350.84 155.69 353.16 155.34 353.73 155.25 354.3 155.18 354.88 155.1 356.39 154.9 357.93 154.69 359.43 154.28 358.55 155.67 357.57 157.03 356.46 158.35 354.76 160.38 353.31 161.71 351.75 162.66 350.1 163.66 348.22 164.29 346.44 164.84 340.62 166.64 334.68 168 328.67 168.93 325.84 167.58 323.2 165.86 320.8 163.83 319.88 163.05 318.97 162.2 318.1 161.38 317.46 160.78 316.8 160.17 316.13 159.57 318.88 159 321.67 158.65 324.46 158.58ZM297.72 165.24C297.88 164.25 298.01 163.26 298.13 162.27 298.38 160.27 298.65 158.2 299.2 156.26 299.5 155.21 299.9 154.16 300.31 153.13 304.62 154.54 309.02 156.05 312.71 158.73 313.25 159.12 313.77 159.54 314.28 159.97L314.29 160.01C314.3 160.01 314.31 160.01 314.32 160 315.27 160.8 316.19 161.65 317.08 162.49 317.97 163.32 318.89 164.18 319.84 164.99 321.78 166.64 323.89 168.08 326.12 169.31 322.61 169.78 319.08 170.11 315.53 170.28 314.88 170.31 314.22 170.34 313.57 170.36 309.64 170.51 305.58 170.67 301.76 171.91 299.11 172.77 296.66 174.13 294.52 175.88 296.03 172.47 297.13 168.89 297.72 165.24ZM269.69 159.51C271.02 156.24 271.69 154.58 271.87 151.58 273.16 152.87 274.7 154.14 276.59 154.69 277.53 154.96 278.48 155.03 279.45 155.08 280.06 155.11 280.67 155.14 281.28 155.17 283.83 155.29 286.46 155.41 288.95 155.98 291.35 156.53 294.63 157.76 296.65 160.53L296.87 160.37C296.79 160.94 296.72 161.51 296.65 162.08 296.53 163.06 296.4 164.03 296.25 165 296.03 166.37 295.71 167.72 295.35 169.06 293.55 171.8 289.94 173.52 285.67 173.67 285.04 173.69 284.54 173.67 284.08 173.53 283.55 173.36 283.08 173 282.64 172.63 280.85 171.13 279.35 169.21 277.91 167.36 277.41 166.72 276.92 166.09 276.41 165.47 274.76 163.45 272.53 161.06 269.62 159.75L269.69 159.51ZM294.34 172.28C293.4 174.93 292.2 177.48 290.76 179.9L284.81 180.2C282.15 180.33 279.39 180.47 276.77 181.38 276.51 181.47 276.22 181.58 275.93 181.69 276.47 181.06 277.02 180.45 277.65 179.94 278.47 179.27 279.42 178.75 280.43 178.2 281.93 177.38 283.46 176.53 284.57 175.15 284.81 175.17 285.05 175.19 285.28 175.19 285.43 175.19 285.58 175.19 285.72 175.18 289.1 175.05 292.12 174 294.34 172.28ZM258.66 167.99C259.08 168.12 259.49 168.29 259.9 168.45 260.62 168.73 261.36 169.02 262.17 169.18 262.57 169.26 262.96 169.3 263.34 169.3 263.97 169.3 264.55 169.18 265.07 168.97 265.02 169.87 265.02 170.78 265.03 171.66 265.05 173.08 265.07 174.42 264.84 175.74 264.3 178.9 262.45 181.41 260.75 183.12 260.73 183.1 260.73 183.07 260.71 183.05 259.65 181.94 258.11 181.79 256.61 181.74L245.7 181.34C247.41 180 248.23 177.98 249.01 176 249.37 175.09 249.74 174.15 250.2 173.31 251.77 170.42 254.77 168.33 258.02 167.84L258.02 167.82C258.23 167.89 258.45 167.93 258.66 167.99ZM236.43 161.59C237.46 160.5 238.37 159.22 239.05 157.68 239.51 160.44 240.42 163.01 242.51 164.8 244.9 166.84 248.14 167.2 250.7 167.28 251.27 167.3 251.85 167.31 252.42 167.31 253.15 167.32 253.85 167.34 254.55 167.37 252.17 168.47 250.12 170.31 248.87 172.61 248.37 173.52 247.98 174.51 247.61 175.46 246.83 177.44 246.09 179.31 244.51 180.37 243.97 180.74 243.32 180.99 242.68 181.23L240.91 181.16C238.11 181.06 235.64 180.85 233.84 179.41 232.4 178.26 231.6 176.37 231.07 174.87 230.91 174.43 230.75 174.04 230.59 173.68 230.13 172.61 229.88 172.02 230.29 170.93L230.27 170.92C231.51 167.58 233.94 164.47 236.43 161.59ZM202.63 180.86C203.14 180.65 203.65 180.47 204.2 180.28 205.31 179.9 206.46 179.5 207.5 178.85 208.36 178.32 209.09 177.66 209.81 177.01 210.55 176.35 211.24 175.72 212.03 175.26 212.86 174.77 213.79 174.47 214.77 174.14L215.5 173.89C219.77 172.42 223.64 170.04 227.37 167.74 228.01 167.34 228.71 166.95 229.45 166.54 230.14 166.16 230.85 165.76 231.57 165.33 230.23 167.29 229.11 169.34 228.48 171.52 227.91 173.52 228.13 175.56 228.34 177.54 228.41 178.22 228.49 178.91 228.53 179.59 228.68 182.03 228.39 184.69 227.63 187.94 227.55 188.07 227.35 188.33 227.28 188.42 227.21 188.51 227.16 188.57 227.14 188.6 225.62 190.87 222.62 192.38 218.91 192.74 216.92 192.93 214.86 192.82 212.86 192.72 211.53 192.65 210.16 192.58 208.79 192.59 205.13 192.63 202.17 193.4 199.95 194.86 199.76 194.01 199.61 193.17 199.51 192.31 199.03 187.72 200.16 183.59 202.63 180.86ZM199.68 182.52C198.23 185.31 197.63 188.76 198.05 192.48 198.54 196.88 200.26 201.02 201.92 205.02L202.09 205.43C203.91 209.83 205.45 213.81 205.71 218.02 205.8 219.49 205.74 221.03 205.68 222.52 205.55 225.62 205.42 228.82 206.64 231.77 200.56 226 194.64 221.35 187.51 217.88L184.29 202.64C187.4 200 189.61 196.3 191.76 192.69 194.13 188.73 196.39 184.95 199.68 182.52ZM175.31 206.52C177.17 206.17 179.05 205.73 180.8 204.91 181.57 204.55 182.29 204.12 182.97 203.65L186.47 220.23 186.41 220.23 186.41 220.32C181.66 220.9 177.03 222.86 173.33 225.87 172.72 226.36 172.14 226.88 171.56 227.4 170.66 228.21 169.8 228.97 168.86 229.64 168.07 230.2 167.23 230.67 166.36 231.07 166.53 229.72 166.66 228.37 166.78 227.03 167.02 224.4 167.26 221.68 167.89 219.14 169.06 214.36 171.7 209.88 175.33 206.54L175.31 206.52ZM172.56 228.52C173.13 228.01 173.69 227.51 174.28 227.03 177.83 224.15 182.26 222.3 186.81 221.79L192.08 246.76C191.81 246.57 191.53 246.39 191.25 246.19 190.39 245.6 189.53 245.01 188.79 244.51 185.86 242.53 182.83 240.49 180.24 238.05 177.67 235.63 175.48 232.75 173.36 229.97 173.03 229.54 172.71 229.09 172.41 228.64 172.47 228.6 172.52 228.56 172.56 228.52ZM187.92 219.77C191.27 221.49 194.37 223.49 197.36 225.76 196.68 230.14 194.67 234.25 191.67 237.5L187.92 219.77ZM164.75 177.9C166.1 178.09 167.44 178.22 168.77 178.34 171.5 178.59 174.33 178.85 176.93 179.69 178.04 180.05 179.15 180.52 180.23 180.98 182.38 181.9 184.6 182.85 187.02 183 187.26 183.01 187.51 183.02 187.76 183.02 189.17 183.02 190.62 182.8 192.04 182.59 194.01 182.3 195.88 182.03 197.6 182.28 194.68 184.88 192.56 188.43 190.49 191.9 189.82 193.02 189.16 194.12 188.49 195.18 187.29 196.32 186.1 197.02 184.25 197.66 181.65 198.55 178.43 197.65 174.67 194.97 173.23 193.95 171.82 192.82 170.45 191.72 169.24 190.75 168.01 189.77 166.73 188.84 166.74 188.76 166.76 188.7 166.76 188.61L166.6 185C166.55 183.62 166.5 182.19 166.11 180.78 165.79 179.65 165.35 178.72 164.75 177.9ZM153.66 184.03C154.28 184.28 154.9 184.52 155.51 184.75 157.65 185.57 159.86 186.43 161.88 187.52 163.04 188.15 164.15 188.88 165.24 189.66L165.3 189.82 165.44 189.8C166.83 190.8 168.17 191.86 169.49 192.91 169.6 193 169.71 193.08 169.82 193.17 164.38 194.44 159.82 197.18 156.56 199.68 156.6 199.37 156.64 199.07 156.68 198.75 156.81 197.82 156.94 196.86 156.99 195.89 157.21 191.69 156.05 187.64 153.66 184.03ZM157.78 207.09 157.99 206.87C156.5 205.44 156.33 203.12 156.36 201.87 156.36 201.83 156.37 201.79 156.37 201.75 159.75 198.97 164.99 195.57 171.35 194.39 172.15 195.01 172.95 195.63 173.78 196.21 176.87 198.4 179.68 199.51 182.19 199.51 183.07 199.51 183.92 199.37 184.72 199.1 185.23 198.93 185.69 198.75 186.12 198.56 184.46 200.66 182.57 202.43 180.16 203.56 178.09 204.53 175.85 204.92 173.48 205.33 171.73 205.63 169.92 205.95 168.19 206.52 167.08 206.89 166 207.36 164.96 207.85L164.96 207.85C162.43 207.6 160.05 207.37 157.78 207.09ZM154.56 247C155.8 244.53 156.53 241.55 156.67 238.25 156.8 235.06 156.44 231.87 156.08 228.77 155.92 227.42 155.77 226.06 155.65 224.7 155.35 221.14 155.25 216.59 156.92 212.51 158.18 212.23 159.42 211.89 160.63 211.44 161.93 210.96 163.19 210.36 164.4 209.77 165.78 209.1 167.21 208.42 168.67 207.94 169.99 207.51 171.4 207.22 172.79 206.97 169.74 210.29 167.51 214.41 166.44 218.78 165.79 221.43 165.54 224.21 165.3 226.89 164.89 231.45 164.5 235.75 162.33 239.49 160.49 242.64 157.69 244.89 154.56 247ZM190.51 257.6C189.05 257.23 187.56 257.06 186.11 256.89 185.39 256.81 184.67 256.72 183.96 256.61 178.97 255.86 174.14 253.94 169.99 251.07 169.23 250.54 168.48 249.98 167.72 249.42 165.24 247.57 162.69 245.67 159.7 244.94 161.21 243.57 162.57 242.05 163.62 240.24 164.96 237.93 165.66 235.4 166.1 232.8 167.38 232.3 168.6 231.66 169.73 230.86 170.27 230.48 170.78 230.06 171.28 229.64 171.57 230.07 171.87 230.48 172.17 230.88 174.33 233.71 176.56 236.63 179.21 239.13 181.89 241.66 184.97 243.74 187.95 245.75 188.69 246.25 189.54 246.83 190.4 247.42 191.14 247.93 191.86 248.42 192.52 248.87L193.52 253.59C193.94 255.58 194.37 257.6 194.91 259.59 193.52 258.64 191.88 257.94 190.51 257.6ZM209.67 236.82C209.92 237.22 210.16 237.62 210.38 238.04 211.92 241.01 212.25 244.31 212.46 247.82 210.28 247.46 208.07 247.89 206.1 248.27 205.44 248.4 204.69 248.55 204.01 248.91 203.56 249.15 203.2 249.45 202.84 249.74 202.64 249.9 202.45 250.06 202.24 250.2 201.1 250.99 199.68 251.24 198.17 251.51 197.05 251.71 195.9 251.92 194.81 252.37L192.05 239.28C195.48 235.9 197.8 231.5 198.7 226.78 202.37 229.71 205.93 233.06 209.67 236.82ZM212.79 211.89C210.26 213.23 208.31 215.02 207.13 217.06 206.71 212.95 205.24 209.09 203.48 204.86L203.31 204.45C202.23 201.84 201.12 199.16 200.37 196.43 202.37 194.93 205.21 194.14 208.83 194.1 210.15 194.09 211.5 194.16 212.81 194.22 214.86 194.33 216.97 194.44 219.08 194.24 221.02 194.06 224.22 193.43 226.67 191.37 226.22 192.6 225.64 193.83 224.85 194.94 224.25 195.77 223.55 196.52 222.81 197.31 222.17 197.99 221.5 198.7 220.91 199.47 218.8 202.22 217.81 206.65 217.84 209.88 216.12 210.41 214.4 211.03 212.79 211.89ZM253.86 188.1 253.34 188.04 253.3 188.41C252.79 188.69 252.29 188.97 251.77 189.25 248.48 191.03 244.38 193.24 242.9 197.23 241.98 199.7 242.3 202.22 242.91 204.24 241.88 203.39 240.82 202.68 239.99 202.4 237.96 201.72 235.04 201.19 232.61 202.58 231.86 203.01 231.24 203.57 230.64 204.12 230.42 204.32 230.19 204.53 229.96 204.72 227.64 206.7 224.66 207.78 221.79 208.66 221.25 208.83 220.7 208.99 220.15 209.15 219.87 209.23 219.6 209.32 219.32 209.4 219.38 206.53 220.3 202.69 222.08 200.36 222.63 199.65 223.24 199 223.88 198.31 224.62 197.52 225.39 196.7 226.04 195.79 227.74 193.42 228.56 190.53 229.09 188.28 229.88 184.88 230.18 182.08 230.03 179.49 229.99 178.79 229.91 178.08 229.84 177.37 229.77 176.69 229.69 176.01 229.65 175.36 229.65 175.37 229.65 175.37 229.66 175.38 230.26 177.08 231.17 179.2 232.91 180.59 235.24 182.46 238.49 182.58 240.86 182.67L242.85 182.74 242.86 182.77C242.89 182.76 242.91 182.75 242.94 182.74L256.55 183.24C257.78 183.29 258.95 183.39 259.62 184.09 259.39 183.85 259.49 183.59 259.65 183.42 259.88 183.18 260.26 183.16 260.52 183.34 260.35 183.51 260.18 183.67 260.02 183.82 258.18 185.51 256.08 186.85 253.86 188.1ZM261.91 189 256.35 188.38C258.01 187.36 259.59 186.26 261.04 184.94 263.07 183.09 265.63 180.04 266.32 176 266.57 174.54 266.55 173.07 266.53 171.65 266.51 170.21 266.49 168.85 266.73 167.51 267.02 165.87 267.67 164.34 268.37 162.72 268.59 162.2 268.82 161.67 269.03 161.14L269.04 161.12C271.65 162.31 273.7 164.53 275.23 166.4 275.73 167.01 276.22 167.64 276.71 168.27 278.2 170.18 279.75 172.16 281.66 173.77 282.03 174.08 282.46 174.41 282.95 174.66 282.07 175.55 280.91 176.2 279.69 176.86 278.67 177.42 277.61 178 276.68 178.75 275.74 179.52 274.96 180.44 274.21 181.33 273.73 181.9 273.27 182.44 272.78 182.95 272.04 183.7 271.17 184.41 270.33 185.09 268.74 186.38 267.1 187.71 266.08 189.55 264.69 189.31 263.29 189.15 261.91 189ZM278.8 198.09C276.44 194.64 273.68 192.2 270.56 190.85 269.6 190.44 268.62 190.13 267.62 189.89 268.52 188.5 269.86 187.41 271.27 186.27 271.93 185.73 272.6 185.17 273.24 184.58L273.25 184.59C274.11 184 275.88 183.26 277.25 182.79 279.67 181.95 282.32 181.82 284.88 181.69L289.82 181.44C288.74 183.09 287.54 184.67 286.24 186.14 283.5 189.23 280.16 193.67 278.8 198.09ZM309.91 193.28C308.61 193.26 307.24 193.2 305.94 192.89 304.68 192.59 303.44 192.03 302.24 191.5L302.14 191.46C299.25 190.17 296.4 188.95 293.41 188.27 290.99 187.72 288.54 187.72 286.44 188.2 286.76 187.82 287.07 187.46 287.35 187.14 289.5 184.71 291.36 182.01 292.92 179.14L293.11 179.3C295.56 176.53 298.71 174.47 302.22 173.34 304.65 172.56 307.22 172.23 309.8 172.05 312.21 175.3 315.06 179.08 318.23 182.13 318.91 183.74 319.34 185.62 319.53 187.9 319.65 189.39 319.7 191.04 319.72 192.8 316.07 193.16 312.86 193.33 309.91 193.28ZM319.71 194.07C319.71 194.06 319.7 194.06 319.71 194.07L319.71 194.05C319.71 194.06 319.71 194.06 319.71 194.07ZM321.85 183.29C321.05 182.68 320.27 181.99 319.5 181.26 319.48 181.22 319.47 181.17 319.45 181.13L319.39 181.16C316.51 178.41 313.87 175 311.59 171.94 312.27 171.91 312.95 171.88 313.63 171.85 314.29 171.82 314.95 171.8 315.61 171.77 320.93 171.52 326.23 170.93 331.47 170.01 334.2 169.73 336.79 171.01 338.96 172.29 340.43 173.16 341.85 174.22 343.22 175.24 345.42 176.89 347.71 178.58 350.34 179.61 349.33 180.04 348.38 180.59 347.45 181.13 346.18 181.87 344.98 182.57 343.67 182.97 343.16 183.12 342.63 183.23 342.07 183.34 341.69 183.42 341.31 183.49 340.94 183.58 340.19 183.76 339.46 184 338.76 184.23 338.39 184.35 338.02 184.47 337.65 184.59 333.78 185.77 329.64 185.97 326.46 186.01L326.46 186.05C324.83 185.26 323.27 184.37 321.85 183.29ZM362.25 191.49C358.94 194.06 354.55 194.47 349.56 194.7 346 193.03 342.24 191.68 338.23 190.34 337.36 190.05 336.48 189.76 335.6 189.48 333.6 188.83 331.58 188.17 329.6 187.4 332.25 187.25 335.21 186.89 338.07 186.02 338.45 185.9 338.83 185.78 339.21 185.65 339.92 185.42 340.59 185.2 341.28 185.03 341.64 184.94 342 184.87 342.36 184.8 342.93 184.69 343.52 184.57 344.1 184.4 345.58 183.96 346.92 183.18 348.21 182.42 349.76 181.51 351.23 180.65 352.88 180.39L352.88 180.37C353.9 180.61 354.93 180.8 355.95 180.98 358.3 181.39 360.52 181.78 362.49 182.85 363.52 183.41 365 184.81 365.97 185.97 365.74 186.69 365.48 187.4 365.13 188.05 364.42 189.39 363.43 190.57 362.25 191.49ZM391.75 176.46C388.43 178.19 385.15 180.13 381.98 182 376.55 185.2 370.96 188.48 365.05 190.84 365.59 190.19 366.06 189.49 366.44 188.75 367.44 186.83 367.89 184.71 368.32 182.67L368.42 182.21C369.27 178.22 370.43 173.59 372.53 169.24 374.64 168.8 376.72 168.2 378.72 167.41 380.26 166.81 382.53 165.82 384.39 164.19 384.68 163.94 384.93 163.67 385.19 163.4 386.64 162.96 388.11 162.58 389.59 162.25 390.6 162.76 391.5 163.8 392.27 165.35 392.52 165.85 392.74 166.36 392.96 166.87 393.43 167.96 393.92 169.09 394.64 170.1 395.59 171.43 397.13 172.51 398.35 173.22 396.15 174.27 393.92 175.33 391.75 176.46ZM402.85 171.1C402.8 171.11 402.76 171.11 402.71 171.11L402.72 171.16C401.87 171.56 401.02 171.96 400.17 172.36 400.12 172.38 400.07 172.41 400.01 172.43 398.93 171.87 396.91 170.7 395.86 169.22 395.23 168.34 394.8 167.33 394.34 166.27 394.11 165.74 393.88 165.2 393.62 164.68 393.03 163.49 392.35 162.55 391.6 161.84 395.87 161.03 400.22 160.58 404.48 160.15 407.28 159.86 410.18 159.57 413.02 159.18 418.08 158.48 422 157.31 425.06 155.6 421.93 159.58 417.56 163.17 411.83 166.48 408.93 168.17 405.88 169.67 402.85 171.1ZM431.94 168.97C428.94 170.33 426.07 171.95 423.45 173.99 421.72 173.11 419.73 172.43 417.52 171.97 414.44 171.33 411.27 171.17 408.21 171.02 407.68 170.99 407.14 170.97 406.6 170.95 408.62 169.95 410.63 168.91 412.57 167.78 414.93 166.42 417.07 165 418.99 163.53L418.99 163.55C424.69 163.23 430.25 161.95 435.52 159.74 436.2 159.46 436.87 159.16 437.55 158.85 437.66 158.8 437.77 158.75 437.87 158.71 437.09 159.87 436.48 161.19 435.93 162.52L435.81 162.81C434.87 165.17 433.88 167.59 431.94 168.97ZM460.44 157.25C455.22 160.7 449.08 162.77 443.13 164.77 440.49 165.66 437.81 166.56 435.19 167.59 436.04 166.26 436.66 164.77 437.22 163.38L437.34 163.1C438.34 160.67 439.55 158.28 441.63 157.2 442.53 156.89 443.45 156.64 444.37 156.49 445.84 156.25 447.38 156.24 448.87 156.23L462 156.16C461.49 156.54 460.97 156.9 460.44 157.25Z" fill="#08B708"/></g><ellipse cx="127.23" cy="142.4" rx="2.74" ry="2.03" fill="#13CE13"/><ellipse cx="126.52" cy="157.89" rx="3.12" ry="2.76" fill="#13CE13"/><ellipse cx="107.36" cy="160.99" rx="3.16" ry="2.45" fill="#13CE13"/><ellipse cx="114.18" cy="171.7" rx="2.08" ry="1.58" fill="#13CE13"/><ellipse cx="110.91" cy="195.83" rx="4.05" ry="2.76" fill="#13CE13"/><circle cx="103.62" cy="227.43" r="3.24" fill="#13CE13"/><ellipse cx="109.15" cy="259.99" rx="4.03" ry="2.83" fill="#13CE13"/><ellipse cx="128.94" cy="274.16" rx="3.45" ry="2.79" fill="#13CE13"/><ellipse cx="111.6" cy="278.07" rx="2.83" ry="1.95" fill="#13CE13"/><ellipse cx="252.06" cy="349.23" rx="3.29" ry="2.45" fill="#13CE13"/><ellipse cx="253.68" cy="333.81" rx="2.99" ry="1.91" fill="#13CE13"/><ellipse cx="269.86" cy="326.23" rx="3.33" ry="2.12" fill="#13CE13"/><ellipse cx="270.67" cy="264.06" rx="2.52" ry="1.75" fill="#13CE13"/><ellipse cx="286.44" cy="263.6" rx="3.24" ry="2.2" fill="#13CE13"/><ellipse cx="285.85" cy="281.35" rx="2.08" ry="1.83" fill="#13CE13"/><ellipse cx="250.19" cy="232.43" rx="2.99" ry="1.62" fill="#13CE13"/><ellipse cx="261.66" cy="246.85" rx="1.83" ry="2.08" fill="#13CE13"/><ellipse cx="265.77" cy="226.64" rx="2.71" ry="1.76" fill="#13CE13"/><ellipse cx="319.86" cy="230.06" rx="2.91" ry="2.08" fill="#13CE13"/><ellipse cx="378.72" cy="221.74" rx="2.98" ry="2.24" fill="#13CE13"/><ellipse cx="418.77" cy="210.01" rx="3.48" ry="2.43" fill="#13CE13"/><ellipse cx="446.72" cy="199.35" rx="3.91" ry="2.41" fill="#13CE13"/><ellipse cx="512.36" cy="131.17" rx="3.7" ry="2.7" fill="#13CE13"/><ellipse cx="510.78" cy="103.82" rx="3.45" ry="2.79" fill="#13CE13"/><ellipse cx="519.05" cy="118.23" rx="2.66" ry="2.4" fill="#13CE13"/><ellipse cx="503.43" cy="151.29" rx="2.32" ry="1.54" fill="#13CE13"/><ellipse cx="435.25" cy="124.13" rx="3.65" ry="2.09" fill="#13CE13"/><ellipse cx="402.29" cy="125.14" rx="3.94" ry="2.08" fill="#13CE13"/><ellipse cx="363.79" cy="123.22" rx="3.7" ry="2.59" fill="#13CE13"/><ellipse cx="306.11" cy="121.53" rx="4.21" ry="2.37" fill="#13CE13"/><ellipse cx="270.04" cy="120.65" rx="3.59" ry="2.57" fill="#13CE13"/><ellipse cx="233.37" cy="121.15" rx="4.35" ry="2.74" fill="#13CE13"/><ellipse cx="171.04" cy="104.57" rx="3.33" ry="2.04" fill="#13CE13"/><ellipse cx="156.12" cy="98.41" rx="4.04" ry="2.12" fill="#13CE13"/><ellipse cx="167.72" cy="89.94" rx="3.05" ry="2.25" fill="#13CE13"/><circle cx="170.81" cy="90.76" r="0.82" fill="#FFFFFF"/><circle cx="159.07" cy="99.92" r="0.61" fill="#FFFFFF"/><circle cx="174.28" cy="105.41" r="0.85" fill="#FFFFFF"/><circle cx="237.07" cy="122.55" r="1.07" fill="#FFFFFF"/><circle cx="266.68" cy="119.68" r="0.8" fill="#FFFFFF"/><circle cx="303.78" cy="120.21" r="1.05" fill="#FFFFFF"/><circle cx="360.81" cy="122.31" r="1.05" fill="#FFFFFF"/><circle cx="399.1" cy="124.39" r="0.75" fill="#FFFFFF"/><circle cx="432.48" cy="122.93" r="0.88" fill="#FFFFFF"/><ellipse cx="508.07" cy="102.47" rx="1.16" ry="0.89" fill="#FFFFFF"/><circle cx="517.59" cy="116.59" r="0.76" fill="#FFFFFF"/><ellipse cx="510.26" cy="129.27" rx="1.03" ry="0.8" fill="#FFFFFF"/><ellipse cx="503.72" cy="149.72" rx="0.91" ry="0.69" fill="#FFFFFF"/><ellipse cx="443.19" cy="198.39" rx="1.03" ry="0.7" fill="#FFFFFF"/><ellipse cx="415.64" cy="209.16" rx="1.07" ry="0.55" fill="#FFFFFF"/><ellipse cx="376.36" cy="220.5" rx="0.97" ry="0.64" fill="#FFFFFF"/><ellipse cx="317.64" cy="229.09" rx="1.05" ry="0.8" fill="#FFFFFF"/><ellipse cx="263.2" cy="226.19" rx="0.87" ry="0.45" fill="#FFFFFF"/><ellipse cx="247.74" cy="231.65" rx="0.6" ry="0.48" fill="#FFFFFF"/><circle cx="260.37" cy="245.78" r="0.54" fill="#FFFFFF"/><ellipse cx="268.67" cy="263.49" rx="0.91" ry="0.57" fill="#FFFFFF"/><ellipse cx="283.75" cy="262.48" rx="0.91" ry="0.72" fill="#FFFFFF"/><ellipse cx="285.14" cy="279.66" rx="0.81" ry="0.55" fill="#FFFFFF"/><ellipse cx="270.17" cy="324.33" rx="0.91" ry="0.55" fill="#FFFFFF"/><ellipse cx="251.16" cy="333.4" rx="1.14" ry="0.64" fill="#FFFFFF"/><ellipse cx="250.15" cy="347.5" rx="1.01" ry="0.72" fill="#FFFFFF"/><ellipse cx="126.15" cy="272.75" rx="1.41" ry="0.96" fill="#FFFFFF"/><circle cx="109.61" cy="276.95" r="0.83" fill="#FFFFFF"/><ellipse cx="106.36" cy="258.79" rx="1.25" ry="0.8" fill="#FFFFFF"/><ellipse cx="100.92" cy="225.57" rx="1.21" ry="0.83" fill="#FFFFFF"/><circle cx="107.24" cy="194.94" r="0.88" fill="#FFFFFF"/><circle cx="112.99" cy="170.35" r="0.89" fill="#FFFFFF"/><ellipse cx="106.41" cy="159.09" rx="0.96" ry="0.55" fill="#FFFFFF"/><ellipse cx="124.99" cy="155.71" rx="1" ry="0.58" fill="#FFFFFF"/><ellipse cx="125.51" cy="140.86" rx="1.02" ry="0.49" fill="#FFFFFF"/></g></g></svg>