<svg viewBox="0 0 141.62 200.7" xmlns="http://www.w3.org/2000/svg" xmlns:xlink="http://www.w3.org/1999/xlink" id="REIN" xml:space="preserve" overflow="hidden"><g><g><path d="M59 15.24C52.35 15.37 37.55 32.7 30.9 40.68 24.25 48.66 20.76 54.65 22.09 66.12 23.42 77.59 30.07 79.59 32.73 80.92 32.73 80.92 34.49 109.8 34.25 119.11 34.01 128.42 33.38 145.16 34.25 152.81 35.12 160.46 40.66 178.64 66.15 178.53 91.64 178.42 109.27 163.9 115.37 149.71 121.47 135.52 124.02 116.68 124.35 110.69 124.68 104.7 124.68 102.15 125.46 97.72 126.24 93.29 127.01 66.24 113.05 48.17 99.09 30.1 76.46 14.9 59 15.24Z" fill="#702A53"/><path d="M35.03 92.22C35.69 104.49 36.35 116.79 35.56 129.05 35.46 130.53 35.5 132.32 36.77 133.09 37.19 133.34 37.69 133.44 38.17 133.52 39.16 133.7 40.15 133.87 41.14 134.05 41.61 134.13 42.09 134.22 42.56 134.16 44.29 133.97 45.33 132 45.23 130.26 45.13 128.52 44.24 126.95 43.55 125.36 41.22 120 40.99 113.99 41.1 108.15 41.21 102.31 41.61 96.4 40.43 90.68 40.07 88.97 39.55 87.22 38.4 85.9 37.51 84.87 35.14 83.18 34.58 85.18 34.32 86.11 34.72 87.49 34.79 88.43 34.9 89.69 34.96 90.95 35.03 92.22Z" fill="#5B1F44"/><path d="M59 15.24C52.35 15.37 37.55 32.7 30.9 40.68 24.25 48.66 20.76 54.65 22.09 66.12 23.42 77.59 30.07 79.59 32.73 80.92 32.73 80.92 34.49 109.8 34.25 119.11 34.01 128.42 33.38 145.16 34.25 152.81 35.12 160.46 40.66 178.64 66.15 178.53 91.64 178.42 109.27 163.9 115.37 149.71 121.47 135.52 124.02 116.68 124.35 110.69 124.68 104.7 124.68 102.15 125.46 97.72 126.24 93.29 127.01 66.24 113.05 48.17 99.09 30.1 76.46 14.9 59 15.24Z" stroke="#333333" stroke-linecap="round" stroke-linejoin="round" stroke-miterlimit="10" fill="none"/><path d="M33.06 80.55C33.06 80.55 32.62 81.88 33.25 82.21 34.58 82.9 37.83 83.23 40.09 85.95 43.44 89.97 42.15 118.69 42.15 118.69 42.15 118.69 43.69 115.66 44.02 113.49 44.72 108.55 43.98 96.87 43.56 92.04 43 85.32 40.29 81.8 33.06 80.55Z" fill="#333333"/><path d="M78.85 88.82C79.87 91.17 80.03 93.88 79.3 96.33 80.64 93.97 81.28 91.21 81.11 88.49 81.08 87.98 81.02 87.46 80.85 86.98 80.53 86.06 79.87 85.33 79.46 84.46 79.16 83.84 79.07 82.67 78.1 83.1 76.28 83.89 78.38 87.73 78.85 88.82Z" fill="#9B4279"/><path d="M79.11 110.23C78.99 109.64 78.89 109.05 78.87 108.45 78.84 107.42 79.03 106.39 79.22 105.37 79.36 104.65 80.13 102.66 79.51 102.09 78.64 101.3 78.27 103.32 78.15 103.87 77.9 104.95 77.86 106.08 78.03 107.18 78.2 108.3 78.88 109.2 79.11 110.23Z" fill="#9B4279"/><path d="M80.16 115C79.31 115.37 78.64 116.07 78.07 116.8 75.1 120.61 74.24 125.59 73.24 130.31 72.24 135.03 70.87 140.02 67.25 143.22 66.36 144 65.32 144.72 64.88 145.82 65.69 145.87 66.34 145.21 66.86 144.58 69.57 141.31 71.85 137.69 73.63 133.84 74.07 132.88 74.49 131.91 74.81 130.9 75.66 128.24 75.83 125.42 76.38 122.68 76.93 119.94 77.94 117.15 80.04 115.31 79.7 115.46 79.35 115.6 79.01 115.75" fill="#9B4279"/><path d="M37.31 81.21C39.13 82.09 41.02 83.03 42.26 84.63 43.48 86.2 43.93 88.22 44.24 90.18 44.79 93.62 45.01 97.11 45.23 100.59 45.38 96.66 45.24 92.73 44.82 88.82 44.55 86.37 44.09 83.77 42.39 81.99 40.99 80.54 38.97 79.88 36.99 79.49 35.53 79.2 34.03 78.86 32.56 78.66 32.96 79.72 36.24 80.69 37.31 81.21Z" fill="#9B4279"/><path d="M35.97 154.74C35.97 154.74 38.13 177.35 66.48 177.19 94.83 177.02 110.96 160.65 118.44 137.78 123.58 122.06 112.26 142.83 95.25 155.38 87.52 161.08 75.17 166 66.57 165.22 39.05 162.72 34.31 142.18 35.97 154.74Z" fill="#5E2247"/><path d="M69.65 27.88C71.58 31.44 71.15 35.77 70.42 39.76 69.69 43.75 68.74 47.87 69.78 51.78 70.04 52.75 70.41 53.68 70.79 54.6 72.04 57.7 73.29 60.8 74.54 63.9 76.41 68.54 78.32 73.43 77.77 78.41 79.12 70.87 77.89 62.88 74.32 56.1 73.56 54.66 72.7 53.26 72.21 51.71 71.44 49.3 71.63 46.7 71.94 44.19 72.55 39.29 73.59 34.19 71.98 29.52 70.58 25.45 66.64 21.47 62.26 20.79 62.65 21.93 65.1 23.03 66.06 23.81 67.47 24.95 68.78 26.27 69.65 27.88Z" fill="#9B4279"/><path d="M75.2 42.9C74.38 46.91 75.47 51.07 76.96 54.88 78.45 58.69 80.35 62.38 81.24 66.37 82.24 70.84 81.96 75.61 83.7 79.85 85.52 84.27 89.57 87.7 94.22 88.76 98.87 89.83 104.01 88.5 107.57 85.32 109.2 83.86 110.49 82.06 111.67 80.21 113.45 77.41 115 74.39 115.61 71.13 117.16 62.83 112.44 54.71 107.25 48.05 101.58 40.77 95.12 34.1 88.01 28.22 86.07 26.61 81.18 21.51 78.34 22.43 75.95 23.2 76.23 27.33 76.3 29.25 76.38 31.39 76.85 33.5 76.77 35.64 76.68 38.2 75.7 40.45 75.2 42.9Z" fill="#772D5B"/><path d="M97.54 41.62C103.08 47.01 108.86 52.78 110.83 60.26 111.06 61.15 111.24 62.09 111.03 62.98 110.69 64.41 109.41 65.46 108.02 65.92 106.63 66.39 105.13 66.37 103.67 66.34 100.08 66.27 96.23 66.09 93.38 63.91 91.31 62.32 90.08 59.9 88.99 57.52 87.08 53.32 85.42 49.01 84.02 44.61 82.86 40.97 80.1 34.89 80.59 31.05 81.22 26.14 85.46 29.88 87.3 31.66 90.71 34.99 94.12 38.31 97.54 41.62Z" fill="#7C3263"/><path d="M93.34 39.34C93.76 39.93 94.17 40.56 94.34 41.27 94.5 41.98 94.38 42.8 93.85 43.31 93.76 43.4 93.65 43.48 93.54 43.54 93 43.86 92.29 43.87 91.69 43.66 90.96 43.41 90.37 42.88 89.84 42.32 86.2 38.46 90.32 35.1 93.34 39.34Z" fill="#84396F"/><path d="M61.68 23.56C59.84 22.36 57.46 22.24 55.33 22.79 53.2 23.34 51.29 24.5 49.47 25.72 42.98 30.06 37.09 35.47 33 42.11 28.91 48.75 26.68 56.71 27.65 64.45 27.86 66.11 28.23 67.79 29.14 69.19 30.23 70.87 31.98 71.98 33.67 73.04 37.91 75.7 42.19 78.37 46.87 80.14 51.55 81.91 56.72 82.73 61.59 81.57 62.78 81.29 63.95 80.88 64.95 80.18 68.45 77.72 68.69 72.66 68.14 68.42 67.35 62.28 65.66 56.23 65.66 50.05 65.67 45.77 66.49 41.53 66.63 37.25 66.77 32.97 66.15 28.47 63.6 25.02L61.68 23.56Z" fill="#772D5B"/><path d="M33.83 45.45C32.18 48.97 31.19 53.64 33.96 56.36 35.61 57.98 38.11 58.35 40.42 58.43 44.5 58.57 48.65 58.07 52.41 56.47 56.17 54.87 59.5 52.1 61.33 48.45 62.46 46.2 62.99 43.69 63.49 41.22 64.43 36.58 65.19 31.4 61.39 27.82 58.15 24.76 55.28 25.52 51.62 27.3 43.74 31.16 37.57 37.5 33.83 45.45Z" fill="#7C3263"/><path d="M44.98 35.49C44.92 35.89 44.9 36.31 45.1 36.66 47.01 40.04 55.22 36.5 53.44 31.96 51.47 26.97 45.51 32.09 44.98 35.49Z" fill="#84396F"/></g></g></svg>