<svg width="810.42" height="434.61" version="1.1" xmlns="http://www.w3.org/2000/svg">
 <path d="M0 0h810.42v434.61H0z" fill="#fff"/>
 <path d="M174.69 434.64c6.593-13.104 15.323-26.449 26.878-39.071 0 0 9.959-15.317 62.817-26.046 5.135-1.042 11.234-7.327 15.542-10.278 16.777-11.488 79.758-15.154 65.731-48.738-1.815-4.348-2.274-7.832-1.645-12.048q.148-.984.376-2.033c.929-4.314 1.78-9.73-1.349-13.409-2.87-3.381-9.006-4.113-13.196-4.57-5.723-.621-11.479-.737-17.225-.991-5.214-.232-9.008-.308-13.546-3.365-4.893-3.294-9.675-9.256-8.855-15.521.414-3.176 3.276-5.126 3.505-8.383.235-3.272.667-6.736-.639-9.871-.977-2.356-2.743-4.298-3.378-6.83-.694-2.761 1.515-3.1 2.448-5.239.952-2.172-2.309-3.449-3.31-5.627-1.1-2.399 1.023-4.933 1.793-7.445.982-3.205 2.468-6.539-.16-9.188-1.945-1.965-4.483-2.754-6.812-4.088-2.272-1.299-4.7-3.465-6.315-5.552-1.93-2.494-2.247-4.875-1.847-7.855.371-2.77 2.022-3.72 3.82-5.822 6.211-7.259 11.567-15.297 17.69-22.705 2.883-3.489 7.862-7.837 8.287-12.619.17-1.907-.201-3.878-.545-5.748-.506-2.732-.984-5.311-.845-8.1.287-5.741 4.459-9.854 7.216-14.559 1.95-3.327 3.62-6.616 5.069-10.173 2.636-6.47 7.171-11.702 11.575-17.122 28.523-35.099 87.147-23.604 97.27-21.547 50.176 10.202 68.916 44.214 75.032 56.762 14.526 29.79.55 58.389-2.103 63.546-2.688 5.24-20.214 33.345-21.838 36.038-15.572 25.795-13.379 53.235-12.469 59.997 1.404 10.424 6.473 22.232 12.558 31.044l3.146 4.651s3.902 6.901 19.444 14.064c0 0 31.792 14.556 55.157 30.642 23.368 16.089 29.112 9.574 56.309 20.683 0 0 26.451 4.673 44.296 47.108" fill="#ddd" stroke="#3f3f3f" stroke-width="1.187"/>
 <g transform="translate(0 -9.805)">
  <g stroke="#000">
   <g stroke-width=".392">
    <path d="M432.7 186.14c-.558-.6-1.685-1.855-1.881-2.636-.216-.848.224-2.215.183-3.136-.1-2.208-.693-4.367-1.531-6.403-1.722-4.196-4.441-7.923-7.231-11.464-3.375-4.285-7.672-9.117-12.562-11.639-5.971-3.074-11.862-4.617-18.613-4.714-6.594-.096-13.102 2.529-17.894 6.979-2.395 2.22-3.549 4.903-6.628 6.386-2.138 1.026-2.733.319-3.127 2.626-.305 1.789-1.542 2.987-1.992 4.736-.314 1.215-.508 2.329-.337 3.652.42 3.284 2.085 5.371 4.362 7.594 2.13 2.08 3.843 3.722 5.173 6.446.654 1.336 1.234 2.403 2.35 3.43 1.969 1.827 4.167 1.551 6.573 1.993 2.454.451 4.592 1.155 7.162 1.229 1.606.046 3.182.031 4.785-.045.993-.045 2.206-.286 3.076-.763-.472-2.474-.795-4.778-.635-7.325-.272 4.286.769 8.343 2.409 12.263a9.7 9.7 0 0 0 3.34 4.18c1.433 1.014 3.891 1.458 5.59 1.66-1.485-.176-2.345 1.855-2.603 2.9" fill="#ffc06e"/>
    <path d="M467.88 198.21c.927-.108 3.019-.315 3.096-1.491 1.331.055 2.359 1.194 3.722.976.917-.147 2.336-1.021 2.995-1.655 1.694-1.631 2.841-4.484 3.889-6.448 1.743-3.265 4.854-6.861 3.189-11.025 1.065 1.356 2.552-1.642 2.811-2.472.795-2.549-.476-5.569-.109-8.159-.097.877.089 1.667 0 2.521-.359-1.515.129-1.951.814-3.029 1.25-1.965 1.236-5.046.396-7.206-.241-.613-.938-.984-1.096-1.366-.372-.916.02-.407.194-.955.566-1.8 1.033-3.111.678-5.048-.409-2.249-1.323-4.53-2.31-6.593-.271-.574-1.088-1.398-1.191-1.952-.077-.436.303-1.14.296-1.649-.012-2.345-1.875-8.143-4.419-8.992 1.611-1.831-1.098-4.993-2.084-6.334-.896-1.217-1.94-2.119-3.416-2.379-.329-.729-.254-1.552-.56-2.302-.529-1.313-1.845-2.189-2.659-3.295-.846-1.153-2.694-5.521-4.79-4.313-.376-1.949-1.914-3.259-3.151-4.739-1.393-1.659-2.646-2.023-4.729-2.307.097-1.854-2.804-3.837-4.118-4.8-1.103-.81-2.888-2.138-4.27-1.66-1.632-2.994-5.931-4.277-8.655-6.016-.851-.54-2.306-1.432-3.324-1.494-.827-.045-1.199.655-1.852.674-.929.027-1.113-.93-1.691-1.442-.545-.489-1.572-.945-2.248-1.255-2.58-1.182-5.771-2.392-8.234-.736-.836-1.253-3.05-1.517-4.374-1.871-1.693-.457-3.425-.796-5.108-1.238-2.117-.558-6.174-1.934-7.616.643-1.836-1.443-3.038-2.045-5.36-2.163-2.665-.128-5.289.626-7.94.79-2.74.168-5.314.443-8.063.445-.864-.001-1.736-.051-2.608-.018-2.368.083-5.525 1.264-6.936 3.238-.36-.444-2.618-1.106-3.299-1.164-1.728-.149-3.598.784-5.106 1.509-2.48 1.191-5.174 1.517-7.811 2.206-3.984 1.041-7.862 2.409-11.583 4.182-2.017.965-3.632 1.52-4.821 3.406-1.195 1.892-3.818 2.282-5.511 3.885-1.075 1.021-1.922 2.2-2.318 3.612-.205.722-.082 1.771-.362 2.432-.357.838-1.175 1.129-1.923 1.667-1.221.875-2.028 1.948-2.996 3.085-1.118 1.313-3.812 3.979-2.75 5.907-2.198 1.644-1.479 3.646-1.685 6.038-1.319.371-2.076 2.62-2.394 3.792-.453 1.67.138 3.058.058 4.592-.091 1.775-.786 3.022-.458 4.918.359 2.05 1.819 3.518 2.508 5.376.536 1.448.428 2.921 1.09 4.373.666 1.46 1.636 2.525 2.828 3.583 1.152 1.019 2.053 1.316 3.346 1.925 1.123.524 1.811 1.651 2.737 2.425.959.797 2.035.875 3.115 1.355 2.896 1.28 5.755 1.098 8.825 1.448 2.44.28 4.986 1.438 7.417 1.977 2.189.481 4.634 2.274 6.89 1.944 2.556-.372 4.73-.541 7.384-.072 2.485.44 4.848 1.294 7.447 1.202 1.093-.037 2.287-.394 3.35-.636.703-.16 2.289-1.103 2.781-.77-1.275 3.353 1.588 1.949 3.485 1.578-.092 4.081-6.404 1.975-6.558 5.431-.077 1.715 1.399 2.597 2.885 2.941.381.089.8.18 1.198.187.356.002.747-.173 1.088-.11.707.127.923 1.042 1.579 1.287 1.151.432 2.75-.194 3.67-.904 2.06-1.586.422-3.895.037-5.786-.43-2.097 1.069-4.445 3.188-3.178.615.365 1.327.438 1.894-.061.667-.585.424-1.136.485-1.887.079-.988.89-2.34 1.415-3.183 1.033-1.674 3.519-2.666 5.436-2.239 2.408.54 4.348 3.144 5.66 5.042 3.599 5.206 4.399 11.098 6.512 16.862.578 1.57 1.326 3.023 2.111 4.493 1.293 2.431 3.46 3.89 5.556 5.599-4.43.018-5.72 5.102-4.92 8.671.33 1.466 1.529 3.103 1.46 4.554-.078 1.61-1.804 2.559-1.929 3.976-.044.507.66 1.824.845 2.305.5 1.29.74 2.32.893 3.692.305 2.76-.048 4.869 2.308 6.584 2.59 1.888 6.774 3.685 9.764 1.897.715-.426 1.326-.778 1.675-1.522.345-.73-.195-1.378.49-1.988.724-.648 1.249-.227 1.989.069 2.305.924 4.625 1.193 7.075 1.65 2.805.522 3.666-.899 5.858-2.105 1.446-.795 2.551-.134 3.971-.375 2.514-.43 5.141-1.671 7.077-3.169 2.617-2.019 6.094-3.399 7.769-6.3.932-1.608 1.587-3.584.862-5.354-.988-2.411-2.616-4.428-4.171-6.489 1.129.312 2.194.891 3.415.75z" fill="#ffa26b"/>
    <g fill="none">
     <path d="M324.17 133.97c.509 1.034.225 1.458 1.62 1.46.821.003 1.613-.011 2.455.045m3.495 4.655c1.259-.154 2.482.11 3.373-.876.937-1.036 1.364-2.616 2.103-3.796.727-1.156 1.073-.877 2.262-.421.995.378 2.276.42 2.706 1.369.303.667.231 1.629.358 2.336.222 1.211.56 2.438.807 3.656.232 1.146.524 2.175-.214 3.177-3.426 4.643-10.011-.611-14.367.378-1.208.272-1.674.211-2.667-.553m8.779 11.77c1.317-.386 4.831-.566 2.304-2.629.298.378.399.878.715 1.238.427.481-.122.282.605.377.831.111 1.971-.281 2.847-.268 1.034.017 3.788.919 3.912 2.106m3.707 3.446c-.196-.833-1.097-1.366-1.207-2.168"/>
     <path d="M343.63 144.01c.226.95 1.391 2.266 2.309 2.589.78.272 1.837.17 2.646.325 1.506.29 2.6.314 3.881 1.245.962.704 1.545 1.329 2.272 2.241 1.405 1.764 2.645 2.347 4.565 3.377 2.221 1.192 4.42 1.6 6.406 3.287 1.78 1.509 4.245 2.071 6.428 1.267M328.45 121.49c1.425.773 2.71.719 4.087-.062.759-.427 2-1.961 2.9-1.82.057-.4.242-.767.345-1.157-.13 1.766.021 2.28 1.492 3.267.734.491 2.229 2.054 3.201 1.71-.83.372 1.384 3.077 1.205 3.99m-13.79.542c1.619.099 3.53.781 5.106 1.206 1.084.292 2.474.311 3.445.87.904.521 1.208 1.357 1.347 2.279.109.718-.16 2.253.823 2.39m3.569 1.715c.448-.507.482-1.302.89-1.904.443-.653 1.073-1.235 1.573-1.839.93-1.12 1.812-2.257 2.598-3.494 1.343-2.11 3.918-6.228 2.301-8.596-.873-1.287-1.887-1.25-3.058-2.025-1.375-.917-1.376-2.497-1.115-3.943.249-1.361.637-2.536-.084-3.752-.611-1.032-1.558-1.951-1.75-3.213-.155-1.026.007-3.218.615-4.017m-7.73 7.213c1.18.728 4.156-1.511 5.071-2.359m10.309-3.601c1.079 1.55 1.603 1.667 1.107 3.486.302-.813.354-1.546 1.125-2.021.807-.498 2.165-.553 3.094-.735 1.491-.29 2.979-.6 4.425-.965 1.159-.293 1.614-.271 2.778.083-.14-.223-.826-.459-.906-.683-.216-.603.904-1.811 1.208-2.237.86-1.195 1.794-2.445 2.819-3.491.457-.466.986-.98 1.612-1.203.795-.281 2.253-.025 2.958.665-.974-.166-1.718-.987-2.678-1.188.556-.776 1.172-1.66 2.285-1.548"/>
     <path d="M368.92 158.74c.833.36 1.051 1.4 1.354 1.812m11.516-6.842c-.443 1.758-3.141 1.441-4.369.963-1.695-.664-3.088-2.001-4.608-3.019-1.652-1.106-3.348-2.176-5.147-3.037-.513-.245-3.951-1.512-4.014-2.031.067.553-.026 1.143.322 1.58-.668-1.799-1.978-2.988-3.61-4.017-1.277-.808-2.398-1.314-3.006-2.747-.568-1.336-.875-2.219-1.979-3.251.532.69 1.122 1.407 1.54 2.175-1.238-4.969-2.662-10.996 2.949-13.53-.662-.087-1.208.245-1.82.353-.92.165-2.002.196-2.933.193 4.236.546 8.648-1.231 11.44-4.383.964-1.091 1.641-2.387 2.572-3.487.592-.698 1.375-1.125 1.942-1.713-.434-.052-1.16.082-1.378.137.84-.216 1.855-.084 2.722-.199 1.272-.168 2.601-.14 3.87-.344 2.422-.383 4.129-1.172 5.861-2.957 1.849-1.908 3.412-2.689 6.146-2.498 1.518.107 5.781 1.528 6.463-.75a2.4 2.4 0 0 0-.474 1.235c.956-.201 2.22-.013 3.239-.108 1.378-.126 3.012-.195 4.103.646 1.609 1.244 2.381 1.722 4.422 1.189 1.958-.51 3.97-.963 5.901-1.563.767-.237 1.49-.637 2.282-.831.435-.106 1.736-.098 2.034-.472.571-.716-.573-3.313-.861-4.051-1.105-2.826-2.05-5.752-3.52-8.389-.412-.744-1.081-1.355-1.426-2.114"/>
     <path d="M349.9 120.36c.617.171 1.177.13 1.807.011a2.7 2.7 0 0 0-.654.89c2.635-3.031 5.885-5.147 9.562-6.713 2.601-1.109 5.5-1.31 8.024-2.591 1.277-.647 2.51-1.709 3.507-2.716 1.234-1.251 1.8-2.956 3.301-3.981 1.083-.742 2.521-1.376 3.813-1.585 2.188-.357 4.14-.112 6.302-.092 1.283.012 2.602.055 3.873-.174 1.171-.211 1.916-.967 3.035-.232.937.617 1.615 1.856 1.995 2.883.526 1.43.09 2.952.57 4.331m-3.845-10.453c.09 1.455 2.553 4.416 4.105 2.855M376.82 90.859c3.245 2.132 8.105 2.806 8.565 7.414-.502-1.36.334-3.274 1.155-4.428 1.011-1.417 2.188-2.118 3.881-2.56 2.346-.611 4.751-1.112 7.142-1.575 1.624-.313 3.167-.236 4.789-.443m4.928-.158c-3.385.619-2.957 4.269-2.145 6.709.804 2.415 1.53 4.874 2.513 7.174-.682.12-1.271.452-1.931.636.64-.075 1.112-.633 1.727-.739-.254-1.748-1.62-7.799-4.23-6.317m8.326 16.648c.327 1.399 1.763 2.265 2.739 3.161 1.04.959 2.007 1.773 2.874 2.873.568.717 1.791 1.736 1.422 2.701-.435 1.126-2.252 1.845-2.896 2.843 1.097-.767 1.832-2.143 3.005-2.776.591-.316 1.467-.293 1.889-.696m-4.003-9.846c1.021 2.724 5.643 3.588 8.132 3.744 3.444.222 2.461-4.721 3.625-6.879 1.483-2.747 5.713-2.846 7.492-5.384.821-1.169.907-2.915.745-4.287-.075-.649-.309-1.303-.335-1.952-.022-.584.23-1.266.161-1.833a.3.3 0 0 0 .098-.25.23.23 0 0 0-.225-.128"/>
     <path d="M418.5 99.325c1.868 1.266 3.085 2.072 3.366 4.379.069-.864-.575-1.653-.152-2.434.451-.831 1.772-1.301 2.648-1.4 1.746-.197 6.121.945 6.85-1.404m-6.262-7.303c-.264.838-.117 1.604-.165 2.448m1.505 21.349c-.785.897.804 2.269 1.265 3.063.535.921.943 1.932.902 3.01-.028.962-.478 1.692-.209 2.664.193.696 1.606 2.321 2.27 1.373m2.442 3.85c-3.058.215-2.485 5.08-2.898 7.054-.182.872-.976 2.538-1.917 2.81-1.158.333-2.771-2.096-3.521-2.836-3.349-3.305-8.175-5.31-12.433-7.209-3.511-1.565-7.453-2.092-11.241-2.348q-1.95-.134-3.901-.264c-3.316-.225-6.783-.686-10.11-.572-3.099.108-6.546.219-9.57.988-3.188.811-6.583 2.137-8.941 4.511-2.574 2.592-3.007 6.755-.653 9.677.971 1.207 2.386 1.75 3.777 2.371.999.447 2.09.65 3.093 1.087 1.026.453 1.874.378 2.958.642.926.225 1.902.63 2.758 1.043 1.345.652 2.592 1.788 3.741 2.708 3.235 2.589 4.214 6.847 3.911 10.817-.213 2.838-3.022 3.84-4.439 6.099m48.196-51.768c1.736.791 3.442 1.841 5.112 2.632.253-1.614 2.065-2.679 2.255-4.23.177-1.476-1.663-2.384-1.348-3.892m7.691 4.33c.506-.341.644-.917.971-1.37.499.478 1.029 1.088 1.697 1.294-1.038-.564-1.706-.942-1.657-2.181.058-1.459.592-3.25 1.191-4.561.524-1.15 1.167-1.83 2.108-2.527.367-.268 1.546-1.329 1.094-1.591m-9.374 7.966c-.894.616-1.638 1.302-2.234 2.182"/>
     <path d="M437.04 115.81c-.419 2.138 1.479 3.517 2.746 4.854.776.815.668 1.674 1.329 2.539 1.106 1.453 1.93 2.928 2.694 4.609.923 2.031.864 3.693.253 5.949-.246.896-1.182 2.789-1.001 3.71.114.562.921 1.373 1.326 1.809 1.203 1.292 2.983 1.853 4.255 2.989 1.177 1.044.584 2.69.664 4.252.091 1.802.274 3.654.039 5.396-.251 1.88-2.508 3.055-2.794 4.943"/>
     <path d="M459.31 107.85c-1.676 1.988-2.759 5.144-5.224 6.316-1.103.522-2.265.824-3.42 1.208-2.684.89-10.331 2.705-10.117 6.562m26.761-7.036c-1.932 2.572-1.918 5.434-1.571 8.471-1.744.301-3.414 1.419-5.146 1.89-1.396.379-3.093.769-4.505.916-2.862.292-4.438-2.208-5.43-4.503.474.976 1.04 1.958 1.769 2.786.266.301 1.012.872 1.018 1.295.006.494-1.229 1.475-1.486 1.912-.76 1.258-1.216 2.967-1.405 4.4m16.096-7.377a2 2 0 0 0-.45-.395c.128.872 1.613 2.375 2.361 2.974.779.625 1.406.708 2.427.418.922-.262 3.686-2.565 3.975-2.437M449.2 143.03c1.394-.22 2.842-1.626 3.507-2.796.626-1.104.371-2.555.865-3.491-.75 2.256-1.216 4.302.864 5.633.873.557 1.849 1.351 2.812 1.724 1.194.462 2.362.107 3.518.353-.764.32-2.699-.597-3.356.208-.69.845.88 3.434 1.764 3.467m-9.814 3.512c.267 2.372 3.168 3.312 2.784 6.084m11.746-3.014c1.179-.35 1.452-2.887 1.646-3.939.278-1.537.427-3.094.863-4.604.831-2.873 2.546-5.117 3.89-7.695-1.704 2.417-2.802-1.482-2.897-2.771-.143-1.837.857-6.604 2.842-7.58m2.756 4.569c2.396 1.729.583 5.229 1 7.604.626 3.589 2.903 6.682 2.523 10.483m.667-19.607c.306 1.301 1.902 3.317 3.26 2.676"/>
     <path d="M429.08 137.91c-.976 2.545.4 3.85 2.243 5.518 1.157 1.049 3.543 4.76 5.266 4.175-.644 1.276.942 3.038 1.506 4.188.65 1.33 1.115 3.013 1.213 4.483.083 1.313-.295 2.841-1.12 3.875-.857 1.072-2.797 3.234-4.133 3.68-.396 3.406 6.607 4.18 8.771 3.796 1.275-.226 1.923-1.151 2.833-1.884 1.842 2.903 9.976-4.945 11.997-5.218.014.632-.148 1.242.075 1.842.187-3.673 3.016-4.974 5.963-6.602 1.067-.59 1.62-.147 2.656-.431.529-.142 1.221-.829 1.788-1.035.861-.307 1.698-.283 2.592-.311 2.89-.087 5.867.554 8.709-.349 1.144-.362 2.172-.773 2.935-1.648.974-1.119.819-2.275 1.52-3.463-.279.65-.562 1.639-.481 2.363 1.406.049 2.594.726 2.68 1.879.029.432-.352 1.217-.328 1.776.039 1.018.949 2.08.789 2.804M463.3 167.08c1.331.09 2.71.27 4.034.242-.706-.599-1.017-2.358-1.046-3.238-.203 1.748.263 3.477 1.829 4.263 1.117.564 2.896.403 3.676 1.433 1.101 1.444 1.048 4.739 1.534 6.477.311 1.109.854 2.05.399 3.12-.714 1.681-2.743 2.806-4.398 3.186-1.569.357-1.932.559-2.355 2.284-.504 2.045-.01 4.31 1.225 6.017 1.043 1.444 2.359.895 3.649 1.73-1.313.416-2.172-.506-2.975.534-.948 1.233.303 2.5 1.463 3.086"/>
     <path d="M467.21 155.22c-2.045 3.656 4.74 6.698 7.179 7.224.112 1.663 3.056 2.855 4.212 3.663 1.543 1.08 2.486 3.633 4.175 1.628 1.372-1.631 1.545-4.307.555-6.181-.916-1.729-3.142-2.062-4.841-2.631 1.365.05 2.37.729 3.598 1.056.209-.745.549-1.473.675-2.232m-9.083 20.513c.929.404 3.104-.496 4.113-.701.89-.183 2.263-.354 3.033-.819 1.503-.902 1.585-3.242 2.883-4.142-.597 1.384-1.985 2.584-2.388 4.007-.342 1.222.319 1.797.585 2.988.556 2.439-.774 4.782-.426 7.36q.187.1.303-.122"/>
     <path d="M472.88 187.7c1.267-.133 3.826-.159 4.778-1.024.805-.731.773-2.163 1.246-3.112-.342.721-1.404 2.414-1.228 3.164.177.733.984.898 1.559 1.402 1.048.915 1.577 2.135 1.758 3.065m-.543-23.455c-.173 1.736.33 3.753-1.169 5.162m-37.661-4.992c-.412.94-1.322.741-.966 2.064.266.999 1.698 2.111 2.394 2.815 1.435 1.452 4.833 5.28 7.051 5.128-.763-3.277 3.127-3.53 5.402-3.994 2.525-.515 4.423-1.585 5.595-3.881.025 2.29-2.359 2.706-3.641 3.646 1.124.996 2.752 2.423 4.21 2.903 1.07.354 2.128-.082 3.244-.245-.781.3-2.945-.201-3.486.712-.331.565.335 1.322.579 1.894.446 1.035.674 2.083.765 3.19.091 1.093.317 4.021-1.009 4.621-1.196.541-1.659-1.889-1.908-2.83-.066.218.09.177.155.285"/>
    </g>
    <path d="M449.94 182.85c-1.124-.248-.945-1.961.258-1.918-.537-.021-1.474-1.041-1.865-1.341-1.164-.888-3.509-5.296-4.928-1.783.662-1.981.088-2.952-1.3-4.432-1.902-2.035-1.342.583-3.126-.121 3.527.805-.448-5.406-1.408-2.362.761-1.356-.966-3.737-2.134-2.404.882-1.889-1.81-4.453-3.161-5.141-1.102-.561-1.924-.851-2.827-1.667-1.61-1.461-3.663-3.798-4.061-6-.276-1.527-.145-3.101-.507-4.629-.714-3.005-2.233-6.891-4.553-9.008-2.593-2.365-6.021-4.026-9.345-5.068-1.896-.592-3.728-.793-5.687-.967-3.743-.333-7.361.212-11.132-.458-2.922-.521-5.475-1.409-8.065.554-2.331 1.763-3.861 4.784-3.139 7.665.532 2.114 1.987 3.729 3.744 4.938 1.1.753 2.246 1.323 3.324 2.095-.833-1.267.141-4.175.516-5.506.531-1.888 1.33-3.33 2.829-4.559 3.841-3.158 10.568-4.257 15.265-2.7 2.696.897 5.598 1.648 7.687 3.701 1.789 1.763 4.721 4.683 5.008 7.272.174 1.561-.647 3.19-1.134 4.667-.349 1.064-1.106 2.705-.965 3.84.132 1.091 1.265 1.895 1.782 2.772 1.04 1.748.694 5.944-2.354 5.049-2.485-.734-1.563-7.357-4.096-6.785-1.052 3.44.521 6.597 1.854 9.733 1.259 2.964 4.69 6.1 3.287 9.602-.572 1.43-1.966 2.094-1.563 3.788.646 2.714 4.564 2.863 4.855 5.416 1.405.251 2.136 1.354 2.771 2.438-.314-.392-.528-.983-.864-1.319-.352-.353-1.039-.474-1.309-.721-.546-.515-.248-.65-.592-1.363-.307-.632-.858-.918-1.35-1.391-1.446-1.391-2.499-6.479.592-6.705-.349.024.668-1.564.771-1.683.835-.949 1.677-1.05 2.859-.495.288-.342.764-.458 1.079-.284-.623-.159-1.083-.971-.808-1.658.153-.386.636-.512.771-.855.172-.436.026-1.167.144-1.682.255-1.084.826-2.063 1.95-1.113.199-1.058 1.214-1.956 2.217-1.162 1.268-1.982 2.941-.583 2.853 1.357-.069-1.049.723-1.844 1.724-1.191.856.555.48 1.698 1.137 2.355.708-.472 1.829-.889 2.424.092.294.487.075 1.095.306 1.566.434.876.711.541 1.385.944 1.16.698 1.915 2.291 1.706 3.721 1.072.249 1.768-.452 2.787.177 1.437.888 1.001 3.424 1.019 4.797.84-.091 2.585-.312 3.369-.068z" fill="#ef8f60"/>
   </g>
   <g fill="none" stroke-width=".347">
    <path d="M420.39 218.05c1.392.269 2.557 1.221 3.732 1.953 2.079 1.295 4.192 2.367 6.691 2.518M419.3 206.35c.995-.23 3.012-.301 3.75-.976m-4.52 2.566-.2.053c.971.133 4.979.569 5.322-.691m-4.782 2.868c1.887.117 4.334-.163 5.977-1.152m-5.357 2.912c.965-.674 2.674.7 3.532 1.048 1.78.714 3.876-.385 5.259-1.518"/>
    <path d="M419.54 212.35c.087 1.065 2.117 1.85 2.96 2.024.769.162 1.369.05 2.041.492 1.19.787 2.196 1.926 3.694 2.083.921.099 1.764-.017 2.64-.29 1.117-.346 3.093-1.117 3.282-2.502m5.563 6.183c.95-.317 1.895-.706 2.656-1.374.415-.362.538-.685.706-1.2.25-.771.015-1.354.146-2.1m5.262 3.304c.021-.461-.169-.757-.02-1.232.172-.554.619-.926.938-1.393.912-1.331 1.405-3.054.55-4.563m2.012-1.912c.23-.331.752-.309 1.099-.489.377-.192.715-.518.968-.851.234-.308.456-.725.61-1.088-.223-.009-.479.053-.636.18 1.451-.254 2.193-.811 2.916-2.083.276-.481.357-1.064.614-1.518.24-.419.71-.788.986-1.235.554.295 1.206.109 1.79.047.802-.084 1.818-.018 2.687-.157 1.019-.162 3.071-.674 3.774.09M450.49 218.53c.491-1.72 1.2-2.683 2.318-4.035.85-1.022 1.403-3.19.621-4.365m1.431 7.8c-.029.083-.015.139.052.171.544-1.305 1.007-3.663-.063-4.839"/>
    <path d="M452.61 218.6c1.146-.648 1.15-3.438.457-4.392m1.913-6.428c1.146-.015 2.226 2.365 2.472 3.265.165.61.226 1.239.276 1.852.036.427.136.848.158 1.297.039.917-.33 1.568-.551 2.402a.3.3 0 0 0-.076-.146m3.971-1.78c-.773-1.25-1.543-2.704-1.851-4.141-.354-1.664-1.153-3.042-2.507-4.098m1.108-1.801c.757.549 1.461 1.208 1.828 2.066.269.634.725 1.046 1.032 1.641.42.812.562 1.762.826 2.623.222.721.979 1.666.882 2.411m-8.458-8.101c1.089-.221 2.104-.25 3.087-.857m-4.067-1.673c.87-.155 1.796.048 2.647-.177.796-.216 1.557-.777 2.107-1.377.039.072.058.144.086.22.289-.451-.119-.882-.38-1.239.406.393.58.406 1.006.33.876-.161 1.61-.592 2.563-.572.767.016 1.346.331 2.049.572.391.134 1.184.684 1.503.49m-10.931-.657c1.173.589 2.922-.418 3.133-1.674.075-.442-.081-.872-.142-1.29.091.143.269.268.38.398.45-.251 1.021-.218 1.54-.215 1.039.014 3.553.766 4.286-.038M450.77 181.54c.827-.009 1.795.941 2.369 1.405a10 10 0 0 1 2.058 2.322c.872 1.393 1.419 2.955 2.313 4.342 1.243 1.93 2.55 3.828 4.063 5.558.688.786 1.404 1.61 2.244 2.235.573.426 1.601.839 1.654 1.672m-4.391-4.064c-1.4-.302-2.884.396-4.237.041-1.127-.297-1.151-1.497-1.625-2.373.637-.071 1.288.024 1.931-.063.53-.072 1.114-.316 1.649-.214m-4.988-2.471c.469.459 1.513-.062 2.131-.005.546.051 1.271.203 1.77.434"/>
    <path d="M453.08 187.51c1.093.416 2.302.145 3.295.879m-4.145-2.899c.725.028 1.401-.068 2.108.164.554.181 1.048.535 1.598.745m-1.446 9.151c.526-.077 1.344-.178 1.448-.803m-1.428 2.933c.888.424 2.275-.903 1.766-1.848M425.02 214.85c2.025.136 4.857.186 6.476-1.282M420.06 216.8c1.333-.28 3.22.203 4.562.636 1.524.494 3.03.724 4.6.968a10.8 10.8 0 0 0 4.255-.205c1.62-.402 2.214-1.783 2.989-3.073m-1.426 4.164c.994-.861 1.905-1.575 1.842-2.986m-.462 3.156c1.936-.262 2.271-2.765 2.822-4.231m.358 4.531c-.207.2-.472.301-.741.328 1.389-.557 2.376-2.882 1.743-4.273m1.948 5.045c1.777.116 2.978-2.657 2.652-4.078M424.9 217.95c.462.036 1.136.719 1.495 1.022.555.464 1.008.795 1.698 1.075.808.332 1.716.432 2.59.405.896-.025 2.567-.065 3.188-.754M419.86 205.16c.427-.251.931-.484 1.209-.899"/>
   </g>
   <path d="M453.15 194.62c.584-.213.926-3.803-.49-3.041 1.026-.726.421-2.733-.722-3.007-.449-.11-1.168.358-1.516.57-.645.394-1.263.91-1.94 1.256.233-.349.791-.548.788-1.012.638.208.616.071 1.167-.197.395-.19.729-.069 1.064-.31.575-.403 1.207-2.283.185-2.546.254-.924.107-2.016-.991-2.279.121-.756-.53-1.279-1.225-1.383-.854-.127-1.151.38-1.46 1.021-.198-.421-.109-.962-.755-1.001-.598-.038-.878.703-1.203 1.083-.552.65-.883.228-1.596.641-.583.341-.87.997-1.038 1.604-.082.307.081.465-.205.753-.825-1.26-1.767.773-1.836 1.488-1.458-.251.017 2.708.051 2.948a2.3 2.3 0 0 0-.574-1.071c-.044.045-.199.105-.26.189-.014-.099-.136-.263-.146-.396-.516.124-.777.83-1.22 1.114.298-.44 1.455-.808 1.021-1.436.2-.243.279-.587.364-.883-.137.029-.32-.028-.479.032.224-.798 1.909-1.538.753-2.145.343-.004.615.188.92.031.248-.13.481-.559.709-.771.548-.502 1.356-.884.697-1.704.65.35 1.663.299 2.135-.292.543-.688-.169-.951-.313-1.487.432 1.008 1.303.344 1.448-.346.146-.686.07-1.604-.538-1.979.613-.246.27-1.007-.083-1.395-.442-.491-1.023-.528-1.717-.528-.254.002-.988.159-1.181-.009-.11-.097-.123-.732-.154-.898-.139-.728-.619-1.309-1.02-1.883-.21-.305-.632-1.019-1.172-1.072-.579-.057-.512.605-.645 1.04-.222.714-1.115 2.014-.685 2.73-1.288-.323-1.876 3.245-1.353 4.013-.534.494-1.463 2.36-.781 2.982-.433.105-.699.544-.995.888.123-.827.963-1.325 1.038-2.197.027-.325-.225-.846-.095-1.159.11-.26.433-.354.537-.61.271-.643.125-1.414.197-2.018.103-.845.955-1.42.417-2.333.837 1.175 2.057-1.629 1.318-2.05.324-.21.539-.841.472-1.218-.143-.819-.767-.579-1.331-.659.767-.382 1.187-.727.845-1.669-.392-1.1-2.582-.887-2.902.187.106-.356-.14-.475-.173-.735-.032-.261.051-.533.042-.799-.026-.726-.331-1.416-1.126-1.555-1.327-.229-1.833 1.743-1.588 2.748-.731.36-.304 2.125.417 2.089-1.285.271-1.388 2.524-.45 3.268-.671.212-.609 1.108-.7 1.729-.039.273-.055 2.242.665 1.471-.654.494-.608 1.555-.309 2.231.131-.063.261-.066.377-.183-.628.502-.496 1.717-.545 2.447-.125-1.105.583-4.247-.706-4.85.194-.426.747-1.232.255-1.638.382-.744.888-1.341.054-2.081.186.233.395.509.518.803.083-.754-.092-1.502-.01-2.264.046-.452.468-1.027.403-1.439q-.065-.021-.132-.039c-.002-.38.13-.86.055-1.232-.109-.535-.37-.531-.178-1.059.144-.397.508-.638.487-1.108-.02-.455-.399-1.085-.733-1.356-.91-.751-1.745.226-2.6.294-1.03.082-1.19.432-1.591 1.438-1.509-1.982-2.623 1.945-2.346 3.045-.555.183-.537 1.082-.357 1.552.327.87 1.062.972 1.88 1.099-.558.791-.604 2.468.729 2.591-.13-.009-.245.063-.378.075-.062.523-.571 3.409.832 2.941-.599.259-.029 1.778.096 2.263.177.69.257.963 1.007.802-1.285.406-.084 3.077-.313 4.06-.118-.377-.021-.739-.04-1.128-.032-.641-.237-1.303-.35-1.935-.035-.219-.039-.957-.333-1.049-.277-.096-.551.301-.822.396.401-.595.587-.821.57-1.572-.005-.496-.072-1.114-.454-1.477-.255.194-.537.352-.781.543.595-.563.518-.94.373-1.726-.081-.446.072-1.469-.575-1.386.537-.401.583-.471.423-1.206-.104-.477-.271-1.042-.393-1.463-.137-.465-1.173-2.025-1.746-1.107-.892-.777-2.699-.454-2.99.759.188.038.27.145.379.185-.488-.031-1.093.317-1.359.729-.182.279-.321 1.262.021 1.112a.85.85 0 0 0-.387.569 5 5 0 0 1-.617-.349c-.653.358-1.088 1.63-.795 2.344.136.337.464.575.628.915-1.438-.102.422 3.833 1.814 2.707-.374.752.574 2.508 1.456 2.309.396.685.882 1.288 1.356 1.921-.21-.736-1.988-1.782-2.802-1.567.291-.741-.304-1.738-1.149-1.467.438-1.076-1.454-2.17-2.284-1.489-.091-.54-.884-1.74-1.549-1.339-.339-.21-.659-.506-1.102-.435-.118 1.576 1.166 3.623 2.204 4.706.522.544 1.074 1.116 1.608 1.677.415.44.831.788 1.313 1.157.441.341 1.236.681 1.562 1.071-.512.026-1.967.255-2.082.763 1.19-.121-.324 1.247-.359 1.597-1.079-.548-.99 1.104-1.271 1.565-.085.144-.348.073-.474.231-.161.202-.303.533-.384.775-.216.635-.246 1.095.351 1.496-.841.198-.281 2.147.547 1.787-.675.741-.775 3.085.735 2.186-.19.854-.336 2.034.532 2.552.497.299 1.325.228 1.778-.159.482-.409.421-1.046.443-1.63.048.128.19.242.241.392 1.189.03 2.176-2.159 1.448-3.073.233.039.484.16.688.29.749-.7.807-2.169 1.198-3.099-.009.444-.354 1.049-.189 1.432.478-.159 1.095-.479 1.544-.757-.581.38-1.381.676-1.8 1.216-.357.458-.205.947-.43 1.388-.077.147-.34.211-.458.355a3 3 0 0 0-.417.643c-.278.615-.219 1.21-.235 1.841-1.02-.933-2.552 2.962-.822 3.429-.618.332-.293 1.205-.003 1.637.615.925 1.177 1.036 2.029.394-.205.989.869 2.073 1.77 1.326.481 1.49.843 1.578 2.355 1.556-.183 1.018.945 1.372 1.663 1.093.255.703.431 1.528 1.359 1.627.815.088.917-.286 1.333-.723.36-.373.789-.475.841-1.084.036-.458-.228-.92-.143-1.395.737.334.237-2.021.137-2.348.118.303.293.578.375.898.494-.224.762-.789 1.341-.903.067-.316-.003-.631-.01-.949.398 1.292-2.022 1.689-1.107 3-1.244-.229-.992 2.37-.041 1.787-.757.458-1.463.809-1.42 1.814.046 1.151 1.979 1.314 2.296.319-.287.971.009 1.742 1.174 1.655.878-.067.784-.667 1.277-1.072.144 1.374 2.413.716 1.862-.365-.075 1.081 1.412.852 1.82.299.534-.724-.063-1.694-.721-2.184.266.088.521.232.784.277.012-.621.411-1.108.441-1.649q-.097.042-.205.028c-.146-.466-.239-1.961-.943-1.699 1.061-.567.164-2.777-.902-2.681.508-.517.585-.379.526-1.104-.053-.621-.259-1.185-.033-1.791-.313-.176-.686-.13-1.036-.171.212-.491.052-1.015-.23-1.436.21.649.208 1.504 1.026 1.659.356.071.653-.037.907-.258-.464.623-.723 2.506-.197 3.142-.033-.547.221-.879.775-.905-.779.14-1.095.572-.793 1.344.275.711.765.99 1.199.354-.406.555-.396 1.635-.396 2.3.004.343-.068 1.067.288 1.273.329.188.552-.104.907-.194-.498.404-1.108.724-1.089 1.355.01.397.437 1.212.866.671-.567.34-.99 1.082-.99 1.746 0 .943 1.622 1.982 2.094.801.627 1.004 1.185-.329 1.037-.958.905 1.754 2.655-.247 1.572-1.156.883 1.463 2.84-1.008 1.021-1.829 1.267.456 2.404-1.414 1.106-1.799.87-.5-.569-.807-.841-.94-.317-.159-.584-.678-.876-.745-.123-.029-.63.183-.807.208.884-.41.531-1.978.009-2.559.809.771.648 1.703 1.168 2.574.34.554.904.899 1.309.167-.152 2.467 3.542.456 2.176-1.259.776.423 2.092-1.64.851-2.013.688-.665 1.135-1.42.48-2.327-.354-.49-.759-.712-1.281-.275.081-.71-.741-.89-1.271-1.019-.881-.221-.933-.187-1.357.621-.063-.714.455-1.167-.52-1.572-.787-.327-1.441.005-2.125.325.449-1.819-1.695-1.355-2.929-1.799.545.325.849.507 1.434.48.202-.009.125-.255.402-.206.216.034.472.403.637.526.847.628 2.289 1.213 1.901-.346.216.891 2.063 2.589 3.014 1.597-.237.703.828 1.078 1.38 1.051 1.075-.055 1.751-1.817.862-2.465.861-.119 1.416-1.896.726-2.412.509.091.658-2.432-.633-1.641.769-.892-.639-1.811-1.479-1.286-.167.106-.252.418-.431.472-.262.082-.37-.141-.568-.107-.382.059-.746.313-1.005.543.025-.347-.148-.629-.422-.832.209.381.645.591 1.068.542.257-.71.807-.464 1.433-.476-.049-.207-.077-.382-.268-.55.353.219.789.349 1.191.202z" fill="#ffc06e" stroke-width=".392"/>
   <g fill="none" stroke-width=".347">
    <path d="M458.94 203.71c.866.765 1.987 1.186 2.58 2.222.194.346.312.729.574 1.024.594.673 1.493 1.182 2.143 1.841.629.643.803 1.257 1.083 2.071.043.111.012-.065.021-.095m-3.231-7.913c1.032.901 2.448 1.539 3.731 1.974.728.243 2.577.82 2.395 1.879"/>
    <path d="M467.74 209.14c-.479-1.254-1.917-2.015-3.13-2.343-1.056-.282-2.104-.163-3.148-.457m.338-6.21c.292-.101.608-.05.922-.091.62-.084 1.182-.397 1.81-.446.381-.029 1.257.043 1.382.244"/>
   </g>
   <path d="M450.92 178.11c-.401 1.873 1.966 2.881 3.418 3.52-.283.676.485 1.01.825 1.442.749.937 1.711 5.632 3.611 4.82" fill="#ffa26b" stroke-width=".392"/>
  </g>
  <path d="M439.43 196.74c-.359-.89.449-1.665 1.297-1.693.399-.012.801.083 1.204.078.429-.009 1.008-.239 1.416-.092.622.223.856 1.191 1.072 1.715.61.001.383-.964.28-1.327.421.098.851.335 1.248.511.451.201.955.263 1.367.541.702.481 1.369 1.563 1.667 2.349.451-.408-.336-1.145-.235-1.655.511.226.509.679 1.008.667.527-.01 1.614-.129 1.925-.622.138-.221.164-.784-.253-.794-.3-.005-.542.747-.864.837-.3.083-1.143-.156-1.425-.299-.786-.396-.215-.867-.64-1.444-.439.53-.947.587-1.58.352-.659-.248-1.354-.566-.694-1.266.596-.635 1.673-.819 2.501-.92.607-.077 1.475.39 1.967-.082-.137-.249-.463-.344-.561-.627.7.041 1.899-.247 2.367-.834-.424-.607-1.706.31-2.211.358-.514.047-.772-.595-1.21-.408-.08-.382.454-.781.559-1.166-1.117.361-1.074 1.754-2.149 2.153-.216-.457-.406-.352-.818-.638-.062.944-1.143 1.535-2.055 1.264-.368-.108-1.091-.478-1.108-.957-.012-.441.468-.42.843-.527.379-.108.523-.096.601-.506.097-.481-.055-.809.38-1.223.646-.619 1.7-.209 2.316-.953-.318-.141-1.216-.022-.795-.662.12-.178.501-.169.578-.39.035-.091-.197-.206-.169-.377.057-.332.635-.758.879-.998.29-.282 1.45-.849 1.408-1.237-.563-.102-.777.1-1.229.395-.2.134-1.091.909-1.297.845-.602-.191.327-2.322-.154-2.25-.508.073-.54 2.688-.762 3.153-.18.38-.569.724-.935.266-.334-.419.141-1.065-.149-1.496-.667.155-.128 2.328-.256 2.856-.095.398-.523.911-.968.624-.509-.327-.267-1.545-.928-1.72-.307.371-.081.762.101 1.11.287.551.202.399.069.916-.178.7.127 1.586-.079 2.263-.109.359-1.022.831-1.376.965-1.059.392-.485-.631-1.132-1.055-.028.818-.634 1.317-1.412 1.005-.318-.124-.582-.344-.906-.434-.356-.102-.788-.067-1.161-.147-.856-.191-1.455-.542-1.812-1.343-.261-.585-.229-.719-.149-1.342.056-.471-.104-1.092.513-1.323.327-.123.58-.018.927-.206.839-.466 1.76-.493 2.583-1.149-.305-.232-1 .189-1.131-.388-.12-.509.686-.939.99-1.151-.215-.26.193-.936.457-1.109-.649-1.366 2.856-.477 3.231-.731-.32-.126-2.656-.597-2.623-.807.019-.118.54-.166.642-.26.154-.139.18-.468.261-.648.257-.594.457-1.047 1.131-1.167.431-.071.831-.11 1.242-.112.294-.001.484.02.726-.169-.398-.205-1.954-.451-1.693-.878.363-.602 2.006-.294 2.255-1.067-.597-.368-1.572.346-2.177.481-.918.195-1.394-1.621-1.357-2.365-.288.833.31 1.595.206 2.408-.05.38-.267.657-.387 1.011-.1.285-.294 1.174-.701 1.176-.703.012-.465-1.572-1.033-1.584-.098.699.677 2.296-.063 2.685-.349.182-.621-.169-.64.433-.001.06.192.294.214.404.038.237-.051.563-.119.789-.104.344-.324 1.053-.638 1.29-.352.269-.64-.138-.862.147-.108.137.049.337.006.476-.054.205-.197.321-.325.473-.253.298-.711.705-1.142.665-1.073-.098-.623-2.198-.448-2.814.263-.925.378-1.515.252-2.431-.052-.368.018-.688.048-1.039.056-.638 0-1.361.145-1.999.254-1.106 1.738-1.583 2.021-2.633-.558.051-.875.745-1.393.82-.44-1.595.191-2.948 1.168-4.166-.396.162-.824.805-1.294.602-.52-.224-.465-1.306-.886-1.667-.268.423.084 1.385.433 1.649-.073.842-.106 1.651.012 2.501.033.254.164 1.026-.334.737-.271-.154.007-.966-.438-.984-.402-.019.209 1.266.26 1.491a3.33 3.33 0 0 1-.045 1.775c-.081.272-.296.564-.309.851-.006.147.137.334.152.503.063.6-.125 1.247-.124 1.852.003.743-.016 1.348-.19 2.106-.098.437-.476 1.594-1.056.88-.209.391.134 1.025-.226 1.361-.352.332-.641-.092-.757-.472-.166-.532-.172-1.117-.267-1.663-.176-1.016-.403-2.049-.394-3.08.007-.653-.254-1.199-.308-1.839-.065-.774.849-1.678.573-2.341-.494.391-.441 1.192-.894 1.584-.253-.752-.577-1.62-.445-2.403.117-.716.207-1.31.692-1.848.374-.413.936-.742.929-1.354-.312.208-1.155.98-1.405.861-.264-.128-.296-.838-.31-1.047-.049-.789.296-1.456.71-2.104.196-.311.844-1.332.237-1.577-.019.346-.219.567-.39.873-.416.745-.188 1.941-.774 2.57-.541.58-.812-.177-.931-.763-.13-.626-.079-1.14-.438-1.673-.304.874-.05 1.328.222 2.212.378 1.224-.282.361-.801.066-.135.424.225.407.444.607.351.318 1.098.831 1.333 1.228.23.385.3 1.752-.017 2.083-.43.449-1.085-.469-1.491-.58-.318.483.938 1.052 1.262 1.306.251.195.795.736.519 1.083-.163.214-.574.181-.77.064.261.445.566.767.835 1.163.283.416.296.95.457 1.412.106.307.495.784.289 1.095-.485-.3-.526.475-.441.774.146.51.684.675.907 1.102.281.536.108 1.351.069 1.922a19.5 19.5 0 0 1-.476 3.207c-.278 1.172-1.08 1.978-2.066 1.013-.553-.539-.563-.995-.755-1.739-.128-.509-.227-.901-.213-1.44.012-.447.273-1.139.171-1.518-.412.479-.331.927-.835.484-.235-.209-.374-.412-.332-.749-.165.551-.528-.092-.64-.342a3.65 3.65 0 0 1-.309-1.816c.047-.489.471-1.115.412-1.503-.113-.688-.328-.244-.455.146-.153.486-.477 1.661-.978.963-.299-.417-.319-1.235-.372-1.717-.11-1.027.615-2.822 1.439-3.46a.5.5 0 0 0-.304-.448c-.148.417-.535 1.709-1.093 1.696-.588-.014-.852-1.163-1.326-1.376.062.427.234.557.423.876.284.479.284 1.391.102 1.934-.195.588-.66.617-1.229.26-.162-.096-1.296-1.203-1.025-.366.287.878 1.913.572 2.296 1.371.146.3.421 1.258.158 1.511-.61.578-1.843-.376-2.434-.358.115.38.273.427.642.514.663.15 1.325.362 1.991.503.485.104.763.05 1.086.466.243.315.593 1.085.493 1.491-.36-.012-.725-.114-1.072-.12.189.582.989.529 1.47.642.979.23 1.062 1.116 1.354 1.993.216.651.705 2.254-.194 2.692-.622.307-1.47-.486-2.106-.621-1.05-.226-1.883-.12-2.856-.698-.989-.589-2.143-1.151-2.785-2.166-.306-.479-.416-1.012-.647-1.507-.188-.408-.551-.519-.776-.849-.189-.279-.129-.839-.562-.949-.429-.113-.343.128-.264.413.145.499.625 1.034.886 1.475.262.441.63.831.962 1.231.498.606.984 1.198 1.659 1.62 1.136.707 2.107 1.39 2.941 2.478-.491-.04-1.806-.259-2.065.285.518.252 1.437.116 1.849.55.339.366.111 1.272-.565 1.154.421 1.292-1.498.811-1.988 1.023.324.356 1.439.57.858 1.303-.335.424-1.07.202-1.336.508.304.5 1.083-.186.996.682-.071.688-1.15.667-1.695.804.37.164.972.196 1.233.439-.29.227-.687.228-.942.442-.282.234-.163.423-.275.77.148-.276.621-.749 1.002-.603.396.163.118.933.094 1.303-.048.725-.158 1.776.191 2.4.181-1.146.058-2.245.421-3.354.114-.351.293-1.243.707-1.293.432-.051.719.485.982.724.278-.383-.31-.571-.536-.813-.327-.355-.444-.791-.296-1.252.067-.212.275-.667.479-.779.556-.298.774.445 1.046.759-.002-.274-.345-.882.073-.989-.426-.875.421-1.587 1.262-1.558.712.022 1.405.581 2.032.883.063.414.041.732-.226 1.08.653-.137.439-.659.898-.924.429-.248 1.64-.276 2.095-.044.135-.246.661-.748.966-.66.349.101.5.695.793.909.527.388 1.308.406 1.406 1.129.072.535-.163 1.205-.38 1.688-.735 1.655-2.342.964-3.377.048.391.608 1.02 1.236.546 1.926-.629.909-.901.295-1.635.076.933 1.125.22 1.346-.441 2.477-.488.83-.94 1.779-2.016 1.906.476.591-.149.526-.254 1.068.404.098.639-.382 1.057-.386-.08.279-1.287 1.812-.803 1.949.337.094 1.214-1.634 1.37-1.873.164-.252.386-.712.647-.871.069.384.231.838.646.936.328-.432-.071-.778-.066-1.206.012-.435.356-.873.639-1.176.677-.726 1.808-.699 2.11.32.069.228.157 1.208.63.965.421-.215-.136-1.228-.208-1.503-.164-.635-.286-.762.137-1.148.391-.352.829-.38 1.281-.588-.199-.474-.914-.556-.573-1.146.535-.922 1.165.404 1.46.792.444.585.428.669.214 1.393-.166.562-.095.856-.108 1.372-.016.68-.531 1.253-.676 1.924-.151.735-.141 1.52-.281 2.25-.186.945-.632 1.875-.556 2.893.508-.002.735-1.321.84-1.711.159-.562.314-1.182.383-1.758.009-.074.005-.448.021-.489.207-.452.704-.392.799-.929.086-.489-.182-1.374.297-1.758.53-.428.66.271.884.596.274.402.717.349.984.673.264.32.107.693.141 1.068.027.322.142.661.173.984.679-.157.731.724.771 1.247.018.234.388 2.318.771 1.457.38.078.337.984.273 1.296-.151.708-1.291 1.535-1.189 2.192.435-.25 1.383-.753 1.137-1.397.471-.181 1.136 1.237 1.491 1.496.412-.315-.654-1.31-.827-1.691-.19-.419-.313-1.372.183-1.661-.179-.411-.736-.615-.904-1.031-.489-1.211 1.34-.294 1.726-.069-.388-.991-1.956-1.511-2.604-2.382-.745-1.005-.339-2.379 1.11-1.962-.294-.881-1.155-.327-1.795-.417-.607-.083-1.083-.685-1.142-1.265-.054-.491.05-.97.522-1.224.666-.357 1.113-.157 1.807-.146-.277-.385-.369-.679-.853-.788-.794-.18-1.341.101-2.043-.5-.729-.624-.499-1.17.097-1.721.893-.817 2.401-.803 3.315.009.552.487.491 1.984 1.397 2.02.076.002.056-.189.208-.159.199.037.181.145.307.269.211.209.303.37.56.526.306.191.632.304.805.671.128.271.114.439.272.641.346.444.93.494 1.149 1.064.243.63.187 1.4-.044 2.007.797-.353.778 1.027.985 1.496.172.392.392.862.341 1.299-.042.38-.531.865-.266 1.169.27.311.489.043.656.531.148.429.158 1.084.132 1.524-.033.539-.891 2.312-.482 2.727.468-.03.612-.922.74-1.309q.228-.695.106-1.391c-.042-.229-.241-.775-.106-.985.237-.376.689.129 1.021.244.237-.325-.932-.934-1.096-1.36-.268-.679-.332-1.336-.504-2.045-.254-1.054-.972-2.138-.832-3.252q.084 0 .168-.007c-.214-.454-.066-.603.412-.579.501.023 1.146.224 1.631.353.545.146.809.68 1.157 1.078.275.315.651 1 1.026 1.094.18-.788-.49-1.111-.862-1.651-.378-.545-.027-.582.308-1.006-.468-.073-.943-.078-1.411-.169-.687-.135-1.281-.497-1.961-.673-1.135-.297-1.808-1.452-2.547-2.318-.469-.55-.847-1.111-1.113-1.747-.228-.548-.382-.531-.927-.811-.514-.269-1.044-.747-1.268-1.29" fill="#ffda71"/>
  <linearGradient id="a" x1="404.83" x2="398.07" y1="142.54" y2="161.07" gradientTransform="rotate(3.865 167.94 -.134)" gradientUnits="userSpaceOnUse">
   <stop stop-color="#ffa26b" offset="0"/>
   <stop stop-color="#f47f45" offset=".494"/>
   <stop stop-color="#00a33d" offset="1"/>
  </linearGradient>
  <path d="M388.78 155c.56 3.376-.188 6.818-3.058 9.002-.688.522-2.53 1.867-1.172 2.713.877.545 2.241-.541 3.112-.586.019 1.09.099 2.389-.789 3.194-.931.85-2.435.46-3.297 1.181a.21.21 0 0 0-.087-.162c-.892.493-1.985.394-2.183 1.674-.151.982.229 1.809 1.104 2.286 1.594.872 3.781.898 4.957-.704-.112.374-.343.754-.432 1.067-.141.502.005.59.367 1.028 1.108 1.34 3.06.287 3.921-.799.623-.779.315-1.762.003-2.602-.341-.921-.503-1.792-.677-2.763-.224-1.248.422-2.393 1.421-3.102 1.568-1.106 2.284-.275 3.898.169.646-1.069.587-2.107.77-3.281.18-1.152.681-2.142 1.324-3.143 1.013-1.576 2.694-2.213 4.42-2.945" fill="url(#a)"/>
  <path d="M406.47 201.06c3.337-.994 6.688-2.465 9.622-4.264m-12.252 4.424c-1.51.756-1.517 3.289-1.634 4.792-.173 2.207.078 4.706.512 6.879.594 2.941 2.519 7.056 1.962 9.839m12.73 7.89c-.075-2.013 1.689-4.226 2.064-6.207.271-1.429.039-4.262 1.302-4.86" fill="none" stroke="#000" stroke-width=".392"/>
  <linearGradient id="b" x1="420.08" x2="416.45" y1="153.73" y2="163.69" gradientUnits="userSpaceOnUse">
   <stop stop-color="#ffa26b" offset="0"/>
   <stop stop-color="#f47f45" offset=".494"/>
   <stop stop-color="#0060b6" offset="1"/>
  </linearGradient>
  <path d="M414.27 157.83c2.566-.188 2.741 2.133 3.071 4.054.284 1.672 2.263 4.487 3.461 1.681.981-2.302-1.328-3.729-2.031-5.592-.823-2.188 1.531-4.352.812-6.715" fill="url(#b)"/>
  <linearGradient id="c" x1="394.24" x2="393.26" y1="158.21" y2="164.92" gradientUnits="userSpaceOnUse">
   <stop stop-color="#ffa26b" offset="0"/>
   <stop stop-color="#f47f45" offset=".494"/>
   <stop stop-color="#bf0000" offset="1"/>
  </linearGradient>
  <path d="M389.24 155.32c-.016 2.289-.134 4.808-1.507 6.717-1.005 1.397-4.05 2.338-3.506 4.447.856.059 1.318-.094 2.104-.348.95-.307 1.917-.393 2.883-.034.666.247.425.771 1.289.433.606-.233 1.06-1.012 1.704-1.253 1.331-.498 2.085 1.54 3.361.7.658-.432.367-1.884.624-2.584 1.144-3.111 4.332-5.006 7.17-6.401" fill="url(#c)"/>
 </g>
 <g stroke="#000">
  <path d="M390.64 151.945 273.89 36.17H8.607M420.8 151.555l107.53-103.81h214.85" fill="none" stroke-width="1.678"/>
  <g stroke-width=".429">
   <path d="M397.6 386.375v-65.403s2.03-18.486 10.125-21.185c-.179.058.729-2.91.782-3.076.465-1.395.879-2.934.585-4.407-.321-1.618-1.09-3.06-1.24-4.726-.24-2.599-.023-5.33.263-7.92.142-1.26.307-4.463 1.803-4.99-.004 0-25.289 8.935-48.891.674.749.263 1.382 4.63 1.52 5.251.708 3.181.482 6.455.635 9.688.059 1.182-.455 2.206-.281 3.405.188 1.307 1.058 1.915 1.522 3.01.298.701-.429 2.64-.022 3.092 0 0 9.271 10.283 9.486 21.747l.002 65.406" fill="#e7ebe7"/>
   <path d="M400.59 279.585c-1.741.333-3.202.97-4.994 1.011-2.042.047-4.078-.18-6.08-.579-.843-.165-1.623-.51-2.475-.616-1.859-.23-3.67.256-5.468.641-1.364.291-2.533.67-3.926.765-1.4.092-2.813-.03-4.165-.417a9.6 9.6 0 0 0-1.572-.313c-.961-.118-1.777-.34-2.729-.237-1.036.112-1.742-.308-2.632-.764-.997-.513-1.977-1.059-3.032-1.44-.684-.245-1.252-1.089-1.93-1.276-.029.027-.053.055-.083.082.048.115.019.234.052.343-.47-.064-1.28-2.137-1.341-2.593-.076-.608.526-1.829 1.299-1.314.486.327.585 1.486.902 1.968 1.177 1.831 4.211 1.064 5.947.788 1.026-.166 2.991-.432 3.698.537-.033-.556-.16-1.079-.456-1.569-.255-.422-1.004-1.369-.311-1.739.4-.214 1.117.232 1.44.412 0 0 1.646 2.7 6.216 2.025 0 0 10.116.298 12.662 0 0 0 2.999 1.196 6.148-1.948 0 0 2.471-1.648 1.796.601l-.746 1.646s2.345-1.062 6.215 0c1.028-.185 2.099-.566 2.977-1.138.508-.334 2.448-3.21 2.852-1.332.144.671-1.074 1.65-1.426 2.172-.906 1.33-2.625 1.523-3.901 2.336-1.581 1.001-3.083 1.597-4.937 1.948z" fill="#9c8e7b"/>
   <g fill="#8caec6">
    <path d="M372.76 324.285c.084 1.15.169 2.304.227 3.457.048.891.183 1.735.539 2.557.669 1.547 1.911 2.537 3.509 3.04 1.351.417 2.651.804 3.796 1.703 1.258.993 2.31 2.393 3.865 2.954 2.563.925 4.507-1.03 6.386-2.33.641-.445 1.327-.772 2.024-1.097 1.25-.578 2.609-1.192 3.704-2.046 1.142-.894 2.298-2.295 2.344-3.795.041-1.354-.371-2.89-.453-4.272-.07-1.163-.04-2.272.201-3.375-.689-1.037-1.82.698-2.226 1.208-.385.476-.643.983-1.013 1.494-.505.684-1.18 1.052-1.892 1.543-1.415.98-2.677 2.116-4.139 3.054-.728.466-1.638 1.146-2.475 1.383-1.569.443-3.757-1.187-4.838-2.139-1.395-1.222-2.599-2.662-4.299-3.484-1.379-.665-2.303-1.36-3.009-2.688-.526-.989-1.026-1.328-1.776-.442-.889 1.048-.564 2.023-.475 3.275zm.32 48.05c.588.921 2.685-.229 3.511-.457 3.472-.956 6.711-.65 10.201-.327 1.87.172 3.744.381 5.572.8q1.402.317 2.748.824c.562.21 1.314.745 1.934.62.623-.126.745-.539 1.037-1.1.383-.742.398-.762.226-1.716-.263-1.478.514-3.075-1.318-3.602-1.083-.314-2.267.021-3.347-.128-1.543-.21-3.052-.629-4.572-.96-1.92-.42-3.896-.29-5.851-.168-1.274.08-2.547.023-3.781.121-1.516.107-3.026.62-4.542.807-1.704.215-1.843.356-1.841 1.946 0 .923-.509 2.515.023 3.34zm22.53 4.49c-2.989-1.635-6.282-2.588-9.704-2.588-.601 0-1.169.153-1.762.23-1.069.13-2.121.284-3.169.583-.989.288-1.925.784-2.928.99-1.305.274-2.672.063-3.929.583-.993.414-.959.82-.898 1.917.044.822.039 1.987 1.009 2.105.479.058 1-.32 1.46-.45.914-.27 1.881-.376 2.814-.587 1.157-.263 2.354-.72 3.481-.937 1.036 2.188-4.5 3.892-5.98 4.194-.629.127-2.117.016-2.593.445-.565.51-.538 3.265-.177 3.844.693 1.1 1.783.352 2.563-.104a83 83 0 0 1 5.176-2.808c2.107-1.052 4.41-1.66 6.483-2.63 1.775-.834 4.081.14 5.792.693.906.29 1.889.576 2.672 1.144.551.397.993 1.003 1.572 1.306.187-.288.44-.438.772-.414.096-.896-.128-1.854-.07-2.774.044-.679.303-1.712.091-2.388-.338-1.079-1.748-1.843-2.675-2.354zm1.67-14.62a3 3 0 0 1-.273.14c-.871.413-1.871.527-2.811.677-.825.133-1.733.346-2.566.36-1.433.021-2.844-.519-4.314-.396-1.255.103-2.527.487-3.787.382-.634-.055-1.256-.113-1.884-.145-1.881-.097-3.804-.06-5.629-.584-.707-.204-1.8-.538-2.318-1.096-.603-.644-.346-1.425-.395-2.228-.069-1.165-.892-3.728.811-3.505 1.434.188 2.548.464 3.777 1.163 1.4.795 3.068.76 4.636.853 1.742.106 3.314.561 5.095.37 1.674-.179 3.167-.01 4.812-.454 1.136-.307 2.095-.59 3.17-1.065 2.529-1.11 2.735.718 2.559 2.953-.103 1.24.233 1.932-.883 2.575zm-18.02-8.76c1.52.36 2.968.812 4.522 1.018 2.91.39 6.104-.622 8.906-1.463a18 18 0 0 0 3.152-1.269c1.156-.59 2.495-.94 2.755-2.43.125-.707-.101-2.009-.209-2.73-.25-1.719-1.301-.717-2.199-.144-1.311.841-2.949 1.09-4.445 1.397-4.28.888-8.196 1.512-12.572.936-1.363-.178-2.646-.63-3.933-1.072-.512-.172-1.251-.729-1.685-.518-.758.382-.624 1.866-.613 2.542.051 3.314 4.023 3.183 6.321 3.733z"/>
    <path d="M384.91 345.165c2.832-.295 5.703-.564 8.44-1.387 1.516-.453 2.687-.674 3.775-1.83 1.325-1.409 1.748-2.778 1.382-4.716-.083-.44-.054-.735-.536-.977-.454-.225-1.208 1.2-1.675 1.57-.886.696-1.91 1.19-2.968 1.566-2.041.721-4.223.977-6.37 1.134-2.227.158-4.59-.024-6.75-.669-.94-.283-1.87-.726-2.806-1.042-.726-.246-1.231-.415-1.843-.838-.647-.454-1.617-1.455-2.412-.694.322 1.23.047 2.835-.248 4-.119.472 1.777 1.688 2.148 1.831.958.367 1.709.247 2.664.74 2.199 1.13 4.745 1.557 7.199 1.312zm19.77-32.65c.104 1.617.266 2.488-.724 3.8-.979 1.305-2.037 2.56-3.334 3.558-1.235.963-2.896 2.612-4.596 2.084-.998-.314-1.891-1.157-2.778-1.688-1.013-.607-1.948-1.257-3.177-.876-1.35.425-2.04 1.843-3.228 2.251-.94.322-2.075-.299-2.842-.766-1.785-1.089-3.374-2.54-5.513-1.286-1.224.722-2.191 2.454-3.757 2.383-.84-.036-1.099-.524-1.716-.934-.761-.509-1.757-.689-2.591-1.06-1.247-.553-2.687-1.616-3.479-2.753-.525-.757-.417-1.767-.234-2.69.36-1.845.472-3.63.323-5.557-.283-3.662-2.104-7.882-4.298-10.858-1.165-1.57-1.974-2.969-1.645-5.024.151-.927 1.033-3.597 2.326-3.472.16 1.137-1.149 3.308.233 4.063 1.724.94 5.586-.066 7.087-1.04 1.599-1.032 3.233-2.168 4.633-3.368 1.061-.907 2.674-2.563 4.196-1.727.657.361 1.156 1.302 1.659 1.858 1.297 1.442 1.835 3.063 2.808 4.676.672 1.115 1.371 2.094 2.726 1.688 3.174-.948 3.104-6.039 5.581-7.935.403-.309.755-.415 1.246-.479 4.979-.65 7.307 7.176 12.363 6.297 1.022-.18 2.482-.82 3.18-1.6-.231-.45-.465-.908-.385-1.424.642-.115 1.591 1.552 1.897 2.011.532.802.804 1.464.667 2.353-.26 1.68-1.881 2.506-2.893 3.715-1.548 1.852-2.636 4.604-2.985 6.964-.104.727-.274 1.422-.395 2.135-.155.903.094 1.743-.034 2.622-.105.765-.367 1.295-.321 2.08z"/>
   </g>
  </g>
  <path d="M364.22 313.735c-.935.024-2.193 1.164-2.759 1.507-.605.37-1.307.63-1.853 1.095-.18.15-1.372 1.952-1.138 1.967-1.99-.17-2.597 3.651-1.72 4.931-1.891-.234-2.804 2.715-1.344 3.867-1.656.802-1.748 3.055-.465 4.174-.717.241-1.133 1.372-1.175 2.1-.064 1.207.673 1.547 1.181 2.461-2.827.525-.19 4.875 1.129 5.716-1.104 1.157-1.297 5.013.852 5.128-1.266 1.473-.245 3.82 1.522 4.225-.843.821-1.355 3.426.365 3.533-.128 1.113-.407 1.592.181 2.67.538.98 1.406 1.936 2.508 2.222.106 2.583.986 3.234 2.933 4.65.48.348.525.04.77.53.115.234-.106 1.47-.011 1.873.272 1.157.934 2.132 2.284 2.196 1.007.051 1.319-.57 2.104.023.851.65.423 1.503 1.897 1.694 1.207.16 1.943-.617 2.33-1.77.249-.749-.036-1.637.193-2.349.324-1.018.643-.584 1.095-1.29.645-1.014.131-2.314.75-3.276.475-.745 1.981-1.216 2.564-2.159.278-.45.361-1.056.649-1.506.254-.393.98-1.376 1.37-1.69.419-.338 1.013-.373 1.419-.706.485-.396.507-.87.845-1.28 1.115-1.338 1.151-.409 2.741-.513.608-.044 1.13-.646 1.724-.736 1.068-.169 1.338.328 2.484.924.798.415 1.84.686 2.402 1.132.78.623.942 1.32 1.996 1.721.256.858.411 1.614.74 2.47.353.921.094 1.276.29 2.221.19.938.813 1.171.896 2.012.101.952-.63 2.858 1.111 2.894.129 3.521 3.349 5.672 6.048 2.403 1.2 2.18 2.972-1.26 3.375-2.134.808-1.763 2.173-1.518 3.352-2.98.751-.935.391-1.619.528-2.668.132-.989.048-.67.749-1.488 1.221-1.428 1.997-3.352 1.329-5.26 1.552.074 2.425-1.776 2.473-3.064.061-1.565.053-1.417.883-2.755 1.072-1.733-.092-2.509.154-3.984.244-1.423 1.869-2.252 1.868-3.917-.002-.555-.337-1.25-.221-1.686.146-.559.723-1.053.894-1.639.563-1.938-.285-3.454-1.23-5.037-.833-1.388-.296-1.64.179-3.103.371-1.15.303-3.646-1.289-3.86.378-1.203.075-2.942-.862-3.852-.784-.765-2.244-.753-2.706-1.856-.232-.569-.017-1.285-.236-1.876-.228-.615-.727-1.009-1.146-1.487-.119-.135-.324-.039-.473-.252-.148-.203.143-.676.003-.89-.354-.555-2.208-1.189-2.798-.896-.598.3-.301.3-.58.975.249-1.336-.504-3.436-2.123-3.354a2 2 0 0 1-.028-.308c-.743.11-.791 1.71-1.012 2.325-.241.673-.469 1.305.651 1.37a.94.94 0 0 1-.182.413c-.039-.667-1.001-.938-1.504-.86-.943.142-1.07 1.07-1.742 1.604.255.404.612.792.668 1.288-.819-2.023-3.423.13-3.135 1.806.35.086.682.26.962.487-1.746-.575-1.887 1.71-1.769 2.91.065.704.22 2.767.758 3.144-.652.326-.863 1.206-.754 1.89.125.775.388.902 1.229 1.013-1.456-.887-2.064.564-2.209 1.798-.154 1.286.042 2.996-1.596 3.361-1.648.374-2.18-1.81-2.356-2.999-.119-.8.068-.639-.305-1.478-.221-.498-.676-1.144-1.065-1.557.786-.747-.508-7.163-1.474-7.226-.179 2.602-.979 4.936-.732 7.4.039.383.15 1.023.036 1.391-.131.41-.659.646-.726.921-.24.998.25 2.045.531 3.042-1.272.948-.105 1.918-.147 3.07-.039 1.148-1.105 1.455-1.209 2.507-1.281-.54-2.058.924-3.167 1.202-1.015.264-2.91-.264-3.7-.836-.922-.664-.449-.892-.846-1.696-.347-.712-.868-.946-1.367-1.512-.972-1.104-1.739-2.36-2.512-3.609-.56-.896-1.64-1.97-1.966-2.967-.083-.249.029-.534-.015-.79-.098-.57-.2-1.172-.452-1.678-.38.191-.829.462-1.296.425.745-.908 1.476-.662 1.407-2.156-.042-.858-.117-2.022-.752-2.66.286-.3.622-1.194.307-1.58-.315-.393-1.064-.205-1.56-.238.12-.674-.908-1.313-1.479-1.534-.737-.284-.923-.069-1.327.532.31-.463-.362-1.959-.693-2.296-.509-.506-1.273-.625-1.978-.653.18-.686.583-1.61.267-2.327-.317-.719-1.362-.886-1.866-.262-.211-.505-.541-.688-.926-.678z" fill="#cbb1fc" stroke-width=".429"/>
 </g>
 <g fill="#f46431">
  <path d="M359.39 318.585c-.066.51-.007 1.065.253 1.51.052.098.635.771.71.672.297-.402 1.441-.823 1.808-.456-1.378.121-1.673 1.083-1.581 2.235-.212-.283-.422-.648-.45-1.009-1.435-.09-2.167 3.027-.955 3.785-.162-1.086 1.876-2.643 2.538-1.564-.907.305-1.613 1.07-1.708 2.036-.079.827.424 1.364.928 1.941-1.134.146-1.501-.828-1.931-1.608-.867.095-1.333 1.07-.968 1.83-.066.008-.133.02-.202.026.023.152-.071.357-.064.483-.671-.134-.332 2.536-.234 2.947.24 1.022.648 2.064 1.612 2.558-.614-.198-1.242-.506-1.702-.974-.375-.385-.442-1.025-.996-.832-.525.184-1.602 2.382-.885 2.744-1.945-.98-.723-3.573 1.04-3.817a1.03 1.03 0 0 1-.131-.559c0-.952.571-1.772.794-2.644-1.534.153-2.368-1.929-1.782-3.123.139 1.443.575 2.25 2.027 2.443-.038-.626.335-.979.515-1.507.164-.483-.047-.978-.057-1.576-.013-.738.693-3.062 1.546-3.27-.298-.57-.337-1.567-.811-2.016-.421-.392-1.192.364-1.338.713.192-.552.665-1.069 1.266-1.112-.006-.247.083-.5.281-.654-.021.094-.022.183-.034.268.315-.34.546-.598.966-.818.329-.174.849-.168 1.126-.356.668-.449 1.367-2.115 2.523-1.287.352-.325.69.207 1.053 0 .482-.27.212-1.103-.064-1.383.277.266.343.632.391.998.169-.18.264-.216.415-.204-.582.608-.122.662.238 1.22.32.491-.012 1.201.232 1.634.249.438 1.17.494 1.523.965.484.634.542 1.591.298 2.245.024-1.539-1.378-2.768-2.922-2.312 1.079-.125 1.018-1.782.283-2.312-.847-.61-2.601-.327-2.971.725.478-.042.839.366 1.092.73-.896-.455-1.712.397-1.924 1.204.106-.41.489-1.635.043-1.945-.645-.443-1.719.865-1.791 1.426m-.3 32.84c-1.546.871-.409 3.48 1.097 2.767-1.48 1.281.27 5.151 2.205 4.83-.109 1.81 1.015 3.708 2.607 4.584.233.128.75.291.843.552.03.08-.124.422-.14.522a3.1 3.1 0 0 0 .053 1.36c.162.617.398 1.173.966 1.484-.048-.407-.933-2.845.088-2.847.071 0 .639.593.815.664.778.327 1.585.221 2.385.178-.223.444.028.818-.102 1.267-.159.545-.817.971-1.354 1.051.988.068 1.862-.487 2.157-1.44.042.157.525.385.665-.032.949.34 1.856.2 2.317-.855.207-.479.368-1.415.177-1.865.099 1.571-2.016 1.305-2.728.517.956-.4 1.297-1.069 1.199-2.092-.553.471-.937 1.17-1.786 1.274-1.248.155-1.756-.763-2.551-1.486-.574.981.477 2.242 1.33 2.664-1.464.48-2.943-.813-2.913-2.36-.019.948-1.942.402-2.371.101-.696-.486-1.295-2.118-.763-2.863.572.53 1.546.956 2.335.88.391-.036.637-.22 1.075-.129.372.083.71.308 1.066.434.967.354 1.33-.109 2.101-.604-1.684.542-3.8-.762-3.202-2.686-.391.561-1.165 1.82-.325 2.383-.731.031-1.364-.297-1.926-.739-1.043-.818-.817-2.042-.553-3.16-1.577.27-.489 2.87-2.29 2.04-1.395-.645-1.683-2.624-.741-3.738.538.324 1.095.201 1.611-.088-.347-.249-.881-.149-1.253-.465-.509-.438-.809-1.656.091-1.74.565-.058 1.351.072 1.768-.426-1.45.05-3.389-3.155-1.635-3.777.46-.163.969.187 1.485-.185-1.448-.54-1.76-1.105-2.174-2.558.068.23-.077.738-.02 1.036.071.365.291.771.271 1.146-.048.832-1.037 1.172-1.056 2.141-.015.83.37 1.342.721 2.02.03.056-.313.843-.337 1.003-.072.487.029.913.054 1.4-1.052.465-2.051-1.605-1.187-2.236m13.485 8.763c.329.033.313.294.591.473.379.243 1.015.271 1.444.198 1.011-.165 1.529-.734 1.944-1.545-.012.66.845.01 1.043-.166.779-.699 1.269-1.613 1.105-2.677-.302 1.082-.773 1.772-1.998 1.68.385-.505.36-1.376.159-1.934-.128.495-.478 1.02-.982 1.203-.712.262-1.248-.448-1.898-.164.146.93 1.186.405 1.592.77.436.387.112 1.21-.277 1.471-1.091.733-2.321.41-3.072-.513.634.267.763-.932.711-1.323-.638 1.052-2.131.521-2.961.001.274.468.749.843 1.311.813-.05.592.536 1.086.841 1.564m36.747-43.361c.641-.08 1.498 1.011 1.563 1.511.065.51.007 1.065-.253 1.514-.053.09-.635.768-.708.668-.299-.403-1.443-.824-1.809-.455 1.375.118 1.672 1.081 1.582 2.23.212-.278.422-.644.446-1.004 1.437-.093 2.17 3.023.958 3.782.159-1.08-1.876-2.64-2.539-1.56.907.301 1.617 1.07 1.708 2.036.078.822-.421 1.36-.929 1.937 1.135.148 1.501-.823 1.929-1.606.87.097 1.337 1.067.972 1.833q.102.014.202.022c-.026.152.067.361.064.482.668-.133.327 2.536.231 2.948-.239 1.022-.646 2.063-1.611 2.56.617-.202 1.24-.508 1.7-.973.381-.387.443-1.029.996-.836.526.185 1.605 2.386.888 2.747.898-.453.835-1.079.921-1.92.06-.617.94-.857 1.438-.399-.387-.355-.645-.84-1.264-.617.181-.238.602-.562.54-.877-.446.445-1.633.783-2.087.18-.413-.553-.431-1.738-.375-2.384.102-1.187.646-3 2.25-2.187.719.37.606.845.895 1.384.478-.855-.49-1.797-1.119-2.242.46-.972.246-2.276-.713-2.843-.196-.115-.444-.168-.525-.342-.132-.267.055-.8.376-.8-.288-.189-1.037-.647-1.273-.234-.203-.163-.436-.208-.684-.24.326.276.866.722.686 1.201-.069.188-.456.404-.559.63-.12.265-.186.73-.078 1.001.25-.733 1.015-1.18 1.703-.67.624.471.896 1.657.409 2.306-.255.337-.717.422-1.043.672-.469.36-.827.598-1.443.681.036-.62-.339-.979-.519-1.507-.162-.48.049-.979.062-1.577.009-.734-.697-3.06-1.55-3.27.225-.434.3-1.926.926-1.94.438-.012.777.848.857 1.19-.145-.62-.141-1.176-.441-1.773a3.6 3.6 0 0 0-1.105-1.285c-.449-.324-1.195-.078-1.39-.492-.297-.618.519-1.25 1.077-.875-.408-.546-.879-.808-1.582-.768-.802.043-.854.598-1.162 1.196.074-.47-.329-.57-.489-.96-.25-.619-.218-1.36-.96-1.62.202.367.51 1.156.147 1.543-.59.633-1.477-.262-1.56-.87-.549.907.438 1.112.27 1.885-.664-.519-1.646-.756-2.332-.157.44-.248 1.221-.354 1.604.113.421.523.085 1.366-.269 1.823-.363.47-1.008.495-1.354.956-.38.498-.468.946-1.142 1.107-.481.124-1.064.078-1.534-.08.325.22.724.436.976.736a3.7 3.7 0 0 0-1.037.107c.582.21 1.601.472 1.936 1.032.582.978-.155 2.41-1.221 2.67-1.081.265-1.982-.597-1.622-1.65-.442 1.242-.347 2.485.719 3.371a.17.17 0 0 0-.095-.024c-.508.634-.809 1.457-.287 2.218-.248-.58.199-1.498.611-1.907.749-.74 2.172-1.038 3.059-.377 1.194.896.605 2.262-.293 3.196.145-.15.749-.209.974-.375a2.64 2.64 0 0 0 .815-.945c.299-.625.201-1.637-.189-2.198-.233-.346-.643-.602-.759-1.02-.331-1.174 1.401-2.158 2.388-1.934-.248-.135-.664-.276-.722-.548-.118-.572.884-1.098 1.338-1.11-.5-.28-1.188-.128-1.614.217-.342.276-.294.63-.571.88-.791-.324-1.458 1.273-1.68 1.743.403-.93-.445-1.876-.549-2.737-.066-.555.046-1.207.51-1.569.657-.52 1.491-.142 1.776.604-.617-.717-.405-1.89.678-1.899-.381.001-.206-.902-.145-1.06.145-.353.49-.809.827-.998.721-.41 1.896.145 2.165.897-.479-.042-.842.368-1.094.731.895-.455 1.711.398 1.924 1.207-.106-.414-.491-1.64-.046-1.947a.6.6 0 0 1 .229-.086m3.74 35.25c1.546.877.409 3.48-1.098 2.766 1.48 1.283-.269 5.151-2.206 4.831.115 1.808-1.016 3.707-2.603 4.585-.236.128-.749.29-.846.553-.032.08.122.42.138.522.083.5.072.868-.054 1.356-.158.624-.396 1.177-.961 1.49.047-.412.932-2.847-.09-2.847-.069 0-.637.59-.813.664-.779.323-1.586.22-2.385.177.22.441-.03.815.099 1.266.16.546.819.97 1.356 1.048-.987.068-1.859-.484-2.159-1.44-.043.16-.52.39-.665-.029-.947.333-1.855.198-2.32-.855-.206-.48-.364-1.424-.172-1.867-.1 1.574 2.015 1.304 2.728.521-.956-.407-1.296-1.076-1.201-2.095.552.47.938 1.166 1.788 1.271 1.251.157 1.755-.76 2.553-1.486.574.987-.479 2.25-1.333 2.666 1.465.48 2.945-.814 2.914-2.36.02.947 1.943.398 2.373.102.697-.489 1.294-2.12.763-2.864-.578.528-1.551.957-2.338.884-.391-.04-.634-.225-1.071-.134-.371.082-.715.308-1.07.438-.967.353-1.333-.112-2.098-.607 1.681.543 3.796-.759 3.201-2.688.39.562 1.163 1.822.326 2.383.73.032 1.357-.296 1.924-.733 1.042-.819.818-2.048.548-3.16 1.583.263.494 2.865 2.295 2.033 1.392-.64 1.683-2.622.738-3.736-.535.327-1.093.203-1.608-.086.347-.25.881-.149 1.248-.463.517-.44.811-1.659-.09-1.744-.563-.05-1.345.077-1.766-.42 1.454.047 3.389-3.163 1.635-3.782-.458-.158-.966.187-1.484-.184 1.447-.54 1.758-1.106 2.174-2.56-.065.232.077.74.02 1.04-.07.365-.29.766-.269 1.145.047.83 1.037 1.17 1.053 2.14.015.827-.368 1.343-.719 2.018-.027.055.315.844.338 1.008.072.482-.031.91-.055 1.396 1.052.465 2.051-1.605 1.188-2.233"/>
  <path d="M397.03 360.405c-.216-.249-.423-.087-.725-.214-.42-.168-.805-.675-.991-1.068-.443-.926-.277-1.672.153-2.479-.535.383-.495-.688-.461-.952.128-1.036.596-1.96 1.558-2.439-.712.87-1.008 1.651-.229 2.605.192-.608.918-1.086 1.492-1.242-.331.393-.563.975-.426 1.494.194.73 1.085.766 1.227 1.463-.846.417-1.016-.74-1.545-.866-.567-.134-1.057.603-1.049 1.075.024 1.307.996 2.134 2.181 2.223-.583-.373.326-1.162.678-1.343-.495 1.126.795 2.047 1.16 2.43-.542.04-1.116-.134-1.418-.608-.452.377-1.198.182-1.761.204"/>
 </g>
 <path d="m8.607 317.8h265.28l87.52 29.78m25.96-183.78h355.81" fill="none" stroke="#000" stroke-width="1.678"/>
 <g font-family="sans-serif">
  <text x="9" y="25.757" fill="#bf0000" font-size="18.667">Hypothalamus</text>
  <g font-size="14.667">
   <text x="9" y="60">Thyrotropin-releasing hormone</text>
   <text x="9" y="85">Dopamine</text>
   <text x="9" y="110">Growth hormone-releasing hormone</text>
   <text x="9" y="135">Somatostatin</text>
   <text x="9" y="160">Gonadotropin-releasing hormone</text>
   <text x="9" y="185">Corticotropin-releasing hormone</text>
   <text x="9" y="210">Oxytocin</text>
   <text x="9" y="235">Vasopressin</text>
  </g>
  <text x="9" y="310" fill="#8210d2" font-size="18.667">Thyroid</text>
  <text x="9" y="340" font-size="14.667">Triiodothyronine</text>
  <text x="9" y="365" font-size="14.667">Thyroxine</text>
  <g font-size="18.667" text-anchor="end">
   <text x="743" y="42.027" fill="#0060b6">Pineal gland</text>
   <text x="743" y="158.22" fill="#0e733e">Pituitary Gland</text>
  </g>
  <g font-size="14.667">
   <g text-anchor="end">
    <text x="653" y="192.83" fill="#00a33d">Anterior pituitary</text>
    <text x="743" y="73.671">Melatonin</text>
    <text x="653" y="217.552">Growth hormone</text>
    <text x="653" y="242.768">Thyroid-stimulating hormone</text>
    <text x="653" y="268.479">Adrenocorticotropic hormone</text>
    <text x="653" y="295.673">Follicle-stimulating hormone</text>
    <text x="653" y="321.384">Luteinizing hormone</text>
    <text x="653" y="347.095">Prolactin</text>
    <text x="653" y="378.244" fill="#00a33d">Intermediate pituitary</text>
    <text x="653" y="404.449">Melanocyte-stimulating hormone</text>
   </g>
   <text x="673" y="192.336" fill="#00a33d">Posterior pituitary</text>
   <text x="673" y="218">Oxytocin</text>
   <text x="673" y="243">Vasopressin</text>
   <text x="673" y="268">Oxytocin (stored)</text>
   <text transform="translate(673 296.17)">Anti-diuretic<tspan x="0" y="1em">hormone (stored)</tspan></text>
  </g>
 </g>
</svg>
