<?xml version="1.0" standalone="yes"?>

<svg version="1.1" viewBox="0.0 0.0 370.0 508.0" fill="none" stroke="none" stroke-linecap="square" stroke-miterlimit="10" xmlns="http://www.w3.org/2000/svg" xmlns:xlink="http://www.w3.org/1999/xlink"><clipPath id="p.0"><path d="m0 0l370.0 0l0 508.0l-370.0 0l0 -508.0z" clip-rule="nonzero"></path></clipPath><g clip-path="url(#p.0)"><path fill="#000000" fill-opacity="0.0" d="m0 0l370.0551 0l0 508.30447l-370.0551 0z" fill-rule="nonzero"></path><path fill="#000000" fill-opacity="0.0" d="m24.61382 166.97711c8.522102 -6.3645782 14.392612 -18.24118 24.328846 -21.025131c16.594582 -4.6494904 34.515846 -2.5084534 50.744232 -8.566681c8.20752 -3.0639496 15.765526 -8.753372 24.330025 -10.12233c17.891937 -2.859871 36.256958 2.237091 54.21945 0c33.876892 -4.219116 69.388336 1.1747894 101.48845 14.016754c6.113739 2.4458618 10.180878 9.207397 15.987396 12.459778c12.339386 6.911606 24.66684 14.011017 36.146698 22.582123c14.206543 10.606903 10.1519165 36.5363 15.987396 54.51004c8.450806 26.029297 14.853241 54.128387 13.207672 81.764404c-1.1950378 20.070038 -9.474365 39.187836 -18.072754 56.84619c-15.512848 31.85852 -47.3844 51.894806 -77.15961 66.190674c-26.89862 12.914734 -57.1093 22.30838 -86.195404 18.688995c-10.786896 -1.3422852 -20.70514 -7.3898315 -31.280457 -10.123657c-24.736305 -6.3945007 -49.135025 -16.513245 -70.90235 -31.14746c-21.224133 -14.269012 -38.765675 -38.852783 -45.87799 -65.41284c-4.45471 -16.63556 -5.836279 -34.14569 -7.6471195 -51.394775c-4.602833 -43.84404 -14.147177 -92.89578 3.4763927 -132.38135" fill-rule="evenodd"></path><path stroke="#000000" stroke-width="2.0" stroke-linejoin="round" stroke-linecap="butt" d="m24.61382 166.97711c8.522102 -6.3645782 14.392612 -18.24118 24.328846 -21.025131c16.594582 -4.6494904 34.515846 -2.5084534 50.744232 -8.566681c8.20752 -3.0639496 15.765526 -8.753372 24.330025 -10.12233c17.891937 -2.859871 36.256958 2.237091 54.21945 0c33.876892 -4.219116 69.388336 1.1747894 101.48845 14.016754c6.113739 2.4458618 10.180878 9.207397 15.987396 12.459778c12.339386 6.911606 24.66684 14.011017 36.146698 22.582123c14.206543 10.606903 10.1519165 36.5363 15.987396 54.51004c8.450806 26.029297 14.853241 54.128387 13.207672 81.764404c-1.1950378 20.070038 -9.474365 39.187836 -18.072754 56.84619c-15.512848 31.85852 -47.3844 51.894806 -77.15961 66.190674c-26.89862 12.914734 -57.1093 22.30838 -86.195404 18.688995c-10.786896 -1.3422852 -20.70514 -7.3898315 -31.280457 -10.123657c-24.736305 -6.3945007 -49.135025 -16.513245 -70.90235 -31.14746c-21.224133 -14.269012 -38.765675 -38.852783 -45.87799 -65.41284c-4.45471 -16.63556 -5.836279 -34.14569 -7.6471195 -51.394775c-4.602833 -43.84404 -14.147177 -92.89578 3.4763927 -132.38135" fill-rule="evenodd"></path><path fill="#000000" fill-opacity="0.0" d="m157.38809 211.7101c26.221985 0 59.008545 -5.485153 77.55028 13.560104c27.172989 27.910873 52.522995 99.29294 18.148697 116.93933c-39.46759 20.261078 -107.526474 27.54361 -131.99635 -10.16864c-5.566078 -8.578278 -2.9809647 -20.397339 -4.949898 -30.50592c-3.1309967 -16.074646 -6.7004013 -33.599274 -1.6509018 -49.15033c6.305336 -19.418701 32.09604 -24.516449 46.19998 -38.97882" fill-rule="evenodd"></path><path stroke="#000000" stroke-width="2.0" stroke-linejoin="round" stroke-linecap="butt" d="m157.38809 211.7101c26.221985 0 59.008545 -5.485153 77.55028 13.560104c27.172989 27.910873 52.522995 99.29294 18.148697 116.93933c-39.46759 20.261078 -107.526474 27.54361 -131.99635 -10.16864c-5.566078 -8.578278 -2.9809647 -20.397339 -4.949898 -30.50592c-3.1309967 -16.074646 -6.7004013 -33.599274 -1.6509018 -49.15033c6.305336 -19.418701 32.09604 -24.516449 46.19998 -38.97882" fill-rule="evenodd"></path><path fill="#000000" fill-opacity="0.0" d="m111.04505 306.32208c-3.9010468 -15.617432 -10.077965 -32.27716 -6.178482 -47.89499c2.6989899 -10.809723 12.361671 -18.539886 18.540688 -27.811035c2.554634 -3.8330383 7.989868 -4.723709 12.359573 -6.1811066c7.9530334 -2.6525116 10.406891 -14.963028 18.54068 -16.994751c19.493423 -4.8692017 40.765274 -6.42099 60.257217 -1.545929c24.033997 6.0110474 43.14856 30.574493 50.986877 54.076126c6.521942 19.554688 18.899048 40.25757 13.905518 60.257202c-12.466766 49.930725 -101.04326 53.33899 -149.87138 37.08136c-21.483566 -7.153076 -20.084 -42.249268 -20.084 -64.892365" fill-rule="evenodd"></path><path stroke="#000000" stroke-width="2.0" stroke-linejoin="round" stroke-linecap="butt" d="m111.04505 306.32208c-3.9010468 -15.617432 -10.077965 -32.27716 -6.178482 -47.89499c2.6989899 -10.809723 12.361671 -18.539886 18.540688 -27.811035c2.554634 -3.8330383 7.989868 -4.723709 12.359573 -6.1811066c7.9530334 -2.6525116 10.406891 -14.963028 18.54068 -16.994751c19.493423 -4.8692017 40.765274 -6.42099 60.257217 -1.545929c24.033997 6.0110474 43.14856 30.574493 50.986877 54.076126c6.521942 19.554688 18.899048 40.25757 13.905518 60.257202c-12.466766 49.930725 -101.04326 53.33899 -149.87138 37.08136c-21.483566 -7.153076 -20.084 -42.249268 -20.084 -64.892365" fill-rule="evenodd"></path><path fill="#000000" fill-opacity="0.0" d="m280.90662 277.23126c11.967133 22.771149 8.045868 61.04944 -14.221191 75.16873c-47.191223 29.923462 -155.31549 34.303467 -169.07564 -18.0401c-4.2192383 -16.049927 -1.5783463 -33.065887 -1.5783463 -49.61023c0 -20.843384 -1.0909119 -44.294373 11.05912 -61.63864c10.450951 -14.918823 32.282806 -19.708618 50.565933 -24.051743c20.466736 -4.8618317 43.194702 -9.358276 63.206085 -3.008377c36.309845 11.521606 37.696136 64.47229 64.784424 90.20041" fill-rule="evenodd"></path><path stroke="#000000" stroke-width="2.0" stroke-linejoin="round" stroke-linecap="butt" d="m280.90662 277.23126c11.967133 22.771149 8.045868 61.04944 -14.221191 75.16873c-47.191223 29.923462 -155.31549 34.303467 -169.07564 -18.0401c-4.2192383 -16.049927 -1.5783463 -33.065887 -1.5783463 -49.61023c0 -20.843384 -1.0909119 -44.294373 11.05912 -61.63864c10.450951 -14.918823 32.282806 -19.708618 50.565933 -24.051743c20.466736 -4.8618317 43.194702 -9.358276 63.206085 -3.008377c36.309845 11.521606 37.696136 64.47229 64.784424 90.20041" fill-rule="evenodd"></path><path fill="#000000" fill-opacity="0.0" d="m288.10062 275.91144c12.830688 24.706543 8.626465 66.23831 -15.247406 81.55765c-50.59665 32.466797 -166.52339 37.219086 -181.27649 -19.573395c-4.5237045 -17.414093 -1.6922379 -35.876343 -1.6922379 -53.826843c0 -22.61499 -1.169632 -48.059174 11.857162 -66.87761c11.205116 -16.18686 34.612404 -21.383759 54.21488 -26.096024c21.94365 -5.275055 46.311707 -10.153671 67.76715 -3.2640839c38.93004 12.5009 40.416367 69.95213 69.4594 97.86699" fill-rule="evenodd"></path><path stroke="#000000" stroke-width="2.0" stroke-linejoin="round" stroke-linecap="butt" d="m288.10062 275.91144c12.830688 24.706543 8.626465 66.23831 -15.247406 81.55765c-50.59665 32.466797 -166.52339 37.219086 -181.27649 -19.573395c-4.5237045 -17.414093 -1.6922379 -35.876343 -1.6922379 -53.826843c0 -22.61499 -1.169632 -48.059174 11.857162 -66.87761c11.205116 -16.18686 34.612404 -21.383759 54.21488 -26.096024c21.94365 -5.275055 46.311707 -10.153671 67.76715 -3.2640839c38.93004 12.5009 40.416367 69.95213 69.4594 97.86699" fill-rule="evenodd"></path><path fill="#000000" fill-opacity="0.0" d="m296.2006 277.0642c13.886169 26.836243 9.336121 71.94797 -16.501648 88.58783c-54.75882 35.26541 -180.2219 40.427338 -196.18863 -21.26059c-4.8958282 -18.915192 -1.8314438 -38.96884 -1.8314438 -58.466644c0 -24.564392 -1.2658463 -52.201828 12.832558 -72.642395c12.126862 -17.582138 37.459663 -23.22702 58.67469 -28.345474c23.748764 -5.7297516 50.121384 -11.0289 73.3418 -3.5454407c42.132477 13.578461 43.74109 75.98192 75.17325 106.303024" fill-rule="evenodd"></path><path stroke="#000000" stroke-width="2.0" stroke-linejoin="round" stroke-linecap="butt" d="m296.2006 277.0642c13.886169 26.836243 9.336121 71.94797 -16.501648 88.58783c-54.75882 35.26541 -180.2219 40.427338 -196.18863 -21.26059c-4.8958282 -18.915192 -1.8314438 -38.96884 -1.8314438 -58.466644c0 -24.564392 -1.2658463 -52.201828 12.832558 -72.642395c12.126862 -17.582138 37.459663 -23.22702 58.67469 -28.345474c23.748764 -5.7297516 50.121384 -11.0289 73.3418 -3.5454407c42.132477 13.578461 43.74109 75.98192 75.17325 106.303024" fill-rule="evenodd"></path><path fill="#000000" fill-opacity="0.0" d="m304.14444 275.53244c14.845703 28.771637 9.981201 77.13687 -17.641937 94.976776c-58.542603 37.808746 -192.67508 43.342957 -209.74507 -22.793915c-5.234131 -20.279327 -1.9580002 -41.779266 -1.9580002 -62.683258c0 -26.335968 -1.3533173 -55.966614 13.719276 -77.88136c12.964821 -18.850159 40.04811 -24.902145 62.729065 -30.38974c25.389786 -6.14299 53.584732 -11.82431 78.40965 -3.8011322c45.043808 14.557739 46.763565 81.46173 80.36766 113.969574" fill-rule="evenodd"></path><path stroke="#000000" stroke-width="2.0" stroke-linejoin="round" stroke-linecap="butt" d="m304.14444 275.53244c14.845703 28.771637 9.981201 77.13687 -17.641937 94.976776c-58.542603 37.808746 -192.67508 43.342957 -209.74507 -22.793915c-5.234131 -20.279327 -1.9580002 -41.779266 -1.9580002 -62.683258c0 -26.335968 -1.3533173 -55.966614 13.719276 -77.88136c12.964821 -18.850159 40.04811 -24.902145 62.729065 -30.38974c25.389786 -6.14299 53.584732 -11.82431 78.40965 -3.8011322c45.043808 14.557739 46.763565 81.46173 80.36766 113.969574" fill-rule="evenodd"></path><path fill="#000000" fill-opacity="0.0" d="m311.04767 274.97992c15.901154 30.707092 10.690826 82.325775 -18.89621 101.36575c-62.704773 40.35208 -206.37357 46.258575 -224.6572 -24.32721c-5.606251 -21.643524 -2.0971985 -44.58972 -2.0971985 -66.8999c0 -28.107544 -1.4495354 -59.7314 14.694664 -83.120316c13.886574 -20.11818 42.89538 -26.577286 67.188866 -32.43402c27.194916 -6.5562134 57.394424 -12.61972 83.9843 -4.0568237c48.246246 15.537003 50.088287 86.94153 86.08148 121.636154" fill-rule="evenodd"></path><path stroke="#000000" stroke-width="2.0" stroke-linejoin="round" stroke-linecap="butt" d="m311.04767 274.97992c15.901154 30.707092 10.690826 82.325775 -18.89621 101.36575c-62.704773 40.35208 -206.37357 46.258575 -224.6572 -24.32721c-5.606251 -21.643524 -2.0971985 -44.58972 -2.0971985 -66.8999c0 -28.107544 -1.4495354 -59.7314 14.694664 -83.120316c13.886574 -20.11818 42.89538 -26.577286 67.188866 -32.43402c27.194916 -6.5562134 57.394424 -12.61972 83.9843 -4.0568237c48.246246 15.537003 50.088287 86.94153 86.08148 121.636154" fill-rule="evenodd"></path><path fill="#000000" fill-opacity="0.0" d="m319.67285 274.43005c16.716797 32.642517 11.239227 87.51465 -19.865387 107.7547c-65.921005 42.895416 -216.9588 49.174164 -236.1802 -25.860535c-5.8938026 -23.00769 -2.2047691 -47.400146 -2.2047691 -71.116516c0 -29.879105 -1.5238838 -63.496185 15.448376 -88.35928c14.598839 -21.3862 45.095543 -28.25241 70.635086 -34.478287c28.589783 -6.969452 60.338272 -13.415131 88.29198 -4.3125305c50.72087 16.516296 52.657394 92.42136 90.49675 129.30272" fill-rule="evenodd"></path><path stroke="#000000" stroke-width="2.0" stroke-linejoin="round" stroke-linecap="butt" d="m319.67285 274.43005c16.716797 32.642517 11.239227 87.51465 -19.865387 107.7547c-65.921005 42.895416 -216.9588 49.174164 -236.1802 -25.860535c-5.8938026 -23.00769 -2.2047691 -47.400146 -2.2047691 -71.116516c0 -29.879105 -1.5238838 -63.496185 15.448376 -88.35928c14.598839 -21.3862 45.095543 -28.25241 70.635086 -34.478287c28.589783 -6.969452 60.338272 -13.415131 88.29198 -4.3125305c50.72087 16.516296 52.657394 92.42136 90.49675 129.30272" fill-rule="evenodd"></path><path fill="#000000" fill-opacity="0.0" d="m174.39389 269.24136l32.440933 0l0 32.44095l-32.440933 0z" fill-rule="nonzero"></path><path fill="#000000" d="m195.31577 307.2101l-2.8125 0l0 -17.921875q-1.015625 0.96875 -2.671875 1.9375q-1.640625 0.96875 -2.953125 1.453125l0 -2.71875q2.359375 -1.109375 4.125 -2.6875q1.765625 -1.578125 2.5 -3.0625l1.8125 0l0 23.0z" fill-rule="nonzero"></path><path fill="#000000" fill-opacity="0.0" d="m259.75058 279.08746l0.12597656 46.362213" fill-rule="nonzero"></path><path stroke="#000000" stroke-width="4.0" stroke-linejoin="round" stroke-linecap="butt" d="m259.75058 279.08746l0.12597656 46.362213" fill-rule="nonzero"></path><path fill="#000000" fill-opacity="0.0" d="m333.92358 278.9124l0.12600708 46.362183" fill-rule="nonzero"></path><path stroke="#000000" stroke-width="4.0" stroke-linejoin="round" stroke-linecap="butt" d="m333.92358 278.9124l0.12600708 46.362183" fill-rule="nonzero"></path><path fill="#000000" fill-opacity="0.0" d="m259.7542 280.63077l74.14172 -1.7008057" fill-rule="nonzero"></path><path stroke="#000000" stroke-width="4.0" stroke-linejoin="round" stroke-linecap="butt" d="m259.7542 280.63077l74.14172 -1.7008057" fill-rule="nonzero"></path><path fill="#000000" fill-opacity="0.0" d="m163.0142 454.57092l-0.09329224 -15.300171l-118.415596 0.74710083l-0.0023918152 -0.39175415l118.41559 -0.74710083l-0.09329224 -15.300201l11.474167 15.424286z" fill-rule="nonzero"></path><path stroke="#000000" stroke-width="2.0" stroke-linejoin="round" stroke-linecap="butt" d="m163.0142 454.57092l-0.09329224 -15.300171l-118.415596 0.74710083l-0.0023918152 -0.39175415l118.41559 -0.74710083l-0.09329224 -15.300201l11.474167 15.424286z" fill-rule="nonzero"></path><path fill="#000000" fill-opacity="0.0" d="m11.968688 414.09308l32.440945 0l0 41.13388l-32.440945 0z" fill-rule="nonzero"></path><path fill="#000000" d="m22.312439 446.01495l2.8125 -0.375q0.484375 2.390625 1.640625 3.453125q1.171875 1.046875 2.84375 1.046875q1.984375 0 3.34375 -1.375q1.375 -1.375 1.375 -3.40625q0 -1.9375 -1.265625 -3.1875q-1.265625 -1.265625 -3.21875 -1.265625q-0.796875 0 -1.984375 0.3125l0.3125 -2.46875q0.28125 0.03125 0.453125 0.03125q1.796875 0 3.234375 -0.9375q1.4375 -0.9375 1.4375 -2.890625q0 -1.546875 -1.046875 -2.5625q-1.046875 -1.015625 -2.703125 -1.015625q-1.640625 0 -2.734375 1.03125q-1.09375 1.03125 -1.40625 3.09375l-2.8125 -0.5q0.515625 -2.828125 2.34375 -4.375q1.828125 -1.5625 4.546875 -1.5625q1.875 0 3.453125 0.8125q1.578125 0.796875 2.40625 2.1875q0.84375 1.390625 0.84375 2.953125q0 1.484375 -0.796875 2.703125q-0.796875 1.21875 -2.359375 1.9375q2.03125 0.46875 3.15625 1.953125q1.125 1.46875 1.125 3.6875q0 3.0 -2.1875 5.09375q-2.1875 2.078125 -5.53125 2.078125q-3.015625 0 -5.015625 -1.796875q-1.984375 -1.796875 -2.265625 -4.65625z" fill-rule="nonzero"></path><path fill="#000000" fill-opacity="0.0" d="m40.93502 156.4662l21.385826 0l0 31.81102l-21.385826 0z" fill-rule="nonzero"></path><path fill="#000000" d="m66.044395 191.73183l0 2.703125l-15.140625 0q-0.03125 -1.015625 0.328125 -1.953125q0.578125 -1.546875 1.84375 -3.046875q1.28125 -1.5 3.6875 -3.46875q3.734375 -3.0625 5.046875 -4.84375q1.3125 -1.796875 1.3125 -3.390625q0 -1.671875 -1.203125 -2.8125q-1.1875 -1.15625 -3.109375 -1.15625q-2.03125 0 -3.25 1.21875q-1.21875 1.21875 -1.234375 3.375l-2.890625 -0.296875q0.296875 -3.234375 2.234375 -4.921875q1.9375 -1.703125 5.203125 -1.703125q3.296875 0 5.21875 1.828125q1.921875 1.828125 1.921875 4.53125q0 1.375 -0.5625 2.703125q-0.5625 1.328125 -1.875 2.796875q-1.296875 1.46875 -4.328125 4.03125q-2.53125 2.125 -3.25 2.890625q-0.71875 0.75 -1.1875 1.515625l11.234375 0z" fill-rule="nonzero"></path><path fill="#000000" fill-opacity="0.0" d="m304.23654 92.140755l40.75589 0l0 41.133858l-40.75589 0z" fill-rule="nonzero"></path><path fill="#000000" d="m323.5803 130.10951l0 -5.4843826l-9.9375 0l0 -2.578125l10.453125 -14.84375l2.296875 0l0 14.84375l3.09375 0l0 2.578125l-3.09375 0l0 5.4843826l-2.8125 0zm0 -8.062508l0 -10.328125l-7.171875 10.328125l7.171875 0z" fill-rule="nonzero"></path><path fill="#000000" fill-opacity="0.0" d="m128.74321 125.75362l-25.196846 11.433075" fill-rule="nonzero"></path><path stroke="#000000" stroke-width="4.0" stroke-linejoin="round" stroke-linecap="butt" d="m128.74321 125.75362l-25.196846 11.433075" fill-rule="nonzero"></path><path fill="#000000" fill-opacity="0.0" d="m143.32298 157.6724l-25.196854 11.433075" fill-rule="nonzero"></path><path stroke="#000000" stroke-width="4.0" stroke-linejoin="round" stroke-linecap="butt" d="m143.32298 157.6724l-25.196854 11.433075" fill-rule="nonzero"></path><path fill="#000000" fill-opacity="0.0" d="m127.904465 126.13412l15.370087 31.52755" fill-rule="nonzero"></path><path stroke="#000000" stroke-width="4.0" stroke-linejoin="round" stroke-linecap="butt" d="m127.904465 126.13412l15.370087 31.52755" fill-rule="nonzero"></path><path fill="#000000" fill-opacity="0.0" d="m196.8924 39.230972l40.755905 0l0 41.133858l-40.755905 0z" fill-rule="nonzero"></path><path fill="#000000" d="m207.22052 71.19972l2.953125 -0.25q0.328125 2.15625 1.515625 3.25q1.203125 1.078125 2.890625 1.078125q2.03125 0 3.4375 -1.53125q1.40625 -1.53125 1.40625 -4.0625q0 -2.40625 -1.359375 -3.796875q-1.34375 -1.390625 -3.53125 -1.390625q-1.359375 0 -2.453125 0.625q-1.09375 0.609375 -1.71875 1.59375l-2.640625 -0.34375l2.21875 -11.765625l11.390625 0l0 2.6875l-9.140625 0l-1.234375 6.15625q2.0625 -1.4375 4.328125 -1.4375q3.0 0 5.0625 2.078125q2.0625 2.078125 2.0625 5.34375q0 3.109375 -1.8125 5.375q-2.203125 2.78125 -6.015625 2.78125q-3.125 0 -5.109375 -1.75q-1.96875 -1.75 -2.25 -4.640625z" fill-rule="nonzero"></path><path fill="#000000" fill-opacity="0.0" d="m320.18515 133.27461l-17.952759 145.6378" fill-rule="nonzero"></path><path stroke="#000000" stroke-width="4.0" stroke-linejoin="round" stroke-linecap="butt" d="m320.18515 133.27461l-17.952759 145.6378" fill-rule="nonzero"></path><path fill="#000000" fill-opacity="0.0" d="m203.92389 80.36483l-69.322845 65.32284" fill-rule="nonzero"></path><path stroke="#000000" stroke-width="4.0" stroke-linejoin="round" stroke-linecap="butt" d="m203.92389 80.36483l-69.322845 65.32284" fill-rule="nonzero"></path><path fill="#000000" fill-opacity="0.0" d="m60.27415 155.70604c-12.335884 1.7635803 -24.66861 9.1167755 -32.144356 19.086609c-9.743982 12.994812 -3.9695034 44.54692 12.052494 47.2126c11.968708 1.9913025 21.39729 -13.007584 28.128609 -23.102356c7.0497513 -10.572342 17.740921 -24.801178 12.055115 -36.16536c-3.1285706 -6.253067 -13.099815 -6.026245 -20.091862 -6.026245" fill-rule="evenodd"></path><path stroke="#000000" stroke-width="2.0" stroke-linejoin="round" stroke-linecap="butt" d="m60.27415 155.70604c-12.335884 1.7635803 -24.66861 9.1167755 -32.144356 19.086609c-9.743982 12.994812 -3.9695034 44.54692 12.052494 47.2126c11.968708 1.9913025 21.39729 -13.007584 28.128609 -23.102356c7.0497513 -10.572342 17.740921 -24.801178 12.055115 -36.16536c-3.1285706 -6.253067 -13.099815 -6.026245 -20.091862 -6.026245" fill-rule="evenodd"></path></g></svg>

